# Blender 4.1.0
# www.blender.org
mtllib basket_large.mtl
o basket_large
v -0.480752 0.289017 -0.279184
v -0.469878 0.289017 -0.393476
v -0.279184 0.289017 -0.480751
v -0.393476 0.289017 -0.469878
v -0.279183 0.289017 0.480752
v -0.393476 0.289017 0.469879
v -0.480752 0.289017 0.279184
v -0.469878 0.289017 0.393477
v 0.279184 0.289017 0.480752
v 0.393476 0.289017 0.469879
v 0.469878 0.289017 0.393477
v 0.480752 0.289017 0.279184
v 0.480752 0.289017 -0.279184
v 0.469878 0.289017 -0.393476
v 0.393476 0.289017 -0.469878
v 0.279184 0.289017 -0.480751
v 0.625567 0.000000 0.416231
v 0.416230 0.000000 0.625567
v 0.597521 0.000000 0.520899
v 0.520899 0.000000 0.597522
v 0.279184 0.723571 0.480752
v 0.480752 0.723571 0.279184
v 0.393476 0.723571 0.469879
v 0.469878 0.723571 0.393477
v -0.416231 0.000000 0.625567
v -0.625567 0.000000 0.416231
v -0.520900 0.000000 0.597522
v -0.597522 0.000000 0.520899
v -0.480752 0.723571 0.279184
v -0.279183 0.723571 0.480752
v -0.469878 0.723571 0.393477
v -0.393476 0.723571 0.469879
v 0.416230 0.000000 -0.625567
v 0.625567 0.000000 -0.416231
v 0.520899 0.000000 -0.597522
v 0.597521 0.000000 -0.520899
v 0.480752 0.723571 -0.279184
v 0.279184 0.723571 -0.480751
v 0.469878 0.723571 -0.393476
v 0.393476 0.723571 -0.469878
v -0.625567 0.000000 -0.416231
v -0.416231 0.000000 -0.625567
v -0.597522 0.000000 -0.520899
v -0.520900 0.000000 -0.597522
v -0.279184 0.723571 -0.480751
v -0.480752 0.723571 -0.279184
v -0.393476 0.723571 -0.469878
v -0.469878 0.723571 -0.393476
v 0.625567 0.535495 0.415294
v 0.415294 0.535495 0.625567
v 0.597396 0.535495 0.520431
v 0.520431 0.535495 0.597396
v -0.625567 0.535495 0.415294
v -0.415294 0.535495 0.625567
v -0.597397 0.535495 0.520431
v -0.520431 0.535495 0.597396
v -0.625567 0.535495 -0.415294
v -0.415294 0.535495 -0.625567
v -0.597397 0.535495 -0.520431
v -0.520431 0.535495 -0.597396
v 0.415293 0.535495 -0.625567
v 0.625567 0.535495 -0.415294
v 0.520431 0.535495 -0.597396
v 0.597396 0.535495 -0.520431
v 0.466790 0.535495 0.668853
v 0.668853 0.535495 0.466790
v 0.554746 0.535495 0.627003
v 0.627002 0.535495 0.554745
v -0.466790 0.535495 0.668853
v -0.668854 0.535495 0.466790
v -0.554746 0.535495 0.627003
v -0.627003 0.535495 0.554746
v -0.466790 0.535495 -0.668853
v -0.668854 0.535495 -0.466790
v -0.554746 0.535495 -0.627003
v -0.627003 0.535495 -0.554746
v 0.668853 0.535495 -0.466790
v 0.466790 0.535495 -0.668853
v 0.627002 0.535495 -0.554746
v 0.554746 0.535495 -0.627003
v 0.370525 0.738360 0.572747
v 0.466348 0.629378 0.668853
v 0.438116 0.712840 0.640704
v 0.668853 0.629378 0.466348
v 0.572747 0.738360 0.370525
v 0.640704 0.712840 0.438116
v 0.457644 0.735634 0.532513
v 0.554529 0.629378 0.626945
v 0.526072 0.712041 0.599265
v 0.532513 0.735634 0.457644
v 0.626945 0.629378 0.554529
v 0.599264 0.712041 0.526071
v -0.572747 0.738360 0.370525
v -0.668854 0.629378 0.466348
v -0.640705 0.712840 0.438116
v -0.466348 0.629378 0.668853
v -0.370525 0.738360 0.572747
v -0.438116 0.712840 0.640704
v -0.626945 0.629378 0.554529
v -0.532514 0.735634 0.457644
v -0.599265 0.712041 0.526071
v -0.554530 0.629378 0.626945
v -0.457644 0.735634 0.532513
v -0.526072 0.712041 0.599265
v -0.668854 0.629378 -0.466348
v -0.572747 0.738360 -0.370525
v -0.640705 0.712840 -0.438116
v -0.370525 0.738360 -0.572747
v -0.466348 0.629378 -0.668853
v -0.438116 0.712840 -0.640704
v -0.626945 0.629378 -0.554529
v -0.532514 0.735634 -0.457644
v -0.599265 0.712041 -0.526071
v -0.554530 0.629378 -0.626945
v -0.457644 0.735634 -0.532513
v -0.526072 0.712041 -0.599265
v 0.572747 0.738360 -0.370525
v 0.668853 0.629378 -0.466348
v 0.640704 0.712840 -0.438116
v 0.466348 0.629378 -0.668853
v 0.370525 0.738360 -0.572747
v 0.438116 0.712840 -0.640704
v 0.532513 0.735634 -0.457644
v 0.626945 0.629378 -0.554529
v 0.599264 0.712041 -0.526071
v 0.457644 0.735634 -0.532513
v 0.554529 0.629378 -0.626945
v 0.526072 0.712041 -0.599265
v 0.236241 0.354521 -0.068113
v 0.336123 0.486434 -0.041553
v 0.378612 0.638047 -0.098925
v 0.347476 0.751447 -0.218316
v 0.284360 0.303305 -0.167820
v 0.413980 0.403566 -0.202882
v 0.456469 0.555179 -0.260254
v 0.395595 0.700231 -0.318023
v 0.242201 0.273317 -0.278288
v 0.345765 0.355045 -0.381622
v 0.388253 0.506657 -0.438995
v 0.353436 0.670243 -0.428491
v 0.134460 0.282123 -0.334806
v 0.171438 0.369293 -0.473071
v 0.213926 0.520905 -0.530443
v 0.245695 0.679049 -0.485009
v 0.024252 0.324564 -0.304267
v -0.006884 0.437964 -0.423658
v 0.035604 0.589577 -0.481030
v 0.135487 0.721490 -0.454470
v 0.254611 0.783319 -0.354122
v 0.117117 0.292692 -0.168461
v -0.023867 0.375780 -0.204560
v -0.084740 0.520833 -0.262329
v -0.042253 0.672445 -0.319702
v 0.087369 0.772706 -0.354764
v 0.018292 0.405768 -0.094092
v -0.016525 0.569354 -0.083588
v 0.025963 0.720967 -0.140961
v 0.129528 0.802694 -0.244296
v 0.126033 0.396962 -0.037574
v 0.157803 0.555106 0.007860
v 0.200291 0.706718 -0.049512
v 0.237267 0.793888 -0.187777
v -0.059852 0.535264 0.367392
v -0.066140 0.698935 0.402821
v -0.136763 0.844492 0.359132
v -0.244744 0.916337 0.253012
v 0.000080 0.532463 0.261184
v 0.030831 0.694404 0.230973
v -0.039792 0.839961 0.187283
v -0.184813 0.913536 0.146804
v -0.023290 0.487785 0.150109
v -0.006981 0.622113 0.051250
v -0.077603 0.767670 0.007561
v -0.208182 0.868858 0.035729
v -0.116270 0.427402 0.099234
v -0.157427 0.524411 -0.031067
v -0.228049 0.669968 -0.074757
v -0.301163 0.808475 -0.015146
v -0.224395 0.386684 0.138361
v -0.332376 0.458529 0.032241
v -0.403000 0.604086 -0.011449
v -0.409287 0.767757 0.023980
v -0.348840 0.887026 0.124995
v -0.120299 0.415995 0.266377
v -0.284327 0.389485 0.244569
v -0.429348 0.463060 0.204089
v -0.499970 0.608617 0.160400
v -0.469219 0.770558 0.130189
v -0.260957 0.434163 0.355644
v -0.391536 0.535351 0.383812
v -0.462158 0.680907 0.340122
v -0.445850 0.815236 0.241263
v -0.167976 0.494546 0.406519
v -0.241090 0.633053 0.466129
v -0.311713 0.778610 0.422440
v -0.352870 0.875619 0.292138
v -0.307721 0.544462 -0.103377
v -0.269608 0.652627 0.018815
v -0.218275 0.809013 0.050305
v -0.173332 0.953885 -0.020936
v -0.198895 0.518531 -0.151998
v -0.093521 0.610669 -0.059856
v -0.042189 0.767055 -0.028366
v -0.064505 0.927954 -0.069557
v -0.150580 0.525186 -0.263807
v -0.015347 0.621437 -0.240767
v 0.035985 0.777823 -0.209277
v -0.016191 0.934609 -0.181366
v -0.191081 0.560529 -0.373308
v -0.080879 0.678623 -0.417943
v -0.029547 0.835009 -0.386453
v -0.056691 0.969952 -0.290867
v -0.296672 0.603856 -0.416356
v -0.251728 0.748729 -0.487596
v -0.200397 0.905114 -0.456106
v -0.162282 1.013279 -0.333915
v -0.151944 1.031908 -0.167694
v -0.318059 0.525833 -0.269597
v -0.405499 0.629787 -0.367734
v -0.427814 0.790686 -0.408925
v -0.376482 0.947072 -0.377435
v -0.271110 1.039211 -0.285293
v -0.453813 0.623132 -0.255925
v -0.505988 0.779918 -0.228014
v -0.454657 0.936304 -0.196524
v -0.319424 1.032556 -0.173484
v -0.413312 0.587789 -0.146425
v -0.440456 0.722732 -0.050838
v -0.389125 0.879118 -0.019349
v -0.278923 0.997213 -0.063984
v 0.436177 0.695762 0.037048
v 0.474577 0.842388 0.108528
v 0.421202 0.958432 0.217008
v 0.296439 0.999570 0.321052
v 0.345551 0.725255 -0.039091
v 0.327943 0.890108 -0.014667
v 0.274568 1.006152 0.093813
v 0.205814 1.029063 0.244913
v 0.230689 0.687479 -0.055197
v 0.142091 0.828986 -0.040727
v 0.088716 0.945030 0.067753
v 0.090951 0.991287 0.228807
v 0.158874 0.604564 -0.001836
v 0.025891 0.694826 0.045614
v -0.027484 0.810871 0.154094
v 0.019135 0.908372 0.282169
v 0.172174 0.525080 0.089735
v 0.047412 0.566218 0.193778
v -0.005963 0.682263 0.302258
v 0.032436 0.828888 0.373739
v 0.147943 0.950089 0.380918
v 0.320669 0.574561 0.029869
v 0.262799 0.495588 0.165874
v 0.194046 0.518499 0.316974
v 0.140671 0.634543 0.425454
v 0.123061 0.799396 0.449878
v 0.377662 0.533363 0.181980
v 0.379897 0.579620 0.343034
v 0.326522 0.695665 0.451514
v 0.237924 0.837171 0.465984
v 0.449477 0.616278 0.128618
v 0.496097 0.713780 0.256693
v 0.442722 0.829824 0.365173
v 0.309739 0.920086 0.412623
vn -0.0000 -1.0000 -0.0000
vn 0.9753 0.0009 0.2208
vn 0.9548 0.1893 0.2294
vn 0.7958 0.2150 0.5661
vn 0.8169 0.0020 0.5768
vn -0.9914 0.0002 0.1307
vn -0.9915 0.0002 0.1304
vn -0.9915 0.0002 -0.1304
vn -0.9914 0.0002 -0.1307
vn 0.9914 0.0002 -0.1307
vn 0.9915 0.0002 -0.1304
vn 0.9915 0.0002 0.1304
vn 0.9914 0.0002 0.1307
vn 0.5661 0.2150 0.7958
vn 0.5768 0.0020 0.8169
vn -0.9989 -0.0000 0.0474
vn -0.9955 -0.0000 0.0947
vn -0.2208 0.0009 -0.9753
vn -0.2294 0.1893 -0.9548
vn 0.2294 0.1893 -0.9548
vn 0.2208 0.0009 -0.9753
vn -0.5661 0.2150 0.7958
vn -0.5768 0.0020 0.8169
vn -0.2208 0.0009 0.9753
vn -0.2294 0.1893 0.9548
vn 0.1557 0.9878 -0.0066
vn 0.1557 0.9878 0.0066
vn -0.1127 0.9935 -0.0176
vn -0.1127 0.9935 0.0176
vn 0.0527 0.9906 0.1259
vn -0.0530 0.9968 -0.0604
vn -0.0604 0.9968 -0.0530
vn 0.1259 0.9906 0.0527
vn -0.0000 1.0000 -0.0000
vn 0.0530 0.9968 0.0604
vn -0.0527 0.9906 -0.1259
vn -0.0066 0.9878 -0.1557
vn 0.0176 0.9935 0.1127
vn -0.1307 0.0002 -0.9914
vn -0.1304 0.0002 -0.9915
vn 0.1304 0.0002 -0.9915
vn 0.1307 0.0002 -0.9914
vn -0.1557 0.9878 0.0066
vn -0.1557 0.9878 -0.0066
vn 0.1127 0.9935 0.0176
vn 0.1127 0.9935 -0.0176
vn -0.8660 0.0006 0.5001
vn -0.8661 0.0006 0.4999
vn -0.5001 0.0006 0.8660
vn -0.4999 0.0006 0.8661
vn -0.1307 0.0002 0.9914
vn -0.1304 0.0002 0.9915
vn -0.5001 0.0006 -0.8660
vn -0.4999 0.0006 -0.8661
vn -0.8660 0.0006 -0.5001
vn -0.8661 0.0006 -0.4999
vn 0.8660 0.0006 -0.5001
vn 0.8661 0.0006 -0.4999
vn 0.5001 0.0006 -0.8660
vn 0.4999 0.0006 -0.8661
vn 0.8661 0.0006 0.4999
vn 0.8660 0.0006 0.5001
vn 0.4999 0.0006 0.8661
vn 0.5001 0.0006 0.8660
vn 0.1304 0.0002 0.9915
vn 0.1307 0.0002 0.9914
vn 0.7958 0.2150 -0.5661
vn 0.8169 0.0020 -0.5768
vn 0.5768 0.0020 -0.8169
vn 0.5661 0.2150 -0.7958
vn 0.9753 0.0009 -0.2208
vn 0.9548 0.1893 -0.2294
vn -0.0604 0.9968 0.0530
vn 0.1259 0.9906 -0.0527
vn 0.0066 0.9878 -0.1557
vn -0.0176 0.9935 0.1127
vn -0.9548 0.1893 0.2294
vn -0.9753 0.0009 0.2208
vn -0.8169 0.0020 0.5768
vn -0.7958 0.2150 0.5661
vn -0.0530 0.9968 0.0604
vn 0.0527 0.9906 -0.1259
vn -0.1259 0.9906 -0.0527
vn 0.0604 0.9968 0.0530
vn 0.2208 0.0009 0.9753
vn 0.2294 0.1893 0.9548
vn -0.9548 0.1893 -0.2294
vn -0.9753 0.0009 -0.2208
vn 0.0066 0.9878 0.1557
vn -0.0066 0.9878 0.1557
vn 0.0176 0.9935 -0.1127
vn -0.0176 0.9935 -0.1127
vn 0.0604 0.9968 -0.0530
vn -0.1259 0.9906 0.0527
vn 0.0530 0.9968 -0.0604
vn -0.0527 0.9906 0.1259
vn -0.5768 0.0020 -0.8169
vn -0.5661 0.2150 -0.7958
vn -0.8169 0.0020 -0.5768
vn -0.7958 0.2150 -0.5661
vn 0.9955 -0.0000 0.0947
vn 0.9989 -0.0000 0.0474
vn -0.0474 -0.0000 0.9989
vn 0.0474 -0.0000 0.9989
vn 0.7071 -0.0000 -0.7071
vn -0.0947 -0.0000 0.9955
vn 0.9989 -0.0000 -0.0474
vn -0.0474 -0.0000 -0.9989
vn -0.0947 -0.0000 -0.9955
vn 0.0947 -0.0000 0.9955
vn 0.0474 -0.0000 -0.9989
vn -0.9989 -0.0000 -0.0474
vn -0.9955 -0.0000 -0.0947
vn 0.0947 -0.0000 -0.9955
vn -0.7071 -0.0000 0.7071
vn 0.9955 -0.0000 -0.0947
vn 0.7071 -0.0000 0.7071
vn -0.7071 -0.0000 -0.7071
vn 0.1486 0.7106 -0.6877
vn 0.3824 0.7488 -0.5413
vn 0.5413 0.7488 -0.3824
vn 0.6877 0.7106 -0.1486
vn 0.6877 0.7106 0.1486
vn 0.5413 0.7488 0.3824
vn 0.3824 0.7488 0.5413
vn 0.1486 0.7106 0.6877
vn -0.5413 0.7488 0.3824
vn -0.6877 0.7106 0.1486
vn -0.3824 0.7488 0.5413
vn -0.1486 0.7106 0.6877
vn -0.1486 0.7106 -0.6877
vn -0.3824 0.7488 -0.5413
vn -0.5413 0.7488 -0.3824
vn -0.6877 0.7106 -0.1486
vn 0.2535 0.9047 -0.3424
vn 0.1794 0.9282 0.3259
vn 0.6175 0.7595 0.2045
vn 0.0479 0.6063 0.7938
vn -0.0986 0.0835 0.9916
vn 0.5635 -0.1714 0.8082
vn 0.7099 0.3513 0.6104
vn -0.2129 -0.4717 0.8557
vn -0.2535 -0.9047 0.3424
vn 0.2252 -0.6404 0.7343
vn 0.8088 0.5559 -0.1918
vn 0.8525 -0.4790 0.2093
vn 0.9990 0.0437 0.0114
vn 0.4165 -0.8440 0.3379
vn 0.6412 0.4367 -0.6310
vn 0.5992 -0.6592 -0.4543
vn 0.7457 -0.1364 -0.6521
vn 0.2489 -0.9632 -0.1013
vn 0.2129 0.4717 -0.8557
vn -0.0479 -0.6063 -0.7938
vn 0.0986 -0.0835 -0.9916
vn -0.1794 -0.9282 -0.3260
vn -0.2252 0.6404 -0.7343
vn -0.7099 -0.3513 -0.6104
vn -0.5635 0.1714 -0.8082
vn -0.6175 -0.7595 -0.2045
vn -0.4165 0.8440 -0.3379
vn -0.9990 -0.0437 -0.0114
vn -0.8525 0.4790 -0.2093
vn -0.8088 -0.5559 0.1918
vn -0.2489 0.9632 0.1013
vn -0.7457 0.1364 0.6521
vn -0.5992 0.6592 0.4543
vn -0.6412 -0.4367 0.6310
vn -0.4214 0.8686 -0.2607
vn -0.4288 0.8054 0.4091
vn 0.0010 0.9673 0.2536
vn -0.2770 0.4526 0.8476
vn -0.0336 -0.0493 0.9982
vn 0.6159 0.1953 0.7632
vn 0.3724 0.6972 0.6126
vn 0.2233 -0.5385 0.8125
vn 0.4214 -0.8686 0.2607
vn 0.6531 -0.3766 0.6570
vn 0.2393 0.9562 -0.1687
vn 0.9759 0.1785 0.1252
vn 0.7324 0.6803 -0.0254
vn 0.8914 -0.3878 0.2347
vn 0.1464 0.7786 -0.6102
vn 0.8356 -0.0899 -0.5420
vn 0.5921 0.4120 -0.6926
vn 0.7985 -0.5654 -0.2069
vn -0.2233 0.5385 -0.8125
vn 0.2770 -0.4526 -0.8476
vn 0.0336 0.0493 -0.9982
vn 0.4288 -0.8054 -0.4091
vn -0.6531 0.3766 -0.6570
vn -0.3724 -0.6972 -0.6126
vn -0.6159 -0.1953 -0.7632
vn -0.0010 -0.9673 -0.2536
vn -0.8914 0.3878 -0.2347
vn -0.7324 -0.6803 0.0254
vn -0.9759 -0.1785 -0.1252
vn -0.2393 -0.9562 0.1687
vn -0.7985 0.5654 0.2068
vn -0.5921 -0.4120 0.6926
vn -0.8356 0.0899 0.5420
vn -0.1464 -0.7786 0.6102
vn 0.3063 0.9332 0.1879
vn -0.2048 0.7762 0.5964
vn 0.2150 0.6039 0.7675
vn -0.5790 0.3515 0.7357
vn -0.7559 -0.1877 0.6271
vn -0.1217 -0.4480 0.8857
vn 0.0553 0.0912 0.9943
vn -0.6787 -0.6678 0.3056
vn -0.3063 -0.9332 -0.1879
vn -0.2589 -0.8400 0.4767
vn 0.6477 0.5008 0.5742
vn 0.5320 -0.6037 0.5937
vn 0.7090 -0.0646 0.7022
vn 0.1737 -0.9431 0.2835
vn 0.8397 0.5273 0.1297
vn 0.8222 -0.5638 -0.0780
vn 0.9992 -0.0246 0.0306
vn 0.3658 -0.9167 -0.1610
vn 0.6787 0.6678 -0.3056
vn 0.5790 -0.3515 -0.7357
vn 0.7559 0.1877 -0.6271
vn 0.2048 -0.7762 -0.5964
vn 0.2589 0.8400 -0.4767
vn -0.0553 -0.0912 -0.9943
vn 0.1217 0.4480 -0.8857
vn -0.2150 -0.6039 -0.7675
vn -0.1737 0.9431 -0.2835
vn -0.7090 0.0646 -0.7022
vn -0.5320 0.6037 -0.5937
vn -0.6477 -0.5008 -0.5742
vn -0.3658 0.9167 0.1610
vn -0.9992 0.0246 -0.0306
vn -0.8222 0.5638 0.0780
vn -0.8397 -0.5273 -0.1297
vn -0.3185 0.6925 0.6473
vn 0.3312 0.5590 0.7601
vn 0.2784 0.8750 0.3961
vn 0.7808 0.2352 0.5788
vn 0.9648 -0.1649 0.2048
vn 0.8849 0.3126 -0.3452
vn 0.7009 0.7127 0.0288
vn 0.8241 -0.5125 -0.2415
vn 0.3185 -0.6925 -0.6473
vn 0.7712 -0.1965 -0.6055
vn -0.0819 0.9923 0.0934
vn 0.3406 0.4897 -0.8026
vn 0.1565 0.8898 -0.4286
vn 0.4109 -0.0792 -0.9082
vn -0.5386 0.8421 0.0294
vn -0.3494 0.2628 -0.8994
vn -0.5334 0.6629 -0.5253
vn -0.0457 -0.2294 -0.9723
vn -0.8241 0.5124 0.2415
vn -0.7808 -0.2352 -0.5788
vn -0.9648 0.1649 -0.2048
vn -0.3312 -0.5590 -0.7601
vn -0.7712 0.1965 0.6055
vn -0.7009 -0.7127 -0.0288
vn -0.8849 -0.3126 0.3452
vn -0.2784 -0.8750 -0.3961
vn -0.4109 0.0792 0.9082
vn -0.1565 -0.8898 0.4286
vn -0.3406 -0.4897 0.8026
vn 0.0819 -0.9923 -0.0934
vn 0.0457 0.2294 0.9723
vn 0.5334 -0.6629 0.5253
vn 0.3494 -0.2628 0.8994
vn 0.5386 -0.8421 -0.0294
vt 0.182813 0.228906
vt 0.052939 0.569576
vt 0.329688 0.986328
vt 0.344531 0.019531
s 1
usemtl BASE_MATERIAL
f 54/1/1 50/1/1 65/1/1 69/1/1
f 61/1/1 58/1/1 73/1/1 78/1/1
f 66/1/2 84/1/3 91/1/4 68/1/5
f 26/2/6 53/2/7 57/2/8 41/2/9
f 34/2/10 62/2/11 49/2/12 17/2/13
f 68/1/5 91/1/4 88/1/14 67/1/15
f 37/1/16 39/1/17 14/1/17 13/1/16
f 73/1/18 109/1/19 120/1/20 78/1/21
f 102/1/22 71/1/23 69/1/24 96/1/25
f 25/1/1 27/1/1 28/1/1 26/1/1 41/1/1 43/1/1 44/1/1 42/1/1 33/1/1 35/1/1 36/1/1 34/1/1 17/1/1 19/1/1 20/1/1 18/1/1
f 29/1/26 46/1/27 106/1/28 93/1/29
f 47/1/30 115/1/31 112/1/32 48/1/33
f 3/1/34 4/1/34 2/1/34 1/1/34 7/1/34 8/1/34 6/1/34 5/1/34 9/1/34 10/1/34 11/1/34 12/1/34 13/1/34 14/1/34 15/1/34 16/1/34
f 87/1/35 23/1/36 21/1/37 81/1/38
f 42/2/39 58/2/40 61/2/41 33/2/42
f 57/1/1 53/1/1 70/1/1 74/1/1
f 49/1/1 62/1/1 77/1/1 66/1/1
f 37/1/43 22/1/44 85/1/45 117/1/46
f 54/1/1 69/1/1 71/1/1 56/1/1
f 56/1/1 71/1/1 72/1/1 55/1/1
f 55/1/1 72/1/1 70/1/1 53/1/1
f 53/2/7 26/2/6 28/2/47 55/2/48
f 55/2/48 28/2/47 27/2/49 56/2/50
f 56/2/50 27/2/49 25/2/51 54/2/52
f 58/2/40 42/2/39 44/2/53 60/2/54
f 60/2/54 44/2/53 43/2/55 59/2/56
f 59/2/56 43/2/55 41/2/9 57/2/8
f 62/2/11 34/2/10 36/2/57 64/2/58
f 64/2/58 36/2/57 35/2/59 63/2/60
f 63/2/60 35/2/59 33/2/42 61/2/41
f 17/2/13 49/2/12 51/2/61 19/2/62
f 19/2/62 51/2/61 52/2/63 20/2/64
f 20/2/64 52/2/63 50/2/65 18/2/66
f 124/1/67 79/1/68 80/1/69 127/1/70
f 127/1/70 80/1/69 78/1/21 120/1/20
f 77/1/71 118/1/72 84/1/3 66/1/2
f 29/1/26 93/1/29 100/1/73 31/1/74
f 21/1/37 30/1/75 97/1/76 81/1/38
f 94/1/77 70/1/78 72/1/79 99/1/80
f 99/1/80 72/1/79 71/1/23 102/1/22
f 31/1/74 100/1/73 103/1/81 32/1/82
f 85/1/45 22/1/44 24/1/83 90/1/84
f 90/1/84 24/1/83 23/1/36 87/1/35
f 65/1/85 82/1/86 96/1/25 69/1/24
f 70/1/78 94/1/77 105/1/87 74/1/88
f 48/1/33 112/1/32 106/1/28 46/1/27
f 32/1/82 103/1/81 97/1/76 30/1/75
f 45/1/89 38/1/90 121/1/91 108/1/92
f 118/1/72 77/1/71 79/1/68 124/1/67
f 45/1/89 108/1/92 115/1/31 47/1/30
f 123/1/93 39/1/94 37/1/43 117/1/46
f 126/1/95 40/1/96 39/1/94 123/1/93
f 121/1/91 38/1/90 40/1/96 126/1/95
f 73/1/1 58/1/1 60/1/1 75/1/1
f 75/1/1 60/1/1 59/1/1 76/1/1
f 76/1/1 59/1/1 57/1/1 74/1/1
f 61/1/1 78/1/1 80/1/1 63/1/1
f 63/1/1 80/1/1 79/1/1 64/1/1
f 64/1/1 79/1/1 77/1/1 62/1/1
f 65/1/1 50/1/1 52/1/1 67/1/1
f 67/1/1 52/1/1 51/1/1 68/1/1
f 68/1/1 51/1/1 49/1/1 66/1/1
f 109/1/19 73/1/18 75/1/97 114/1/98
f 114/1/98 75/1/97 76/1/99 111/1/100
f 111/1/100 76/1/99 74/1/88 105/1/87
f 18/2/66 50/2/65 54/2/52 25/2/51
f 48/1/101 46/1/102 1/1/102 2/1/101
f 38/1/103 45/1/104 3/1/104 16/1/103
f 31/1/105 32/1/105 6/1/105 8/1/105
f 40/1/106 38/1/103 16/1/103 15/1/106
f 46/1/102 29/1/107 7/1/107 1/1/102
f 21/1/108 23/1/109 10/1/109 9/1/108
f 45/1/104 47/1/110 4/1/110 3/1/104
f 30/1/111 21/1/108 9/1/108 5/1/111
f 22/1/112 37/1/16 13/1/16 12/1/112
f 24/1/113 22/1/112 12/1/112 11/1/113
f 32/1/114 30/1/111 5/1/111 6/1/114
f 39/1/115 40/1/115 15/1/115 14/1/115
f 29/1/107 31/1/116 8/1/116 7/1/107
f 47/1/117 48/1/117 2/1/117 4/1/117
f 23/1/118 24/1/118 11/1/118 10/1/118
f 127/1/70 120/1/20 122/1/119 128/1/120
f 128/1/120 122/1/119 121/1/91 126/1/95
f 124/1/67 127/1/70 128/1/120 125/1/121
f 125/1/121 128/1/120 126/1/95 123/1/93
f 118/1/72 124/1/67 125/1/121 119/1/122
f 119/1/122 125/1/121 123/1/93 117/1/46
f 91/1/4 84/1/3 86/1/123 92/1/124
f 92/1/124 86/1/123 85/1/45 90/1/84
f 88/1/14 91/1/4 92/1/124 89/1/125
f 89/1/125 92/1/124 90/1/84 87/1/35
f 82/1/86 88/1/14 89/1/125 83/1/126
f 83/1/126 89/1/125 87/1/35 81/1/38
f 94/1/77 99/1/80 101/1/127 95/1/128
f 95/1/128 101/1/127 100/1/73 93/1/29
f 99/1/80 102/1/22 104/1/129 101/1/127
f 101/1/127 104/1/129 103/1/81 100/1/73
f 102/1/22 96/1/25 98/1/130 104/1/129
f 104/1/129 98/1/130 97/1/76 103/1/81
f 115/1/31 108/1/92 110/1/131 116/1/132
f 116/1/132 110/1/131 109/1/19 114/1/98
f 112/1/32 115/1/31 116/1/132 113/1/133
f 113/1/133 116/1/132 114/1/98 111/1/100
f 106/1/28 112/1/32 113/1/133 107/1/134
f 107/1/134 113/1/133 111/1/100 105/1/87
f 84/1/3 118/1/72 119/1/122 86/1/123
f 86/1/123 119/1/122 117/1/46 85/1/45
f 96/1/25 82/1/86 83/1/126 98/1/130
f 98/1/130 83/1/126 81/1/38 97/1/76
f 105/1/87 94/1/77 95/1/128 107/1/134
f 107/1/134 95/1/128 93/1/29 106/1/28
f 120/1/20 109/1/19 110/1/131 122/1/119
f 122/1/119 110/1/131 108/1/92 121/1/91
f 67/1/15 88/1/14 82/1/86 65/1/85
f 149/3/135 162/3/136 132/3/137
f 161/3/138 160/3/139 130/3/140 131/3/141
f 159/3/142 150/3/143 129/3/144
f 162/3/136 161/3/138 131/3/141 132/3/137
f 160/3/139 159/3/142 129/3/144 130/3/140
f 149/4/135 132/4/137 136/4/145
f 131/4/141 130/4/140 134/4/146 135/4/147
f 129/4/144 150/4/143 133/4/148
f 132/4/137 131/4/141 135/4/147 136/4/145
f 130/4/140 129/4/144 133/4/148 134/4/146
f 149/3/135 136/3/145 140/3/149
f 135/3/147 134/3/146 138/3/150 139/3/151
f 133/3/148 150/3/143 137/3/152
f 136/3/145 135/3/147 139/3/151 140/3/149
f 134/3/146 133/3/148 137/3/152 138/3/150
f 149/4/135 140/4/149 144/4/153
f 139/4/151 138/4/150 142/4/154 143/4/155
f 137/4/152 150/4/143 141/4/156
f 140/4/149 139/4/151 143/4/155 144/4/153
f 138/4/150 137/4/152 141/4/156 142/4/154
f 149/3/135 144/3/153 148/3/157
f 143/3/155 142/3/154 146/3/158 147/3/159
f 141/3/156 150/3/143 145/3/160
f 144/3/153 143/3/155 147/3/159 148/3/157
f 142/3/154 141/3/156 145/3/160 146/3/158
f 149/4/135 148/4/157 154/4/161
f 147/4/159 146/4/158 152/4/162 153/4/163
f 145/4/160 150/4/143 151/4/164
f 148/4/157 147/4/159 153/4/163 154/4/161
f 146/4/158 145/4/160 151/4/164 152/4/162
f 149/3/135 154/3/161 158/3/165
f 153/3/163 152/3/162 156/3/166 157/3/167
f 151/3/164 150/3/143 155/3/168
f 154/3/161 153/3/163 157/3/167 158/3/165
f 152/3/162 151/3/164 155/3/168 156/3/166
f 149/4/135 158/4/165 162/4/136
f 157/4/167 156/4/166 160/4/139 161/4/138
f 155/4/168 150/4/143 159/4/142
f 158/4/165 157/4/167 161/4/138 162/4/136
f 156/4/166 155/4/168 159/4/142 160/4/139
f 183/3/169 196/3/170 166/3/171
f 195/3/172 194/3/173 164/3/174 165/3/175
f 193/3/176 184/3/177 163/3/178
f 196/3/170 195/3/172 165/3/175 166/3/171
f 194/3/173 193/3/176 163/3/178 164/3/174
f 183/4/169 166/4/171 170/4/179
f 165/4/175 164/4/174 168/4/180 169/4/181
f 163/4/178 184/4/177 167/4/182
f 166/4/171 165/4/175 169/4/181 170/4/179
f 164/4/174 163/4/178 167/4/182 168/4/180
f 183/3/169 170/3/179 174/3/183
f 169/3/181 168/3/180 172/3/184 173/3/185
f 167/3/182 184/3/177 171/3/186
f 170/3/179 169/3/181 173/3/185 174/3/183
f 168/3/180 167/3/182 171/3/186 172/3/184
f 183/4/169 174/4/183 178/4/187
f 173/4/185 172/4/184 176/4/188 177/4/189
f 171/4/186 184/4/177 175/4/190
f 174/4/183 173/4/185 177/4/189 178/4/187
f 172/4/184 171/4/186 175/4/190 176/4/188
f 183/3/169 178/3/187 182/3/191
f 177/3/189 176/3/188 180/3/192 181/3/193
f 175/3/190 184/3/177 179/3/194
f 178/3/187 177/3/189 181/3/193 182/3/191
f 176/3/188 175/3/190 179/3/194 180/3/192
f 183/4/169 182/4/191 188/4/195
f 181/4/193 180/4/192 186/4/196 187/4/197
f 179/4/194 184/4/177 185/4/198
f 182/4/191 181/4/193 187/4/197 188/4/195
f 180/4/192 179/4/194 185/4/198 186/4/196
f 183/3/169 188/3/195 192/3/199
f 187/3/197 186/3/196 190/3/200 191/3/201
f 185/3/198 184/3/177 189/3/202
f 188/3/195 187/3/197 191/3/201 192/3/199
f 186/3/196 185/3/198 189/3/202 190/3/200
f 183/4/169 192/4/199 196/4/170
f 191/4/201 190/4/200 194/4/173 195/4/172
f 189/4/202 184/4/177 193/4/176
f 192/4/199 191/4/201 195/4/172 196/4/170
f 190/4/200 189/4/202 193/4/176 194/4/173
f 217/4/203 230/4/204 200/4/205
f 229/4/206 228/4/207 198/4/208 199/4/209
f 227/4/210 218/4/211 197/4/212
f 230/4/204 229/4/206 199/4/209 200/4/205
f 228/4/207 227/4/210 197/4/212 198/4/208
f 217/3/203 200/3/205 204/3/213
f 199/3/209 198/3/208 202/3/214 203/3/215
f 197/3/212 218/3/211 201/3/216
f 200/3/205 199/3/209 203/3/215 204/3/213
f 198/3/208 197/3/212 201/3/216 202/3/214
f 217/4/203 204/4/213 208/4/217
f 203/4/215 202/4/214 206/4/218 207/4/219
f 201/4/216 218/4/211 205/4/220
f 204/4/213 203/4/215 207/4/219 208/4/217
f 202/4/214 201/4/216 205/4/220 206/4/218
f 217/3/203 208/3/217 212/3/221
f 207/3/219 206/3/218 210/3/222 211/3/223
f 205/3/220 218/3/211 209/3/224
f 208/3/217 207/3/219 211/3/223 212/3/221
f 206/3/218 205/3/220 209/3/224 210/3/222
f 217/4/203 212/4/221 216/4/225
f 211/4/223 210/4/222 214/4/226 215/4/227
f 209/4/224 218/4/211 213/4/228
f 212/4/221 211/4/223 215/4/227 216/4/225
f 210/4/222 209/4/224 213/4/228 214/4/226
f 217/3/203 216/3/225 222/3/229
f 215/3/227 214/3/226 220/3/230 221/3/231
f 213/3/228 218/3/211 219/3/232
f 216/3/225 215/3/227 221/3/231 222/3/229
f 214/3/226 213/3/228 219/3/232 220/3/230
f 217/4/203 222/4/229 226/4/233
f 221/4/231 220/4/230 224/4/234 225/4/235
f 219/4/232 218/4/211 223/4/236
f 222/4/229 221/4/231 225/4/235 226/4/233
f 220/4/230 219/4/232 223/4/236 224/4/234
f 217/3/203 226/3/233 230/3/204
f 225/3/235 224/3/234 228/3/207 229/3/206
f 223/3/236 218/3/211 227/3/210
f 226/3/233 225/3/235 229/3/206 230/3/204
f 224/3/234 223/3/236 227/3/210 228/3/207
f 251/4/237 264/4/238 234/4/239
f 263/4/240 262/4/241 232/4/242 233/4/243
f 261/4/244 252/4/245 231/4/246
f 264/4/238 263/4/240 233/4/243 234/4/239
f 262/4/241 261/4/244 231/4/246 232/4/242
f 251/3/237 234/3/239 238/3/247
f 233/3/243 232/3/242 236/3/248 237/3/249
f 231/3/246 252/3/245 235/3/250
f 234/3/239 233/3/243 237/3/249 238/3/247
f 232/3/242 231/3/246 235/3/250 236/3/248
f 251/4/237 238/4/247 242/4/251
f 237/4/249 236/4/248 240/4/252 241/4/253
f 235/4/250 252/4/245 239/4/254
f 238/4/247 237/4/249 241/4/253 242/4/251
f 236/4/248 235/4/250 239/4/254 240/4/252
f 251/3/237 242/3/251 246/3/255
f 241/3/253 240/3/252 244/3/256 245/3/257
f 239/3/254 252/3/245 243/3/258
f 242/3/251 241/3/253 245/3/257 246/3/255
f 240/3/252 239/3/254 243/3/258 244/3/256
f 251/4/237 246/4/255 250/4/259
f 245/4/257 244/4/256 248/4/260 249/4/261
f 243/4/258 252/4/245 247/4/262
f 246/4/255 245/4/257 249/4/261 250/4/259
f 244/4/256 243/4/258 247/4/262 248/4/260
f 251/3/237 250/3/259 256/3/263
f 249/3/261 248/3/260 254/3/264 255/3/265
f 247/3/262 252/3/245 253/3/266
f 250/3/259 249/3/261 255/3/265 256/3/263
f 248/3/260 247/3/262 253/3/266 254/3/264
f 251/4/237 256/4/263 260/4/267
f 255/4/265 254/4/264 258/4/268 259/4/269
f 253/4/266 252/4/245 257/4/270
f 256/4/263 255/4/265 259/4/269 260/4/267
f 254/4/264 253/4/266 257/4/270 258/4/268
f 251/3/237 260/3/267 264/3/238
f 259/3/269 258/3/268 262/3/241 263/3/240
f 257/3/270 252/3/245 261/3/244
f 260/3/267 259/3/269 263/3/240 264/3/238
f 258/3/268 257/3/270 261/3/244 262/3/241
