# Blender 4.1.0
# www.blender.org
mtllib basket_small.mtl
o basket_small
v 0.158666 0.562348 0.140388
v 0.204095 0.562348 0.134920
v 0.209454 0.571476 0.179436
v 0.164024 0.571476 0.184904
v 0.140599 0.650987 0.127648
v 0.184879 0.660936 0.121808
v 0.191798 0.656569 0.166828
v 0.147518 0.646620 0.172668
v 0.157766 0.599303 0.132918
v 0.203196 0.599303 0.127450
v 0.208554 0.608431 0.171966
v 0.163125 0.608431 0.177434
v 0.184058 0.595656 0.159912
v 0.093036 0.559100 0.093780
v 0.034680 0.452348 0.051382
v 0.034266 0.377207 0.051082
v 0.078261 0.303095 0.083046
v 0.149290 0.559100 0.052908
v 0.127001 0.452348 -0.015692
v 0.126842 0.377207 -0.016179
v 0.143647 0.303095 0.035540
v 0.218825 0.559100 0.052908
v 0.241116 0.452348 -0.015692
v 0.241273 0.377207 -0.016179
v 0.224468 0.303095 0.035540
v 0.275080 0.559100 0.093780
v 0.333436 0.452348 0.051382
v 0.333849 0.377207 0.051082
v 0.289854 0.303095 0.083046
v 0.296568 0.559100 0.159912
v 0.368699 0.452348 0.159912
v 0.369210 0.377207 0.159912
v 0.314830 0.303095 0.159912
v 0.275080 0.559100 0.226043
v 0.333436 0.452348 0.268441
v 0.333849 0.377207 0.268741
v 0.289854 0.303095 0.236777
v 0.218825 0.559100 0.266915
v 0.241116 0.452348 0.335516
v 0.241273 0.377207 0.336002
v 0.224468 0.303095 0.284283
v 0.184058 0.268685 0.159912
v 0.149290 0.559100 0.266915
v 0.127001 0.452348 0.335516
v 0.126842 0.377207 0.336002
v 0.143647 0.303095 0.284283
v 0.093036 0.559100 0.226043
v 0.034680 0.452348 0.268441
v 0.034266 0.377207 0.268741
v 0.078261 0.303095 0.236778
v 0.071548 0.559100 0.159912
v -0.000584 0.452348 0.159912
v -0.001095 0.377207 0.159912
v 0.053286 0.303095 0.159912
v 0.050251 0.511246 0.062925
v 0.150479 0.511247 0.002843
v 0.217638 0.511247 0.002843
v 0.317864 0.511246 0.062925
v 0.349451 0.511246 0.160141
v 0.306456 0.511246 0.265647
v 0.246578 0.511246 0.309150
v 0.117888 0.511246 0.306498
v 0.065313 0.511246 0.268300
v 0.018664 0.511246 0.160141
v 0.087008 0.535173 0.051210
v 0.114263 0.535173 0.036413
v 0.248849 0.535173 0.035697
v 0.275562 0.535173 0.050093
v 0.324062 0.535173 0.195063
v 0.313022 0.535173 0.221039
v 0.197842 0.535173 0.302216
v 0.169369 0.535173 0.304644
v 0.059723 0.535173 0.212539
v 0.052564 0.535173 0.190449
v 0.328617 0.535173 0.160671
v 0.300037 0.535173 0.075244
v 0.234031 0.535173 0.296188
v 0.298370 0.535173 0.250843
v 0.132463 0.535173 0.294198
v 0.075769 0.535173 0.246574
v 0.043856 0.535173 0.160622
v 0.065354 0.535173 0.073717
v 0.146026 0.535173 0.020609
v 0.221545 0.535173 0.020208
v -0.355047 0.222624 -0.206185
v -0.347017 0.222624 -0.290593
v -0.206183 0.222624 -0.355048
v -0.290592 0.222624 -0.347018
v -0.206183 0.222624 0.355048
v -0.290592 0.222624 0.347018
v -0.355047 0.222624 0.206185
v -0.347017 0.222624 0.290593
v 0.206186 0.222624 0.355048
v 0.290594 0.222624 0.347018
v 0.347019 0.222624 0.290593
v 0.355049 0.222624 0.206185
v 0.355049 0.222624 -0.206184
v 0.347019 0.222624 -0.290593
v 0.290594 0.222624 -0.347018
v 0.206186 0.222624 -0.355048
v 0.461999 0.000000 0.307398
v 0.307399 0.000000 0.461998
v 0.441286 0.000000 0.384698
v 0.384699 0.000000 0.441286
v 0.206186 0.543554 0.355048
v 0.355049 0.543554 0.206185
v 0.290594 0.543554 0.347018
v 0.347019 0.543554 0.290593
v -0.307397 0.000000 0.461998
v -0.461998 0.000000 0.307398
v -0.384697 0.000000 0.441286
v -0.441285 0.000000 0.384698
v -0.355047 0.543554 0.206185
v -0.206183 0.543554 0.355048
v -0.347017 0.543554 0.290593
v -0.290592 0.543554 0.347018
v 0.307398 0.000000 -0.461998
v 0.461999 0.000000 -0.307397
v 0.384699 0.000000 -0.441286
v 0.441286 0.000000 -0.384698
v 0.355049 0.543554 -0.206184
v 0.206186 0.543554 -0.355048
v 0.347019 0.543554 -0.290593
v 0.290594 0.543554 -0.347018
v -0.461998 0.000000 -0.307397
v -0.307397 0.000000 -0.461998
v -0.441285 0.000000 -0.384698
v -0.384697 0.000000 -0.441286
v -0.206183 0.543554 -0.355048
v -0.355047 0.543554 -0.206185
v -0.290592 0.543554 -0.347018
v -0.347017 0.543554 -0.290593
v 0.461999 0.372415 0.306705
v 0.306706 0.372415 0.461998
v 0.441194 0.372415 0.384352
v 0.384353 0.372415 0.441193
v -0.461998 0.372415 0.306706
v -0.306705 0.372415 0.461998
v -0.441193 0.372415 0.384352
v -0.384351 0.372415 0.441193
v -0.461998 0.372415 -0.306705
v -0.306705 0.372415 -0.461998
v -0.441193 0.372415 -0.384352
v -0.384351 0.372415 -0.441193
v 0.306706 0.372415 -0.461998
v 0.461999 0.372415 -0.306705
v 0.384353 0.372415 -0.441193
v 0.441194 0.372415 -0.384352
v 0.344738 0.372415 0.493966
v 0.493967 0.372415 0.344737
v 0.409696 0.372415 0.463058
v 0.463059 0.372415 0.409695
v -0.344736 0.372415 0.493966
v -0.493965 0.372415 0.344737
v -0.409694 0.372415 0.463058
v -0.463058 0.372415 0.409695
v -0.344736 0.372415 -0.493966
v -0.493965 0.372415 -0.344737
v -0.409694 0.372415 -0.463058
v -0.463058 0.372415 -0.409694
v 0.493967 0.372415 -0.344737
v 0.344738 0.372415 -0.493966
v 0.463058 0.372415 -0.409694
v 0.409696 0.372415 -0.463058
v -0.128792 0.699286 0.127096
v -0.089286 0.680501 0.113674
v -0.074643 0.680321 0.157025
v -0.114149 0.699106 0.170447
v -0.106913 0.787905 0.123425
v -0.064035 0.778547 0.110474
v -0.053966 0.765580 0.153185
v -0.096843 0.774939 0.166135
v -0.114080 0.733674 0.122270
v -0.074574 0.714890 0.108848
v -0.059932 0.714709 0.152199
v -0.099438 0.733494 0.165621
v -0.088896 0.715465 0.143889
v -0.194447 0.730903 0.092747
v -0.299283 0.666423 0.054659
v -0.333208 0.599561 0.049657
v -0.323134 0.510164 0.068537
v -0.149990 0.712259 0.042636
v -0.226324 0.635826 -0.027578
v -0.260047 0.568879 -0.032808
v -0.271461 0.488494 0.010293
v -0.088426 0.682374 0.030313
v -0.125291 0.586781 -0.047803
v -0.158734 0.519699 -0.053088
v -0.199904 0.453758 -0.004031
v -0.033271 0.652663 0.060483
v -0.034775 0.538023 0.001710
v -0.067967 0.470805 -0.003438
v -0.135797 0.419225 0.031037
v -0.005591 0.634475 0.121623
v 0.010651 0.508174 0.102048
v -0.022417 0.440874 0.097178
v -0.103624 0.398084 0.102101
v -0.015961 0.634757 0.190380
v -0.006367 0.508637 0.214886
v -0.039481 0.441338 0.210328
v -0.115676 0.398412 0.182018
v -0.060417 0.653401 0.240490
v -0.079326 0.539234 0.297123
v -0.112642 0.472019 0.292792
v -0.167350 0.420082 0.240262
v -0.234755 0.423570 0.123089
v -0.121982 0.683286 0.252814
v -0.180359 0.588278 0.317348
v -0.213955 0.521200 0.313073
v -0.238906 0.454818 0.254586
v -0.177136 0.712997 0.222644
v -0.270875 0.637037 0.267834
v -0.304722 0.570094 0.263423
v -0.303014 0.489352 0.219519
v -0.204816 0.731185 0.161504
v -0.316299 0.666886 0.167496
v -0.350272 0.600025 0.162807
v -0.335186 0.510492 0.148454
v -0.257711 0.710748 0.066983
v -0.176837 0.675806 -0.009789
v -0.117377 0.646942 -0.021691
v -0.020776 0.595732 0.019553
v 0.019914 0.568995 0.109432
v -0.004345 0.573191 0.220670
v -0.051665 0.593035 0.274008
v -0.165950 0.648703 0.294210
v -0.217498 0.676471 0.266013
v -0.272955 0.711163 0.168058
v -0.216027 0.717896 0.050485
v -0.193835 0.708187 0.031122
v -0.074770 0.650440 0.006566
v -0.049234 0.637010 0.015970
v 0.012678 0.596539 0.149751
v 0.006303 0.597768 0.177219
v -0.085050 0.636280 0.277357
v -0.109941 0.648189 0.284788
v -0.219071 0.707782 0.213763
v -0.228301 0.713850 0.193338
v 0.012210 0.599238 0.115167
v -0.024274 0.623086 0.036334
v -0.053798 0.621543 0.265023
v -0.002769 0.600030 0.209086
v -0.143983 0.665464 0.281070
v -0.200410 0.696278 0.244345
v -0.239915 0.721630 0.165587
v -0.232254 0.724156 0.076426
v -0.167781 0.696675 0.009971
v -0.100971 0.664272 -0.003807
v -0.124745 0.534801 -0.198423
v -0.088183 0.517347 -0.219691
v -0.063165 0.523721 -0.181913
v -0.099727 0.541176 -0.160645
v -0.113655 0.623577 -0.216903
v -0.074692 0.615749 -0.239583
v -0.052931 0.609064 -0.199890
v -0.091893 0.616892 -0.177211
v -0.115310 0.569265 -0.210487
v -0.078749 0.551810 -0.231755
v -0.053729 0.558184 -0.193977
v -0.090291 0.575639 -0.172709
v -0.083774 0.555800 -0.194443
v -0.199803 0.557013 -0.217479
v -0.303704 0.480870 -0.219855
v -0.330791 0.411654 -0.208807
v -0.307222 0.326332 -0.184021
v -0.167722 0.535395 -0.275259
v -0.251056 0.445392 -0.314679
v -0.277997 0.376079 -0.303894
v -0.269935 0.301205 -0.251181
v -0.108522 0.508679 -0.300094
v -0.153903 0.401549 -0.355435
v -0.180574 0.332114 -0.344763
v -0.201126 0.270153 -0.280046
v -0.044816 0.487070 -0.282497
v -0.049354 0.366086 -0.326556
v -0.075736 0.296553 -0.315804
v -0.127079 0.245037 -0.259593
v -0.000937 0.478822 -0.229189
v 0.022657 0.352551 -0.239073
v -0.003526 0.282980 -0.228079
v -0.076077 0.235450 -0.197633
v 0.006355 0.487085 -0.160533
v 0.034624 0.366112 -0.126400
v 0.008474 0.296579 -0.115094
v -0.067602 0.245054 -0.117833
v -0.025725 0.508703 -0.102753
v -0.018024 0.401589 -0.031576
v -0.044320 0.332154 -0.020008
v -0.104890 0.270181 -0.050674
v -0.199601 0.253925 -0.145809
v -0.084926 0.535419 -0.077918
v -0.115177 0.445432 0.009180
v -0.141743 0.376119 0.020861
v -0.173698 0.301233 -0.021808
v -0.148632 0.557028 -0.095515
v -0.219727 0.480895 -0.019699
v -0.246581 0.411680 -0.008097
v -0.247746 0.326349 -0.042262
v -0.192512 0.565276 -0.148823
v -0.291738 0.494431 -0.107182
v -0.318791 0.425253 -0.095823
v -0.298747 0.335936 -0.104222
v -0.265117 0.529267 -0.223532
v -0.203032 0.490752 -0.314733
v -0.145855 0.464949 -0.338719
v -0.037280 0.426449 -0.319111
v 0.027225 0.414324 -0.240747
v 0.031438 0.430855 -0.128102
v -0.002709 0.453865 -0.066600
v -0.113297 0.503308 -0.023085
v -0.172837 0.523503 -0.039531
v -0.254397 0.541414 -0.122605
v -0.229879 0.537233 -0.251022
v -0.212401 0.526760 -0.274400
v -0.098096 0.475052 -0.323128
v -0.069783 0.464790 -0.319395
v 0.027596 0.446172 -0.203036
v 0.028245 0.450418 -0.175140
v -0.038409 0.494679 -0.059148
v -0.061710 0.505619 -0.046740
v -0.190694 0.547735 -0.092511
v -0.205336 0.550483 -0.110324
v 0.018167 0.444419 -0.236377
v -0.039215 0.455389 -0.304943
v -0.009931 0.480775 -0.077631
v 0.027303 0.456050 -0.142424
v -0.097172 0.519797 -0.043191
v -0.163864 0.541574 -0.066858
v -0.224289 0.553825 -0.134719
v -0.239608 0.545555 -0.222535
v -0.191474 0.514555 -0.300318
v -0.127335 0.485540 -0.327661
v 0.113193 0.679183 -0.176739
v 0.155985 0.684776 -0.191947
v 0.168265 0.701598 -0.151205
v 0.125473 0.696005 -0.135997
v 0.077947 0.761141 -0.196391
v 0.117837 0.776228 -0.212972
v 0.134054 0.780172 -0.170367
v 0.094164 0.765085 -0.153786
v 0.104481 0.713951 -0.188469
v 0.147273 0.719544 -0.203676
v 0.159554 0.736366 -0.162934
v 0.116761 0.730773 -0.147726
v 0.135759 0.718465 -0.167626
v 0.041300 0.659186 -0.207098
v -0.004861 0.539806 -0.221812
v 0.007668 0.466307 -0.212460
v 0.069186 0.405315 -0.181715
v 0.087637 0.660639 -0.258923
v 0.071183 0.542192 -0.306863
v 0.083922 0.468699 -0.297747
v 0.123044 0.407005 -0.241952
v 0.154768 0.670543 -0.274101
v 0.181354 0.558444 -0.331772
v 0.194398 0.484997 -0.322725
v 0.201072 0.418516 -0.259594
v 0.217052 0.685112 -0.246834
v 0.283569 0.582355 -0.287024
v 0.296896 0.508974 -0.277853
v 0.273466 0.435451 -0.227901
v 0.250699 0.698784 -0.187537
v 0.338787 0.604791 -0.189712
v 0.352266 0.531472 -0.180271
v 0.312574 0.451341 -0.158979
v 0.242856 0.706335 -0.118860
v 0.325915 0.617182 -0.077004
v 0.339359 0.543898 -0.067252
v 0.303457 0.460117 -0.079155
v 0.196519 0.704881 -0.067035
v 0.249871 0.614796 0.008047
v 0.263105 0.541505 0.018035
v 0.249599 0.458428 -0.018917
v 0.192268 0.399108 -0.126060
v 0.129387 0.694978 -0.051857
v 0.139701 0.598544 0.032956
v 0.152630 0.525208 0.043013
v 0.171572 0.446917 -0.001276
v 0.067103 0.680408 -0.079124
v 0.037485 0.574633 -0.011792
v 0.050131 0.501231 -0.001859
v 0.099177 0.429982 -0.032968
v 0.033457 0.666736 -0.138420
v -0.017733 0.552197 -0.109105
v -0.005239 0.478733 -0.099441
v 0.060070 0.414092 -0.101890
v 0.002245 0.601403 -0.221529
v 0.087287 0.606036 -0.301542
v 0.152124 0.615601 -0.316201
v 0.260609 0.639516 -0.279944
v 0.310070 0.659613 -0.192775
v 0.289144 0.670419 -0.081306
v 0.239822 0.668871 -0.026143
v 0.115063 0.650117 -0.000620
v 0.056852 0.636501 -0.026103
v -0.009285 0.612502 -0.120571
v 0.031311 0.628127 -0.243930
v 0.054736 0.629634 -0.264196
v 0.184531 0.648687 -0.294266
v 0.213130 0.654802 -0.286168
v 0.288237 0.684970 -0.156486
v 0.282644 0.687566 -0.128942
v 0.187283 0.684187 -0.025257
v 0.160268 0.680521 -0.016692
v 0.036443 0.650127 -0.081877
v 0.025221 0.645563 -0.101687
v 0.285923 0.680100 -0.190757
v 0.241666 0.662323 -0.267174
v 0.221045 0.688374 -0.038988
v 0.274314 0.690261 -0.096907
v 0.122600 0.673589 -0.018744
v 0.058575 0.657873 -0.052448
v 0.010995 0.639537 -0.128647
v 0.014796 0.628654 -0.217427
v 0.082318 0.631622 -0.286421
v 0.155149 0.642313 -0.303293
v 0.273643 0.554476 0.422990
v 0.344411 0.473990 0.493966
v 0.323562 0.535629 0.473177
v 0.493967 0.473990 0.344410
v 0.422990 0.554476 0.273643
v 0.473178 0.535629 0.323561
v 0.337983 0.552463 0.393275
v 0.409535 0.473990 0.463016
v 0.388518 0.535039 0.442573
v 0.393276 0.552463 0.337983
v 0.463017 0.473990 0.409535
v 0.442574 0.535039 0.388518
v -0.422988 0.554476 0.273643
v -0.493965 0.473990 0.344410
v -0.473177 0.535629 0.323561
v -0.344409 0.473990 0.493966
v -0.273642 0.554476 0.422990
v -0.323560 0.535629 0.473177
v -0.463015 0.473990 0.409535
v -0.393274 0.552463 0.337983
v -0.442572 0.535039 0.388518
v -0.409534 0.473990 0.463016
v -0.337981 0.552463 0.393275
v -0.388517 0.535039 0.442573
v -0.493965 0.473990 -0.344410
v -0.422988 0.554476 -0.273643
v -0.473177 0.535629 -0.323560
v -0.273642 0.554476 -0.422989
v -0.344410 0.473990 -0.493966
v -0.323560 0.535629 -0.473177
v -0.463015 0.473990 -0.409535
v -0.393274 0.552463 -0.337982
v -0.442573 0.535039 -0.388518
v -0.409534 0.473990 -0.463015
v -0.337982 0.552463 -0.393275
v -0.388517 0.535039 -0.442573
v 0.422990 0.554476 -0.273643
v 0.493967 0.473990 -0.344410
v 0.473178 0.535629 -0.323560
v 0.344411 0.473990 -0.493966
v 0.273643 0.554476 -0.422989
v 0.323562 0.535629 -0.473177
v 0.393276 0.552463 -0.337982
v 0.463017 0.473990 -0.409535
v 0.442574 0.535039 -0.388518
v 0.337983 0.552463 -0.393275
v 0.409535 0.473990 -0.463015
v 0.388518 0.535039 -0.442573
vn 0.0238 -0.9799 0.1981
vn -0.7301 -0.2273 -0.6444
vn 0.6367 -0.0118 -0.7710
vn 0.6192 -0.1411 -0.7724
vn -0.7848 -0.1411 -0.6034
vn 0.8034 0.2289 0.5498
vn 0.7848 0.1411 0.6034
vn -0.5684 0.0194 0.8225
vn -0.6192 0.1411 0.7724
vn -0.7064 -0.3130 -0.6348
vn 0.5192 0.0843 -0.8505
vn 0.7672 0.3150 0.5587
vn -0.6750 -0.1633 0.7195
vn -0.2017 0.9714 0.1252
vn -0.9566 -0.2913 -0.0000
vn -0.9844 0.1757 0.0084
vn -0.7914 0.1757 -0.5855
vn -0.7739 -0.2913 -0.5623
vn -0.5052 0.8630 0.0063
vn -0.0000 1.0000 -0.0000
vn -0.3936 0.8817 -0.2603
vn -0.6047 -0.7964 -0.0000
vn -0.4892 -0.7964 -0.3555
vn -0.4424 0.6392 -0.6291
vn -0.5998 0.7217 -0.3455
vn -0.0000 -1.0000 -0.0000
vn -0.1869 -0.7964 -0.5751
vn -0.3147 0.1767 -0.9326
vn -0.2956 -0.2913 -0.9098
vn -0.1369 0.8832 -0.4485
vn -0.3926 0.6285 -0.6714
vn 0.1869 -0.7964 -0.5751
vn 0.3147 0.1766 -0.9326
vn 0.2956 -0.2913 -0.9098
vn 0.1441 0.8810 -0.4506
vn 0.3953 0.6410 -0.6579
vn 0.2074 0.6697 -0.7131
vn 0.4892 -0.7964 -0.3555
vn 0.7914 0.1757 -0.5855
vn 0.7739 -0.2913 -0.5623
vn 0.3960 0.8767 -0.2732
vn 0.4321 0.6532 -0.6217
vn 0.6047 -0.7964 -0.0000
vn 0.9852 0.1713 0.0064
vn 0.9566 -0.2913 -0.0000
vn 0.4751 0.8798 -0.0176
vn 0.6852 0.7256 -0.0640
vn 0.7205 0.6518 0.2365
vn 0.4892 -0.7964 0.3555
vn 0.8028 0.1704 0.5713
vn 0.7739 -0.2913 0.5623
vn 0.3703 0.8866 0.2772
vn 0.7084 0.6413 0.2947
vn 0.1869 -0.7964 0.5751
vn 0.2852 0.1932 0.9388
vn 0.2956 -0.2913 0.9098
vn 0.1508 0.8860 0.4385
vn 0.2656 0.6854 0.6780
vn 0.0340 0.5669 0.8231
vn -0.1869 -0.7964 0.5751
vn -0.2847 0.1939 0.9388
vn -0.2956 -0.2913 0.9098
vn -0.1665 0.8794 0.4460
vn -0.0448 0.5534 0.8317
vn -0.4892 -0.7964 0.3555
vn -0.8035 0.1756 0.5689
vn -0.7739 -0.2913 0.5623
vn -0.4207 0.8578 0.2953
vn -0.6861 0.6742 0.2734
vn -0.5701 0.6981 0.4333
vn -0.6811 0.6915 0.2408
vn -0.6624 0.4902 0.5665
vn -0.8633 0.5044 0.0185
vn -0.3490 0.4695 0.8110
vn 0.3253 0.4414 0.8363
vn 0.6881 0.4342 0.5814
vn 0.8807 0.4737 -0.0010
vn 0.7065 0.4827 -0.5175
vn 0.2063 0.4423 -0.8728
vn -0.2020 0.4398 -0.8751
vn -0.7125 0.4717 -0.5194
vn -0.3140 0.6951 0.6467
vn -0.1871 0.6755 -0.7132
vn -0.6809 0.7324 0.0025
vn 0.5878 0.7265 -0.3560
vn 0.5686 0.6796 0.4634
vn 0.9754 0.0006 0.2206
vn 0.9548 0.1892 0.2295
vn 0.7959 0.2147 0.5661
vn 0.8169 0.0013 0.5768
vn -0.9914 0.0002 0.1307
vn -0.9915 0.0002 0.1304
vn -0.9915 0.0002 -0.1304
vn -0.9914 0.0002 -0.1307
vn 0.9914 0.0002 -0.1307
vn 0.9915 0.0002 -0.1304
vn 0.9915 0.0002 0.1304
vn 0.9914 0.0002 0.1307
vn 0.5661 0.2147 0.7959
vn 0.5768 0.0013 0.8169
vn -0.9989 -0.0000 0.0474
vn -0.9955 -0.0000 0.0947
vn -0.2206 0.0006 -0.9754
vn -0.2295 0.1892 -0.9548
vn 0.2295 0.1892 -0.9548
vn 0.2206 0.0006 -0.9754
vn -0.5661 0.2147 0.7959
vn -0.5768 0.0013 0.8169
vn -0.2206 0.0006 0.9754
vn -0.2295 0.1892 0.9548
vn 0.1557 0.9878 -0.0066
vn 0.1557 0.9878 0.0066
vn -0.1127 0.9935 -0.0176
vn -0.1127 0.9935 0.0176
vn 0.0527 0.9906 0.1259
vn -0.0530 0.9968 -0.0604
vn -0.0604 0.9968 -0.0530
vn 0.1259 0.9906 0.0527
vn 0.0530 0.9968 0.0604
vn -0.0527 0.9906 -0.1259
vn -0.0066 0.9878 -0.1557
vn 0.0176 0.9935 0.1127
vn -0.1307 0.0002 -0.9914
vn -0.1304 0.0002 -0.9915
vn 0.1304 0.0002 -0.9915
vn 0.1307 0.0002 -0.9914
vn -0.1557 0.9878 0.0066
vn -0.1557 0.9878 -0.0066
vn 0.1127 0.9935 0.0176
vn 0.1127 0.9935 -0.0176
vn -0.8660 0.0007 0.5001
vn -0.8661 0.0007 0.4999
vn -0.5001 0.0007 0.8660
vn -0.4999 0.0007 0.8661
vn -0.1307 0.0002 0.9914
vn -0.1304 0.0002 0.9915
vn -0.5001 0.0007 -0.8660
vn -0.4999 0.0007 -0.8661
vn -0.8660 0.0007 -0.5001
vn -0.8661 0.0007 -0.4999
vn 0.8660 0.0007 -0.5001
vn 0.8661 0.0007 -0.4999
vn 0.5001 0.0007 -0.8660
vn 0.4999 0.0007 -0.8661
vn 0.8661 0.0007 0.4999
vn 0.8660 0.0007 0.5001
vn 0.4999 0.0007 0.8661
vn 0.5001 0.0007 0.8660
vn 0.1304 0.0002 0.9915
vn 0.1307 0.0002 0.9914
vn 0.7959 0.2147 -0.5661
vn 0.8169 0.0013 -0.5768
vn 0.5768 0.0013 -0.8169
vn 0.5661 0.2147 -0.7959
vn 0.9754 0.0006 -0.2206
vn 0.9548 0.1892 -0.2295
vn -0.0604 0.9968 0.0530
vn 0.1259 0.9906 -0.0527
vn 0.0066 0.9878 -0.1557
vn -0.0176 0.9935 0.1127
vn -0.9548 0.1892 0.2295
vn -0.9754 0.0006 0.2206
vn -0.8169 0.0013 0.5768
vn -0.7959 0.2147 0.5661
vn -0.0530 0.9968 0.0604
vn 0.0527 0.9906 -0.1259
vn -0.1259 0.9906 -0.0527
vn 0.0604 0.9968 0.0530
vn 0.2206 0.0006 0.9754
vn 0.2295 0.1892 0.9548
vn -0.9548 0.1892 -0.2295
vn -0.9754 0.0006 -0.2206
vn 0.0066 0.9878 0.1557
vn -0.0066 0.9878 0.1557
vn 0.0176 0.9935 -0.1127
vn -0.0176 0.9935 -0.1127
vn 0.0604 0.9968 -0.0530
vn -0.1259 0.9906 0.0527
vn 0.0530 0.9968 -0.0604
vn -0.0527 0.9906 0.1259
vn -0.5768 0.0013 -0.8169
vn -0.5661 0.2147 -0.7959
vn -0.8169 0.0013 -0.5768
vn -0.7959 0.2147 -0.5661
vn 0.9955 -0.0000 0.0947
vn 0.9989 -0.0000 0.0474
vn -0.0474 -0.0000 0.9989
vn 0.0474 -0.0000 0.9989
vn 0.7071 -0.0000 -0.7071
vn -0.0947 -0.0000 0.9955
vn 0.9989 -0.0000 -0.0474
vn -0.0474 -0.0000 -0.9989
vn -0.0947 -0.0000 -0.9955
vn 0.0947 -0.0000 0.9955
vn 0.0474 -0.0000 -0.9989
vn -0.9989 -0.0000 -0.0474
vn -0.9955 -0.0000 -0.0947
vn 0.0947 -0.0000 -0.9955
vn -0.7071 -0.0000 0.7071
vn 0.9955 -0.0000 -0.0947
vn 0.7071 -0.0000 0.7071
vn -0.7071 -0.0000 -0.7071
vn -0.3901 -0.9118 0.1280
vn -0.8321 0.1982 -0.5180
vn 0.4576 -0.1798 -0.8708
vn 0.3842 -0.2875 -0.8773
vn -0.8368 0.2931 -0.4625
vn 0.8853 -0.2154 0.4121
vn 0.8368 -0.2931 0.4625
vn -0.3869 0.1502 0.9098
vn -0.3842 0.2875 0.8773
vn -0.8482 0.1101 -0.5182
vn 0.3860 -0.0327 -0.9219
vn 0.8929 -0.1242 0.4328
vn -0.5763 0.0469 0.8159
vn 0.2711 0.9369 0.2205
vn -0.9769 0.1511 0.1510
vn -0.7921 0.5788 0.1938
vn -0.6989 0.5763 -0.4236
vn -0.8887 0.1487 -0.4336
vn -0.0615 0.9867 0.1506
vn 0.4461 0.8927 0.0636
vn 0.0107 0.9915 -0.1297
vn -0.8907 -0.4511 0.0565
vn -0.8350 -0.4526 -0.3131
vn -0.1889 0.8459 -0.4987
vn -0.2543 0.9489 -0.1871
vn -0.4461 -0.8927 -0.0636
vn -0.5960 -0.5528 -0.5824
vn -0.3219 0.4192 -0.8489
vn -0.5107 -0.0098 -0.8597
vn 0.2141 0.9080 -0.3600
vn -0.1551 0.8207 -0.5499
vn -0.2651 -0.7134 -0.6486
vn 0.2354 0.1487 -0.9605
vn 0.0127 -0.2639 -0.9645
vn 0.4616 0.7856 -0.4121
vn 0.5498 0.4914 -0.6754
vn 0.3890 0.6053 -0.6945
vn 0.0314 -0.8731 -0.4865
vn 0.7025 -0.1040 -0.7041
vn 0.4817 -0.5165 -0.7079
vn 0.7059 0.6494 -0.2827
vn 0.5926 0.4816 -0.6456
vn 0.1801 -0.9709 -0.1578
vn 0.9495 -0.2714 -0.1574
vn 0.7170 -0.6712 -0.1881
vn 0.8108 0.5836 -0.0455
vn 0.9219 0.3619 -0.1381
vn 0.9597 0.2402 0.1460
vn 0.1244 -0.9694 0.2117
vn 0.8616 -0.2703 0.4297
vn 0.6289 -0.6688 0.3965
vn 0.7597 0.5948 0.2630
vn 0.9519 0.2282 0.2047
vn -0.1146 -0.8692 0.4811
vn 0.4615 -0.0772 0.8837
vn 0.2509 -0.5102 0.8226
vn 0.5862 0.6667 0.4603
vn 0.6296 0.4060 0.6624
vn 0.3907 0.3800 0.8384
vn -0.4455 -0.7085 0.5473
vn -0.0427 0.1684 0.9848
vn -0.2726 -0.2561 0.9274
vn 0.3032 0.7962 0.5235
vn 0.3161 0.4007 0.8599
vn -0.7419 -0.5488 0.3851
vn -0.5586 0.4250 0.7123
vn -0.7416 -0.0035 0.6709
vn 0.0488 0.9066 0.4192
vn -0.2709 0.8597 0.4330
vn -0.1366 0.8095 0.5710
vn -0.2630 0.8774 0.4012
vn -0.2937 0.6456 0.7049
vn -0.5369 0.8188 0.2032
vn 0.0066 0.4593 0.8882
vn 0.5944 0.1410 0.7917
vn 0.8790 0.0132 0.4767
vn 0.9909 0.0446 -0.1269
vn 0.7731 0.1974 -0.6027
vn 0.2657 0.4243 -0.8656
vn -0.0972 0.5979 -0.7956
vn -0.4884 0.7977 -0.3538
vn 0.1167 0.6679 0.7350
vn 0.0424 0.7800 -0.6243
vn -0.2758 0.9461 0.1697
vn 0.7979 0.4441 -0.4076
vn 0.8673 0.2996 0.3976
vn -0.2502 -0.9138 0.3199
vn -0.9514 0.0706 -0.2997
vn 0.2396 -0.2556 -0.9366
vn 0.1784 -0.3682 -0.9125
vn -0.9516 0.1712 -0.2551
vn 0.9777 -0.0973 0.1860
vn 0.9516 -0.1712 0.2551
vn -0.1588 0.2364 0.9586
vn -0.1784 0.3682 0.9125
vn -0.9579 -0.0177 -0.2865
vn 0.1428 -0.1217 -0.9822
vn 0.9809 -0.0039 0.1943
vn -0.3541 0.1087 0.9289
vn 0.2208 0.9744 0.0430
vn -0.9176 0.0986 0.3850
vn -0.7726 0.5405 0.3331
vn -0.8381 0.4662 -0.2834
vn -0.9796 0.0284 -0.1988
vn -0.1220 0.9908 0.0578
vn 0.3542 0.9232 -0.1487
vn -0.1235 0.9652 -0.2305
vn -0.7970 -0.5030 0.3344
vn -0.8362 -0.5474 -0.0346
vn -0.3936 0.7600 -0.5172
vn -0.3887 0.8967 -0.2117
vn -0.3542 -0.9232 0.1487
vn -0.6637 -0.6636 -0.3451
vn -0.5662 0.2839 -0.7738
vn -0.7069 -0.1554 -0.6901
vn 0.0229 0.8680 -0.4961
vn -0.3714 0.7310 -0.5724
vn -0.3455 -0.8072 -0.4786
vn -0.0303 0.0421 -0.9987
vn -0.2035 -0.3826 -0.9012
vn 0.2604 0.7580 -0.5981
vn 0.3091 0.4399 -0.8432
vn 0.1379 0.5385 -0.8312
vn -0.0031 -0.9233 -0.3840
vn 0.5095 -0.1419 -0.8487
vn 0.3382 -0.5663 -0.7516
vn 0.5420 0.6572 -0.5237
vn 0.3588 0.4370 -0.8248
vn 0.2327 -0.9676 -0.0975
vn 0.9019 -0.2204 -0.3714
vn 0.7113 -0.6365 -0.2983
vn 0.7093 0.6297 -0.3168
vn 0.8156 0.4066 -0.4116
vn 0.9359 0.3250 -0.1362
vn 0.2719 -0.9232 0.2715
vn 0.9649 -0.1510 0.2148
vn 0.7733 -0.5662 0.2854
vn 0.7366 0.6763 -0.0085
vn 0.9443 0.3200 -0.0766
vn 0.0995 -0.8070 0.5821
vn 0.6745 0.0689 0.7351
vn 0.5005 -0.3824 0.7767
vn 0.6119 0.7601 0.2187
vn 0.7312 0.5309 0.4284
vn 0.5482 0.5104 0.6625
vn -0.2187 -0.6634 0.7156
vn 0.1895 0.2885 0.9385
vn -0.0029 -0.1552 0.9879
vn 0.3423 0.8759 0.3400
vn 0.4797 0.5283 0.7006
vn -0.5611 -0.5473 0.6210
vn -0.4018 0.4708 0.7854
vn -0.5445 0.0285 0.8383
vn 0.0599 0.9536 0.2950
vn -0.2395 0.8861 0.3969
vn -0.0704 0.8636 0.4993
vn -0.2417 0.9001 0.3625
vn -0.1712 0.7071 0.6861
vn -0.5491 0.7974 0.2503
vn 0.1829 0.5677 0.8027
vn 0.7569 0.2826 0.5893
vn 0.9645 0.1366 0.2258
vn 0.9172 0.0990 -0.3859
vn 0.5723 0.1742 -0.8013
vn -0.0054 0.3290 -0.9443
vn -0.3547 0.4836 -0.8002
vn -0.6405 0.7092 -0.2946
vn 0.2291 0.7624 0.6052
vn -0.1959 0.6955 -0.6913
vn -0.3193 0.9378 0.1365
vn 0.6201 0.4448 -0.6462
vn 0.9042 0.4090 0.1231
vn 0.2310 -0.9219 0.3110
vn -0.7913 -0.4293 -0.4353
vn 0.4664 -0.0445 -0.8835
vn 0.4715 -0.1735 -0.8646
vn -0.8511 -0.3464 -0.3946
vn 0.8433 0.4262 0.3275
vn 0.8511 0.3464 0.3946
vn -0.3916 0.0699 0.9175
vn -0.4715 0.1735 0.8646
vn -0.7517 -0.5082 -0.4202
vn 0.3207 0.0199 -0.9470
vn 0.7953 0.5066 0.3331
vn -0.4831 -0.1401 0.8643
vn -0.3382 0.9401 0.0417
vn -0.8732 -0.4207 0.2458
vn -0.9791 0.0328 0.2006
vn -0.9087 -0.0350 -0.4161
vn -0.8066 -0.4849 -0.3381
vn -0.6357 0.7719 0.0066
vn -0.1728 0.9767 -0.1271
vn -0.5832 0.7633 -0.2780
vn -0.4462 -0.8640 0.2332
vn -0.4040 -0.9046 -0.1359
vn -0.6603 0.4604 -0.5934
vn -0.7712 0.5641 -0.2951
vn 0.1728 -0.9767 0.1271
vn -0.1550 -0.8968 -0.4144
vn -0.5163 -0.0219 -0.8561
vn -0.4126 -0.4726 -0.7788
vn -0.3723 0.7712 -0.5164
vn -0.6187 0.4502 -0.6439
vn 0.2059 -0.8436 -0.4960
vn 0.0914 0.0677 -0.9935
vn 0.1582 -0.3884 -0.9078
vn -0.1011 0.8087 -0.5795
vn 0.1425 0.5768 -0.8043
vn -0.0547 0.5692 -0.8204
vn 0.5406 -0.7652 -0.3495
vn 0.6195 0.1904 -0.7616
vn 0.6878 -0.2645 -0.6760
vn 0.1775 0.8688 -0.4622
vn 0.1830 0.5998 -0.7789
vn 0.7215 -0.6918 -0.0308
vn 0.9228 0.3087 -0.2306
vn 0.9739 -0.1482 -0.1718
vn 0.3032 0.9241 -0.2326
vn 0.5236 0.7960 -0.3037
vn 0.6291 0.7772 -0.0113
vn 0.6793 -0.6512 0.3384
vn 0.8571 0.3725 0.3559
vn 0.9072 -0.0840 0.4122
vn 0.2584 0.9631 0.0747
vn 0.6306 0.7746 0.0490
vn 0.4303 -0.6590 0.6169
vn 0.4251 0.3800 0.8215
vn 0.5132 -0.0964 0.8528
vn 0.0780 0.9572 0.2787
vn 0.2702 0.8161 0.5109
vn 0.0955 0.6906 0.7169
vn 0.0694 -0.7122 0.6985
vn -0.1252 0.2995 0.9458
vn -0.0576 -0.1806 0.9819
vn -0.2257 0.9068 0.3561
vn 0.0234 0.6676 0.7441
vn -0.2653 -0.7905 0.5520
vn -0.6950 0.1483 0.7035
vn -0.5872 -0.3045 0.7500
vn -0.4968 0.8253 0.2685
vn -0.7256 0.6046 0.3286
vn -0.5865 0.6701 0.4549
vn -0.7301 0.6170 0.2938
vn -0.6137 0.4753 0.6304
vn -0.9170 0.3727 0.1422
vn -0.2599 0.5390 0.8012
vn 0.4009 0.6116 0.6820
vn 0.7026 0.6154 0.3572
vn 0.7682 0.5880 -0.2534
vn 0.4977 0.4891 -0.7163
vn -0.0476 0.3213 -0.9458
vn -0.4418 0.2604 -0.8585
vn -0.8708 0.2759 -0.4070
vn -0.2971 0.7379 0.6060
vn -0.4365 0.5187 -0.7351
vn -0.7834 0.6188 0.0579
vn 0.3725 0.7362 -0.5651
vn 0.5219 0.8191 0.2379
vn 0.1486 0.7106 -0.6877
vn 0.3824 0.7488 -0.5413
vn 0.5413 0.7488 -0.3824
vn 0.6877 0.7106 -0.1486
vn 0.6877 0.7106 0.1486
vn 0.5413 0.7488 0.3824
vn 0.3824 0.7488 0.5413
vn 0.1486 0.7106 0.6877
vn -0.5413 0.7488 0.3824
vn -0.6877 0.7106 0.1486
vn -0.3824 0.7488 0.5413
vn -0.1486 0.7106 0.6877
vn -0.1486 0.7106 -0.6877
vn -0.3824 0.7488 -0.5413
vn -0.5413 0.7488 -0.3824
vn -0.6877 0.7106 -0.1486
vt 0.052203 0.871078
vt 0.547947 0.220288
vt 0.553407 0.761399
vt 0.146084 0.232347
vt 0.034685 0.570448
s 1
usemtl BASE_MATERIAL
f 1/1/1 2/1/1 3/1/1 4/1/1
f 9/1/2 10/1/3 2/1/4 1/1/5
f 10/1/3 11/1/6 3/1/7 2/1/4
f 11/1/6 12/1/8 4/1/9 3/1/7
f 12/1/8 9/1/2 1/1/5 4/1/9
f 5/1/10 6/1/11 10/1/3 9/1/2
f 6/1/11 7/1/12 11/1/6 10/1/3
f 7/1/12 8/1/13 12/1/8 11/1/6
f 8/1/13 5/1/10 9/1/2 12/1/8
f 5/1/14 8/1/14 7/1/14 6/1/14
f 53/2/15 52/2/16 15/2/17 16/2/18
f 51/3/19 13/3/20 14/3/21
f 54/2/22 53/2/15 16/2/18 17/2/23
f 14/3/21 65/3/24 82/3/25
f 42/2/26 54/2/22 17/2/23
f 42/2/26 17/2/23 21/2/27
f 16/2/18 15/2/17 19/2/28 20/2/29
f 14/3/21 13/3/20 18/3/30
f 17/2/23 16/2/18 20/2/29 21/2/27
f 65/3/24 14/3/21 18/3/30 66/3/31
f 42/2/26 21/2/27 25/2/32
f 20/2/29 19/2/28 23/2/33 24/2/34
f 18/3/30 13/3/20 22/3/35
f 21/2/27 20/2/29 24/2/34 25/2/32
f 22/3/35 67/3/36 84/3/37
f 42/2/26 25/2/32 29/2/38
f 24/2/34 23/2/33 27/2/39 28/2/40
f 22/3/35 13/3/20 26/3/41
f 25/2/32 24/2/34 28/2/40 29/2/38
f 67/3/36 22/3/35 26/3/41 68/3/42
f 42/2/26 29/2/38 33/2/43
f 28/2/40 27/2/39 31/2/44 32/2/45
f 26/3/41 13/3/20 30/3/46
f 29/2/38 28/2/40 32/2/45 33/2/43
f 75/3/47 30/3/46 69/3/48
f 42/2/26 33/2/43 37/2/49
f 32/2/45 31/2/44 35/2/50 36/2/51
f 30/3/46 13/3/20 34/3/52
f 33/2/43 32/2/45 36/2/51 37/2/49
f 69/3/48 30/3/46 34/3/52 70/3/53
f 42/2/26 37/2/49 41/2/54
f 36/2/51 35/2/50 39/2/55 40/2/56
f 34/3/52 13/3/20 38/3/57
f 37/2/49 36/2/51 40/2/56 41/2/54
f 77/3/58 38/3/57 71/3/59
f 42/2/26 41/2/54 46/2/60
f 40/2/56 39/2/55 44/2/61 45/2/62
f 38/3/57 13/3/20 43/3/63
f 41/2/54 40/2/56 45/2/62 46/2/60
f 71/3/59 38/3/57 43/3/63 72/3/64
f 42/2/26 46/2/60 50/2/65
f 45/2/62 44/2/61 48/2/66 49/2/67
f 43/3/63 13/3/20 47/3/68
f 46/2/60 45/2/62 49/2/67 50/2/65
f 47/3/68 73/3/69 80/3/70
f 42/2/26 50/2/65 54/2/22
f 49/2/67 48/2/66 52/2/16 53/2/15
f 47/3/68 13/3/20 51/3/19
f 50/2/65 49/2/67 53/2/15 54/2/22
f 73/3/69 47/3/68 51/3/19 74/3/71
f 48/2/66 63/2/72 64/2/73 52/2/16
f 44/2/61 62/2/74 63/2/72 48/2/66
f 39/2/55 61/2/75 62/2/74 44/2/61
f 35/2/50 60/2/76 61/2/75 39/2/55
f 31/2/44 59/2/77 60/2/76 35/2/50
f 27/2/39 58/2/78 59/2/77 31/2/44
f 23/2/33 57/2/79 58/2/78 27/2/39
f 19/2/28 56/2/80 57/2/79 23/2/33
f 15/2/17 55/2/81 56/2/80 19/2/28
f 52/2/16 64/2/73 55/2/81 15/2/17
f 63/2/72 73/2/69 74/2/71 64/2/73
f 62/3/74 72/3/64 79/3/82
f 61/2/75 71/2/59 72/2/64 62/2/74
f 61/3/75 77/3/58 71/3/59
f 59/2/77 69/2/48 70/2/53 60/2/76
f 59/3/77 75/3/47 69/3/48
f 57/2/79 67/2/36 68/2/42 58/2/78
f 56/3/80 66/3/31 83/3/83
f 55/2/81 65/2/24 66/2/31 56/2/80
f 64/3/73 74/3/71 81/3/84
f 58/3/78 68/3/42 76/3/85
f 26/3/41 30/3/46 75/3/47 76/3/85
f 59/3/77 58/3/78 76/3/85 75/3/47
f 68/3/42 26/3/41 76/3/85
f 60/3/76 70/3/53 78/3/86
f 34/3/52 38/3/57 77/3/58 78/3/86
f 61/3/75 60/3/76 78/3/86 77/3/58
f 70/3/53 34/3/52 78/3/86
f 63/3/72 62/3/74 79/3/82 80/3/70
f 72/3/64 43/3/63 79/3/82
f 73/3/69 63/3/72 80/3/70
f 43/3/63 47/3/68 80/3/70 79/3/82
f 55/3/81 64/3/73 81/3/84 82/3/25
f 74/3/71 51/3/19 81/3/84
f 65/3/24 55/3/81 82/3/25
f 51/3/19 14/3/21 82/3/25 81/3/84
f 57/3/79 56/3/80 83/3/83 84/3/37
f 66/3/31 18/3/30 83/3/83
f 67/3/36 57/3/79 84/3/37
f 18/3/30 22/3/35 84/3/37 83/3/83
f 138/4/26 134/4/26 149/4/26 153/4/26
f 145/4/26 142/4/26 157/4/26 162/4/26
f 150/4/87 420/4/88 427/4/89 152/4/90
f 110/5/91 137/5/92 141/5/93 125/5/94
f 118/5/95 146/5/96 133/5/97 101/5/98
f 152/4/90 427/4/89 424/4/99 151/4/100
f 121/4/101 123/4/102 98/4/102 97/4/101
f 157/4/103 445/4/104 456/4/105 162/4/106
f 438/4/107 155/4/108 153/4/109 432/4/110
f 109/4/26 111/4/26 112/4/26 110/4/26 125/4/26 127/4/26 128/4/26 126/4/26 117/4/26 119/4/26 120/4/26 118/4/26 101/4/26 103/4/26 104/4/26 102/4/26
f 113/4/111 130/4/112 442/4/113 429/4/114
f 131/4/115 451/4/116 448/4/117 132/4/118
f 87/4/20 88/4/20 86/4/20 85/4/20 91/4/20 92/4/20 90/4/20 89/4/20 93/4/20 94/4/20 95/4/20 96/4/20 97/4/20 98/4/20 99/4/20 100/4/20
f 423/4/119 107/4/120 105/4/121 417/4/122
f 126/5/123 142/5/124 145/5/125 117/5/126
f 141/4/26 137/4/26 154/4/26 158/4/26
f 133/4/26 146/4/26 161/4/26 150/4/26
f 121/4/127 106/4/128 421/4/129 453/4/130
f 138/4/26 153/4/26 155/4/26 140/4/26
f 140/4/26 155/4/26 156/4/26 139/4/26
f 139/4/26 156/4/26 154/4/26 137/4/26
f 137/5/92 110/5/91 112/5/131 139/5/132
f 139/5/132 112/5/131 111/5/133 140/5/134
f 140/5/134 111/5/133 109/5/135 138/5/136
f 142/5/124 126/5/123 128/5/137 144/5/138
f 144/5/138 128/5/137 127/5/139 143/5/140
f 143/5/140 127/5/139 125/5/94 141/5/93
f 146/5/96 118/5/95 120/5/141 148/5/142
f 148/5/142 120/5/141 119/5/143 147/5/144
f 147/5/144 119/5/143 117/5/126 145/5/125
f 101/5/98 133/5/97 135/5/145 103/5/146
f 103/5/146 135/5/145 136/5/147 104/5/148
f 104/5/148 136/5/147 134/5/149 102/5/150
f 460/4/151 163/4/152 164/4/153 463/4/154
f 463/4/154 164/4/153 162/4/106 456/4/105
f 161/4/155 454/4/156 420/4/88 150/4/87
f 113/4/111 429/4/114 436/4/157 115/4/158
f 105/4/121 114/4/159 433/4/160 417/4/122
f 430/4/161 154/4/162 156/4/163 435/4/164
f 435/4/164 156/4/163 155/4/108 438/4/107
f 115/4/158 436/4/157 439/4/165 116/4/166
f 421/4/129 106/4/128 108/4/167 426/4/168
f 426/4/168 108/4/167 107/4/120 423/4/119
f 149/4/169 418/4/170 432/4/110 153/4/109
f 154/4/162 430/4/161 441/4/171 158/4/172
f 132/4/118 448/4/117 442/4/113 130/4/112
f 116/4/166 439/4/165 433/4/160 114/4/159
f 129/4/173 122/4/174 457/4/175 444/4/176
f 454/4/156 161/4/155 163/4/152 460/4/151
f 129/4/173 444/4/176 451/4/116 131/4/115
f 459/4/177 123/4/178 121/4/127 453/4/130
f 462/4/179 124/4/180 123/4/178 459/4/177
f 457/4/175 122/4/174 124/4/180 462/4/179
f 157/4/26 142/4/26 144/4/26 159/4/26
f 159/4/26 144/4/26 143/4/26 160/4/26
f 160/4/26 143/4/26 141/4/26 158/4/26
f 145/4/26 162/4/26 164/4/26 147/4/26
f 147/4/26 164/4/26 163/4/26 148/4/26
f 148/4/26 163/4/26 161/4/26 146/4/26
f 149/4/26 134/4/26 136/4/26 151/4/26
f 151/4/26 136/4/26 135/4/26 152/4/26
f 152/4/26 135/4/26 133/4/26 150/4/26
f 445/4/104 157/4/103 159/4/181 450/4/182
f 450/4/182 159/4/181 160/4/183 447/4/184
f 447/4/184 160/4/183 158/4/172 441/4/171
f 102/5/150 134/5/149 138/5/136 109/5/135
f 132/4/185 130/4/186 85/4/186 86/4/185
f 122/4/187 129/4/188 87/4/188 100/4/187
f 115/4/189 116/4/189 90/4/189 92/4/189
f 124/4/190 122/4/187 100/4/187 99/4/190
f 130/4/186 113/4/191 91/4/191 85/4/186
f 105/4/192 107/4/193 94/4/193 93/4/192
f 129/4/188 131/4/194 88/4/194 87/4/188
f 114/4/195 105/4/192 93/4/192 89/4/195
f 106/4/196 121/4/101 97/4/101 96/4/196
f 108/4/197 106/4/196 96/4/196 95/4/197
f 116/4/198 114/4/195 89/4/195 90/4/198
f 123/4/199 124/4/199 99/4/199 98/4/199
f 113/4/191 115/4/200 92/4/200 91/4/191
f 131/4/201 132/4/201 86/4/201 88/4/201
f 107/4/202 108/4/202 95/4/202 94/4/202
f 165/1/203 166/1/203 167/1/203 168/1/203
f 173/1/204 174/1/205 166/1/206 165/1/207
f 174/1/205 175/1/208 167/1/209 166/1/206
f 175/1/208 176/1/210 168/1/211 167/1/209
f 176/1/210 173/1/204 165/1/207 168/1/211
f 169/1/212 170/1/213 174/1/205 173/1/204
f 170/1/213 171/1/214 175/1/208 174/1/205
f 171/1/214 172/1/215 176/1/210 175/1/208
f 172/1/215 169/1/212 173/1/204 176/1/210
f 169/1/216 172/1/216 171/1/216 170/1/216
f 217/2/217 216/2/218 179/2/219 180/2/220
f 215/3/221 177/3/222 178/3/223
f 218/2/224 217/2/217 180/2/220 181/2/225
f 178/3/223 229/3/226 246/3/227
f 206/2/228 218/2/224 181/2/225
f 206/2/228 181/2/225 185/2/229
f 180/2/220 179/2/219 183/2/230 184/2/231
f 178/3/223 177/3/222 182/3/232
f 181/2/225 180/2/220 184/2/231 185/2/229
f 229/3/226 178/3/223 182/3/232 230/3/233
f 206/2/228 185/2/229 189/2/234
f 184/2/231 183/2/230 187/2/235 188/2/236
f 182/3/232 177/3/222 186/3/237
f 185/2/229 184/2/231 188/2/236 189/2/234
f 186/3/237 231/3/238 248/3/239
f 206/2/228 189/2/234 193/2/240
f 188/2/236 187/2/235 191/2/241 192/2/242
f 186/3/237 177/3/222 190/3/243
f 189/2/234 188/2/236 192/2/242 193/2/240
f 231/3/238 186/3/237 190/3/243 232/3/244
f 206/2/228 193/2/240 197/2/245
f 192/2/242 191/2/241 195/2/246 196/2/247
f 190/3/243 177/3/222 194/3/248
f 193/2/240 192/2/242 196/2/247 197/2/245
f 239/3/249 194/3/248 233/3/250
f 206/2/228 197/2/245 201/2/251
f 196/2/247 195/2/246 199/2/252 200/2/253
f 194/3/248 177/3/222 198/3/254
f 197/2/245 196/2/247 200/2/253 201/2/251
f 233/3/250 194/3/248 198/3/254 234/3/255
f 206/2/228 201/2/251 205/2/256
f 200/2/253 199/2/252 203/2/257 204/2/258
f 198/3/254 177/3/222 202/3/259
f 201/2/251 200/2/253 204/2/258 205/2/256
f 241/3/260 202/3/259 235/3/261
f 206/2/228 205/2/256 210/2/262
f 204/2/258 203/2/257 208/2/263 209/2/264
f 202/3/259 177/3/222 207/3/265
f 205/2/256 204/2/258 209/2/264 210/2/262
f 235/3/261 202/3/259 207/3/265 236/3/266
f 206/2/228 210/2/262 214/2/267
f 209/2/264 208/2/263 212/2/268 213/2/269
f 207/3/265 177/3/222 211/3/270
f 210/2/262 209/2/264 213/2/269 214/2/267
f 211/3/270 237/3/271 244/3/272
f 206/2/228 214/2/267 218/2/224
f 213/2/269 212/2/268 216/2/218 217/2/217
f 211/3/270 177/3/222 215/3/221
f 214/2/267 213/2/269 217/2/217 218/2/224
f 237/3/271 211/3/270 215/3/221 238/3/273
f 212/2/268 227/2/274 228/2/275 216/2/218
f 208/2/263 226/2/276 227/2/274 212/2/268
f 203/2/257 225/2/277 226/2/276 208/2/263
f 199/2/252 224/2/278 225/2/277 203/2/257
f 195/2/246 223/2/279 224/2/278 199/2/252
f 191/2/241 222/2/280 223/2/279 195/2/246
f 187/2/235 221/2/281 222/2/280 191/2/241
f 183/2/230 220/2/282 221/2/281 187/2/235
f 179/2/219 219/2/283 220/2/282 183/2/230
f 216/2/218 228/2/275 219/2/283 179/2/219
f 227/2/274 237/2/271 238/2/273 228/2/275
f 226/3/276 236/3/266 243/3/284
f 225/2/277 235/2/261 236/2/266 226/2/276
f 225/3/277 241/3/260 235/3/261
f 223/2/279 233/2/250 234/2/255 224/2/278
f 223/3/279 239/3/249 233/3/250
f 221/2/281 231/2/238 232/2/244 222/2/280
f 220/3/282 230/3/233 247/3/285
f 219/2/283 229/2/226 230/2/233 220/2/282
f 228/3/275 238/3/273 245/3/286
f 222/3/280 232/3/244 240/3/287
f 190/3/243 194/3/248 239/3/249 240/3/287
f 223/3/279 222/3/280 240/3/287 239/3/249
f 232/3/244 190/3/243 240/3/287
f 224/3/278 234/3/255 242/3/288
f 198/3/254 202/3/259 241/3/260 242/3/288
f 225/3/277 224/3/278 242/3/288 241/3/260
f 234/3/255 198/3/254 242/3/288
f 227/3/274 226/3/276 243/3/284 244/3/272
f 236/3/266 207/3/265 243/3/284
f 237/3/271 227/3/274 244/3/272
f 207/3/265 211/3/270 244/3/272 243/3/284
f 219/3/283 228/3/275 245/3/286 246/3/227
f 238/3/273 215/3/221 245/3/286
f 229/3/226 219/3/283 246/3/227
f 215/3/221 178/3/223 246/3/227 245/3/286
f 221/3/281 220/3/282 247/3/285 248/3/239
f 230/3/233 182/3/232 247/3/285
f 231/3/238 221/3/281 248/3/239
f 182/3/232 186/3/237 248/3/239 247/3/285
f 249/1/289 250/1/289 251/1/289 252/1/289
f 257/1/290 258/1/291 250/1/292 249/1/293
f 258/1/291 259/1/294 251/1/295 250/1/292
f 259/1/294 260/1/296 252/1/297 251/1/295
f 260/1/296 257/1/290 249/1/293 252/1/297
f 253/1/298 254/1/299 258/1/291 257/1/290
f 254/1/299 255/1/300 259/1/294 258/1/291
f 255/1/300 256/1/301 260/1/296 259/1/294
f 256/1/301 253/1/298 257/1/290 260/1/296
f 253/1/302 256/1/302 255/1/302 254/1/302
f 301/2/303 300/2/304 263/2/305 264/2/306
f 299/3/307 261/3/308 262/3/309
f 302/2/310 301/2/303 264/2/306 265/2/311
f 262/3/309 313/3/312 330/3/313
f 290/2/314 302/2/310 265/2/311
f 290/2/314 265/2/311 269/2/315
f 264/2/306 263/2/305 267/2/316 268/2/317
f 262/3/309 261/3/308 266/3/318
f 265/2/311 264/2/306 268/2/317 269/2/315
f 313/3/312 262/3/309 266/3/318 314/3/319
f 290/2/314 269/2/315 273/2/320
f 268/2/317 267/2/316 271/2/321 272/2/322
f 266/3/318 261/3/308 270/3/323
f 269/2/315 268/2/317 272/2/322 273/2/320
f 270/3/323 315/3/324 332/3/325
f 290/2/314 273/2/320 277/2/326
f 272/2/322 271/2/321 275/2/327 276/2/328
f 270/3/323 261/3/308 274/3/329
f 273/2/320 272/2/322 276/2/328 277/2/326
f 315/3/324 270/3/323 274/3/329 316/3/330
f 290/2/314 277/2/326 281/2/331
f 276/2/328 275/2/327 279/2/332 280/2/333
f 274/3/329 261/3/308 278/3/334
f 277/2/326 276/2/328 280/2/333 281/2/331
f 323/3/335 278/3/334 317/3/336
f 290/2/314 281/2/331 285/2/337
f 280/2/333 279/2/332 283/2/338 284/2/339
f 278/3/334 261/3/308 282/3/340
f 281/2/331 280/2/333 284/2/339 285/2/337
f 317/3/336 278/3/334 282/3/340 318/3/341
f 290/2/314 285/2/337 289/2/342
f 284/2/339 283/2/338 287/2/343 288/2/344
f 282/3/340 261/3/308 286/3/345
f 285/2/337 284/2/339 288/2/344 289/2/342
f 325/3/346 286/3/345 319/3/347
f 290/2/314 289/2/342 294/2/348
f 288/2/344 287/2/343 292/2/349 293/2/350
f 286/3/345 261/3/308 291/3/351
f 289/2/342 288/2/344 293/2/350 294/2/348
f 319/3/347 286/3/345 291/3/351 320/3/352
f 290/2/314 294/2/348 298/2/353
f 293/2/350 292/2/349 296/2/354 297/2/355
f 291/3/351 261/3/308 295/3/356
f 294/2/348 293/2/350 297/2/355 298/2/353
f 295/3/356 321/3/357 328/3/358
f 290/2/314 298/2/353 302/2/310
f 297/2/355 296/2/354 300/2/304 301/2/303
f 295/3/356 261/3/308 299/3/307
f 298/2/353 297/2/355 301/2/303 302/2/310
f 321/3/357 295/3/356 299/3/307 322/3/359
f 296/2/354 311/2/360 312/2/361 300/2/304
f 292/2/349 310/2/362 311/2/360 296/2/354
f 287/2/343 309/2/363 310/2/362 292/2/349
f 283/2/338 308/2/364 309/2/363 287/2/343
f 279/2/332 307/2/365 308/2/364 283/2/338
f 275/2/327 306/2/366 307/2/365 279/2/332
f 271/2/321 305/2/367 306/2/366 275/2/327
f 267/2/316 304/2/368 305/2/367 271/2/321
f 263/2/305 303/2/369 304/2/368 267/2/316
f 300/2/304 312/2/361 303/2/369 263/2/305
f 311/2/360 321/2/357 322/2/359 312/2/361
f 310/3/362 320/3/352 327/3/370
f 309/2/363 319/2/347 320/2/352 310/2/362
f 309/3/363 325/3/346 319/3/347
f 307/2/365 317/2/336 318/2/341 308/2/364
f 307/3/365 323/3/335 317/3/336
f 305/2/367 315/2/324 316/2/330 306/2/366
f 304/3/368 314/3/319 331/3/371
f 303/2/369 313/2/312 314/2/319 304/2/368
f 312/3/361 322/3/359 329/3/372
f 306/3/366 316/3/330 324/3/373
f 274/3/329 278/3/334 323/3/335 324/3/373
f 307/3/365 306/3/366 324/3/373 323/3/335
f 316/3/330 274/3/329 324/3/373
f 308/3/364 318/3/341 326/3/374
f 282/3/340 286/3/345 325/3/346 326/3/374
f 309/3/363 308/3/364 326/3/374 325/3/346
f 318/3/341 282/3/340 326/3/374
f 311/3/360 310/3/362 327/3/370 328/3/358
f 320/3/352 291/3/351 327/3/370
f 321/3/357 311/3/360 328/3/358
f 291/3/351 295/3/356 328/3/358 327/3/370
f 303/3/369 312/3/361 329/3/372 330/3/313
f 322/3/359 299/3/307 329/3/372
f 313/3/312 303/3/369 330/3/313
f 299/3/307 262/3/309 330/3/313 329/3/372
f 305/3/367 304/3/368 331/3/371 332/3/325
f 314/3/319 266/3/318 331/3/371
f 315/3/324 305/3/367 332/3/325
f 266/3/318 270/3/323 332/3/325 331/3/371
f 333/1/375 334/1/375 335/1/375 336/1/375
f 341/1/376 342/1/377 334/1/378 333/1/379
f 342/1/377 343/1/380 335/1/381 334/1/378
f 343/1/380 344/1/382 336/1/383 335/1/381
f 344/1/382 341/1/376 333/1/379 336/1/383
f 337/1/384 338/1/385 342/1/377 341/1/376
f 338/1/385 339/1/386 343/1/380 342/1/377
f 339/1/386 340/1/387 344/1/382 343/1/380
f 340/1/387 337/1/384 341/1/376 344/1/382
f 337/1/388 340/1/388 339/1/388 338/1/388
f 385/2/389 384/2/390 347/2/391 348/2/392
f 383/3/393 345/3/394 346/3/395
f 386/2/396 385/2/389 348/2/392 349/2/397
f 346/3/395 397/3/398 414/3/399
f 374/2/400 386/2/396 349/2/397
f 374/2/400 349/2/397 353/2/401
f 348/2/392 347/2/391 351/2/402 352/2/403
f 346/3/395 345/3/394 350/3/404
f 349/2/397 348/2/392 352/2/403 353/2/401
f 397/3/398 346/3/395 350/3/404 398/3/405
f 374/2/400 353/2/401 357/2/406
f 352/2/403 351/2/402 355/2/407 356/2/408
f 350/3/404 345/3/394 354/3/409
f 353/2/401 352/2/403 356/2/408 357/2/406
f 354/3/409 399/3/410 416/3/411
f 374/2/400 357/2/406 361/2/412
f 356/2/408 355/2/407 359/2/413 360/2/414
f 354/3/409 345/3/394 358/3/415
f 357/2/406 356/2/408 360/2/414 361/2/412
f 399/3/410 354/3/409 358/3/415 400/3/416
f 374/2/400 361/2/412 365/2/417
f 360/2/414 359/2/413 363/2/418 364/2/419
f 358/3/415 345/3/394 362/3/420
f 361/2/412 360/2/414 364/2/419 365/2/417
f 407/3/421 362/3/420 401/3/422
f 374/2/400 365/2/417 369/2/423
f 364/2/419 363/2/418 367/2/424 368/2/425
f 362/3/420 345/3/394 366/3/426
f 365/2/417 364/2/419 368/2/425 369/2/423
f 401/3/422 362/3/420 366/3/426 402/3/427
f 374/2/400 369/2/423 373/2/428
f 368/2/425 367/2/424 371/2/429 372/2/430
f 366/3/426 345/3/394 370/3/431
f 369/2/423 368/2/425 372/2/430 373/2/428
f 409/3/432 370/3/431 403/3/433
f 374/2/400 373/2/428 378/2/434
f 372/2/430 371/2/429 376/2/435 377/2/436
f 370/3/431 345/3/394 375/3/437
f 373/2/428 372/2/430 377/2/436 378/2/434
f 403/3/433 370/3/431 375/3/437 404/3/438
f 374/2/400 378/2/434 382/2/439
f 377/2/436 376/2/435 380/2/440 381/2/441
f 375/3/437 345/3/394 379/3/442
f 378/2/434 377/2/436 381/2/441 382/2/439
f 379/3/442 405/3/443 412/3/444
f 374/2/400 382/2/439 386/2/396
f 381/2/441 380/2/440 384/2/390 385/2/389
f 379/3/442 345/3/394 383/3/393
f 382/2/439 381/2/441 385/2/389 386/2/396
f 405/3/443 379/3/442 383/3/393 406/3/445
f 380/2/440 395/2/446 396/2/447 384/2/390
f 376/2/435 394/2/448 395/2/446 380/2/440
f 371/2/429 393/2/449 394/2/448 376/2/435
f 367/2/424 392/2/450 393/2/449 371/2/429
f 363/2/418 391/2/451 392/2/450 367/2/424
f 359/2/413 390/2/452 391/2/451 363/2/418
f 355/2/407 389/2/453 390/2/452 359/2/413
f 351/2/402 388/2/454 389/2/453 355/2/407
f 347/2/391 387/2/455 388/2/454 351/2/402
f 384/2/390 396/2/447 387/2/455 347/2/391
f 395/2/446 405/2/443 406/2/445 396/2/447
f 394/3/448 404/3/438 411/3/456
f 393/2/449 403/2/433 404/2/438 394/2/448
f 393/3/449 409/3/432 403/3/433
f 391/2/451 401/2/422 402/2/427 392/2/450
f 391/3/451 407/3/421 401/3/422
f 389/2/453 399/2/410 400/2/416 390/2/452
f 388/3/454 398/3/405 415/3/457
f 387/2/455 397/2/398 398/2/405 388/2/454
f 396/3/447 406/3/445 413/3/458
f 390/3/452 400/3/416 408/3/459
f 358/3/415 362/3/420 407/3/421 408/3/459
f 391/3/451 390/3/452 408/3/459 407/3/421
f 400/3/416 358/3/415 408/3/459
f 392/3/450 402/3/427 410/3/460
f 366/3/426 370/3/431 409/3/432 410/3/460
f 393/3/449 392/3/450 410/3/460 409/3/432
f 402/3/427 366/3/426 410/3/460
f 395/3/446 394/3/448 411/3/456 412/3/444
f 404/3/438 375/3/437 411/3/456
f 405/3/443 395/3/446 412/3/444
f 375/3/437 379/3/442 412/3/444 411/3/456
f 387/3/455 396/3/447 413/3/458 414/3/399
f 406/3/445 383/3/393 413/3/458
f 397/3/398 387/3/455 414/3/399
f 383/3/393 346/3/395 414/3/399 413/3/458
f 389/3/453 388/3/454 415/3/457 416/3/411
f 398/3/405 350/3/404 415/3/457
f 399/3/410 389/3/453 416/3/411
f 350/3/404 354/3/409 416/3/411 415/3/457
f 463/4/154 456/4/105 458/4/461 464/4/462
f 464/4/462 458/4/461 457/4/175 462/4/179
f 460/4/151 463/4/154 464/4/462 461/4/463
f 461/4/463 464/4/462 462/4/179 459/4/177
f 454/4/156 460/4/151 461/4/463 455/4/464
f 455/4/464 461/4/463 459/4/177 453/4/130
f 427/4/89 420/4/88 422/4/465 428/4/466
f 428/4/466 422/4/465 421/4/129 426/4/168
f 424/4/99 427/4/89 428/4/466 425/4/467
f 425/4/467 428/4/466 426/4/168 423/4/119
f 418/4/170 424/4/99 425/4/467 419/4/468
f 419/4/468 425/4/467 423/4/119 417/4/122
f 430/4/161 435/4/164 437/4/469 431/4/470
f 431/4/470 437/4/469 436/4/157 429/4/114
f 435/4/164 438/4/107 440/4/471 437/4/469
f 437/4/469 440/4/471 439/4/165 436/4/157
f 438/4/107 432/4/110 434/4/472 440/4/471
f 440/4/471 434/4/472 433/4/160 439/4/165
f 451/4/116 444/4/176 446/4/473 452/4/474
f 452/4/474 446/4/473 445/4/104 450/4/182
f 448/4/117 451/4/116 452/4/474 449/4/475
f 449/4/475 452/4/474 450/4/182 447/4/184
f 442/4/113 448/4/117 449/4/475 443/4/476
f 443/4/476 449/4/475 447/4/184 441/4/171
f 420/4/88 454/4/156 455/4/464 422/4/465
f 422/4/465 455/4/464 453/4/130 421/4/129
f 432/4/110 418/4/170 419/4/468 434/4/472
f 434/4/472 419/4/468 417/4/122 433/4/160
f 441/4/171 430/4/161 431/4/470 443/4/476
f 443/4/476 431/4/470 429/4/114 442/4/113
f 456/4/105 445/4/104 446/4/473 458/4/461
f 458/4/461 446/4/473 444/4/176 457/4/175
f 151/4/100 424/4/99 418/4/170 149/4/169
