# Blender 4.1.0
# www.blender.org
mtllib blue_grass_small.mtl
o blue_grass_small
v 0.629107 0.455815 0.188750
v 0.639049 0.479305 0.218932
v 0.640138 0.438386 0.226450
v 0.556287 0.490243 0.438625
v 0.528170 0.469155 0.456690
v 0.560714 0.448882 0.437282
v 0.592229 0.519091 0.199313
v 0.585057 0.493247 0.170292
v 0.552204 0.513108 0.189604
v 0.509467 0.530028 0.419007
v 0.472780 0.523604 0.400436
v 0.484119 0.506586 0.438231
v 0.164781 0.000058 0.105513
v 0.228328 0.132410 0.116523
v 0.324927 0.244892 0.132866
v 0.454580 0.349223 0.154541
v 0.465683 0.331871 0.192248
v 0.336102 0.227618 0.170579
v 0.239573 0.115213 0.154243
v 0.176099 0.000058 0.143240
v 0.363155 0.361305 0.397231
v 0.243014 0.255718 0.350306
v 0.155927 0.141978 0.308713
v 0.101892 0.000058 0.272453
v 0.134680 0.000058 0.253188
v 0.188654 0.121942 0.289412
v 0.275681 0.235603 0.330969
v 0.395760 0.341112 0.377859
v 0.316106 0.408798 0.344482
v 0.204306 0.296254 0.301062
v 0.125558 0.175558 0.262974
v 0.079865 0.000058 0.230219
v 0.090998 0.000058 0.267888
v 0.136744 0.158279 0.300675
v 0.215542 0.279062 0.338795
v 0.327394 0.391693 0.382247
v 0.418819 0.379611 0.139557
v 0.297455 0.268237 0.121354
v 0.209145 0.148711 0.108485
v 0.153887 0.000058 0.100948
v 0.121284 0.000058 0.120271
v 0.176478 0.168829 0.127805
v 0.264727 0.288269 0.140672
v 0.386028 0.399558 0.158872
v 0.206632 0.319651 -0.447888
v 0.239068 0.353561 -0.441898
v 0.256588 0.307940 -0.451591
v 0.460971 0.367155 -0.269472
v 0.477265 0.336230 -0.237597
v 0.469541 0.320985 -0.286119
v 0.193884 0.381700 -0.385968
v 0.164122 0.346125 -0.395267
v 0.171728 0.360788 -0.346547
v 0.415787 0.395294 -0.213541
v 0.384681 0.373833 -0.181075
v 0.434755 0.362704 -0.184976
v 0.120532 0.000058 -0.178439
v 0.145251 0.074317 -0.249403
v 0.187976 0.238229 -0.357431
v 0.237947 0.226630 -0.361190
v 0.195235 0.062831 -0.253218
v 0.170530 0.000058 -0.182311
v 0.433106 0.253246 -0.166956
v 0.363456 0.102401 -0.072785
v 0.314655 0.000058 -0.027599
v 0.307058 0.000058 -0.076223
v 0.357238 0.072755 -0.127337
v 0.425424 0.238115 -0.215513
v 0.348554 0.285987 -0.120359
v 0.288358 0.115651 -0.042073
v 0.246168 0.000058 -0.000851
v 0.296143 0.000058 -0.004683
v 0.330770 0.144067 -0.055805
v 0.398595 0.274738 -0.124237
v 0.153464 0.259721 -0.314712
v 0.118739 0.090828 -0.216585
v 0.102019 0.000058 -0.155523
v 0.109640 0.000058 -0.106938
v 0.126355 0.105727 -0.167955
v 0.161077 0.274502 -0.266037
v 0.492492 0.309521 -0.032577
v 0.483793 0.300161 -0.066567
v 0.493185 0.317666 -0.054402
v 0.514022 0.201800 0.004353
v 0.506438 0.145313 -0.000968
v 0.515244 0.173697 0.005013
v 0.463142 0.309929 -0.015268
v 0.411304 0.296269 -0.016017
v 0.437379 0.313403 -0.012400
v 0.435534 0.142754 0.032825
v 0.484855 0.203112 0.020762
v 0.460170 0.170953 0.031104
v 0.487099 0.151168 0.023469
v 0.503833 0.206330 0.016693
v 0.501358 0.177927 0.022902
v 0.482015 0.313238 -0.019235
v 0.448285 0.304530 -0.045083
v 0.471992 0.324210 -0.027005
v 0.401401 0.039969 -0.009599
v 0.415189 0.199170 -0.067972
v 0.373124 0.211731 -0.049363
v 0.382474 0.048661 0.014078
v 0.337399 0.212982 -0.027582
v 0.331705 0.050199 0.020672
v 0.458415 0.118292 0.365807
v 0.592770 0.112450 0.570693
v 0.233831 0.114184 0.497334
v 0.336670 0.107541 0.728361
v 0.462378 0.084621 0.351557
v 0.610845 0.078254 0.574907
v 0.329600 0.072834 0.749075
v 0.219921 0.080187 0.493551
v 0.582829 0.115663 0.514079
v 0.607859 0.000188 0.572202
v 0.397304 0.109584 0.714506
v 0.330892 0.000188 0.743550
v 0.233323 0.114366 0.544678
v 0.222344 0.000188 0.492212
v 0.407336 0.119385 0.380018
v 0.555330 0.112630 0.616633
v 0.271164 0.116895 0.459768
v 0.499395 0.119239 0.388605
v 0.294903 0.110234 0.688275
v 0.524969 0.084056 0.373317
v 0.265676 0.074055 0.704865
v 0.570335 0.076191 0.643812
v 0.262317 0.081849 0.438419
v 0.393536 0.084249 0.361570
v 0.207917 0.078249 0.559294
v 0.412449 0.073114 0.742778
v 0.609395 0.080540 0.496770
v 0.461802 0.000188 0.351973
v 0.441392 0.121496 0.417873
v 0.287254 0.118672 0.508286
v 0.360215 0.114422 0.656374
v 0.527416 0.117578 0.555125
v 0.606061 0.000188 0.496709
v 0.410890 0.000188 0.737131
v 0.211204 0.000188 0.555664
v 0.395140 0.000188 0.361979
v 0.263678 0.000188 0.438969
v 0.568344 0.000188 0.638580
v 0.269273 0.000188 0.700577
v 0.521997 0.000188 0.373356
v -0.184312 0.307702 -0.204902
v -0.551510 0.298902 -0.241705
v -0.125536 0.301515 -0.592485
v -0.493483 0.291509 -0.690958
v -0.171381 0.282691 -0.186761
v -0.573571 0.273101 -0.224534
v -0.511038 0.264937 -0.718862
v -0.107927 0.276011 -0.605188
v -0.475802 0.303742 -0.199706
v -0.567574 -0.000188 -0.225466
v -0.534708 0.294585 -0.606834
v -0.505793 -0.000188 -0.712115
v -0.180490 0.301788 -0.637937
v -0.108655 -0.000188 -0.601083
v -0.152557 0.309349 -0.278175
v -0.569830 0.299174 -0.329070
v -0.116920 0.305597 -0.513181
v -0.249833 0.309129 -0.178517
v -0.406973 0.295565 -0.701885
v -0.256163 0.281839 -0.134089
v -0.398706 0.266775 -0.751824
v -0.615871 0.269993 -0.337251
v -0.083539 0.278515 -0.503313
v -0.117882 0.282130 -0.276856
v -0.173532 0.273092 -0.681533
v -0.582161 0.265358 -0.615888
v -0.480705 0.276543 -0.152199
v -0.171323 -0.000188 -0.187828
v -0.229149 0.312528 -0.274165
v -0.188974 0.308275 -0.540308
v -0.431500 0.301873 -0.595184
v -0.471363 0.306626 -0.303478
v -0.477475 -0.000188 -0.156045
v -0.574072 -0.000188 -0.612364
v -0.172396 -0.000188 -0.674245
v -0.119879 -0.000188 -0.275364
v -0.085473 -0.000188 -0.502239
v -0.607859 -0.000188 -0.334625
v -0.397093 -0.000188 -0.743550
v -0.253393 -0.000188 -0.137605
vn 0.7066 -0.1383 -0.6939
vn 0.9001 0.4265 -0.0884
vn 0.8810 -0.4729 -0.0126
vn 0.6327 0.4619 0.6216
vn 0.1026 -0.0232 0.9945
vn 0.6538 -0.4298 0.6228
vn 0.3725 0.8749 -0.3095
vn 0.2723 0.3779 -0.8849
vn -0.2328 0.8321 -0.5033
vn 0.1050 0.9103 0.4005
vn -0.4554 0.8792 0.1401
vn -0.3269 0.5013 0.8011
vn 0.6024 -0.2349 -0.7629
vn 0.5827 -0.3025 -0.7542
vn 0.4995 -0.3815 -0.7777
vn 0.4489 -0.4328 -0.7817
vn 0.5827 -0.8016 -0.1341
vn 0.6984 -0.7077 -0.1072
vn 0.8302 -0.5551 -0.0524
vn 0.8859 -0.4631 -0.0254
vn -0.1380 -0.2804 0.9499
vn -0.1277 -0.2620 0.9566
vn -0.0989 -0.2474 0.9639
vn -0.1002 -0.2201 0.9703
vn 0.6316 -0.4550 0.6277
vn 0.5609 -0.5318 0.6345
vn 0.4362 -0.6579 0.6139
vn 0.3471 -0.7437 0.5713
vn -0.6737 0.7310 0.1084
vn -0.7884 0.6103 0.0770
vn -0.9118 0.4104 0.0153
vn -0.9622 0.2676 -0.0511
vn -0.7895 0.0945 0.6064
vn -0.7203 0.1489 0.6775
vn -0.6345 0.2636 0.7266
vn -0.5683 0.3423 0.7482
vn 0.0207 0.1904 -0.9815
vn -0.0168 0.1505 -0.9885
vn -0.0707 0.1035 -0.9921
vn -0.1484 0.0946 -0.9844
vn -0.7398 0.2719 -0.6154
vn -0.6623 0.3947 -0.6369
vn -0.5359 0.5673 -0.6254
vn -0.4353 0.6731 -0.5979
vn -0.4826 -0.0955 -0.8706
vn 0.0734 0.6403 -0.7646
vn 0.2752 -0.2697 -0.9228
vn 0.6724 0.6770 -0.2991
vn 0.9771 0.1114 0.1814
vn 0.8307 -0.1898 -0.5234
vn -0.3520 0.9052 -0.2380
vn -0.8761 0.2531 -0.4104
vn -0.7262 0.6353 0.2627
vn 0.2470 0.9419 0.2274
vn -0.1435 0.7421 0.6548
vn 0.5853 0.4985 0.6395
vn -0.6002 -0.4419 -0.6667
vn -0.5096 -0.4464 -0.7356
vn -0.5523 -0.4693 -0.6890
vn 0.1689 -0.6744 -0.7187
vn 0.1766 -0.6548 -0.7349
vn 0.1545 -0.7399 -0.6547
vn 0.9086 -0.1730 0.3801
vn 0.8543 -0.3715 -0.3636
vn 0.6453 -0.7610 0.0667
vn 0.7302 -0.6371 -0.2470
vn 0.7543 -0.5817 -0.3043
vn 0.7669 -0.5704 -0.2942
vn -0.2086 0.5426 0.8137
vn -0.5670 0.4706 0.6760
vn -0.4868 0.2734 0.8296
vn 0.1688 -0.6283 0.7594
vn -0.1117 0.9917 -0.0631
vn 0.4789 0.2898 0.8287
vn -0.9747 0.0026 -0.2233
vn -0.9643 0.0108 -0.2648
vn -0.9899 0.0845 -0.1142
vn -0.7605 0.4062 0.5065
vn -0.8204 0.3905 0.4177
vn -0.7964 0.4469 0.4076
vn 0.8570 0.4535 0.2446
vn 0.2603 0.2656 -0.9283
vn 0.5408 0.6796 -0.4956
vn 0.9362 0.1767 0.3038
vn 0.8365 -0.5311 -0.1348
vn 0.9806 -0.1544 0.1208
vn 0.1133 0.4466 0.8875
vn -0.6658 0.7060 0.2415
vn -0.3380 0.8111 0.4775
vn -0.0764 -0.0054 0.9971
vn 0.1235 0.2742 0.9537
vn 0.0146 0.1169 0.9930
vn 0.4382 -0.3464 0.8295
vn 0.5277 0.2580 0.8093
vn 0.5222 -0.0459 0.8516
vn 0.4793 0.5556 0.6794
vn -0.4338 0.6199 -0.6539
vn 0.0407 0.9872 0.1543
vn 0.6500 -0.7503 -0.1204
vn 0.0518 -0.0288 -0.9982
vn -0.4286 0.3688 -0.8248
vn 0.3115 -0.5753 0.7563
vn -0.7931 0.5998 0.1060
vn -0.2148 -0.1017 0.9714
vn 0.0554 0.7906 -0.6099
vn 0.5581 0.8125 0.1686
vn -0.5762 0.7816 -0.2389
vn -0.1411 0.8203 0.5543
vn 0.0846 0.5935 -0.8004
vn 0.7670 0.6030 0.2195
vn -0.2074 0.6028 0.7705
vn -0.7526 0.5816 -0.3087
vn 0.4822 0.8673 -0.1238
vn 0.9674 -0.0485 0.2487
vn 0.1485 0.8662 0.4771
vn -0.2614 -0.0797 0.9619
vn -0.5241 0.8490 0.0664
vn -0.9120 -0.0233 -0.4095
vn -0.1878 0.8387 -0.5112
vn 0.3545 0.8607 0.3653
vn -0.3753 0.8360 -0.4002
vn 0.3140 0.8575 -0.4075
vn -0.3745 0.8690 0.3234
vn 0.4989 0.6301 -0.5950
vn -0.6102 0.6228 0.4897
vn 0.5406 0.6205 0.5681
vn -0.5256 0.6030 -0.6001
vn -0.2832 0.6067 -0.7428
vn -0.7773 0.6176 0.1202
vn 0.2499 0.6203 0.7435
vn 0.7390 0.6318 -0.2339
vn 0.0945 -0.0079 -0.9955
vn 0.0037 0.9999 -0.0146
vn -0.0416 0.9991 0.0112
vn -0.0098 0.9981 0.0601
vn 0.0333 0.9987 0.0375
vn 0.9508 -0.0370 -0.3077
vn 0.3134 -0.0776 0.9465
vn -0.9946 -0.0470 0.0928
vn -0.3299 -0.0100 -0.9440
vn -0.6595 -0.0150 -0.7515
vn 0.7182 -0.0658 0.6927
vn -0.7831 -0.0705 0.6179
vn 0.6043 -0.0215 -0.7965
vn 0.3313 0.8894 0.3151
vn -0.3522 0.9080 0.2268
vn 0.4144 0.8808 -0.2291
vn -0.2459 0.9142 -0.3222
vn 0.5059 0.6981 0.5066
vn -0.5791 0.7090 0.4025
vn -0.4152 0.7081 -0.5712
vn 0.6359 0.6868 -0.3520
vn -0.1575 0.9400 0.3025
vn -0.8043 -0.0209 0.5939
vn -0.3213 0.9370 -0.1369
vn -0.5853 -0.0331 -0.8102
vn 0.2018 0.9249 -0.3224
vn 0.8911 -0.0102 -0.4538
vn 0.3764 0.9171 0.1317
vn -0.3578 0.9333 0.0316
vn 0.4029 0.9143 -0.0427
vn 0.0894 0.9335 0.3473
vn -0.0238 0.9400 -0.3403
vn 0.1333 0.7303 0.6700
vn -0.0024 0.7238 -0.6900
vn -0.6888 0.7227 0.0563
vn 0.7071 0.7064 -0.0320
vn 0.6695 0.7097 0.2193
vn 0.3502 0.7197 -0.5995
vn -0.6462 0.7228 -0.2448
vn -0.2548 0.7320 0.6319
vn 0.7141 -0.0035 0.7000
vn 0.0090 0.9999 0.0120
vn 0.0175 0.9991 -0.0393
vn -0.0405 0.9981 -0.0454
vn -0.0501 0.9987 0.0023
vn -0.3606 -0.0162 0.9326
vn -0.9350 -0.0324 -0.3532
vn 0.5501 -0.0202 -0.8348
vn 0.9417 -0.0045 0.3363
vn 0.9992 -0.0067 -0.0406
vn -0.9924 -0.0279 0.1197
vn 0.0102 -0.0296 -0.9995
vn 0.2360 -0.0096 0.9717
vt 0.436431 0.581501
vt 0.436431 0.581501
vt 0.058798 0.639114
s 1
usemtl BASE_MATERIAL
f 37/1/37 8/1/8 1/1/1 16/1/16
f 29/1/29 11/1/11 9/1/9 44/1/44
f 10/1/10 4/1/4 2/1/2 7/1/7
f 17/1/17 3/1/3 6/1/6 28/2/28
f 21/1/21 5/1/5 12/1/12 36/1/36
f 1/1/1 2/1/2 3/1/3
f 4/1/4 5/1/5 6/1/6
f 7/1/7 8/1/8 9/1/9
f 10/1/10 11/1/11 12/1/12
f 16/1/16 1/1/1 3/1/3 17/1/17
f 2/1/2 4/1/4 6/1/6 3/1/3
f 4/1/4 10/1/10 12/1/12 5/1/5
f 10/1/10 7/1/7 9/1/9 11/1/11
f 7/1/7 2/1/2 1/1/1 8/1/8
f 8/1/8 37/1/37 44/1/44 9/1/9
f 37/1/37 38/1/38 43/1/43 44/1/44
f 38/1/38 39/1/39 42/1/42 43/1/43
f 39/1/39 40/1/40 41/1/41 42/1/42
f 11/1/11 29/1/29 36/1/36 12/1/12
f 29/1/29 30/1/30 35/1/35 36/1/36
f 30/1/30 31/1/31 34/1/34 35/1/35
f 31/1/31 32/1/32 33/1/33 34/1/34
f 5/1/5 21/1/21 28/2/28 6/1/6
f 21/1/21 22/1/22 27/1/27 28/2/28
f 22/1/22 23/1/23 26/1/26 27/1/27
f 23/1/23 24/1/24 25/1/25 26/1/26
f 13/1/13 14/1/14 19/1/19 20/2/20
f 14/1/14 15/1/15 18/1/18 19/1/19
f 15/1/15 16/1/16 17/1/17 18/1/18
f 24/1/24 23/1/23 34/1/34 33/1/33
f 23/1/23 22/1/22 35/1/35 34/1/34
f 22/1/22 21/1/21 36/1/36 35/1/35
f 20/2/20 19/1/19 26/1/26 25/1/25
f 19/1/19 18/1/18 27/1/27 26/1/26
f 18/1/18 17/1/17 28/2/28 27/1/27
f 32/1/32 31/1/31 42/1/42 41/1/41
f 31/1/31 30/1/30 43/1/43 42/1/42
f 30/1/30 29/1/29 44/1/44 43/1/43
f 40/1/40 39/1/39 14/1/14 13/1/13
f 39/1/39 38/1/38 15/1/15 14/1/14
f 38/1/38 37/1/37 16/1/16 15/1/15
f 75/1/75 52/1/52 45/1/45 59/1/59
f 69/1/69 55/1/55 53/1/53 80/1/80
f 54/1/54 48/1/48 46/1/46 51/1/51
f 60/1/60 47/1/47 50/1/50 68/2/68
f 63/1/63 49/1/49 56/1/56 74/1/74
f 45/1/45 46/1/46 47/1/47
f 48/1/48 49/1/49 50/1/50
f 51/1/51 52/1/52 53/1/53
f 54/1/54 55/1/55 56/1/56
f 59/1/59 45/1/45 47/1/47 60/1/60
f 46/1/46 48/1/48 50/1/50 47/1/47
f 48/1/48 54/1/54 56/1/56 49/1/49
f 54/1/54 51/1/51 53/1/53 55/1/55
f 51/1/51 46/1/46 45/1/45 52/1/52
f 52/1/52 75/1/75 80/1/80 53/1/53
f 75/1/75 76/1/76 79/1/79 80/1/80
f 76/1/76 77/1/77 78/1/78 79/1/79
f 55/1/55 69/1/69 74/1/74 56/1/56
f 69/1/69 70/1/70 73/1/73 74/1/74
f 102/1/102 99/1/99 85/1/85 93/1/93
f 49/1/49 63/1/63 68/2/68 50/1/50
f 63/1/63 64/1/64 67/1/67 68/2/68
f 64/1/64 65/1/65 66/1/66 67/1/67
f 57/1/57 58/1/58 61/1/61 62/1/62
f 58/1/58 59/1/59 60/1/60 61/1/61
f 84/1/84 81/1/81 96/1/96 94/1/94
f 64/1/64 63/1/63 74/1/74 73/1/73
f 62/1/62 61/1/61 67/1/67 66/1/66
f 61/1/61 60/1/60 68/2/68 67/1/67
f 71/1/71 70/1/70 79/1/79 78/1/78
f 70/1/70 69/1/69 80/1/80 79/1/79
f 77/1/77 76/1/76 58/1/58 57/1/57
f 76/1/76 75/1/75 59/1/59 58/1/58
f 101/1/101 103/1/103 88/1/88 97/1/97
f 100/1/100 101/1/101 97/1/97 82/1/82
f 104/1/104 102/1/102 93/1/93 90/1/90
f 87/1/87 91/1/91 94/1/94 96/1/96
f 103/1/103 104/1/104 90/1/90 88/1/88
f 81/1/81 84/1/84 86/1/86 83/1/83
f 83/1/83 86/1/86 85/1/85 82/1/82
f 88/1/88 90/1/90 92/1/92 89/1/89
f 89/1/89 92/1/92 91/1/91 87/1/87
f 87/1/87 96/1/96 98/1/98 89/1/89
f 89/1/89 98/1/98 97/1/97 88/1/88
f 90/1/90 93/1/93 95/1/95 92/1/92
f 92/1/92 95/1/95 94/1/94 91/1/91
f 84/1/84 94/1/94 95/1/95 86/1/86
f 86/1/86 95/1/95 93/1/93 85/1/85
f 82/1/82 97/1/97 98/1/98 83/1/83
f 83/1/83 98/1/98 96/1/96 81/1/81
f 99/1/99 100/1/100 82/1/82 85/1/85
f 65/1/65 64/1/64 100/1/100 99/1/99
f 70/1/70 71/1/71 104/1/104 103/1/103
f 71/1/71 72/1/72 102/1/102 104/1/104
f 64/1/64 73/1/73 101/1/101 100/1/100
f 73/1/73 70/1/70 103/1/103 101/1/101
f 72/1/72 65/1/65 99/1/99 102/1/102
f 131/3/131 113/3/113 106/3/106 110/3/110
f 127/3/127 128/3/128 140/3/140 141/3/141
f 130/3/130 115/3/115 108/3/108 111/3/111
f 113/3/113 131/3/131 124/3/124 122/3/122
f 129/3/129 117/3/117 107/3/107 112/3/112
f 126/3/126 120/3/120 115/3/115 130/3/130
f 128/3/128 119/3/119 105/3/105 109/3/109
f 107/3/107 121/3/121 127/3/127 112/3/112
f 125/3/125 123/3/123 117/3/117 129/3/129
f 127/3/127 121/3/121 119/3/119 128/3/128
f 133/3/133 122/3/122 105/3/105 119/3/119
f 115/3/115 120/3/120 136/3/136 135/3/135
f 136/3/136 113/3/113 122/3/122 133/3/133
f 123/3/123 135/3/135 134/3/134 117/3/117
f 117/3/117 134/3/134 121/3/121 107/3/107
f 106/3/106 120/3/120 126/3/126 110/3/110
f 108/3/108 123/3/123 125/3/125 111/3/111
f 108/3/108 115/3/115 135/3/135 123/3/123
f 135/3/135 136/3/136 133/3/133 134/3/134
f 120/3/120 106/3/106 113/3/113 136/3/136
f 109/3/109 105/3/105 122/3/122 124/3/124
f 125/3/125 129/3/129 139/3/139 143/3/143
f 165/3/165 163/3/163 157/3/157 169/3/169
f 127/3/127 112/3/112 129/3/129 125/3/125 111/3/111 130/3/130 126/3/126 110/3/110 131/3/131 124/3/124 109/3/109 128/3/128
f 131/3/131 110/3/110 114/3/114 137/3/137
f 163/3/163 175/3/175 174/3/174 157/3/157
f 130/3/130 111/3/111 116/3/116 138/3/138
f 124/3/124 131/3/131 137/3/137 144/3/144
f 129/3/129 112/3/112 118/3/118 139/3/139
f 126/3/126 130/3/130 138/3/138 142/3/142
f 128/3/128 109/3/109 132/3/132 140/3/140
f 112/3/112 127/3/127 141/3/141 118/3/118
f 110/3/110 126/3/126 142/3/142 114/3/114
f 111/3/111 125/3/125 143/3/143 116/3/116
f 132/3/132 109/3/109 124/3/124 144/3/144
f 171/3/171 153/3/153 146/3/146 150/3/150
f 167/3/167 168/3/168 180/3/180 181/3/181
f 170/3/170 155/3/155 148/3/148 151/3/151
f 153/3/153 171/3/171 164/3/164 162/3/162
f 169/3/169 157/3/157 147/3/147 152/3/152
f 166/3/166 160/3/160 155/3/155 170/3/170
f 168/3/168 159/3/159 145/3/145 149/3/149
f 147/3/147 161/3/161 167/3/167 152/3/152
f 174/3/174 173/3/173 159/3/159 161/3/161
f 175/3/175 176/3/176 173/3/173 174/3/174
f 173/3/173 162/3/162 145/3/145 159/3/159
f 155/3/155 160/3/160 176/3/176 175/3/175
f 176/3/176 153/3/153 162/3/162 173/3/173
f 157/3/157 174/3/174 161/3/161 147/3/147
f 146/3/146 160/3/160 166/3/166 150/3/150
f 148/3/148 163/3/163 165/3/165 151/3/151
f 148/3/148 155/3/155 175/3/175 163/3/163
f 167/3/167 161/3/161 159/3/159 168/3/168
f 160/3/160 146/3/146 153/3/153 176/3/176
f 149/3/149 145/3/145 162/3/162 164/3/164
f 165/3/165 169/3/169 179/3/179 183/3/183
f 167/3/167 152/3/152 169/3/169 165/3/165 151/3/151 170/3/170 166/3/166 150/3/150 171/3/171 164/3/164 149/3/149 168/3/168
f 171/3/171 150/3/150 154/3/154 177/3/177
f 170/3/170 151/3/151 156/3/156 178/3/178
f 164/3/164 171/3/171 177/3/177 184/3/184
f 169/3/169 152/3/152 158/3/158 179/3/179
f 166/3/166 170/3/170 178/3/178 182/3/182
f 168/3/168 149/3/149 172/3/172 180/3/180
f 152/3/152 167/3/167 181/3/181 158/3/158
f 150/3/150 166/3/166 182/3/182 154/3/154
f 151/3/151 165/3/165 183/3/183 156/3/156
f 172/3/172 149/3/149 164/3/164 184/3/184
f 134/3/134 133/3/133 119/3/119 121/3/121
