# Blender 4.1.0
# www.blender.org
mtllib blue_grass_large.mtl
o blue_grass_large
v -1.195556 0.917118 0.546861
v -1.231230 0.956316 0.501159
v -1.237072 0.883323 0.492764
v -1.231230 0.956316 0.084938
v -1.195556 0.917118 0.039235
v -1.237072 0.883323 0.093331
v -1.142023 1.027656 0.501159
v -1.111627 0.984237 0.546861
v -1.069531 1.017308 0.492764
v -1.142023 1.027656 0.084938
v -1.069531 1.017308 0.093331
v -1.111627 0.984237 0.039235
v -0.366980 -0.000000 0.431678
v -0.653180 0.544303 0.467058
v -0.883253 0.728910 0.503434
v -0.924894 0.695252 0.449365
v -0.694946 0.510783 0.413016
v -0.408995 -0.000000 0.377690
v -0.883253 0.728910 0.043646
v -0.653180 0.544303 0.055107
v -0.366980 -0.000000 0.115401
v -0.408995 -0.000000 0.169389
v -0.694947 0.510783 0.109149
v -0.924894 0.695252 0.097715
v -0.773129 0.816622 0.097715
v -0.558955 0.619537 0.109149
v -0.304554 -0.000000 0.169389
v -0.346222 -0.000000 0.115401
v -0.600837 0.586162 0.055107
v -0.815117 0.783399 0.043646
v -0.815117 0.783399 0.503434
v -0.600837 0.586162 0.467058
v -0.346222 -0.000000 0.431678
v -0.304554 -0.000000 0.377690
v -0.558955 0.619537 0.413016
v -0.773129 0.816622 0.449365
v -0.267010 0.000000 0.179895
v -0.209291 0.000000 0.169950
v -0.009192 0.759921 -0.517113
v 0.039687 0.793453 -0.525522
v 0.048378 0.731011 -0.526531
v -0.088285 0.000000 0.234864
v -0.064650 0.000000 0.288453
v 0.353449 0.793453 -0.357201
v 0.373475 0.759921 -0.311827
v 0.349484 0.731011 -0.365000
v -0.245148 0.000000 0.236790
v -0.269017 0.000000 0.183638
v 0.003612 0.854482 -0.458275
v -0.043133 0.817339 -0.453844
v -0.019377 0.845630 -0.400234
v -0.066657 0.000000 0.292196
v -0.124143 0.000000 0.301704
v 0.317374 0.854482 -0.289953
v 0.281730 0.845630 -0.238701
v 0.339534 0.817339 -0.248558
v -0.257442 0.088204 0.154079
v -0.219936 0.270755 0.063424
v -0.168372 0.440992 -0.075977
v -0.102752 0.598916 -0.264126
v -0.045152 0.570124 -0.273651
v -0.110743 0.412317 -0.085608
v -0.162276 0.242197 0.053689
v -0.199753 0.059765 0.144239
v 0.243854 0.598916 -0.078185
v 0.142172 0.440992 0.090617
v 0.054546 0.270755 0.210673
v -0.019021 0.088204 0.281982
v -0.042727 0.059765 0.228477
v 0.030769 0.242198 0.157250
v 0.118323 0.412317 0.037277
v 0.219934 0.570124 -0.131442
v 0.158560 0.673951 -0.017035
v 0.063328 0.505352 0.139792
v -0.017847 0.324441 0.247874
v -0.084965 0.131216 0.307209
v -0.027415 0.102405 0.297630
v 0.039765 0.295760 0.238226
v 0.117832 0.494752 0.101171
v 0.216299 0.645530 -0.026822
v -0.130306 0.645530 -0.212763
v -0.189540 0.476801 -0.036520
v -0.234717 0.295760 0.090977
v -0.265837 0.102405 0.169726
v -0.241990 0.131216 0.222971
v -0.210893 0.324441 0.144312
v -0.165738 0.505352 0.016908
v -0.106527 0.673951 -0.159244
v 0.357256 0.689800 0.052856
v 0.334008 0.649858 0.040168
v 0.349466 0.669569 0.041371
v 0.369850 0.559076 0.132208
v 0.346311 0.491594 0.144039
v 0.365001 0.524984 0.141276
v 0.328138 0.698561 0.084327
v 0.268756 0.680884 0.084902
v 0.302442 0.698148 0.081720
v 0.266649 0.516905 0.197935
v 0.341313 0.572044 0.162297
v 0.302914 0.543690 0.183176
v 0.329553 0.510374 0.175294
v 0.361235 0.570575 0.147589
v 0.353052 0.538589 0.164129
v 0.346650 0.697143 0.068651
v 0.312202 0.677890 0.044963
v 0.328969 0.695178 0.055232
v 0.191505 0.391205 0.183037
v 0.231911 0.564375 0.061652
v 0.197878 0.592117 0.075537
v 0.175735 0.413097 0.212440
v 0.162249 0.599133 0.117968
v 0.115478 0.430703 0.228585
v -0.051548 -0.000000 0.388945
v -0.084297 -0.000000 0.432277
v 0.223856 0.680810 1.036506
v 0.196323 0.711622 1.073952
v 0.190869 0.653398 1.079378
v -0.207695 -0.000000 0.465933
v -0.257909 -0.000000 0.445230
v -0.123642 0.711626 1.161222
v -0.166376 0.680814 1.142940
v -0.116190 0.653402 1.163128
v -0.102667 -0.000000 0.364923
v -0.052577 -0.000000 0.385174
v 0.177841 0.769507 1.006188
v 0.206468 0.735269 0.972752
v 0.156158 0.762111 0.952110
v -0.258938 -0.000000 0.441458
v -0.226065 -0.000000 0.398580
v -0.142124 0.769510 1.093458
v -0.150901 0.762115 1.035860
v -0.183764 0.735273 1.079186
v -0.040826 0.064910 0.414895
v -0.007432 0.233592 0.502614
v 0.047648 0.390128 0.632126
v 0.124417 0.534516 0.803432
v 0.091478 0.507212 0.846395
v 0.014757 0.362932 0.675182
v -0.040277 0.206505 0.545761
v -0.073623 0.037931 0.458135
v -0.229041 0.534520 0.899836
v -0.269035 0.390131 0.718500
v -0.287342 0.233595 0.578958
v -0.283960 0.064912 0.481209
v -0.233752 0.037933 0.501809
v -0.237139 0.206507 0.599455
v -0.218838 0.362935 0.738894
v -0.178849 0.507215 0.920127
v -0.210292 0.605693 0.804842
v -0.247012 0.451176 0.635592
v -0.262045 0.284513 0.508136
v -0.255390 0.105702 0.422473
v -0.288261 0.078381 0.465442
v -0.294914 0.257312 0.551193
v -0.259207 0.444442 0.670647
v -0.243156 0.578731 0.848079
v 0.110301 0.578727 0.751674
v 0.036804 0.424092 0.592365
v -0.015005 0.257309 0.474850
v -0.045126 0.078379 0.399127
v -0.095261 0.105700 0.378798
v -0.065183 0.284511 0.454443
v -0.013417 0.451174 0.571880
v 0.060036 0.605690 0.731111
v -0.394790 0.616008 0.883080
v -0.350230 0.588818 0.885228
v -0.371493 0.608184 0.892785
v -0.449174 0.499139 0.837831
v -0.441086 0.436585 0.813861
v -0.451830 0.467528 0.828144
v -0.389791 0.628741 0.845311
v -0.341459 0.631299 0.794229
v -0.362894 0.644430 0.821415
v -0.421677 0.461323 0.726723
v -0.443433 0.512604 0.801165
v -0.436639 0.485857 0.760288
v -0.449717 0.454560 0.782246
v -0.453164 0.510090 0.822067
v -0.458347 0.480552 0.805222
v -0.395027 0.626366 0.866077
v -0.341534 0.614469 0.851189
v -0.369621 0.632580 0.860350
v -0.361785 0.344558 0.686984
v -0.310696 0.504114 0.797208
v -0.294208 0.523440 0.756232
v -0.369886 0.365404 0.657294
v -0.291807 0.550705 0.705485
v -0.339432 0.382386 0.608005
v -0.328291 -0.000000 0.592589
v -0.355749 -0.000000 0.592865
v -0.666657 0.442594 0.992537
v -0.700307 0.463375 0.988234
v -0.703662 0.421812 0.984147
v -0.416840 -0.000000 0.502720
v -0.420674 -0.000000 0.465226
v -0.858713 0.466281 0.812508
v -0.859850 0.446138 0.778219
v -0.855679 0.424600 0.815508
v -0.320647 -0.000000 0.539583
v -0.316545 0.000000 0.576830
v -0.664991 0.508119 0.957139
v -0.633431 0.484690 0.963282
v -0.637335 0.505846 0.925747
v -0.418709 -0.000000 0.463496
v -0.381738 -0.000000 0.471813
v -0.823397 0.511025 0.781412
v -0.789352 0.508635 0.757108
v -0.826623 0.488234 0.748964
v -0.336864 0.039046 0.600420
v -0.387274 0.154262 0.656538
v -0.456903 0.258417 0.739333
v -0.545753 0.351512 0.848805
v -0.582804 0.330801 0.840479
v -0.494001 0.237778 0.731071
v -0.424418 0.133695 0.648339
v -0.374056 0.018550 0.592285
v -0.720739 0.354722 0.654685
v -0.613684 0.261293 0.565409
v -0.525849 0.156804 0.502810
v -0.457234 0.041254 0.466888
v -0.453332 0.020005 0.504341
v -0.521880 0.135483 0.540221
v -0.609647 0.239900 0.602779
v -0.716635 0.333256 0.692014
v -0.656553 0.409378 0.639113
v -0.555810 0.308109 0.555376
v -0.474288 0.195780 0.498318
v -0.411985 0.072390 0.467936
v -0.449017 0.051665 0.459654
v -0.511379 0.175137 0.490069
v -0.592962 0.287547 0.547163
v -0.693765 0.388897 0.630935
v -0.518778 0.385687 0.825055
v -0.436181 0.284671 0.721087
v -0.372804 0.172594 0.643797
v -0.328648 0.049457 0.593184
v -0.332709 0.070935 0.555880
v -0.376826 0.193992 0.606435
v -0.440164 0.305988 0.683668
v -0.522722 0.406923 0.787579
v 0.532451 0.455757 0.332265
v 0.542394 0.479247 0.362448
v 0.543482 0.438328 0.369966
v 0.459631 0.490184 0.582141
v 0.431514 0.469096 0.600204
v 0.464058 0.448824 0.580797
v 0.495573 0.519032 0.342829
v 0.488401 0.493189 0.313807
v 0.455548 0.513050 0.333119
v 0.412811 0.529970 0.562523
v 0.376124 0.523546 0.543951
v 0.387465 0.506528 0.581747
v 0.068126 -0.000000 0.249028
v 0.131672 0.132351 0.260038
v 0.228271 0.244834 0.276381
v 0.357924 0.349164 0.298057
v 0.369027 0.331813 0.335763
v 0.239447 0.227560 0.314095
v 0.142919 0.115154 0.297759
v 0.079444 -0.000000 0.286756
v 0.266500 0.361247 0.540747
v 0.146358 0.255659 0.493821
v 0.059271 0.141919 0.452229
v 0.005237 -0.000000 0.415969
v 0.038025 -0.000000 0.396703
v 0.091998 0.121884 0.432927
v 0.179025 0.235545 0.474484
v 0.299105 0.341053 0.521374
v 0.219451 0.408740 0.487997
v 0.107650 0.296196 0.444577
v 0.028903 0.175499 0.406489
v -0.016791 -0.000000 0.373734
v -0.005658 -0.000000 0.411404
v 0.040088 0.158221 0.444190
v 0.118887 0.279004 0.482309
v 0.230739 0.391635 0.525762
v 0.322164 0.379553 0.283072
v 0.200800 0.268178 0.264870
v 0.112489 0.148652 0.252000
v 0.057231 -0.000000 0.244463
v 0.024628 -0.000000 0.263786
v 0.079823 0.168770 0.271320
v 0.168072 0.288211 0.284187
v 0.289373 0.399499 0.302386
v -0.442643 0.238474 0.439796
v -0.565734 0.449268 0.455317
v -0.616120 0.425642 0.402783
v -0.488134 0.217272 0.386793
v -0.568835 0.442168 0.067836
v -0.447653 0.228922 0.091876
v -0.491538 0.210796 0.147573
v -0.618134 0.420878 0.122025
v -0.466710 0.488358 0.121213
v -0.367097 0.266209 0.142662
v -0.413022 0.244214 0.090541
v -0.516600 0.465390 0.067740
v -0.513060 0.472872 0.453736
v -0.407805 0.253941 0.438814
v -0.363263 0.273078 0.383728
v -0.464089 0.493810 0.398131
v -0.355749 -0.000000 0.592863
v 0.398289 0.123442 -0.278067
v 0.146905 0.117155 -0.198511
v 0.327394 0.119022 -0.549036
v 0.058103 0.111873 -0.509741
v 0.075012 0.115887 -0.342670
v 0.382380 0.123766 -0.418705
v 0.293188 0.123180 -0.208143
v 0.198649 0.117351 -0.562258
v 0.245142 0.124330 -0.383709
v 0.411899 0.077987 -0.269814
v 0.137277 0.071135 -0.181011
v 0.038700 0.065302 -0.523094
v 0.335362 0.073214 -0.562346
v 0.408163 0.076481 -0.425129
v 0.039321 0.067026 -0.333887
v 0.189982 0.068841 -0.597994
v 0.303430 0.075837 -0.173058
v 0.208454 0.120613 -0.192330
v 0.140950 0.000000 -0.183316
v 0.054807 0.114071 -0.442886
v 0.044047 0.000000 -0.520149
v 0.278492 0.119217 -0.563343
v 0.336045 0.000000 -0.559446
v 0.398434 0.124619 -0.335125
v 0.110208 0.117349 -0.250673
v 0.355448 0.121939 -0.499422
v 0.327315 0.125923 -0.404446
v 0.406987 -0.000000 -0.423662
v 0.045829 0.000000 -0.334322
v 0.362740 0.124462 -0.242247
v 0.111792 0.114771 -0.541346
v 0.150578 0.121393 -0.360725
v 0.218225 0.122147 -0.486086
v 0.272586 0.125499 -0.282471
v 0.193112 0.000000 -0.592865
v 0.304196 0.000000 -0.176780
v 0.371134 0.077378 -0.211300
v 0.103112 0.066615 -0.576454
v 0.077681 0.068914 -0.243038
v 0.380142 0.075003 -0.502373
v 0.421563 0.077586 -0.344053
v 0.270744 0.071129 -0.593920
v 0.021106 0.065602 -0.435427
v 0.218654 0.073594 -0.159767
v 0.411635 0.000000 -0.270531
v 0.349300 0.126891 -0.310862
v 0.300497 0.123852 -0.496874
v 0.125831 0.119278 -0.464392
v 0.182058 0.122674 -0.261688
v 0.219687 0.000000 -0.163203
v 0.027411 0.000000 -0.435398
v 0.273548 0.000000 -0.589458
v 0.420674 0.000000 -0.342510
v 0.379176 0.000000 -0.501123
v 0.083680 0.000000 -0.243578
v 0.106508 0.000000 -0.571480
v 0.371959 0.000000 -0.214390
vn -0.4157 -0.1001 0.9040
vn -0.8152 0.4374 0.3797
vn -0.8159 -0.4648 0.3440
vn -0.8152 0.4374 -0.3797
vn -0.4460 -0.0688 -0.8924
vn -0.8273 -0.4532 -0.3319
vn -0.2475 0.8914 0.3797
vn 0.0533 0.4210 0.9055
vn 0.3877 0.8528 0.3498
vn -0.2475 0.8914 -0.3797
vn 0.3690 0.8680 -0.3322
vn 0.0194 0.4607 -0.8873
vn -0.3254 -0.1425 0.9348
vn -0.1881 -0.3469 0.9188
vn -0.1410 -0.3922 0.9090
vn -0.4909 -0.7898 0.3678
vn -0.6027 -0.7026 0.3783
vn -0.8731 -0.3279 0.3607
vn -0.2029 -0.3256 -0.9235
vn -0.2187 -0.3091 -0.9255
vn -0.3373 -0.2192 -0.9155
vn -0.8739 -0.3615 -0.3248
vn -0.6180 -0.6850 -0.3859
vn -0.5194 -0.7668 -0.3772
vn 0.5858 0.7197 -0.3726
vn 0.7075 0.5959 -0.3799
vn 0.9304 0.1880 -0.3147
vn 0.4840 0.0338 -0.8744
vn 0.3358 0.2209 -0.9157
vn 0.2654 0.3024 -0.9155
vn 0.3246 0.2362 0.9159
vn 0.3613 0.1984 0.9111
vn 0.4858 0.0869 0.8698
vn 0.9293 0.2021 0.3093
vn 0.7171 0.5932 0.3659
vn 0.6119 0.6968 0.3743
vn -0.6689 -0.1614 -0.7256
vn 0.0900 -0.3732 -0.9234
vn -0.6000 -0.1001 -0.7937
vn 0.0507 0.4374 -0.8978
vn 0.0826 -0.4648 -0.8816
vn 0.6264 -0.4890 -0.6070
vn 0.8534 -0.4630 0.2393
vn 0.7200 0.4374 -0.5388
vn 0.9972 -0.0688 0.0288
vn 0.6836 -0.4532 -0.5721
vn -0.7260 0.0933 0.6813
vn -0.9997 0.0248 0.0030
vn -0.2176 0.8914 -0.3976
vn -0.8231 0.4210 -0.3811
vn -0.4915 0.8528 0.1762
vn 0.4162 -0.2026 0.8864
vn -0.2310 0.0238 0.9727
vn 0.4516 0.8914 -0.0386
vn 0.1183 0.8680 0.4822
vn 0.7728 0.4607 0.4366
vn -0.6621 -0.1945 -0.7238
vn -0.6984 -0.2584 -0.6674
vn -0.7214 -0.3408 -0.6029
vn -0.7344 -0.3922 -0.5540
vn -0.0921 -0.7898 -0.6065
vn -0.0459 -0.6963 -0.7163
vn 0.0121 -0.5435 -0.8393
vn 0.0764 -0.4116 -0.9082
vn 0.9068 -0.3110 0.2847
vn 0.7604 -0.5381 -0.3637
vn 0.8658 -0.4494 0.2202
vn 0.8927 -0.3732 0.2526
vn 0.7057 -0.5042 -0.4977
vn 0.6936 -0.5599 -0.4531
vn 0.6357 -0.6824 -0.3608
vn 0.5780 -0.7668 -0.2793
vn 0.0819 0.7027 0.7068
vn -0.3473 0.6952 0.6294
vn -0.1506 0.3747 0.9148
vn -0.1307 0.1822 0.9745
vn 0.5216 -0.0740 0.8500
vn 0.4602 -0.1104 0.8809
vn 0.3386 0.9033 -0.2634
vn 0.6709 0.2943 0.6807
vn -0.9605 0.2362 -0.1470
vn -0.9742 0.1964 -0.1113
vn -0.9850 0.1530 -0.0795
vn -0.9971 0.0710 -0.0257
vn -0.7317 0.2377 0.6389
vn -0.7056 0.4473 0.5496
vn -0.6644 0.5915 0.4568
vn -0.6191 0.6968 0.3623
vn 0.7437 0.5189 -0.4215
vn 0.2047 -0.1796 -0.9622
vn 0.5165 0.1012 -0.8503
vn 0.9993 -0.0100 0.0373
vn 0.6862 -0.7160 -0.1283
vn 0.9320 -0.3613 -0.0276
vn 0.2044 0.8475 0.4899
vn -0.5223 0.8443 0.1203
vn -0.2693 0.9382 0.2173
vn 0.0828 0.2532 0.9639
vn 0.3225 0.4054 0.8553
vn 0.1442 0.3391 0.9296
vn 0.5091 -0.2554 0.8219
vn 0.7464 0.2779 0.6046
vn 0.6609 -0.0298 0.7499
vn 0.5415 0.8381 0.0661
vn -0.3113 0.4294 -0.8477
vn -0.1075 0.7891 -0.6048
vn 0.6550 -0.7554 0.0200
vn -0.0395 -0.2724 -0.9614
vn -0.4771 0.2838 -0.8318
vn 0.4062 -0.3054 0.8612
vn -0.6209 0.7784 0.0925
vn -0.0713 0.3054 0.9496
vn 0.9780 -0.2073 0.0240
vn 0.5507 -0.5200 0.6529
vn 0.9811 -0.1062 0.1618
vn 0.5825 0.4254 0.6926
vn 0.5447 -0.4767 0.6899
vn -0.0388 -0.6499 0.7590
vn -0.7696 -0.5500 0.3242
vn -0.1502 0.4254 0.8925
vn -0.7439 -0.0754 0.6641
vn -0.1043 -0.4653 0.8790
vn 0.0562 0.1330 -0.9895
vn 0.7124 0.0448 -0.7003
vn 0.4349 0.8876 0.1514
vn 0.8612 0.4217 -0.2838
vn 0.2388 0.8584 -0.4539
vn -0.8961 -0.2120 -0.3899
vn -0.4914 0.0556 -0.8692
vn -0.2978 0.8876 0.3513
vn -0.4143 0.8733 -0.2562
vn -0.8594 0.4609 0.2213
vn 0.9715 -0.2275 0.0664
vn 0.9650 -0.2622 0.0003
vn 0.9370 -0.3436 -0.0636
vn 0.9125 -0.3943 -0.1087
vn 0.4810 -0.7969 0.3656
vn 0.5234 -0.7052 0.4783
vn 0.5665 -0.5544 0.6097
vn 0.5503 -0.4956 0.6720
vn -0.8575 -0.3114 0.4096
vn -0.3093 -0.5341 0.7868
vn -0.7816 -0.4525 0.4294
vn -0.8143 -0.4178 0.4029
vn -0.1776 -0.5880 0.7891
vn -0.1939 -0.5706 0.7980
vn -0.2158 -0.6914 0.6895
vn -0.2303 -0.7743 0.5894
vn -0.5218 0.7226 -0.4534
vn -0.1516 0.6999 -0.6979
vn -0.5159 0.3849 -0.7653
vn -0.5777 0.1986 -0.7918
vn -0.9624 -0.0799 -0.2596
vn -0.9404 -0.1022 -0.3242
vn 0.1259 0.9332 0.3367
vn -0.9489 0.3133 -0.0381
vn 0.7992 0.2409 -0.5508
vn 0.7844 0.2017 -0.5866
vn 0.7702 0.1588 -0.6177
vn 0.7456 0.0830 -0.6612
vn 0.0942 0.2620 -0.9605
vn 0.1357 0.4593 -0.8779
vn 0.1702 0.6020 -0.7801
vn 0.2028 0.7057 -0.6789
vn -0.5046 0.4216 0.7534
vn 0.5704 -0.0644 0.8188
vn 0.1346 0.2817 0.9500
vn -0.7619 -0.0150 0.6475
vn -0.4204 -0.7234 0.5476
vn -0.6768 -0.3549 0.6450
vn -0.6425 0.7482 -0.1654
vn 0.3096 0.8639 -0.3973
vn -0.0600 0.9822 -0.1777
vn -0.7425 0.2336 -0.6277
vn -0.8098 0.4505 -0.3759
vn -0.7797 0.3334 -0.5300
vn -0.9359 -0.2482 -0.2498
vn -0.9500 0.3120 0.0152
vn -0.9942 0.0228 -0.1050
vn -0.5848 0.7626 0.2766
vn 0.8154 0.4534 0.3600
vn 0.2194 0.8857 0.4092
vn -0.4908 -0.7621 0.4223
vn 0.7413 -0.2817 0.6093
vn 0.9426 0.1882 0.2758
vn -0.8885 -0.2970 -0.3499
vn 0.4561 0.7436 -0.4889
vn -0.5966 0.2979 -0.7452
vn 0.4545 -0.0755 0.8875
vn -0.2432 -0.3925 0.8870
vn 0.3028 -0.1464 0.9417
vn -0.3738 0.3613 0.8542
vn -0.3483 -0.5371 0.7683
vn -0.5952 -0.7840 0.1762
vn -0.5673 -0.5611 -0.6028
vn -0.8823 0.3706 0.2902
vn -0.9240 -0.0958 -0.3702
vn -0.8099 -0.5183 0.2746
vn 0.8839 0.2545 -0.3924
vn 0.9602 0.1365 0.2438
vn 0.0215 0.8622 0.5061
vn 0.6224 0.4129 0.6649
vn 0.4741 0.8785 0.0582
vn -0.0248 -0.0993 -0.9947
vn 0.5487 0.1897 -0.8142
vn -0.4869 0.8715 -0.0579
vn 0.0028 0.9004 -0.4350
vn -0.6052 0.4715 -0.6414
vn 0.4280 -0.1730 0.8871
vn 0.4465 -0.2910 0.8462
vn 0.4944 -0.3671 0.7879
vn 0.5259 -0.4140 0.7430
vn -0.0736 -0.8333 0.5478
vn -0.1591 -0.7505 0.6414
vn -0.2635 -0.6100 0.7473
vn -0.3694 -0.5609 0.7409
vn -0.7505 -0.3304 -0.5724
vn -0.7629 -0.3133 -0.5656
vn -0.7715 -0.3011 -0.5605
vn -0.7033 -0.4386 -0.5595
vn -0.7209 -0.6755 0.1548
vn -0.7735 -0.6152 0.1525
vn -0.6812 -0.7280 0.0774
vn -0.5948 -0.8037 0.0149
vn 0.1446 0.7717 -0.6193
vn 0.2361 0.6625 -0.7109
vn 0.3388 0.5037 -0.7947
vn 0.4310 0.2926 -0.8536
vn -0.2095 -0.0190 -0.9776
vn -0.3024 0.1619 -0.9393
vn -0.3763 0.2634 -0.8883
vn -0.4331 0.3353 -0.8367
vn 0.8405 0.2518 0.4797
vn 0.8676 0.2155 0.4482
vn 0.8908 0.1752 0.4192
vn 0.9199 0.1262 0.3712
vn 0.8801 0.3457 -0.3254
vn 0.8234 0.5112 -0.2465
vn 0.7454 0.6461 -0.1638
vn 0.6652 0.7420 -0.0835
vn 0.7066 -0.1383 -0.6940
vn 0.9001 0.4265 -0.0884
vn 0.8810 -0.4729 -0.0126
vn 0.6327 0.4619 0.6216
vn 0.1026 -0.0232 0.9945
vn 0.6537 -0.4298 0.6228
vn 0.3725 0.8749 -0.3095
vn 0.2723 0.3779 -0.8849
vn -0.2328 0.8321 -0.5033
vn 0.1050 0.9103 0.4005
vn -0.4554 0.8792 0.1401
vn -0.3269 0.5013 0.8011
vn 0.6024 -0.2349 -0.7629
vn 0.5827 -0.3025 -0.7542
vn 0.4995 -0.3815 -0.7777
vn 0.4489 -0.4328 -0.7817
vn 0.5827 -0.8016 -0.1341
vn 0.6984 -0.7077 -0.1072
vn 0.8302 -0.5551 -0.0524
vn 0.8859 -0.4631 -0.0254
vn -0.1380 -0.2804 0.9499
vn -0.1277 -0.2620 0.9566
vn -0.0989 -0.2473 0.9639
vn -0.1002 -0.2201 0.9703
vn 0.6316 -0.4550 0.6277
vn 0.5609 -0.5318 0.6344
vn 0.4362 -0.6579 0.6139
vn 0.3471 -0.7437 0.5713
vn -0.6737 0.7310 0.1084
vn -0.7884 0.6103 0.0770
vn -0.9118 0.4104 0.0153
vn -0.9622 0.2676 -0.0511
vn -0.7895 0.0945 0.6064
vn -0.7203 0.1489 0.6775
vn -0.6345 0.2636 0.7266
vn -0.5683 0.3423 0.7482
vn 0.0207 0.1904 -0.9815
vn -0.0168 0.1505 -0.9885
vn -0.0707 0.1035 -0.9921
vn -0.1484 0.0946 -0.9844
vn -0.7398 0.2719 -0.6154
vn -0.6623 0.3948 -0.6369
vn -0.5359 0.5673 -0.6254
vn -0.4353 0.6731 -0.5979
vn -0.3162 -0.1955 0.9283
vn -0.2439 -0.2713 0.9311
vn -0.7167 -0.5760 0.3931
vn -0.8288 -0.4153 0.3750
vn -0.2681 -0.2935 -0.9176
vn -0.3361 -0.2559 -0.9064
vn -0.8316 -0.4392 -0.3400
vn -0.7285 -0.5792 -0.3657
vn 0.8149 0.4340 -0.3842
vn 0.8904 0.2707 -0.3660
vn 0.4148 0.0526 -0.9084
vn 0.3796 0.1263 -0.9165
vn 0.3970 0.1638 0.9031
vn 0.4382 0.1075 0.8924
vn 0.8981 0.2903 0.3304
vn 0.8201 0.4526 0.3502
vn 0.6067 0.7599 0.2335
vn -0.3341 0.7793 0.5301
vn 0.4088 0.7511 -0.5184
vn -0.5351 0.7856 -0.3105
vn -0.4852 0.8649 0.1285
vn 0.5217 0.8398 -0.1500
vn 0.1410 0.8703 0.4719
vn -0.0751 0.8643 -0.4974
vn -0.0273 0.9996 -0.0091
vn 0.7682 0.5624 0.3058
vn -0.4314 0.5677 0.7012
vn -0.7088 0.5652 -0.4220
vn 0.5148 0.5503 -0.6574
vn 0.7680 0.6047 -0.2110
vn -0.7571 0.6181 0.2115
vn -0.1007 0.6204 -0.7778
vn 0.2361 0.6330 0.7373
vn -0.0470 0.8475 0.5288
vn -0.5001 -0.0572 0.8641
vn -0.5346 0.8451 -0.0078
vn -0.8541 -0.0952 -0.5113
vn 0.1139 0.8255 -0.5528
vn 0.6415 -0.0274 -0.7667
vn 0.5740 0.8185 -0.0233
vn -0.4670 0.8386 0.2804
vn 0.5042 0.8155 -0.2843
vn 0.0065 0.9998 -0.0180
vn 0.9675 -0.0180 -0.2521
vn -0.9541 -0.0917 0.2851
vn 0.3585 0.8360 0.4154
vn -0.2507 0.8499 -0.4635
vn -0.0531 0.9986 -0.0018
vn -0.0315 0.9989 -0.0351
vn -0.0194 0.9997 0.0167
vn -0.0932 -0.0755 -0.9928
vn 0.3306 -0.0401 0.9429
vn 0.5067 0.6053 0.6139
vn -0.3597 0.5971 -0.7170
vn -0.6912 0.5923 0.4139
vn 0.7205 0.5780 -0.3831
vn 0.8118 0.5828 -0.0371
vn 0.1558 0.5890 -0.7929
vn -0.8062 0.5917 0.0017
vn -0.0372 0.6073 0.7936
vn 0.9329 -0.0091 0.3601
vn 0.0174 0.9998 0.0089
vn 0.0032 0.9989 -0.0467
vn -0.0584 0.9979 -0.0270
vn -0.0477 0.9986 0.0249
vn -0.0454 -0.0469 0.9979
vn -0.9955 -0.0949 -0.0082
vn 0.2533 -0.0513 -0.9660
vn 0.9998 -0.0116 -0.0172
vn 0.8814 -0.0190 -0.4721
vn -0.8309 -0.0765 0.5512
vn -0.4455 -0.0881 -0.8910
vn 0.6740 -0.0227 0.7384
vt 0.462110 0.572067
vt 0.462110 0.572067
vt 0.058798 0.639114
s 1
usemtl BASE_MATERIAL
f 31/1/31 8/1/8 1/1/1 15/1/15
f 25/1/25 11/1/11 9/1/9 36/1/36
f 10/1/10 4/1/4 2/1/2 7/1/7
f 16/1/16 3/1/3 6/1/6 24/1/24
f 19/1/19 5/1/5 12/1/12 30/1/30
f 1/1/1 2/1/2 3/1/3
f 4/1/4 5/1/5 6/1/6
f 7/1/7 8/1/8 9/1/9
f 10/1/10 11/1/11 12/1/12
f 15/1/15 1/1/1 3/1/3 16/1/16
f 2/2/2 4/1/4 6/1/6 3/1/3
f 4/1/4 10/1/10 12/1/12 5/1/5
f 10/1/10 7/1/7 9/1/9 11/1/11
f 7/1/7 2/1/2 1/1/1 8/1/8
f 8/1/8 31/1/31 36/1/36 9/1/9
f 31/1/31 32/1/32 35/1/35 36/1/36
f 298/1/298 33/1/33 34/1/34 299/1/299
f 11/1/11 25/1/25 30/1/30 12/1/12
f 25/1/25 26/1/26 29/1/29 30/1/30
f 27/1/27 294/1/294 299/1/299 34/1/34
f 26/1/26 293/1/293 296/1/296 29/1/29
f 5/1/5 19/1/19 24/1/24 6/1/6
f 19/1/19 20/1/20 23/1/23 24/1/24
f 21/1/21 290/1/290 295/1/295 28/1/28
f 20/1/20 289/1/289 292/1/292 23/1/23
f 297/1/297 32/1/32 14/1/14 286/1/286
f 13/1/13 285/1/285 288/1/288 18/1/18
f 14/1/14 15/1/15 16/1/16 17/1/17
f 293/1/293 26/1/26 35/1/35 300/1/300
f 290/1/290 21/1/21 22/1/22 291/1/291
f 20/1/20 19/1/19 30/1/30 29/1/29
f 289/1/289 20/1/20 29/1/29 296/1/296
f 18/1/18 288/1/288 291/1/291 22/1/22
f 17/1/17 16/1/16 24/1/24 23/1/23
f 32/1/32 297/1/297 300/1/300 35/1/35
f 294/1/294 27/1/27 28/1/28 295/1/295
f 26/1/26 25/1/25 36/1/36 35/1/35
f 286/1/286 14/1/14 17/1/17 287/2/287
f 287/1/287 17/1/17 23/1/23 292/2/292
f 32/1/32 31/1/31 15/1/15 14/1/14
f 81/1/81 50/1/50 39/1/39 60/1/60
f 73/1/73 55/1/55 51/1/51 88/1/88
f 54/1/54 44/1/44 40/1/40 49/1/49
f 61/1/61 41/1/41 46/1/46 72/1/72
f 65/1/65 45/1/45 56/1/56 80/1/80
f 39/1/39 40/1/40 41/1/41
f 44/1/44 45/1/45 46/1/46
f 49/1/49 50/1/50 51/1/51
f 54/1/54 55/1/55 56/1/56
f 60/1/60 39/1/39 41/1/41 61/1/61
f 40/2/40 44/1/44 46/1/46 41/1/41
f 68/1/68 43/1/43 42/2/42 69/1/69
f 44/1/44 54/1/54 56/1/56 45/1/45
f 76/1/76 53/1/53 52/1/52 77/1/77
f 54/1/54 49/1/49 51/1/51 55/1/55
f 84/1/84 48/1/48 47/1/47 85/1/85
f 49/1/49 40/1/40 39/1/39 50/1/50
f 50/1/50 81/1/81 88/1/88 51/1/51
f 81/1/81 82/1/82 87/1/87 88/1/88
f 82/1/82 83/1/83 86/1/86 87/1/87
f 83/1/83 84/1/84 85/1/85 86/1/86
f 55/1/55 73/1/73 80/1/80 56/1/56
f 73/1/73 74/1/74 79/1/79 80/1/80
f 110/1/110 107/1/107 93/1/93 101/1/101
f 75/1/75 76/1/76 77/1/77 78/1/78
f 45/1/45 65/1/65 72/1/72 46/1/46
f 65/1/65 66/1/66 71/1/71 72/1/72
f 66/1/66 67/1/67 70/1/70 71/1/71
f 67/1/67 68/1/68 69/1/69 70/1/70
f 37/1/37 57/1/57 64/1/64 38/1/38
f 57/1/57 58/1/58 63/1/63 64/1/64
f 58/1/58 59/1/59 62/1/62 63/1/63
f 59/1/59 60/1/60 61/1/61 62/1/62
f 43/1/43 68/1/68 77/1/77 52/1/52
f 68/1/68 67/1/67 78/1/78 77/1/77
f 92/1/92 89/1/89 104/1/104 102/1/102
f 66/1/66 65/1/65 80/1/80 79/1/79
f 38/1/38 64/1/64 69/1/69 42/2/42
f 64/1/64 63/1/63 70/1/70 69/1/69
f 63/1/63 62/1/62 71/1/71 70/1/70
f 62/1/62 61/1/61 72/1/72 71/1/71
f 53/1/53 76/1/76 85/1/85 47/1/47
f 76/1/76 75/1/75 86/1/86 85/1/85
f 75/1/75 74/1/74 87/1/87 86/1/86
f 74/1/74 73/1/73 88/1/88 87/1/87
f 48/1/48 84/1/84 57/1/57 37/1/37
f 84/1/84 83/1/83 58/1/58 57/1/57
f 83/1/83 82/1/82 59/1/59 58/1/58
f 82/1/82 81/1/81 60/1/60 59/1/59
f 109/1/109 111/1/111 96/1/96 105/1/105
f 108/1/108 109/1/109 105/1/105 90/1/90
f 112/1/112 110/1/110 101/1/101 98/1/98
f 95/1/95 99/1/99 102/1/102 104/1/104
f 111/1/111 112/1/112 98/1/98 96/1/96
f 89/1/89 92/1/92 94/1/94 91/1/91
f 91/1/91 94/1/94 93/1/93 90/1/90
f 96/1/96 98/1/98 100/1/100 97/1/97
f 97/1/97 100/1/100 99/1/99 95/1/95
f 95/1/95 104/1/104 106/1/106 97/1/97
f 97/1/97 106/1/106 105/1/105 96/1/96
f 98/1/98 101/1/101 103/1/103 100/1/100
f 100/1/100 103/1/103 102/1/102 99/1/99
f 92/1/92 102/1/102 103/1/103 94/1/94
f 94/1/94 103/1/103 101/1/101 93/1/93
f 90/1/90 105/1/105 106/1/106 91/1/91
f 91/1/91 106/1/106 104/1/104 89/1/89
f 107/1/107 108/1/108 90/1/90 93/1/93
f 67/1/67 66/1/66 108/1/108 107/1/107
f 74/1/74 75/1/75 112/1/112 111/1/111
f 75/1/75 78/1/78 110/1/110 112/1/112
f 66/1/66 79/1/79 109/1/109 108/1/108
f 79/1/79 74/1/74 111/1/111 109/1/109
f 78/1/78 67/1/67 107/1/107 110/1/110
f 157/1/157 126/1/126 115/1/115 136/1/136
f 149/1/149 131/1/131 127/1/127 164/1/164
f 130/1/130 120/1/120 116/1/116 125/1/125
f 137/1/137 117/1/117 122/1/122 148/1/148
f 141/1/141 121/1/121 132/1/132 156/1/156
f 115/1/115 116/1/116 117/1/117
f 120/1/120 121/1/121 122/1/122
f 125/1/125 126/1/126 127/1/127
f 130/1/130 131/1/131 132/1/132
f 136/1/136 115/1/115 117/1/117 137/1/137
f 116/2/116 120/1/120 122/1/122 117/1/117
f 144/1/144 119/1/119 118/2/118 145/1/145
f 120/1/120 130/1/130 132/1/132 121/1/121
f 152/1/152 129/1/129 128/1/128 153/1/153
f 130/1/130 125/1/125 127/1/127 131/1/131
f 160/1/160 124/1/124 123/1/123 161/1/161
f 125/1/125 116/1/116 115/1/115 126/1/126
f 126/1/126 157/1/157 164/1/164 127/1/127
f 157/1/157 158/1/158 163/1/163 164/1/164
f 158/1/158 159/1/159 162/1/162 163/1/163
f 159/1/159 160/1/160 161/1/161 162/1/162
f 131/1/131 149/1/149 156/1/156 132/1/132
f 149/1/149 150/1/150 155/1/155 156/1/156
f 186/1/186 183/1/183 169/1/169 177/1/177
f 151/1/151 152/1/152 153/1/153 154/1/154
f 121/1/121 141/1/141 148/1/148 122/1/122
f 141/1/141 142/1/142 147/1/147 148/1/148
f 142/1/142 143/1/143 146/1/146 147/1/147
f 143/1/143 144/1/144 145/1/145 146/1/146
f 113/1/113 133/1/133 140/1/140 114/1/114
f 133/1/133 134/1/134 139/1/139 140/1/140
f 134/1/134 135/1/135 138/1/138 139/1/139
f 135/1/135 136/1/136 137/1/137 138/1/138
f 119/1/119 144/1/144 153/1/153 128/1/128
f 144/1/144 143/1/143 154/1/154 153/1/153
f 168/1/168 165/1/165 180/1/180 178/1/178
f 142/1/142 141/1/141 156/1/156 155/1/155
f 114/1/114 140/1/140 145/1/145 118/2/118
f 140/1/140 139/1/139 146/1/146 145/1/145
f 139/1/139 138/1/138 147/1/147 146/1/146
f 138/1/138 137/1/137 148/1/148 147/1/147
f 129/1/129 152/1/152 161/1/161 123/1/123
f 152/1/152 151/1/151 162/1/162 161/1/161
f 151/1/151 150/1/150 163/1/163 162/1/162
f 150/1/150 149/1/149 164/1/164 163/1/163
f 124/1/124 160/1/160 133/1/133 113/1/113
f 160/1/160 159/1/159 134/1/134 133/1/133
f 159/1/159 158/1/158 135/1/135 134/1/134
f 158/1/158 157/1/157 136/1/136 135/1/135
f 185/1/185 187/1/187 172/1/172 181/1/181
f 184/1/184 185/1/185 181/1/181 166/1/166
f 188/1/188 186/1/186 177/1/177 174/1/174
f 171/1/171 175/1/175 178/1/178 180/1/180
f 187/1/187 188/1/188 174/1/174 172/1/172
f 165/1/165 168/1/168 170/1/170 167/1/167
f 167/1/167 170/1/170 169/1/169 166/1/166
f 172/1/172 174/1/174 176/1/176 173/1/173
f 173/1/173 176/1/176 175/1/175 171/1/171
f 171/1/171 180/1/180 182/1/182 173/1/173
f 173/1/173 182/1/182 181/1/181 172/1/172
f 174/1/174 177/1/177 179/1/179 176/1/176
f 176/1/176 179/1/179 178/1/178 175/1/175
f 168/1/168 178/1/178 179/1/179 170/1/170
f 170/1/170 179/1/179 177/1/177 169/1/169
f 166/1/166 181/1/181 182/1/182 167/1/167
f 167/1/167 182/1/182 180/1/180 165/1/165
f 183/1/183 184/1/184 166/1/166 169/1/169
f 143/1/143 142/1/142 184/1/184 183/1/183
f 150/1/150 151/1/151 188/1/188 187/1/187
f 151/1/151 154/1/154 186/1/186 188/1/188
f 142/1/142 155/1/155 185/1/185 184/1/184
f 155/1/155 150/1/150 187/1/187 185/1/185
f 154/1/154 143/1/143 183/1/183 186/1/186
f 233/1/233 202/1/202 191/1/191 212/1/212
f 225/1/225 207/1/207 203/1/203 240/1/240
f 206/1/206 196/1/196 192/1/192 201/1/201
f 213/1/213 193/1/193 198/1/198 224/1/224
f 217/1/217 197/1/197 208/1/208 232/1/232
f 191/1/191 192/1/192 193/1/193
f 196/1/196 197/1/197 198/1/198
f 201/1/201 202/1/202 203/1/203
f 206/1/206 207/1/207 208/1/208
f 212/1/212 191/1/191 193/1/193 213/1/213
f 192/2/192 196/1/196 198/1/198 193/1/193
f 220/1/220 195/1/195 194/2/194 221/1/221
f 196/1/196 206/1/206 208/1/208 197/1/197
f 228/1/228 205/1/205 204/1/204 229/1/229
f 206/1/206 201/1/201 203/1/203 207/1/207
f 236/1/236 200/1/200 199/1/199 237/1/237
f 201/1/201 192/1/192 191/1/191 202/1/202
f 202/1/202 233/1/233 240/1/240 203/1/203
f 233/1/233 234/1/234 239/1/239 240/1/240
f 234/1/234 235/1/235 238/1/238 239/1/239
f 235/1/235 236/1/236 237/1/237 238/1/238
f 207/1/207 225/1/225 232/1/232 208/1/208
f 225/1/225 226/1/226 231/1/231 232/1/232
f 226/1/226 227/1/227 230/1/230 231/1/231
f 227/1/227 228/1/228 229/1/229 230/1/230
f 197/1/197 217/1/217 224/1/224 198/1/198
f 217/1/217 218/1/218 223/1/223 224/1/224
f 218/1/218 219/1/219 222/1/222 223/1/223
f 219/1/219 220/1/220 221/1/221 222/1/222
f 189/1/189 209/1/209 216/1/216 190/1/190
f 209/1/209 210/1/210 215/1/215 216/1/216
f 210/1/210 211/1/211 214/1/214 215/1/215
f 211/1/211 212/1/212 213/1/213 214/1/214
f 195/1/195 220/1/220 229/1/229 204/1/204
f 220/1/220 219/1/219 230/1/230 229/1/229
f 219/1/219 218/1/218 231/1/231 230/1/230
f 218/1/218 217/1/217 232/1/232 231/1/231
f 190/1/190 216/1/216 221/1/221 194/2/194
f 216/1/216 215/1/215 222/1/222 221/1/221
f 215/1/215 214/1/214 223/1/223 222/1/222
f 214/1/214 213/1/213 224/1/224 223/1/223
f 205/1/205 228/1/228 237/1/237 199/1/199
f 228/1/228 227/1/227 238/1/238 237/1/237
f 227/1/227 226/1/226 239/1/239 238/1/238
f 226/1/226 225/1/225 240/1/240 239/1/239
f 200/1/200 236/1/236 209/1/209 189/1/189
f 236/1/236 235/1/235 210/1/210 209/1/209
f 235/1/235 234/1/234 211/1/211 210/1/210
f 234/1/234 233/1/233 212/1/212 211/1/211
f 277/1/277 248/1/248 241/1/241 256/1/256
f 269/1/269 251/1/251 249/1/249 284/1/284
f 250/1/250 244/1/244 242/1/242 247/1/247
f 257/1/257 243/1/243 246/1/246 268/1/268
f 261/1/261 245/1/245 252/1/252 276/1/276
f 241/1/241 242/1/242 243/1/243
f 244/1/244 245/1/245 246/1/246
f 247/1/247 248/1/248 249/1/249
f 250/1/250 251/1/251 252/1/252
f 256/1/256 241/1/241 243/1/243 257/1/257
f 242/2/242 244/1/244 246/1/246 243/1/243
f 244/1/244 250/1/250 252/1/252 245/1/245
f 250/1/250 247/1/247 249/1/249 251/1/251
f 247/1/247 242/1/242 241/1/241 248/1/248
f 248/1/248 277/1/277 284/1/284 249/1/249
f 277/1/277 278/1/278 283/1/283 284/1/284
f 278/1/278 279/1/279 282/1/282 283/1/283
f 279/1/279 280/1/280 281/1/281 282/1/282
f 251/1/251 269/1/269 276/1/276 252/1/252
f 269/1/269 270/1/270 275/1/275 276/1/276
f 270/1/270 271/1/271 274/1/274 275/1/275
f 271/1/271 272/1/272 273/1/273 274/1/274
f 245/1/245 261/1/261 268/1/268 246/1/246
f 261/1/261 262/1/262 267/1/267 268/1/268
f 262/1/262 263/1/263 266/1/266 267/1/267
f 263/1/263 264/1/264 265/1/265 266/1/266
f 253/1/253 254/1/254 259/1/259 260/1/260
f 254/1/254 255/1/255 258/1/258 259/1/259
f 255/1/255 256/1/256 257/1/257 258/1/258
f 264/1/264 263/1/263 274/1/274 273/1/273
f 263/1/263 262/1/262 275/1/275 274/1/274
f 262/1/262 261/1/261 276/1/276 275/1/275
f 260/1/260 259/1/259 266/1/266 265/1/265
f 259/1/259 258/1/258 267/1/267 266/1/266
f 258/1/258 257/1/257 268/1/268 267/1/267
f 272/1/272 271/1/271 282/1/282 281/1/281
f 271/1/271 270/1/270 283/1/283 282/1/282
f 270/1/270 269/1/269 284/1/284 283/1/283
f 280/1/280 279/1/279 254/1/254 253/1/253
f 279/1/279 278/1/278 255/1/255 254/1/254
f 278/1/278 277/1/277 256/1/256 255/1/255
f 298/1/298 299/1/299 300/1/300 297/1/297
f 294/1/294 295/1/295 296/1/296 293/1/293
f 290/1/290 291/1/291 292/1/292 289/1/289
f 286/1/286 287/2/287 288/1/288 285/1/285
f 289/1/289 296/1/296 295/1/295 290/1/290
f 287/1/287 292/2/292 291/1/291 288/1/288
f 293/1/293 300/1/300 299/1/299 294/1/294
f 297/1/297 286/1/286 285/1/285 298/1/298
f 33/1/33 298/1/298 285/1/285 13/1/13
f 345/3/344 319/3/318 303/3/302 312/3/311
f 306/3/305 321/3/320 344/3/343 316/3/315
f 344/3/343 321/3/320 305/3/304 313/3/312
f 309/3/308 323/3/322 343/3/342 317/3/316
f 343/3/342 323/3/322 304/3/303 314/3/313
f 307/3/306 325/3/324 342/3/341 315/3/314
f 342/3/341 325/3/324 302/3/301 311/3/310
f 304/3/303 327/3/326 341/3/340 314/3/313
f 310/3/309 335/3/334 347/3/346 328/3/327
f 335/3/334 308/3/307 331/3/330 347/3/346
f 347/3/346 331/3/330 302/3/301 325/3/324
f 328/3/327 347/3/346 325/3/324 307/3/306
f 309/3/308 334/3/333 348/3/347 323/3/322
f 334/3/333 310/3/309 328/3/327 348/3/347
f 348/3/347 328/3/327 307/3/306 327/3/326
f 323/3/322 348/3/347 327/3/326 304/3/303
f 341/3/340 327/3/326 307/3/306 315/3/314
f 303/3/302 326/3/325 340/3/339 312/3/311
f 340/3/339 326/3/325 306/3/305 316/3/315
f 305/3/304 332/3/331 339/3/338 313/3/312
f 305/3/304 321/3/320 349/3/348 332/3/331
f 321/3/320 306/3/305 333/3/332 349/3/348
f 349/3/348 333/3/332 310/3/309 334/3/333
f 332/3/331 349/3/348 334/3/333 309/3/308
f 306/3/305 326/3/325 350/3/349 333/3/332
f 326/3/325 303/3/302 319/3/318 350/3/349
f 350/3/349 319/3/318 308/3/307 335/3/334
f 333/3/332 350/3/349 335/3/334 310/3/309
f 339/3/338 332/3/331 309/3/308 317/3/316
f 311/3/310 302/3/301 331/3/330 338/3/337
f 338/3/337 331/3/330 308/3/307 318/3/317
f 318/3/317 345/3/344 351/3/350 337/3/336
f 315/3/314 341/3/340 314/3/313 343/3/342 317/3/316 339/3/338 313/3/312 344/3/343 316/3/315 340/3/339 312/3/311 345/3/344 318/3/317 338/3/337 311/3/310 342/3/341
f 345/3/344 312/3/311 320/3/319 351/3/350
f 316/3/315 344/3/343 352/3/351 330/3/329
f 344/3/343 313/3/312 322/3/321 352/3/351
f 317/3/316 343/3/342 353/3/352 336/3/335
f 343/3/342 314/3/313 324/3/323 353/3/352
f 315/3/314 342/3/341 354/3/353 329/3/328
f 342/3/341 311/3/310 346/3/345 354/3/353
f 314/3/313 341/3/340 355/3/354 324/3/323
f 341/3/340 315/3/314 329/3/328 355/3/354
f 312/3/311 340/3/339 356/3/355 320/3/319
f 340/3/339 316/3/315 330/3/329 356/3/355
f 313/3/312 339/3/338 357/3/356 322/3/321
f 339/3/338 317/3/316 336/3/335 357/3/356
f 346/3/345 311/3/310 338/3/337 358/3/357
f 338/3/337 318/3/317 337/3/336 358/3/357
f 308/3/307 319/3/318 345/3/344 318/3/317
