# Blender 4.1.0
# www.blender.org
mtllib cactus_large.mtl
o cactus_large
v -0.326618 1.703802 0.114532
v -0.311241 1.661671 0.037226
v -0.297763 1.604972 -0.030535
v -0.286701 1.535884 -0.086144
v -0.278482 1.422587 -0.127466
v -0.332675 1.670289 0.218098
v -0.305768 1.648960 0.153140
v -0.280971 1.614325 0.093275
v -0.259236 1.567714 0.040802
v -0.241398 1.510918 -0.002261
v -0.228144 1.411645 -0.034261
v -0.311241 1.729747 0.211698
v -0.263725 1.703802 0.140585
v -0.219934 1.661671 0.075047
v -0.181551 1.604972 0.017602
v -0.150050 1.535884 -0.029541
v -0.126643 1.422587 -0.064572
v -0.215588 1.703802 0.188721
v -0.150050 1.661671 0.144930
v -0.092606 1.604972 0.106547
v -0.045462 1.535884 0.075047
v -0.010431 1.422587 0.051640
v -0.360656 1.731775 0.285652
v -0.293102 1.670289 0.257670
v -0.228144 1.648960 0.230764
v -0.168279 1.614325 0.205967
v -0.115806 1.567714 0.184232
v -0.072742 1.510918 0.166395
v -0.040744 1.411645 0.153140
v -0.189537 1.703802 0.251615
v -0.112230 1.661671 0.236237
v -0.044469 1.604972 0.222758
v 0.011140 1.535884 0.211698
v 0.052462 1.422587 0.203478
v -0.273420 1.729747 0.303005
v -0.189537 1.703802 0.319690
v -0.112230 1.661671 0.335068
v -0.044469 1.604972 0.348546
v 0.011140 1.535884 0.359607
v 0.052462 1.422587 0.367827
v -0.293102 1.670289 0.313634
v -0.228144 1.648960 0.340540
v -0.168279 1.614325 0.365338
v -0.115806 1.567714 0.387072
v -0.072742 1.510918 0.404910
v -0.040744 1.411645 0.418164
v -0.215588 1.703802 0.382584
v -0.150050 1.661671 0.426375
v -0.092606 1.604972 0.464758
v -0.045462 1.535884 0.496258
v -0.010431 1.422587 0.519665
v -0.311241 1.729747 0.359607
v -0.263725 1.703802 0.430720
v -0.219934 1.661671 0.496258
v -0.181551 1.604972 0.553702
v -0.150050 1.535884 0.600846
v -0.126643 1.422587 0.635877
v -0.332675 1.670289 0.353206
v -0.305768 1.648960 0.418164
v -0.280971 1.614325 0.478030
v -0.259236 1.567714 0.530502
v -0.241399 1.510918 0.573565
v -0.228144 1.411645 0.605565
v -0.326618 1.703802 0.456771
v -0.311241 1.661671 0.534079
v -0.297763 1.604972 0.601840
v -0.286701 1.535884 0.657449
v -0.278482 1.422587 0.698771
v -0.378008 1.729747 0.372888
v -0.394694 1.703802 0.456771
v -0.410071 1.661671 0.534079
v -0.423550 1.604972 0.601840
v -0.434611 1.535884 0.657449
v -0.442831 1.422587 0.698771
v -0.388638 1.670289 0.353206
v -0.415545 1.648960 0.418164
v -0.440341 1.614325 0.478030
v -0.462076 1.567714 0.530502
v -0.479914 1.510918 0.573565
v -0.493168 1.411645 0.605565
v -0.457587 1.703802 0.430720
v -0.501379 1.661671 0.496258
v -0.539762 1.604972 0.553702
v -0.571262 1.535884 0.600846
v -0.594669 1.422587 0.635877
v -0.505724 1.703802 0.382584
v -0.571262 1.661671 0.426375
v -0.628706 1.604972 0.464758
v -0.675850 1.535884 0.496258
v -0.710881 1.422587 0.519665
v -0.428210 1.670289 0.313634
v -0.493168 1.648960 0.340540
v -0.553034 1.614325 0.365338
v -0.605506 1.567714 0.387072
v -0.648570 1.510918 0.404910
v -0.680568 1.411645 0.418164
v -0.447892 1.729747 0.303005
v -0.531775 1.703802 0.319690
v -0.609083 1.661671 0.335068
v -0.676843 1.604972 0.348546
v -0.732453 1.535884 0.359607
v -0.773774 1.422587 0.367827
v -0.531775 1.703802 0.251615
v -0.609083 1.661671 0.236237
v -0.676843 1.604972 0.222758
v -0.732452 1.535884 0.211698
v -0.773774 1.422587 0.203478
v -0.428210 1.670289 0.257671
v -0.493168 1.648960 0.230764
v -0.553034 1.614325 0.205967
v -0.605506 1.567714 0.184232
v -0.648570 1.510918 0.166395
v -0.680568 1.411645 0.153141
v -0.434611 1.729747 0.236237
v -0.505724 1.703802 0.188721
v -0.571262 1.661671 0.144930
v -0.628706 1.604972 0.106547
v -0.675850 1.535884 0.075047
v -0.710881 1.422587 0.051640
v -0.450656 0.000000 -0.166808
v -0.505787 0.000000 -0.064726
v -0.616954 0.000000 -0.097925
v -0.744233 0.000000 0.029353
v -0.711034 0.000000 0.140521
v -0.813117 0.000000 0.195652
v -0.813117 0.000000 0.375651
v -0.457587 1.703802 0.140585
v -0.501378 1.661671 0.075047
v -0.539762 1.604972 0.017602
v -0.571262 1.535884 -0.029541
v -0.594669 1.422587 -0.064572
v -0.711034 0.000000 0.430784
v -0.744234 0.000000 0.541950
v -0.616954 0.000000 0.669230
v -0.505787 0.000000 0.636030
v -0.450656 0.000000 0.738112
v -0.388638 1.670289 0.218098
v -0.415545 1.648960 0.153141
v -0.440341 1.614325 0.093275
v -0.462076 1.567714 0.040802
v -0.479914 1.510918 -0.002261
v -0.493168 1.411645 -0.034260
v -0.270656 0.000000 0.738112
v -0.215525 0.000000 0.636030
v -0.104358 0.000000 0.669230
v 0.022921 0.000000 0.541951
v -0.378008 1.729747 0.198417
v -0.394694 1.703802 0.114533
v -0.410071 1.661671 0.037226
v -0.423550 1.604972 -0.030534
v -0.434611 1.535884 -0.086144
v -0.442831 1.422587 -0.127466
v -0.010278 0.000000 0.430784
v 0.091805 0.000000 0.375651
v 0.091805 0.000000 0.195652
v -0.010278 0.000000 0.140521
v 0.022922 0.000000 0.029353
v -0.104358 0.000000 -0.097926
v -0.215525 0.000000 -0.064726
v -0.270656 0.000000 -0.166808
v 0.416139 0.661969 -0.413739
v 0.433474 0.635014 -0.500889
v 0.463453 0.532337 -0.651605
v 0.483484 0.378668 -0.752309
v 0.490519 0.197404 -0.787672
v 0.427182 0.600196 -0.393291
v 0.455136 0.578037 -0.460778
v 0.503480 0.493628 -0.577490
v 0.535782 0.367300 -0.655475
v 0.547125 0.218286 -0.682858
v 0.449450 0.661969 -0.399941
v 0.498816 0.635014 -0.473824
v 0.584189 0.532337 -0.601593
v 0.641234 0.378668 -0.686967
v 0.661265 0.197404 -0.716946
v 0.474945 0.661969 -0.374447
v 0.548826 0.635014 -0.423812
v 0.676597 0.532337 -0.509186
v 0.761971 0.378668 -0.566230
v 0.791950 0.197404 -0.586262
v 0.398111 0.664075 -0.323108
v 0.468295 0.600196 -0.352180
v 0.535782 0.578037 -0.380132
v 0.652493 0.493628 -0.428476
v 0.730478 0.367300 -0.460778
v 0.757862 0.218286 -0.472121
v 0.488743 0.661969 -0.341135
v 0.575892 0.635014 -0.358470
v 0.726607 0.532337 -0.388450
v 0.827312 0.378668 -0.408481
v 0.862676 0.197404 -0.415514
v 0.488743 0.661969 -0.305079
v 0.575892 0.635014 -0.287745
v 0.726607 0.532337 -0.257765
v 0.827312 0.378668 -0.237733
v 0.862676 0.197404 -0.230700
v 0.468295 0.600196 -0.294037
v 0.535782 0.578037 -0.266082
v 0.652493 0.493628 -0.217739
v 0.730478 0.367300 -0.185436
v 0.757862 0.218286 -0.174094
v 0.474945 0.661969 -0.271769
v 0.548826 0.635014 -0.222403
v 0.676597 0.532337 -0.137030
v 0.761971 0.378668 -0.079985
v 0.791949 0.197404 -0.059953
v 0.449450 0.661969 -0.246274
v 0.498816 0.635014 -0.172392
v 0.584189 0.532337 -0.044622
v 0.641234 0.378668 0.040752
v 0.661265 0.197404 0.070731
v 0.427182 0.600196 -0.252924
v 0.455136 0.578037 -0.185436
v 0.503480 0.493628 -0.068725
v 0.535782 0.367300 0.009259
v 0.547125 0.218286 0.036643
v 0.416139 0.661969 -0.232476
v 0.433474 0.635014 -0.145327
v 0.463453 0.532337 0.005389
v 0.483484 0.378668 0.106093
v 0.490519 0.197404 0.141457
v 0.380083 0.661969 -0.232476
v 0.362748 0.635014 -0.145327
v 0.332769 0.532337 0.005389
v 0.312737 0.378668 0.106093
v 0.305703 0.197404 0.141457
v 0.369040 0.600196 -0.252924
v 0.341086 0.578037 -0.185436
v 0.292743 0.493628 -0.068725
v 0.260440 0.367300 0.009259
v 0.249097 0.218286 0.036643
v 0.346772 0.661969 -0.246274
v 0.297406 0.635014 -0.172392
v 0.212032 0.532337 -0.044622
v 0.154988 0.378668 0.040752
v 0.134956 0.197404 0.070731
v 0.321277 0.661969 -0.271769
v 0.247396 0.635014 -0.222403
v 0.119625 0.532337 -0.137030
v 0.034252 0.378668 -0.079985
v 0.004272 0.197404 -0.059953
v 0.327927 0.600196 -0.294037
v 0.260440 0.578037 -0.266082
v 0.143728 0.493628 -0.217739
v 0.065744 0.367300 -0.185436
v 0.038360 0.218286 -0.174094
v 0.307479 0.661969 -0.305079
v 0.220330 0.635014 -0.287745
v 0.069614 0.532337 -0.257765
v -0.031090 0.378668 -0.237733
v -0.066453 0.197404 -0.230700
v 0.307479 0.661969 -0.341135
v 0.220330 0.635014 -0.358470
v 0.069614 0.532337 -0.388450
v -0.031090 0.378668 -0.408481
v -0.066453 0.197404 -0.415515
v 0.327927 0.600196 -0.352179
v 0.260440 0.578037 -0.380132
v 0.143728 0.493628 -0.428476
v 0.065744 0.367300 -0.460778
v 0.038360 0.218286 -0.472122
v 0.321277 0.661969 -0.374447
v 0.247396 0.635014 -0.423812
v 0.119625 0.532337 -0.509186
v 0.034252 0.378668 -0.566230
v 0.004273 0.197404 -0.586262
v 0.315561 0.000000 -0.738112
v 0.264994 0.000000 -0.644481
v 0.163030 0.000000 -0.674932
v 0.046287 0.000000 -0.558189
v 0.076737 0.000000 -0.456223
v -0.016894 0.000000 -0.405657
v -0.016894 0.000000 -0.240559
v 0.346772 0.661969 -0.399941
v 0.297406 0.635014 -0.473824
v 0.212032 0.532337 -0.601593
v 0.154988 0.378668 -0.686967
v 0.134957 0.197404 -0.716946
v 0.076737 0.000000 -0.189990
v 0.046287 0.000000 -0.088026
v 0.163030 0.000000 0.028717
v 0.264994 0.000000 -0.001735
v 0.315561 0.000000 0.091898
v 0.369040 0.600196 -0.393291
v 0.341086 0.578037 -0.460778
v 0.292743 0.493628 -0.577490
v 0.260440 0.367300 -0.655474
v 0.249098 0.218286 -0.682858
v 0.480660 0.000000 0.091898
v 0.531228 0.000000 -0.001734
v 0.633193 0.000000 0.028717
v 0.749935 0.000000 -0.088026
v 0.380083 0.661969 -0.413739
v 0.362748 0.635014 -0.500889
v 0.332769 0.532337 -0.651604
v 0.312737 0.378668 -0.752309
v 0.305704 0.197404 -0.787671
v 0.719484 0.000000 -0.189990
v 0.813116 0.000000 -0.240559
v 0.813116 0.000000 -0.405657
v 0.719484 0.000000 -0.456223
v 0.749935 0.000000 -0.558189
v 0.633193 0.000000 -0.674932
v 0.531228 0.000000 -0.644481
v 0.480660 0.000000 -0.738112
v 0.579782 0.121158 0.333338
v 0.714136 0.115316 0.538224
v 0.355199 0.117051 0.464865
v 0.458037 0.110407 0.695891
v 0.583745 0.104553 0.319087
v 0.732211 0.098186 0.542439
v 0.450967 0.092766 0.716605
v 0.341289 0.100119 0.461082
v 0.704195 0.118529 0.481609
v 0.729226 -0.000000 0.539732
v 0.518671 0.112450 0.682036
v 0.452259 -0.000000 0.711081
v 0.354691 0.117233 0.512209
v 0.343711 -0.000000 0.459743
v 0.528704 0.122252 0.347549
v 0.676697 0.115496 0.584164
v 0.392530 0.119761 0.427299
v 0.620762 0.122106 0.356135
v 0.416270 0.113101 0.655806
v 0.646337 0.103988 0.340848
v 0.387043 0.093987 0.672395
v 0.691703 0.096123 0.611342
v 0.383684 0.101781 0.405950
v 0.514903 0.104181 0.329102
v 0.329285 0.098181 0.526825
v 0.533815 0.093045 0.710309
v 0.730762 0.100472 0.464300
v 0.583169 -0.000000 0.319503
v 0.562758 0.124362 0.385404
v 0.408621 0.121539 0.475817
v 0.481582 0.117289 0.623904
v 0.648784 0.120444 0.522656
v 0.727428 -0.000000 0.464239
v 0.532256 -0.000000 0.704662
v 0.332571 -0.000000 0.523195
v 0.516507 -0.000000 0.329509
v 0.385045 -0.000000 0.406499
v 0.689712 -0.000000 0.606111
v 0.390640 -0.000000 0.668107
v 0.643365 -0.000000 0.340887
v -0.172823 0.125606 -0.572541
v -0.403185 0.111410 -0.441189
v -0.297474 0.092359 -0.823357
v -0.553588 0.072575 -0.727706
v -0.156375 0.109284 -0.565932
v -0.407648 0.093965 -0.420580
v -0.573914 0.051194 -0.735297
v -0.290946 0.073392 -0.836707
v -0.341694 0.119132 -0.448304
v -0.403795 -0.000078 -0.423775
v -0.543352 0.080637 -0.661547
v -0.570770 -0.000078 -0.734675
v -0.348476 0.088318 -0.827155
v -0.291749 -0.000078 -0.835426
v -0.184419 0.121621 -0.628680
v -0.449918 0.104670 -0.484712
v -0.259998 0.101462 -0.780758
v -0.200532 0.127736 -0.529989
v -0.507492 0.075839 -0.770226
v -0.184454 0.111528 -0.499881
v -0.521595 0.051545 -0.801305
v -0.478714 0.082538 -0.468799
v -0.234829 0.083310 -0.787362
v -0.161999 0.102736 -0.640817
v -0.360744 0.064558 -0.853984
v -0.573335 0.058384 -0.645555
v -0.323515 0.103245 -0.416991
v -0.155935 -0.000078 -0.567154
v -0.227936 0.123140 -0.594718
v -0.313639 0.100305 -0.766869
v -0.478334 0.088170 -0.697966
v -0.381956 0.113321 -0.511015
v -0.322028 -0.000078 -0.420719
v -0.569127 -0.000078 -0.647730
v -0.359637 -0.000078 -0.851678
v -0.162341 -0.000078 -0.639915
v -0.236902 -0.000078 -0.787195
v -0.472970 -0.000078 -0.470909
v -0.520211 -0.000078 -0.798472
v -0.183049 -0.000078 -0.503467
v -0.299571 1.737235 0.062069
v -0.250347 1.747917 0.058236
v -0.385873 1.737235 0.058971
v -0.343567 1.718552 0.083869
v -0.466791 1.737235 0.089137
v -0.434695 1.747917 0.051621
v -0.530006 1.737235 0.147973
v -0.482335 1.718552 0.135599
v -0.565893 1.737235 0.226521
v -0.569726 1.747917 0.177297
v -0.568990 1.737235 0.312823
v -0.543879 1.718552 0.270303
v -0.538824 1.737235 0.393742
v -0.576340 1.747917 0.361646
v -0.479989 1.737235 0.456957
v -0.492147 1.718552 0.409071
v -0.401441 1.737235 0.492844
v -0.450664 1.747917 0.496677
v -0.315138 1.737235 0.495940
v -0.357444 1.731320 0.470615
v -0.234220 1.737235 0.465775
v -0.266316 1.747917 0.503291
v -0.171005 1.737235 0.406940
v -0.218676 1.718552 0.418883
v -0.135118 1.737235 0.328392
v -0.131285 1.747917 0.377615
v -0.132021 1.737235 0.242090
v -0.157133 1.718552 0.284179
v -0.162187 1.737235 0.161170
v -0.124671 1.747917 0.193267
v -0.221023 1.737235 0.097956
v -0.208864 1.718552 0.145412
v -0.300443 1.812005 0.065757
v -0.252686 1.821511 0.063354
v -0.385267 1.812005 0.062714
v -0.343609 1.786821 0.085039
v -0.464800 1.812005 0.092362
v -0.432730 1.821511 0.056894
v -0.526932 1.812005 0.150190
v -0.481549 1.786824 0.136463
v -0.562204 1.812005 0.227394
v -0.564608 1.821511 0.179636
v -0.565248 1.812005 0.312218
v -0.542726 1.786831 0.270363
v -0.535599 1.812005 0.391750
v -0.571068 1.821511 0.359680
v -0.477771 1.812005 0.453882
v -0.491303 1.786838 0.408304
v -0.400568 1.812005 0.489154
v -0.448325 1.821511 0.491558
v -0.315744 1.812005 0.492198
v -0.357453 1.787419 0.470890
v -0.236211 1.812005 0.462549
v -0.268281 1.821511 0.498019
v -0.174079 1.812005 0.404722
v -0.219462 1.786838 0.418057
v -0.138806 1.812005 0.327519
v -0.136404 1.821511 0.375276
v -0.135763 1.812005 0.242694
v -0.158286 1.786832 0.284158
v -0.165412 1.812005 0.163162
v -0.129943 1.821511 0.195231
v -0.223240 1.812005 0.101030
v -0.209709 1.786824 0.146216
v -0.272729 1.832114 0.107224
v -0.298719 1.830257 0.109269
v -0.345974 1.821422 0.150989
v -0.390105 1.830257 0.105990
v -0.415882 1.832114 0.102087
v -0.432814 1.830257 0.121911
v -0.436603 1.821422 0.184773
v -0.499752 1.830257 0.184213
v -0.520738 1.832114 0.199679
v -0.518693 1.830257 0.225669
v -0.476797 1.821422 0.272748
v -0.521972 1.830257 0.317056
v -0.525875 1.832114 0.342832
v -0.506050 1.830257 0.359764
v -0.443011 1.821422 0.363376
v -0.443749 1.830257 0.426703
v -0.428282 1.832114 0.447689
v -0.402292 1.830257 0.445643
v -0.355037 1.821422 0.403570
v -0.310906 1.830257 0.448921
v -0.285130 1.832114 0.452826
v -0.268198 1.830257 0.433001
v -0.264409 1.821422 0.369785
v -0.201260 1.830257 0.370700
v -0.180273 1.832114 0.355233
v -0.182318 1.830257 0.329242
v -0.224215 1.821422 0.281810
v -0.179039 1.830257 0.237857
v -0.175137 1.832114 0.212080
v -0.194961 1.830257 0.195149
v -0.258000 1.821422 0.191182
v -0.257262 1.830257 0.128210
v 0.454508 0.675035 -0.525509
v 0.498817 0.684651 -0.528959
v 0.376820 0.675035 -0.528296
v 0.414903 0.658217 -0.505884
v 0.303980 0.675035 -0.501143
v 0.332871 0.684651 -0.534914
v 0.247075 0.675035 -0.448180
v 0.289987 0.658217 -0.459319
v 0.214770 0.675035 -0.377473
v 0.211320 0.684651 -0.421783
v 0.211983 0.675035 -0.299786
v 0.234587 0.658217 -0.338062
v 0.239137 0.675035 -0.226946
v 0.205366 0.684651 -0.255837
v 0.292100 0.675035 -0.170041
v 0.281155 0.658217 -0.213147
v 0.362806 0.675035 -0.137736
v 0.318497 0.684651 -0.134286
v 0.440494 0.675035 -0.134949
v 0.402411 0.669710 -0.157745
v 0.513334 0.675035 -0.162104
v 0.484442 0.684651 -0.128331
v 0.570239 0.675035 -0.215064
v 0.527327 0.658217 -0.204313
v 0.602544 0.675035 -0.285772
v 0.605994 0.684651 -0.241462
v 0.605331 0.675035 -0.363460
v 0.582726 0.658217 -0.325570
v 0.578176 0.675035 -0.436299
v 0.611948 0.684651 -0.407408
v 0.525214 0.675035 -0.493203
v 0.536160 0.658217 -0.450484
v 0.453722 0.742341 -0.522189
v 0.496712 0.750898 -0.524351
v 0.377365 0.742341 -0.524928
v 0.414865 0.719671 -0.504831
v 0.305772 0.742341 -0.498239
v 0.334641 0.750898 -0.530167
v 0.249843 0.742341 -0.446184
v 0.290695 0.719674 -0.458542
v 0.218091 0.742341 -0.376687
v 0.215928 0.750898 -0.419677
v 0.215351 0.742341 -0.300331
v 0.235625 0.719680 -0.338008
v 0.242041 0.742341 -0.228738
v 0.210113 0.750898 -0.257607
v 0.294095 0.742341 -0.172809
v 0.281915 0.719686 -0.213837
v 0.363592 0.742341 -0.141058
v 0.320601 0.750898 -0.138894
v 0.439948 0.742341 -0.138316
v 0.402403 0.720209 -0.157499
v 0.511541 0.742341 -0.165007
v 0.482673 0.750898 -0.133079
v 0.567472 0.742341 -0.217061
v 0.526619 0.719687 -0.205057
v 0.599223 0.742341 -0.286556
v 0.601386 0.750898 -0.243568
v 0.601963 0.742341 -0.362914
v 0.581688 0.719681 -0.325591
v 0.575274 0.742341 -0.434507
v 0.607202 0.750898 -0.405640
v 0.523218 0.742341 -0.490436
v 0.535398 0.719674 -0.449761
v 0.478669 0.760443 -0.484862
v 0.455274 0.758771 -0.483021
v 0.412736 0.750818 -0.445465
v 0.373011 0.758771 -0.485972
v 0.349807 0.760443 -0.489486
v 0.334565 0.758771 -0.471641
v 0.331154 0.750818 -0.415053
v 0.274309 0.758771 -0.415557
v 0.255418 0.760443 -0.401635
v 0.257259 0.758771 -0.378241
v 0.294972 0.750818 -0.335860
v 0.254307 0.758771 -0.295976
v 0.250794 0.760443 -0.272773
v 0.268640 0.758771 -0.257532
v 0.325385 0.750818 -0.254279
v 0.324721 0.758771 -0.197275
v 0.338644 0.760443 -0.178383
v 0.362040 0.758771 -0.180224
v 0.404577 0.750818 -0.218098
v 0.444304 0.758771 -0.177273
v 0.467507 0.760443 -0.173759
v 0.482748 0.758771 -0.191606
v 0.486159 0.750818 -0.248511
v 0.543004 0.758771 -0.247686
v 0.561896 0.760443 -0.261610
v 0.560055 0.758771 -0.285007
v 0.522341 0.750818 -0.327703
v 0.563006 0.758771 -0.367269
v 0.566520 0.760443 -0.390472
v 0.548675 0.758771 -0.405713
v 0.491928 0.750818 -0.409285
v 0.492593 0.758771 -0.465970
vn 0.5287 0.8335 -0.1605
vn 0.5086 0.7658 -0.3936
vn 0.4918 0.6669 -0.5597
vn 0.4918 0.4709 -0.7324
vn 0.5005 0.1805 -0.8467
vn 0.0372 0.8868 -0.4608
vn 0.1274 0.8863 -0.4451
vn 0.2502 0.7566 -0.6041
vn 0.2917 0.6474 -0.7041
vn 0.3413 0.4525 -0.8239
vn 0.3773 0.1669 -0.9109
vn -0.2509 0.9649 -0.0780
vn -0.2389 0.8152 -0.5276
vn -0.0813 0.7658 -0.6380
vn 0.0480 0.6669 -0.7436
vn 0.1701 0.4709 -0.8656
vn 0.2448 0.1805 -0.9526
vn 0.4874 0.8335 0.2604
vn 0.6380 0.7658 0.0813
vn 0.7436 0.6669 -0.0480
vn 0.8656 0.4709 -0.1701
vn 0.9526 0.1805 -0.2448
vn -0.1349 0.9807 0.1415
vn 0.3469 0.9268 -0.1437
vn 0.3424 0.9288 -0.1418
vn 0.6041 0.7566 -0.2502
vn 0.7041 0.6474 -0.2916
vn 0.8239 0.4525 -0.3413
vn 0.9109 0.1669 -0.3773
vn 0.1605 0.8335 -0.5288
vn 0.3936 0.7658 -0.5086
vn 0.5597 0.6669 -0.4918
vn 0.7324 0.4709 -0.4918
vn 0.8467 0.1805 -0.5005
vn 0.1535 0.9880 -0.0168
vn 0.2041 0.8152 0.5420
vn 0.3936 0.7658 0.5086
vn 0.5597 0.6669 0.4918
vn 0.7324 0.4709 0.4918
vn 0.8467 0.1805 0.5005
vn 0.3513 0.4949 0.7948
vn 0.6444 0.7231 0.2487
vn 0.6041 0.7566 0.2502
vn 0.7041 0.6474 0.2917
vn 0.8239 0.4525 0.3413
vn 0.9109 0.1669 0.3773
vn 0.5614 0.8006 -0.2094
vn 0.6380 0.7658 -0.0813
vn 0.7436 0.6669 0.0480
vn 0.8656 0.4709 0.1701
vn 0.9526 0.1805 0.2448
vn -0.3870 0.8262 0.4095
vn -0.2375 0.8197 0.5212
vn -0.0813 0.7658 0.6380
vn 0.0480 0.6669 0.7436
vn 0.1701 0.4709 0.8656
vn 0.2448 0.1805 0.9526
vn 0.0372 0.8867 0.4608
vn 0.1274 0.8863 0.4451
vn 0.2502 0.7566 0.6041
vn 0.2917 0.6474 0.7041
vn 0.3413 0.4525 0.8239
vn 0.3773 0.1669 0.9109
vn 0.5288 0.8335 0.1605
vn 0.5086 0.7658 0.3936
vn 0.4918 0.6669 0.5597
vn 0.4918 0.4709 0.7324
vn 0.5005 0.1805 0.8467
vn 0.0090 0.9885 0.1512
vn -0.5420 0.8152 0.2041
vn -0.5086 0.7658 0.3936
vn -0.4918 0.6669 0.5597
vn -0.4918 0.4709 0.7324
vn -0.5005 0.1805 0.8467
vn -0.7948 0.4949 0.3513
vn -0.2487 0.7231 0.6444
vn -0.2502 0.7566 0.6041
vn -0.2917 0.6474 0.7041
vn -0.3413 0.4525 0.8239
vn -0.3773 0.1669 0.9109
vn 0.2091 0.8071 0.5521
vn 0.0813 0.7658 0.6380
vn -0.0480 0.6669 0.7436
vn -0.1701 0.4709 0.8656
vn -0.2448 0.1805 0.9526
vn -0.5521 0.8071 -0.2091
vn -0.6380 0.7658 -0.0813
vn -0.7436 0.6669 0.0480
vn -0.8656 0.4709 0.1701
vn -0.9526 0.1805 0.2448
vn -0.3513 0.4949 0.7948
vn -0.6444 0.7231 0.2487
vn -0.6041 0.7566 0.2502
vn -0.7041 0.6474 0.2917
vn -0.8239 0.4525 0.3413
vn -0.9109 0.1669 0.3773
vn -0.1512 0.9885 -0.0090
vn -0.2041 0.8152 0.5420
vn -0.3936 0.7658 0.5086
vn -0.5597 0.6669 0.4918
vn -0.7324 0.4709 0.4918
vn -0.8467 0.1805 0.5005
vn -0.1605 0.8335 -0.5288
vn -0.3936 0.7658 -0.5086
vn -0.5597 0.6669 -0.4918
vn -0.7324 0.4709 -0.4918
vn -0.8467 0.1805 -0.5005
vn -0.4608 0.8867 -0.0372
vn -0.4451 0.8863 -0.1274
vn -0.6041 0.7566 -0.2502
vn -0.7041 0.6474 -0.2916
vn -0.8239 0.4525 -0.3413
vn -0.9109 0.1669 -0.3773
vn -0.4095 0.8262 0.3870
vn -0.5212 0.8197 0.2375
vn -0.6380 0.7658 0.0813
vn -0.7436 0.6669 -0.0480
vn -0.8656 0.4709 -0.1701
vn -0.9526 0.1805 -0.2448
vn -0.5098 0.0266 -0.8599
vn -0.3826 0.0233 -0.9236
vn -0.2475 0.0266 -0.9685
vn -0.9685 0.0266 -0.2475
vn -0.9236 0.0233 -0.3826
vn -0.8599 0.0266 -0.5098
vn -0.8599 0.0266 0.5098
vn 0.2094 0.8006 -0.5614
vn 0.0813 0.7658 -0.6380
vn -0.0480 0.6669 -0.7436
vn -0.1701 0.4709 -0.8656
vn -0.2448 0.1805 -0.9526
vn -0.9236 0.0233 0.3826
vn -0.9685 0.0266 0.2475
vn -0.2475 0.0266 0.9685
vn -0.3826 0.0233 0.9236
vn -0.5098 0.0266 0.8599
vn -0.7948 0.4949 -0.3513
vn -0.2487 0.7231 -0.6444
vn -0.2502 0.7566 -0.6041
vn -0.2917 0.6474 -0.7041
vn -0.3413 0.4525 -0.8239
vn -0.3773 0.1669 -0.9109
vn 0.5098 0.0266 0.8599
vn 0.3826 0.0233 0.9236
vn 0.2475 0.0266 0.9685
vn 0.9685 0.0266 0.2475
vn 0.0168 0.9880 -0.1535
vn -0.5420 0.8152 -0.2041
vn -0.5086 0.7658 -0.3936
vn -0.4918 0.6669 -0.5597
vn -0.4918 0.4709 -0.7324
vn -0.5005 0.1805 -0.8467
vn 0.9236 0.0233 0.3826
vn 0.8599 0.0266 0.5098
vn 0.8599 0.0266 -0.5098
vn 0.9236 0.0233 -0.3826
vn 0.9685 0.0266 -0.2475
vn 0.2475 0.0266 -0.9685
vn 0.3826 0.0233 -0.9236
vn 0.5098 0.0266 -0.8599
vn 0.5708 0.8210 -0.0112
vn 0.5295 0.8066 -0.2627
vn 0.4900 0.6576 -0.5723
vn 0.4880 0.3586 -0.7958
vn 0.4951 -0.0280 -0.8684
vn 0.2146 0.8280 -0.5181
vn 0.2289 0.8014 -0.5525
vn 0.2944 0.6390 -0.7106
vn 0.3572 0.3587 -0.8624
vn 0.3827 0.0114 -0.9238
vn -0.3957 0.8210 -0.4116
vn -0.1887 0.8066 -0.5602
vn 0.0582 0.6576 -0.7511
vn 0.2176 0.3586 -0.9078
vn 0.2640 -0.0280 -0.9641
vn 0.4116 0.8210 0.3957
vn 0.5602 0.8066 0.1887
vn 0.7511 0.6576 -0.0582
vn 0.9078 0.3586 -0.2176
vn 0.9641 -0.0280 -0.2640
vn -0.0000 1.0000 -0.0000
vn 0.5181 0.8280 -0.2146
vn 0.5525 0.8014 -0.2289
vn 0.7106 0.6390 -0.2944
vn 0.8624 0.3587 -0.3572
vn 0.9238 0.0114 -0.3827
vn 0.0112 0.8210 -0.5708
vn 0.2627 0.8066 -0.5295
vn 0.5723 0.6576 -0.4900
vn 0.7958 0.3586 -0.4880
vn 0.8684 -0.0280 -0.4951
vn 0.0112 0.8210 0.5708
vn 0.2627 0.8066 0.5295
vn 0.5723 0.6576 0.4900
vn 0.7958 0.3586 0.4880
vn 0.8684 -0.0280 0.4951
vn 0.5181 0.8280 0.2146
vn 0.5525 0.8014 0.2289
vn 0.7106 0.6390 0.2944
vn 0.8624 0.3587 0.3572
vn 0.9238 0.0114 0.3827
vn 0.4116 0.8210 -0.3957
vn 0.5602 0.8066 -0.1886
vn 0.7511 0.6576 0.0582
vn 0.9078 0.3586 0.2176
vn 0.9641 -0.0280 0.2640
vn -0.3957 0.8210 0.4115
vn -0.1887 0.8066 0.5602
vn 0.0582 0.6576 0.7511
vn 0.2176 0.3586 0.9078
vn 0.2640 -0.0280 0.9641
vn 0.2146 0.8280 0.5181
vn 0.2289 0.8014 0.5525
vn 0.2944 0.6390 0.7106
vn 0.3572 0.3587 0.8624
vn 0.3827 0.0114 0.9238
vn 0.5708 0.8210 0.0112
vn 0.5295 0.8066 0.2627
vn 0.4900 0.6576 0.5723
vn 0.4880 0.3586 0.7958
vn 0.4951 -0.0280 0.8684
vn -0.5708 0.8210 0.0112
vn -0.5295 0.8066 0.2627
vn -0.4900 0.6576 0.5723
vn -0.4880 0.3586 0.7958
vn -0.4951 -0.0280 0.8684
vn -0.2146 0.8280 0.5181
vn -0.2289 0.8014 0.5525
vn -0.2944 0.6390 0.7106
vn -0.3572 0.3587 0.8624
vn -0.3827 0.0114 0.9238
vn 0.3957 0.8210 0.4115
vn 0.1886 0.8066 0.5602
vn -0.0582 0.6576 0.7511
vn -0.2176 0.3586 0.9078
vn -0.2640 -0.0280 0.9641
vn -0.4116 0.8210 -0.3957
vn -0.5602 0.8066 -0.1886
vn -0.7511 0.6576 0.0582
vn -0.9078 0.3586 0.2176
vn -0.9641 -0.0280 0.2640
vn -0.5181 0.8280 0.2146
vn -0.5525 0.8014 0.2289
vn -0.7106 0.6390 0.2944
vn -0.8624 0.3587 0.3572
vn -0.9238 0.0114 0.3827
vn -0.0112 0.8210 0.5708
vn -0.2627 0.8066 0.5295
vn -0.5723 0.6576 0.4900
vn -0.7958 0.3586 0.4880
vn -0.8684 -0.0280 0.4951
vn -0.0112 0.8210 -0.5708
vn -0.2627 0.8066 -0.5295
vn -0.5723 0.6576 -0.4900
vn -0.7958 0.3586 -0.4880
vn -0.8684 -0.0280 -0.4951
vn -0.5181 0.8280 -0.2146
vn -0.5525 0.8015 -0.2289
vn -0.7106 0.6390 -0.2944
vn -0.8624 0.3587 -0.3572
vn -0.9238 0.0114 -0.3827
vn -0.4115 0.8210 0.3957
vn -0.5602 0.8066 0.1887
vn -0.7511 0.6576 -0.0582
vn -0.9078 0.3586 -0.2176
vn -0.9641 -0.0280 -0.2640
vn -0.5308 -0.2269 -0.8166
vn -0.3753 -0.1955 -0.9061
vn -0.2021 -0.2269 -0.9527
vn -0.9527 -0.2269 -0.2021
vn -0.9061 -0.1955 -0.3753
vn -0.8166 -0.2269 -0.5308
vn -0.8166 -0.2269 0.5308
vn 0.3957 0.8210 -0.4116
vn 0.1886 0.8066 -0.5602
vn -0.0582 0.6576 -0.7511
vn -0.2176 0.3586 -0.9078
vn -0.2640 -0.0280 -0.9641
vn -0.9061 -0.1955 0.3753
vn -0.9527 -0.2269 0.2021
vn -0.2021 -0.2269 0.9527
vn -0.3753 -0.1955 0.9061
vn -0.5308 -0.2269 0.8166
vn -0.2146 0.8280 -0.5181
vn -0.2289 0.8014 -0.5525
vn -0.2944 0.6390 -0.7106
vn -0.3572 0.3587 -0.8624
vn -0.3827 0.0114 -0.9238
vn 0.5308 -0.2269 0.8166
vn 0.3753 -0.1955 0.9061
vn 0.2021 -0.2269 0.9527
vn 0.9527 -0.2269 0.2021
vn -0.5708 0.8210 -0.0112
vn -0.5295 0.8066 -0.2627
vn -0.4900 0.6576 -0.5723
vn -0.4880 0.3586 -0.7958
vn -0.4951 -0.0280 -0.8684
vn 0.9061 -0.1955 0.3753
vn 0.8166 -0.2269 0.5308
vn 0.8166 -0.2269 -0.5308
vn 0.9061 -0.1955 -0.3753
vn 0.9527 -0.2269 -0.2021
vn 0.2021 -0.2269 -0.9527
vn 0.3753 -0.1955 -0.9061
vn 0.5308 -0.2269 -0.8166
vn 0.0366 0.8894 -0.4557
vn 0.3979 0.9080 0.1312
vn -0.4388 0.8808 -0.1780
vn -0.0958 0.9142 0.3939
vn 0.0758 0.6975 -0.7125
vn 0.6801 0.7057 0.1986
vn -0.1841 0.7029 0.6870
vn -0.6754 0.6851 -0.2730
vn 0.3343 0.9400 -0.0678
vn 0.7240 -0.6640 0.1869
vn 0.0957 0.9370 0.3359
vn -0.1965 -0.6616 0.7237
vn -0.3775 0.9249 0.0459
vn -0.6828 -0.6635 -0.3059
vn -0.1344 0.9171 -0.3754
vn 0.2496 0.9333 0.2583
vn -0.2866 0.9143 -0.2863
vn 0.2137 0.9335 -0.2879
vn -0.2495 0.9400 0.2325
vn 0.4386 0.7290 -0.5256
vn -0.5381 0.7195 0.4390
vn 0.4796 0.7185 0.5038
vn -0.4704 0.7054 -0.5302
vn -0.2512 0.7090 -0.6589
vn -0.6893 0.7166 0.1066
vn 0.2177 0.7178 0.6613
vn 0.6538 0.7298 -0.1998
vn 0.0712 -0.6585 -0.7492
vn 0.0037 0.9999 -0.0146
vn -0.0416 0.9991 0.0112
vn -0.0098 0.9981 0.0601
vn 0.0333 0.9987 0.0375
vn 0.7152 -0.6597 -0.2310
vn 0.2303 -0.6799 0.6962
vn -0.7441 -0.6643 0.0707
vn -0.2452 -0.6699 -0.7008
vn -0.4890 -0.6714 -0.5569
vn 0.5291 -0.6771 0.5115
vn -0.5834 -0.6686 0.4611
vn 0.4600 -0.6500 -0.6049
vn 0.3823 0.9240 -0.0023
vn -0.2278 0.9200 0.3189
vn 0.1395 0.8593 -0.4922
vn -0.4555 0.8698 -0.1894
vn 0.6654 0.7428 0.0743
vn -0.2949 0.7243 0.6233
vn -0.7122 0.6481 -0.2697
vn 0.2691 0.6620 -0.6995
vn -0.0279 0.9637 0.2657
vn -0.3054 -0.0473 0.9511
vn -0.4128 0.9108 0.0031
vn -0.9443 -0.0649 -0.3227
vn -0.0908 0.8891 -0.4487
vn 0.4628 -0.0225 -0.8862
vn 0.3121 0.9329 -0.1795
vn -0.3459 0.9243 0.1614
vn 0.2341 0.9121 -0.3365
vn 0.1998 0.9667 0.1601
vn -0.2865 0.8979 -0.3342
vn 0.4499 0.7839 0.4278
vn -0.4434 0.6623 -0.6039
vn -0.5863 0.7059 0.3974
vn 0.5121 0.7081 -0.4861
vn 0.6296 0.7318 -0.2609
vn -0.1076 0.6707 -0.7339
vn -0.7194 0.6831 0.1258
vn 0.1065 0.7746 0.6234
vn 0.9874 -0.0001 0.1580
vn -0.0627 0.9955 -0.0712
vn -0.0852 0.9894 -0.1178
vn -0.1359 0.9867 -0.0892
vn -0.1164 0.9922 -0.0449
vn 0.2512 -0.0303 0.9674
vn -0.9651 -0.0737 0.2512
vn -0.0351 -0.0380 -0.9987
vn 0.9633 -0.0069 -0.2685
vn 0.7912 -0.0169 -0.6113
vn -0.7350 -0.0675 0.6747
vn -0.5721 -0.0542 -0.8184
vn 0.7575 -0.0120 0.6527
vn 0.0964 0.4916 0.8654
vn -0.3814 0.3972 0.8347
vn -0.1582 0.4916 0.8563
vn -0.0210 0.8106 0.5852
vn 0.6809 0.4915 0.5430
vn 0.3206 0.3972 0.8599
vn 0.4935 0.4921 0.7172
vn 0.3989 0.8109 0.4282
vn 0.8651 0.4918 -0.0990
vn 0.8347 0.3972 0.3814
vn 0.8556 0.4926 0.1592
vn 0.5840 0.8115 0.0205
vn 0.5406 0.4923 -0.6822
vn 0.8599 0.3972 -0.3206
vn 0.6975 0.5274 -0.4851
vn 0.4109 0.8134 -0.4118
vn -0.1399 0.6074 -0.7820
vn 0.3814 0.3972 -0.8348
vn 0.1955 0.6074 -0.7699
vn 0.0232 0.7605 -0.6489
vn -0.6610 0.5274 -0.5337
vn -0.3206 0.3972 -0.8599
vn -0.4903 0.4924 -0.7192
vn -0.3803 0.8134 -0.4401
vn -0.8647 0.4927 0.0976
vn -0.8347 0.3972 -0.3814
vn -0.8557 0.4918 -0.1609
vn -0.5838 0.8116 -0.0214
vn -0.5436 0.4921 0.6800
vn -0.8599 0.3972 0.3206
vn -0.7181 0.4915 0.4927
vn -0.4286 0.8109 0.3985
vn 0.3482 -0.5465 0.7616
vn -0.3257 -0.6212 0.7128
vn -0.4020 -0.5465 0.7347
vn -0.0313 -0.4918 0.8701
vn 0.7852 -0.5463 0.2915
vn 0.2737 -0.6212 0.7343
vn 0.2356 -0.5465 0.8036
vn 0.5944 -0.4921 0.6360
vn 0.7612 -0.5459 -0.3500
vn 0.7128 -0.6212 0.3256
vn 0.7349 -0.5463 0.4019
vn 0.8698 -0.4927 0.0285
vn 0.2906 -0.5457 -0.7860
vn 0.7343 -0.6212 -0.2737
vn 0.8043 -0.5460 -0.2348
vn 0.6354 -0.4933 -0.5941
vn -0.3413 -0.5486 -0.7632
vn 0.3256 -0.6212 -0.7128
vn 0.3951 -0.5486 -0.7368
vn 0.0312 -0.4901 -0.8711
vn -0.7854 -0.5459 -0.2917
vn -0.2737 -0.6212 -0.7343
vn -0.2335 -0.5457 -0.8048
vn -0.5913 -0.4933 -0.6380
vn -0.7618 -0.5463 0.3482
vn -0.7128 -0.6212 -0.3256
vn -0.7342 -0.5459 -0.4037
vn -0.8695 -0.4927 -0.0338
vn -0.2926 -0.5465 0.7846
vn -0.7343 -0.6212 0.2737
vn -0.8041 -0.5463 0.2344
vn -0.6386 -0.4921 0.5917
vn -0.0526 -0.9919 0.1152
vn 0.2500 -0.9518 0.1776
vn -0.0027 -0.9971 0.0760
vn -0.2621 -0.9518 0.1592
vn 0.0442 -0.9919 0.1187
vn 0.3029 -0.9516 -0.0516
vn 0.0519 -0.9971 0.0554
vn -0.0724 -0.9519 0.2976
vn 0.1152 -0.9919 0.0526
vn 0.1778 -0.9514 -0.2513
vn 0.0757 -0.9971 0.0024
vn 0.1594 -0.9519 0.2618
vn 0.1187 -0.9919 -0.0442
vn -0.0520 -0.9514 -0.3036
vn 0.0552 -0.9971 -0.0516
vn 0.2983 -0.9517 0.0727
vn 0.0526 -0.9919 -0.1152
vn -0.2467 -0.9529 -0.1764
vn 0.0025 -0.9975 -0.0712
vn 0.2586 -0.9529 -0.1583
vn -0.0442 -0.9919 -0.1187
vn -0.3028 -0.9517 0.0512
vn -0.0513 -0.9971 -0.0554
vn 0.0736 -0.9514 -0.2991
vn -0.1152 -0.9919 -0.0526
vn -0.1777 -0.9519 0.2497
vn -0.0757 -0.9971 -0.0030
vn -0.1594 -0.9514 -0.2634
vn -0.1187 -0.9919 0.0443
vn 0.0509 -0.9519 0.3021
vn -0.0557 -0.9971 0.0516
vn -0.2985 -0.9516 -0.0732
vn 0.3989 0.8108 0.4282
vn 0.8556 0.4927 0.1591
vn 0.6975 0.5275 -0.4851
vn 0.0233 0.7605 -0.6489
vn -0.8348 0.3972 -0.3814
vn -0.5839 0.8116 -0.0214
vn 0.2357 -0.5466 0.8036
vn 0.8043 -0.5460 -0.2347
vn -0.8695 -0.4927 -0.0339
vn 0.0443 -0.9919 0.1187
vn 0.1187 -0.9919 -0.0443
vn -0.0443 -0.9919 -0.1187
vn -0.1778 -0.9519 0.2497
vt 0.560610 0.303743
vt 0.570093 0.253283
vt 0.053640 0.621034
vt 0.052510 0.643105
vt 0.347889 0.918462
vt 0.271781 0.428195
s 1
usemtl BASE_MATERIAL
f 152/1/152 151/1/151 4/1/4 5/1/5
f 63/1/63 144/1/144 145/1/145 57/1/57
f 149/1/149 148/1/148 1/1/1 2/1/2
f 150/1/150 149/1/149 2/1/2 3/1/3
f 151/1/151 150/1/150 3/1/3 4/1/4
f 3/1/3 2/1/2 8/1/8 9/1/9
f 4/1/4 3/1/3 9/1/9 10/1/10
f 5/1/5 4/1/4 10/1/10 11/1/11
f 147/1/147 23/1/23 6/1/6
f 1/1/1 147/1/147 6/1/6 7/1/7
f 2/1/2 1/1/1 7/1/7 8/1/8
f 6/1/6 23/1/23 12/1/12
f 7/1/7 6/1/6 12/1/12 13/1/13
f 8/1/8 7/1/7 13/1/13 14/1/14
f 9/1/9 8/1/8 14/1/14 15/1/15
f 10/1/10 9/1/9 15/1/15 16/1/16
f 11/1/11 10/1/10 16/1/16 17/1/17
f 16/1/16 21/1/21 22/1/22 17/1/17
f 131/1/131 122/1/122 123/1/123 119/1/119
f 13/1/13 18/1/18 19/1/19 14/1/14
f 14/1/14 19/1/19 20/1/20 15/1/15
f 15/1/15 20/1/20 21/1/21 16/1/16
f 21/1/21 20/1/20 27/1/27 28/1/28
f 22/1/22 21/1/21 28/1/28 29/1/29
f 35/1/35 52/1/52 53/1/53 47/1/47
f 12/1/12 23/1/23 24/1/24
f 18/1/18 12/1/12 24/1/24 25/1/25
f 19/1/19 18/1/18 25/1/25 26/1/26
f 20/1/20 19/1/19 26/1/26 27/1/27
f 25/1/25 24/1/24 35/1/35 30/1/30
f 26/1/26 25/1/25 30/1/30 31/1/31
f 27/1/27 26/1/26 31/1/31 32/1/32
f 28/1/28 27/1/27 32/1/32 33/1/33
f 29/1/29 28/1/28 33/1/33 34/1/34
f 24/1/24 23/1/23 35/1/35
f 23/1/23 52/1/52 35/1/35
f 30/1/30 36/1/36 37/1/37 31/1/31
f 31/1/31 37/1/37 38/1/38 32/1/32
f 32/1/32 38/1/38 39/1/39 33/1/33
f 33/1/33 39/1/39 40/1/40 34/1/34
f 74/1/74 136/1/136 143/1/143 68/1/68
f 35/1/35 23/1/23 41/1/41
f 36/1/36 35/1/35 41/1/41 42/1/42
f 37/1/37 36/1/36 42/1/42 43/1/43
f 38/1/38 37/1/37 43/1/43 44/1/44
f 39/1/39 38/1/38 44/1/44 45/1/45
f 40/1/40 39/1/39 45/1/45 46/1/46
f 43/1/43 42/1/42 47/1/47 48/1/48
f 44/1/44 43/1/43 48/1/48 49/1/49
f 45/1/45 44/1/44 49/1/49 50/1/50
f 46/1/46 45/1/45 50/1/50 51/1/51
f 42/1/42 41/1/41 35/1/35 47/1/47
f 40/1/40 154/1/154 155/1/155 34/1/34
f 47/1/47 53/1/53 54/1/54 48/1/48
f 48/1/48 54/1/54 55/1/55 49/1/49
f 49/1/49 55/1/55 56/1/56 50/1/50
f 50/1/50 56/1/56 57/1/57 51/1/51
f 52/1/52 23/1/23 58/1/58
f 53/1/53 52/1/52 58/1/58 59/1/59
f 54/1/54 53/1/53 59/1/59 60/1/60
f 55/1/55 54/1/54 60/1/60 61/1/61
f 56/1/56 55/1/55 61/1/61 62/1/62
f 57/1/57 56/1/56 62/1/62 63/1/63
f 61/1/61 60/1/60 65/1/65 66/1/66
f 62/1/62 61/1/61 66/1/66 67/1/67
f 63/1/63 62/1/62 67/1/67 68/1/68
f 58/1/58 23/1/23 69/1/69
f 59/1/59 58/1/58 69/1/69 64/1/64
f 60/1/60 59/1/59 64/1/64 65/1/65
f 64/1/64 70/1/70 71/1/71 65/1/65
f 65/1/65 71/1/71 72/1/72 66/1/66
f 66/1/66 72/1/72 73/1/73 67/1/67
f 67/1/67 73/1/73 74/1/74 68/1/68
f 23/1/23 97/1/97 69/1/69
f 70/1/70 69/1/69 75/1/75 76/1/76
f 71/1/71 70/1/70 76/1/76 77/1/77
f 72/1/72 71/1/71 77/1/77 78/1/78
f 73/1/73 72/1/72 78/1/78 79/1/79
f 74/1/74 73/1/73 79/1/79 80/1/80
f 69/1/69 23/1/23 75/1/75
f 80/1/80 79/1/79 84/1/84 85/1/85
f 76/1/76 75/1/75 69/1/69 81/1/81
f 77/1/77 76/1/76 81/1/81 82/1/82
f 78/1/78 77/1/77 82/1/82 83/1/83
f 79/1/79 78/1/78 83/1/83 84/1/84
f 81/1/81 86/1/86 87/1/87 82/1/82
f 82/1/82 87/1/87 88/1/88 83/1/83
f 83/1/83 88/1/88 89/1/89 84/1/84
f 84/1/84 89/1/89 90/1/90 85/1/85
f 107/1/107 125/1/125 126/1/126 102/1/102
f 87/1/87 86/1/86 92/1/92 93/1/93
f 88/1/88 87/1/87 93/1/93 94/1/94
f 89/1/89 88/1/88 94/1/94 95/1/95
f 90/1/90 89/1/89 95/1/95 96/1/96
f 86/1/86 97/1/97 91/1/91 92/1/92
f 91/1/91 23/1/23 97/1/97
f 92/1/92 91/1/91 97/1/97 98/1/98
f 93/1/93 92/1/92 98/1/98 99/1/99
f 94/1/94 93/1/93 99/1/99 100/1/100
f 95/1/95 94/1/94 100/1/100 101/1/101
f 96/1/96 95/1/95 101/1/101 102/1/102
f 99/1/99 104/1/104 105/1/105 100/1/100
f 100/1/100 105/1/105 106/1/106 101/1/101
f 101/1/101 106/1/106 107/1/107 102/1/102
f 98/1/98 103/1/103 104/1/104 99/1/99
f 105/1/105 104/1/104 110/1/110 111/1/111
f 106/1/106 105/1/105 111/1/111 112/1/112
f 107/1/107 106/1/106 112/1/112 113/1/113
f 23/1/23 147/1/147 114/1/114
f 97/1/97 23/1/23 108/1/108
f 103/1/103 97/1/97 108/1/108 109/1/109
f 104/1/104 103/1/103 109/1/109 110/1/110
f 108/1/108 23/1/23 114/1/114
f 109/1/109 108/1/108 114/1/114 115/1/115
f 110/1/110 109/1/109 115/1/115 116/1/116
f 111/1/111 110/1/110 116/1/116 117/1/117
f 112/1/112 111/1/111 117/1/117 118/1/118
f 113/1/113 112/1/112 118/1/118 119/1/119
f 118/1/118 130/1/130 131/1/131 119/1/119
f 90/1/90 133/1/133 134/1/134 85/1/85
f 115/1/115 127/1/127 128/1/128 116/1/116
f 116/1/116 128/1/128 129/1/129 117/1/117
f 117/1/117 129/1/129 130/1/130 118/1/118
f 57/1/57 145/1/145 146/1/146 51/1/51
f 22/1/22 157/1/157 158/1/158 17/1/17
f 102/1/102 126/1/126 132/1/132 96/1/96
f 5/1/5 160/1/160 120/1/120 152/1/152
f 130/1/130 129/1/129 140/1/140 141/1/141
f 68/1/68 143/1/143 144/1/144 63/1/63
f 131/1/131 130/1/130 141/1/141 142/1/142
f 113/1/113 124/1/124 125/1/125 107/1/107
f 46/1/46 153/1/153 154/1/154 40/1/40
f 152/1/152 120/1/120 121/1/121 142/1/142
f 127/1/127 147/1/147 137/1/137 138/1/138
f 128/1/128 127/1/127 138/1/138 139/1/139
f 129/1/129 128/1/128 139/1/139 140/1/140
f 138/1/138 137/1/137 147/1/147 148/1/148
f 11/1/11 159/1/159 160/1/160 5/1/5
f 139/1/139 138/1/138 148/1/148 149/1/149
f 140/1/140 139/1/139 149/1/149 150/1/150
f 141/1/141 140/1/140 150/1/150 151/1/151
f 142/1/142 141/1/141 151/1/151 152/1/152
f 137/1/137 23/1/23 147/1/147
f 34/1/34 155/1/155 156/1/156 29/1/29
f 80/1/80 135/1/135 136/1/136 74/1/74
f 119/1/119 123/1/123 124/1/124 113/1/113
f 51/1/51 146/1/146 153/1/153 46/1/46
f 85/1/85 134/1/134 135/1/135 80/1/80
f 96/1/96 132/1/132 133/1/133 90/1/90
f 142/1/142 121/1/121 122/1/122 131/1/131
f 29/1/29 156/1/156 157/1/157 22/1/22
f 148/1/148 147/1/147 1/1/1
f 97/1/97 103/1/103 98/1/98
f 165/2/165 305/2/305 267/2/267 297/2/297
f 114/1/114 147/1/147 127/1/127 115/1/115
f 12/1/12 18/1/18 13/1/13
f 69/1/69 70/1/70 64/1/64
f 69/1/69 97/1/97 86/1/86 81/1/81
f 181/2/181 176/2/176 171/2/171
f 295/2/295 294/2/294 162/2/162 163/2/163
f 171/2/171 176/2/176 177/2/177 172/2/172
f 293/2/293 181/2/181 161/2/161
f 296/2/296 164/2/164 165/2/165 297/2/297
f 164/2/164 163/2/163 168/2/168 169/2/169
f 165/2/165 164/2/164 169/2/169 170/2/170
f 170/2/170 304/2/304 305/2/305 165/2/165
f 161/2/161 181/2/181 166/2/166
f 169/2/169 174/2/174 175/2/175 170/2/170
f 162/2/162 161/2/161 166/2/166 167/2/167
f 175/2/175 303/2/303 304/2/304 170/2/170
f 166/2/166 181/2/181 171/2/171
f 168/2/168 167/2/167 172/2/172 173/2/173
f 167/2/167 166/2/166 171/2/171 172/2/172
f 169/2/169 168/2/168 173/2/173 174/2/174
f 180/2/180 302/2/302 303/2/303 175/2/175
f 179/2/179 178/2/178 184/2/184 185/2/185
f 177/2/177 178/2/178 173/2/173 172/2/172
f 181/2/181 192/2/192 187/2/187
f 187/2/187 192/2/192 193/2/193 188/2/188
f 178/2/178 179/2/179 174/2/174 173/2/173
f 179/2/179 180/2/180 175/2/175 174/2/174
f 180/2/180 179/2/179 185/2/185 186/2/186
f 186/2/186 301/2/301 302/2/302 180/2/180
f 176/2/176 181/2/181 182/2/182
f 178/2/178 177/2/177 183/2/183 184/2/184
f 177/2/177 176/2/176 182/2/182 183/2/183
f 191/2/191 300/2/300 301/2/301 186/2/186
f 184/2/184 183/2/183 188/2/188 189/2/189
f 183/2/183 182/2/182 187/2/187 188/2/188
f 185/2/185 184/2/184 189/2/189 190/2/190
f 186/2/186 185/2/185 190/2/190 191/2/191
f 196/2/196 299/2/299 300/2/300 191/2/191
f 182/2/182 181/2/181 187/2/187
f 196/2/196 195/2/195 200/2/200 201/2/201
f 193/2/193 194/2/194 189/2/189 188/2/188
f 181/2/181 207/2/207 202/2/202
f 202/2/202 207/2/207 208/2/208 203/2/203
f 194/2/194 195/2/195 190/2/190 189/2/189
f 195/2/195 196/2/196 191/2/191 190/2/190
f 201/2/201 298/2/298 299/2/299 196/2/196
f 192/2/192 181/2/181 197/2/197
f 194/2/194 193/2/193 198/2/198 199/2/199
f 193/2/193 192/2/192 197/2/197 198/2/198
f 195/2/195 194/2/194 199/2/199 200/2/200
f 199/2/199 198/2/198 203/2/203 204/2/204
f 200/2/200 199/2/199 204/2/204 205/2/205
f 201/2/201 200/2/200 205/2/205 206/2/206
f 206/2/206 292/2/292 298/2/298 201/2/201
f 197/2/197 181/2/181 202/2/202
f 208/2/208 209/2/209 204/2/204 203/2/203
f 198/2/198 197/2/197 202/2/202 203/2/203
f 210/2/210 215/2/215 216/2/216 211/2/211
f 181/2/181 222/2/222 217/2/217
f 217/2/217 222/2/222 223/2/223 218/2/218
f 209/2/209 210/2/210 205/2/205 204/2/204
f 210/2/210 211/2/211 206/2/206 205/2/205
f 211/2/211 291/2/291 292/2/292 206/2/206
f 216/2/216 290/2/290 291/2/291 211/2/211
f 207/2/207 181/2/181 212/2/212
f 209/2/209 208/2/208 213/2/213 214/2/214
f 208/2/208 207/2/207 212/2/212 213/2/213
f 210/2/210 209/2/209 214/2/214 215/2/215
f 213/2/213 218/2/218 219/2/219 214/2/214
f 215/2/215 214/2/214 219/2/219 220/2/220
f 216/2/216 215/2/215 220/2/220 221/2/221
f 221/2/221 289/2/289 290/2/290 216/2/216
f 212/2/212 181/2/181 217/2/217
f 224/2/224 225/2/225 220/2/220 219/2/219
f 213/2/213 212/2/212 217/2/217 218/2/218
f 223/2/223 224/2/224 219/2/219 218/2/218
f 181/2/181 237/2/237 232/2/232
f 232/2/232 237/2/237 238/2/238 233/2/233
f 231/2/231 282/2/282 283/2/283 226/2/226
f 225/2/225 226/2/226 221/2/221 220/2/220
f 226/2/226 283/2/283 289/2/289 221/2/221
f 224/2/224 223/2/223 228/2/228 229/2/229
f 223/2/223 222/2/222 227/2/227 228/2/228
f 225/2/225 224/2/224 229/2/229 230/2/230
f 226/2/226 225/2/225 230/2/230 231/2/231
f 229/2/229 234/2/234 235/2/235 230/2/230
f 222/2/222 181/2/181 227/2/227
f 231/2/231 230/2/230 235/2/235 236/2/236
f 236/2/236 281/2/281 282/2/282 231/2/231
f 227/2/227 181/2/181 232/2/232
f 229/2/229 228/2/228 233/2/233 234/2/234
f 228/2/228 227/2/227 232/2/232 233/2/233
f 239/2/239 240/2/240 235/2/235 234/2/234
f 246/2/246 279/2/279 280/2/280 241/2/241
f 240/2/240 241/2/241 236/2/236 235/2/235
f 241/2/241 280/2/280 281/2/281 236/2/236
f 238/2/238 239/2/239 234/2/234 233/2/233
f 181/2/181 252/2/252 247/2/247
f 247/2/247 252/2/252 253/2/253 248/2/248
f 240/2/240 239/2/239 244/2/244 245/2/245
f 241/2/241 240/2/240 245/2/245 246/2/246
f 246/2/246 245/2/245 250/2/250 251/2/251
f 237/2/237 181/2/181 242/2/242
f 239/2/239 238/2/238 243/2/243 244/2/244
f 238/2/238 237/2/237 242/2/242 243/2/243
f 251/2/251 273/2/273 279/2/279 246/2/246
f 242/2/242 181/2/181 247/2/247
f 244/2/244 243/2/243 248/2/248 249/2/249
f 243/2/243 242/2/242 247/2/247 248/2/248
f 245/2/245 244/2/244 249/2/249 250/2/250
f 255/2/255 256/2/256 251/2/251 250/2/250
f 253/2/253 258/2/258 259/2/259 254/2/254
f 256/2/256 272/2/272 273/2/273 251/2/251
f 253/2/253 254/2/254 249/2/249 248/2/248
f 181/2/181 274/2/274 262/2/262
f 262/2/262 274/2/274 275/2/275 263/2/263
f 254/2/254 255/2/255 250/2/250 249/2/249
f 255/2/255 254/2/254 259/2/259 260/2/260
f 256/2/256 255/2/255 260/2/260 261/2/261
f 261/2/261 271/2/271 272/2/272 256/2/256
f 252/2/252 181/2/181 257/2/257
f 260/2/260 265/2/265 266/2/266 261/2/261
f 253/2/253 252/2/252 257/2/257 258/2/258
f 266/2/266 270/2/270 271/2/271 261/2/261
f 257/2/257 181/2/181 262/2/262
f 259/2/259 258/2/258 263/2/263 264/2/264
f 258/2/258 257/2/257 262/2/262 263/2/263
f 260/2/260 259/2/259 264/2/264 265/2/265
f 278/2/278 269/2/269 270/2/270 266/2/266
f 277/2/277 276/2/276 286/2/286 287/2/287
f 275/2/275 276/2/276 264/2/264 263/2/263
f 162/2/162 167/2/167 168/2/168 163/2/163
f 276/2/276 277/2/277 265/2/265 264/2/264
f 277/2/277 278/2/278 266/2/266 265/2/265
f 294/2/294 293/2/293 161/2/161 162/2/162
f 278/2/278 277/2/277 287/2/287 288/2/288
f 286/2/286 285/2/285 294/2/294 295/2/295
f 288/2/288 268/2/268 269/2/269 278/2/278
f 274/2/274 181/2/181 284/2/284
f 276/2/276 275/2/275 285/2/285 286/2/286
f 275/2/275 274/2/274 284/2/284 285/2/285
f 288/2/288 297/2/297 267/2/267 268/2/268
f 285/2/285 284/2/284 293/2/293 294/2/294
f 287/2/287 286/2/286 295/2/295 296/2/296
f 288/2/288 287/2/287 296/2/296 297/2/297
f 296/2/296 295/2/295 163/2/163 164/2/164
f 284/2/284 181/2/181 293/2/293
f 35/1/35 36/1/36 30/1/30
f 17/1/17 158/1/158 159/1/159 11/1/11
f 332/3/332 314/3/314 307/3/307 311/3/311
f 328/3/328 329/3/329 341/3/341 342/3/342
f 331/3/331 316/3/316 309/3/309 312/3/312
f 314/3/314 332/3/332 325/3/325 323/3/323
f 330/3/330 318/3/318 308/3/308 313/3/313
f 327/3/327 321/3/321 316/3/316 331/3/331
f 329/3/329 320/3/320 306/3/306 310/3/310
f 308/3/308 322/3/322 328/3/328 313/3/313
f 335/3/335 334/3/334 320/3/320 322/3/322
f 336/3/336 337/3/337 334/3/334 335/3/335
f 334/3/334 323/3/323 306/3/306 320/3/320
f 316/3/316 321/3/321 337/3/337 336/3/336
f 337/3/337 314/3/314 323/3/323 334/3/334
f 318/3/318 335/3/335 322/3/322 308/3/308
f 307/3/307 321/3/321 327/3/327 311/3/311
f 309/3/309 324/3/324 326/3/326 312/3/312
f 309/3/309 316/3/316 336/3/336 324/3/324
f 328/3/328 322/3/322 320/3/320 329/3/329
f 321/3/321 307/3/307 314/3/314 337/3/337
f 310/3/310 306/3/306 323/3/323 325/3/325
f 326/3/326 330/3/330 340/3/340 344/3/344
f 328/3/328 313/3/313 330/3/330 326/3/326 312/3/312 331/3/331 327/3/327 311/3/311 332/3/332 325/3/325 310/3/310 329/3/329
f 332/3/332 311/3/311 315/3/315 338/3/338
f 324/3/324 336/3/336 335/3/335 318/3/318
f 331/3/331 312/3/312 317/3/317 339/3/339
f 325/3/325 332/3/332 338/3/338 345/3/345
f 330/3/330 313/3/313 319/3/319 340/3/340
f 327/3/327 331/3/331 339/3/339 343/3/343
f 329/3/329 310/3/310 333/3/333 341/3/341
f 313/3/313 328/3/328 342/3/342 319/3/319
f 311/3/311 327/3/327 343/3/343 315/3/315
f 312/3/312 326/3/326 344/3/344 317/3/317
f 333/3/333 310/3/310 325/3/325 345/3/345
f 338/3/338 315/3/315 343/3/343 339/3/339 317/3/317 344/3/344 340/3/340 319/3/319 342/3/342 341/3/341 333/3/333 345/3/345
f 326/3/326 324/3/324 318/3/318 330/3/330
f 371/4/371 356/4/356 349/4/349 352/4/352
f 364/4/364 376/4/376 375/4/375 358/4/358
f 349/4/349 364/4/364 366/4/366 352/4/352
f 370/4/370 358/4/358 348/4/348 353/4/353
f 350/4/350 346/4/346 363/4/363 365/4/365
f 369/4/369 360/4/360 346/4/346 350/4/350
f 347/4/347 361/4/361 367/4/367 351/4/351
f 348/4/348 362/4/362 368/4/368 353/4/353
f 375/4/375 374/4/374 360/4/360 362/4/362
f 376/4/376 377/4/377 374/4/374 375/4/375
f 374/4/374 363/4/363 346/4/346 360/4/360
f 356/4/356 361/4/361 377/4/377 376/4/376
f 377/4/377 354/4/354 363/4/363 374/4/374
f 358/4/358 375/4/375 362/4/362 348/4/348
f 362/4/362 360/4/360 369/4/369 368/4/368
f 361/4/361 356/4/356 371/4/371 367/4/367
f 349/4/349 356/4/356 376/4/376 364/4/364
f 361/4/361 347/4/347 354/4/354 377/4/377
f 364/4/364 358/4/358 370/4/370 366/4/366
f 363/4/363 354/4/354 372/4/372 365/4/365
f 368/4/368 353/4/353 370/4/370 366/4/366 352/4/352 371/4/371 367/4/367 351/4/351 372/4/372 365/4/365 350/4/350 369/4/369
f 372/4/372 351/4/351 355/4/355 378/4/378
f 366/4/366 370/4/370 380/4/380 384/4/384
f 371/4/371 352/4/352 357/4/357 379/4/379
f 365/4/365 372/4/372 378/4/378 385/4/385
f 370/4/370 353/4/353 359/4/359 380/4/380
f 367/4/367 371/4/371 379/4/379 383/4/383
f 369/4/369 350/4/350 373/4/373 381/4/381
f 353/4/353 368/4/368 382/4/382 359/4/359
f 351/4/351 367/4/367 383/4/383 355/4/355
f 352/4/352 366/4/366 384/4/384 357/4/357
f 373/4/373 350/4/350 365/4/365 385/4/385
f 372/4/372 354/4/354 347/4/347 351/4/351
f 368/4/368 369/4/369 381/4/381 382/4/382
f 391/5/391 420/5/420 423/5/423
f 390/5/390 425/5/425 393/5/393
f 395/5/395 424/5/424 427/5/427
f 389/5/389 401/5/401 409/5/409
f 415/5/415 444/5/444 447/5/447
f 414/5/414 449/5/449 417/5/417
f 387/5/387 448/5/448 419/5/419
f 396/5/396 429/5/429 428/5/428
f 400/5/400 433/5/433 432/5/432
f 403/5/403 434/5/434 402/5/402
f 404/5/404 437/5/437 436/5/436
f 407/5/407 438/5/438 406/5/406
f 408/5/408 441/5/441 440/5/440
f 411/5/411 442/5/442 410/5/410
f 387/5/387 418/5/418 386/5/386
f 388/5/388 421/5/421 420/5/420
f 391/5/391 422/5/422 390/5/390
f 392/5/392 425/5/425 424/5/424
f 410/5/410 445/5/445 413/5/413
f 412/5/412 445/5/445 444/5/444
f 415/5/415 446/5/446 414/5/414
f 416/5/416 449/5/449 448/5/448
f 386/5/386 421/5/421 389/5/389
f 394/5/394 429/5/429 397/5/397
f 399/5/399 428/5/428 431/5/431
f 398/5/398 433/5/433 401/5/401
f 403/5/403 432/5/432 435/5/435
f 402/5/402 437/5/437 405/5/405
f 407/5/407 436/5/436 439/5/439
f 406/5/406 441/5/441 409/5/409
f 411/5/411 440/5/440 443/5/443
f 395/5/395 426/5/426 394/5/394
f 418/5/418 450/5/450 451/5/451
f 421/5/421 453/5/453 420/5/420
f 422/5/422 454/5/454 455/5/455
f 425/5/425 457/5/457 424/5/424
f 426/5/426 458/5/458 459/5/459
f 429/5/429 461/5/461 428/5/428
f 430/5/430 462/5/462 463/5/463
f 433/5/433 465/5/465 432/5/432
f 434/5/434 466/5/466 467/5/467
f 437/5/437 469/5/469 436/5/436
f 438/5/438 470/5/470 471/5/471
f 441/5/441 473/5/473 440/5/440
f 442/5/442 474/5/474 475/5/475
f 445/5/445 477/5/477 444/5/444
f 446/5/446 478/5/478 479/5/479
f 449/5/449 481/5/481 448/5/448
f 421/5/421 451/5/451 452/5/452
f 420/5/420 454/5/454 423/5/423
f 425/5/425 455/5/455 456/5/456
f 424/5/424 458/5/458 427/5/427
f 429/5/429 459/5/459 460/5/460
f 428/5/428 462/5/462 431/5/431
f 433/5/433 463/5/463 464/5/464
f 432/5/432 466/5/466 435/5/435
f 437/5/437 467/5/467 468/5/468
f 436/5/436 470/5/470 439/5/439
f 441/5/441 471/5/471 472/5/472
f 440/5/440 474/5/474 443/5/443
f 445/5/445 475/5/475 476/5/476
f 444/5/444 478/5/478 447/5/447
f 449/5/449 479/5/479 480/5/480
f 448/5/448 450/5/450 419/5/419
f 452/5/452 476/5/476 468/5/468
f 487/6/391 516/6/420 519/6/423
f 486/6/390 521/6/425 489/6/482
f 491/6/395 520/6/488 523/6/427
f 485/6/389 497/6/401 505/6/409
f 511/6/415 540/6/444 543/6/447
f 510/6/414 545/6/449 513/6/417
f 483/6/387 544/6/448 515/6/419
f 492/6/483 525/6/429 524/6/428
f 399/5/399 430/5/430 398/5/398
f 496/6/484 529/6/433 528/6/489
f 499/6/403 530/6/434 498/6/402
f 500/6/404 533/6/437 532/6/436
f 503/6/407 534/6/438 502/6/406
f 504/6/408 537/6/441 536/6/440
f 507/6/486 538/6/442 506/6/410
f 483/6/387 514/6/418 482/6/386
f 484/6/388 517/6/421 516/6/420
f 487/6/391 518/6/422 486/6/390
f 488/6/392 521/6/425 520/6/488
f 506/6/410 541/6/490 509/6/487
f 508/6/412 541/6/490 540/6/444
f 511/6/415 542/6/446 510/6/414
f 512/6/416 545/6/449 544/6/448
f 482/6/386 517/6/421 485/6/389
f 490/6/394 525/6/429 493/6/397
f 495/6/399 524/6/428 527/6/431
f 494/6/398 529/6/433 497/6/401
f 499/6/403 528/6/489 531/6/435
f 498/6/402 533/6/437 501/6/485
f 503/6/407 532/6/436 535/6/439
f 502/6/406 537/6/441 505/6/409
f 507/6/486 536/6/440 539/6/443
f 491/6/395 522/6/426 490/6/394
f 514/6/418 546/6/450 547/6/451
f 517/6/421 549/6/453 516/6/420
f 518/6/422 550/6/491 551/6/455
f 521/6/425 553/6/457 520/6/488
f 522/6/426 554/6/458 555/6/459
f 525/6/429 557/6/461 524/6/428
f 526/6/430 558/6/492 559/6/463
f 529/6/433 561/6/465 528/6/489
f 530/6/434 562/6/466 563/6/467
f 533/6/437 565/6/469 532/6/436
f 534/6/438 566/6/493 567/6/471
f 537/6/441 569/6/473 536/6/440
f 538/6/442 570/6/474 571/6/494
f 541/6/490 573/6/477 540/6/444
f 542/6/446 574/6/478 575/6/479
f 545/6/449 577/6/481 544/6/448
f 517/6/421 547/6/451 548/6/452
f 516/6/420 550/6/491 519/6/423
f 521/6/425 551/6/455 552/6/456
f 520/6/488 554/6/458 523/6/427
f 525/6/429 555/6/459 556/6/460
f 524/6/428 558/6/492 527/6/431
f 529/6/433 559/6/463 560/6/464
f 528/6/489 562/6/466 531/6/435
f 533/6/437 563/6/467 564/6/468
f 532/6/436 566/6/493 535/6/439
f 537/6/441 567/6/471 568/6/472
f 536/6/440 570/6/474 539/6/443
f 541/6/490 571/6/494 572/6/476
f 540/6/444 574/6/478 543/6/447
f 545/6/449 575/6/479 576/6/480
f 544/6/448 546/6/450 515/6/419
f 564/6/468 556/6/460 548/6/452
f 495/6/399 526/6/430 494/6/398
f 391/5/391 388/5/388 420/5/420
f 390/5/390 422/5/422 425/5/425
f 395/5/395 392/5/392 424/5/424
f 416/5/416 387/5/387 386/5/386
f 389/5/389 388/5/388 393/5/393
f 388/5/388 391/5/391 390/5/390
f 416/5/416 386/5/386 417/5/417
f 386/5/386 389/5/389 417/5/417
f 415/5/415 414/5/414 412/5/412
f 414/5/414 417/5/417 413/5/413
f 388/5/388 390/5/390 393/5/393
f 393/5/393 392/5/392 397/5/397
f 392/5/392 395/5/395 394/5/394
f 397/5/397 392/5/392 394/5/394
f 414/5/414 413/5/413 412/5/412
f 417/5/417 389/5/389 413/5/413
f 411/5/411 410/5/410 408/5/408
f 410/5/410 413/5/413 409/5/409
f 409/5/409 408/5/408 410/5/410
f 407/5/407 406/5/406 404/5/404
f 406/5/406 409/5/409 405/5/405
f 405/5/405 404/5/404 406/5/406
f 403/5/403 402/5/402 400/5/400
f 402/5/402 405/5/405 400/5/400
f 401/5/401 400/5/400 405/5/405
f 399/5/399 398/5/398 396/5/396
f 398/5/398 401/5/401 396/5/396
f 397/5/397 396/5/396 401/5/401
f 389/5/389 393/5/393 397/5/397
f 409/5/409 413/5/413 389/5/389
f 401/5/401 405/5/405 409/5/409
f 389/5/389 397/5/397 401/5/401
f 415/5/415 412/5/412 444/5/444
f 414/5/414 446/5/446 449/5/449
f 387/5/387 416/5/416 448/5/448
f 396/5/396 397/5/397 429/5/429
f 400/5/400 401/5/401 433/5/433
f 403/5/403 435/5/435 434/5/434
f 404/5/404 405/5/405 437/5/437
f 407/5/407 439/5/439 438/5/438
f 408/5/408 409/5/409 441/5/441
f 411/5/411 443/5/443 442/5/442
f 387/5/387 419/5/419 418/5/418
f 388/5/388 389/5/389 421/5/421
f 391/5/391 423/5/423 422/5/422
f 392/5/392 393/5/393 425/5/425
f 410/5/410 442/5/442 445/5/445
f 412/5/412 413/5/413 445/5/445
f 415/5/415 447/5/447 446/5/446
f 416/5/416 417/5/417 449/5/449
f 386/5/386 418/5/418 421/5/421
f 394/5/394 426/5/426 429/5/429
f 399/5/399 396/5/396 428/5/428
f 398/5/398 430/5/430 433/5/433
f 403/5/403 400/5/400 432/5/432
f 402/5/402 434/5/434 437/5/437
f 407/5/407 404/5/404 436/5/436
f 406/5/406 438/5/438 441/5/441
f 411/5/411 408/5/408 440/5/440
f 395/5/395 427/5/427 426/5/426
f 418/5/418 419/5/419 450/5/450
f 421/5/421 452/5/452 453/5/453
f 422/5/422 423/5/423 454/5/454
f 425/5/425 456/5/456 457/5/457
f 426/5/426 427/5/427 458/5/458
f 429/5/429 460/5/460 461/5/461
f 430/5/430 431/5/431 462/5/462
f 433/5/433 464/5/464 465/5/465
f 434/5/434 435/5/435 466/5/466
f 437/5/437 468/5/468 469/5/469
f 438/5/438 439/5/439 470/5/470
f 441/5/441 472/5/472 473/5/473
f 442/5/442 443/5/443 474/5/474
f 445/5/445 476/5/476 477/5/477
f 446/5/446 447/5/447 478/5/478
f 449/5/449 480/5/480 481/5/481
f 421/5/421 418/5/418 451/5/451
f 420/5/420 453/5/453 454/5/454
f 425/5/425 422/5/422 455/5/455
f 424/5/424 457/5/457 458/5/458
f 429/5/429 426/5/426 459/5/459
f 428/5/428 461/5/461 462/5/462
f 433/5/433 430/5/430 463/5/463
f 432/5/432 465/5/465 466/5/466
f 437/5/437 434/5/434 467/5/467
f 436/5/436 469/5/469 470/5/470
f 441/5/441 438/5/438 471/5/471
f 440/5/440 473/5/473 474/5/474
f 445/5/445 442/5/442 475/5/475
f 444/5/444 477/5/477 478/5/478
f 449/5/449 446/5/446 479/5/479
f 448/5/448 481/5/481 450/5/450
f 452/5/452 451/5/451 480/5/480
f 451/5/451 450/5/450 481/5/481
f 480/5/480 451/5/451 481/5/481
f 480/5/480 479/5/479 476/5/476
f 479/5/479 478/5/478 477/5/477
f 476/5/476 479/5/479 477/5/477
f 476/5/476 475/5/475 472/5/472
f 475/5/475 474/5/474 473/5/473
f 472/5/472 475/5/475 473/5/473
f 472/5/472 471/5/471 468/5/468
f 471/5/471 470/5/470 469/5/469
f 468/5/468 471/5/471 469/5/469
f 468/5/468 467/5/467 465/5/465
f 467/5/467 466/5/466 465/5/465
f 465/5/465 464/5/464 468/5/468
f 464/5/464 463/5/463 461/5/461
f 463/5/463 462/5/462 461/5/461
f 461/5/461 460/5/460 464/5/464
f 460/5/460 459/5/459 457/5/457
f 459/5/459 458/5/458 457/5/457
f 457/5/457 456/5/456 460/5/460
f 456/5/456 455/5/455 453/5/453
f 455/5/455 454/5/454 453/5/453
f 453/5/453 452/5/452 456/5/456
f 452/5/452 480/5/480 476/5/476
f 476/5/476 472/5/472 468/5/468
f 468/5/468 464/5/464 452/5/452
f 464/5/464 460/5/460 452/5/452
f 460/5/460 456/5/456 452/5/452
f 487/6/391 484/6/388 516/6/420
f 486/6/390 518/6/422 521/6/425
f 491/6/395 488/6/392 520/6/488
f 512/6/416 483/6/387 482/6/386
f 485/6/389 484/6/388 489/6/482
f 484/6/388 487/6/391 486/6/390
f 512/6/416 482/6/386 513/6/417
f 482/6/386 485/6/389 513/6/417
f 511/6/415 510/6/414 508/6/412
f 510/6/414 513/6/417 509/6/487
f 484/6/388 486/6/390 489/6/482
f 489/6/482 488/6/392 493/6/397
f 488/6/392 491/6/395 490/6/394
f 493/6/397 488/6/392 490/6/394
f 510/6/414 509/6/487 508/6/412
f 513/6/417 485/6/389 509/6/487
f 507/6/486 506/6/410 504/6/408
f 506/6/410 509/6/487 505/6/409
f 505/6/409 504/6/408 506/6/410
f 503/6/407 502/6/406 500/6/404
f 502/6/406 505/6/409 501/6/485
f 501/6/485 500/6/404 502/6/406
f 499/6/403 498/6/402 496/6/484
f 498/6/402 501/6/485 496/6/484
f 497/6/401 496/6/484 501/6/485
f 495/6/399 494/6/398 492/6/483
f 494/6/398 497/6/401 492/6/483
f 493/6/397 492/6/483 497/6/401
f 485/6/389 489/6/482 493/6/397
f 505/6/409 509/6/487 485/6/389
f 497/6/401 501/6/485 505/6/409
f 485/6/389 493/6/397 497/6/401
f 511/6/415 508/6/412 540/6/444
f 510/6/414 542/6/446 545/6/449
f 483/6/387 512/6/416 544/6/448
f 492/6/483 493/6/397 525/6/429
f 399/5/399 431/5/431 430/5/430
f 496/6/484 497/6/401 529/6/433
f 499/6/403 531/6/435 530/6/434
f 500/6/404 501/6/485 533/6/437
f 503/6/407 535/6/439 534/6/438
f 504/6/408 505/6/409 537/6/441
f 507/6/486 539/6/443 538/6/442
f 483/6/387 515/6/419 514/6/418
f 484/6/388 485/6/389 517/6/421
f 487/6/391 519/6/423 518/6/422
f 488/6/392 489/6/482 521/6/425
f 506/6/410 538/6/442 541/6/490
f 508/6/412 509/6/487 541/6/490
f 511/6/415 543/6/447 542/6/446
f 512/6/416 513/6/417 545/6/449
f 482/6/386 514/6/418 517/6/421
f 490/6/394 522/6/426 525/6/429
f 495/6/399 492/6/483 524/6/428
f 494/6/398 526/6/430 529/6/433
f 499/6/403 496/6/484 528/6/489
f 498/6/402 530/6/434 533/6/437
f 503/6/407 500/6/404 532/6/436
f 502/6/406 534/6/438 537/6/441
f 507/6/486 504/6/408 536/6/440
f 491/6/395 523/6/427 522/6/426
f 514/6/418 515/6/419 546/6/450
f 517/6/421 548/6/452 549/6/453
f 518/6/422 519/6/423 550/6/491
f 521/6/425 552/6/456 553/6/457
f 522/6/426 523/6/427 554/6/458
f 525/6/429 556/6/460 557/6/461
f 526/6/430 527/6/431 558/6/492
f 529/6/433 560/6/464 561/6/465
f 530/6/434 531/6/435 562/6/466
f 533/6/437 564/6/468 565/6/469
f 534/6/438 535/6/439 566/6/493
f 537/6/441 568/6/472 569/6/473
f 538/6/442 539/6/443 570/6/474
f 541/6/490 572/6/476 573/6/477
f 542/6/446 543/6/447 574/6/478
f 545/6/449 576/6/480 577/6/481
f 517/6/421 514/6/418 547/6/451
f 516/6/420 549/6/453 550/6/491
f 521/6/425 518/6/422 551/6/455
f 520/6/488 553/6/457 554/6/458
f 525/6/429 522/6/426 555/6/459
f 524/6/428 557/6/461 558/6/492
f 529/6/433 526/6/430 559/6/463
f 528/6/489 561/6/465 562/6/466
f 533/6/437 530/6/434 563/6/467
f 532/6/436 565/6/469 566/6/493
f 537/6/441 534/6/438 567/6/471
f 536/6/440 569/6/473 570/6/474
f 541/6/490 538/6/442 571/6/494
f 540/6/444 573/6/477 574/6/478
f 545/6/449 542/6/446 575/6/479
f 544/6/448 577/6/481 546/6/450
f 548/6/452 547/6/451 576/6/480
f 547/6/451 546/6/450 577/6/481
f 576/6/480 547/6/451 577/6/481
f 576/6/480 575/6/479 572/6/476
f 575/6/479 574/6/478 573/6/477
f 572/6/476 575/6/479 573/6/477
f 572/6/476 571/6/494 568/6/472
f 571/6/494 570/6/474 569/6/473
f 568/6/472 571/6/494 569/6/473
f 568/6/472 567/6/471 564/6/468
f 567/6/471 566/6/493 565/6/469
f 564/6/468 567/6/471 565/6/469
f 564/6/468 563/6/467 561/6/465
f 563/6/467 562/6/466 561/6/465
f 561/6/465 560/6/464 564/6/468
f 560/6/464 559/6/463 557/6/461
f 559/6/463 558/6/492 557/6/461
f 557/6/461 556/6/460 560/6/464
f 556/6/460 555/6/459 553/6/457
f 555/6/459 554/6/458 553/6/457
f 553/6/457 552/6/456 556/6/460
f 552/6/456 551/6/455 549/6/453
f 551/6/455 550/6/491 549/6/453
f 549/6/453 548/6/452 552/6/456
f 548/6/452 576/6/480 572/6/476
f 572/6/476 568/6/472 548/6/452
f 568/6/472 564/6/468 548/6/452
f 564/6/468 560/6/464 556/6/460
f 556/6/460 552/6/456 548/6/452
f 495/6/399 527/6/431 526/6/430
