# Blender 4.1.0
# www.blender.org
mtllib cactus_small.mtl
o cactus_small
v -0.213915 0.535497 0.214941
v -0.198606 0.511693 0.137976
v -0.172131 0.421015 0.004875
v -0.154440 0.285306 -0.084061
v -0.148228 0.125227 -0.115290
v -0.204163 0.480944 0.232998
v -0.179476 0.461375 0.173399
v -0.136782 0.386830 0.070328
v -0.108255 0.275267 0.001457
v -0.098238 0.143668 -0.022726
v -0.184497 0.535497 0.227126
v -0.140901 0.511693 0.161879
v -0.065505 0.421015 0.049041
v -0.015127 0.285306 -0.026354
v 0.002563 0.125227 -0.052830
v -0.161982 0.535497 0.249640
v -0.096735 0.511693 0.206044
v 0.016103 0.421015 0.130650
v 0.091498 0.285306 0.080271
v 0.117974 0.125227 0.062581
v -0.229836 0.537358 0.294980
v -0.167855 0.480944 0.269306
v -0.108255 0.461375 0.244620
v -0.005183 0.386830 0.201926
v 0.063687 0.275267 0.173399
v 0.087871 0.143668 0.163383
v -0.149796 0.535497 0.279059
v -0.072832 0.511693 0.263750
v 0.060268 0.421015 0.237274
v 0.149204 0.285306 0.219584
v 0.180434 0.125227 0.213372
v -0.149796 0.535497 0.310901
v -0.072832 0.511693 0.326210
v 0.060268 0.421015 0.352686
v 0.149204 0.285306 0.370376
v 0.180434 0.125227 0.376588
v -0.167855 0.480944 0.320654
v -0.108255 0.461375 0.345341
v -0.005183 0.386830 0.388034
v 0.063687 0.275267 0.416561
v 0.087871 0.143668 0.426579
v -0.161982 0.535497 0.340320
v -0.096735 0.511693 0.383916
v 0.016103 0.421015 0.459311
v 0.091498 0.285306 0.509689
v 0.117974 0.125227 0.527380
v -0.184497 0.535497 0.362834
v -0.140901 0.511693 0.428082
v -0.065505 0.421015 0.540919
v -0.015127 0.285306 0.616316
v 0.002563 0.125227 0.642791
v -0.204163 0.480944 0.356961
v -0.179476 0.461375 0.416561
v -0.136782 0.386830 0.519633
v -0.108255 0.275267 0.588503
v -0.098238 0.143668 0.612687
v -0.213915 0.535497 0.375020
v -0.198606 0.511693 0.451983
v -0.172131 0.421015 0.585085
v -0.154440 0.285306 0.674021
v -0.148229 0.125227 0.705251
v -0.245757 0.535497 0.375020
v -0.261066 0.511693 0.451983
v -0.287542 0.421015 0.585085
v -0.305232 0.285306 0.674021
v -0.311444 0.125227 0.705251
v -0.255510 0.480944 0.356961
v -0.280197 0.461375 0.416561
v -0.322890 0.386830 0.519633
v -0.351418 0.275267 0.588503
v -0.361435 0.143668 0.612687
v -0.275175 0.535497 0.362834
v -0.318772 0.511693 0.428082
v -0.394167 0.421015 0.540919
v -0.444545 0.285306 0.616315
v -0.462236 0.125227 0.642791
v -0.297691 0.535497 0.340320
v -0.362937 0.511693 0.383916
v -0.475775 0.421015 0.459311
v -0.551171 0.285306 0.509689
v -0.577647 0.125227 0.527380
v -0.291818 0.480944 0.320654
v -0.351418 0.461375 0.345341
v -0.454489 0.386830 0.388034
v -0.523359 0.275267 0.416561
v -0.547543 0.143668 0.426579
v -0.309876 0.535497 0.310901
v -0.386840 0.511693 0.326210
v -0.519941 0.421015 0.352686
v -0.608877 0.285306 0.370376
v -0.640106 0.125227 0.376588
v -0.309876 0.535497 0.279059
v -0.386840 0.511693 0.263750
v -0.519941 0.421015 0.237274
v -0.608877 0.285306 0.219584
v -0.640106 0.125227 0.213372
v -0.291818 0.480944 0.269307
v -0.351418 0.461375 0.244620
v -0.454489 0.386830 0.201926
v -0.523359 0.275267 0.173399
v -0.547543 0.143668 0.163382
v -0.297691 0.535497 0.249640
v -0.362937 0.511693 0.206044
v -0.475775 0.421015 0.130650
v -0.551171 0.285306 0.080271
v -0.577646 0.125227 0.062581
v -0.302738 -0.007629 -0.071524
v -0.347396 -0.007629 0.011166
v -0.437444 -0.007629 -0.015726
v -0.540543 -0.007629 0.087373
v -0.513651 -0.007629 0.177421
v -0.596340 -0.007629 0.222078
v -0.596340 -0.007629 0.367882
v -0.275175 0.535497 0.227126
v -0.318772 0.511693 0.161879
v -0.394167 0.421015 0.049041
v -0.444545 0.285306 -0.026354
v -0.462235 0.125227 -0.052830
v -0.513651 -0.007629 0.412539
v -0.540543 -0.007629 0.502587
v -0.437444 -0.007629 0.605686
v -0.347396 -0.007629 0.578794
v -0.302738 -0.007629 0.661484
v -0.255510 0.480944 0.232998
v -0.280197 0.461375 0.173399
v -0.322890 0.386830 0.070328
v -0.351418 0.275267 0.001457
v -0.361434 0.143668 -0.022726
v -0.156934 -0.007629 0.661484
v -0.112277 -0.007629 0.578794
v -0.022229 -0.007629 0.605686
v 0.080871 -0.007629 0.502587
v -0.245757 0.535497 0.214941
v -0.261066 0.511693 0.137977
v -0.287542 0.421015 0.004875
v -0.305232 0.285306 -0.084061
v -0.311444 0.125227 -0.115290
v 0.053978 -0.007629 0.412539
v 0.136667 -0.007629 0.367882
v 0.136667 -0.007629 0.222078
v 0.053978 -0.007629 0.177421
v 0.080871 -0.007629 0.087373
v -0.022228 -0.007629 -0.015727
v -0.112277 -0.007629 0.011166
v -0.156934 -0.007629 -0.071524
v 0.087922 0.131738 -0.318871
v 0.190528 0.123916 -0.630464
v 0.412979 0.126239 -0.193274
v 0.569247 0.117344 -0.493649
v 0.069689 0.109505 -0.311139
v 0.179871 0.100981 -0.652914
v 0.596843 0.093723 -0.503515
v 0.420614 0.103568 -0.175547
v 0.139508 0.128219 -0.572842
v 0.179523 -0.000488 -0.647530
v 0.504173 0.120079 -0.545615
v 0.589978 -0.007628 -0.500261
v 0.462999 0.126482 -0.232219
v 0.417192 0.002054 -0.176969
v 0.145402 0.133202 -0.277211
v 0.269872 0.124157 -0.629550
v 0.342495 0.129868 -0.201057
v 0.077634 0.133007 -0.380811
v 0.562082 0.120950 -0.416468
v 0.040293 0.108748 -0.394855
v 0.603831 0.095357 -0.399683
v 0.285832 0.098218 -0.667933
v 0.327507 0.105793 -0.173988
v 0.137584 0.109007 -0.247371
v 0.499496 0.100973 -0.217792
v 0.521163 0.094097 -0.585056
v 0.099222 0.104040 -0.586239
v 0.070605 0.007918 -0.310883
v 0.156661 0.136028 -0.344453
v 0.379905 0.132248 -0.258370
v 0.474202 0.126557 -0.458288
v 0.228713 0.130782 -0.549019
v 0.101938 0.001804 -0.582696
v 0.516547 -0.007918 -0.578713
v 0.492952 -0.001113 -0.218207
v 0.136673 0.006759 -0.249391
v 0.326947 0.003540 -0.175872
v 0.282013 -0.003814 -0.661485
v 0.596340 -0.006703 -0.399876
v 0.042811 0.006508 -0.391774
v -0.175716 0.543810 0.097989
v -0.132416 0.553206 0.094618
v -0.251635 0.543810 0.095265
v -0.214419 0.527375 0.117167
v -0.322816 0.543810 0.121800
v -0.294582 0.553206 0.088799
v -0.378424 0.543810 0.173557
v -0.336490 0.527375 0.162672
v -0.409994 0.543810 0.242654
v -0.413365 0.553206 0.199353
v -0.412718 0.543810 0.318572
v -0.390628 0.527375 0.281167
v -0.386181 0.543810 0.389753
v -0.419184 0.553206 0.361520
v -0.334425 0.543810 0.445361
v -0.345121 0.527375 0.403237
v -0.265329 0.543810 0.476931
v -0.308630 0.553206 0.480303
v -0.189411 0.543810 0.479654
v -0.226626 0.538606 0.457376
v -0.118229 0.543810 0.453118
v -0.146463 0.553206 0.486120
v -0.062621 0.543810 0.401363
v -0.104556 0.527375 0.411870
v -0.031052 0.543810 0.332267
v -0.027680 0.553206 0.375567
v -0.028328 0.543810 0.256349
v -0.050418 0.527375 0.293374
v -0.054864 0.543810 0.185166
v -0.021862 0.553206 0.213401
v -0.106620 0.543810 0.129559
v -0.095924 0.527375 0.171305
v -0.176484 0.609583 0.101233
v -0.134473 0.617945 0.099120
v -0.251102 0.609583 0.098557
v -0.214456 0.587429 0.118196
v -0.321064 0.609583 0.124639
v -0.292853 0.617945 0.093438
v -0.375720 0.609583 0.175508
v -0.335798 0.587432 0.163432
v -0.406749 0.609583 0.243422
v -0.408863 0.617945 0.201410
v -0.409426 0.609583 0.318039
v -0.389614 0.587438 0.281220
v -0.383345 0.609583 0.388001
v -0.414545 0.617945 0.359790
v -0.332475 0.609583 0.442657
v -0.344378 0.587444 0.402563
v -0.264562 0.609583 0.473685
v -0.306572 0.617945 0.475800
v -0.189944 0.609583 0.476363
v -0.226635 0.587955 0.457618
v -0.119981 0.609583 0.450281
v -0.148192 0.617945 0.481483
v -0.065326 0.609583 0.399412
v -0.105248 0.587444 0.411143
v -0.034297 0.609583 0.331499
v -0.032183 0.617945 0.373509
v -0.031619 0.609583 0.256881
v -0.051433 0.587438 0.293355
v -0.057701 0.609583 0.186918
v -0.026500 0.617945 0.215130
v -0.108571 0.609583 0.132263
v -0.096668 0.587432 0.172012
v -0.152105 0.627272 0.137711
v -0.174968 0.625639 0.139510
v -0.216537 0.617866 0.176209
v -0.255357 0.625639 0.136625
v -0.278032 0.627272 0.133193
v -0.292927 0.625639 0.150631
v -0.296260 0.617866 0.205930
v -0.351810 0.625639 0.205437
v -0.370272 0.627272 0.219042
v -0.368473 0.625639 0.241904
v -0.331618 0.617866 0.283319
v -0.371357 0.625639 0.322294
v -0.374790 0.627272 0.344970
v -0.357351 0.625639 0.359864
v -0.301898 0.617866 0.363042
v -0.302547 0.625639 0.418748
v -0.288941 0.627272 0.437209
v -0.266078 0.625639 0.435410
v -0.224509 0.617866 0.398399
v -0.185688 0.625639 0.438293
v -0.163013 0.627272 0.441728
v -0.148119 0.625639 0.424289
v -0.144786 0.617866 0.368679
v -0.089235 0.625639 0.369484
v -0.070774 0.627272 0.355879
v -0.072573 0.625639 0.333014
v -0.109428 0.617866 0.291290
v -0.069689 0.625639 0.252625
v -0.066256 0.627272 0.229950
v -0.083694 0.625639 0.215057
v -0.139148 0.617866 0.211567
v -0.138499 0.625639 0.156172
vn 0.5708 0.8210 -0.0112
vn 0.5295 0.8066 -0.2627
vn 0.4900 0.6576 -0.5723
vn 0.4880 0.3586 -0.7958
vn 0.4926 -0.0606 -0.8681
vn 0.2146 0.8280 -0.5181
vn 0.2289 0.8014 -0.5525
vn 0.2944 0.6390 -0.7106
vn 0.3572 0.3587 -0.8624
vn 0.3826 -0.0154 -0.9238
vn -0.3957 0.8210 -0.4115
vn -0.1886 0.8066 -0.5602
vn 0.0582 0.6576 -0.7511
vn 0.2176 0.3586 -0.9078
vn 0.2655 -0.0606 -0.9622
vn 0.4115 0.8210 0.3957
vn 0.5602 0.8066 0.1886
vn 0.7511 0.6576 -0.0582
vn 0.9078 0.3586 -0.2177
vn 0.9622 -0.0606 -0.2655
vn -0.0000 1.0000 -0.0000
vn 0.5181 0.8280 -0.2146
vn 0.5525 0.8015 -0.2289
vn 0.7106 0.6390 -0.2944
vn 0.8624 0.3587 -0.3572
vn 0.9238 -0.0154 -0.3826
vn 0.0112 0.8210 -0.5708
vn 0.2627 0.8066 -0.5295
vn 0.5723 0.6576 -0.4900
vn 0.7958 0.3586 -0.4880
vn 0.8681 -0.0606 -0.4926
vn 0.0112 0.8210 0.5708
vn 0.2627 0.8066 0.5295
vn 0.5723 0.6576 0.4900
vn 0.7958 0.3586 0.4880
vn 0.8681 -0.0606 0.4926
vn 0.5181 0.8280 0.2146
vn 0.5525 0.8015 0.2289
vn 0.7106 0.6390 0.2944
vn 0.8624 0.3587 0.3572
vn 0.9238 -0.0154 0.3826
vn 0.4116 0.8210 -0.3957
vn 0.5602 0.8066 -0.1886
vn 0.7511 0.6576 0.0582
vn 0.9078 0.3586 0.2176
vn 0.9622 -0.0606 0.2655
vn -0.3957 0.8210 0.4116
vn -0.1886 0.8066 0.5602
vn 0.0582 0.6576 0.7511
vn 0.2176 0.3586 0.9078
vn 0.2655 -0.0606 0.9622
vn 0.2146 0.8280 0.5181
vn 0.2289 0.8015 0.5525
vn 0.2944 0.6390 0.7106
vn 0.3572 0.3587 0.8624
vn 0.3826 -0.0154 0.9238
vn 0.5708 0.8210 0.0112
vn 0.5295 0.8066 0.2627
vn 0.4900 0.6576 0.5723
vn 0.4880 0.3586 0.7958
vn 0.4926 -0.0606 0.8681
vn -0.5708 0.8210 0.0112
vn -0.5295 0.8066 0.2627
vn -0.4900 0.6576 0.5723
vn -0.4880 0.3586 0.7958
vn -0.4926 -0.0606 0.8681
vn -0.2146 0.8280 0.5181
vn -0.2289 0.8015 0.5525
vn -0.2944 0.6390 0.7106
vn -0.3572 0.3587 0.8624
vn -0.3826 -0.0154 0.9238
vn 0.3957 0.8210 0.4115
vn 0.1886 0.8066 0.5602
vn -0.0582 0.6576 0.7511
vn -0.2176 0.3586 0.9078
vn -0.2655 -0.0606 0.9622
vn -0.4116 0.8210 -0.3957
vn -0.5602 0.8066 -0.1886
vn -0.7511 0.6576 0.0582
vn -0.9078 0.3586 0.2176
vn -0.9622 -0.0606 0.2655
vn -0.5181 0.8280 0.2146
vn -0.5525 0.8015 0.2289
vn -0.7106 0.6390 0.2944
vn -0.8624 0.3587 0.3572
vn -0.9238 -0.0154 0.3826
vn -0.0112 0.8210 0.5708
vn -0.2627 0.8066 0.5295
vn -0.5723 0.6576 0.4900
vn -0.7958 0.3586 0.4880
vn -0.8681 -0.0606 0.4926
vn -0.0112 0.8210 -0.5708
vn -0.2627 0.8066 -0.5295
vn -0.5723 0.6576 -0.4900
vn -0.7958 0.3586 -0.4880
vn -0.8681 -0.0606 -0.4926
vn -0.5181 0.8280 -0.2146
vn -0.5525 0.8015 -0.2289
vn -0.7106 0.6390 -0.2944
vn -0.8624 0.3587 -0.3572
vn -0.9238 -0.0154 -0.3826
vn -0.4115 0.8210 0.3957
vn -0.5602 0.8066 0.1886
vn -0.7511 0.6576 -0.0582
vn -0.9078 0.3586 -0.2176
vn -0.9622 -0.0606 -0.2655
vn -0.5322 -0.2893 -0.7957
vn -0.3706 -0.2491 -0.8947
vn -0.1863 -0.2893 -0.9389
vn -0.9389 -0.2893 -0.1863
vn -0.8947 -0.2492 -0.3706
vn -0.7957 -0.2893 -0.5322
vn -0.7957 -0.2893 0.5322
vn 0.3957 0.8210 -0.4115
vn 0.1886 0.8066 -0.5602
vn -0.0582 0.6576 -0.7511
vn -0.2176 0.3586 -0.9078
vn -0.2655 -0.0606 -0.9622
vn -0.8947 -0.2492 0.3706
vn -0.9389 -0.2893 0.1863
vn -0.1863 -0.2893 0.9389
vn -0.3706 -0.2492 0.8947
vn -0.5322 -0.2893 0.7957
vn -0.2146 0.8280 -0.5181
vn -0.2289 0.8014 -0.5525
vn -0.2944 0.6390 -0.7106
vn -0.3572 0.3587 -0.8624
vn -0.3826 -0.0154 -0.9238
vn 0.5322 -0.2893 0.7957
vn 0.3706 -0.2492 0.8947
vn 0.1863 -0.2893 0.9389
vn 0.9389 -0.2893 0.1863
vn -0.5708 0.8210 -0.0112
vn -0.5295 0.8066 -0.2627
vn -0.4900 0.6576 -0.5723
vn -0.4880 0.3586 -0.7958
vn -0.4926 -0.0606 -0.8681
vn 0.8947 -0.2492 0.3706
vn 0.7957 -0.2893 0.5322
vn 0.7957 -0.2893 -0.5322
vn 0.8947 -0.2492 -0.3706
vn 0.9389 -0.2893 -0.1863
vn 0.1863 -0.2893 -0.9389
vn 0.3706 -0.2491 -0.8947
vn 0.5322 -0.2893 -0.7957
vn -0.3793 0.8894 0.2552
vn -0.1452 0.9080 -0.3930
vn 0.1340 0.8808 0.4542
vn 0.3678 0.9142 -0.1704
vn -0.6052 0.6970 0.3846
vn -0.2689 0.7036 -0.6577
vn 0.6544 0.7005 -0.2847
vn 0.2077 0.6839 0.6994
vn -0.2612 0.9400 -0.2193
vn -0.4041 -0.0498 -0.9134
vn 0.2032 0.9370 -0.2841
vn 0.9152 -0.0767 -0.3957
vn 0.2710 0.9249 0.2668
vn 0.2510 -0.0245 0.9677
vn -0.2101 0.9171 0.3389
vn 0.0466 0.9333 -0.3561
vn -0.0455 0.9143 0.4026
vn -0.3584 0.9335 0.0121
vn 0.3374 0.9400 0.0504
vn -0.6855 0.7279 -0.0165
vn 0.6809 0.7172 0.1482
vn 0.0959 0.7162 -0.6913
vn -0.1220 0.7046 0.6990
vn -0.3592 0.7085 0.6075
vn 0.5143 0.7148 0.4739
vn 0.3831 0.7154 -0.5843
vn -0.5649 0.7282 -0.3881
vn -0.8378 -0.0087 0.5459
vn -0.0137 0.9999 0.0062
vn 0.0346 0.9991 0.0256
vn 0.0531 0.9981 -0.0297
vn 0.0086 0.9987 -0.0494
vn -0.8307 -0.0392 -0.5553
vn 0.5462 -0.0751 -0.8343
vn 0.6954 -0.0478 0.7170
vn -0.5319 -0.0110 0.8468
vn -0.1755 -0.0161 0.9843
vn 0.0977 -0.0655 -0.9931
vn 0.9719 -0.0690 0.2250
vn -0.9995 -0.0234 0.0198
vn 0.0964 0.4916 0.8654
vn -0.3814 0.3972 0.8347
vn -0.1582 0.4916 0.8563
vn -0.0210 0.8106 0.5852
vn 0.6809 0.4915 0.5430
vn 0.3206 0.3972 0.8599
vn 0.4935 0.4921 0.7172
vn 0.3989 0.8109 0.4282
vn 0.8651 0.4918 -0.0990
vn 0.8347 0.3972 0.3814
vn 0.8555 0.4927 0.1592
vn 0.5840 0.8115 0.0205
vn 0.5406 0.4923 -0.6822
vn 0.8599 0.3972 -0.3206
vn 0.6975 0.5275 -0.4851
vn 0.4109 0.8134 -0.4118
vn -0.1399 0.6074 -0.7820
vn 0.3814 0.3972 -0.8347
vn 0.1955 0.6074 -0.7699
vn 0.0233 0.7605 -0.6489
vn -0.6610 0.5274 -0.5337
vn -0.3206 0.3972 -0.8599
vn -0.4903 0.4924 -0.7192
vn -0.3803 0.8134 -0.4401
vn -0.8647 0.4927 0.0976
vn -0.8347 0.3972 -0.3814
vn -0.8557 0.4918 -0.1609
vn -0.5838 0.8116 -0.0214
vn -0.5436 0.4921 0.6800
vn -0.8599 0.3972 0.3206
vn -0.7181 0.4915 0.4927
vn -0.4286 0.8109 0.3985
vn 0.3482 -0.5465 0.7616
vn -0.3257 -0.6212 0.7128
vn -0.4020 -0.5465 0.7347
vn -0.0313 -0.4918 0.8701
vn 0.7852 -0.5463 0.2915
vn 0.2737 -0.6212 0.7343
vn 0.2356 -0.5465 0.8036
vn 0.5944 -0.4921 0.6360
vn 0.7612 -0.5459 -0.3500
vn 0.7128 -0.6212 0.3257
vn 0.7349 -0.5463 0.4019
vn 0.8698 -0.4927 0.0286
vn 0.2906 -0.5457 -0.7860
vn 0.7343 -0.6212 -0.2737
vn 0.8043 -0.5460 -0.2348
vn 0.6354 -0.4933 -0.5941
vn -0.3413 -0.5486 -0.7632
vn 0.3256 -0.6212 -0.7128
vn 0.3951 -0.5486 -0.7368
vn 0.0312 -0.4901 -0.8711
vn -0.7854 -0.5459 -0.2917
vn -0.2737 -0.6212 -0.7343
vn -0.2335 -0.5457 -0.8048
vn -0.5913 -0.4933 -0.6380
vn -0.7618 -0.5463 0.3482
vn -0.7128 -0.6212 -0.3256
vn -0.7342 -0.5459 -0.4037
vn -0.8695 -0.4927 -0.0339
vn -0.2926 -0.5465 0.7846
vn -0.7343 -0.6212 0.2737
vn -0.8041 -0.5463 0.2344
vn -0.6386 -0.4921 0.5917
vn -0.0526 -0.9919 0.1152
vn 0.2500 -0.9518 0.1776
vn -0.0027 -0.9971 0.0760
vn -0.2621 -0.9518 0.1592
vn 0.0443 -0.9919 0.1187
vn 0.3029 -0.9516 -0.0516
vn 0.0519 -0.9971 0.0554
vn -0.0724 -0.9519 0.2976
vn 0.1152 -0.9919 0.0526
vn 0.1778 -0.9514 -0.2513
vn 0.0757 -0.9971 0.0024
vn 0.1594 -0.9519 0.2618
vn 0.1187 -0.9919 -0.0443
vn -0.0520 -0.9514 -0.3036
vn 0.0552 -0.9971 -0.0516
vn 0.2983 -0.9517 0.0727
vn 0.0526 -0.9919 -0.1152
vn -0.2467 -0.9529 -0.1764
vn 0.0025 -0.9975 -0.0712
vn 0.2586 -0.9529 -0.1583
vn -0.0443 -0.9919 -0.1187
vn -0.3028 -0.9517 0.0512
vn -0.0513 -0.9971 -0.0554
vn 0.0736 -0.9514 -0.2991
vn -0.1152 -0.9919 -0.0527
vn -0.1778 -0.9519 0.2497
vn -0.0757 -0.9971 -0.0030
vn -0.1594 -0.9514 -0.2634
vn -0.1187 -0.9919 0.0443
vn 0.0509 -0.9519 0.3021
vn -0.0557 -0.9971 0.0516
vn -0.2985 -0.9516 -0.0732
vt 0.570093 0.253283
vt 0.053640 0.621034
vt 0.250065 0.427319
s 1
usemtl BASE_MATERIAL
f 21/1/21 16/1/16 11/1/11
f 135/1/135 134/1/134 2/1/2 3/1/3
f 11/1/11 16/1/16 17/1/17 12/1/12
f 133/1/133 21/1/21 1/1/1
f 136/1/136 4/1/4 5/1/5 137/1/137
f 4/1/4 3/1/3 8/1/8 9/1/9
f 5/1/5 4/1/4 9/1/9 10/1/10
f 10/1/10 144/1/144 145/1/145 5/1/5
f 1/1/1 21/1/21 6/1/6
f 9/1/9 14/1/14 15/1/15 10/1/10
f 2/1/2 1/1/1 6/1/6 7/1/7
f 15/1/15 143/1/143 144/1/144 10/1/10
f 6/1/6 21/1/21 11/1/11
f 8/1/8 7/1/7 12/1/12 13/1/13
f 7/1/7 6/1/6 11/1/11 12/1/12
f 9/1/9 8/1/8 13/1/13 14/1/14
f 20/1/20 142/1/142 143/1/143 15/1/15
f 19/1/19 18/1/18 24/1/24 25/1/25
f 17/1/17 18/1/18 13/1/13 12/1/12
f 21/1/21 32/1/32 27/1/27
f 27/1/27 32/1/32 33/1/33 28/1/28
f 18/1/18 19/1/19 14/1/14 13/1/13
f 19/1/19 20/1/20 15/1/15 14/1/14
f 20/1/20 19/1/19 25/1/25 26/1/26
f 26/1/26 141/1/141 142/1/142 20/1/20
f 16/1/16 21/1/21 22/1/22
f 18/1/18 17/1/17 23/1/23 24/1/24
f 17/1/17 16/1/16 22/1/22 23/1/23
f 31/1/31 140/1/140 141/1/141 26/1/26
f 24/1/24 23/1/23 28/1/28 29/1/29
f 23/1/23 22/1/22 27/1/27 28/1/28
f 25/1/25 24/1/24 29/1/29 30/1/30
f 26/1/26 25/1/25 30/1/30 31/1/31
f 36/1/36 139/1/139 140/1/140 31/1/31
f 22/1/22 21/1/21 27/1/27
f 36/1/36 35/1/35 40/1/40 41/1/41
f 33/1/33 34/1/34 29/1/29 28/1/28
f 21/1/21 47/1/47 42/1/42
f 42/1/42 47/1/47 48/1/48 43/1/43
f 34/1/34 35/1/35 30/1/30 29/1/29
f 35/1/35 36/1/36 31/1/31 30/1/30
f 41/1/41 138/1/138 139/1/139 36/1/36
f 32/1/32 21/1/21 37/1/37
f 34/1/34 33/1/33 38/1/38 39/1/39
f 33/1/33 32/1/32 37/1/37 38/1/38
f 35/1/35 34/1/34 39/1/39 40/1/40
f 39/1/39 38/1/38 43/1/43 44/1/44
f 40/1/40 39/1/39 44/1/44 45/1/45
f 41/1/41 40/1/40 45/1/45 46/1/46
f 46/1/46 132/1/132 138/1/138 41/1/41
f 37/1/37 21/1/21 42/1/42
f 48/1/48 49/1/49 44/1/44 43/1/43
f 38/1/38 37/1/37 42/1/42 43/1/43
f 50/1/50 55/1/55 56/1/56 51/1/51
f 21/1/21 62/1/62 57/1/57
f 57/1/57 62/1/62 63/1/63 58/1/58
f 49/1/49 50/1/50 45/1/45 44/1/44
f 50/1/50 51/1/51 46/1/46 45/1/45
f 51/1/51 131/1/131 132/1/132 46/1/46
f 56/1/56 130/1/130 131/1/131 51/1/51
f 47/1/47 21/1/21 52/1/52
f 49/1/49 48/1/48 53/1/53 54/1/54
f 48/1/48 47/1/47 52/1/52 53/1/53
f 50/1/50 49/1/49 54/1/54 55/1/55
f 53/1/53 58/1/58 59/1/59 54/1/54
f 55/1/55 54/1/54 59/1/59 60/1/60
f 56/1/56 55/1/55 60/1/60 61/1/61
f 61/1/61 129/1/129 130/1/130 56/1/56
f 52/1/52 21/1/21 57/1/57
f 64/1/64 65/1/65 60/1/60 59/1/59
f 53/1/53 52/1/52 57/1/57 58/1/58
f 63/1/63 64/1/64 59/1/59 58/1/58
f 21/1/21 77/1/77 72/1/72
f 72/1/72 77/1/77 78/1/78 73/1/73
f 71/1/71 122/1/122 123/1/123 66/1/66
f 65/1/65 66/1/66 61/1/61 60/1/60
f 66/1/66 123/1/123 129/1/129 61/1/61
f 64/1/64 63/1/63 68/1/68 69/1/69
f 63/1/63 62/1/62 67/1/67 68/1/68
f 65/1/65 64/1/64 69/1/69 70/1/70
f 66/1/66 65/1/65 70/1/70 71/1/71
f 69/1/69 74/1/74 75/1/75 70/1/70
f 62/1/62 21/1/21 67/1/67
f 71/1/71 70/1/70 75/1/75 76/1/76
f 76/1/76 121/1/121 122/1/122 71/1/71
f 67/1/67 21/1/21 72/1/72
f 69/1/69 68/1/68 73/1/73 74/1/74
f 68/1/68 67/1/67 72/1/72 73/1/73
f 79/1/79 80/1/80 75/1/75 74/1/74
f 86/1/86 119/1/119 120/1/120 81/1/81
f 80/1/80 81/1/81 76/1/76 75/1/75
f 81/1/81 120/1/120 121/1/121 76/1/76
f 78/1/78 79/1/79 74/1/74 73/1/73
f 21/1/21 92/1/92 87/1/87
f 87/1/87 92/1/92 93/1/93 88/1/88
f 80/1/80 79/1/79 84/1/84 85/1/85
f 81/1/81 80/1/80 85/1/85 86/1/86
f 86/1/86 85/1/85 90/1/90 91/1/91
f 77/1/77 21/1/21 82/1/82
f 79/1/79 78/1/78 83/1/83 84/1/84
f 78/1/78 77/1/77 82/1/82 83/1/83
f 91/1/91 113/1/113 119/1/119 86/1/86
f 82/1/82 21/1/21 87/1/87
f 84/1/84 83/1/83 88/1/88 89/1/89
f 83/1/83 82/1/82 87/1/87 88/1/88
f 85/1/85 84/1/84 89/1/89 90/1/90
f 95/1/95 96/1/96 91/1/91 90/1/90
f 93/1/93 98/1/98 99/1/99 94/1/94
f 96/1/96 112/1/112 113/1/113 91/1/91
f 93/1/93 94/1/94 89/1/89 88/1/88
f 21/1/21 114/1/114 102/1/102
f 102/1/102 114/1/114 115/1/115 103/1/103
f 94/1/94 95/1/95 90/1/90 89/1/89
f 95/1/95 94/1/94 99/1/99 100/1/100
f 96/1/96 95/1/95 100/1/100 101/1/101
f 101/1/101 111/1/111 112/1/112 96/1/96
f 92/1/92 21/1/21 97/1/97
f 100/1/100 105/1/105 106/1/106 101/1/101
f 93/1/93 92/1/92 97/1/97 98/1/98
f 106/1/106 110/1/110 111/1/111 101/1/101
f 97/1/97 21/1/21 102/1/102
f 99/1/99 98/1/98 103/1/103 104/1/104
f 98/1/98 97/1/97 102/1/102 103/1/103
f 100/1/100 99/1/99 104/1/104 105/1/105
f 118/1/118 109/1/109 110/1/110 106/1/106
f 117/1/117 116/1/116 126/1/126 127/1/127
f 115/1/115 116/1/116 104/1/104 103/1/103
f 2/1/2 7/1/7 8/1/8 3/1/3
f 116/1/116 117/1/117 105/1/105 104/1/104
f 117/1/117 118/1/118 106/1/106 105/1/105
f 134/1/134 133/1/133 1/1/1 2/1/2
f 118/1/118 117/1/117 127/1/127 128/1/128
f 126/1/126 125/1/125 134/1/134 135/1/135
f 128/1/128 108/1/108 109/1/109 118/1/118
f 114/1/114 21/1/21 124/1/124
f 116/1/116 115/1/115 125/1/125 126/1/126
f 115/1/115 114/1/114 124/1/124 125/1/125
f 128/1/128 137/1/137 107/1/107 108/1/108
f 125/1/125 124/1/124 133/1/133 134/1/134
f 127/1/127 126/1/126 135/1/135 136/1/136
f 128/1/128 127/1/127 136/1/136 137/1/137
f 136/1/136 135/1/135 3/1/3 4/1/4
f 124/1/124 21/1/21 133/1/133
f 5/1/5 145/1/145 107/1/107 137/1/137
f 172/2/172 154/2/154 147/2/147 151/2/151
f 168/2/168 169/2/169 181/2/181 182/2/182
f 171/2/171 156/2/156 149/2/149 152/2/152
f 154/2/154 172/2/172 165/2/165 163/2/163
f 170/2/170 158/2/158 148/2/148 153/2/153
f 167/2/167 161/2/161 156/2/156 171/2/171
f 169/2/169 160/2/160 146/2/146 150/2/150
f 148/2/148 162/2/162 168/2/168 153/2/153
f 175/2/175 174/2/174 160/2/160 162/2/162
f 176/2/176 177/2/177 174/2/174 175/2/175
f 174/2/174 163/2/163 146/2/146 160/2/160
f 156/2/156 161/2/161 177/2/177 176/2/176
f 177/2/177 154/2/154 163/2/163 174/2/174
f 158/2/158 175/2/175 162/2/162 148/2/148
f 147/2/147 161/2/161 167/2/167 151/2/151
f 149/2/149 164/2/164 166/2/166 152/2/152
f 149/2/149 156/2/156 176/2/176 164/2/164
f 168/2/168 162/2/162 160/2/160 169/2/169
f 161/2/161 147/2/147 154/2/154 177/2/177
f 150/2/150 146/2/146 163/2/163 165/2/165
f 166/2/166 170/2/170 180/2/180 184/2/184
f 168/2/168 153/2/153 170/2/170 166/2/166 152/2/152 171/2/171 167/2/167 151/2/151 172/2/172 165/2/165 150/2/150 169/2/169
f 172/2/172 151/2/151 155/2/155 178/2/178
f 164/2/164 176/2/176 175/2/175 158/2/158
f 171/2/171 152/2/152 157/2/157 179/2/179
f 165/2/165 172/2/172 178/2/178 185/2/185
f 170/2/170 153/2/153 159/2/159 180/2/180
f 167/2/167 171/2/171 179/2/179 183/2/183
f 169/2/169 150/2/150 173/2/173 181/2/181
f 153/2/153 168/2/168 182/2/182 159/2/159
f 151/2/151 167/2/167 183/2/183 155/2/155
f 152/2/152 166/2/166 184/2/184 157/2/157
f 173/2/173 150/2/150 165/2/165 185/2/185
f 166/2/166 164/2/164 158/2/158 170/2/170
f 191/3/191 220/3/220 223/3/223
f 190/3/190 225/3/225 193/3/193
f 195/3/195 224/3/224 227/3/227
f 189/3/189 201/3/201 209/3/209
f 215/3/215 244/3/244 247/3/247
f 214/3/214 249/3/249 217/3/217
f 187/3/187 248/3/248 219/3/219
f 196/3/196 229/3/229 228/3/228
f 200/3/200 233/3/233 232/3/232
f 203/3/203 234/3/234 202/3/202
f 204/3/204 237/3/237 236/3/236
f 207/3/207 238/3/238 206/3/206
f 208/3/208 241/3/241 240/3/240
f 211/3/211 242/3/242 210/3/210
f 187/3/187 218/3/218 186/3/186
f 188/3/188 221/3/221 220/3/220
f 191/3/191 222/3/222 190/3/190
f 192/3/192 225/3/225 224/3/224
f 210/3/210 245/3/245 213/3/213
f 212/3/212 245/3/245 244/3/244
f 215/3/215 246/3/246 214/3/214
f 216/3/216 249/3/249 248/3/248
f 186/3/186 221/3/221 189/3/189
f 194/3/194 229/3/229 197/3/197
f 199/3/199 228/3/228 231/3/231
f 198/3/198 233/3/233 201/3/201
f 203/3/203 232/3/232 235/3/235
f 202/3/202 237/3/237 205/3/205
f 207/3/207 236/3/236 239/3/239
f 206/3/206 241/3/241 209/3/209
f 211/3/211 240/3/240 243/3/243
f 195/3/195 226/3/226 194/3/194
f 218/3/218 250/3/250 251/3/251
f 221/3/221 253/3/253 220/3/220
f 222/3/222 254/3/254 255/3/255
f 225/3/225 257/3/257 224/3/224
f 226/3/226 258/3/258 259/3/259
f 229/3/229 261/3/261 228/3/228
f 230/3/230 262/3/262 263/3/263
f 233/3/233 265/3/265 232/3/232
f 234/3/234 266/3/266 267/3/267
f 237/3/237 269/3/269 236/3/236
f 238/3/238 270/3/270 271/3/271
f 241/3/241 273/3/273 240/3/240
f 242/3/242 274/3/274 275/3/275
f 245/3/245 277/3/277 244/3/244
f 246/3/246 278/3/278 279/3/279
f 249/3/249 281/3/281 248/3/248
f 221/3/221 251/3/251 252/3/252
f 220/3/220 254/3/254 223/3/223
f 225/3/225 255/3/255 256/3/256
f 224/3/224 258/3/258 227/3/227
f 229/3/229 259/3/259 260/3/260
f 228/3/228 262/3/262 231/3/231
f 233/3/233 263/3/263 264/3/264
f 232/3/232 266/3/266 235/3/235
f 237/3/237 267/3/267 268/3/268
f 236/3/236 270/3/270 239/3/239
f 241/3/241 271/3/271 272/3/272
f 240/3/240 274/3/274 243/3/243
f 245/3/245 275/3/275 276/3/276
f 244/3/244 278/3/278 247/3/247
f 249/3/249 279/3/279 280/3/280
f 248/3/248 250/3/250 219/3/219
f 276/3/276 268/3/268 260/3/260
f 199/3/199 230/3/230 198/3/198
f 191/3/191 188/3/188 220/3/220
f 190/3/190 222/3/222 225/3/225
f 195/3/195 192/3/192 224/3/224
f 216/3/216 187/3/187 186/3/186
f 189/3/189 188/3/188 193/3/193
f 188/3/188 191/3/191 190/3/190
f 216/3/216 186/3/186 217/3/217
f 186/3/186 189/3/189 217/3/217
f 215/3/215 214/3/214 212/3/212
f 214/3/214 217/3/217 213/3/213
f 188/3/188 190/3/190 193/3/193
f 193/3/193 192/3/192 197/3/197
f 192/3/192 195/3/195 194/3/194
f 197/3/197 192/3/192 194/3/194
f 214/3/214 213/3/213 212/3/212
f 217/3/217 189/3/189 213/3/213
f 211/3/211 210/3/210 208/3/208
f 210/3/210 213/3/213 209/3/209
f 209/3/209 208/3/208 210/3/210
f 207/3/207 206/3/206 204/3/204
f 206/3/206 209/3/209 205/3/205
f 205/3/205 204/3/204 206/3/206
f 203/3/203 202/3/202 200/3/200
f 202/3/202 205/3/205 200/3/200
f 201/3/201 200/3/200 205/3/205
f 199/3/199 198/3/198 196/3/196
f 198/3/198 201/3/201 196/3/196
f 197/3/197 196/3/196 201/3/201
f 189/3/189 193/3/193 197/3/197
f 209/3/209 213/3/213 189/3/189
f 201/3/201 205/3/205 209/3/209
f 189/3/189 197/3/197 201/3/201
f 215/3/215 212/3/212 244/3/244
f 214/3/214 246/3/246 249/3/249
f 187/3/187 216/3/216 248/3/248
f 196/3/196 197/3/197 229/3/229
f 200/3/200 201/3/201 233/3/233
f 203/3/203 235/3/235 234/3/234
f 204/3/204 205/3/205 237/3/237
f 207/3/207 239/3/239 238/3/238
f 208/3/208 209/3/209 241/3/241
f 211/3/211 243/3/243 242/3/242
f 187/3/187 219/3/219 218/3/218
f 188/3/188 189/3/189 221/3/221
f 191/3/191 223/3/223 222/3/222
f 192/3/192 193/3/193 225/3/225
f 210/3/210 242/3/242 245/3/245
f 212/3/212 213/3/213 245/3/245
f 215/3/215 247/3/247 246/3/246
f 216/3/216 217/3/217 249/3/249
f 186/3/186 218/3/218 221/3/221
f 194/3/194 226/3/226 229/3/229
f 199/3/199 196/3/196 228/3/228
f 198/3/198 230/3/230 233/3/233
f 203/3/203 200/3/200 232/3/232
f 202/3/202 234/3/234 237/3/237
f 207/3/207 204/3/204 236/3/236
f 206/3/206 238/3/238 241/3/241
f 211/3/211 208/3/208 240/3/240
f 195/3/195 227/3/227 226/3/226
f 218/3/218 219/3/219 250/3/250
f 221/3/221 252/3/252 253/3/253
f 222/3/222 223/3/223 254/3/254
f 225/3/225 256/3/256 257/3/257
f 226/3/226 227/3/227 258/3/258
f 229/3/229 260/3/260 261/3/261
f 230/3/230 231/3/231 262/3/262
f 233/3/233 264/3/264 265/3/265
f 234/3/234 235/3/235 266/3/266
f 237/3/237 268/3/268 269/3/269
f 238/3/238 239/3/239 270/3/270
f 241/3/241 272/3/272 273/3/273
f 242/3/242 243/3/243 274/3/274
f 245/3/245 276/3/276 277/3/277
f 246/3/246 247/3/247 278/3/278
f 249/3/249 280/3/280 281/3/281
f 221/3/221 218/3/218 251/3/251
f 220/3/220 253/3/253 254/3/254
f 225/3/225 222/3/222 255/3/255
f 224/3/224 257/3/257 258/3/258
f 229/3/229 226/3/226 259/3/259
f 228/3/228 261/3/261 262/3/262
f 233/3/233 230/3/230 263/3/263
f 232/3/232 265/3/265 266/3/266
f 237/3/237 234/3/234 267/3/267
f 236/3/236 269/3/269 270/3/270
f 241/3/241 238/3/238 271/3/271
f 240/3/240 273/3/273 274/3/274
f 245/3/245 242/3/242 275/3/275
f 244/3/244 277/3/277 278/3/278
f 249/3/249 246/3/246 279/3/279
f 248/3/248 281/3/281 250/3/250
f 252/3/252 251/3/251 280/3/280
f 251/3/251 250/3/250 281/3/281
f 280/3/280 251/3/251 281/3/281
f 280/3/280 279/3/279 276/3/276
f 279/3/279 278/3/278 277/3/277
f 276/3/276 279/3/279 277/3/277
f 276/3/276 275/3/275 272/3/272
f 275/3/275 274/3/274 273/3/273
f 272/3/272 275/3/275 273/3/273
f 272/3/272 271/3/271 268/3/268
f 271/3/271 270/3/270 269/3/269
f 268/3/268 271/3/271 269/3/269
f 268/3/268 267/3/267 265/3/265
f 267/3/267 266/3/266 265/3/265
f 265/3/265 264/3/264 268/3/268
f 264/3/264 263/3/263 261/3/261
f 263/3/263 262/3/262 261/3/261
f 261/3/261 260/3/260 264/3/264
f 260/3/260 259/3/259 257/3/257
f 259/3/259 258/3/258 257/3/257
f 257/3/257 256/3/256 260/3/260
f 256/3/256 255/3/255 253/3/253
f 255/3/255 254/3/254 253/3/253
f 253/3/253 252/3/252 256/3/256
f 252/3/252 280/3/280 276/3/276
f 276/3/276 272/3/272 268/3/268
f 268/3/268 264/3/264 260/3/260
f 260/3/260 256/3/256 252/3/252
f 252/3/252 276/3/276 260/3/260
f 199/3/199 231/3/231 230/3/230
