# Blender 4.1.0
# www.blender.org
mtllib chest.mtl
o chest
v -0.401758 0.000000 0.531596
v -0.401758 0.000000 -0.531597
v 0.401758 0.000000 0.531596
v 0.401758 0.000000 -0.531597
v -0.401758 0.418076 -0.531596
v 0.401758 0.418076 -0.531596
v 0.401758 0.418076 0.531596
v -0.401758 0.418076 0.531596
v -0.282410 0.646685 0.531596
v -0.282410 0.646685 -0.531596
v -0.005722 0.741378 0.531596
v 0.282410 0.646685 0.531596
v -0.005722 0.741378 -0.531596
v 0.282410 0.646685 -0.531596
v -0.401758 0.000000 -0.348340
v -0.401758 0.000000 0.348340
v 0.401758 0.000000 0.348340
v 0.401758 0.000000 -0.348340
v -0.401758 0.418076 0.348340
v -0.401758 0.418076 -0.348340
v 0.401758 0.418076 -0.348340
v 0.401758 0.418076 0.348340
v -0.282410 0.646685 -0.348340
v -0.282410 0.646685 0.348340
v -0.005722 0.741378 -0.348340
v -0.005722 0.741378 0.348340
v 0.282410 0.646685 0.348340
v 0.282410 0.646685 -0.348340
v -0.437428 0.000000 0.348340
v -0.437428 0.000000 0.531596
v 0.332587 0.688987 0.495271
v 0.472054 0.428025 0.495271
v 0.472054 0.428025 -0.495271
v 0.332587 0.688987 -0.495271
v -0.472054 0.428025 -0.495271
v -0.457637 0.000000 -0.495271
v 0.457637 0.000000 -0.495271
v -0.006367 0.800343 -0.495271
v -0.332856 0.688771 -0.495271
v 0.457637 0.000000 -0.389648
v -0.472054 0.428025 -0.389648
v 0.457637 0.000000 0.495271
v -0.332856 0.688771 0.495271
v -0.006367 0.800343 0.495271
v -0.472054 0.428025 0.495271
v 0.472054 0.428025 0.389648
v -0.318157 0.675326 0.348340
v -0.006085 0.781971 0.348340
v 0.317901 0.675532 -0.348340
v -0.457637 0.000000 -0.389648
v 0.457637 0.000000 0.389648
v -0.451208 0.426095 0.348340
v 0.472054 0.428025 -0.389648
v -0.318157 0.675326 -0.348340
v -0.006085 0.781971 -0.348340
v 0.317901 0.675532 0.348340
v 0.317901 0.675532 0.531596
v 0.451208 0.426095 0.531596
v 0.451208 0.426095 -0.531596
v 0.317901 0.675532 -0.531596
v -0.451208 0.426095 -0.531596
v -0.437428 0.000000 -0.531597
v 0.437428 0.000000 -0.531597
v -0.006085 0.781971 -0.531596
v -0.318157 0.675326 -0.531596
v 0.437428 0.000000 0.531596
v -0.457637 0.000000 0.495271
v -0.318157 0.675326 0.531596
v -0.006085 0.781971 0.531596
v -0.451208 0.426095 0.531596
v 0.332587 0.688987 -0.389648
v 0.451208 0.426095 -0.348340
v 0.332587 0.688987 0.389648
v 0.451208 0.426095 0.348340
v -0.006367 0.800343 -0.389648
v -0.006367 0.800343 0.389648
v -0.332856 0.688771 0.389648
v -0.472054 0.428025 0.389648
v -0.332856 0.688771 -0.389648
v -0.451208 0.426095 -0.348340
v -0.457637 0.000000 0.389648
v -0.437428 0.000000 -0.348340
v 0.437428 0.000000 -0.348340
v 0.437428 0.000000 0.348340
v -0.401758 0.379546 -0.531596
v 0.401758 0.379546 -0.531596
v 0.401758 0.379546 0.531596
v -0.401758 0.379546 0.531596
v -0.401758 0.379546 0.348340
v -0.401758 0.379546 -0.348340
v 0.401758 0.379546 -0.348340
v 0.401758 0.379546 0.348340
v -0.449889 0.384052 -0.531596
v 0.449889 0.384052 -0.531596
v 0.449889 0.384052 0.531596
v -0.449889 0.384052 0.531596
v -0.449889 0.384052 0.348340
v -0.449889 0.384052 -0.348340
v 0.449889 0.384052 -0.348340
v 0.449889 0.384052 0.348340
v -0.470675 0.384040 -0.495271
v 0.470675 0.384040 -0.495271
v 0.470675 0.384040 0.495271
v -0.470675 0.384040 0.495271
v -0.470675 0.384040 0.389648
v -0.470675 0.384040 -0.389648
v 0.470675 0.384040 -0.389648
v 0.470675 0.384040 0.389648
v -0.373623 0.399064 0.494369
v -0.418997 0.404888 0.494369
v -0.438355 0.405780 0.460588
v -0.373623 0.399064 -0.494369
v 0.373623 0.399064 -0.494369
v 0.373623 0.399064 0.494369
v -0.373623 0.399064 0.323946
v -0.373623 0.399064 -0.323946
v 0.373623 0.399064 -0.351890
v 0.373623 0.399064 0.351890
v -0.418997 0.404888 -0.494369
v 0.418997 0.404888 -0.494369
v 0.418997 0.404888 0.494369
v -0.418997 0.404888 0.323946
v -0.418997 0.404888 -0.323946
v 0.418997 0.404888 -0.351890
v 0.418997 0.404888 0.351890
v -0.438355 0.405780 -0.460588
v 0.438355 0.405780 -0.460588
v 0.438355 0.405780 0.460588
v -0.438355 0.405780 0.362361
v -0.438355 0.405780 -0.362361
v 0.438355 0.405780 -0.393619
v 0.438355 0.405780 0.393619
v -0.401758 0.000000 -0.128209
v -0.401758 0.000000 0.128209
v 0.401758 0.000000 0.128209
v 0.401758 0.000000 -0.128209
v -0.401758 0.418076 0.128209
v -0.401758 0.418076 -0.128209
v 0.401758 0.418076 -0.128209
v 0.401758 0.418076 0.128209
v -0.282410 0.646685 -0.128209
v -0.282410 0.646685 0.128209
v -0.005722 0.741378 -0.128209
v -0.005722 0.741378 0.128209
v 0.282410 0.646685 0.128209
v 0.282410 0.646685 -0.128209
v 0.401758 0.379546 -0.128209
v 0.401758 0.379546 0.128209
v -0.401758 0.379546 0.128209
v -0.401758 0.379546 -0.128209
v 0.373623 0.399064 -0.129515
v 0.373623 0.399064 0.129516
v -0.373623 0.399064 0.119231
v -0.373623 0.399064 -0.119230
v 0.401758 0.000000 -0.155282
v -0.401758 0.418076 -0.155282
v 0.282410 0.646685 -0.155282
v -0.401758 0.379546 -0.155282
v -0.373623 0.399064 -0.144408
v -0.401758 0.000000 -0.155282
v 0.401758 0.418076 -0.155282
v -0.282410 0.646685 -0.155282
v -0.005722 0.741378 -0.155282
v 0.401758 0.379546 -0.155282
v 0.373623 0.399064 -0.156864
v -0.401758 0.000000 0.155282
v 0.401758 0.418076 0.155282
v -0.282410 0.646685 0.155282
v -0.005722 0.741378 0.155282
v 0.401758 0.379546 0.155282
v 0.373623 0.399064 0.156865
v 0.401758 0.000000 0.155282
v -0.401758 0.418076 0.155282
v 0.282410 0.646685 0.155282
v -0.401758 0.379546 0.155282
v -0.373623 0.399064 0.144408
v -0.383653 0.000000 -0.140550
v 0.383653 0.416286 -0.140550
v -0.269683 0.634593 -0.140550
v -0.005465 0.725019 -0.140550
v 0.383653 0.379493 -0.140550
v 0.356786 0.398131 -0.141982
v 0.383653 0.000000 -0.140550
v -0.383653 0.416286 -0.140550
v 0.269683 0.634593 -0.140550
v -0.383653 0.379493 -0.140550
v -0.356786 0.398131 -0.130707
v 0.383653 0.000000 0.140550
v -0.383653 0.416286 0.140550
v 0.269683 0.634593 0.140550
v -0.383653 0.379493 0.140550
v -0.356786 0.398131 0.130708
v -0.383653 0.000000 0.140550
v 0.383653 0.416286 0.140550
v -0.269683 0.634593 0.140550
v -0.005465 0.725019 0.140550
v 0.383653 0.379493 0.140550
v 0.356786 0.398131 0.141983
v 0.401450 0.300418 0.038122
v 0.401450 0.339518 0.078455
v 0.379633 0.339518 0.038122
v 0.401450 0.448448 0.078455
v 0.401450 0.487548 0.038122
v 0.379633 0.448448 0.038122
v 0.401450 0.300418 -0.038736
v 0.379633 0.339518 -0.038736
v 0.401450 0.339518 -0.079069
v 0.401450 0.487548 -0.038736
v 0.401450 0.448448 -0.079069
v 0.379633 0.448448 -0.038736
v 0.443024 0.300418 0.038122
v 0.464841 0.339518 0.038122
v 0.443024 0.339518 0.078455
v 0.443024 0.487548 0.038122
v 0.443024 0.448448 0.078455
v 0.464841 0.448448 0.038122
v 0.443024 0.300418 -0.038736
v 0.443024 0.339518 -0.079069
v 0.464841 0.339518 -0.038736
v 0.443024 0.487548 -0.038736
v 0.464841 0.448448 -0.038736
v 0.443024 0.448448 -0.079069
vn -0.0000 -0.0000 1.0000
vn -0.0029 0.5933 0.8050
vn -0.3750 0.4561 0.8071
vn -0.0000 -0.0000 -1.0000
vn 0.0400 -0.8995 0.4350
vn 0.0929 -0.9085 0.4074
vn -0.0929 -0.9085 0.4075
vn -0.0400 -0.8995 0.4350
vn 0.3873 0.4761 -0.7895
vn 0.5507 0.2943 -0.7811
vn -0.0400 -0.8995 -0.4350
vn -0.0929 -0.9085 -0.4074
vn 0.0929 -0.9085 -0.4074
vn 0.0400 -0.8995 -0.4350
vn -0.5308 0.2834 -0.7987
vn -0.3750 0.4561 -0.8071
vn 0.5507 0.2943 0.7811
vn 0.3873 0.4761 0.7895
vn -0.0000 -1.0000 -0.0000
vn -0.0000 1.0000 -0.0000
vn 0.4964 -0.0165 0.8680
vn 0.5274 -0.0175 0.8494
vn 0.6004 0.6997 -0.3872
vn 0.6470 0.7625 -0.0000
vn 0.8865 0.4628 -0.0000
vn 0.8234 0.4298 -0.3706
vn 0.0322 -0.2204 -0.9749
vn 0.4721 -0.7858 -0.3995
vn 0.2206 -0.4835 -0.8471
vn -0.0061 0.9254 -0.3789
vn -0.0061 1.0000 -0.0000
vn 0.3725 0.4597 0.8062
vn -0.6042 0.6961 0.3878
vn -0.6516 0.7586 -0.0000
vn -0.8865 0.4628 -0.0000
vn -0.8234 0.4298 0.3706
vn 0.5190 -0.0172 0.8546
vn 0.5509 -0.0183 0.8343
vn -0.0061 0.9254 0.3789
vn 0.2910 -0.9179 -0.2699
vn 0.2524 -0.9200 -0.2999
vn -0.6087 -0.6380 0.4716
vn -0.5936 -0.7884 0.1614
vn -0.5599 -0.8286 -0.0000
vn 0.1218 0.8346 0.5373
vn -0.7164 -0.4694 0.5162
vn -0.0625 0.7284 0.6823
vn 0.5245 -0.7999 -0.2917
vn 0.5438 -0.8195 -0.1810
vn 0.5599 -0.8286 -0.0000
vn -0.0029 0.5933 -0.8050
vn 0.3725 0.4597 -0.8062
vn 0.5374 -0.8350 -0.1179
vn 0.5395 -0.8356 -0.1033
vn 0.4452 -0.8863 0.1277
vn 0.4955 -0.8658 0.0695
vn -0.6571 -0.7159 0.2359
vn -0.5871 -0.8065 0.0700
vn -0.4452 -0.8863 -0.1277
vn -0.4955 -0.8658 -0.0695
vn -0.0061 0.9798 0.1997
vn -0.0061 0.9750 -0.2221
vn -0.6339 0.7372 -0.2341
vn -0.6370 0.7414 0.2111
vn -0.8594 0.4588 -0.2258
vn -0.8636 0.4610 0.2039
vn -0.0061 0.9798 -0.1997
vn -0.0061 0.9750 0.2221
vn 0.6296 0.7409 0.2338
vn 0.6327 0.7451 -0.2109
vn 0.8592 0.4592 0.2257
vn 0.8634 0.4614 -0.2039
vn 0.6296 0.7409 -0.2338
vn 0.6327 0.7451 0.2109
vn 0.8634 0.4614 0.2039
vn 0.8592 0.4592 -0.2257
vn -0.6339 0.7372 0.2341
vn -0.6370 0.7414 -0.2111
vn -0.8636 0.4610 -0.2039
vn -0.8594 0.4588 0.2258
vn -0.4955 -0.8658 0.0695
vn -0.4452 -0.8863 0.1277
vn -0.5871 -0.8065 -0.0700
vn -0.6571 -0.7159 -0.2359
vn 0.4955 -0.8658 -0.0695
vn 0.4452 -0.8863 -0.1277
vn 0.5395 -0.8356 0.1033
vn 0.5374 -0.8350 0.1179
vn -0.0031 0.6143 0.7891
vn -0.2910 -0.9179 0.2699
vn -0.2524 -0.9200 0.2999
vn -0.0031 0.6143 -0.7891
vn -0.5507 0.2940 -0.7812
vn -0.3899 0.4724 -0.7904
vn 0.5308 0.2837 0.7986
vn -0.3899 0.4724 0.7904
vn -0.5507 0.2940 0.7812
vn 0.5308 0.2837 -0.7986
vn -0.4964 -0.0165 -0.8680
vn -0.5274 -0.0175 -0.8494
vn -0.5308 0.2834 0.7987
vn -0.5190 -0.0172 -0.8546
vn -0.5509 -0.0183 -0.8343
vn -0.2910 -0.9179 -0.2699
vn -0.2524 -0.9200 -0.2999
vn 0.9670 -0.0325 -0.2526
vn 0.9663 -0.0325 -0.2553
vn 0.4964 -0.0165 -0.8680
vn 0.5274 -0.0175 -0.8494
vn 0.2910 -0.9179 0.2699
vn 0.2524 -0.9200 0.2999
vn -0.9670 -0.0325 0.2526
vn -0.9663 -0.0325 0.2553
vn -0.4964 -0.0165 0.8680
vn -0.5274 -0.0175 0.8494
vn -0.7164 -0.4694 -0.5162
vn -0.0625 0.7284 -0.6823
vn -0.9733 -0.0327 0.2271
vn -0.9728 -0.0327 0.2292
vn -0.5190 -0.0172 0.8546
vn -0.5509 -0.0183 0.8343
vn 0.4721 -0.7858 0.3995
vn 0.2206 -0.4835 0.8471
vn 0.9733 -0.0327 -0.2271
vn 0.9728 -0.0327 -0.2292
vn 0.5190 -0.0172 -0.8546
vn 0.5509 -0.0183 -0.8343
vn 0.5420 0.8293 -0.1362
vn 0.5442 0.8301 -0.1220
vn 0.4307 0.7325 -0.5273
vn 0.2041 0.4557 -0.8664
vn 0.9728 -0.0327 0.2292
vn 0.9733 -0.0327 0.2271
vn -0.6790 0.6836 0.2676
vn -0.6010 0.7951 0.0808
vn -0.7231 0.3540 0.5932
vn -0.2845 -0.5386 0.7931
vn -0.9728 -0.0327 -0.2292
vn -0.9733 -0.0327 -0.2271
vn -0.4928 0.8665 0.0794
vn -0.4277 0.8911 0.1515
vn -0.1663 0.9134 0.3714
vn -0.1267 0.9083 0.3988
vn 0.9663 -0.0325 0.2553
vn 0.9670 -0.0325 0.2526
vn 0.4928 0.8665 -0.0794
vn 0.4277 0.8911 -0.1515
vn 0.1663 0.9134 -0.3714
vn 0.1267 0.9083 -0.3988
vn -0.9663 -0.0325 -0.2553
vn -0.9670 -0.0325 -0.2526
vn -0.0794 -0.7188 -0.6906
vn -0.7231 0.3540 -0.5932
vn -0.2845 -0.5386 -0.7931
vn 0.0304 0.8731 -0.4867
vn 0.0637 0.8576 -0.5103
vn -0.1663 0.9134 -0.3714
vn -0.1267 0.9083 -0.3988
vn 0.9031 -0.0000 -0.4295
vn 0.9032 -0.0000 -0.4291
vn 1.0000 -0.0000 -0.0000
vn -0.9031 -0.0000 0.4295
vn -0.9032 -0.0000 0.4291
vn -1.0000 -0.0000 -0.0000
vn -0.0165 0.1497 0.9886
vn 0.4307 0.7325 0.5273
vn 0.2041 0.4557 0.8664
vn -0.0304 0.8731 0.4867
vn -0.0637 0.8576 0.5103
vn 0.1663 0.9134 0.3714
vn 0.1267 0.9083 0.3988
vn 0.0322 -0.2204 0.9749
vn 0.1218 0.8346 -0.5373
vn 0.5442 0.8301 0.1220
vn 0.5420 0.8293 0.1362
vn -0.6010 0.7951 -0.0808
vn -0.6790 0.6836 -0.2676
vn 0.4277 0.8911 0.1515
vn 0.4929 0.8665 0.0794
vn -0.4277 0.8911 -0.1515
vn -0.4929 0.8665 -0.0794
vn 0.0637 0.8576 0.5103
vn 0.0304 0.8731 0.4867
vn 0.5481 0.8074 -0.2185
vn 0.5250 0.7832 -0.3331
vn 0.5700 0.8217 -0.0000
vn -0.0794 -0.7188 0.6906
vn -0.6074 0.7704 0.1939
vn -0.6122 0.6081 0.5054
vn -0.5700 0.8217 -0.0000
vn -0.0637 0.8576 -0.5103
vn -0.0304 0.8731 -0.4867
vn -0.0165 0.1497 -0.9886
vn -0.3468 0.7665 0.5405
vn -0.4719 0.8287 0.3010
vn -0.4932 0.8336 0.2486
vn -0.4719 0.8287 -0.3010
vn -0.4932 0.8336 -0.2486
vn 0.4507 0.6024 -0.6588
vn 0.5312 0.7356 -0.4203
vn 0.5623 0.7939 -0.2314
vn 0.5312 0.7356 0.4203
vn 0.5623 0.7939 0.2314
vn -0.5632 -0.0000 0.8263
vn -0.8843 -0.0000 0.4670
vn -0.8841 -0.0000 0.4673
vn -0.8843 -0.0000 -0.4670
vn -0.8841 -0.0000 -0.4673
vn 0.5632 -0.0000 -0.8263
vn 0.8843 -0.0000 -0.4670
vn 0.8841 -0.0000 -0.4673
vn 0.8843 -0.0000 0.4670
vn 0.8841 -0.0000 0.4673
vn 0.4713 -0.6538 -0.5920
vn 0.5560 -0.8087 -0.1919
vn 0.5314 -0.7586 -0.3771
vn 0.5560 -0.8087 0.1919
vn 0.5314 -0.7586 0.3771
vn -0.3801 -0.7987 0.4664
vn -0.4988 -0.8421 0.2053
vn -0.4780 -0.8390 0.2599
vn -0.4988 -0.8421 -0.2053
vn -0.4780 -0.8390 -0.2599
vn -0.0024 0.6022 0.7983
vn -0.0060 0.9105 0.4134
vn -0.5946 0.6852 0.4207
vn -0.3647 0.4488 0.8158
vn -0.0060 0.9105 -0.4134
vn -0.5946 0.6852 -0.4207
vn -0.8118 0.4238 0.4017
vn -0.5232 0.2732 0.8072
vn -0.8118 0.4238 -0.4017
vn -0.0024 0.6022 -0.7983
vn 0.5908 0.6888 -0.4201
vn 0.3612 0.4522 -0.8155
vn 0.5908 0.6888 0.4201
vn 0.8118 0.4238 -0.4017
vn 0.5232 0.2732 -0.8072
vn 0.8118 0.4238 0.4017
vn 0.6004 0.6997 0.3872
vn 0.8234 0.4298 0.3706
vn 0.5438 -0.8195 0.1810
vn 0.5245 -0.7999 0.2917
vn 0.9032 -0.0000 0.4291
vn 0.9031 -0.0000 0.4295
vn 0.5250 0.7832 0.3331
vn 0.5481 0.8074 0.2185
vn -0.5631 0.4279 0.7069
vn -0.6311 -0.0000 0.7757
vn -0.5750 -0.4828 0.6605
vn -0.0028 0.6692 0.7431
vn -0.4085 0.5003 0.7635
vn -0.5829 0.3043 0.7534
vn -0.6042 0.6961 -0.3878
vn -0.8234 0.4298 -0.3706
vn -0.5936 -0.7884 -0.1614
vn -0.6087 -0.6380 -0.4716
vn -0.9032 -0.0000 -0.4291
vn -0.9031 -0.0000 -0.4295
vn -0.6122 0.6081 -0.5054
vn -0.6074 0.7704 -0.1939
vn 0.4525 0.6963 -0.5571
vn 0.6311 -0.0000 -0.7757
vn 0.4704 -0.7356 -0.4874
vn -0.0028 0.6692 -0.7431
vn 0.4046 0.5039 -0.7631
vn 0.5829 0.3043 -0.7534
vn -0.3647 0.4488 -0.8158
vn -0.5232 0.2732 -0.8072
vn -0.3801 -0.7987 -0.4664
vn -0.5632 -0.0000 -0.8263
vn -0.3468 0.7665 -0.5405
vn 0.4046 0.5039 0.7631
vn 0.5829 0.3043 0.7534
vn 0.4704 -0.7356 0.4874
vn 0.6311 -0.0000 0.7757
vn 0.4525 0.6963 0.5571
vn 0.3612 0.4522 0.8155
vn 0.5232 0.2732 0.8072
vn 0.4713 -0.6538 0.5920
vn 0.5632 -0.0000 0.8263
vn 0.4507 0.6024 0.6588
vn -0.4085 0.5003 -0.7635
vn -0.5829 0.3043 -0.7534
vn -0.5750 -0.4828 -0.6605
vn -0.6311 -0.0000 -0.7757
vn -0.5631 0.4279 -0.7069
vn 0.4543 -0.3313 0.8270
vn 0.4543 0.3313 0.8270
vn -0.4543 0.3313 0.8270
vn -0.4543 -0.3313 0.8270
vn 0.9435 -0.2375 -0.2312
vn 0.9435 0.2375 -0.2312
vn 0.9435 0.2375 0.2312
vn 0.9435 -0.2375 0.2312
vn 0.4514 0.8330 -0.3198
vn -0.4514 0.8330 -0.3198
vn -0.4514 0.8330 0.3198
vn 0.4514 0.8330 0.3198
vn -0.9435 -0.2375 0.2312
vn -0.9435 0.2375 0.2312
vn -0.9435 0.2375 -0.2312
vn -0.9435 -0.2375 -0.2312
vn -0.4543 -0.3313 -0.8269
vn -0.4543 0.3313 -0.8270
vn 0.4543 0.3313 -0.8270
vn 0.4543 -0.3313 -0.8270
vn -0.4514 -0.8330 0.3198
vn -0.4514 -0.8330 -0.3198
vn 0.4514 -0.8330 0.3198
vn 0.4514 -0.8330 -0.3198
vt 0.165161 0.227266
vt 0.068311 0.569943
vt 0.459010 0.680494
vt 0.459010 0.680494
s 1
usemtl BASE_MATERIAL
f 9/1/1 11/1/1 69/1/2 68/1/3
f 5/2/4 10/2/4 13/2/4 14/2/4 6/2/4
f 114/2/5 7/2/6 8/2/7 109/2/8
f 22/1/4 27/1/4 56/1/9 74/1/10
f 112/2/11 5/2/12 6/2/13 113/2/14
f 10/1/4 5/1/4 61/1/15 65/1/16
f 28/1/1 21/1/1 72/1/17 49/1/18
f 3/1/19 1/1/19 30/1/19 66/1/19
f 16/1/20 17/1/20 84/1/20 29/1/20
f 87/1/1 3/1/1 66/1/21 95/1/22
f 7/2/1 12/2/1 11/2/1 9/2/1 8/2/1
f 18/1/20 15/1/20 82/1/20 83/1/20
f 174/2/23 27/2/24 22/2/25 167/2/26
f 118/1/27 22/1/27 74/1/28 125/1/29
f 169/2/30 26/2/31 27/2/24 174/2/23
f 11/1/1 12/1/1 57/1/32 69/1/2
f 162/2/33 23/2/34 20/2/35 156/2/36
f 91/1/1 18/1/1 83/1/37 99/1/38
f 163/2/39 25/2/31 23/2/34 162/2/33
f 113/1/14 6/1/13 59/1/40 120/1/41
f 159/2/42 156/2/43 20/2/44 116/2/44
f 116/1/45 20/1/45 80/1/46 123/1/47
f 171/2/48 167/2/49 22/2/50 118/2/50
f 14/1/4 13/1/4 64/1/51 60/1/52
f 166/2/19 172/2/19 17/2/19 16/2/19
f 81/1/19 51/1/19 42/1/19 67/1/19
f 132/1/53 46/1/54 32/1/55 128/1/56
f 130/1/57 41/1/58 35/1/59 126/1/60
f 75/1/61 38/1/62 39/1/63 79/1/64
f 79/1/64 39/1/63 35/1/65 41/1/66
f 76/1/67 44/1/68 31/1/69 73/1/70
f 73/1/70 31/1/69 32/1/71 46/1/72
f 34/1/73 71/1/74 53/1/75 33/1/76
f 38/1/62 75/1/61 71/1/74 34/1/73
f 43/1/77 77/1/78 78/1/79 45/1/80
f 44/1/68 76/1/67 77/1/78 43/1/77
f 111/1/81 45/1/82 78/1/83 129/1/84
f 127/1/85 33/1/86 53/1/87 131/1/88
f 36/1/19 37/1/19 40/1/19 50/1/19
f 25/1/1 28/1/1 49/1/18 55/1/89
f 109/1/8 8/1/7 70/1/90 110/1/91
f 27/1/4 26/1/4 48/1/92 56/1/9
f 24/1/4 19/1/4 52/1/93 47/1/94
f 12/1/1 7/1/1 58/1/95 57/1/32
f 20/1/1 23/1/1 54/1/96 80/1/97
f 6/1/4 14/1/4 60/1/52 59/1/98
f 26/1/4 24/1/4 47/1/94 48/1/92
f 85/1/4 2/1/4 62/1/99 93/1/100
f 23/1/1 25/1/1 55/1/89 54/1/96
f 2/1/20 4/1/20 63/1/20 62/1/20
f 8/1/1 9/1/1 68/1/3 70/1/101
f 89/1/4 16/1/4 29/1/102 97/1/103
f 13/1/4 10/1/4 65/1/16 64/1/51
f 32/1/71 31/1/69 57/1/32 58/1/95
f 34/1/73 33/1/76 59/1/98 60/1/52
f 126/1/60 35/1/59 61/1/104 119/1/105
f 37/1/19 36/1/19 62/1/19 63/1/19
f 39/1/63 38/1/62 64/1/51 65/1/16
f 102/1/106 37/1/107 63/1/108 94/1/109
f 128/1/56 32/1/55 58/1/110 121/1/111
f 67/1/19 42/1/19 66/1/19 30/1/19
f 35/1/65 39/1/63 65/1/16 61/1/15
f 44/1/68 43/1/77 68/1/3 69/1/2
f 104/1/112 67/1/113 30/1/114 96/1/115
f 43/1/77 45/1/80 70/1/101 68/1/3
f 38/1/62 34/1/73 60/1/52 64/1/51
f 31/1/69 44/1/68 69/1/2 57/1/32
f 53/1/75 71/1/74 49/1/18 72/1/17
f 73/1/70 46/1/72 74/1/10 56/1/9
f 71/1/74 75/1/61 55/1/89 49/1/18
f 76/1/67 73/1/70 56/1/9 48/1/92
f 78/1/79 77/1/78 47/1/94 52/1/93
f 79/1/64 41/1/66 80/1/97 54/1/96
f 77/1/78 76/1/67 48/1/92 47/1/94
f 75/1/61 79/1/64 54/1/96 55/1/89
f 129/1/84 78/1/83 52/1/116 122/1/117
f 106/1/118 50/1/119 82/1/120 98/1/121
f 131/1/88 53/1/87 72/1/122 124/1/123
f 108/1/124 51/1/125 84/1/126 100/1/127
f 50/1/19 40/1/19 83/1/19 82/1/19
f 51/1/19 81/1/19 29/1/19 84/1/19
f 132/1/128 108/1/129 100/1/130 125/1/131
f 40/1/132 107/1/133 99/1/38 83/1/37
f 130/1/134 106/1/135 98/1/136 123/1/137
f 81/1/138 105/1/139 97/1/103 29/1/102
f 111/1/140 104/1/141 96/1/142 110/1/143
f 42/1/144 103/1/145 95/1/22 66/1/21
f 127/1/146 102/1/147 94/1/148 120/1/149
f 36/1/150 101/1/151 93/1/100 62/1/99
f 115/1/152 89/1/152 97/1/153 122/1/154
f 112/1/155 85/1/156 93/1/157 119/1/158
f 1/1/1 88/1/1 96/1/115 30/1/114
f 37/1/107 102/1/106 107/1/133 40/1/132
f 67/1/113 104/1/112 105/1/139 81/1/138
f 50/1/119 106/1/118 101/1/151 36/1/150
f 51/1/125 108/1/124 103/1/145 42/1/144
f 172/2/159 170/2/160 92/2/161 17/2/161
f 15/1/1 90/1/1 98/1/121 82/1/120
f 160/2/162 158/2/163 90/2/164 15/2/164
f 4/1/4 86/1/4 94/1/109 63/1/108
f 117/1/165 91/1/165 99/1/166 124/1/167
f 17/1/4 92/1/4 100/1/127 84/1/126
f 114/1/168 87/1/169 95/1/170 121/1/171
f 2/2/4 85/2/4 86/2/4 4/2/4
f 3/2/1 87/2/1 88/2/1 1/2/1
f 7/1/6 114/1/5 121/1/111 58/1/110
f 21/1/172 117/1/172 124/1/123 72/1/122
f 5/1/12 112/1/11 119/1/105 61/1/104
f 19/1/173 115/1/173 122/1/117 52/1/116
f 33/1/86 127/1/85 120/1/41 59/1/40
f 45/1/82 111/1/81 110/1/91 70/1/90
f 41/1/58 130/1/57 123/1/47 80/1/46
f 46/1/54 132/1/53 125/1/29 74/1/28
f 107/1/174 131/1/175 124/1/167 99/1/166
f 105/1/176 129/1/177 122/1/154 97/1/153
f 103/1/178 128/1/179 121/1/171 95/1/170
f 101/1/180 126/1/181 119/1/158 93/1/157
f 88/1/182 109/1/183 110/1/143 96/1/142
f 102/1/147 127/1/146 131/1/175 107/1/174
f 104/1/141 111/1/140 129/1/177 105/1/176
f 106/1/135 130/1/134 126/1/181 101/1/180
f 108/1/129 132/1/128 128/1/179 103/1/178
f 170/2/184 171/2/185 118/2/186 92/2/186
f 90/1/187 116/1/187 123/1/137 98/1/136
f 158/2/188 159/2/189 116/2/190 90/2/190
f 86/1/191 113/1/192 120/1/149 94/1/148
f 92/1/193 118/1/193 125/1/131 100/1/130
f 85/2/156 112/2/155 113/2/192 86/2/191
f 87/2/169 114/2/168 109/2/183 88/2/182
f 191/2/194 192/2/194 153/2/195 149/2/196
f 149/2/196 153/2/195 154/2/197 150/2/198
f 181/2/199 182/2/199 151/2/200 147/2/201
f 147/2/201 151/2/200 152/2/202 148/2/203
f 193/2/204 191/2/204 149/2/205 134/2/206
f 134/2/206 149/2/205 150/2/207 133/2/208
f 183/2/209 181/2/209 147/2/210 136/2/211
f 136/2/211 147/2/210 148/2/212 135/2/213
f 177/2/19 183/2/19 136/2/19 133/2/19
f 133/2/19 136/2/19 135/2/19 134/2/19
f 182/2/214 178/2/214 139/2/215 151/2/216
f 151/2/216 139/2/215 140/2/217 152/2/218
f 192/2/219 189/2/219 137/2/220 153/2/221
f 153/2/221 137/2/220 138/2/222 154/2/223
f 196/2/224 144/2/225 142/2/226 195/2/227
f 144/2/225 143/2/228 141/2/229 142/2/226
f 195/2/227 142/2/226 137/2/230 189/2/231
f 142/2/226 141/2/229 138/2/232 137/2/230
f 180/2/233 143/2/228 146/2/234 185/2/235
f 143/2/228 144/2/225 145/2/236 146/2/234
f 185/2/235 146/2/234 139/2/237 178/2/238
f 146/2/234 145/2/236 140/2/239 139/2/237
f 28/2/24 157/2/240 161/2/241 21/2/25
f 25/2/31 163/2/39 157/2/240 28/2/24
f 117/2/50 21/2/50 161/2/242 165/2/243
f 15/2/19 18/2/19 155/2/19 160/2/19
f 18/2/161 91/2/161 164/2/244 155/2/245
f 91/2/186 117/2/186 165/2/246 164/2/247
f 186/2/248 187/2/248 159/2/189 158/2/188
f 177/2/249 186/2/249 158/2/163 160/2/162
f 187/2/250 184/2/250 156/2/43 159/2/42
f 180/2/251 163/2/39 162/2/33 179/2/252
f 179/2/252 162/2/33 156/2/36 184/2/253
f 24/2/34 168/2/254 173/2/255 19/2/35
f 26/2/31 169/2/30 168/2/254 24/2/34
f 115/2/44 19/2/44 173/2/256 176/2/257
f 16/2/164 89/2/164 175/2/258 166/2/259
f 89/2/190 115/2/190 176/2/260 175/2/261
f 197/2/262 198/2/262 171/2/185 170/2/184
f 188/2/263 197/2/263 170/2/160 172/2/159
f 193/2/19 188/2/19 172/2/19 166/2/19
f 198/2/264 194/2/264 167/2/49 171/2/48
f 196/2/265 169/2/30 174/2/23 190/2/266
f 190/2/266 174/2/23 167/2/26 194/2/267
f 141/2/229 179/2/268 184/2/269 138/2/232
f 143/2/228 180/2/233 179/2/268 141/2/229
f 154/2/223 138/2/222 184/2/270 187/2/270
f 133/2/208 150/2/207 186/2/271 177/2/271
f 150/2/198 154/2/197 187/2/272 186/2/272
f 157/2/240 185/2/273 178/2/274 161/2/241
f 163/2/39 180/2/251 185/2/273 157/2/240
f 165/2/243 161/2/242 178/2/275 182/2/275
f 160/2/19 155/2/19 183/2/19 177/2/19
f 155/2/245 164/2/244 181/2/276 183/2/276
f 164/2/247 165/2/246 182/2/277 181/2/277
f 145/2/236 190/2/278 194/2/279 140/2/239
f 144/2/225 196/2/224 190/2/278 145/2/236
f 152/2/218 140/2/217 194/2/280 198/2/280
f 134/2/19 135/2/19 188/2/19 193/2/19
f 135/2/213 148/2/212 197/2/281 188/2/281
f 148/2/203 152/2/202 198/2/282 197/2/282
f 168/2/254 195/2/283 189/2/284 173/2/255
f 169/2/30 196/2/265 195/2/283 168/2/254
f 176/2/257 173/2/256 189/2/285 192/2/285
f 166/2/259 175/2/258 191/2/286 193/2/286
f 175/2/261 176/2/260 192/2/287 191/2/287
f 213/3/288 215/3/289 202/3/290 200/3/291
f 219/3/292 221/3/293 216/3/294 212/3/295
f 220/3/296 208/3/297 203/3/298 214/3/299
f 201/3/300 204/3/301 210/3/302 206/3/303
f 207/3/304 209/3/305 222/3/306 218/3/307
f 199/3/308 200/3/291 201/3/300
f 202/3/290 203/3/298 204/3/301
f 205/4/309 206/3/303 207/3/304
f 208/3/297 209/3/305 210/3/302
f 211/3/310 212/3/295 213/3/288
f 214/3/299 215/3/289 216/3/294
f 217/3/311 218/3/307 219/3/292
f 220/3/296 221/3/293 222/3/306
f 205/4/309 199/3/308 201/3/300 206/3/303
f 200/3/291 202/3/290 204/3/301 201/3/300
f 203/3/298 208/3/297 210/3/302 204/3/301
f 209/3/305 207/3/304 206/3/303 210/3/302
f 217/3/311 205/4/309 207/3/304 218/3/307
f 208/3/297 220/3/296 222/3/306 209/3/305
f 221/3/293 219/3/292 218/3/307 222/3/306
f 211/3/310 217/3/311 219/3/292 212/3/295
f 220/3/296 214/3/299 216/3/294 221/3/293
f 215/3/289 213/3/288 212/3/295 216/3/294
f 199/3/308 211/3/310 213/3/288 200/3/291
f 214/3/299 203/3/298 202/3/290 215/3/289
f 205/4/309 217/3/311 211/3/310 199/3/308
