# Blender 4.1.0
# www.blender.org
mtllib grass_2.mtl
o grass_2
v -0.106450 0.445839 -0.092845
v -0.106296 0.333768 -0.156543
v -0.189719 -0.000115 -0.147517
v -0.076188 0.446305 -0.076120
v -0.050519 0.414451 -0.094878
v -0.024757 0.334241 -0.113712
v -0.230076 -0.000124 -0.066466
v -0.069055 0.445813 -0.043323
v -0.038529 0.413881 -0.034663
v -0.007752 0.333748 -0.026054
v -0.205297 -0.000127 0.020620
v -0.085971 0.446079 -0.020889
v -0.069242 0.414214 0.006077
v -0.052380 0.333987 0.032985
v -0.128317 -0.000123 0.068285
v -0.113601 0.446337 -0.015704
v -0.119417 0.414538 0.015498
v -0.125109 0.334218 0.046548
v -0.039315 -0.000114 0.051649
v -0.137516 0.446450 -0.030503
v -0.162852 0.414680 -0.011375
v -0.187987 0.334319 0.007599
v 0.015251 -0.000104 -0.020606
v -0.145206 0.446358 -0.057555
v -0.176816 0.414565 -0.060506
v -0.208240 0.334235 -0.063538
v -0.005514 0.000170 -0.127858
v -0.132659 0.446111 -0.082714
v -0.154024 0.414255 -0.106192
v -0.175292 0.334012 -0.129776
v -0.105289 -0.000106 -0.180227
v -0.107615 0.458769 -0.053157
v -0.106430 0.413913 -0.124583
v 0.197455 0.315220 0.048858
v 0.195039 0.206165 -0.019833
v 0.219477 0.308661 0.074699
v 0.242431 0.271726 0.063108
v 0.254968 0.187729 0.047635
v 0.214643 0.306530 0.107849
v 0.232617 0.268392 0.123627
v 0.240344 0.183309 0.135612
v 0.191551 0.310709 0.123302
v 0.190655 0.275834 0.151681
v 0.179372 0.193883 0.176207
v 0.164580 0.317362 0.118977
v 0.141644 0.287777 0.143821
v 0.108312 0.210963 0.164708
v 0.147825 0.323015 0.097108
v 0.111198 0.297981 0.104102
v 0.064229 0.225633 0.107157
v 0.150053 0.324708 0.069123
v 0.115258 0.301106 0.053282
v 0.070095 0.230245 0.033571
v 0.170091 0.321559 0.049655
v 0.151683 0.295522 0.017943
v 0.122865 0.222392 -0.017682
v 0.185598 0.328069 0.086779
v 0.201406 0.284160 0.016513
v 0.230076 -0.000170 0.022638
v 0.211405 -0.000170 0.131169
v -0.011781 -0.000170 0.000469
v 0.133212 -0.000170 0.180227
v 0.148649 -0.000170 -0.063073
v 0.055231 -0.000170 -0.061925
v 0.040775 -0.000170 0.164169
v -0.017639 -0.000170 0.091614
vn 0.0412 0.8227 -0.5670
vn 0.0539 0.2145 -0.9752
vn -0.6716 0.0682 -0.7378
vn 0.4534 0.8248 -0.3379
vn 0.6836 0.5237 -0.5084
vn 0.7840 0.2142 -0.5826
vn -0.9935 0.0657 -0.0926
vn 0.5548 0.8232 0.1206
vn 0.8292 0.5257 0.1901
vn 0.9512 0.2146 0.2219
vn -0.7964 0.0646 0.6013
vn 0.3020 0.8275 0.4732
vn 0.4496 0.5277 0.7207
vn 0.5146 0.2134 0.8305
vn -0.1829 0.0655 0.9809
vn -0.0977 0.8278 0.5524
vn -0.1541 0.5273 0.8356
vn -0.1793 0.2113 0.9608
vn 0.5258 0.0679 0.8479
vn -0.4473 0.8279 0.3382
vn -0.6780 0.5272 0.5122
vn -0.7801 0.2104 0.5892
vn 0.9716 0.0707 0.2258
vn -0.5580 0.8279 -0.0567
vn -0.8458 0.5274 -0.0802
vn -0.9732 0.2113 -0.0904
vn 0.8005 0.0713 -0.5951
vn -0.3725 0.8276 -0.4199
vn -0.5701 0.5279 -0.6296
vn -0.6579 0.2135 -0.7222
vn 0.0560 0.0708 -0.9959
vn 0.0001 1.0000 -0.0004
vn 0.0507 0.5253 -0.8494
vn 0.4111 0.7908 -0.4535
vn 0.4314 0.2174 -0.8756
vn 0.7097 0.6972 -0.1007
vn 0.9130 0.3510 -0.2080
vn 0.9632 0.0375 -0.2661
vn 0.6448 0.6722 0.3638
vn 0.8070 0.3192 0.4969
vn 0.8390 -0.0047 0.5442
vn 0.2939 0.7350 0.6110
vn 0.2786 0.4092 0.8689
vn 0.2337 0.1011 0.9670
vn -0.0985 0.8279 0.5521
vn -0.3125 0.5487 0.7754
vn -0.4413 0.2696 0.8559
vn -0.3445 0.9091 0.2343
vn -0.6804 0.6700 0.2969
vn -0.8560 0.4146 0.3088
vn -0.3103 0.9347 -0.1736
vn -0.6306 0.7091 -0.3156
vn -0.7983 0.4624 -0.3859
vn -0.0162 0.8914 -0.4529
vn -0.1902 0.6456 -0.7396
vn -0.3002 0.3893 -0.8708
vn 0.2179 0.9728 0.0791
vn 0.4519 0.4992 -0.7393
vn 0.9397 -0.0873 -0.3308
vn 0.8153 -0.1418 0.5614
vn -0.8443 0.3592 -0.3976
vn 0.1483 -0.0168 0.9888
vn 0.3342 0.1207 -0.9347
vn -0.3839 0.2915 -0.8761
vn -0.5393 0.1696 0.8249
vn -0.9127 0.3142 0.2613
vt 0.550376 0.100265
s 1
usemtl BASE_MATERIAL
f 8/1/8 4/1/4 32/1/32
f 10/1/10 23/1/23 27/1/27 6/1/6
f 4/1/4 1/1/1 32/1/32
f 29/1/29 30/1/30 26/1/26 25/1/25
f 13/1/13 14/1/14 10/1/10 9/1/9
f 12/1/12 13/1/13 9/1/9 8/1/8
f 8/1/8 9/1/9 5/1/5 4/1/4
f 16/1/16 17/1/17 13/1/13 12/1/12
f 12/1/12 8/1/8 32/1/32
f 20/1/20 21/1/21 17/1/17 16/1/16
f 17/1/17 18/1/18 14/1/14 13/1/13
f 16/1/16 12/1/12 32/1/32
f 21/1/21 22/1/22 18/1/18 17/1/17
f 24/1/24 25/1/25 21/1/21 20/1/20
f 25/1/25 26/1/26 22/1/22 21/1/21
f 32/1/32 20/1/20 16/1/16
f 28/1/28 29/1/29 25/1/25 24/1/24
f 33/1/33 2/1/2 30/1/30 29/1/29
f 32/1/32 24/1/24 20/1/20
f 33/1/33 29/1/29 28/1/28 1/1/1
f 32/1/32 28/1/28 24/1/24
f 9/1/9 10/1/10 6/1/6 5/1/5
f 32/1/32 1/1/1 28/1/28
f 4/1/4 5/1/5 33/1/33 1/1/1
f 26/1/26 7/1/7 11/1/11 22/1/22
f 2/1/2 31/1/31 3/1/3 30/1/30
f 14/1/14 19/1/19 23/1/23 10/1/10
f 30/1/30 3/1/3 7/1/7 26/1/26
f 6/1/6 27/1/27 31/1/31 2/1/2
f 22/1/22 11/1/11 15/1/15 18/1/18
f 18/1/18 15/1/15 19/1/19 14/1/14
f 5/1/5 6/1/6 2/1/2 33/1/33
f 39/1/39 36/1/36 57/1/57
f 36/1/36 34/1/34 57/1/57
f 55/1/55 56/1/56 53/1/53 52/1/52
f 43/1/43 44/1/44 41/1/41 40/1/40
f 42/1/42 43/1/43 40/1/40 39/1/39
f 39/1/39 40/1/40 37/1/37 36/1/36
f 45/1/45 46/1/46 43/1/43 42/1/42
f 42/1/42 39/1/39 57/1/57
f 48/1/48 49/1/49 46/1/46 45/1/45
f 46/1/46 47/1/47 44/1/44 43/1/43
f 45/1/45 42/1/42 57/1/57
f 49/1/49 50/1/50 47/1/47 46/1/46
f 51/1/51 52/1/52 49/1/49 48/1/48
f 52/1/52 53/1/53 50/1/50 49/1/49
f 57/1/57 48/1/48 45/1/45
f 54/1/54 55/1/55 52/1/52 51/1/51
f 58/1/58 35/1/35 56/1/56 55/1/55
f 57/1/57 51/1/51 48/1/48
f 58/1/58 55/1/55 54/1/54 34/1/34
f 57/1/57 54/1/54 51/1/51
f 40/1/40 41/1/41 38/1/38 37/1/37
f 57/1/57 34/1/34 54/1/54
f 36/1/36 37/1/37 58/1/58 34/1/34
f 53/1/53 61/1/61 66/1/66 50/1/50
f 56/1/56 35/1/35 63/1/63 64/1/64
f 41/1/41 44/1/44 62/1/62 60/1/60
f 53/1/53 56/1/56 64/1/64 61/1/61
f 35/1/35 38/1/38 59/1/59 63/1/63
f 47/1/47 50/1/50 66/1/66 65/1/65
f 44/1/44 47/1/47 65/1/65 62/1/62
f 37/1/37 38/1/38 35/1/35 58/1/58
f 41/1/41 60/1/60 59/1/59 38/1/38
