# Blender 4.1.0
# www.blender.org
mtllib grass_3.mtl
o grass_3
v -0.150336 0.348690 -0.067474
v -0.237693 0.000000 -0.063310
v -0.094559 0.430579 -0.005810
v -0.068797 0.349178 -0.024644
v -0.280068 0.000000 0.021793
v -0.082570 0.430008 0.054405
v -0.051793 0.348667 0.063015
v -0.254051 0.000000 0.113232
v -0.113282 0.430341 0.095146
v -0.096421 0.348909 0.122054
v -0.173222 0.000000 0.163280
v -0.163458 0.430665 0.104567
v -0.169150 0.349146 0.135617
v -0.079771 0.000000 0.145813
v -0.206893 0.430807 0.077694
v -0.232028 0.349250 0.096668
v -0.022476 0.000000 0.069946
v -0.220857 0.430692 0.028563
v -0.252280 0.349165 0.025531
v -0.044279 0.000000 -0.042668
v -0.198064 0.430382 -0.017123
v -0.219333 0.348938 -0.040708
v -0.149043 0.000000 -0.097655
v -0.151656 0.474896 0.035912
v -0.150471 0.430040 -0.035514
v -0.373769 0.207771 -0.283026
v -0.334394 0.297607 -0.221362
v -0.293816 0.223778 -0.240195
v -0.322515 0.299332 -0.161146
v -0.277030 0.226535 -0.152538
v -0.352729 0.293805 -0.120406
v -0.320943 0.218077 -0.093545
v -0.402046 0.284558 -0.110985
v -0.392323 0.204626 -0.079935
v -0.444712 0.276418 -0.137858
v -0.454068 0.192740 -0.118884
v -0.458397 0.273644 -0.186989
v -0.473933 0.188797 -0.190021
v -0.435964 0.277684 -0.232674
v -0.441546 0.194858 -0.256260
v -0.398892 0.330228 -0.179640
v -0.389178 0.286420 -0.251066
v -0.413944 0.000000 -0.275005
v -0.231303 0.000000 -0.255142
v -0.353055 0.000000 -0.056971
v -0.210645 0.000000 -0.146784
v -0.453984 0.000000 -0.193117
v -0.264771 0.000000 -0.073781
v -0.429412 0.000000 -0.105128
v -0.330194 0.000000 -0.308049
v 0.093752 0.199155 -0.292756
v 0.168243 0.262967 -0.231091
v 0.172721 0.178841 -0.249925
v 0.179691 0.259361 -0.170876
v 0.189039 0.174032 -0.162267
v 0.150077 0.267508 -0.130136
v 0.145944 0.185631 -0.103227
v 0.101639 0.280603 -0.120715
v 0.075674 0.204383 -0.089665
v 0.059674 0.291805 -0.147588
v 0.014895 0.220499 -0.128614
v 0.046141 0.295252 -0.196719
v -0.004710 0.225577 -0.199750
v 0.068103 0.289145 -0.242404
v 0.027094 0.216967 -0.265989
v 0.124320 0.320368 -0.189369
v 0.114039 0.276690 -0.260796
v -0.044527 0.000000 -0.284735
v 0.135516 0.000000 -0.264872
v 0.015475 0.000000 -0.066700
v 0.155708 0.000000 -0.156513
v -0.083944 0.000000 -0.202846
v 0.102415 0.000000 -0.083511
v -0.059731 0.000000 -0.114858
v 0.037945 0.000000 -0.317779
v 0.336518 0.367152 0.568616
v 0.260576 0.000000 0.486293
v 0.392779 0.435554 0.644611
v 0.419869 0.361238 0.607357
v 0.222115 0.000000 0.570864
v 0.407495 0.422267 0.702721
v 0.440834 0.342192 0.692039
v 0.252237 0.000000 0.659000
v 0.378661 0.412561 0.743680
v 0.398936 0.327887 0.751346
v 0.335219 0.000000 0.704696
v 0.328974 0.408985 0.754851
v 0.326916 0.322496 0.767397
v 0.427749 0.000000 0.684102
v 0.284379 0.413414 0.730348
v 0.262359 0.328820 0.731857
v 0.481526 0.000000 0.607963
v 0.268212 0.423537 0.682965
v 0.238915 0.343555 0.663272
v 0.454646 0.000000 0.499091
v 0.288913 0.434057 0.637495
v 0.268824 0.359021 0.597397
v 0.347547 0.000000 0.449431
v 0.336446 0.467560 0.697211
v 0.335616 0.439484 0.617674
v -0.071434 0.199155 0.364204
v -0.035059 0.262967 0.274603
v -0.054368 0.178841 0.276003
v 0.018914 0.259361 0.245555
v 0.024309 0.174032 0.234050
v 0.066681 0.267508 0.261529
v 0.093585 0.185631 0.257368
v 0.090249 0.280603 0.304882
v 0.127676 0.204383 0.320294
v 0.077259 0.291805 0.352992
v 0.108834 0.220499 0.389979
v 0.034482 0.295252 0.380689
v 0.046902 0.225577 0.430093
v -0.015696 0.289145 0.373502
v -0.025839 0.216967 0.419709
v 0.017951 0.320368 0.303926
v -0.047065 0.276690 0.335236
v -0.022150 0.000000 0.493651
v -0.057419 0.000000 0.315983
v 0.167700 0.000000 0.370785
v 0.039832 0.000000 0.264102
v 0.067807 0.000000 0.506583
v 0.125493 0.000000 0.292941
v 0.144422 0.000000 0.457001
v -0.078493 0.000000 0.424956
v 0.078804 0.096449 -0.577385
v 0.114946 0.169312 -0.659896
v 0.094930 0.085678 -0.667425
v 0.168633 0.168464 -0.689678
v 0.173196 0.084845 -0.710402
v 0.216604 0.174470 -0.673374
v 0.242768 0.093325 -0.686628
v 0.240659 0.182614 -0.629085
v 0.277563 0.104892 -0.622371
v 0.228183 0.188638 -0.579924
v 0.259466 0.113508 -0.551175
v 0.185679 0.189389 -0.551608
v 0.197930 0.114681 -0.510157
v 0.135391 0.184477 -0.558934
v 0.125031 0.107798 -0.520715
v 0.168699 0.208964 -0.625040
v 0.103585 0.176478 -0.598022
v 0.127543 0.000000 -0.470197
v 0.090332 0.000000 -0.651577
v 0.316177 0.000000 -0.595855
v 0.187076 0.000000 -0.704696
v 0.217695 0.000000 -0.457071
v 0.273101 0.000000 -0.675320
v 0.293818 0.000000 -0.507780
v 0.070422 0.000000 -0.540306
v -0.678480 0.167848 0.606544
v -0.643419 0.257360 0.541878
v -0.668749 0.179113 0.515651
v -0.591869 0.261718 0.508810
v -0.593546 0.185747 0.467966
v -0.542692 0.261503 0.522400
v -0.522231 0.185180 0.487744
v -0.515444 0.257395 0.565379
v -0.482817 0.178985 0.550047
v -0.524406 0.251535 0.615320
v -0.495832 0.170394 0.622349
v -0.564914 0.246985 0.646098
v -0.554472 0.163885 0.666953
v -0.615767 0.246127 0.641630
v -0.628172 0.162855 0.660592
v -0.584519 0.279038 0.584581
v -0.650399 0.249403 0.604302
v -0.635322 0.000000 0.655679
v -0.685486 0.000000 0.476486
v -0.455572 0.000000 0.518977
v -0.592512 0.000000 0.417611
v -0.544189 0.000000 0.663558
v -0.504346 0.000000 0.441987
v -0.471650 0.000000 0.608392
v -0.697480 0.000000 0.588869
v 0.474570 0.138218 0.119387
v 0.509631 0.227730 0.054721
v 0.484302 0.149483 0.028494
v 0.561182 0.232088 0.021653
v 0.559505 0.156117 -0.019191
v 0.610359 0.231873 0.035243
v 0.630820 0.155550 0.000587
v 0.637607 0.227765 0.078222
v 0.670234 0.149355 0.062890
v 0.628645 0.221905 0.128163
v 0.657218 0.140764 0.135192
v 0.588137 0.217355 0.158941
v 0.598578 0.134256 0.179796
v 0.537284 0.216497 0.154473
v 0.524879 0.133225 0.173435
v 0.568532 0.254788 0.097424
v 0.502652 0.219773 0.117144
v 0.517729 0.000000 0.168522
v 0.467565 0.000000 -0.010671
v 0.697479 0.000000 0.031820
v 0.560538 0.000000 -0.069546
v 0.608862 0.000000 0.176401
v 0.648705 0.000000 -0.045170
v 0.681401 0.000000 0.121235
v 0.455571 0.000000 0.101712
vn 0.0539 0.2200 -0.9740
vn -0.6707 0.0830 -0.7371
vn 0.6423 0.5993 -0.4777
vn 0.7830 0.2197 -0.5819
vn -0.9925 0.0800 -0.0926
vn 0.7801 0.5996 0.1786
vn 0.9500 0.2200 0.2216
vn -0.7956 0.0786 0.6007
vn 0.4231 0.6030 0.6763
vn 0.5139 0.2184 0.8296
vn -0.1826 0.0798 0.9800
vn -0.1442 0.6014 0.7859
vn -0.1792 0.2161 0.9598
vn 0.5254 0.0827 0.8468
vn -0.6379 0.6007 0.4819
vn -0.7793 0.2151 0.5886
vn 0.9705 0.0861 0.2251
vn -0.7954 0.6013 -0.0761
vn -0.9722 0.2162 -0.0902
vn 0.7995 0.0868 -0.5943
vn -0.5348 0.6029 -0.5920
vn -0.6572 0.2186 -0.7213
vn 0.0563 0.0863 -0.9947
vn 0.0012 1.0000 -0.0015
vn 0.0481 0.5989 -0.7994
vn 0.0121 0.2431 -0.9699
vn 0.5146 0.7127 -0.4767
vn 0.7266 0.3765 -0.5747
vn 0.6496 0.7390 0.1786
vn 0.8876 0.4056 0.2185
vn 0.2994 0.6741 0.6753
vn 0.4653 0.3262 0.8228
vn -0.2560 0.5649 0.7844
vn -0.2174 0.1933 0.9568
vn -0.7399 0.4704 0.4810
vn -0.8081 0.0720 0.5847
vn -0.8943 0.4411 -0.0759
vn -0.9954 0.0337 -0.0892
vn -0.6393 0.4922 -0.5908
vn -0.6894 0.1012 -0.7173
vn -0.1894 0.9819 -0.0015
vn -0.0674 0.5992 -0.7977
vn -0.6496 -0.0204 -0.7600
vn 0.7880 0.2600 -0.5581
vn -0.1456 0.0796 0.9861
vn 0.9358 0.2835 0.2096
vn -0.9901 -0.1016 -0.0970
vn 0.5386 0.2116 0.8156
vn -0.7810 -0.0560 0.6221
vn 0.0975 0.1349 -0.9860
vn 0.1089 0.2155 -0.9704
vn 0.7731 0.4184 -0.4767
vn 0.8178 0.0155 -0.5753
vn 0.9061 0.3836 0.1782
vn 0.9754 -0.0316 0.2181
vn 0.5624 0.4776 0.6750
vn 0.5585 0.0890 0.8247
vn 0.0145 0.6202 0.7843
vn -0.1211 0.2719 0.9547
vn -0.4621 0.7451 0.4810
vn -0.7015 0.4167 0.5781
vn -0.6139 0.7857 -0.0759
vn -0.8829 0.4613 -0.0880
vn -0.3620 0.7210 -0.5908
vn -0.5843 0.3922 -0.7104
vn 0.2559 0.9667 -0.0015
vn 0.1996 0.5690 -0.7977
vn -0.6678 0.2804 -0.6895
vn 0.7693 -0.1079 -0.6297
vn -0.2259 0.1693 0.9593
vn 0.9557 -0.1710 0.2396
vn -0.9380 0.3362 -0.0842
vn 0.4852 -0.0248 0.8741
vn -0.7758 0.2993 0.5555
vn -0.0023 0.1185 -0.9930
vn 0.0051 0.4332 -0.9013
vn -0.6592 0.2356 -0.7141
vn 0.6035 0.7123 -0.3583
vn 0.7448 0.3747 -0.5521
vn -0.9922 0.0730 -0.1013
vn 0.7708 0.5741 0.2762
vn 0.9532 0.1976 0.2288
vn -0.7920 -0.1090 0.6008
vn 0.4367 0.4555 0.7758
vn 0.5412 0.0321 0.8403
vn -0.1400 -0.1906 0.9716
vn -0.1248 0.4093 0.9038
vn -0.1411 -0.0302 0.9895
vn 0.5902 -0.1123 0.7994
vn -0.6315 0.4571 0.6263
vn -0.7548 0.0350 0.6550
vn 0.9885 0.0827 0.1270
vn -0.8141 0.5739 0.0885
vn -0.9814 0.1920 -0.0030
vn 0.7269 0.2610 -0.6352
vn -0.5773 0.6978 -0.4240
vn -0.6892 0.3516 -0.6336
vn 0.0185 0.3123 -0.9498
vn -0.0261 0.9755 0.2186
vn -0.0045 0.7606 -0.6492
vn -0.9582 0.2155 0.1883
vn -0.6874 0.4184 -0.5937
vn -0.7949 0.0155 -0.6066
vn -0.1029 0.3836 -0.9177
vn -0.0857 -0.0316 -0.9958
vn 0.4743 0.4776 -0.7396
vn 0.6183 0.0890 -0.7809
vn 0.7435 0.6203 -0.2500
vn 0.9468 0.2719 -0.1719
vn 0.5978 0.7451 0.2958
vn 0.7625 0.4167 0.4949
vn 0.1124 0.7857 0.6082
vn 0.1820 0.4613 0.8684
vn -0.4544 0.7210 0.5231
vn -0.5015 0.3922 0.7711
vn -0.0785 0.9667 -0.2436
vn -0.8208 0.5690 0.0499
vn -0.4564 0.2804 0.8444
vn -0.8321 -0.1079 -0.5440
vn 0.9828 0.1693 -0.0735
vn -0.0592 -0.1710 -0.9835
vn 0.2022 0.3362 0.9198
vn 0.6874 -0.0248 -0.7258
vn 0.7633 0.2993 0.5726
vn -0.9462 0.1185 0.3011
vn -0.9534 0.2356 0.1882
vn -0.6641 0.5333 -0.5239
vn -0.7958 0.0760 -0.6007
vn -0.1077 0.5290 -0.8417
vn -0.1040 0.0676 -0.9923
vn 0.4448 0.5996 -0.6653
vn 0.5953 0.1966 -0.7791
vn 0.7034 0.6851 -0.1892
vn 0.9198 0.3525 -0.1725
vn 0.5687 0.7497 0.3385
vn 0.7443 0.4548 0.4891
vn 0.1121 0.7594 0.6409
vn 0.1773 0.4707 0.8643
vn -0.4264 0.7095 0.5611
vn -0.4981 0.3972 0.7708
vn -0.0784 0.9859 -0.1479
vn -0.7834 0.6127 0.1042
vn -0.4333 0.3730 0.8205
vn -0.8391 -0.0563 -0.5411
vn 0.9433 0.3223 -0.0788
vn -0.0452 -0.0736 -0.9963
vn 0.2014 0.4464 0.8719
vn 0.6858 0.1269 -0.7167
vn 0.7294 0.4301 0.5319
vn -0.9305 0.1901 0.3130
vn -0.9241 0.1862 0.3336
vn -0.6458 0.6963 -0.3132
vn -0.8276 0.2921 -0.4794
vn -0.1271 0.7479 -0.6515
vn -0.1470 0.3611 -0.9209
vn 0.4220 0.7488 -0.5110
vn 0.5699 0.3524 -0.7423
vn 0.7106 0.7007 -0.0644
vn 0.9456 0.2859 -0.1554
vn 0.6200 0.6350 0.4609
vn 0.8240 0.1940 0.5323
vn 0.1932 0.5867 0.7865
vn 0.2671 0.1256 0.9554
vn -0.3429 0.5817 0.7376
vn -0.4299 0.1202 0.8948
vn -0.0252 0.9918 0.1253
vn -0.7236 0.6189 0.3055
vn -0.4489 -0.0073 0.8935
vn -0.8187 0.1939 -0.5406
vn 0.9604 0.1819 -0.2109
vn -0.1349 0.2611 -0.9558
vn 0.2924 -0.0018 0.9563
vn 0.5690 0.2503 -0.7833
vn 0.8645 0.0803 0.4961
vn -0.9553 0.0756 0.2857
vn -0.9214 0.1928 0.3374
vn -0.6600 0.6777 -0.3242
vn -0.8254 0.3094 -0.4722
vn -0.1291 0.7305 -0.6706
vn -0.1472 0.3841 -0.9115
vn 0.4332 0.7307 -0.5276
vn 0.5665 0.3743 -0.7342
vn 0.7287 0.6813 -0.0700
vn 0.9414 0.3021 -0.1503
vn 0.6354 0.6143 0.4679
vn 0.8206 0.2011 0.5350
vn 0.1983 0.5653 0.8007
vn 0.2654 0.1251 0.9560
vn -0.3499 0.5605 0.7506
vn -0.4287 0.1192 0.8956
vn -0.0247 0.9920 0.1235
vn -0.7386 0.5993 0.3087
vn -0.4513 -0.0088 0.8923
vn -0.8095 0.2309 -0.5399
vn 0.9527 0.2169 -0.2131
vn -0.1319 0.3069 -0.9425
vn 0.2955 -0.0020 0.9553
vn 0.5604 0.2946 -0.7740
vn 0.8659 0.0975 0.4905
vn -0.9558 0.0921 0.2793
vt 0.550376 0.100265
s 1
usemtl BASE_MATERIAL
f 6/1/6 24/1/24 9/1/9
f 82/1/82 92/1/92 95/1/95 79/1/79
f 6/1/6 3/1/3 24/1/24
f 10/1/10 13/1/13 11/1/11 14/1/14
f 21/1/21 22/1/22 19/1/19 18/1/18
f 9/1/9 10/1/10 7/1/7 6/1/6
f 9/1/9 24/1/24 12/1/12
f 13/1/13 16/1/16 8/1/8 11/1/11
f 24/1/24 15/1/15 12/1/12
f 1/1/1 4/1/4 20/1/20 23/1/23
f 24/1/24 18/1/18 15/1/15
f 12/1/12 13/1/13 10/1/10 9/1/9
f 19/1/19 22/1/22 2/1/2 5/1/5
f 15/1/15 16/1/16 13/1/13 12/1/12
f 24/1/24 21/1/21 18/1/18
f 18/1/18 19/1/19 16/1/16 15/1/15
f 24/1/24 25/1/25 21/1/21
f 7/1/7 10/1/10 14/1/14 17/1/17
f 25/1/25 1/1/1 22/1/22 21/1/21
f 27/1/27 42/1/42 41/1/41
f 6/1/6 7/1/7 4/1/4 3/1/3
f 22/1/22 1/1/1 23/1/23 2/1/2
f 16/1/16 19/1/19 5/1/5 8/1/8
f 3/1/3 4/1/4 1/1/1 25/1/25
f 29/1/29 41/1/41 31/1/31
f 29/1/29 27/1/27 41/1/41
f 39/1/39 40/1/40 38/1/38 37/1/37
f 31/1/31 32/1/32 30/1/30 29/1/29
f 31/1/31 41/1/41 33/1/33
f 41/1/41 35/1/35 33/1/33
f 41/1/41 37/1/37 35/1/35
f 33/1/33 34/1/34 32/1/32 31/1/31
f 35/1/35 36/1/36 34/1/34 33/1/33
f 41/1/41 39/1/39 37/1/37
f 37/1/37 38/1/38 36/1/36 35/1/35
f 41/1/41 42/1/42 39/1/39
f 42/1/42 26/1/26 40/1/40 39/1/39
f 78/1/78 100/1/100 99/1/99
f 29/1/29 30/1/30 28/1/28 27/1/27
f 38/1/38 47/1/47 49/1/49 36/1/36
f 26/1/26 50/1/50 43/1/43 40/1/40
f 32/1/32 48/1/48 46/1/46 30/1/30
f 40/1/40 43/1/43 47/1/47 38/1/38
f 28/1/28 44/1/44 50/1/50 26/1/26
f 36/1/36 49/1/49 45/1/45 34/1/34
f 34/1/34 45/1/45 48/1/48 32/1/32
f 27/1/27 28/1/28 26/1/26 42/1/42
f 54/1/54 66/1/66 56/1/56
f 54/1/54 52/1/52 66/1/66
f 64/1/64 65/1/65 63/1/63 62/1/62
f 56/1/56 57/1/57 55/1/55 54/1/54
f 56/1/56 66/1/66 58/1/58
f 66/1/66 60/1/60 58/1/58
f 66/1/66 62/1/62 60/1/60
f 58/1/58 59/1/59 57/1/57 56/1/56
f 60/1/60 61/1/61 59/1/59 58/1/58
f 66/1/66 64/1/64 62/1/62
f 62/1/62 63/1/63 61/1/61 60/1/60
f 66/1/66 67/1/67 64/1/64
f 67/1/67 51/1/51 65/1/65 64/1/64
f 54/1/54 55/1/55 53/1/53 52/1/52
f 63/1/63 72/1/72 74/1/74 61/1/61
f 51/1/51 75/1/75 68/1/68 65/1/65
f 57/1/57 73/1/73 71/1/71 55/1/55
f 65/1/65 68/1/68 72/1/72 63/1/63
f 53/1/53 69/1/69 75/1/75 51/1/51
f 61/1/61 74/1/74 70/1/70 59/1/59
f 59/1/59 70/1/70 73/1/73 57/1/57
f 52/1/52 53/1/53 51/1/51 67/1/67
f 30/1/30 46/1/46 44/1/44 28/1/28
f 55/1/55 71/1/71 69/1/69 53/1/53
f 81/1/81 99/1/99 84/1/84
f 81/1/81 78/1/78 99/1/99
f 85/1/85 88/1/88 86/1/86 89/1/89
f 96/1/96 97/1/97 94/1/94 93/1/93
f 84/1/84 85/1/85 82/1/82 81/1/81
f 84/1/84 99/1/99 87/1/87
f 88/1/88 91/1/91 83/1/83 86/1/86
f 99/1/99 90/1/90 87/1/87
f 76/1/76 79/1/79 95/1/95 98/1/98
f 99/1/99 93/1/93 90/1/90
f 87/1/87 88/1/88 85/1/85 84/1/84
f 94/1/94 97/1/97 77/1/77 80/1/80
f 90/1/90 91/1/91 88/1/88 87/1/87
f 99/1/99 96/1/96 93/1/93
f 93/1/93 94/1/94 91/1/91 90/1/90
f 99/1/99 100/1/100 96/1/96
f 82/1/82 85/1/85 89/1/89 92/1/92
f 100/1/100 76/1/76 97/1/97 96/1/96
f 102/1/102 117/1/117 116/1/116
f 81/1/81 82/1/82 79/1/79 78/1/78
f 97/1/97 76/1/76 98/1/98 77/1/77
f 91/1/91 94/1/94 80/1/80 83/1/83
f 78/1/78 79/1/79 76/1/76 100/1/100
f 104/1/104 116/1/116 106/1/106
f 104/1/104 102/1/102 116/1/116
f 114/1/114 115/1/115 113/1/113 112/1/112
f 106/1/106 107/1/107 105/1/105 104/1/104
f 106/1/106 116/1/116 108/1/108
f 116/1/116 110/1/110 108/1/108
f 116/1/116 112/1/112 110/1/110
f 108/1/108 109/1/109 107/1/107 106/1/106
f 110/1/110 111/1/111 109/1/109 108/1/108
f 116/1/116 114/1/114 112/1/112
f 112/1/112 113/1/113 111/1/111 110/1/110
f 116/1/116 117/1/117 114/1/114
f 117/1/117 101/1/101 115/1/115 114/1/114
f 104/1/104 105/1/105 103/1/103 102/1/102
f 113/1/113 122/1/122 124/1/124 111/1/111
f 101/1/101 125/1/125 118/1/118 115/1/115
f 107/1/107 123/1/123 121/1/121 105/1/105
f 115/1/115 118/1/118 122/1/122 113/1/113
f 103/1/103 119/1/119 125/1/125 101/1/101
f 111/1/111 124/1/124 120/1/120 109/1/109
f 109/1/109 120/1/120 123/1/123 107/1/107
f 102/1/102 103/1/103 101/1/101 117/1/117
f 105/1/105 121/1/121 119/1/119 103/1/103
f 129/1/129 141/1/141 131/1/131
f 129/1/129 127/1/127 141/1/141
f 139/1/139 140/1/140 138/1/138 137/1/137
f 131/1/131 132/1/132 130/1/130 129/1/129
f 131/1/131 141/1/141 133/1/133
f 141/1/141 135/1/135 133/1/133
f 141/1/141 137/1/137 135/1/135
f 133/1/133 134/1/134 132/1/132 131/1/131
f 135/1/135 136/1/136 134/1/134 133/1/133
f 141/1/141 139/1/139 137/1/137
f 137/1/137 138/1/138 136/1/136 135/1/135
f 141/1/141 142/1/142 139/1/139
f 142/1/142 126/1/126 140/1/140 139/1/139
f 129/1/129 130/1/130 128/1/128 127/1/127
f 138/1/138 147/1/147 149/1/149 136/1/136
f 126/1/126 150/1/150 143/1/143 140/1/140
f 132/1/132 148/1/148 146/1/146 130/1/130
f 140/1/140 143/1/143 147/1/147 138/1/138
f 128/1/128 144/1/144 150/1/150 126/1/126
f 136/1/136 149/1/149 145/1/145 134/1/134
f 134/1/134 145/1/145 148/1/148 132/1/132
f 127/1/127 128/1/128 126/1/126 142/1/142
f 130/1/130 146/1/146 144/1/144 128/1/128
f 154/1/154 166/1/166 156/1/156
f 154/1/154 152/1/152 166/1/166
f 164/1/164 165/1/165 163/1/163 162/1/162
f 156/1/156 157/1/157 155/1/155 154/1/154
f 156/1/156 166/1/166 158/1/158
f 166/1/166 160/1/160 158/1/158
f 166/1/166 162/1/162 160/1/160
f 158/1/158 159/1/159 157/1/157 156/1/156
f 160/1/160 161/1/161 159/1/159 158/1/158
f 166/1/166 164/1/164 162/1/162
f 162/1/162 163/1/163 161/1/161 160/1/160
f 166/1/166 167/1/167 164/1/164
f 167/1/167 151/1/151 165/1/165 164/1/164
f 154/1/154 155/1/155 153/1/153 152/1/152
f 163/1/163 172/1/172 174/1/174 161/1/161
f 151/1/151 175/1/175 168/1/168 165/1/165
f 157/1/157 173/1/173 171/1/171 155/1/155
f 165/1/165 168/1/168 172/1/172 163/1/163
f 153/1/153 169/1/169 175/1/175 151/1/151
f 161/1/161 174/1/174 170/1/170 159/1/159
f 159/1/159 170/1/170 173/1/173 157/1/157
f 152/1/152 153/1/153 151/1/151 167/1/167
f 155/1/155 171/1/171 169/1/169 153/1/153
f 179/1/179 191/1/191 181/1/181
f 179/1/179 177/1/177 191/1/191
f 189/1/189 190/1/190 188/1/188 187/1/187
f 181/1/181 182/1/182 180/1/180 179/1/179
f 181/1/181 191/1/191 183/1/183
f 191/1/191 185/1/185 183/1/183
f 191/1/191 187/1/187 185/1/185
f 183/1/183 184/1/184 182/1/182 181/1/181
f 185/1/185 186/1/186 184/1/184 183/1/183
f 191/1/191 189/1/189 187/1/187
f 187/1/187 188/1/188 186/1/186 185/1/185
f 191/1/191 192/1/192 189/1/189
f 192/1/192 176/1/176 190/1/190 189/1/189
f 127/1/127 142/1/142 141/1/141
f 179/1/179 180/1/180 178/1/178 177/1/177
f 188/1/188 197/1/197 199/1/199 186/1/186
f 176/1/176 200/1/200 193/1/193 190/1/190
f 182/1/182 198/1/198 196/1/196 180/1/180
f 190/1/190 193/1/193 197/1/197 188/1/188
f 178/1/178 194/1/194 200/1/200 176/1/176
f 186/1/186 199/1/199 195/1/195 184/1/184
f 184/1/184 195/1/195 198/1/198 182/1/182
f 177/1/177 178/1/178 176/1/176 192/1/192
f 180/1/180 196/1/196 194/1/194 178/1/178
f 7/1/7 17/1/17 20/1/20 4/1/4
f 177/1/177 192/1/192 191/1/191
f 152/1/152 167/1/167 166/1/166
f 52/1/52 67/1/67 66/1/66
f 3/1/3 25/1/25 24/1/24
