# Blender 4.1.0
# www.blender.org
mtllib house_small.mtl
o house_small
v -0.546042 1.395491 1.756420
v -0.666684 1.274849 1.756420
v -1.255142 1.274849 1.756420
v -1.375783 1.395491 1.756420
v -1.375783 1.831116 1.756420
v -1.255142 1.951757 1.756420
v -0.666684 1.951757 1.756420
v -0.546042 1.831116 1.756420
v -0.546042 1.395530 2.055170
v -0.634272 1.432088 2.143400
v -0.571884 1.406242 2.117558
v -0.703281 1.363079 2.143400
v -0.666723 1.274849 2.055170
v -0.677435 1.300691 2.117558
v -0.546042 1.831076 2.055170
v -0.634272 1.794518 2.143400
v -0.571884 1.820364 2.117558
v -1.218544 1.363079 2.143400
v -1.255102 1.274849 2.055170
v -1.244390 1.300691 2.117558
v -1.287554 1.432088 2.143400
v -1.375783 1.395530 2.055170
v -1.349941 1.406242 2.117558
v -1.287554 1.794518 2.143400
v -1.375783 1.831076 2.055170
v -1.349941 1.820364 2.117558
v -1.218545 1.863528 2.143400
v -1.255102 1.951757 2.055170
v -1.244390 1.925915 2.117558
v -0.703281 1.863528 2.143400
v -0.666723 1.951757 2.055170
v -0.677435 1.925915 2.117558
v -0.731746 1.507784 2.044437
v -0.751761 1.487768 2.044437
v -0.731746 1.718822 2.044437
v -1.170064 1.487768 2.044437
v -1.190079 1.507784 2.044437
v -1.190079 1.718822 2.044437
v -1.170064 1.738838 2.044437
v -0.751761 1.738838 2.044437
v -0.722437 1.739648 2.084019
v -0.704078 1.751074 2.131504
v -0.744011 1.761222 2.084019
v -0.735550 1.782474 2.131508
v -0.744011 1.465384 2.084019
v -0.735550 1.444132 2.131508
v -0.722437 1.486959 2.084019
v -0.704078 1.475533 2.131504
v -1.199388 1.486959 2.084019
v -1.217747 1.475533 2.131504
v -1.177814 1.465384 2.084019
v -1.186275 1.444132 2.131508
v -1.177814 1.761222 2.084019
v -1.186275 1.782474 2.131508
v -1.199388 1.739648 2.084019
v -1.217747 1.751074 2.131504
v 1.369187 1.395491 1.756420
v 1.248546 1.274849 1.756420
v 0.660088 1.274849 1.756420
v 0.539446 1.395491 1.756420
v 0.539446 1.831116 1.756420
v 0.660088 1.951757 1.756420
v 1.248546 1.951757 1.756420
v 1.369187 1.831116 1.756420
v 1.369187 1.395530 2.055170
v 1.280958 1.432088 2.143400
v 1.343346 1.406242 2.117558
v 1.211949 1.363079 2.143400
v 1.248506 1.274849 2.055170
v 1.237794 1.300691 2.117558
v 1.369187 1.831076 2.055170
v 1.280958 1.794518 2.143400
v 1.343346 1.820364 2.117558
v 0.696685 1.363079 2.143400
v 0.660127 1.274849 2.055170
v 0.670839 1.300691 2.117558
v 0.627676 1.432088 2.143400
v 0.539446 1.395530 2.055170
v 0.565288 1.406242 2.117558
v 0.627676 1.794518 2.143400
v 0.539446 1.831076 2.055170
v 0.565288 1.820364 2.117558
v 0.696685 1.863528 2.143400
v 0.660127 1.951757 2.055170
v 0.670840 1.925915 2.117558
v 1.211949 1.863528 2.143400
v 1.248506 1.951757 2.055170
v 1.237794 1.925915 2.117558
v 1.183484 1.507784 2.044437
v 1.163468 1.487768 2.044437
v 1.183484 1.718822 2.044437
v 0.745166 1.487768 2.044437
v 0.725150 1.507784 2.044437
v 0.725150 1.718822 2.044437
v 0.745166 1.738838 2.044437
v 1.163468 1.738838 2.044437
v 1.192793 1.739648 2.084019
v 1.211151 1.751074 2.131504
v 1.171218 1.761222 2.084019
v 1.179679 1.782474 2.131508
v 1.171218 1.465384 2.084019
v 1.179679 1.444132 2.131508
v 1.192793 1.486959 2.084019
v 1.211151 1.475533 2.131504
v 0.715841 1.486959 2.084019
v 0.697482 1.475533 2.131504
v 0.737416 1.465384 2.084019
v 0.728955 1.444132 2.131508
v 0.737415 1.761222 2.084019
v 0.728954 1.782474 2.131508
v 0.715841 1.739648 2.084019
v 0.697482 1.751074 2.131504
v -0.546042 1.395491 -1.779589
v -0.666684 1.274849 -1.779589
v -1.255142 1.274849 -1.779589
v -1.375783 1.395491 -1.779589
v -1.375783 1.831116 -1.779589
v -1.255142 1.951757 -1.779589
v -0.666684 1.951757 -1.779589
v -0.546042 1.831116 -1.779589
v -0.546042 1.395530 -2.078339
v -0.634272 1.432088 -2.166569
v -0.571884 1.406242 -2.140726
v -0.703281 1.363079 -2.166569
v -0.666723 1.274849 -2.078339
v -0.677435 1.300691 -2.140726
v -0.546042 1.831076 -2.078339
v -0.634272 1.794518 -2.166569
v -0.571884 1.820364 -2.140726
v -1.218544 1.363079 -2.166569
v -1.255102 1.274849 -2.078339
v -1.244390 1.300691 -2.140726
v -1.287554 1.432088 -2.166569
v -1.375783 1.395530 -2.078339
v -1.349941 1.406242 -2.140726
v -1.287554 1.794518 -2.166569
v -1.375783 1.831076 -2.078339
v -1.349941 1.820364 -2.140726
v -1.218545 1.863528 -2.166569
v -1.255102 1.951757 -2.078339
v -1.244390 1.925915 -2.140726
v -0.703281 1.863528 -2.166569
v -0.666723 1.951757 -2.078339
v -0.677435 1.925915 -2.140726
v -0.731746 1.507784 -2.067606
v -0.751761 1.487768 -2.067606
v -0.731746 1.718822 -2.067606
v -1.170064 1.487768 -2.067606
v -1.190079 1.507784 -2.067606
v -1.190079 1.718822 -2.067606
v -1.170064 1.738838 -2.067606
v -0.751761 1.738838 -2.067606
v -0.722437 1.739648 -2.107189
v -0.704078 1.751074 -2.154673
v -0.744011 1.761222 -2.107189
v -0.735550 1.782474 -2.154678
v -0.744011 1.465384 -2.107189
v -0.735550 1.444132 -2.154678
v -0.722437 1.486959 -2.107189
v -0.704078 1.475533 -2.154673
v -1.199388 1.486959 -2.107189
v -1.217747 1.475533 -2.154673
v -1.177814 1.465384 -2.107189
v -1.186275 1.444132 -2.154678
v -1.177814 1.761222 -2.107189
v -1.186275 1.782474 -2.154678
v -1.199388 1.739648 -2.107189
v -1.217747 1.751074 -2.154673
v 1.369187 1.395491 -1.779589
v 1.248546 1.274849 -1.779589
v 0.660088 1.274849 -1.779589
v 0.539446 1.395491 -1.779589
v 0.539446 1.831116 -1.779589
v 0.660088 1.951757 -1.779589
v 1.248546 1.951757 -1.779589
v 1.369187 1.831116 -1.779589
v 1.369187 1.395530 -2.078339
v 1.280958 1.432088 -2.166569
v 1.343346 1.406242 -2.140726
v 1.211949 1.363079 -2.166569
v 1.248506 1.274849 -2.078339
v 1.237794 1.300691 -2.140726
v 1.369187 1.831076 -2.078339
v 1.280958 1.794518 -2.166569
v 1.343346 1.820364 -2.140726
v 0.696685 1.363079 -2.166569
v 0.660127 1.274849 -2.078339
v 0.670839 1.300691 -2.140726
v 0.627676 1.432088 -2.166569
v 0.539446 1.395530 -2.078339
v 0.565288 1.406242 -2.140726
v 0.627676 1.794518 -2.166569
v 0.539446 1.831076 -2.078339
v 0.565288 1.820364 -2.140726
v 0.696685 1.863528 -2.166569
v 0.660127 1.951757 -2.078339
v 0.670840 1.925915 -2.140726
v 1.211949 1.863528 -2.166569
v 1.248506 1.951757 -2.078339
v 1.237794 1.925915 -2.140726
v 1.183484 1.507784 -2.067606
v 1.163468 1.487768 -2.067606
v 1.183484 1.718822 -2.067606
v 0.745166 1.487768 -2.067606
v 0.725150 1.507784 -2.067606
v 0.725150 1.718822 -2.067606
v 0.745166 1.738838 -2.067606
v 1.163468 1.738838 -2.067606
v 1.192793 1.739648 -2.107189
v 1.211151 1.751074 -2.154673
v 1.171218 1.761222 -2.107189
v 1.179679 1.782474 -2.154678
v 1.171218 1.465384 -2.107189
v 1.179679 1.444132 -2.154678
v 1.192793 1.486959 -2.107189
v 1.211151 1.475533 -2.154673
v 0.715841 1.486959 -2.107189
v 0.697482 1.475533 -2.154673
v 0.737416 1.465384 -2.107189
v 0.728955 1.444132 -2.154678
v 0.737415 1.761222 -2.107189
v 0.728954 1.782474 -2.154678
v 0.715841 1.739648 -2.107189
v 0.697482 1.751074 -2.154673
v 2.051562 1.395491 -1.369408
v 2.051562 1.274849 -1.248766
v 2.051562 1.274849 -0.660307
v 2.051562 1.395491 -0.539665
v 2.051562 1.831116 -0.539665
v 2.051562 1.951757 -0.660307
v 2.051562 1.951757 -1.248766
v 2.051562 1.831116 -1.369408
v 2.350312 1.395530 -1.369408
v 2.438542 1.432088 -1.281178
v 2.412699 1.406243 -1.343565
v 2.438542 1.363079 -1.212168
v 2.350312 1.274849 -1.248726
v 2.412700 1.300691 -1.238014
v 2.350312 1.831076 -1.369408
v 2.438542 1.794518 -1.281178
v 2.412699 1.820364 -1.343565
v 2.438542 1.363079 -0.696905
v 2.350312 1.274849 -0.660347
v 2.412700 1.300691 -0.671059
v 2.438542 1.432088 -0.627895
v 2.350312 1.395530 -0.539665
v 2.412700 1.406243 -0.565508
v 2.438542 1.794518 -0.627895
v 2.350312 1.831076 -0.539665
v 2.412700 1.820364 -0.565508
v 2.438542 1.863528 -0.696905
v 2.350312 1.951757 -0.660347
v 2.412700 1.925916 -0.671059
v 2.438542 1.863528 -1.212168
v 2.350312 1.951757 -1.248726
v 2.412700 1.925916 -1.238014
v 2.339579 1.507784 -1.183704
v 2.339579 1.487768 -1.163689
v 2.339579 1.718822 -1.183704
v 2.339579 1.487768 -0.745386
v 2.339579 1.507784 -0.725370
v 2.339579 1.718822 -0.725370
v 2.339579 1.738838 -0.745386
v 2.339579 1.738838 -1.163689
v 2.379162 1.739648 -1.193012
v 2.426646 1.751074 -1.211370
v 2.379162 1.761222 -1.171438
v 2.426651 1.782474 -1.179899
v 2.379162 1.465384 -1.171438
v 2.426651 1.444132 -1.179899
v 2.379162 1.486959 -1.193012
v 2.426646 1.475533 -1.211370
v 2.379162 1.486959 -0.716061
v 2.426646 1.475533 -0.697702
v 2.379162 1.465384 -0.737635
v 2.426651 1.444132 -0.729174
v 2.379162 1.761222 -0.737635
v 2.426651 1.782474 -0.729174
v 2.379162 1.739648 -0.716061
v 2.426646 1.751074 -0.697702
v -2.051585 1.395491 -1.369408
v -2.051585 1.274849 -1.248766
v -2.051585 1.274849 -0.660307
v -2.051586 1.395491 -0.539665
v -2.051586 1.831116 -0.539665
v -2.051585 1.951757 -0.660307
v -2.051585 1.951757 -1.248766
v -2.051585 1.831116 -1.369408
v -2.350336 1.395530 -1.369408
v -2.438565 1.432088 -1.281178
v -2.412724 1.406243 -1.343565
v -2.438565 1.363079 -1.212168
v -2.350336 1.274849 -1.248726
v -2.412724 1.300691 -1.238014
v -2.350336 1.831076 -1.369408
v -2.438565 1.794518 -1.281178
v -2.412724 1.820364 -1.343565
v -2.438565 1.363079 -0.696905
v -2.350336 1.274849 -0.660347
v -2.412724 1.300691 -0.671059
v -2.438565 1.432088 -0.627895
v -2.350336 1.395530 -0.539665
v -2.412724 1.406243 -0.565508
v -2.438565 1.794518 -0.627895
v -2.350336 1.831076 -0.539665
v -2.412724 1.820364 -0.565508
v -2.438565 1.863528 -0.696905
v -2.350336 1.951757 -0.660347
v -2.412724 1.925916 -0.671059
v -2.438565 1.863528 -1.212168
v -2.350336 1.951757 -1.248726
v -2.412724 1.925916 -1.238014
v -2.339602 1.507784 -1.183704
v -2.339602 1.487768 -1.163689
v -2.339602 1.718822 -1.183704
v -2.339602 1.487768 -0.745386
v -2.339602 1.507784 -0.725370
v -2.339602 1.718822 -0.725370
v -2.339602 1.738838 -0.745386
v -2.339602 1.738838 -1.163689
v -2.379185 1.739648 -1.193012
v -2.426669 1.751074 -1.211370
v -2.379185 1.761222 -1.171438
v -2.426674 1.782474 -1.179899
v -2.379185 1.465384 -1.171438
v -2.426674 1.444132 -1.179899
v -2.379185 1.486959 -1.193012
v -2.426669 1.475533 -1.211370
v -2.379185 1.486959 -0.716061
v -2.426669 1.475533 -0.697702
v -2.379185 1.465384 -0.737635
v -2.426674 1.444132 -0.729174
v -2.379185 1.761222 -0.737635
v -2.426674 1.782474 -0.729174
v -2.379185 1.739648 -0.716061
v -2.426669 1.751074 -0.697702
v 2.079861 1.822112 0.704096
v 2.079861 1.779383 0.489281
v 2.079861 1.657700 0.307169
v 2.079861 1.475589 0.185486
v 2.079861 1.260774 0.142757
v 2.079861 1.779383 0.918909
v 2.079861 1.657700 1.101021
v 2.079861 1.475589 1.222704
v 2.079861 1.260774 1.265432
v 2.079861 -0.020436 1.265432
v 2.079861 -0.020436 0.142757
v 2.079861 1.633241 0.704096
v 2.079861 1.604889 0.561558
v 2.079861 1.524148 0.440722
v 2.079861 1.403311 0.359980
v 2.079861 1.242529 0.327999
v 2.079861 1.604889 0.846632
v 2.079861 1.524148 0.967468
v 2.079861 1.403311 1.048210
v 2.079861 1.242529 1.080193
v 2.079861 0.135546 1.080193
v 2.079861 0.135546 0.327999
v 2.327342 0.276872 0.376871
v 2.327342 1.240004 0.376871
v 2.327342 1.555276 0.828110
v 2.327342 1.485027 0.933245
v 2.327342 1.485027 0.474945
v 2.327342 1.555276 0.580080
v 2.327342 1.379893 1.003492
v 2.327342 1.579944 0.704096
v 2.327342 1.379893 0.404697
v 2.327342 1.240004 1.031319
v 2.327342 0.276872 1.031319
v 2.507796 -0.324695 1.231050
v 2.426451 -0.324695 1.265432
v 2.079861 -0.324695 0.142757
v 2.079861 -0.324695 1.265432
v 2.426451 1.260774 0.142757
v 2.507797 1.257724 0.177134
v 2.426451 1.475589 0.185486
v 2.537061 1.427645 0.295311
v 2.507798 1.461546 0.217653
v 2.426451 1.657700 0.307169
v 2.507800 1.632385 0.331766
v 2.426451 1.779383 0.489281
v 2.537074 1.667290 0.534697
v 2.507801 1.746552 0.502583
v 2.426451 1.822112 0.704096
v 2.507802 1.786645 0.704096
v 2.426451 1.779383 0.918909
v 2.537074 1.667290 0.873493
v 2.507801 1.746552 0.905607
v 2.426451 1.657700 1.101021
v 2.537069 1.571270 1.017042
v 2.507800 1.632385 1.076424
v 2.426451 1.475589 1.222704
v 2.537061 1.427645 1.112879
v 2.507797 1.461546 1.190536
v 2.426451 1.260774 1.265432
v 2.537056 1.250361 1.148066
v 2.507797 1.257724 1.231056
v 2.426451 -0.020436 1.265432
v 2.541434 -0.324695 1.144789
v 2.541431 -0.324695 0.263403
v 2.507796 -0.020436 1.231050
v 2.426451 -0.020436 0.142757
v 2.507796 -0.324695 0.177139
v 2.426451 -0.324695 0.142757
v 2.507796 -0.020436 0.177139
v 2.411353 1.240004 0.376871
v 2.536709 1.249883 0.265514
v 2.497018 1.242898 0.344255
v 2.411352 1.379893 0.404697
v 2.497039 1.393355 0.373857
v 2.536822 1.568450 0.393888
v 2.411352 1.485027 0.474945
v 2.497051 1.509461 0.451204
v 2.411352 1.555276 0.580080
v 2.497058 1.587085 0.567192
v 2.536851 1.697412 0.704096
v 2.411352 1.579944 0.704096
v 2.497060 1.614350 0.704096
v 2.411352 1.555276 0.828110
v 2.497058 1.587085 0.840998
v 2.411352 1.485027 0.933245
v 2.497051 1.509461 0.956985
v 2.411352 1.379893 1.003492
v 2.497039 1.393355 1.034332
v 2.411353 1.240004 1.031319
v 2.497018 1.242898 1.063934
v 2.536604 0.123803 1.141052
v 2.411353 0.276872 1.031319
v 2.496988 0.232039 1.063459
v 2.411353 0.276872 0.376871
v 2.536604 0.123803 0.267138
v 2.496988 0.232039 0.344730
v 2.541431 -0.020436 0.263403
v 2.541434 -0.020436 1.144789
v 2.409222 2.644365 1.405560
v 2.359004 2.698720 1.405560
v 2.409222 2.611066 1.325169
v 2.359004 2.649501 1.286734
v 2.409222 2.530674 1.291870
v 2.359004 2.530674 1.237514
v 2.409222 2.450284 1.325169
v 2.359004 2.411849 1.286734
v 2.409222 2.416985 1.405560
v 2.359004 2.362629 1.405560
v 2.409222 2.450284 1.485950
v 2.359004 2.411849 1.524387
v 2.409222 2.530674 1.519251
v 2.359004 2.530674 1.573606
v 2.409222 2.611066 1.485950
v 2.359004 2.649501 1.524387
v 1.559050 2.639132 1.405560
v 1.614103 2.698720 1.405560
v 1.575175 2.681267 1.405560
v 1.614103 2.649501 1.286734
v 1.559050 2.607365 1.328869
v 1.575175 2.637160 1.299076
v 1.614103 2.530674 1.237514
v 1.559050 2.530674 1.297104
v 1.575175 2.530674 1.254967
v 1.614103 2.411849 1.286734
v 1.559050 2.453984 1.328869
v 1.575175 2.424190 1.299076
v 1.614103 2.362629 1.405560
v 1.559050 2.422217 1.405560
v 1.575175 2.380082 1.405560
v 1.614103 2.411849 1.524387
v 1.559050 2.453984 1.482250
v 1.575175 2.424190 1.512045
v 1.614103 2.530674 1.573606
v 1.559050 2.530674 1.514017
v 1.575175 2.530674 1.556152
v 1.614103 2.649501 1.524387
v 1.559050 2.607365 1.482250
v 1.575175 2.637160 1.512045
v -2.418573 2.644365 1.405560
v -2.368355 2.698720 1.405560
v -2.418573 2.611066 1.325169
v -2.368355 2.649501 1.286734
v -2.418573 2.530674 1.291870
v -2.368355 2.530674 1.237514
v -2.418573 2.450284 1.325169
v -2.368355 2.411849 1.286734
v -2.418573 2.416985 1.405560
v -2.368355 2.362629 1.405560
v -2.418573 2.450284 1.485950
v -2.368355 2.411849 1.524385
v -2.418573 2.530674 1.519251
v -2.368355 2.530674 1.573606
v -2.418573 2.611066 1.485950
v -2.368355 2.649501 1.524385
v -1.834980 2.639132 1.405560
v -1.890033 2.698720 1.405560
v -1.851105 2.681267 1.405560
v -1.890033 2.649501 1.286734
v -1.834980 2.607365 1.328869
v -1.851105 2.637160 1.299076
v -1.890033 2.530674 1.237514
v -1.834980 2.530674 1.297102
v -1.851105 2.530674 1.254967
v -1.890033 2.411849 1.286734
v -1.834980 2.453984 1.328869
v -1.851105 2.424190 1.299076
v -1.890033 2.362629 1.405560
v -1.834980 2.422217 1.405560
v -1.851105 2.380082 1.405560
v -1.890033 2.411849 1.524385
v -1.834980 2.453984 1.482250
v -1.851105 2.424190 1.512045
v -1.890033 2.530674 1.573606
v -1.834980 2.530674 1.514017
v -1.851105 2.530674 1.556152
v -1.890033 2.649501 1.524385
v -1.834980 2.607365 1.482250
v -1.851105 2.637160 1.512045
v 2.409222 2.644365 -0.006023
v 2.359003 2.698720 -0.006023
v 2.409222 2.611066 -0.086414
v 2.359003 2.649501 -0.124849
v 2.409222 2.530674 -0.119713
v 2.359003 2.530674 -0.174068
v 2.409222 2.450284 -0.086414
v 2.359003 2.411849 -0.124849
v 2.409222 2.416985 -0.006023
v 2.359003 2.362629 -0.006023
v 2.409222 2.450284 0.074368
v 2.359003 2.411849 0.112803
v 2.409222 2.530674 0.107666
v 2.359003 2.530674 0.162022
v 2.409222 2.611066 0.074368
v 2.359003 2.649501 0.112803
v 1.559050 2.639132 -0.006023
v 1.614103 2.698720 -0.006023
v 1.575175 2.681267 -0.006023
v 1.614103 2.649501 -0.124849
v 1.559050 2.607365 -0.082714
v 1.575175 2.637160 -0.112509
v 1.614103 2.530674 -0.174068
v 1.559050 2.530674 -0.114481
v 1.575175 2.530674 -0.156616
v 1.614103 2.411849 -0.124849
v 1.559050 2.453984 -0.082714
v 1.575175 2.424190 -0.112509
v 1.614103 2.362629 -0.006023
v 1.559050 2.422217 -0.006023
v 1.575175 2.380082 -0.006023
v 1.614103 2.411849 0.112803
v 1.559050 2.453984 0.070667
v 1.575175 2.424190 0.100462
v 1.614103 2.530674 0.162022
v 1.559050 2.530674 0.102434
v 1.575175 2.530674 0.144569
v 1.614103 2.649501 0.112803
v 1.559050 2.607365 0.070667
v 1.575175 2.637160 0.100462
v -2.418573 2.644365 -0.006023
v -2.368355 2.698720 -0.006023
v -2.418573 2.611066 -0.086414
v -2.368355 2.649501 -0.124849
v -2.418573 2.530674 -0.119713
v -2.368355 2.530674 -0.174068
v -2.418573 2.450284 -0.086414
v -2.368355 2.411849 -0.124849
v -2.418573 2.416985 -0.006023
v -2.368355 2.362629 -0.006023
v -2.418573 2.450284 0.074368
v -2.368355 2.411849 0.112803
v -2.418573 2.530674 0.107666
v -2.368355 2.530674 0.162022
v -2.418573 2.611066 0.074368
v -2.368355 2.649501 0.112803
v -1.834980 2.639132 -0.006023
v -1.890033 2.698720 -0.006023
v -1.851105 2.681267 -0.006023
v -1.890033 2.649501 -0.124849
v -1.834980 2.607365 -0.082714
v -1.851105 2.637160 -0.112509
v -1.890033 2.530674 -0.174068
v -1.834980 2.530674 -0.114481
v -1.851105 2.530674 -0.156616
v -1.890033 2.411849 -0.124849
v -1.834980 2.453984 -0.082714
v -1.851105 2.424190 -0.112509
v -1.890033 2.362629 -0.006023
v -1.834980 2.422217 -0.006023
v -1.851105 2.380082 -0.006023
v -1.890033 2.411849 0.112803
v -1.834980 2.453984 0.070667
v -1.851105 2.424190 0.100462
v -1.890033 2.530674 0.162022
v -1.834980 2.530674 0.102434
v -1.851105 2.530674 0.144569
v -1.890033 2.649501 0.112803
v -1.834980 2.607365 0.070667
v -1.851105 2.637160 0.100462
v 2.409222 2.644365 -1.417608
v 2.359003 2.698720 -1.417608
v 2.409222 2.611066 -1.497999
v 2.359003 2.649501 -1.536434
v 2.409222 2.530674 -1.531298
v 2.359003 2.530674 -1.585653
v 2.409222 2.450284 -1.497999
v 2.359003 2.411849 -1.536434
v 2.409222 2.416985 -1.417608
v 2.359003 2.362629 -1.417608
v 2.409222 2.450284 -1.337217
v 2.359003 2.411849 -1.298780
v 2.409222 2.530674 -1.303917
v 2.359003 2.530674 -1.249561
v 2.409222 2.611066 -1.337217
v 2.359003 2.649501 -1.298780
v 1.559050 2.639132 -1.417608
v 1.614103 2.698720 -1.417608
v 1.575175 2.681267 -1.417608
v 1.614103 2.649501 -1.536434
v 1.559050 2.607365 -1.494299
v 1.575175 2.637160 -1.524092
v 1.614103 2.530674 -1.585653
v 1.559050 2.530674 -1.526066
v 1.575175 2.530674 -1.568199
v 1.614103 2.411849 -1.536434
v 1.559050 2.453984 -1.494299
v 1.575175 2.424190 -1.524092
v 1.614103 2.362629 -1.417608
v 1.559050 2.422217 -1.417608
v 1.575175 2.380082 -1.417608
v 1.614103 2.411849 -1.298780
v 1.559050 2.453984 -1.340918
v 1.575175 2.424190 -1.311123
v 1.614103 2.530674 -1.249561
v 1.559050 2.530674 -1.309151
v 1.575175 2.530674 -1.267015
v 1.614103 2.649501 -1.298780
v 1.559050 2.607365 -1.340918
v 1.575175 2.637160 -1.311123
v -2.418573 2.644365 -1.417608
v -2.368355 2.698720 -1.417608
v -2.418573 2.611066 -1.497999
v -2.368355 2.649501 -1.536434
v -2.418573 2.530674 -1.531298
v -2.368355 2.530674 -1.585653
v -2.418573 2.450284 -1.497999
v -2.368355 2.411849 -1.536434
v -2.418573 2.416985 -1.417608
v -2.368355 2.362629 -1.417608
v -2.418573 2.450284 -1.337217
v -2.368355 2.411849 -1.298780
v -2.418573 2.530674 -1.303917
v -2.368355 2.530674 -1.249561
v -2.418573 2.611066 -1.337217
v -2.368355 2.649501 -1.298780
v -1.834980 2.639132 -1.417608
v -1.890033 2.698720 -1.417608
v -1.851105 2.681267 -1.417608
v -1.890033 2.649501 -1.536434
v -1.834980 2.607365 -1.494299
v -1.851105 2.637160 -1.524092
v -1.890033 2.530674 -1.585653
v -1.834981 2.530674 -1.526064
v -1.851106 2.530674 -1.568201
v -1.890033 2.411849 -1.536434
v -1.834981 2.453984 -1.494299
v -1.851106 2.424190 -1.524092
v -1.890033 2.362629 -1.417608
v -1.834981 2.422217 -1.417608
v -1.851106 2.380082 -1.417608
v -1.890033 2.411849 -1.298780
v -1.834980 2.453984 -1.340916
v -1.851105 2.424190 -1.311123
v -1.890033 2.530674 -1.249561
v -1.834980 2.530674 -1.309151
v -1.851105 2.530674 -1.267015
v -1.890033 2.649501 -1.298780
v -1.834980 2.607365 -1.340916
v -1.851105 2.637160 -1.311123
v -1.587082 2.710225 1.086004
v -1.343640 2.710225 1.329918
v -1.554467 2.710225 1.207962
v -1.465361 2.710225 1.297239
v -1.343424 2.710225 -1.353083
v -1.587082 2.710225 -1.109385
v -1.465253 2.710225 -1.320433
v -1.554438 2.710225 -1.231234
v 1.601256 2.710225 -1.108793
v 1.358418 2.710225 -1.353083
v 1.568722 2.710225 -1.230938
v 1.479837 2.710225 -1.320354
v 1.358634 2.710225 1.329918
v 1.601256 2.710225 1.085411
v 1.479945 2.710225 1.297161
v 1.568751 2.710225 1.207664
v -1.766993 3.137039 1.257742
v -1.514714 3.137039 1.510752
v -1.733194 3.137039 1.384239
v -1.640854 3.137039 1.476847
v -1.342511 2.956777 1.329918
v -1.587082 2.956777 1.084854
v -1.464796 2.956777 1.297087
v -1.554316 2.956777 1.207386
v -1.639777 3.084241 1.134542
v -1.391996 3.084241 1.382883
v -1.606580 3.084241 1.258711
v -1.515887 3.084241 1.349609
v -1.587082 2.956777 -1.108246
v -1.342286 2.956777 -1.353083
v -1.554285 2.956777 -1.230663
v -1.464684 2.956777 -1.320280
v -1.514386 3.137039 -1.533916
v -1.766993 3.137039 -1.281237
v -1.640690 3.137039 -1.500055
v -1.733150 3.137039 -1.407568
v -1.391742 3.084241 -1.406048
v -1.639777 3.084241 -1.157961
v -1.515759 3.084241 -1.372807
v -1.606547 3.084241 -1.282001
v 1.357312 2.956777 -1.353083
v 1.601256 2.956777 -1.107628
v 1.479284 2.956777 -1.320198
v 1.568574 2.956777 -1.230356
v 1.776540 3.137039 -1.280668
v 1.525030 3.137039 -1.534189
v 1.742844 3.137039 -1.407436
v 1.650785 3.137039 -1.500233
v 1.652596 3.084241 -1.157362
v 1.405509 3.084241 -1.406126
v 1.619492 3.084241 -1.281748
v 1.529052 3.084241 -1.372801
v 1.601256 2.956777 1.084240
v 1.357537 2.956777 1.329918
v 1.568604 2.956777 1.207079
v 1.479397 2.956777 1.297005
v 1.525357 3.137039 1.511026
v 1.776540 3.137039 1.257174
v 1.650949 3.137039 1.477024
v 1.742888 3.137039 1.384108
v 1.405763 3.084241 1.382963
v 1.652596 3.084241 1.133944
v 1.529179 3.084241 1.349604
v 1.619527 3.084241 1.258455
v -2.102692 2.956777 1.597940
v -1.853413 2.956777 1.848106
v -2.069295 2.956777 1.723022
v -1.978053 2.956777 1.814590
v -1.669373 3.137039 1.667274
v -1.922781 3.137039 1.413124
v -1.796077 3.137039 1.633234
v -1.888831 3.137039 1.540207
v -2.049997 3.084241 1.543344
v -1.799016 3.084241 1.795143
v -2.016372 3.084241 1.669245
v -1.924507 3.084241 1.761410
v -1.922781 3.137039 -1.436726
v -1.668939 3.137039 -1.690439
v -1.888773 3.137039 -1.563591
v -1.795860 3.137039 -1.656456
v -1.852727 2.956777 -1.871269
v -2.102692 2.956777 -1.621796
v -1.977710 2.956777 -1.837847
v -2.069203 2.956777 -1.746532
v -1.798450 3.084241 -1.818306
v -2.049997 3.084241 -1.567080
v -1.924223 3.084241 -1.784651
v -2.016296 3.084241 -1.692696
v 1.674746 3.137039 -1.690161
v 1.927435 3.137039 -1.435532
v 1.801091 3.137039 -1.656040
v 1.893581 3.137039 -1.562840
v 2.102719 2.956777 -1.621286
v 1.853476 2.956777 -1.871269
v 2.069327 2.956777 -1.746277
v 1.978097 2.956777 -1.837778
v 2.051379 3.084241 -1.566345
v 1.800723 3.084241 -1.818224
v 2.017798 3.084241 -1.692282
v 1.926051 3.084241 -1.784477
v 1.927435 3.137039 1.411928
v 1.675178 3.137039 1.666998
v 1.893639 3.137039 1.539455
v 1.801306 3.137039 1.632816
v 1.854158 2.956777 1.848106
v 2.102719 2.956777 1.597427
v 1.978438 2.956777 1.814522
v 2.069418 2.956777 1.722767
v 1.801286 3.084241 1.795061
v 2.051379 3.084241 1.542604
v 1.926332 3.084241 1.761236
v 2.017873 3.084241 1.668831
v -2.102692 0.353821 1.597282
v -1.852873 0.353848 1.848106
v -2.069223 0.353825 1.722694
v -1.977783 0.353835 1.814503
v 1.853503 0.354245 1.848106
v 2.102719 0.354241 1.596853
v 1.978111 0.354254 1.814445
v 2.069330 0.354253 1.722481
v -1.852032 0.353821 -1.871269
v -2.102692 0.353821 -1.621296
v -1.977362 0.353821 -1.837780
v -2.069110 0.353821 -1.746283
v 2.102719 0.353852 -1.620867
v 1.852665 0.353821 -1.871269
v 2.069218 0.353837 -1.746069
v 1.977692 0.353826 -1.837723
v -2.345474 -0.324695 -1.842514
v -2.094482 -0.324695 -2.090843
v -2.311846 -0.324695 -1.966677
v -2.219977 -0.324695 -2.057571
v -2.097145 -0.324695 2.114006
v -2.345480 -0.324695 1.863001
v -2.221313 -0.324695 2.080376
v -2.312210 -0.324695 1.988503
v 2.094730 -0.324695 -2.090891
v 2.345447 -0.324695 -1.842373
v 2.220088 -0.324695 -2.057596
v 2.311857 -0.324695 -1.966633
v 2.345456 -0.324695 1.862858
v 2.097389 -0.324695 2.114050
v 2.312222 -0.324695 1.988455
v 2.221422 -0.324695 2.080399
v -2.095498 0.221984 -2.114025
v -2.345454 0.221984 -1.866186
v -2.220476 0.221984 -2.080820
v -2.311966 0.221984 -1.990105
v -2.213617 0.353821 -1.730612
v -1.960876 0.353821 -1.982195
v -2.179756 0.353821 -1.856403
v -2.087246 0.353821 -1.948490
v -2.055691 0.315207 -2.075415
v -2.306838 0.315207 -1.825951
v -2.181265 0.315207 -2.041992
v -2.273191 0.315207 -1.950682
v 2.097943 0.222410 2.090870
v 2.345474 0.222407 1.840672
v 2.221708 0.222419 2.057350
v 2.312310 0.222418 1.965771
v 2.213636 0.354243 1.705860
v 1.962594 0.354246 1.959026
v 2.180002 0.354254 1.832443
v 2.088115 0.354255 1.925108
v 2.057779 0.315633 2.052254
v 2.306860 0.315630 1.800804
v 2.182319 0.315641 2.018564
v 2.273489 0.315640 1.926529
v -1.962120 0.353847 1.959032
v -2.213610 0.353821 1.706184
v -2.087865 0.353834 1.925158
v -2.179917 0.353825 1.832609
v -2.345449 0.221984 1.840874
v -2.097630 0.222008 2.090868
v -2.312248 0.221987 1.965872
v -2.221540 0.221996 2.057375
v -2.306832 0.315207 1.801048
v -2.057413 0.315231 2.052258
v -2.273417 0.315210 1.926653
v -2.182123 0.315219 2.018600
v 1.961354 0.353821 -1.982189
v 2.213644 0.353850 -1.730284
v 2.087499 0.353825 -1.948441
v 2.179844 0.353836 -1.856237
v 2.345479 0.222011 -1.865982
v 2.095815 0.221984 -2.114027
v 2.312031 0.221997 -1.990004
v 2.220647 0.221988 -2.080795
v 2.306868 0.315234 -1.825705
v 2.056060 0.315207 -2.075409
v 2.273267 0.315221 -1.950556
v 2.181464 0.315211 -2.041954
v -2.097387 -0.000454 2.102436
v -2.221426 -0.000482 2.068876
v -2.312229 -0.000502 1.977186
v -2.345465 -0.000509 1.851938
v -2.094990 -0.000478 -2.102434
v -2.220227 -0.000493 -2.069197
v -2.311907 -0.000505 -1.978392
v -2.345464 -0.000509 -1.854349
v 2.345463 0.000106 -1.854177
v 2.311944 0.000089 -1.978319
v 2.220368 0.000067 -2.069197
v 2.095272 0.000048 -2.102459
v 2.097666 0.000475 2.102461
v 2.221565 0.000499 2.068874
v 2.312266 0.000509 1.977114
v 2.345465 0.000503 1.851765
vn -0.4765 -0.1975 0.8567
vn -0.4765 0.1975 0.8567
vn 0.1589 -0.0640 0.9852
vn 0.1589 0.0640 0.9852
vn -0.3363 -0.8164 0.4695
vn 0.3363 -0.8164 0.4695
vn 0.3358 -0.7902 0.5126
vn -0.3358 -0.7902 0.5126
vn 0.8348 -0.3688 0.4087
vn 0.8348 0.3688 0.4087
vn 0.8952 0.2715 0.3534
vn 0.8952 -0.2715 0.3534
vn 0.3827 -0.9239 0.0001
vn 0.3750 -0.9053 0.1995
vn -0.3750 -0.9053 0.1995
vn -0.3827 -0.9239 0.0001
vn 0.4765 0.1975 0.8567
vn 0.4765 -0.1975 0.8567
vn -0.1589 0.0640 0.9852
vn -0.1589 -0.0640 0.9852
vn -0.3363 0.8164 0.4695
vn -0.8348 0.3688 0.4087
vn -0.8952 0.2715 0.3534
vn -0.3358 0.7902 0.5126
vn -0.9053 -0.3750 0.1995
vn -0.9239 -0.3827 0.0001
vn -0.8348 -0.3688 0.4087
vn -0.8952 -0.2715 0.3534
vn -0.1912 -0.4622 0.8659
vn 0.0670 0.1614 0.9846
vn 0.9239 -0.3827 0.0001
vn 0.9239 0.3827 0.0001
vn 0.9053 0.3750 0.1995
vn 0.9053 -0.3750 0.1995
vn 0.3363 0.8164 0.4695
vn 0.3358 0.7902 0.5126
vn 0.3827 0.9239 0.0001
vn 0.3750 0.9053 0.1995
vn -0.9053 0.3750 0.1995
vn -0.9239 0.3827 0.0001
vn -0.3750 0.9053 0.1995
vn -0.3827 0.9239 0.0001
vn 0.0670 -0.1614 0.9846
vn 0.2797 -0.6753 0.6824
vn 0.6753 -0.2797 0.6824
vn 0.6753 0.2797 0.6824
vn -0.0670 -0.1614 0.9846
vn -0.2797 -0.6753 0.6824
vn -0.6753 -0.2797 0.6824
vn -0.6753 0.2797 0.6824
vn -0.0670 0.1614 0.9846
vn -0.2797 0.6753 0.6824
vn 0.2797 0.6753 0.6824
vn -0.0000 -0.0000 1.0000
vn 0.1912 0.4622 0.8659
vn -0.4765 0.1975 -0.8567
vn 0.1589 -0.0640 -0.9852
vn 0.0670 -0.1614 -0.9846
vn -0.1912 0.4622 -0.8659
vn 0.1912 -0.4622 0.8659
vn -0.1912 0.4622 0.8659
vn -0.4765 -0.1975 -0.8567
vn 0.1589 0.0640 -0.9852
vn -0.3363 -0.8164 -0.4695
vn -0.3358 -0.7902 -0.5126
vn 0.3358 -0.7902 -0.5126
vn 0.3363 -0.8164 -0.4695
vn 0.8348 -0.3688 -0.4087
vn 0.8952 -0.2715 -0.3534
vn 0.8952 0.2715 -0.3534
vn 0.8348 0.3688 -0.4087
vn 0.3827 -0.9239 -0.0001
vn -0.3827 -0.9239 -0.0001
vn -0.3750 -0.9053 -0.1995
vn 0.3750 -0.9053 -0.1995
vn 0.4765 0.1975 -0.8567
vn -0.1589 -0.0640 -0.9852
vn -0.1589 0.0640 -0.9852
vn 0.4765 -0.1975 -0.8567
vn -0.3363 0.8164 -0.4695
vn -0.3358 0.7902 -0.5126
vn -0.8952 0.2715 -0.3534
vn -0.8348 0.3688 -0.4087
vn -0.9239 -0.3827 -0.0001
vn -0.9053 -0.3750 -0.1995
vn -0.8348 -0.3688 -0.4087
vn -0.8952 -0.2715 -0.3534
vn -0.1912 -0.4622 -0.8659
vn 0.0670 0.1614 -0.9846
vn 0.9239 -0.3827 -0.0001
vn 0.9053 -0.3750 -0.1995
vn 0.9053 0.3750 -0.1995
vn 0.9239 0.3827 -0.0001
vn 0.3363 0.8164 -0.4695
vn 0.3358 0.7902 -0.5126
vn 0.3827 0.9239 -0.0001
vn 0.3750 0.9053 -0.1995
vn -0.9239 0.3827 -0.0001
vn -0.9053 0.3750 -0.1995
vn -0.3750 0.9053 -0.1995
vn -0.3827 0.9239 -0.0001
vn 0.6753 -0.2797 -0.6824
vn 0.2797 -0.6753 -0.6824
vn 0.6753 0.2797 -0.6824
vn -0.2797 -0.6753 -0.6824
vn -0.0670 -0.1614 -0.9846
vn -0.6753 -0.2797 -0.6824
vn -0.6753 0.2797 -0.6824
vn -0.2797 0.6753 -0.6824
vn -0.0670 0.1614 -0.9846
vn 0.2797 0.6753 -0.6824
vn -0.0000 -0.0000 -1.0000
vn 0.1912 0.4622 -0.8659
vn -0.8567 0.1975 0.4765
vn -0.9852 -0.0640 -0.1589
vn -0.9846 -0.1614 -0.0670
vn -0.8659 0.4622 0.1912
vn 0.1912 -0.4622 -0.8659
vn 0.2025 0.9792 -0.0142
vn 0.2025 0.9792 0.0142
vn 0.6936 0.7155 0.0840
vn 0.6935 0.7155 -0.0844
vn -0.1163 0.2149 0.9697
vn 0.1153 0.2150 0.9698
vn 0.1309 -0.0006 0.9914
vn -0.1316 -0.0006 0.9913
vn -0.9915 -0.0000 0.1300
vn -0.9665 0.2161 0.1385
vn -0.9664 0.2162 -0.1393
vn -0.9914 -0.0000 -0.1308
vn 0.0147 0.9803 0.1972
vn -0.0143 0.9803 0.1971
vn -0.0840 0.7219 0.6869
vn 0.0849 0.7213 0.6874
vn 0.1390 0.2163 -0.9664
vn -0.1386 0.2168 -0.9663
vn -0.0837 0.7218 -0.6870
vn 0.0845 0.7213 -0.6875
vn 0.6598 0.7465 -0.0857
vn 0.6597 0.7466 0.0858
vn 0.1553 0.9875 0.0277
vn 0.1554 0.9875 -0.0276
vn 0.9700 0.2141 0.1152
vn 0.9700 0.2141 -0.1150
vn 0.9914 -0.0006 -0.1307
vn 0.9914 -0.0006 0.1309
vn -0.9711 0.2096 0.1145
vn -0.9711 0.2095 -0.1143
vn -0.6666 0.7405 -0.0857
vn -0.6665 0.7405 0.0858
vn -0.1980 0.9801 -0.0142
vn -0.1980 0.9801 0.0142
vn -0.0001 1.0000 -0.0000
vn -0.0144 0.9802 0.1977
vn 0.0143 0.9801 0.1977
vn -0.1165 0.2150 -0.9696
vn 0.1155 0.2151 -0.9697
vn 0.0859 0.7478 -0.6583
vn -0.0863 0.7476 -0.6585
vn -0.6881 0.7208 0.0837
vn -0.6880 0.7209 -0.0840
vn -0.0000 1.0000 -0.0000
vn -0.0142 0.9803 -0.1971
vn 0.0146 0.9803 -0.1972
vn 0.1308 -0.0000 -0.9914
vn -0.1302 -0.0000 -0.9915
vn 0.1315 -0.0000 0.9913
vn 0.1397 0.2164 0.9663
vn -0.1394 0.2169 0.9662
vn -0.1310 -0.0000 0.9914
vn 0.9674 0.2121 0.1382
vn 0.9673 0.2122 -0.1389
vn -0.0276 0.9875 0.1551
vn 0.0276 0.9876 0.1548
vn 0.0857 0.7477 0.6584
vn -0.0862 0.7475 0.6586
vn 0.9915 -0.0000 -0.1303
vn 0.9916 -0.0000 0.1295
vn -0.0277 0.9875 -0.1550
vn 0.0276 0.9876 -0.1547
vn -0.1587 0.9869 -0.0282
vn -0.1586 0.9869 0.0282
vn -0.9915 -0.0006 0.1302
vn -0.9915 -0.0006 -0.1299
vn 0.0142 0.9801 -0.1977
vn -0.0142 0.9802 -0.1977
vn 0.9914 -0.0059 -0.1308
vn 0.9915 0.0055 0.1297
vn 0.9913 0.0045 0.1318
vn 0.9917 -0.0047 -0.1286
vn -0.0000 1.0000 -0.0001
vn 0.1977 0.9802 0.0140
vn 0.1977 0.9802 -0.0143
vn 0.1317 0.0433 0.9903
vn -0.1315 0.0433 0.9904
vn -0.1313 0.0352 0.9907
vn 0.1315 0.0352 0.9907
vn -0.1977 0.9802 -0.0143
vn -0.1977 0.9802 0.0141
vn -0.6878 0.7211 0.0833
vn -0.6874 0.7213 -0.0843
vn -0.9666 0.2132 -0.1425
vn -0.9662 0.2194 0.1356
vn -0.1293 -0.0437 -0.9906
vn 0.1295 -0.0437 -0.9906
vn 0.1297 -0.0355 -0.9909
vn -0.1295 -0.0356 -0.9909
vn -0.9915 0.0056 0.1300
vn -0.9914 -0.0058 -0.1310
vn 0.6878 0.7211 0.0831
vn 0.6875 0.7213 -0.0842
vn 0.9662 0.2194 0.1354
vn 0.9666 0.2131 -0.1423
vn 0.0835 0.7211 -0.6877
vn -0.0834 0.7211 -0.6878
vn 0.1387 0.1910 -0.9717
vn -0.1385 0.1910 -0.9718
vn -0.0844 0.7213 0.6874
vn 0.0845 0.7213 0.6874
vn -0.1397 0.2418 0.9602
vn 0.1399 0.2419 0.9602
vn 0.8567 -0.1975 0.4765
vn 0.8567 0.1975 0.4765
vn 0.9852 -0.0640 -0.1589
vn 0.9852 0.0640 -0.1589
vn 0.4695 -0.8164 0.3363
vn 0.4695 -0.8164 -0.3363
vn 0.5126 -0.7902 -0.3358
vn 0.5126 -0.7902 0.3358
vn 0.4087 -0.3688 -0.8348
vn 0.4087 0.3688 -0.8348
vn 0.3534 0.2715 -0.8952
vn 0.3534 -0.2716 -0.8952
vn 0.0001 -0.9239 -0.3827
vn 0.1995 -0.9053 -0.3750
vn 0.1995 -0.9053 0.3750
vn 0.0001 -0.9239 0.3827
vn 0.8567 0.1975 -0.4765
vn 0.8567 -0.1975 -0.4765
vn 0.9852 0.0640 0.1589
vn 0.9852 -0.0640 0.1589
vn 0.4695 0.8164 0.3363
vn 0.4087 0.3688 0.8348
vn 0.3534 0.2715 0.8952
vn 0.5126 0.7902 0.3358
vn 0.1995 -0.3750 0.9053
vn 0.0001 -0.3827 0.9239
vn 0.4087 -0.3688 0.8348
vn 0.3534 -0.2716 0.8952
vn 0.8659 -0.4622 0.1912
vn 0.9846 0.1614 -0.0670
vn 0.0001 -0.3827 -0.9239
vn 0.0001 0.3827 -0.9239
vn 0.1995 0.3750 -0.9053
vn 0.1995 -0.3750 -0.9053
vn 0.4695 0.8164 -0.3363
vn 0.5126 0.7902 -0.3358
vn 0.0001 0.9239 -0.3827
vn 0.1995 0.9053 -0.3750
vn 0.1995 0.3750 0.9053
vn 0.0001 0.3827 0.9239
vn 0.1995 0.9053 0.3750
vn 0.0001 0.9239 0.3827
vn 0.9846 -0.1614 -0.0670
vn 0.6824 -0.6753 -0.2797
vn 0.6824 -0.2797 -0.6753
vn 0.6824 0.2797 -0.6753
vn 0.9846 -0.1614 0.0670
vn 0.6824 -0.6753 0.2797
vn 0.6824 -0.2797 0.6753
vn 0.6824 0.2797 0.6753
vn 0.9846 0.1614 0.0670
vn 0.6824 0.6753 0.2797
vn 0.6824 0.6753 -0.2797
vn 1.0000 -0.0000 -0.0000
vn 0.8659 0.4622 -0.1912
vn 0.8659 -0.4622 -0.1912
vn 0.8659 0.4622 0.1912
vn -0.8567 -0.1975 0.4765
vn -0.9852 0.0640 -0.1589
vn -0.4695 -0.8164 0.3363
vn -0.5126 -0.7902 0.3358
vn -0.5126 -0.7902 -0.3358
vn -0.4695 -0.8164 -0.3363
vn -0.4087 -0.3688 -0.8348
vn -0.3534 -0.2716 -0.8952
vn -0.3534 0.2715 -0.8952
vn -0.4087 0.3688 -0.8348
vn -0.0001 -0.9239 -0.3827
vn -0.0001 -0.9239 0.3827
vn -0.1995 -0.9053 0.3750
vn -0.1995 -0.9053 -0.3750
vn -0.8567 0.1975 -0.4765
vn -0.9852 -0.0640 0.1589
vn -0.9852 0.0640 0.1589
vn -0.8567 -0.1975 -0.4765
vn -0.4695 0.8164 0.3363
vn -0.5126 0.7902 0.3358
vn -0.3534 0.2715 0.8952
vn -0.4087 0.3688 0.8348
vn -0.0001 -0.3827 0.9239
vn -0.1995 -0.3750 0.9053
vn -0.4087 -0.3688 0.8348
vn -0.3534 -0.2716 0.8952
vn -0.8659 -0.4622 0.1912
vn -0.9846 0.1614 -0.0670
vn -0.0001 -0.3827 -0.9239
vn -0.1995 -0.3750 -0.9053
vn -0.1995 0.3750 -0.9053
vn -0.0001 0.3827 -0.9239
vn -0.4695 0.8164 -0.3363
vn -0.5126 0.7902 -0.3358
vn -0.0001 0.9239 -0.3827
vn -0.1995 0.9053 -0.3750
vn -0.0001 0.3827 0.9239
vn -0.1995 0.3750 0.9053
vn -0.1995 0.9053 0.3750
vn -0.0001 0.9239 0.3827
vn -0.6824 -0.2797 -0.6753
vn -0.6824 -0.6753 -0.2797
vn -0.6824 0.2797 -0.6753
vn -0.6824 -0.6753 0.2797
vn -0.9846 -0.1614 0.0670
vn -0.6824 -0.2797 0.6753
vn -0.6824 0.2797 0.6753
vn -0.6824 0.6753 0.2797
vn -0.9846 0.1614 0.0670
vn -0.6824 0.6753 -0.2797
vn -1.0000 -0.0000 -0.0000
vn -0.8659 0.4622 -0.1912
vn 0.3688 0.9295 -0.0000
vn 0.8991 0.4377 -0.0000
vn 0.8991 0.3095 -0.3095
vn 0.3688 0.6572 -0.6572
vn -0.8659 -0.4622 -0.1912
vn 0.1974 0.3755 -0.9056
vn 0.1969 0.0960 -0.9757
vn -0.0000 0.0980 -0.9952
vn -0.0000 0.3827 -0.9239
vn 0.7207 0.0069 -0.6932
vn 0.9824 0.0188 -0.1859
vn 0.9828 -0.0000 -0.1848
vn 0.7170 -0.0000 -0.6971
vn 0.9824 0.0188 0.1859
vn 0.7201 0.0069 0.6939
vn 0.7170 -0.0000 0.6971
vn 0.9828 -0.0000 0.1848
vn -0.1938 -0.0967 0.9763
vn -0.1938 -0.0956 0.9764
vn -0.4902 0.6625 0.5664
vn -0.4461 0.5325 0.7193
vn -0.2051 -0.6909 -0.6933
vn -0.2051 -0.6932 -0.6909
vn -0.2091 -0.9038 -0.3734
vn -0.2091 -0.9031 -0.3751
vn -0.2091 -0.9031 0.3751
vn -0.2091 -0.9038 0.3734
vn -0.2051 -0.6932 0.6909
vn -0.2051 -0.6909 0.6933
vn -0.1990 -0.3729 -0.9063
vn -0.1991 -0.3770 -0.9046
vn -0.2105 -0.9776 -0.0000
vn -0.1990 -0.3729 0.9063
vn -0.1991 -0.3770 0.9046
vn -0.1938 -0.0967 -0.9763
vn -0.1938 -0.0956 -0.9764
vn -0.4461 0.5325 -0.7193
vn -0.4902 0.6625 -0.5664
vn 0.1986 -0.0000 -0.9801
vn 0.1984 0.6932 -0.6929
vn -0.0000 0.7071 -0.7071
vn 0.1990 0.9055 -0.3749
vn -0.0000 0.9239 -0.3827
vn 0.1993 0.9799 -0.0000
vn 0.1990 0.9055 0.3749
vn -0.0000 0.9239 0.3827
vn 0.1984 0.6932 0.6929
vn -0.0000 0.7071 0.7071
vn 0.1974 0.3755 0.9056
vn -0.0000 0.3827 0.9239
vn 0.1969 0.0960 0.9757
vn -0.0000 0.0980 0.9952
vn 0.1986 -0.0000 0.9801
vn 0.1937 -0.9063 0.3757
vn -0.0000 -0.9239 0.3827
vn -0.0000 -0.7071 0.7071
vn 0.1924 -0.6934 0.6943
vn 0.1924 -0.6934 -0.6943
vn -0.0000 -0.7071 -0.7071
vn -0.0000 -0.9239 -0.3827
vn 0.1937 -0.9063 -0.3757
vn 0.3182 0.6481 0.6919
vn 0.3182 0.6481 -0.6919
vn -0.0000 -0.0980 -0.9952
vn 0.1834 -0.0961 -0.9783
vn 0.1834 -0.0961 0.9783
vn -0.0000 -0.0980 0.9952
vn -0.0000 -1.0000 -0.0000
vn 0.1942 -0.9810 -0.0000
vn -0.0000 -0.3827 -0.9239
vn 0.1902 -0.3748 -0.9074
vn -0.0000 -0.3827 0.9239
vn 0.1902 -0.3748 0.9074
vn 0.9909 0.0670 0.1166
vn 0.9915 0.0672 -0.1119
vn 1.0000 -0.0041 0.0077
vn 0.9987 -0.0042 0.0506
vn 0.7228 0.0667 -0.6878
vn 0.7121 0.2682 -0.6489
vn 0.9998 -0.0135 0.0127
vn 0.7123 0.4961 -0.4965
vn 1.0000 -0.0072 0.0026
vn 0.7136 0.6472 -0.2683
vn 0.9999 -0.0172 -0.0000
vn 0.7133 0.7009 -0.0000
vn 1.0000 -0.0060 -0.0019
vn 0.7122 0.6487 0.2683
vn 1.0000 -0.0041 -0.0032
vn 0.7100 0.4977 0.4981
vn 1.0000 -0.0027 -0.0045
vn 0.7087 0.2697 0.6519
vn 0.9994 -0.0025 -0.0352
vn 0.7194 0.0682 0.6912
vn 0.6835 -0.0690 0.7267
vn 0.7050 -0.2699 0.6558
vn 0.7073 -0.4994 0.5003
vn 0.7095 -0.6508 0.2701
vn 0.7096 -0.7046 -0.0000
vn 0.7109 -0.6502 -0.2680
vn 0.7107 -0.4970 -0.4979
vn 0.7084 -0.2693 -0.6524
vn 0.6882 -0.0700 -0.7221
vn 0.8794 0.3126 -0.3591
vn 0.8775 0.3124 0.3638
vn 0.3688 -0.6572 -0.6572
vn 0.3688 -0.9295 -0.0000
vn 0.3688 -0.6572 0.6572
vn 0.3689 -0.0000 0.9295
vn 0.3688 0.6572 0.6572
vn 0.3688 -0.0000 -0.9295
vn 0.8991 -0.0000 -0.4377
vn 0.8991 -0.3095 -0.3095
vn 0.8991 -0.4377 -0.0000
vn 0.8991 -0.3095 0.3095
vn 0.8991 -0.0000 0.4377
vn 0.8991 0.3095 0.3095
vn 0.3688 0.6572 -0.6573
vn -0.4091 0.9125 -0.0000
vn -0.4091 0.6452 -0.6452
vn -0.6824 0.5169 -0.5169
vn -0.6824 0.7310 -0.0000
vn -0.9339 0.2527 -0.2527
vn -0.9339 0.3574 -0.0000
vn -0.4091 -0.0000 -0.9125
vn -0.6824 -0.0000 -0.7310
vn -0.9339 -0.0000 -0.3574
vn -0.4091 -0.6452 -0.6452
vn -0.6824 -0.5169 -0.5169
vn -0.9339 -0.2527 -0.2527
vn -0.4091 -0.9125 -0.0000
vn -0.6824 -0.7310 -0.0000
vn -0.9339 -0.3574 -0.0000
vn -0.4091 -0.6452 0.6452
vn -0.6824 -0.5169 0.5169
vn -0.9339 -0.2527 0.2527
vn -0.4091 -0.0000 0.9125
vn -0.6824 -0.0000 0.7310
vn -0.9339 -0.0000 0.3574
vn -0.4091 0.6452 0.6452
vn -0.6824 0.5169 0.5169
vn -0.9339 0.2527 0.2527
vn -0.3688 0.6572 -0.6573
vn -0.3688 0.9295 -0.0000
vn -0.3688 -0.9295 -0.0000
vn -0.3688 -0.6572 -0.6572
vn -0.3688 -0.6573 0.6572
vn -0.3688 -0.0000 0.9295
vn -0.3688 0.6573 0.6572
vn -0.3688 -0.0000 -0.9295
vn -0.8991 -0.0000 -0.4377
vn -0.8991 0.3095 -0.3095
vn -0.8991 -0.3095 -0.3095
vn -0.8991 -0.4377 -0.0000
vn -0.8991 -0.3095 0.3095
vn -0.8991 -0.0000 0.4377
vn -0.8991 0.3095 0.3095
vn -0.8991 0.4377 -0.0000
vn 0.4091 0.9125 -0.0000
vn 0.6824 0.7310 -0.0000
vn 0.6824 0.5169 -0.5169
vn 0.4091 0.6452 -0.6452
vn 0.9339 0.3574 -0.0000
vn 0.9339 0.2527 -0.2527
vn 0.6824 -0.0000 -0.7310
vn 0.4091 -0.0000 -0.9125
vn 0.9339 -0.0000 -0.3574
vn 0.6824 -0.5169 -0.5169
vn 0.4091 -0.6452 -0.6452
vn 0.9339 -0.2527 -0.2527
vn 0.6824 -0.7310 -0.0000
vn 0.4091 -0.9125 -0.0000
vn 0.9339 -0.3574 -0.0000
vn 0.6824 -0.5169 0.5169
vn 0.4091 -0.6452 0.6452
vn 0.9339 -0.2527 0.2527
vn 0.6824 -0.0000 0.7310
vn 0.4091 -0.0000 0.9125
vn 0.9339 -0.0000 0.3574
vn 0.6824 0.5169 0.5169
vn 0.4091 0.6452 0.6452
vn 0.9339 0.2527 0.2527
vn 0.3688 -0.6572 -0.6573
vn 0.3688 -0.6572 0.6573
vn 0.3688 -0.0000 0.9295
vn 0.3688 0.6572 0.6573
vn -0.3688 -0.6572 0.6572
vn -0.3688 0.6572 0.6573
vn -0.9340 0.3574 -0.0000
vn -0.9340 -0.2527 0.2527
vn -0.9340 -0.0000 0.3574
vn -0.9340 0.2527 0.2527
vn -0.3689 -0.0000 0.9295
vn -0.3688 0.6572 0.6572
vn -0.0780 0.9851 0.1532
vn -0.3224 0.7530 0.5736
vn -0.1539 0.9850 0.0776
vn -0.5749 0.7526 0.3210
vn -0.3214 0.7530 -0.5742
vn -0.0778 0.9851 -0.1534
vn -0.5742 0.7527 -0.3220
vn -0.1537 0.9850 -0.0779
vn -0.4929 0.2477 0.8341
vn -0.8354 0.2474 0.4908
vn -0.4911 0.2476 -0.8351
vn -0.8343 0.2475 -0.4926
vn 0.5787 0.7491 -0.3225
vn 0.1567 0.9845 -0.0782
vn 0.3242 0.7511 -0.5751
vn 0.0792 0.9849 -0.1538
vn 0.8357 0.2445 -0.4918
vn 0.4924 0.2460 -0.8349
vn 0.3252 0.7512 0.5744
vn 0.0794 0.9849 0.1537
vn 0.5793 0.7490 0.3215
vn 0.1569 0.9845 0.0780
vn 0.4942 0.2460 0.8338
vn 0.8367 0.2444 0.4901
vn 0.4740 0.2601 -0.8412
vn 0.2932 0.8082 -0.5107
vn 0.8422 0.2596 -0.4725
vn 0.5118 0.8077 -0.2927
vn 0.2929 0.8081 0.5110
vn 0.4734 0.2600 0.8416
vn 0.5115 0.8078 0.2930
vn 0.8419 0.2597 0.4731
vn 0.0648 0.9925 -0.1041
vn 0.1044 0.9924 -0.0648
vn 0.0648 0.9924 0.1042
vn 0.1043 0.9924 0.0649
vn -0.5168 0.8040 0.2941
vn -0.8441 0.2558 0.4712
vn -0.2952 0.8067 0.5120
vn -0.4761 0.2585 0.8405
vn -0.1059 0.9922 0.0658
vn -0.0653 0.9923 0.1049
vn -0.2955 0.8067 -0.5117
vn -0.4767 0.2586 -0.8402
vn -0.5172 0.8039 -0.2937
vn -0.8445 0.2557 -0.4706
vn -0.0654 0.9923 -0.1048
vn -0.1060 0.9922 -0.0658
vn 0.8663 -0.0017 -0.4996
vn 0.5009 -0.0017 -0.8655
vn 0.1311 -0.0006 -0.9914
vn 0.5003 -0.0017 0.8659
vn 0.8659 -0.0017 0.5002
vn -0.8670 -0.0017 0.4983
vn -0.5022 -0.0017 0.8648
vn -0.1319 -0.0006 -0.9913
vn -0.5028 -0.0017 -0.8644
vn -0.8674 -0.0017 -0.4977
vn -0.8667 -0.0001 0.4987
vn -0.5012 -0.0001 0.8653
vn -0.4992 -0.0001 -0.8665
vn -0.8656 -0.0001 -0.5008
vn 0.8664 -0.0001 -0.4993
vn 0.5007 -0.0001 -0.8656
vn 0.5027 -0.0001 0.8645
vn 0.8676 -0.0001 0.4973
vn 0.1540 0.9850 0.0773
vn 0.5755 0.7528 0.3195
vn 0.0783 0.9851 0.1532
vn 0.3236 0.7531 0.5728
vn -0.5752 0.7528 0.3200
vn -0.1539 0.9850 0.0775
vn -0.3232 0.7531 0.5731
vn -0.0782 0.9851 0.1533
vn 0.8359 0.2596 0.4835
vn 0.4942 0.2694 0.8265
vn -0.8356 0.2597 0.4842
vn -0.4936 0.2693 0.8269
vn -0.1533 0.9851 -0.0781
vn -0.5732 0.7530 -0.3231
vn -0.0775 0.9850 -0.1538
vn -0.3201 0.7528 -0.5752
vn 0.5735 0.7530 -0.3226
vn 0.1534 0.9851 -0.0780
vn 0.3206 0.7528 -0.5749
vn 0.0777 0.9850 -0.1538
vn -0.8338 0.2348 -0.4996
vn -0.4901 0.2254 -0.8420
vn 0.8342 0.2348 -0.4990
vn 0.4907 0.2254 -0.8417
vn -0.0001 1.0000 -0.0001
vn -0.5023 0.0374 0.8639
vn -0.8671 0.0213 0.4977
vn -0.4989 -0.0314 -0.8661
vn -0.4971 -0.0386 -0.8668
vn -0.8666 -0.0182 -0.4987
vn -0.8646 -0.0225 -0.5019
vn -0.9917 -0.0047 -0.1288
vn 0.8669 -0.0182 -0.4981
vn 0.8650 -0.0225 -0.5013
vn 0.4995 -0.0313 -0.8657
vn 0.4978 -0.0386 -0.8665
vn 0.5011 0.0304 0.8649
vn 0.5029 0.0374 0.8636
vn 0.8657 0.0174 0.5003
vn 0.8674 0.0213 0.4971
vn -0.8653 0.0175 0.5009
vn -0.9912 0.0046 0.1320
vn -0.5005 0.0305 0.8652
vt 0.153474 0.211737
vt 0.161927 0.019448
vt 0.162109 0.991856
vt 0.162109 0.991856
s 1
usemtl BASE_MATERIAL
f 42/1/1 48/1/2 10/1/3 16/1/4
f 43/1/5 53/1/6 39/1/7 40/1/8
f 55/1/9 49/1/10 37/1/11 38/1/12
f 2/1/13 13/1/14 19/1/15 3/1/16
f 50/1/17 56/1/18 24/1/19 21/1/20
f 45/1/21 47/1/22 33/1/23 34/1/24
f 3/1/16 19/1/15 22/1/25 4/1/26
f 41/1/27 43/1/5 40/1/8 35/1/28
f 44/1/29 42/1/1 16/1/4 30/1/30
f 1/1/31 8/1/32 15/1/33 9/1/34
f 51/1/35 45/1/21 34/1/24 36/1/36
f 7/1/37 31/1/38 15/1/33 8/1/32
f 22/1/25 25/1/39 5/1/40 4/1/26
f 28/1/41 6/1/42 5/1/40 25/1/39
f 31/1/38 7/1/37 6/1/42 28/1/41
f 10/1/3 12/1/43 14/1/44 11/1/45
f 11/1/45 14/1/44 13/1/14 9/1/34
f 16/1/4 10/1/3 11/1/45 17/1/46
f 17/1/46 11/1/45 9/1/34 15/1/33
f 12/1/43 18/1/47 20/1/48 14/1/44
f 14/1/44 20/1/48 19/1/15 13/1/14
f 18/1/47 21/1/20 23/1/49 20/1/48
f 20/1/48 23/1/49 22/1/25 19/1/15
f 21/1/20 24/1/19 26/1/50 23/1/49
f 23/1/49 26/1/50 25/1/39 22/1/25
f 24/1/19 27/1/51 29/1/52 26/1/50
f 26/1/50 29/1/52 28/1/41 25/1/39
f 27/1/51 30/1/30 32/1/53 29/1/52
f 29/1/52 32/1/53 31/1/38 28/1/41
f 30/1/30 16/1/4 17/1/46 32/1/53
f 32/1/53 17/1/46 15/1/33 31/1/38
f 2/1/13 1/1/31 9/1/34 13/1/14
f 35/2/54 40/2/54 39/2/54 38/2/54 37/2/54 36/2/54 34/2/54 33/2/54
f 53/1/6 55/1/9 38/1/12 39/1/7
f 49/1/10 51/1/35 36/1/36 37/1/11
f 52/1/55 50/1/17 21/1/20 18/1/47
f 216/1/56 178/1/57 180/1/58 214/1/59
f 54/1/60 44/1/29 30/1/30 27/1/51
f 56/1/18 54/1/60 27/1/51 24/1/19
f 46/1/61 52/1/55 18/1/47 12/1/43
f 47/1/22 45/1/21 46/1/61 48/1/2
f 41/1/27 47/1/22 48/1/2 42/1/1
f 45/1/21 51/1/35 52/1/55 46/1/61
f 51/1/35 49/1/10 50/1/17 52/1/55
f 49/1/10 55/1/9 56/1/18 50/1/17
f 55/1/9 53/1/6 54/1/60 56/1/18
f 53/1/6 43/1/5 44/1/29 54/1/60
f 43/1/5 41/1/27 42/1/1 44/1/29
f 47/1/22 41/1/27 35/1/28 33/1/23
f 98/1/1 104/1/2 66/1/3 72/1/4
f 99/1/5 109/1/6 95/1/7 96/1/8
f 111/1/9 105/1/10 93/1/11 94/1/12
f 58/1/13 69/1/14 75/1/15 59/1/16
f 106/1/17 112/1/18 80/1/19 77/1/20
f 101/1/21 103/1/22 89/1/23 90/1/24
f 59/1/16 75/1/15 78/1/25 60/1/26
f 97/1/27 99/1/5 96/1/8 91/1/28
f 100/1/29 98/1/1 72/1/4 86/1/30
f 57/1/31 64/1/32 71/1/33 65/1/34
f 107/1/35 101/1/21 90/1/24 92/1/36
f 63/1/37 87/1/38 71/1/33 64/1/32
f 78/1/25 81/1/39 61/1/40 60/1/26
f 84/1/41 62/1/42 61/1/40 81/1/39
f 87/1/38 63/1/37 62/1/42 84/1/41
f 66/1/3 68/1/43 70/1/44 67/1/45
f 67/1/45 70/1/44 69/1/14 65/1/34
f 72/1/4 66/1/3 67/1/45 73/1/46
f 73/1/46 67/1/45 65/1/34 71/1/33
f 68/1/43 74/1/47 76/1/48 70/1/44
f 70/1/44 76/1/48 75/1/15 69/1/14
f 74/1/47 77/1/20 79/1/49 76/1/48
f 76/1/48 79/1/49 78/1/25 75/1/15
f 77/1/20 80/1/19 82/1/50 79/1/49
f 79/1/49 82/1/50 81/1/39 78/1/25
f 80/1/19 83/1/51 85/1/52 82/1/50
f 82/1/50 85/1/52 84/1/41 81/1/39
f 83/1/51 86/1/30 88/1/53 85/1/52
f 85/1/52 88/1/53 87/1/38 84/1/41
f 86/1/30 72/1/4 73/1/46 88/1/53
f 88/1/53 73/1/46 71/1/33 87/1/38
f 58/1/13 57/1/31 65/1/34 69/1/14
f 91/2/54 96/2/54 95/2/54 94/2/54 93/2/54 92/2/54 90/2/54 89/2/54
f 109/1/6 111/1/9 94/1/12 95/1/7
f 105/1/10 107/1/35 92/1/36 93/1/11
f 108/1/55 106/1/17 77/1/20 74/1/47
f 48/1/2 46/1/61 12/1/43 10/1/3
f 110/1/60 100/1/29 86/1/30 83/1/51
f 112/1/18 110/1/60 83/1/51 80/1/19
f 102/1/61 108/1/55 74/1/47 68/1/43
f 103/1/22 101/1/21 102/1/61 104/1/2
f 97/1/27 103/1/22 104/1/2 98/1/1
f 101/1/21 107/1/35 108/1/55 102/1/61
f 107/1/35 105/1/10 106/1/17 108/1/55
f 105/1/10 111/1/9 112/1/18 106/1/17
f 111/1/9 109/1/6 110/1/60 112/1/18
f 109/1/6 99/1/5 100/1/29 110/1/60
f 99/1/5 97/1/27 98/1/1 100/1/29
f 103/1/22 97/1/27 91/1/28 89/1/23
f 154/1/62 128/1/63 122/1/57 160/1/56
f 155/1/64 152/1/65 151/1/66 165/1/67
f 167/1/68 150/1/69 149/1/70 161/1/71
f 114/1/72 115/1/73 131/1/74 125/1/75
f 162/1/76 133/1/77 136/1/78 168/1/79
f 157/1/80 146/1/81 145/1/82 159/1/83
f 115/1/73 116/1/84 134/1/85 131/1/74
f 153/1/86 147/1/87 152/1/65 155/1/64
f 156/1/88 142/1/89 128/1/63 154/1/62
f 113/1/90 121/1/91 127/1/92 120/1/93
f 163/1/94 148/1/95 146/1/81 157/1/80
f 119/1/96 120/1/93 127/1/92 143/1/97
f 134/1/85 116/1/84 117/1/98 137/1/99
f 140/1/100 137/1/99 117/1/98 118/1/101
f 143/1/97 140/1/100 118/1/101 119/1/96
f 122/1/57 123/1/102 126/1/103 124/1/58
f 123/1/102 121/1/91 125/1/75 126/1/103
f 128/1/63 129/1/104 123/1/102 122/1/57
f 129/1/104 127/1/92 121/1/91 123/1/102
f 124/1/58 126/1/103 132/1/105 130/1/106
f 126/1/103 125/1/75 131/1/74 132/1/105
f 130/1/106 132/1/105 135/1/107 133/1/77
f 132/1/105 131/1/74 134/1/85 135/1/107
f 133/1/77 135/1/107 138/1/108 136/1/78
f 135/1/107 134/1/85 137/1/99 138/1/108
f 136/1/78 138/1/108 141/1/109 139/1/110
f 138/1/108 137/1/99 140/1/100 141/1/109
f 139/1/110 141/1/109 144/1/111 142/1/89
f 141/1/109 140/1/100 143/1/97 144/1/111
f 142/1/89 144/1/111 129/1/104 128/1/63
f 144/1/111 143/1/97 127/1/92 129/1/104
f 114/1/72 125/1/75 121/1/91 113/1/90
f 147/2/112 145/2/112 146/2/112 148/2/112 149/2/112 150/2/112 151/2/112 152/2/112
f 165/1/67 151/1/66 150/1/69 167/1/68
f 161/1/71 149/1/70 148/1/95 163/1/94
f 164/1/113 130/1/106 133/1/77 162/1/76
f 328/1/114 290/1/115 292/1/116 326/1/117
f 166/1/118 139/1/110 142/1/89 156/1/88
f 168/1/79 136/1/78 139/1/110 166/1/118
f 158/1/59 124/1/58 130/1/106 164/1/113
f 159/1/83 160/1/56 158/1/59 157/1/80
f 153/1/86 154/1/62 160/1/56 159/1/83
f 157/1/80 158/1/59 164/1/113 163/1/94
f 163/1/94 164/1/113 162/1/76 161/1/71
f 161/1/71 162/1/76 168/1/79 167/1/68
f 167/1/68 168/1/79 166/1/118 165/1/67
f 165/1/67 166/1/118 156/1/88 155/1/64
f 155/1/64 156/1/88 154/1/62 153/1/86
f 159/1/83 145/1/82 147/1/87 153/1/86
f 210/1/62 184/1/63 178/1/57 216/1/56
f 211/1/64 208/1/65 207/1/66 221/1/67
f 223/1/68 206/1/69 205/1/70 217/1/71
f 170/1/72 171/1/73 187/1/74 181/1/75
f 218/1/76 189/1/77 192/1/78 224/1/79
f 213/1/80 202/1/81 201/1/82 215/1/83
f 171/1/73 172/1/84 190/1/85 187/1/74
f 209/1/86 203/1/87 208/1/65 211/1/64
f 212/1/88 198/1/89 184/1/63 210/1/62
f 169/1/90 177/1/91 183/1/92 176/1/93
f 219/1/94 204/1/95 202/1/81 213/1/80
f 175/1/96 176/1/93 183/1/92 199/1/97
f 190/1/85 172/1/84 173/1/98 193/1/99
f 196/1/100 193/1/99 173/1/98 174/1/101
f 199/1/97 196/1/100 174/1/101 175/1/96
f 178/1/57 179/1/102 182/1/103 180/1/58
f 179/1/102 177/1/91 181/1/75 182/1/103
f 184/1/63 185/1/104 179/1/102 178/1/57
f 185/1/104 183/1/92 177/1/91 179/1/102
f 180/1/58 182/1/103 188/1/105 186/1/106
f 182/1/103 181/1/75 187/1/74 188/1/105
f 186/1/106 188/1/105 191/1/107 189/1/77
f 188/1/105 187/1/74 190/1/85 191/1/107
f 189/1/77 191/1/107 194/1/108 192/1/78
f 191/1/107 190/1/85 193/1/99 194/1/108
f 192/1/78 194/1/108 197/1/109 195/1/110
f 194/1/108 193/1/99 196/1/100 197/1/109
f 195/1/110 197/1/109 200/1/111 198/1/89
f 197/1/109 196/1/100 199/1/97 200/1/111
f 198/1/89 200/1/111 185/1/104 184/1/63
f 200/1/111 199/1/97 183/1/92 185/1/104
f 170/1/72 181/1/75 177/1/91 169/1/90
f 203/2/112 201/2/112 202/2/112 204/2/112 205/2/112 206/2/112 207/2/112 208/2/112
f 221/1/67 207/1/66 206/1/69 223/1/68
f 217/1/71 205/1/70 204/1/95 219/1/94
f 220/1/113 186/1/106 189/1/77 218/1/76
f 160/1/56 122/1/57 124/1/58 158/1/59
f 222/1/118 195/1/110 198/1/89 212/1/88
f 224/1/79 192/1/78 195/1/110 222/1/118
f 214/1/59 180/1/58 186/1/106 220/1/113
f 215/1/83 216/1/56 214/1/59 213/1/80
f 209/1/86 210/1/62 216/1/56 215/1/83
f 213/1/80 214/1/59 220/1/113 219/1/94
f 219/1/94 220/1/113 218/1/76 217/1/71
f 217/1/71 218/1/76 224/1/79 223/1/68
f 223/1/68 224/1/79 222/1/118 221/1/67
f 221/1/67 222/1/118 212/1/88 211/1/64
f 211/1/64 212/1/88 210/1/62 209/1/86
f 215/1/83 201/1/82 203/1/87 209/1/86
f 764/3/119 775/3/120 784/3/121 771/3/122
f 715/3/123 704/3/124 679/3/125 684/3/126
f 787/3/127 739/3/128 756/3/129 796/3/130
f 776/3/131 743/3/132 748/3/133 783/3/134
f 768/3/135 755/3/136 759/3/137 772/3/138
f 699/3/139 712/3/140 708/3/141 691/3/142
f 703/3/143 696/3/144 675/3/145 680/3/146
f 716/3/147 727/3/148 736/3/149 723/3/150
f 691/3/142 708/3/141 751/3/151 744/3/152
f 791/3/153 788/3/153 843/3/154 836/3/155
f 728/3/156 695/3/157 700/3/158 735/3/159
f 747/3/160 760/3/161 756/3/129 739/3/128
f 683/3/162 685/3/162 686/3/162 684/3/162 679/3/162 681/3/162 682/3/162 680/3/162 675/3/162 677/3/162 678/3/162 676/3/162 687/3/162 689/3/162 690/3/162 688/3/162
f 772/3/138 759/3/137 752/3/163 763/3/164
f 800/3/165 795/3/166 755/3/136 768/3/135
f 791/3/167 779/3/168 740/3/169 788/3/170
f 783/3/134 748/3/133 740/3/169 779/3/168
f 771/3/122 784/3/121 780/3/171 767/3/172
f 744/3/152 751/3/151 760/3/161 747/3/160
f 720/3/173 707/3/174 711/3/175 724/3/176
f 799/3/177 767/3/172 780/3/171 792/3/178
f 724/3/176 711/3/175 704/3/124 715/3/123
f 763/3/164 752/3/163 707/3/174 720/3/173
f 731/3/179 692/3/180 743/3/132 776/3/131
f 735/3/159 700/3/158 692/3/180 731/3/179
f 723/3/150 736/3/149 732/3/181 719/3/182
f 696/3/144 703/3/143 712/3/140 699/3/139
f 727/3/148 716/3/147 683/3/183 688/3/184
f 719/3/182 732/3/181 775/3/120 764/3/119
f 795/3/162 800/3/162 855/3/185 824/3/186
f 875/3/187 882/3/188 815/3/189 812/3/190
f 799/3/191 792/3/191 835/3/192 856/3/193
f 879/3/194 867/3/195 807/3/196 816/3/197
f 787/3/162 796/3/162 823/3/198 844/3/199
f 851/3/200 828/3/201 820/3/202 847/3/203
f 871/3/204 878/3/205 811/3/206 804/3/207
f 870/3/208 847/3/203 820/3/202 874/3/209
f 856/3/193 835/3/192 840/3/210 863/3/211
f 863/3/211 840/3/210 832/3/212 859/3/213
f 844/3/199 823/3/198 828/3/201 851/3/200
f 824/3/186 855/3/185 864/3/214 827/3/215
f 827/3/215 864/3/214 860/3/216 819/3/217
f 836/3/155 843/3/154 852/3/218 839/3/219
f 839/3/219 852/3/218 848/3/220 831/3/221
f 266/1/222 272/1/223 234/1/224 240/1/225
f 267/1/226 277/1/227 263/1/228 264/1/229
f 279/1/230 273/1/231 261/1/232 262/1/233
f 226/1/234 237/1/235 243/1/236 227/1/237
f 274/1/238 280/1/239 248/1/240 245/1/241
f 269/1/242 271/1/243 257/1/244 258/1/245
f 227/1/237 243/1/236 246/1/246 228/1/247
f 265/1/248 267/1/226 264/1/229 259/1/249
f 268/1/250 266/1/222 240/1/225 254/1/251
f 225/1/252 232/1/253 239/1/254 233/1/255
f 275/1/256 269/1/242 258/1/245 260/1/257
f 231/1/258 255/1/259 239/1/254 232/1/253
f 246/1/246 249/1/260 229/1/261 228/1/247
f 252/1/262 230/1/263 229/1/261 249/1/260
f 255/1/259 231/1/258 230/1/263 252/1/262
f 234/1/224 236/1/264 238/1/265 235/1/266
f 235/1/266 238/1/265 237/1/235 233/1/255
f 240/1/225 234/1/224 235/1/266 241/1/267
f 241/1/267 235/1/266 233/1/255 239/1/254
f 236/1/264 242/1/268 244/1/269 238/1/265
f 238/1/265 244/1/269 243/1/236 237/1/235
f 242/1/268 245/1/241 247/1/270 244/1/269
f 244/1/269 247/1/270 246/1/246 243/1/236
f 245/1/241 248/1/240 250/1/271 247/1/270
f 247/1/270 250/1/271 249/1/260 246/1/246
f 248/1/240 251/1/272 253/1/273 250/1/271
f 250/1/271 253/1/273 252/1/262 249/1/260
f 251/1/272 254/1/251 256/1/274 253/1/273
f 253/1/273 256/1/274 255/1/259 252/1/262
f 254/1/251 240/1/225 241/1/267 256/1/274
f 256/1/274 241/1/267 239/1/254 255/1/259
f 226/1/234 225/1/252 233/1/255 237/1/235
f 259/2/275 264/2/275 263/2/275 262/2/275 261/2/275 260/2/275 258/2/275 257/2/275
f 277/1/227 279/1/230 262/1/233 263/1/228
f 273/1/231 275/1/256 260/1/257 261/1/232
f 276/1/276 274/1/238 245/1/241 242/1/268
f 104/1/2 102/1/61 68/1/43 66/1/3
f 278/1/277 268/1/250 254/1/251 251/1/272
f 280/1/239 278/1/277 251/1/272 248/1/240
f 270/1/278 276/1/276 242/1/268 236/1/264
f 271/1/243 269/1/242 270/1/278 272/1/223
f 265/1/248 271/1/243 272/1/223 266/1/222
f 269/1/242 275/1/256 276/1/276 270/1/278
f 275/1/256 273/1/231 274/1/238 276/1/276
f 273/1/231 279/1/230 280/1/239 274/1/238
f 279/1/230 277/1/227 278/1/277 280/1/239
f 277/1/227 267/1/226 268/1/250 278/1/277
f 267/1/226 265/1/248 266/1/222 268/1/250
f 271/1/243 265/1/248 259/1/249 257/1/244
f 322/1/279 296/1/280 290/1/115 328/1/114
f 323/1/281 320/1/282 319/1/283 333/1/284
f 335/1/285 318/1/286 317/1/287 329/1/288
f 282/1/289 283/1/290 299/1/291 293/1/292
f 330/1/293 301/1/294 304/1/295 336/1/296
f 325/1/297 314/1/298 313/1/299 327/1/300
f 283/1/290 284/1/301 302/1/302 299/1/291
f 321/1/303 315/1/304 320/1/282 323/1/281
f 324/1/305 310/1/306 296/1/280 322/1/279
f 281/1/307 289/1/308 295/1/309 288/1/310
f 331/1/311 316/1/312 314/1/298 325/1/297
f 287/1/313 288/1/310 295/1/309 311/1/314
f 302/1/302 284/1/301 285/1/315 305/1/316
f 308/1/317 305/1/316 285/1/315 286/1/318
f 311/1/314 308/1/317 286/1/318 287/1/313
f 290/1/115 291/1/319 294/1/320 292/1/116
f 291/1/319 289/1/308 293/1/292 294/1/320
f 296/1/280 297/1/321 291/1/319 290/1/115
f 297/1/321 295/1/309 289/1/308 291/1/319
f 292/1/116 294/1/320 300/1/322 298/1/323
f 294/1/320 293/1/292 299/1/291 300/1/322
f 298/1/323 300/1/322 303/1/324 301/1/294
f 300/1/322 299/1/291 302/1/302 303/1/324
f 301/1/294 303/1/324 306/1/325 304/1/295
f 303/1/324 302/1/302 305/1/316 306/1/325
f 304/1/295 306/1/325 309/1/326 307/1/327
f 306/1/325 305/1/316 308/1/317 309/1/326
f 307/1/327 309/1/326 312/1/328 310/1/306
f 309/1/326 308/1/317 311/1/314 312/1/328
f 310/1/306 312/1/328 297/1/321 296/1/280
f 312/1/328 311/1/314 295/1/309 297/1/321
f 282/1/289 293/1/292 289/1/308 281/1/307
f 315/2/329 313/2/329 314/2/329 316/2/329 317/2/329 318/2/329 319/2/329 320/2/329
f 333/1/284 319/1/283 318/1/286 335/1/285
f 329/1/288 317/1/287 316/1/312 331/1/311
f 332/1/330 298/1/323 301/1/294 330/1/293
f 436/1/331 435/1/332 437/1/333 438/1/334
f 334/1/335 307/1/327 310/1/306 324/1/305
f 336/1/296 304/1/295 307/1/327 334/1/335
f 326/1/117 292/1/116 298/1/323 332/1/330
f 327/1/300 328/1/114 326/1/117 325/1/297
f 321/1/303 322/1/279 328/1/114 327/1/300
f 325/1/297 326/1/117 332/1/330 331/1/311
f 331/1/311 332/1/330 330/1/293 329/1/288
f 329/1/288 330/1/293 336/1/296 335/1/285
f 335/1/285 336/1/296 334/1/335 333/1/284
f 333/1/284 334/1/335 324/1/305 323/1/281
f 323/1/281 324/1/305 322/1/279 321/1/303
f 327/1/300 313/1/299 315/1/304 321/1/303
f 376/1/336 374/1/337 341/1/338 340/1/339
f 405/1/340 433/1/341 400/1/342 403/1/343
f 434/1/344 401/1/345 370/1/346 399/1/347
f 360/1/348 352/1/349 358/1/350 359/1/351
f 362/1/352 354/1/353 353/1/354 361/1/355
f 364/1/356 349/1/357 350/1/358 363/1/359
f 365/1/360 355/1/361 354/1/353 362/1/352
f 366/1/362 348/1/362 349/1/357 364/1/356
f 367/1/363 351/1/364 352/1/349 360/1/348
f 368/1/365 356/1/366 355/1/361 365/1/360
f 369/1/367 357/1/368 356/1/366 368/1/365
f 361/1/355 353/1/354 348/1/362 366/1/362
f 363/1/359 350/1/358 351/1/364 367/1/363
f 359/1/351 358/1/350 357/1/368 369/1/367
f 374/1/337 402/1/369 347/1/112 341/1/338
f 379/1/370 376/1/336 340/1/339 339/1/371
f 381/1/372 379/1/370 339/1/371 338/1/373
f 384/1/374 381/1/372 338/1/373 337/1/162
f 386/1/375 384/1/374 337/1/162 342/1/376
f 389/1/377 386/1/375 342/1/376 343/1/378
f 392/1/379 389/1/377 343/1/378 344/1/380
f 395/1/381 392/1/379 344/1/380 345/1/382
f 343/1/329 342/1/329 353/1/329 354/1/329
f 342/1/329 337/1/329 348/1/329 353/1/329
f 337/1/329 338/1/329 349/1/329 348/1/329
f 338/1/329 339/1/329 350/1/329 349/1/329
f 339/1/329 340/1/329 351/1/329 350/1/329
f 340/1/329 341/1/329 352/1/329 351/1/329
f 398/1/383 395/1/381 345/1/382 346/1/54
f 344/1/329 343/1/329 354/1/329 355/1/329
f 345/1/329 344/1/329 355/1/329 356/1/329
f 346/1/329 345/1/329 356/1/329 357/1/329
f 341/1/329 347/1/329 358/1/329 352/1/329
f 347/1/112 402/1/369 404/1/369 372/1/112
f 347/1/329 346/1/329 357/1/329 358/1/329
f 414/1/384 364/1/385 363/1/386 412/1/387
f 421/1/388 362/1/389 361/1/390 419/1/391
f 430/1/392 359/1/378 369/1/371 428/1/393
f 428/1/393 369/1/371 368/1/394 425/1/395
f 406/1/396 360/1/397 359/1/378 430/1/392
f 419/1/391 361/1/390 366/1/398 417/1/399
f 425/1/395 368/1/394 365/1/400 423/1/401
f 417/1/399 366/1/398 364/1/385 414/1/384
f 423/1/401 365/1/400 362/1/389 421/1/388
f 412/1/387 363/1/386 367/1/402 409/1/403
f 369/2/275 359/2/275 360/2/275 367/2/275 363/2/275 364/2/275 366/2/275 361/2/275 362/2/275 365/2/275 368/2/275
f 398/1/383 346/1/54 373/1/54 371/1/383
f 427/1/404 434/1/344 433/1/341 431/1/405
f 409/1/403 367/1/402 360/1/397 406/1/396
f 401/1/345 398/1/383 371/1/383 370/1/346
f 427/1/404 401/1/345 434/1/344
f 433/1/341 434/1/344 399/1/347 400/1/342
f 377/1/406 407/1/407 375/1/408 378/1/409
f 378/1/409 375/1/408 374/1/337 376/1/336
f 411/1/410 377/1/406 378/1/409 380/1/411
f 380/1/411 378/1/409 376/1/336 379/1/370
f 382/1/412 411/1/410 380/1/411 383/1/413
f 383/1/413 380/1/411 379/1/370 381/1/372
f 416/1/414 382/1/412 383/1/413 385/1/415
f 385/1/415 383/1/413 381/1/372 384/1/374
f 387/1/416 416/1/414 385/1/415 388/1/417
f 388/1/417 385/1/415 384/1/374 386/1/375
f 390/1/418 387/1/416 388/1/417 391/1/419
f 391/1/419 388/1/417 386/1/375 389/1/377
f 393/1/420 390/1/418 391/1/419 394/1/421
f 394/1/421 391/1/419 389/1/377 392/1/379
f 396/1/422 393/1/420 394/1/421 397/1/423
f 397/1/423 394/1/421 392/1/379 395/1/381
f 427/1/404 396/1/422 397/1/423 401/1/345
f 401/1/345 397/1/423 395/1/381 398/1/383
f 407/1/407 431/1/405 405/1/340 375/1/408
f 375/1/408 405/1/340 402/1/369 374/1/337
f 409/1/403 406/1/396 408/1/424 410/1/425
f 410/1/425 408/1/424 407/1/407 377/1/406
f 412/1/387 409/1/403 410/1/425 413/1/426
f 413/1/426 410/1/425 377/1/406 411/1/410
f 414/1/384 412/1/387 413/1/426 415/1/427
f 415/1/427 413/1/426 411/1/410 382/1/412
f 417/1/399 414/1/384 415/1/427 418/1/428
f 418/1/428 415/1/427 382/1/412 416/1/414
f 419/1/391 417/1/399 418/1/428 420/1/429
f 420/1/429 418/1/428 416/1/414 387/1/416
f 421/1/388 419/1/391 420/1/429 422/1/430
f 422/1/430 420/1/429 387/1/416 390/1/418
f 423/1/401 421/1/388 422/1/430 424/1/431
f 424/1/431 422/1/430 390/1/418 393/1/420
f 425/1/395 423/1/401 424/1/431 426/1/432
f 426/1/432 424/1/431 393/1/420 396/1/422
f 428/1/393 425/1/395 426/1/432 429/1/433
f 429/1/433 426/1/432 396/1/422 427/1/404
f 406/1/396 430/1/392 432/1/434 408/1/424
f 408/1/424 432/1/434 431/1/405 407/1/407
f 430/1/392 428/1/393 429/1/433 432/1/434
f 432/1/434 429/1/433 427/1/404 431/1/405
f 402/1/369 405/1/340 403/1/343 404/1/369
f 433/1/341 405/1/340 431/1/405
f 346/1/329 347/1/329 372/1/329 373/1/329
f 452/1/162 436/1/331 438/1/334 454/1/371
f 460/1/389 442/1/435 444/1/436 463/1/398
f 463/1/398 444/1/436 446/1/437 466/1/386
f 466/1/386 446/1/437 448/1/438 469/1/54
f 469/1/54 448/1/438 450/1/439 472/1/378
f 454/1/371 438/1/334 440/1/440 457/1/112
f 457/1/112 440/1/440 442/1/435 460/1/389
f 472/1/378 450/1/439 436/1/331 452/1/162
f 438/1/334 437/1/333 439/1/441 440/1/440
f 440/1/440 439/1/441 441/1/442 442/1/435
f 442/1/435 441/1/442 443/1/443 444/1/436
f 444/1/436 443/1/443 445/1/444 446/1/437
f 446/1/437 445/1/444 447/1/445 448/1/438
f 448/1/438 447/1/445 449/1/446 450/1/439
f 450/1/439 449/1/446 435/1/332 436/1/331
f 516/1/331 515/1/332 517/1/333 518/1/447
f 437/1/333 435/1/332 449/1/446 447/1/445 445/1/444 443/1/443 441/1/442 439/1/441
f 452/1/448 454/1/449 456/1/450 453/1/451
f 453/1/451 456/1/450 455/1/452 451/1/453
f 454/1/449 457/1/454 459/1/455 456/1/450
f 456/1/450 459/1/455 458/1/456 455/1/452
f 457/1/454 460/1/457 462/1/458 459/1/455
f 459/1/455 462/1/458 461/1/459 458/1/456
f 460/1/457 463/1/460 465/1/461 462/1/458
f 462/1/458 465/1/461 464/1/462 461/1/459
f 463/1/460 466/1/463 468/1/464 465/1/461
f 465/1/461 468/1/464 467/1/465 464/1/462
f 466/1/463 469/1/466 471/1/467 468/1/464
f 468/1/464 471/1/467 470/1/468 467/1/465
f 469/1/466 472/1/469 474/1/470 471/1/467
f 471/1/467 474/1/470 473/1/471 470/1/468
f 472/1/469 452/1/448 453/1/451 474/1/470
f 474/1/470 453/1/451 451/1/453 473/1/471
f 451/1/329 455/1/329 458/1/329 461/1/329 464/1/329 467/1/329 470/1/329 473/1/329
f 492/1/162 494/1/371 478/1/472 476/1/473
f 500/1/389 503/1/398 484/1/474 482/1/475
f 503/1/398 506/1/386 486/1/476 484/1/474
f 506/1/386 509/1/54 488/1/477 486/1/476
f 509/1/54 512/1/378 490/1/478 488/1/477
f 494/1/371 497/1/112 480/1/479 478/1/472
f 497/1/112 500/1/389 482/1/475 480/1/479
f 512/1/378 492/1/162 476/1/473 490/1/478
f 480/1/479 479/1/480 477/1/481 478/1/472
f 482/1/475 481/1/482 479/1/480 480/1/479
f 484/1/474 483/1/483 481/1/482 482/1/475
f 486/1/476 485/1/484 483/1/483 484/1/474
f 488/1/477 487/1/485 485/1/484 486/1/476
f 490/1/478 489/1/486 487/1/485 488/1/477
f 476/1/473 475/1/487 489/1/486 490/1/478
f 558/1/472 557/1/481 555/1/487 556/1/473
f 477/1/481 479/1/480 481/1/482 483/1/483 485/1/484 487/1/485 489/1/486 475/1/487
f 492/1/488 493/1/489 496/1/490 494/1/491
f 493/1/489 491/1/492 495/1/493 496/1/490
f 494/1/491 496/1/490 499/1/494 497/1/495
f 496/1/490 495/1/493 498/1/496 499/1/494
f 497/1/495 499/1/494 502/1/497 500/1/498
f 499/1/494 498/1/496 501/1/499 502/1/497
f 500/1/498 502/1/497 505/1/500 503/1/501
f 502/1/497 501/1/499 504/1/502 505/1/500
f 503/1/501 505/1/500 508/1/503 506/1/504
f 505/1/500 504/1/502 507/1/505 508/1/503
f 506/1/504 508/1/503 511/1/506 509/1/507
f 508/1/503 507/1/505 510/1/508 511/1/506
f 509/1/507 511/1/506 514/1/509 512/1/510
f 511/1/506 510/1/508 513/1/511 514/1/509
f 512/1/510 514/1/509 493/1/489 492/1/488
f 514/1/509 513/1/511 491/1/492 493/1/489
f 491/1/275 513/1/275 510/1/275 507/1/275 504/1/275 501/1/275 498/1/275 495/1/275
f 532/1/162 516/1/331 518/1/447 534/1/371
f 540/1/389 522/1/512 524/1/436 543/1/398
f 543/1/398 524/1/436 526/1/513 546/1/386
f 546/1/386 526/1/513 528/1/514 549/1/54
f 549/1/54 528/1/514 530/1/515 552/1/378
f 534/1/371 518/1/447 520/1/440 537/1/112
f 537/1/112 520/1/440 522/1/512 540/1/389
f 552/1/378 530/1/515 516/1/331 532/1/162
f 518/1/447 517/1/333 519/1/441 520/1/440
f 520/1/440 519/1/441 521/1/442 522/1/512
f 522/1/512 521/1/442 523/1/443 524/1/436
f 524/1/436 523/1/443 525/1/444 526/1/513
f 526/1/513 525/1/444 527/1/445 528/1/514
f 528/1/514 527/1/445 529/1/446 530/1/515
f 530/1/515 529/1/446 515/1/332 516/1/331
f 596/1/331 595/1/332 597/1/333 598/1/447
f 517/1/333 515/1/332 529/1/446 527/1/445 525/1/444 523/1/443 521/1/442 519/1/441
f 532/1/448 534/1/449 536/1/450 533/1/451
f 533/1/451 536/1/450 535/1/452 531/1/453
f 534/1/449 537/1/454 539/1/455 536/1/450
f 536/1/450 539/1/455 538/1/456 535/1/452
f 537/1/454 540/1/457 542/1/458 539/1/455
f 539/1/455 542/1/458 541/1/459 538/1/456
f 540/1/457 543/1/460 545/1/461 542/1/458
f 542/1/458 545/1/461 544/1/462 541/1/459
f 543/1/460 546/1/463 548/1/464 545/1/461
f 545/1/461 548/1/464 547/1/465 544/1/462
f 546/1/463 549/1/466 551/1/467 548/1/464
f 548/1/464 551/1/467 550/1/468 547/1/465
f 549/1/466 552/1/469 554/1/470 551/1/467
f 551/1/467 554/1/470 553/1/471 550/1/468
f 552/1/469 532/1/448 533/1/451 554/1/470
f 554/1/470 533/1/451 531/1/453 553/1/471
f 531/1/329 535/1/329 538/1/329 541/1/329 544/1/329 547/1/329 550/1/329 553/1/329
f 572/1/162 574/1/371 558/1/472 556/1/473
f 580/1/389 583/1/398 564/1/474 562/1/475
f 583/1/398 586/1/386 566/1/516 564/1/474
f 586/1/386 589/1/54 568/1/477 566/1/516
f 589/1/54 592/1/378 570/1/517 568/1/477
f 574/1/371 577/1/112 560/1/479 558/1/472
f 577/1/112 580/1/389 562/1/475 560/1/479
f 592/1/378 572/1/162 556/1/473 570/1/517
f 560/1/479 559/1/480 557/1/481 558/1/472
f 562/1/475 561/1/482 559/1/480 560/1/479
f 564/1/474 563/1/483 561/1/482 562/1/475
f 566/1/516 565/1/484 563/1/483 564/1/474
f 568/1/477 567/1/485 565/1/484 566/1/516
f 570/1/517 569/1/486 567/1/485 568/1/477
f 556/1/473 555/1/487 569/1/486 570/1/517
f 638/1/472 637/1/481 635/1/487 636/1/473
f 557/1/481 559/1/480 561/1/482 563/1/483 565/1/484 567/1/485 569/1/486 555/1/487
f 572/1/488 573/1/489 576/1/490 574/1/491
f 573/1/489 571/1/492 575/1/493 576/1/490
f 574/1/491 576/1/490 579/1/494 577/1/495
f 576/1/490 575/1/493 578/1/496 579/1/494
f 577/1/495 579/1/494 582/1/497 580/1/498
f 579/1/494 578/1/496 581/1/499 582/1/497
f 580/1/498 582/1/497 585/1/500 583/1/501
f 582/1/497 581/1/499 584/1/502 585/1/500
f 583/1/501 585/1/500 588/1/503 586/1/504
f 585/1/500 584/1/502 587/1/505 588/1/503
f 586/1/504 588/1/503 591/1/506 589/1/507
f 588/1/503 587/1/505 590/1/508 591/1/506
f 589/1/507 591/1/506 594/1/509 592/1/510
f 591/1/506 590/1/508 593/1/511 594/1/509
f 592/1/510 594/1/509 573/1/489 572/1/488
f 594/1/509 593/1/511 571/1/492 573/1/489
f 571/1/275 593/1/275 590/1/275 587/1/275 584/1/275 581/1/275 578/1/275 575/1/275
f 612/1/162 596/1/331 598/1/447 614/1/371
f 620/1/389 602/1/512 604/1/436 623/1/398
f 623/1/398 604/1/436 606/1/437 626/1/386
f 626/1/386 606/1/437 608/1/514 629/1/54
f 629/1/54 608/1/514 610/1/439 632/1/378
f 614/1/371 598/1/447 600/1/440 617/1/112
f 617/1/112 600/1/440 602/1/512 620/1/389
f 632/1/378 610/1/439 596/1/331 612/1/162
f 598/1/447 597/1/333 599/1/441 600/1/440
f 600/1/440 599/1/441 601/1/442 602/1/512
f 602/1/512 601/1/442 603/1/443 604/1/436
f 604/1/436 603/1/443 605/1/444 606/1/437
f 606/1/437 605/1/444 607/1/445 608/1/514
f 608/1/514 607/1/445 609/1/446 610/1/439
f 610/1/439 609/1/446 595/1/332 596/1/331
f 478/1/472 477/1/481 475/1/487 476/1/473
f 597/1/333 595/1/332 609/1/446 607/1/445 605/1/444 603/1/443 601/1/442 599/1/441
f 612/1/448 614/1/449 616/1/450 613/1/451
f 613/1/451 616/1/450 615/1/452 611/1/518
f 614/1/449 617/1/454 619/1/455 616/1/450
f 616/1/450 619/1/455 618/1/456 615/1/452
f 617/1/454 620/1/457 622/1/458 619/1/455
f 619/1/455 622/1/458 621/1/459 618/1/456
f 620/1/457 623/1/460 625/1/461 622/1/458
f 622/1/458 625/1/461 624/1/462 621/1/459
f 623/1/460 626/1/463 628/1/464 625/1/461
f 625/1/461 628/1/464 627/1/519 624/1/462
f 626/1/463 629/1/466 631/1/467 628/1/464
f 628/1/464 631/1/467 630/1/520 627/1/519
f 629/1/466 632/1/469 634/1/470 631/1/467
f 631/1/467 634/1/470 633/1/521 630/1/520
f 632/1/469 612/1/448 613/1/451 634/1/470
f 634/1/470 613/1/451 611/1/518 633/1/521
f 611/1/329 615/1/329 618/1/329 621/1/329 624/1/329 627/1/329 630/1/329 633/1/329
f 652/1/162 654/1/371 638/1/472 636/1/473
f 660/1/389 663/1/398 644/1/474 642/1/475
f 663/1/398 666/1/386 646/1/516 644/1/474
f 666/1/386 669/1/54 648/1/522 646/1/516
f 669/1/54 672/1/378 650/1/523 648/1/522
f 654/1/371 657/1/112 640/1/479 638/1/472
f 657/1/112 660/1/389 642/1/475 640/1/479
f 672/1/378 652/1/162 636/1/473 650/1/523
f 640/1/479 639/1/480 637/1/481 638/1/472
f 642/1/475 641/1/482 639/1/480 640/1/479
f 644/1/474 643/1/483 641/1/482 642/1/475
f 646/1/516 645/1/484 643/1/483 644/1/474
f 648/1/522 647/1/485 645/1/484 646/1/516
f 650/1/523 649/1/486 647/1/485 648/1/522
f 636/1/473 635/1/487 649/1/486 650/1/523
f 637/1/481 639/1/480 641/1/482 643/1/483 645/1/484 647/1/485 649/1/486 635/1/487
f 652/1/488 653/1/489 656/1/490 654/1/491
f 653/1/489 651/1/492 655/1/493 656/1/490
f 654/1/491 656/1/490 659/1/494 657/1/495
f 656/1/490 655/1/493 658/1/496 659/1/494
f 657/1/495 659/1/494 662/1/497 660/1/498
f 659/1/494 658/1/496 661/1/499 662/1/497
f 660/1/498 662/1/497 665/1/500 663/1/501
f 662/1/497 661/1/499 664/1/502 665/1/500
f 663/1/501 665/1/500 668/1/503 666/1/504
f 665/1/500 664/1/502 667/1/505 668/1/503
f 666/1/504 668/1/503 671/1/506 669/1/507
f 668/1/503 667/1/505 670/1/508 671/1/506
f 669/1/507 671/1/506 674/1/509 672/1/510
f 671/1/506 670/1/508 673/1/511 674/1/509
f 672/1/510 674/1/509 653/1/489 652/1/488
f 674/1/509 673/1/511 651/1/492 653/1/489
f 651/1/275 673/1/275 670/1/275 667/1/275 664/1/275 661/1/275 658/1/275 655/1/275
f 748/3/133 743/3/132 745/3/524 750/3/525
f 750/3/525 745/3/524 746/3/526 749/3/527
f 749/3/527 746/3/526 744/3/152 747/3/160
f 752/3/163 759/3/137 761/3/528 754/3/529
f 754/3/529 761/3/528 762/3/530 753/3/531
f 753/3/531 762/3/530 760/3/161 751/3/151
f 740/3/169 748/3/133 750/3/525 742/3/532
f 742/3/532 750/3/525 749/3/527 741/3/533
f 741/3/533 749/3/527 747/3/160 739/3/128
f 759/3/137 755/3/136 757/3/534 761/3/528
f 761/3/528 757/3/534 758/3/535 762/3/530
f 762/3/530 758/3/535 756/3/129 760/3/161
f 764/3/119 771/3/122 773/3/536 766/3/537
f 766/3/537 773/3/536 774/3/538 765/3/539
f 765/3/539 774/3/538 772/3/138 763/3/164
f 771/3/122 767/3/172 769/3/540 773/3/536
f 773/3/536 769/3/540 770/3/541 774/3/538
f 774/3/538 770/3/541 768/3/135 772/3/138
f 776/3/131 783/3/134 785/3/542 778/3/543
f 778/3/543 785/3/542 786/3/544 777/3/545
f 777/3/545 786/3/544 784/3/121 775/3/120
f 783/3/134 779/3/168 781/3/546 785/3/542
f 785/3/542 781/3/546 782/3/547 786/3/544
f 786/3/544 782/3/547 780/3/171 784/3/121
f 700/3/158 695/3/157 697/3/548 702/3/549
f 702/3/549 697/3/548 698/3/550 701/3/551
f 701/3/551 698/3/550 696/3/144 699/3/139
f 704/3/124 711/3/175 713/3/552 706/3/553
f 706/3/553 713/3/552 714/3/554 705/3/555
f 705/3/555 714/3/554 712/3/140 703/3/143
f 692/3/180 700/3/158 702/3/549 694/3/556
f 694/3/556 702/3/549 701/3/551 693/3/557
f 693/3/557 701/3/551 699/3/139 691/3/142
f 711/3/175 707/3/174 709/3/558 713/3/552
f 713/3/552 709/3/558 710/3/559 714/3/554
f 714/3/554 710/3/559 708/3/141 712/3/140
f 716/3/147 723/3/150 725/3/560 718/3/561
f 718/3/561 725/3/560 726/3/562 717/3/563
f 717/3/563 726/3/562 724/3/176 715/3/123
f 723/3/150 719/3/182 721/3/564 725/3/560
f 725/3/560 721/3/564 722/3/565 726/3/562
f 726/3/562 722/3/565 720/3/173 724/3/176
f 728/3/156 735/3/159 737/3/566 730/3/567
f 730/3/567 737/3/566 738/3/568 729/3/569
f 729/3/569 738/3/568 736/3/149 727/3/148
f 735/3/159 731/3/179 733/3/570 737/3/566
f 737/3/566 733/3/570 734/3/571 738/3/568
f 738/3/568 734/3/571 732/3/181 736/3/149
f 675/3/145 696/3/144 698/3/550 677/3/572
f 677/3/572 698/3/550 697/3/548 678/3/573
f 678/3/573 697/3/548 695/3/157 676/3/574
f 679/3/125 704/3/124 706/3/553 681/3/575
f 681/3/575 706/3/553 705/3/555 682/3/576
f 682/3/576 705/3/555 703/3/143 680/3/146
f 743/3/132 692/3/180 694/3/556 745/3/524
f 745/3/524 694/3/556 693/3/557 746/3/526
f 746/3/526 693/3/557 691/3/142 744/3/152
f 707/3/174 752/3/163 754/3/529 709/3/558
f 709/3/558 754/3/529 753/3/531 710/3/559
f 710/3/559 753/3/531 751/3/151 708/3/141
f 683/3/183 716/3/147 718/3/561 685/3/577
f 685/3/577 718/3/561 717/3/563 686/3/578
f 686/3/578 717/3/563 715/3/123 684/3/126
f 763/3/164 720/3/173 722/3/565 765/3/539
f 765/3/539 722/3/565 721/3/564 766/3/537
f 766/3/537 721/3/564 719/3/182 764/3/119
f 731/3/179 776/3/131 778/3/543 733/3/570
f 733/3/570 778/3/543 777/3/545 734/3/571
f 734/3/571 777/3/545 775/3/120 732/3/181
f 687/3/579 728/3/156 730/3/567 689/3/580
f 689/3/580 730/3/567 729/3/569 690/3/581
f 690/3/581 729/3/569 727/3/148 688/3/184
f 739/3/128 787/3/127 789/3/582 741/3/533
f 741/3/533 789/3/582 790/3/583 742/4/532
f 742/3/532 790/3/583 788/3/170 740/3/169
f 755/3/136 795/3/166 797/3/584 757/3/534
f 757/3/534 797/3/584 798/3/585 758/3/535
f 758/3/535 798/3/585 796/3/130 756/3/129
f 767/3/172 799/3/177 801/3/586 769/3/540
f 769/3/540 801/3/586 802/3/587 770/3/541
f 770/3/541 802/3/587 800/3/165 768/3/135
f 779/3/168 791/3/167 793/3/588 781/3/546
f 781/3/546 793/3/588 794/3/589 782/3/547
f 782/3/547 794/3/589 792/3/178 780/3/171
f 840/3/210 835/3/192 837/3/590 842/3/591
f 842/3/591 837/3/590 838/3/592 841/3/593
f 841/3/593 838/3/592 836/3/155 839/3/219
f 844/3/199 851/3/200 853/3/594 846/3/595
f 846/3/595 853/3/594 854/3/596 845/3/597
f 845/3/597 854/3/596 852/3/218 843/3/154
f 832/3/212 840/3/210 842/3/591 834/3/598
f 834/3/598 842/3/591 841/3/593 833/3/599
f 833/3/599 841/3/593 839/3/219 831/3/221
f 851/3/200 847/3/203 849/3/600 853/3/594
f 853/3/594 849/3/600 850/3/601 854/3/596
f 854/3/596 850/3/601 848/3/220 852/3/218
f 828/3/201 823/3/198 825/3/602 830/3/603
f 830/3/603 825/3/602 826/3/604 829/3/605
f 829/3/605 826/3/604 824/3/186 827/3/215
f 856/3/193 863/3/211 865/3/606 858/3/607
f 858/3/607 865/3/606 866/3/608 857/3/609
f 857/3/609 866/3/608 864/3/214 855/3/185
f 820/3/202 828/3/201 830/3/603 822/3/610
f 822/3/610 830/3/603 829/3/605 821/3/611
f 821/3/611 829/3/605 827/3/215 819/3/217
f 863/3/211 859/3/213 861/3/612 865/3/606
f 865/3/606 861/3/612 862/3/613 866/3/608
f 866/3/608 862/3/613 860/3/216 864/3/214
f 823/3/198 796/3/162 798/3/162 825/3/602
f 825/3/602 798/3/162 797/3/162 826/3/604
f 826/3/604 797/3/162 795/3/162 824/3/186
f 799/3/191 856/3/193 858/3/607 801/3/614
f 801/3/614 858/3/607 857/3/609 802/3/162
f 802/3/162 857/3/609 855/3/185 800/3/162
f 867/3/195 848/3/220 850/3/601 868/3/615
f 868/3/615 850/3/601 849/3/600 869/3/616
f 869/3/616 849/3/600 847/3/203 870/3/208
f 871/3/204 804/3/207 806/3/617 872/3/618
f 872/3/618 806/3/617 805/3/619 873/3/620
f 873/3/620 805/3/619 803/3/621 874/3/209
f 875/3/187 812/3/190 814/3/622 876/3/623
f 876/3/623 814/3/622 813/3/624 877/3/625
f 877/3/625 813/3/624 811/3/206 878/3/205
f 843/3/154 788/3/153 790/3/614 845/3/597
f 845/3/597 790/3/614 789/3/162 846/3/595
f 846/3/595 789/3/162 787/3/162 844/3/199
f 791/3/153 836/3/155 838/3/592 793/3/162
f 793/3/162 838/3/592 837/3/590 794/3/162
f 794/3/162 837/3/590 835/3/192 792/3/191
f 879/3/194 816/3/197 818/3/626 880/3/627
f 880/3/627 818/3/626 817/3/628 881/3/629
f 881/3/629 817/3/628 815/3/189 882/3/188
f 728/3/156 687/3/579 676/3/574 695/3/157
f 272/1/223 270/1/278 236/1/264 234/1/224
f 834/3/598 881/3/629 882/3/188 832/3/212
f 833/3/599 880/3/627 881/3/629 834/3/598
f 831/3/221 879/3/194 880/3/627 833/3/599
f 862/3/613 877/3/625 878/3/205 860/3/216
f 861/3/612 876/3/623 877/3/625 862/3/613
f 859/3/213 875/3/187 876/3/623 861/3/612
f 822/3/610 873/3/620 874/3/209 820/3/202
f 821/3/611 872/3/618 873/3/620 822/3/610
f 819/3/217 871/3/204 872/3/618 821/3/611
f 810/3/630 869/3/616 870/3/208 808/3/631
f 809/3/632 868/3/615 869/3/616 810/3/630
f 807/3/196 867/3/195 868/3/615 809/3/632
f 808/3/631 870/3/208 874/3/209 803/3/621
f 819/3/217 860/3/216 878/3/205 871/3/204
f 831/3/221 848/3/220 867/3/195 879/3/194
f 859/3/213 832/3/212 882/3/188 875/3/187
