# Blender 4.1.0
# www.blender.org
mtllib ladder.mtl
o ladder
v 0.093790 0.055029 0.236330
v -1.043219 1.992926 0.236330
v 0.160110 0.093940 0.268180
v -0.976899 2.031837 0.268180
v 0.187580 0.110057 0.345071
v -0.949429 2.047954 0.345071
v 0.160110 0.093940 0.421963
v -0.976899 2.031837 0.421963
v 0.093790 0.055029 0.453813
v -1.043219 1.992926 0.453813
v 0.027471 0.016118 0.421963
v -1.109538 1.954014 0.421963
v 0.000000 0.000000 0.345071
v -1.137009 1.937897 0.345071
v 0.027471 0.016118 0.268180
v -1.109538 1.954014 0.268180
v 0.093790 0.055029 -0.453813
v -1.043219 1.992926 -0.453813
v 0.160110 0.093940 -0.421963
v -0.976899 2.031837 -0.421963
v 0.187580 0.110057 -0.345071
v -0.949429 2.047954 -0.345071
v 0.160110 0.093940 -0.268180
v -0.976899 2.031837 -0.268180
v 0.093790 0.055029 -0.236330
v -1.043219 1.992926 -0.236330
v 0.027471 0.016118 -0.268180
v -1.109538 1.954014 -0.268180
v 0.000000 0.000000 -0.345071
v -1.137009 1.937897 -0.345071
v 0.027471 0.016118 -0.421963
v -1.109538 1.954014 -0.421963
v -0.073544 0.531205 0.490976
v -0.069320 0.533684 0.527740
v -0.089455 0.568002 0.490976
v 0.066327 0.608705 0.457070
v -0.073544 0.531205 -0.464567
v -0.089455 0.568002 -0.464567
v -0.069320 0.533684 -0.501331
v 0.066327 0.608705 -0.442308
v 0.032068 0.593170 -0.501331
v 0.011933 0.627488 -0.464567
v -0.003811 0.412353 0.490976
v 0.020549 0.380513 0.490976
v 0.000414 0.414832 0.527740
v 0.127415 0.504587 0.457070
v 0.101802 0.474318 0.527740
v 0.121937 0.440000 0.490976
v -0.003811 0.412353 -0.464567
v 0.000414 0.414832 -0.501331
v 0.020549 0.380513 -0.464567
v 0.127415 0.504587 -0.442308
v 0.121937 0.440000 -0.464567
v 0.101802 0.474318 -0.501331
v 0.011933 0.627488 0.490976
v 0.032068 0.593170 0.527740
v -0.304552 0.924931 0.490976
v -0.300327 0.927409 0.527740
v -0.320463 0.961728 0.490976
v -0.164680 1.002430 0.457070
v -0.304552 0.924931 -0.464567
v -0.320463 0.961728 -0.464567
v -0.300327 0.927409 -0.501331
v -0.164680 1.002430 -0.442308
v -0.198939 0.986896 -0.501331
v -0.219075 1.021214 -0.464567
v -0.234818 0.806079 0.490976
v -0.210459 0.774239 0.490976
v -0.230595 0.808557 0.527740
v -0.103593 0.898313 0.457070
v -0.129207 0.868044 0.527740
v -0.109071 0.833726 0.490976
v -0.234818 0.806079 -0.464567
v -0.230595 0.808557 -0.501331
v -0.210459 0.774239 -0.464567
v -0.103593 0.898313 -0.442308
v -0.109071 0.833726 -0.464567
v -0.129207 0.868044 -0.501331
v -0.219075 1.021214 0.490976
v -0.198939 0.986896 0.527740
v -0.535560 1.318657 0.490976
v -0.531336 1.321135 0.527740
v -0.551471 1.355453 0.490976
v -0.395689 1.396156 0.457070
v -0.535560 1.318657 -0.464567
v -0.551471 1.355453 -0.464567
v -0.531336 1.321135 -0.501331
v -0.395689 1.396156 -0.442308
v -0.429948 1.380622 -0.501331
v -0.450083 1.414940 -0.464567
v -0.465826 1.199805 0.490976
v -0.441467 1.167965 0.490976
v -0.461602 1.202283 0.527740
v -0.334600 1.292039 0.457070
v -0.360214 1.261770 0.527740
v -0.340079 1.227452 0.490976
v -0.465826 1.199805 -0.464567
v -0.461602 1.202283 -0.501331
v -0.441467 1.167965 -0.464567
v -0.334600 1.292039 -0.442308
v -0.340079 1.227452 -0.464567
v -0.360214 1.261770 -0.501331
v -0.450083 1.414940 0.490976
v -0.429948 1.380622 0.527740
v -0.766567 1.712382 0.490976
v -0.762343 1.714861 0.527740
v -0.782478 1.749179 0.490976
v -0.626697 1.789882 0.457070
v -0.766567 1.712382 -0.464567
v -0.782478 1.749179 -0.464567
v -0.762343 1.714861 -0.501331
v -0.626697 1.789882 -0.442308
v -0.660955 1.774347 -0.501331
v -0.681091 1.808666 -0.464567
v -0.696835 1.593530 0.490976
v -0.672475 1.561691 0.490976
v -0.692610 1.596009 0.527740
v -0.565609 1.685765 0.457070
v -0.591223 1.655495 0.527740
v -0.571087 1.621177 0.490976
v -0.696835 1.593530 -0.464567
v -0.692610 1.596009 -0.501331
v -0.672475 1.561691 -0.464567
v -0.565609 1.685765 -0.442308
v -0.571087 1.621177 -0.464567
v -0.591223 1.655495 -0.501331
v -0.681091 1.808666 0.490976
v -0.660955 1.774347 0.527740
vn -0.0000 -0.0000 -1.0000
vn 0.6099 0.3578 -0.7071
vn 0.8625 0.5061 -0.0000
vn 0.6099 0.3578 0.7071
vn -0.0000 -0.0000 1.0000
vn -0.6099 -0.3578 0.7071
vn -0.8625 -0.5061 -0.0000
vn -0.5061 0.8625 -0.0000
vn -0.6099 -0.3578 -0.7071
vn 0.5061 -0.8625 -0.0000
vn 0.1844 -0.3143 0.9313
vn -0.1844 0.3143 0.9313
vn 0.4636 -0.7902 -0.4008
vn 0.4636 -0.7902 -0.4009
vn 0.4636 -0.7902 0.4009
vn 0.9386 0.2579 -0.2291
vn 0.6496 0.7246 -0.2303
vn 0.6571 0.7292 0.1910
vn 0.9461 0.2616 0.1910
vn -0.4636 0.7902 0.4009
vn -0.4636 0.7902 -0.4008
vn -0.4636 0.7902 -0.4009
vn -0.1844 0.3143 -0.9313
vn 0.1844 -0.3143 -0.9313
vn -0.8898 -0.4515 0.0659
vn -0.8755 -0.4649 0.1319
vn -0.9170 -0.3965 0.0426
vn 0.6329 0.5748 -0.5187
vn 0.4054 0.8798 -0.2483
vn -0.8898 -0.4515 -0.0659
vn -0.9170 -0.3965 -0.0426
vn -0.8755 -0.4649 -0.1319
vn 0.8424 0.3124 0.4391
vn 0.9753 0.0320 0.2186
vn -0.8282 -0.5565 0.0659
vn -0.7935 -0.6071 0.0426
vn -0.8329 -0.5374 0.1319
vn 0.9760 -0.0078 -0.2176
vn 0.8234 0.2731 -0.4974
vn -0.8282 -0.5565 -0.0659
vn -0.8329 -0.5374 -0.1319
vn -0.7935 -0.6071 -0.0426
vn 0.4509 0.8573 0.2485
vn 0.6792 0.5753 0.4557
vn 0.8234 0.2730 -0.4974
vt 0.153996 0.191201
s 1
usemtl BASE_MATERIAL
f 1/1/1 2/1/1 4/1/2 3/1/2
f 3/1/2 4/1/2 6/1/3 5/1/3
f 5/1/3 6/1/3 8/1/4 7/1/4
f 7/1/4 8/1/4 10/1/5 9/1/5
f 9/1/5 10/1/5 12/1/6 11/1/6
f 11/1/6 12/1/6 14/1/7 13/1/7
f 4/1/8 2/1/8 16/1/8 14/1/8 12/1/8 10/1/8 8/1/8 6/1/8
f 13/1/7 14/1/7 16/1/9 15/1/9
f 15/1/9 16/1/9 2/1/1 1/1/1
f 1/1/10 3/1/10 5/1/10 7/1/10 9/1/10 11/1/10 13/1/10 15/1/10
f 17/1/1 18/1/1 20/1/2 19/1/2
f 19/1/2 20/1/2 22/1/3 21/1/3
f 21/1/3 22/1/3 24/1/4 23/1/4
f 23/1/4 24/1/4 26/1/5 25/1/5
f 25/1/5 26/1/5 28/1/6 27/1/6
f 27/1/6 28/1/6 30/1/7 29/1/7
f 20/1/8 18/1/8 32/1/8 30/1/8 28/1/8 26/1/8 24/1/8 22/1/8
f 29/1/7 30/1/7 32/1/9 31/1/9
f 31/1/9 32/1/9 18/1/1 17/1/1
f 17/1/10 19/1/10 21/1/10 23/1/10 25/1/10 27/1/10 29/1/10 31/1/10
f 45/1/11 47/1/11 56/1/12 34/1/12
f 51/1/13 53/1/14 48/1/15 44/1/15
f 52/1/16 40/1/17 36/1/18 46/1/19
f 35/1/20 55/1/20 42/1/21 38/1/22
f 39/1/23 41/1/23 54/1/24 50/1/24
f 33/1/25 34/1/26 35/1/27
f 40/1/17 41/1/28 42/1/29
f 37/1/30 38/1/31 39/1/32
f 46/1/19 47/1/33 48/1/34
f 43/1/35 44/1/36 45/1/37
f 52/1/16 53/1/38 54/1/39
f 49/1/40 50/1/41 51/1/42
f 40/1/17 42/1/29 55/1/43 36/1/18
f 37/1/30 33/1/25 35/1/27 38/1/31
f 34/1/12 56/1/12 55/1/20 35/1/20
f 52/1/16 54/1/39 41/1/28 40/1/17
f 41/1/23 39/1/23 38/1/22 42/1/21
f 49/1/40 37/1/30 39/1/32 50/1/41
f 46/1/19 48/1/34 53/1/38 52/1/16
f 53/1/14 51/1/13 50/1/24 54/1/24
f 43/1/35 49/1/40 51/1/42 44/1/36
f 36/1/18 56/1/44 47/1/33 46/1/19
f 47/1/11 45/1/11 44/1/15 48/1/15
f 33/1/25 43/1/35 45/1/37 34/1/26
f 60/1/18 79/1/43 80/1/44
f 37/1/30 49/1/40 43/1/35 33/1/25
f 69/1/11 71/1/11 80/1/12 58/1/12
f 75/1/14 77/1/14 72/1/15 68/1/15
f 76/1/16 64/1/17 60/1/18 70/1/19
f 59/1/20 79/1/20 66/1/22 62/1/22
f 63/1/23 65/1/23 78/1/24 74/1/24
f 57/1/25 58/1/26 59/1/27
f 64/1/17 65/1/28 66/1/29
f 61/1/30 62/1/31 63/1/32
f 70/1/19 71/1/33 72/1/34
f 67/1/35 68/1/36 69/1/37
f 76/1/16 77/1/38 78/1/39
f 73/1/40 74/1/41 75/1/42
f 64/1/17 66/1/29 79/1/43 60/1/18
f 61/1/30 57/1/25 59/1/27 62/1/31
f 58/1/12 80/1/12 79/1/20 59/1/20
f 76/1/16 78/1/39 65/1/28 64/1/17
f 65/1/23 63/1/23 62/1/22 66/1/22
f 73/1/40 61/1/30 63/1/32 74/1/41
f 70/1/19 72/1/34 77/1/38 76/1/16
f 77/1/14 75/1/14 74/1/24 78/1/24
f 67/1/35 73/1/40 75/1/42 68/1/36
f 60/1/18 80/1/44 71/1/33 70/1/19
f 71/1/11 69/1/11 68/1/15 72/1/15
f 57/1/25 67/1/35 69/1/37 58/1/26
f 84/1/18 103/1/43 104/1/44
f 61/1/30 73/1/40 67/1/35 57/1/25
f 93/1/11 95/1/11 104/1/12 82/1/12
f 99/1/13 101/1/14 96/1/15 92/1/15
f 100/1/16 88/1/17 84/1/18 94/1/19
f 83/1/20 103/1/20 90/1/22 86/1/22
f 87/1/23 89/1/23 102/1/24 98/1/24
f 81/1/25 82/1/26 83/1/27
f 88/1/17 89/1/28 90/1/29
f 85/1/30 86/1/31 87/1/32
f 94/1/19 95/1/33 96/1/34
f 91/1/35 92/1/36 93/1/37
f 100/1/16 101/1/38 102/1/45
f 97/1/40 98/1/41 99/1/42
f 88/1/17 90/1/29 103/1/43 84/1/18
f 85/1/30 81/1/25 83/1/27 86/1/31
f 82/1/12 104/1/12 103/1/20 83/1/20
f 100/1/16 102/1/45 89/1/28 88/1/17
f 89/1/23 87/1/23 86/1/22 90/1/22
f 97/1/40 85/1/30 87/1/32 98/1/41
f 94/1/19 96/1/34 101/1/38 100/1/16
f 101/1/14 99/1/13 98/1/24 102/1/24
f 91/1/35 97/1/40 99/1/42 92/1/36
f 84/1/18 104/1/44 95/1/33 94/1/19
f 95/1/11 93/1/11 92/1/15 96/1/15
f 81/1/25 91/1/35 93/1/37 82/1/26
f 108/1/18 127/1/43 128/1/44
f 85/1/30 97/1/40 91/1/35 81/1/25
f 117/1/11 119/1/11 128/1/12 106/1/12
f 123/1/14 125/1/13 120/1/15 116/1/15
f 124/1/16 112/1/17 108/1/18 118/1/19
f 107/1/20 127/1/20 114/1/22 110/1/22
f 111/1/23 113/1/23 126/1/24 122/1/24
f 105/1/25 106/1/26 107/1/27
f 112/1/17 113/1/28 114/1/29
f 109/1/30 110/1/31 111/1/32
f 118/1/19 119/1/33 120/1/34
f 115/1/35 116/1/36 117/1/37
f 124/1/16 125/1/38 126/1/39
f 121/1/40 122/1/41 123/1/42
f 112/1/17 114/1/29 127/1/43 108/1/18
f 109/1/30 105/1/25 107/1/27 110/1/31
f 106/1/12 128/1/12 127/1/20 107/1/20
f 124/1/16 126/1/39 113/1/28 112/1/17
f 113/1/23 111/1/23 110/1/22 114/1/22
f 121/1/40 109/1/30 111/1/32 122/1/41
f 118/1/19 120/1/34 125/1/38 124/1/16
f 125/1/13 123/1/14 122/1/24 126/1/24
f 115/1/35 121/1/40 123/1/42 116/1/36
f 108/1/18 128/1/44 119/1/33 118/1/19
f 119/1/11 117/1/11 116/1/15 120/1/15
f 105/1/25 115/1/35 117/1/37 106/1/26
f 109/1/30 121/1/40 115/1/35 105/1/25
f 36/1/18 55/1/43 56/1/44
