# Blender 4.1.0
# www.blender.org
mtllib palm_l.mtl
o palm_l
v 0.000000 0.000000 -0.355678
v 0.251502 0.000000 -0.251502
v 0.355678 0.000000 -0.000000
v 0.251502 0.000000 0.251502
v 0.000000 0.000000 0.355677
v -0.251502 0.000000 0.251502
v -0.355678 0.000000 -0.000000
v -0.251502 0.000000 -0.251502
v 0.000160 3.775156 -0.066545
v 0.000133 0.372135 -0.261133
v 0.000339 2.993086 -0.006532
v 0.000397 2.071740 -0.022438
v 0.000324 1.151385 -0.111842
v 0.235794 0.370249 -0.164006
v 0.098630 3.774995 -0.025735
v 0.202870 1.150208 -0.028244
v 0.165241 2.071141 0.045707
v 0.128637 2.992843 0.046588
v 0.333632 0.366585 0.070934
v 0.139502 3.773387 0.073049
v 0.286912 1.147824 0.173880
v 0.233613 2.069596 0.210432
v 0.181849 2.991571 0.175025
v 0.236040 0.364551 0.306443
v 0.098811 3.770154 0.172330
v 0.203035 1.146322 0.376394
v 0.165366 2.068053 0.375470
v 0.128767 2.989421 0.303812
v 0.000130 0.364224 0.404116
v 0.000163 3.768449 0.213614
v 0.000323 1.145990 0.460365
v 0.000396 2.067458 0.443913
v 0.000340 2.988343 0.357266
v -0.235779 0.364555 0.306444
v -0.098486 3.770168 0.172327
v -0.202390 1.146325 0.376394
v -0.164573 2.068058 0.375469
v -0.128088 2.989430 0.303810
v -0.333370 0.366600 0.070937
v -0.139180 3.773399 0.073047
v -0.286265 1.147834 0.173882
v -0.232820 2.069604 0.210432
v -0.181170 2.991580 0.175024
v -0.235529 0.370265 -0.164002
v -0.098309 3.774998 -0.025735
v -0.202222 1.150218 -0.028242
v -0.164448 2.071146 0.045708
v -0.127959 2.992846 0.046588
v 0.000041 4.118028 -0.115597
v -0.000000 4.239795 -0.036559
v 0.000012 4.204130 -0.099663
v 0.013034 4.239795 -0.031160
v 0.085795 4.118039 -0.080078
v 0.062597 4.204134 -0.073740
v 0.018433 4.239795 -0.018125
v 0.121310 4.118155 0.005653
v 0.088520 4.204168 -0.011161
v 0.013034 4.239795 -0.005091
v 0.085783 4.118385 0.091349
v 0.062593 4.204235 0.051408
v -0.000000 4.239795 0.000308
v 0.000041 4.118506 0.126834
v 0.000012 4.204270 0.077321
v -0.013035 4.239795 -0.005091
v -0.085700 4.118383 0.091350
v -0.062570 4.204235 0.051408
v -0.018434 4.239795 -0.018125
v -0.121227 4.118154 0.005654
v -0.088496 4.204167 -0.011160
v -0.013035 4.239795 -0.031160
v -0.085712 4.118039 -0.080078
v -0.062574 4.204134 -0.073740
v 0.125057 4.268435 -0.108392
v 1.205862 3.195037 -0.488958
v 0.085153 4.240876 -0.184140
v 1.197440 3.191581 -0.504156
v 1.188040 3.446232 -0.375108
v 0.473571 4.183792 -0.156392
v 1.034808 3.742590 -0.279530
v 0.773638 4.012976 -0.199760
v 0.346099 4.131465 -0.386422
v 1.052879 3.390748 -0.619014
v 0.577607 3.932504 -0.553510
v 0.835962 3.660963 -0.638358
v 0.104429 4.250918 -0.149637
v 1.201659 3.193320 -0.496565
v 1.118831 3.363009 -0.485274
v 0.934772 3.660065 -0.451613
v 0.674340 3.930212 -0.368747
v 0.419558 4.111487 -0.264065
v -0.017504 4.217660 -0.045472
v -0.041737 4.215219 -0.072886
v -0.033514 4.235451 -0.058392
v 0.126194 4.190510 -0.077122
v 1.149796 3.164742 -0.432161
v 0.078364 4.179622 -0.163224
v 1.125708 3.155496 -0.475180
v 1.131772 3.408841 -0.322927
v 0.455047 4.117350 -0.106100
v 0.984489 3.692139 -0.232521
v 0.739042 3.950715 -0.152709
v 0.306604 4.056785 -0.374171
v 0.986249 3.349318 -0.585382
v 0.531738 3.865636 -0.526831
v 0.779378 3.607918 -0.602701
v 0.103394 4.183137 -0.122709
v 1.136483 3.159480 -0.453045
v 1.055449 3.325973 -0.441706
v 0.896679 3.619226 -0.420523
v 0.650089 3.874542 -0.341982
v 0.380146 4.031359 -0.225034
v -0.008257 4.172692 -0.047637
v -0.032959 4.170138 -0.074641
v -0.016922 4.152229 -0.061958
v -0.111744 4.190235 -0.217664
v -0.533118 2.892055 -0.893605
v -0.157451 4.191298 -0.180901
v -0.546572 2.890591 -0.882854
v -0.437555 3.135907 -0.957589
v -0.189934 4.025241 -0.513922
v -0.346528 3.457724 -0.904909
v -0.256237 3.783536 -0.742908
v -0.393564 4.003089 -0.351214
v -0.653467 3.112418 -0.785067
v -0.569386 3.749469 -0.492690
v -0.664173 3.423168 -0.651099
v -0.135029 4.194595 -0.196822
v -0.539854 2.891330 -0.888239
v -0.530277 3.072937 -0.856901
v -0.501213 3.396878 -0.777447
v -0.408003 3.722364 -0.616478
v -0.280087 3.988131 -0.436387
v -0.028489 4.188445 -0.078003
v -0.048256 4.191257 -0.055391
v -0.038382 4.189857 -0.066704
v -0.072521 4.126820 -0.202853
v -0.469593 2.880390 -0.841035
v -0.149300 4.126715 -0.144112
v -0.507680 2.876819 -0.810515
v -0.377997 3.117498 -0.902369
v -0.134773 3.969446 -0.486003
v -0.291814 3.425318 -0.851137
v -0.202573 3.735856 -0.700693
v -0.372117 3.943991 -0.296600
v -0.610332 3.092416 -0.716697
v -0.533760 3.699848 -0.436088
v -0.619510 3.389652 -0.589317
v -0.113366 4.124581 -0.173682
v -0.487839 2.878364 -0.824510
v -0.478219 3.056495 -0.794014
v -0.458199 3.374570 -0.725532
v -0.369835 3.682316 -0.573007
v -0.236529 3.906838 -0.377467
v -0.028682 4.150747 -0.075129
v -0.048063 4.153586 -0.052171
v -0.038353 4.152175 -0.063631
v 0.022683 4.295898 0.153459
v 0.877851 3.507626 1.367265
v 0.081623 4.304651 0.110495
v 0.893882 3.508249 1.356887
v 0.670592 3.719301 1.334262
v 0.130240 4.287910 0.517560
v 0.455573 3.963934 1.149785
v 0.257954 4.172631 0.851139
v 0.372894 4.297330 0.360483
v 0.927883 3.729289 1.167711
v 0.631116 4.187119 0.609581
v 0.834092 3.978628 0.904758
v 0.054426 4.295124 0.138119
v 0.885870 3.507952 1.362083
v 0.807157 3.663872 1.256637
v 0.647135 3.925715 1.034896
v 0.446518 4.133193 0.737423
v 0.277450 4.246750 0.445279
v -0.028370 4.212222 0.002183
v -0.004297 4.215522 -0.023586
v -0.025236 4.234504 -0.017573
v 0.021750 4.218125 0.155483
v 0.827031 3.449291 1.317350
v 0.109435 4.230428 0.095623
v 0.872197 3.451564 1.287651
v 0.626996 3.655374 1.284364
v 0.101818 4.200592 0.510856
v 0.422365 3.889450 1.107047
v 0.230122 4.088409 0.826459
v 0.384457 4.212007 0.327875
v 0.903782 3.666295 1.105038
v 0.624765 4.103760 0.571004
v 0.812865 3.904601 0.854297
v 0.068941 4.223369 0.126657
v 0.849116 3.449384 1.301289
v 0.771638 3.602309 1.198109
v 0.632757 3.868983 0.999403
v 0.442892 4.064929 0.717802
v 0.253046 4.143874 0.423807
v -0.011283 4.173360 0.015157
v 0.012424 4.176372 -0.011006
v 0.009571 4.154013 0.008719
v -0.245660 4.248295 0.045599
v -1.001243 3.189775 0.941534
v -0.205647 4.270400 0.096527
v -0.990970 3.193841 0.955491
v -1.054539 3.381436 0.747800
v -0.558414 4.117959 0.178405
v -0.985824 3.647978 0.533729
v -0.804643 3.917984 0.325498
v -0.402930 4.179506 0.389649
v -0.889676 3.446697 0.971786
v -0.565534 4.012634 0.650357
v -0.743283 3.743987 0.863253
v -0.225673 4.259369 0.071074
v -0.996117 3.191818 0.948517
v -0.960847 3.384427 0.886486
v -0.858887 3.644340 0.709745
v -0.678617 3.912849 0.498828
v -0.470561 4.118286 0.295185
v -0.100777 4.207939 -0.019526
v -0.070792 4.222259 0.005950
v -0.085794 4.215114 -0.006780
v -0.229177 4.164124 0.045422
v -0.944074 3.152441 0.889625
v -0.172987 4.195139 0.121540
v -0.914886 3.164494 0.928908
v -0.995063 3.339340 0.702554
v -0.528358 4.042486 0.150887
v -0.928519 3.594647 0.498681
v -0.759731 3.850714 0.296962
v -0.347370 4.114572 0.396942
v -0.817626 3.409746 0.943501
v -0.506875 3.950836 0.640524
v -0.678324 3.693678 0.838637
v -0.201487 4.178573 0.086678
v -0.928143 3.157906 0.908691
v -0.891414 3.326064 0.831760
v -0.809994 3.614126 0.684169
v -0.639198 3.867903 0.484547
v -0.421979 4.024215 0.281033
v -0.098322 4.160014 0.001713
v -0.067827 4.174153 0.026710
v -0.083047 4.167084 0.014184
v -0.039040 4.369142 0.087115
v 0.647013 4.578948 1.621070
v 0.053199 4.371320 0.057151
v 0.664434 4.580463 1.613368
v 0.407223 4.662476 1.464945
v -0.033385 4.561389 0.426703
v 0.190723 4.701176 1.162056
v 0.029377 4.664832 0.781999
v 0.230299 4.584326 0.310138
v 0.686813 4.686796 1.341348
v 0.434880 4.700105 0.602741
v 0.602048 4.736955 0.980225
v 0.012354 4.369394 0.073349
v 0.655722 4.579721 1.617218
v 0.568812 4.630760 1.439827
v 0.413969 4.687371 1.098948
v 0.249853 4.649496 0.720244
v 0.116044 4.544772 0.407807
v -0.030564 4.209603 0.011467
v 0.000896 4.209123 -0.012499
v -0.025465 4.218741 -0.015939
v -0.022225 4.300922 0.144265
v 0.628033 4.490492 1.603972
v 0.071519 4.315056 0.094915
v 0.677096 4.494974 1.581614
v 0.396423 4.572049 1.451401
v -0.035099 4.476967 0.463404
v 0.190506 4.609111 1.161005
v 0.032047 4.574965 0.801843
v 0.271925 4.504034 0.327386
v 0.697192 4.598285 1.318218
v 0.460883 4.612296 0.612257
v 0.614843 4.646029 0.973449
v 0.027713 4.308948 0.121304
v 0.652689 4.491153 1.592253
v 0.567131 4.541222 1.418449
v 0.419281 4.618637 1.099022
v 0.264088 4.582421 0.740767
v 0.137187 4.445104 0.433641
v -0.005159 4.187626 0.047920
v 0.026118 4.186536 0.023708
v 0.021290 4.177478 0.051167
v 0.059146 4.328803 -0.064309
v 1.468432 4.232952 -0.835086
v 0.025111 4.319849 -0.115332
v 1.459841 4.229298 -0.850778
v 1.339864 4.390510 -0.635622
v 0.381218 4.487686 -0.143106
v 1.068585 4.507691 -0.434057
v 0.717687 4.543878 -0.253922
v 0.251180 4.432372 -0.380624
v 1.201982 4.331859 -0.887466
v 0.517710 4.458813 -0.619185
v 0.865738 4.421407 -0.804564
v 0.037371 4.324932 -0.089252
v 1.464136 4.231140 -0.842935
v 1.303050 4.312999 -0.769699
v 1.001222 4.436114 -0.632339
v 0.651778 4.471709 -0.449313
v 0.340965 4.442488 -0.259968
v -0.023378 4.186987 -0.013407
v -0.044611 4.179396 -0.035929
v -0.033997 4.183205 -0.024673
v 0.104399 4.263220 -0.054203
v 1.451182 4.159863 -0.789240
v 0.050798 4.249345 -0.140029
v 1.426355 4.149797 -0.833461
v 1.325336 4.312927 -0.596747
v 0.414025 4.410201 -0.117392
v 1.065122 4.424726 -0.404971
v 0.733967 4.460958 -0.229413
v 0.262344 4.346136 -0.394043
v 1.176798 4.249910 -0.867677
v 0.522472 4.371026 -0.615701
v 0.855884 4.335715 -0.787204
v 0.079028 4.256111 -0.100283
v 1.438202 4.153393 -0.810935
v 1.280406 4.233779 -0.738832
v 0.989304 4.365422 -0.610208
v 0.658714 4.398729 -0.437000
v 0.369960 4.330566 -0.261612
v 0.003800 4.162085 -0.028795
v -0.017633 4.154088 -0.051005
v -0.006933 4.158069 -0.039882
v -0.157167 4.350649 0.091962
v -0.657283 3.741169 1.755894
v -0.084840 4.374393 0.115859
v -0.638563 3.745789 1.763571
v -0.776838 3.910955 1.507513
v -0.430074 4.360981 0.416683
v -0.768297 4.111399 1.153913
v -0.641611 4.276771 0.754832
v -0.146740 4.430918 0.532876
v -0.476413 3.985111 1.630715
v -0.205889 4.384321 0.933519
v -0.326320 4.220494 1.335165
v -0.121013 4.362554 0.103921
v -0.647929 3.743495 1.759737
v -0.619191 3.886377 1.592814
v -0.537799 4.117951 1.265524
v -0.413776 4.281284 0.864789
v -0.285610 4.355551 0.511306
v -0.046163 4.253836 -0.024549
v -0.018319 4.271579 -0.022158
v -0.018043 4.250648 -0.035300
v -0.157304 4.254416 0.119155
v -0.634384 3.665873 1.694199
v -0.053279 4.289035 0.157309
v -0.581295 3.679432 1.715434
v -0.748980 3.831611 1.453397
v -0.429302 4.261452 0.407029
v -0.739432 4.023678 1.115549
v -0.624644 4.180405 0.734198
v -0.099319 4.343378 0.542259
v -0.425675 3.911567 1.585803
v -0.163852 4.294178 0.923169
v -0.283493 4.136216 1.302559
v -0.104204 4.271642 0.142033
v -0.606900 3.671407 1.703882
v -0.579094 3.811476 1.540068
v -0.515842 4.054499 1.239799
v -0.398347 4.208641 0.860589
v -0.257131 4.237328 0.498247
v -0.043059 4.173633 0.034168
v -0.010935 4.195144 0.041898
v -0.013408 4.174173 0.028384
v -0.181198 4.312004 -0.047368
v -1.674141 4.067445 0.685653
v -0.149725 4.338130 0.013651
v -1.667195 4.073096 0.702533
v -1.558551 4.175661 0.433108
v -0.553046 4.388831 -0.042096
v -1.289417 4.293457 0.201154
v -0.921568 4.372102 0.027088
v -0.447929 4.474381 0.213392
v -1.447093 4.266372 0.704008
v -0.759916 4.503664 0.419988
v -1.125444 4.426908 0.599695
v -0.172852 4.321963 -0.014585
v -1.670673 4.070286 0.694090
v -1.522181 4.169616 0.595553
v -1.224538 4.320370 0.416614
v -0.857477 4.396864 0.239979
v -0.520957 4.400599 0.123497
v -0.043298 4.198178 -0.024558
v -0.022616 4.207650 0.002590
v -0.020395 4.217467 -0.024496
v -0.198906 4.240880 -0.021265
v -1.628296 3.988531 0.673486
v -0.156123 4.279558 0.068717
v -1.608181 4.004875 0.720978
v -1.515281 4.094476 0.429405
v -0.558965 4.297219 -0.035077
v -1.257213 4.207529 0.208667
v -0.909729 4.281474 0.038198
v -0.436417 4.397268 0.262361
v -1.395195 4.192201 0.720810
v -0.738773 4.420638 0.453702
v -1.088081 4.345200 0.619817
v -0.179414 4.260830 0.026772
v -1.617193 3.995416 0.697467
v -1.471731 4.092757 0.600512
v -1.199322 4.258859 0.432909
v -0.851950 4.330868 0.265906
v -0.516690 4.294655 0.143446
v -0.067052 4.170895 0.001170
v -0.045979 4.179914 0.028192
v -0.068923 4.160663 0.028417
v 0.121664 4.391653 0.041512
v 1.743168 3.762544 0.637394
v 0.143950 4.373628 -0.045511
v 1.749128 3.758553 0.617919
v 1.532877 4.001467 0.696617
v 0.472200 4.454151 0.269156
v 1.207745 4.236962 0.632472
v 0.819805 4.403311 0.475967
v 0.562400 4.393734 -0.025605
v 1.628518 3.937405 0.384076
v 0.958518 4.310398 0.022673
v 1.348449 4.142716 0.172670
v 0.139421 4.380562 0.002258
v 1.746155 3.760565 0.627656
v 1.595685 3.906585 0.555956
v 1.308876 4.161944 0.415848
v 0.919365 4.327685 0.262682
v 0.516936 4.391761 0.145626
v -0.014963 4.263712 -0.006227
v -0.013184 4.257089 -0.047197
v -0.013830 4.271828 -0.034211
v 0.134295 4.301344 0.077448
v 1.670524 3.694846 0.649213
v 0.164060 4.288040 -0.033964
v 1.686952 3.684026 0.593840
v 1.466635 3.927022 0.704985
v 0.450469 4.364420 0.307577
v 1.155893 4.152012 0.642208
v 0.785757 4.312131 0.498926
v 0.555486 4.294505 -0.035893
v 1.569402 3.858250 0.368592
v 0.932458 4.213904 0.019537
v 1.301073 4.054781 0.167880
v 0.152788 4.293612 0.020545
v 1.677555 3.688092 0.621201
v 1.529915 3.831404 0.551260
v 1.256196 4.076953 0.417073
v 0.887544 4.233360 0.272173
v 0.515240 4.264565 0.152930
v 0.013220 4.221056 0.003612
v 0.014397 4.214046 -0.037335
v 0.013772 4.217538 -0.016864
v -0.180818 4.292213 -0.146658
v -1.585374 3.131843 -0.398772
v -0.202497 4.311466 -0.072328
v -1.591856 3.134895 -0.379293
v -1.426104 3.366423 -0.555038
v -0.520934 4.178490 -0.370937
v -1.163791 3.673828 -0.599509
v -0.832904 3.971596 -0.532349
v -0.619042 4.224676 -0.076129
v -1.530131 3.415396 -0.242447
v -0.983779 4.042624 -0.078983
v -1.316832 3.745875 -0.139634
v -0.188029 4.287658 -0.116439
v -1.588626 3.133383 -0.389038
v -1.478287 3.325538 -0.386698
v -1.263405 3.672858 -0.369601
v -0.930600 3.969083 -0.305256
v -0.569047 4.134838 -0.210904
v -0.026499 4.232592 -0.051993
v -0.030365 4.243994 -0.008062
v -0.021164 4.258146 -0.033764
v -0.174394 4.196689 -0.138857
v -1.499418 3.083321 -0.382735
v -0.209264 4.223557 -0.031444
v -1.517457 3.092582 -0.327580
v -1.345237 3.311898 -0.532961
v -0.477890 4.088245 -0.369149
v -1.094631 3.606221 -0.574091
v -0.778755 3.889113 -0.516093
v -0.592226 4.142514 -0.025827
v -1.457071 3.364804 -0.196592
v -0.938326 3.964257 -0.036641
v -1.252535 3.680531 -0.099683
v -0.195213 4.208845 -0.083553
v -1.507027 3.087158 -0.354325
v -1.398740 3.275567 -0.352417
v -1.194091 3.608863 -0.336433
v -0.879005 3.888792 -0.275402
v -0.532756 4.045602 -0.184076
v -0.045936 4.179860 -0.041946
v -0.049067 4.191024 0.002126
v -0.054471 4.165540 -0.016023
v -0.028440 4.312606 -0.176788
v -0.680498 3.683206 -1.609476
v -0.093695 4.319860 -0.143838
v -0.698074 3.683565 -1.601987
v -0.475723 3.879864 -1.518682
v -0.069393 4.334860 -0.564651
v -0.288831 4.093470 -1.274642
v -0.140198 4.260616 -0.925690
v -0.335409 4.340288 -0.451297
v -0.757784 3.885620 -1.398491
v -0.549286 4.268963 -0.751371
v -0.703793 4.101936 -1.097819
v -0.061075 4.316263 -0.160324
v -0.689288 3.683401 -1.605737
v -0.645905 3.850751 -1.468890
v -0.506693 4.045695 -1.207290
v -0.354942 4.211601 -0.859107
v -0.215124 4.304209 -0.515342
v -0.000159 4.203978 -0.041319
v -0.035822 4.206326 -0.014064
v -0.017997 4.205172 -0.027696
v -0.028284 4.223289 -0.199136
v -0.641062 3.617643 -1.558258
v -0.124675 4.233775 -0.154171
v -0.690642 3.619121 -1.536650
v -0.443567 3.809107 -1.469323
v -0.045329 4.246011 -0.562731
v -0.265973 4.013466 -1.235222
v -0.119768 4.173041 -0.905932
v -0.355169 4.252770 -0.430630
v -0.747022 3.815456 -1.339855
v -0.552403 4.181899 -0.721583
v -0.694064 4.022195 -1.052834
v -0.079609 4.227908 -0.178406
v -0.665607 3.617197 -1.546296
v -0.605884 3.759036 -1.414870
v -0.492511 3.992627 -1.168011
v -0.348917 4.149223 -0.838464
v -0.209119 4.189924 -0.508236
v -0.020152 4.157732 -0.066517
v -0.055455 4.159644 -0.038733
v -0.037783 4.158673 -0.052591
v 0.080714 4.321093 -0.186383
v 0.782329 3.200784 -1.468138
v 0.005325 4.311303 -0.210605
v 0.763299 3.196287 -1.475090
v 0.840811 3.487984 -1.330625
v 0.348228 4.260501 -0.510101
v 0.764851 3.813186 -1.098769
v 0.584599 4.096483 -0.798912
v 0.060187 4.192444 -0.615318
v 0.535396 3.415823 -1.442189
v 0.141639 3.991824 -0.960719
v 0.315531 3.707024 -1.262900
v 0.043019 4.316224 -0.198519
v 0.772815 3.198549 -1.471626
v 0.699413 3.386678 -1.380390
v 0.562012 3.701303 -1.192594
v 0.384850 3.984307 -0.890649
v 0.212328 4.188302 -0.551925
v 0.011056 4.246282 -0.025480
v -0.039015 4.240726 -0.031509
v -0.013983 4.243521 -0.028510
v 0.109326 4.226789 -0.169409
v 0.780328 3.157377 -1.378073
v 0.000870 4.211441 -0.207843
v 0.726212 3.145251 -1.397502
v 0.835446 3.436428 -1.245108
v 0.375870 4.179383 -0.458565
v 0.761383 3.747240 -1.023675
v 0.595514 4.018538 -0.737225
v 0.040265 4.100571 -0.581226
v 0.506721 3.358981 -1.365074
v 0.127057 3.907884 -0.908360
v 0.297870 3.637708 -1.193018
v 0.054189 4.217072 -0.191887
v 0.752703 3.150406 -1.386316
v 0.681091 3.335010 -1.296755
v 0.542021 3.658320 -1.125430
v 0.374367 3.925728 -0.839512
v 0.219232 4.072962 -0.510685
v 0.021807 4.185680 -0.041474
v -0.028356 4.179893 -0.046664
v -0.003284 4.182785 -0.044023
vn -0.6718 0.1977 -0.7139
vn -0.7019 0.1722 -0.6911
vn -0.0000 0.2187 -0.9758
vn -0.0001 0.2462 -0.9692
vn 0.9966 0.0687 -0.0453
vn 0.9983 0.0573 0.0086
vn 0.7030 -0.0557 0.7090
vn 0.7288 -0.0717 0.6810
vn -0.0000 -0.1011 0.9949
vn -0.0001 -0.1318 0.9913
vn -0.7030 -0.0553 0.7090
vn -0.7289 -0.0712 0.6809
vn -0.9983 0.0579 0.0086
vn -0.9966 0.0694 -0.0453
vn -0.7104 -0.0612 -0.7012
vn -0.7037 0.0726 -0.7068
vn -0.0000 0.0197 -0.9998
vn -0.0000 -0.1100 -0.9939
vn 0.7020 0.1718 -0.6911
vn 0.6718 0.1972 -0.7140
vn -0.9985 0.0553 0.0063
vn -0.9803 0.1974 -0.0079
vn -0.6958 0.1658 0.6989
vn -0.6768 0.3159 0.6649
vn -0.0000 0.2092 0.9779
vn -0.0000 0.3627 0.9319
vn 0.6957 0.1661 0.6988
vn 0.6767 0.3163 0.6649
vn 0.9984 0.0559 0.0063
vn 0.9802 0.1980 -0.0079
vn 0.2100 0.9525 -0.2204
vn -0.0000 0.9502 -0.3117
vn -0.2101 0.9525 -0.2204
vn -0.2872 0.9578 -0.0095
vn -0.1959 0.9626 0.1871
vn -0.0000 0.9645 0.2642
vn 0.1958 0.9626 0.1871
vn 0.2871 0.9579 -0.0095
vn -0.0000 -0.0300 -0.9995
vn -0.7126 -0.0041 -0.7015
vn -0.0000 0.0575 -0.9983
vn -0.7104 0.0575 -0.7014
vn -0.0000 0.1441 -0.9896
vn -0.7080 0.1185 -0.6961
vn -0.9983 0.0567 0.0102
vn -0.9983 0.0569 0.0093
vn -0.9983 0.0571 0.0117
vn -0.6981 0.1136 0.7069
vn -0.7015 0.0558 0.7105
vn -0.7016 -0.0026 0.7126
vn -0.0000 0.1359 0.9907
vn -0.0000 0.0553 0.9985
vn -0.0000 -0.0267 0.9996
vn 0.6981 0.1137 0.7069
vn 0.7015 0.0558 0.7105
vn 0.7016 -0.0028 0.7125
vn 0.9983 0.0570 0.0102
vn 0.9983 0.0569 0.0093
vn 0.9983 0.0568 0.0117
vn 0.7104 -0.0608 -0.7012
vn 0.7127 -0.0038 -0.7015
vn 0.7104 0.0575 -0.7014
vn 0.7081 0.1183 -0.6961
vn 0.7037 0.0731 -0.7068
vn -0.0000 0.5364 -0.8440
vn 0.5713 0.5627 -0.5975
vn 0.7810 0.6241 -0.0259
vn 0.5300 0.6812 0.5051
vn -0.0000 0.7032 0.7110
vn -0.5302 0.6810 0.5052
vn -0.7812 0.6238 -0.0259
vn -0.5714 0.5625 -0.5976
vn -0.0278 0.9689 -0.2460
vn 0.4397 0.8781 -0.1890
vn -0.0875 0.7015 -0.7073
vn -0.3858 0.6544 -0.6503
vn 0.8112 0.4744 -0.3419
vn 0.4214 0.0551 -0.9052
vn 0.2432 0.3150 -0.9174
vn 0.7065 0.6223 -0.3371
vn 0.0698 0.5386 -0.8396
vn 0.5806 0.7641 -0.2811
vn 0.9033 -0.3300 -0.2741
vn 0.6715 -0.4416 -0.5950
vn 0.9618 0.2650 0.0682
vn 0.9314 -0.3371 -0.1373
vn 0.7720 -0.3900 -0.5019
vn 0.6351 0.4060 -0.6571
vn 0.6224 0.7656 0.1629
vn 0.4063 0.6933 -0.5952
vn 0.2362 0.7795 -0.5802
vn 0.3835 0.9063 0.1777
vn 0.8233 0.5523 0.1313
vn 0.5487 0.5576 -0.6229
vn 0.1434 0.9249 0.3521
vn -0.0092 0.9672 -0.2537
vn -0.9755 0.2167 -0.0372
vn -0.6817 0.7316 -0.0022
vn -0.4795 0.7742 0.4132
vn -0.3888 0.4042 0.8279
vn -0.2351 -0.9700 -0.0619
vn -0.5645 -0.6139 -0.5518
vn -0.7092 -0.5204 -0.4756
vn -0.4495 -0.8755 0.1773
vn -0.8061 -0.4530 0.3808
vn -0.6867 -0.5942 0.4188
vn -0.7103 -0.5714 -0.4111
vn -0.6483 -0.6347 -0.4204
vn -0.5409 -0.7718 0.3342
vn -0.7113 -0.5371 -0.4533
vn -0.3736 -0.9071 -0.1939
vn -0.3056 -0.9250 0.2257
vn 0.1108 -0.3372 0.9349
vn -0.6675 -0.3998 0.6282
vn -0.1803 -0.8807 0.4381
vn 0.1197 -0.7195 0.6841
vn 0.0775 -0.2145 0.9736
vn 0.0674 -0.1678 0.9835
vn -0.2366 -0.7918 0.5631
vn -0.4261 -0.7250 0.5411
vn 0.0509 -0.2591 0.9645
vn -0.6083 -0.5621 0.5603
vn 0.1686 -0.3053 0.9372
vn 0.0554 -0.8979 0.4366
vn -0.2853 -0.9582 0.0193
vn -0.8051 -0.5928 -0.0198
vn -0.1877 -0.4212 0.8873
vn -0.1115 -0.8321 0.5433
vn -0.1716 0.9554 -0.2402
vn -0.3581 0.7249 -0.5885
vn -0.7433 0.6689 0.0047
vn -0.5388 0.8252 0.1695
vn -0.4811 0.2157 -0.8497
vn -0.9536 -0.0992 -0.2843
vn -0.9636 0.2003 -0.1772
vn -0.4932 0.3817 -0.7817
vn -0.8841 0.4607 -0.0776
vn -0.4451 0.5623 -0.6970
vn -0.3592 -0.5733 -0.7364
vn -0.6412 -0.6274 -0.4419
vn -0.0572 -0.0126 -0.9983
vn -0.2267 -0.5835 -0.7798
vn -0.5647 -0.6024 -0.5642
vn -0.7481 0.1904 -0.6357
vn 0.0532 0.5638 -0.8242
vn -0.6568 0.5389 -0.5275
vn -0.5862 0.7022 -0.4041
vn 0.1014 0.7638 -0.6374
vn 0.0076 0.3055 -0.9522
vn -0.7017 0.3591 -0.6153
vn 0.2643 0.8703 -0.4157
vn -0.1767 0.9654 -0.1919
vn -0.0141 0.6531 0.7571
vn 0.4751 0.7572 0.4483
vn 0.6175 0.6610 0.4263
vn 0.7692 0.6361 0.0598
vn 0.1700 -0.8850 0.4336
vn -0.4335 -0.3996 0.8077
vn -0.3642 -0.2845 0.8868
vn 0.2928 -0.7136 0.6365
vn 0.5058 -0.2025 0.8385
vn 0.5384 -0.3697 0.7572
vn -0.2820 -0.3677 0.8861
vn -0.2945 -0.4459 0.8452
vn 0.4506 -0.5824 0.6766
vn -0.3250 -0.3358 0.8841
vn -0.0853 -0.7758 0.6252
vn 0.3232 -0.7982 0.5083
vn 0.9350 -0.3247 -0.1423
vn 0.7304 -0.1815 0.6585
vn 0.5152 -0.7832 0.3480
vn 0.7114 -0.7026 -0.0146
vn 0.9694 -0.1965 -0.1471
vn 0.9786 -0.1375 -0.1533
vn 0.6350 -0.6808 0.3650
vn 0.6353 -0.5627 0.5289
vn 0.9664 -0.2323 -0.1100
vn 0.6669 -0.3558 0.6547
vn 0.9366 -0.3098 -0.1635
vn 0.3938 -0.8878 0.2383
vn 0.5221 -0.6741 0.5225
vn 0.0509 -0.3929 0.9182
vn 0.8663 -0.4686 0.1732
vn 0.6332 -0.5371 0.5574
vn 0.1713 -0.9850 0.0204
vn -0.2526 -0.8608 0.4418
vn -0.3897 -0.8955 0.2148
vn 0.1076 -0.9295 -0.3527
vn -0.2189 -0.6613 -0.7174
vn -0.1583 -0.7849 -0.5991
vn -0.7743 -0.6233 -0.1098
vn -0.8616 -0.3992 -0.3134
vn -0.0475 -0.8824 -0.4680
vn -0.6128 -0.7866 0.0759
vn -0.7529 0.1337 -0.6444
vn -0.4298 0.1026 -0.8971
vn 0.0854 -0.3535 -0.9315
vn -0.5270 -0.6763 -0.5146
vn -0.6550 0.1024 -0.7486
vn -0.3056 0.1499 -0.9403
vn 0.3653 -0.7446 -0.5587
vn 0.4520 -0.8381 -0.3055
vn -0.2788 -0.9559 -0.0922
vn -0.3565 -0.8945 -0.2697
vn 0.2493 -0.5846 -0.7720
vn -0.4413 -0.7956 -0.4151
vn 0.7040 -0.6994 -0.1233
vn 0.1864 -0.9797 0.0740
vn 0.3388 -0.6944 0.6348
vn 0.1762 -0.1742 0.9688
vn 0.9572 -0.0104 0.2892
vn 0.7927 -0.4871 0.3667
vn -0.3799 0.9107 0.1623
vn -0.1001 0.9344 0.3418
vn -0.5766 0.3781 0.7243
vn -0.7103 0.3452 0.6135
vn 0.2619 0.6530 0.7107
vn -0.5628 0.5435 0.6228
vn -0.5286 0.4952 0.6894
vn 0.2423 0.7820 0.5743
vn -0.5580 0.4489 0.6979
vn 0.0917 0.9019 0.4221
vn -0.0758 0.9798 0.1849
vn -0.4597 0.8362 0.2992
vn 0.7586 0.6040 -0.2444
vn 0.3946 0.8800 -0.2646
vn 0.1300 0.9906 0.0425
vn 0.5027 0.6651 0.5522
vn 0.8383 0.5060 -0.2030
vn 0.2954 0.9104 0.2899
vn 0.2795 0.9555 0.0943
vn 0.8606 0.4724 -0.1901
vn 0.8167 0.5482 -0.1804
vn 0.3807 0.7875 0.4847
vn 0.7592 0.5830 -0.2893
vn 0.1289 0.9729 -0.1921
vn -0.1341 0.5652 0.8140
vn -0.3398 0.9219 0.1861
vn 0.2378 0.9676 -0.0850
vn 0.7159 0.6948 0.0694
vn 0.2902 -0.9141 0.2833
vn -0.1510 -0.9761 -0.1561
vn 0.0384 -0.9101 -0.4125
vn 0.6280 -0.7777 0.0285
vn 0.8282 -0.3919 -0.4007
vn 0.7914 -0.5659 -0.2311
vn 0.2270 -0.5794 -0.7828
vn 0.3121 -0.2962 -0.9027
vn 0.7309 -0.6748 -0.1020
vn 0.1328 -0.7808 -0.6104
vn 0.4282 0.3191 -0.8455
vn 0.6838 0.4148 -0.6004
vn 0.9994 -0.0099 0.0335
vn 0.7473 -0.4285 -0.5079
vn 0.6771 0.3679 -0.6373
vn 0.8183 0.4767 -0.3211
vn 0.8036 -0.5119 0.3036
vn 0.6201 -0.6612 0.4222
vn 0.4030 -0.8737 -0.2726
vn 0.5174 -0.7601 -0.3933
vn 0.9364 -0.2978 0.1856
vn 0.6281 -0.6318 -0.4543
vn 0.3724 -0.6881 0.6227
vn 0.1539 -0.9748 0.1615
vn -0.4552 -0.4762 0.7523
vn -0.7841 -0.5809 0.2185
vn -0.1437 -0.2550 0.9562
vn -0.5156 -0.3701 0.7728
vn -0.4045 0.8824 -0.2403
vn -0.6333 0.7718 -0.0573
vn -0.8556 0.1285 -0.5014
vn -0.7503 0.2178 -0.6242
vn -0.8526 0.3910 0.3467
vn -0.8163 0.2999 -0.4936
vn -0.8587 0.2320 -0.4569
vn -0.7705 0.5606 0.3033
vn -0.8550 0.1833 -0.4853
vn -0.6831 0.7170 0.1393
vn -0.4961 0.8674 -0.0394
vn -0.5994 0.6847 -0.4146
vn 0.0959 0.6708 0.7354
vn -0.0158 0.9279 0.3725
vn -0.3728 0.9176 0.1376
vn -0.7050 0.4510 0.5474
vn 0.1015 0.5649 0.8189
vn -0.5445 0.7723 0.3273
vn -0.3773 0.8792 0.2908
vn 0.1020 0.5297 0.8420
vn 0.0641 0.5985 0.7986
vn -0.6809 0.5961 0.4254
vn 0.1342 0.6907 0.7106
vn -0.2142 0.9765 -0.0232
vn -0.8893 0.4139 -0.1946
vn -0.5145 0.8424 0.1601
vn -0.5645 0.7608 0.3201
vn -0.1816 0.8099 0.5577
vn -0.3073 0.6999 -0.6448
vn -0.4115 0.8857 -0.2151
vn 0.2249 0.7590 -0.6111
vn 0.2708 0.5261 -0.8062
vn -0.1564 0.9439 0.2907
vn 0.6145 0.7764 0.1399
vn 0.5268 0.8353 -0.1572
vn -0.2151 0.9690 0.1211
vn 0.3838 0.8257 -0.4134
vn -0.3077 0.9500 -0.0526
vn 0.1945 0.4782 0.8565
vn 0.5684 0.4533 0.6866
vn -0.4142 0.6802 0.6049
vn 0.0803 0.4149 0.9063
vn 0.4421 0.4913 0.7504
vn 0.1772 0.9742 0.1395
vn -0.6805 0.7307 0.0560
vn 0.0259 0.9793 -0.2007
vn 0.0064 0.9238 -0.3827
vn -0.7132 0.6680 -0.2125
vn -0.5869 0.7370 0.3354
vn 0.0883 0.9960 -0.0129
vn -0.8111 0.4436 -0.3812
vn -0.3044 0.7139 -0.6306
vn 0.1361 -0.4165 -0.8989
vn -0.2324 0.0434 -0.9717
vn -0.6400 -0.0424 -0.7672
vn -0.8027 -0.4398 -0.4029
vn 0.6189 -0.6837 0.3867
vn 0.9044 -0.3919 -0.1689
vn 0.8253 -0.4620 -0.3249
vn 0.4219 -0.8834 0.2039
vn 0.1121 -0.9496 -0.2929
vn 0.1290 -0.9857 -0.1084
vn 0.7999 -0.5287 -0.2840
vn 0.8271 -0.5255 -0.1992
vn 0.2594 -0.9608 0.0974
vn 0.8164 -0.4855 -0.3127
vn 0.7246 -0.6538 0.2180
vn 0.3761 -0.8562 0.3544
vn -0.6094 -0.6525 0.4504
vn -0.1495 -0.9734 -0.1736
vn 0.1507 -0.8737 0.4625
vn -0.2037 -0.7383 0.6430
vn -0.6987 -0.6197 0.3575
vn -0.7292 -0.6030 0.3234
vn 0.0142 -0.9220 0.3869
vn 0.0397 -0.9800 0.1949
vn -0.6615 -0.6569 0.3618
vn -0.0213 -0.9989 -0.0419
vn -0.6413 -0.6011 0.4768
vn 0.1077 -0.7463 0.6569
vn 0.5577 -0.7506 0.3545
vn 0.5132 -0.8121 -0.2777
vn -0.4584 -0.8502 0.2591
vn 0.0235 -0.8626 0.5054
vn -0.5687 0.7865 0.2408
vn -0.1982 0.9787 0.0536
vn -0.6096 0.6648 -0.4319
vn -0.8014 0.5562 -0.2202
vn 0.3290 0.9240 -0.1948
vn 0.1124 0.5157 -0.8494
vn -0.1798 0.6132 -0.7692
vn 0.1603 0.9743 -0.1581
vn -0.4243 0.6595 -0.6205
vn -0.0207 0.9977 -0.0643
vn 0.8518 0.3438 -0.3952
vn 0.6527 0.2078 -0.7285
vn 0.6607 0.7383 0.1358
vn 0.9086 0.3185 -0.2701
vn 0.7272 0.2813 -0.6261
vn 0.1644 0.8570 -0.4883
vn 0.1398 0.8994 0.4143
vn -0.1487 0.9428 -0.2982
vn -0.3391 0.9197 -0.1978
vn -0.1229 0.8599 0.4955
vn 0.4069 0.8619 0.3026
vn 0.0343 0.9209 -0.3882
vn -0.3223 0.6975 0.6400
vn -0.6088 0.7591 0.2305
vn -0.9822 -0.1697 0.0809
vn -0.7781 -0.0744 0.6238
vn -0.6708 -0.1681 0.7224
vn -0.3865 0.0249 0.9220
vn 0.3889 -0.8857 -0.2537
vn -0.3087 -0.6474 -0.6969
vn -0.4346 -0.6655 -0.6069
vn 0.1481 -0.9819 -0.1181
vn -0.3273 -0.9179 0.2243
vn -0.1459 -0.9671 0.2083
vn -0.3603 -0.7442 -0.5625
vn -0.2778 -0.7545 -0.5947
vn 0.0498 -0.9966 0.0659
vn -0.3891 -0.7079 -0.5895
vn 0.1423 -0.8641 -0.4829
vn 0.2997 -0.9491 -0.0968
vn 0.4780 -0.4418 0.7592
vn -0.1887 -0.8617 0.4711
vn 0.4246 -0.8981 0.1144
vn 0.6359 -0.6646 0.3924
vn 0.3924 -0.3782 0.8385
vn 0.3546 -0.3435 0.8696
vn 0.3569 -0.8979 0.2576
vn 0.1618 -0.9493 0.2697
vn 0.3936 -0.4244 0.8154
vn -0.0682 -0.9342 0.3501
vn 0.4813 -0.4186 0.7702
vn 0.5550 -0.8318 -0.0134
vn 0.2302 -0.9648 0.1270
vn -0.3112 -0.9097 -0.2749
vn 0.3641 -0.7264 0.5829
vn 0.1239 -0.9544 0.2716
vn -0.3198 0.8471 -0.4244
vn -0.4441 0.8942 -0.0561
vn 0.3054 0.9514 0.0384
vn 0.3411 0.9046 -0.2557
vn -0.5616 0.7030 0.4363
vn 0.1540 0.5977 0.7868
vn 0.2469 0.7929 0.5570
vn -0.5179 0.8037 0.2930
vn 0.2971 0.9077 0.2963
vn -0.4760 0.8711 0.1207
vn -0.5020 0.0134 0.8648
vn -0.1131 0.0562 0.9920
vn -0.8641 0.3357 0.3751
vn -0.5995 -0.0613 0.7981
vn -0.2567 0.0648 0.9643
vn -0.2243 0.7888 0.5723
vn -0.7528 0.6440 -0.1361
vn -0.1410 0.9559 0.2578
vn -0.0650 0.9935 0.0931
vn -0.6137 0.7020 -0.3613
vn -0.8473 0.5200 0.1078
vn -0.2005 0.8831 0.4241
vn -0.5110 0.5933 -0.6220
vn -0.0612 0.9201 -0.3868
vn 0.6043 0.6568 -0.4510
vn 0.9259 0.2306 -0.2992
vn -0.2499 -0.2187 -0.9433
vn -0.4279 0.0852 -0.8998
vn 0.3399 -0.8431 0.4167
vn 0.9105 -0.2415 0.3356
vn 0.9547 -0.2573 0.1494
vn 0.4515 -0.8885 0.0822
vn 0.5285 -0.7055 -0.4722
vn 0.4411 -0.8244 -0.3546
vn 0.9194 -0.3653 0.1457
vn 0.8882 -0.4033 0.2200
vn 0.4106 -0.9034 -0.1235
vn 0.9368 -0.3134 0.1555
vn 0.5982 -0.7079 0.3756
vn 0.3128 -0.9366 0.1582
vn -0.5411 -0.7628 -0.3541
vn 0.2678 -0.7721 -0.5764
vn 0.0842 -0.9938 0.0731
vn -0.3278 -0.9447 0.0071
vn -0.5626 -0.6864 -0.4608
vn -0.5689 -0.6572 -0.4943
vn 0.0374 -0.9956 -0.0863
vn 0.1893 -0.9583 -0.2139
vn -0.5260 -0.7231 -0.4478
vn 0.2923 -0.8613 -0.4156
vn -0.5828 -0.7484 -0.3166
vn 0.0062 -0.9362 0.3513
vn 0.9120 -0.3302 0.2433
vn 0.8457 -0.3164 0.4298
vn -0.4113 -0.9073 -0.0874
vn -0.2135 -0.9098 -0.3558
vn 0.2550 0.8297 -0.4966
vn -0.1266 0.8470 -0.5163
vn 0.3134 0.9454 0.0897
vn 0.5508 0.8338 0.0374
vn -0.5952 0.7722 -0.2225
vn -0.3872 0.7381 0.5526
vn -0.1289 0.8849 0.4476
vn -0.4445 0.8476 -0.2899
vn 0.1143 0.9493 0.2928
vn -0.2772 0.8781 -0.3901
vn -0.9654 0.1782 0.1905
vn -0.7926 0.2472 0.5574
vn -0.8042 0.3966 -0.4428
vn -0.9922 0.0913 0.0843
vn -0.8671 0.2494 0.4313
vn -0.4579 0.8832 0.1017
vn -0.3117 0.6010 -0.7360
vn -0.1449 0.9873 -0.0652
vn 0.0531 0.9924 -0.1108
vn -0.0327 0.6232 -0.7814
vn -0.5717 0.5250 -0.6305
vn -0.3212 0.9470 0.0083
vn 0.1628 0.3769 -0.9118
vn 0.3083 0.8127 -0.4944
vn 0.9993 -0.0217 0.0309
vn 0.8175 0.4279 -0.3855
vn 0.6065 0.0918 -0.7897
vn 0.4667 -0.3989 -0.7894
vn -0.1054 -0.7012 0.7052
vn 0.3786 -0.1076 0.9193
vn 0.5043 -0.2028 0.8394
vn 0.1165 -0.8531 0.5085
vn 0.5989 -0.7806 0.1791
vn 0.4378 -0.8749 0.2070
vn 0.4563 -0.3244 0.8286
vn 0.3758 -0.3474 0.8591
vn 0.2378 -0.9079 0.3453
vn 0.4681 -0.2716 0.8409
vn 0.0255 -0.6177 0.7860
vn -0.0384 -0.8860 0.4621
vn -0.2099 -0.8203 -0.5320
vn 0.4915 -0.8677 -0.0742
vn -0.1370 -0.9601 0.2439
vn -0.3570 -0.9273 -0.1125
vn -0.1345 -0.7669 -0.6275
vn -0.1109 -0.7465 -0.6561
vn -0.0508 -0.9926 0.1105
vn 0.1491 -0.9801 0.1310
vn -0.1258 -0.7995 -0.5873
vn 0.3778 -0.9238 0.0613
vn -0.2485 -0.7963 -0.5515
vn -0.3586 -0.9164 0.1780
vn -0.0770 -0.7298 0.6793
vn 0.6385 -0.5572 0.5309
vn 0.0641 -0.9226 -0.3803
vn -0.2335 -0.9666 0.1059
vn -0.2575 0.9523 -0.1640
vn 0.0791 0.9968 -0.0142
vn 0.1173 0.7217 -0.6822
vn -0.1797 0.6456 -0.7422
vn 0.6059 0.7715 0.1942
vn 0.8342 0.3370 -0.4365
vn 0.6193 0.5079 -0.5988
vn 0.5008 0.8630 0.0668
vn 0.3602 0.6428 -0.6761
vn 0.2994 0.9541 -0.0025
vn 0.9123 0.0644 0.4044
vn 0.9978 -0.0621 0.0224
vn 0.5027 0.5527 0.6647
vn 0.8487 0.0431 0.5271
vn 0.9882 0.0039 0.1528
vn 0.6929 0.7141 -0.0998
vn 0.0048 0.8793 0.4762
vn 0.3556 0.9163 -0.1840
vn 0.1820 0.9286 -0.3234
vn -0.2111 0.9239 0.3192
vn 0.2499 0.7542 0.6073
vn 0.5491 0.8308 -0.0912
vn -0.5028 0.8259 0.2551
vn -0.2528 0.9162 -0.3108
vn -0.8246 -0.0897 -0.5586
vn -0.8493 0.4914 -0.1929
vn -0.9165 0.3471 -0.1988
vn -0.9559 0.1299 0.2635
vn 0.2020 -0.9790 0.0275
vn 0.1692 -0.6773 -0.7159
vn 0.0095 -0.6283 -0.7779
vn -0.0795 -0.9941 -0.0739
vn -0.6127 -0.7685 -0.1844
vn -0.5011 -0.8629 -0.0651
vn -0.0075 -0.7010 -0.7131
vn 0.0647 -0.7357 -0.6742
vn -0.2799 -0.9598 -0.0199
vn 0.0061 -0.6618 -0.7497
vn 0.2146 -0.9298 -0.2989
vn 0.0056 -0.9978 0.0654
vn -0.3793 -0.4389 0.8146
vn -0.6933 -0.7153 0.0875
vn -0.0588 -0.9512 0.3030
vn -0.0701 -0.7417 0.6671
vn -0.4728 -0.3445 0.8111
vn -0.5033 -0.3078 0.8075
vn -0.2097 -0.9109 0.3555
vn -0.3497 -0.9132 0.2094
vn -0.4685 -0.3935 0.7910
vn -0.5485 -0.8313 0.0897
vn -0.3563 -0.4364 0.8262
vn 0.1411 -0.9340 0.3281
vn -0.1953 -0.9457 0.2598
vn -0.2297 -0.8791 -0.4176
vn -0.3885 -0.7418 0.5467
vn -0.4081 -0.9098 0.0759
vn 0.0510 0.9393 -0.3392
vn -0.2580 0.8162 -0.5170
vn -0.3048 0.9170 0.2572
vn -0.0485 0.9533 0.2981
vn -0.7377 0.4688 -0.4859
vn -0.9178 0.2895 0.2718
vn -0.7569 0.5549 0.3453
vn -0.6644 0.6253 -0.4095
vn -0.5306 0.7762 0.3404
vn -0.4716 0.7771 -0.4167
vn -0.8712 -0.3115 -0.3795
vn -0.9576 -0.2873 0.0219
vn -0.5545 0.1068 -0.8253
vn -0.7952 -0.3660 -0.4834
vn -0.9520 -0.2797 -0.1242
vn -0.8333 0.5181 -0.1930
vn -0.1533 0.5979 -0.7868
vn -0.5517 0.8154 -0.1754
vn -0.4317 0.9019 0.0166
vn 0.0211 0.7685 -0.6395
vn -0.3550 0.3651 -0.8606
vn -0.7170 0.6501 -0.2516
vn 0.3119 0.7195 -0.6205
vn 0.0459 0.9884 -0.1445
vn 0.7199 0.3862 0.5767
vn 0.6711 0.7404 0.0381
vn 0.8228 0.5283 -0.2094
vn 0.9113 0.1144 -0.3955
vn -0.0515 -0.8662 0.4970
vn -0.1204 -0.2422 0.9627
vn 0.0624 -0.2187 0.9738
vn 0.2785 -0.8291 0.4848
vn 0.7445 -0.4686 0.4756
vn 0.6648 -0.6258 0.4079
vn 0.0994 -0.3292 0.9390
vn 0.0393 -0.3919 0.9192
vn 0.4711 -0.7794 0.4130
vn 0.0731 -0.2819 0.9566
vn -0.0367 -0.7501 0.6603
vn 0.2096 -0.9117 0.3534
vn 0.5253 -0.6352 -0.5662
vn 0.8329 -0.5141 0.2048
vn 0.2810 -0.9526 0.1167
vn 0.2762 -0.9126 -0.3015
vn 0.5953 -0.5289 -0.6048
vn 0.6154 -0.4917 -0.6160
vn 0.4260 -0.9036 0.0438
vn 0.5489 -0.8166 0.1788
vn 0.6009 -0.5655 -0.5650
vn 0.7164 -0.6502 0.2531
vn 0.4848 -0.6269 -0.6099
vn 0.1107 -0.9929 -0.0431
vn 0.0689 -0.8850 0.4606
vn 0.4454 -0.4120 0.7949
vn 0.6608 -0.6915 -0.2917
vn 0.3360 -0.9418 0.0047
vn 0.3025 0.9310 0.2041
vn 0.1539 0.9647 -0.2135
vn -0.4340 0.8686 0.2391
vn -0.2407 0.8327 0.4986
vn -0.1863 0.7265 -0.6614
vn -0.8016 0.4581 -0.3842
vn -0.7234 0.6716 -0.1603
vn -0.0417 0.8578 -0.5122
vn -0.5928 0.8037 0.0510
vn 0.0609 0.9229 -0.3802
vn -0.3752 -0.0519 -0.9255
vn -0.6839 -0.0553 -0.7275
vn 0.2969 0.4227 -0.8563
vn -0.0674 -0.0706 -0.9952
vn -0.4149 -0.0098 -0.9098
vn -0.3129 0.7331 -0.6038
vn 0.4791 0.7786 -0.4053
vn -0.2806 0.9306 -0.2352
vn -0.2006 0.9780 -0.0566
vn 0.5369 0.8298 -0.1521
vn 0.4117 0.6475 -0.6412
vn -0.3034 0.8643 -0.4011
vn 0.6628 0.7379 0.1271
vn 0.1460 0.9374 0.3161
vn -0.0277 0.1860 0.9822
vn 0.5790 0.1927 0.7923
vn 0.5881 0.0701 0.8058
vn 0.8693 0.1083 0.4822
vn -0.2931 -0.9527 -0.0803
vn -0.7888 -0.4686 0.3978
vn -0.7031 -0.4395 0.5590
vn -0.1834 -0.9597 0.2129
vn 0.1277 -0.7323 0.6689
vn 0.1166 -0.8491 0.5152
vn -0.6557 -0.5376 0.5301
vn -0.6764 -0.5791 0.4552
vn -0.0101 -0.9437 0.3307
vn -0.6846 -0.4900 0.5397
vn -0.5229 -0.8430 0.1262
vn -0.1248 -0.9905 0.0584
vn 0.7681 -0.6170 -0.1712
vn 0.3633 -0.7385 0.5680
vn 0.0809 -0.9964 -0.0234
vn 0.4024 -0.8727 -0.2767
vn 0.8445 -0.5241 -0.1099
vn 0.8651 -0.4936 -0.0895
vn 0.2253 -0.9736 0.0366
vn 0.2105 -0.9486 0.2364
vn 0.8168 -0.5688 -0.0967
vn 0.2597 -0.8521 0.4544
vn 0.7554 -0.6175 -0.2193
vn -0.0287 -0.9732 -0.2282
vn 0.0612 -0.9887 0.1371
vn -0.4020 -0.7326 0.5493
vn 0.5306 -0.8469 -0.0346
vn 0.1978 -0.9461 0.2567
vn -0.0377 0.9992 0.0091
vn 0.1448 0.9174 -0.3707
vn -0.5706 0.7079 -0.4162
vn -0.6156 0.7809 -0.1063
vn 0.3383 0.5540 -0.7607
vn -0.3043 0.1118 -0.9460
vn -0.4605 0.3568 -0.8128
vn 0.2498 0.6852 -0.6842
vn -0.5456 0.5628 -0.6210
vn 0.1886 0.8187 -0.5423
vn 0.5013 -0.2343 -0.8330
vn 0.1204 -0.3590 -0.9255
vn 0.7475 0.3502 -0.5645
vn 0.6142 -0.2424 -0.7510
vn 0.2545 -0.3005 -0.9192
vn 0.0151 0.4813 -0.8764
vn 0.5299 0.8171 -0.2271
vn -0.1248 0.7436 -0.6569
vn -0.2288 0.8323 -0.5050
vn 0.3762 0.9254 -0.0450
vn 0.6708 0.6249 -0.3994
vn -0.0248 0.6201 -0.7841
vn 0.2770 0.9268 0.2537
vn -0.2430 0.9698 -0.0211
vn -0.7434 0.3257 0.5841
vn -0.1879 0.4994 0.8458
vn -0.1772 0.3894 0.9039
vn 0.2457 0.4624 0.8520
vn -0.0392 -0.9960 0.0803
vn -0.7755 -0.6258 -0.0835
vn -0.8354 -0.5445 0.0750
vn -0.1737 -0.9189 0.3542
vn -0.3162 -0.5383 0.7812
vn -0.1950 -0.6684 0.7178
vn -0.7708 -0.6256 0.1208
vn -0.7278 -0.6824 0.0672
vn -0.1365 -0.8296 0.5415
vn -0.8021 -0.5902 0.0914
vn -0.3582 -0.9332 0.0289
vn -0.0253 -0.9558 0.2929
vn 0.7275 -0.3501 0.5901
vn -0.0505 -0.4788 0.8765
vn 0.2076 -0.9054 0.3704
vn 0.5860 -0.7228 0.3662
vn 0.7229 -0.2319 0.6509
vn 0.7194 -0.1909 0.6679
vn 0.2478 -0.8246 0.5085
vn 0.0884 -0.7769 0.6234
vn 0.6989 -0.2789 0.6586
vn -0.0437 -0.6328 0.7731
vn 0.7522 -0.3633 0.5497
vn 0.2599 -0.9523 0.1601
vn 0.0592 -0.8812 0.4691
vn -0.5855 -0.7257 0.3612
vn 0.4912 -0.6255 0.6061
vn 0.0629 -0.7776 0.6256
vt 0.053411 0.381061
vt 0.561328 0.341406
s 1
usemtl BASE_MATERIAL
f 8/1/1 44/1/2 10/1/3 1/1/4
f 3/1/5 19/1/6 24/1/7 4/1/8
f 4/1/8 24/1/7 29/1/9 5/1/10
f 5/1/10 29/1/9 34/1/11 6/1/12
f 6/1/12 34/1/11 39/1/13 7/1/14
f 7/1/14 39/1/13 44/1/2 8/1/1
f 45/1/15 71/1/16 49/1/17 9/1/18
f 1/1/4 10/1/3 14/1/19 2/1/20
f 2/1/20 14/1/19 19/1/6 3/1/5
f 40/1/21 68/1/22 71/1/16 45/1/15
f 35/1/23 65/1/24 68/1/22 40/1/21
f 30/1/25 62/1/26 65/1/24 35/1/23
f 25/1/27 59/1/28 62/1/26 30/1/25
f 20/1/29 56/1/30 59/1/28 25/1/27
f 52/1/31 50/1/32 70/1/33 67/1/34 64/1/35 61/1/36 58/1/37 55/1/38
f 45/1/15 9/1/18 11/1/39 48/1/40
f 48/1/40 11/1/39 12/1/41 47/1/42
f 47/1/42 12/1/41 13/1/43 46/1/44
f 46/1/44 13/1/43 10/1/3 44/1/2
f 40/1/21 45/1/15 48/1/40 43/1/45
f 43/1/45 48/1/40 47/1/42 42/1/46
f 42/1/46 47/1/42 46/1/44 41/1/47
f 41/1/47 46/1/44 44/1/2 39/1/13
f 35/1/23 40/1/21 43/1/45 38/1/48
f 38/1/48 43/1/45 42/1/46 37/1/49
f 37/1/49 42/1/46 41/1/47 36/1/50
f 36/1/50 41/1/47 39/1/13 34/1/11
f 30/1/25 35/1/23 38/1/48 33/1/51
f 33/1/51 38/1/48 37/1/49 32/1/52
f 32/1/52 37/1/49 36/1/50 31/1/53
f 31/1/53 36/1/50 34/1/11 29/1/9
f 25/1/27 30/1/25 33/1/51 28/1/54
f 28/1/54 33/1/51 32/1/52 27/1/55
f 27/1/55 32/1/52 31/1/53 26/1/56
f 26/1/56 31/1/53 29/1/9 24/1/7
f 20/1/29 25/1/27 28/1/54 23/1/57
f 23/1/57 28/1/54 27/1/55 22/1/58
f 22/1/58 27/1/55 26/1/56 21/1/59
f 21/1/59 26/1/56 24/1/7 19/1/6
f 15/1/60 20/1/29 23/1/57 18/1/61
f 18/1/61 23/1/57 22/1/58 17/1/62
f 17/1/62 22/1/58 21/1/59 16/1/63
f 16/1/63 21/1/59 19/1/6 14/1/19
f 9/1/18 15/1/60 18/1/61 11/1/39
f 11/1/39 18/1/61 17/1/62 12/1/41
f 12/1/41 17/1/62 16/1/63 13/1/43
f 13/1/43 16/1/63 14/1/19 10/1/3
f 15/1/60 53/1/64 56/1/30 20/1/29
f 53/1/64 49/1/17 51/1/65 54/1/66
f 54/1/66 51/1/65 50/1/32 52/1/31
f 56/1/30 53/1/64 54/1/66 57/1/67
f 57/1/67 54/1/66 52/1/31 55/1/38
f 59/1/28 56/1/30 57/1/67 60/1/68
f 60/1/68 57/1/67 55/1/38 58/1/37
f 62/1/26 59/1/28 60/1/68 63/1/69
f 63/1/69 60/1/68 58/1/37 61/1/36
f 65/1/24 62/1/26 63/1/69 66/1/70
f 66/1/70 63/1/69 61/1/36 64/1/35
f 68/1/22 65/1/24 66/1/70 69/1/71
f 69/1/71 66/1/70 64/1/35 67/1/34
f 71/1/16 68/1/22 69/1/71 72/1/72
f 72/1/72 69/1/71 67/1/34 70/1/33
f 49/1/17 71/1/16 72/1/72 51/1/65
f 51/1/65 72/1/72 70/1/33 50/1/32
f 9/1/18 49/1/17 53/1/64 15/1/60
f 85/2/73 90/2/74 81/2/75 75/2/76
f 87/2/77 82/2/78 84/2/79 88/2/80
f 88/2/80 84/2/79 83/2/81 89/2/82
f 89/2/82 83/2/81 81/2/75 90/2/74
f 87/2/77 86/2/83 76/2/84 82/2/78
f 77/2/85 74/2/86 86/2/87 87/2/88
f 80/2/89 89/2/90 90/2/91 78/2/92
f 79/2/93 88/2/94 89/2/90 80/2/89
f 77/2/85 87/2/88 88/2/94 79/2/93
f 73/2/95 78/2/92 90/2/91 85/2/96
f 85/2/73 75/2/76 92/2/97 93/2/98
f 73/2/95 85/2/96 93/2/99 91/2/100
f 106/2/101 96/2/102 102/2/103 111/2/104
f 108/2/105 109/2/106 105/2/107 103/2/108
f 109/2/106 110/2/109 104/2/110 105/2/107
f 110/2/109 111/2/104 102/2/103 104/2/110
f 108/2/105 103/2/108 97/2/111 107/2/112
f 98/2/113 108/2/114 107/2/115 95/2/116
f 101/2/117 99/2/118 111/2/119 110/2/120
f 100/2/121 101/2/117 110/2/120 109/2/122
f 98/2/113 100/2/121 109/2/122 108/2/114
f 94/2/123 106/2/124 111/2/119 99/2/118
f 106/2/101 114/2/125 113/2/126 96/2/102
f 94/2/123 112/2/127 114/2/128 106/2/124
f 76/2/84 86/2/83 107/2/112 97/2/111
f 77/2/85 79/2/93 100/2/121 98/2/113
f 84/2/79 82/2/78 103/2/108 105/2/107
f 79/2/93 80/2/89 101/2/117 100/2/121
f 83/2/81 84/2/79 105/2/107 104/2/110
f 80/2/89 78/2/92 99/2/118 101/2/117
f 81/2/75 83/2/81 104/2/110 102/2/103
f 74/2/86 77/2/85 98/2/113 95/2/116
f 82/2/78 76/2/84 97/2/111 103/2/108
f 78/2/92 73/2/95 94/2/123 99/2/118
f 75/2/76 81/2/75 102/2/103 96/2/102
f 86/2/87 74/2/86 95/2/116 107/2/115
f 91/2/100 93/2/99 114/2/128 112/2/127
f 93/2/98 92/2/97 113/2/126 114/2/125
f 92/2/97 75/2/76 96/2/102 113/2/126
f 73/2/95 91/2/100 112/2/127 94/2/123
f 127/2/129 132/2/130 123/2/131 117/2/132
f 129/2/133 124/2/134 126/2/135 130/2/136
f 130/2/136 126/2/135 125/2/137 131/2/138
f 131/2/138 125/2/137 123/2/131 132/2/130
f 129/2/133 128/2/139 118/2/140 124/2/134
f 119/2/141 116/2/142 128/2/143 129/2/144
f 122/2/145 131/2/146 132/2/147 120/2/148
f 121/2/149 130/2/150 131/2/146 122/2/145
f 119/2/141 129/2/144 130/2/150 121/2/149
f 115/2/151 120/2/148 132/2/147 127/2/152
f 127/2/129 117/2/132 134/2/153 135/2/154
f 115/2/151 127/2/152 135/2/155 133/2/156
f 148/2/157 138/2/158 144/2/159 153/2/160
f 150/2/161 151/2/162 147/2/163 145/2/164
f 151/2/162 152/2/165 146/2/166 147/2/163
f 152/2/165 153/2/160 144/2/159 146/2/166
f 150/2/161 145/2/164 139/2/167 149/2/168
f 140/2/169 150/2/170 149/2/171 137/2/172
f 143/2/173 141/2/174 153/2/175 152/2/176
f 142/2/177 143/2/173 152/2/176 151/2/178
f 140/2/169 142/2/177 151/2/178 150/2/170
f 136/2/179 148/2/180 153/2/175 141/2/174
f 148/2/157 156/2/181 155/2/182 138/2/158
f 136/2/179 154/2/183 156/2/184 148/2/180
f 118/2/140 128/2/139 149/2/168 139/2/167
f 119/2/141 121/2/149 142/2/177 140/2/169
f 126/2/135 124/2/134 145/2/164 147/2/163
f 121/2/149 122/2/145 143/2/173 142/2/177
f 125/2/137 126/2/135 147/2/163 146/2/166
f 122/2/145 120/2/148 141/2/174 143/2/173
f 123/2/131 125/2/137 146/2/166 144/2/159
f 116/2/142 119/2/141 140/2/169 137/2/172
f 124/2/134 118/2/140 139/2/167 145/2/164
f 120/2/148 115/2/151 136/2/179 141/2/174
f 117/2/132 123/2/131 144/2/159 138/2/158
f 128/2/143 116/2/142 137/2/172 149/2/171
f 133/2/156 135/2/155 156/2/184 154/2/183
f 135/2/154 134/2/153 155/2/182 156/2/181
f 134/2/153 117/2/132 138/2/158 155/2/182
f 115/2/151 133/2/156 154/2/183 136/2/179
f 169/2/185 159/2/186 165/2/187 174/2/188
f 171/2/189 172/2/190 168/2/191 166/2/192
f 172/2/190 173/2/193 167/2/194 168/2/191
f 173/2/193 174/2/188 165/2/187 167/2/194
f 171/2/189 166/2/192 160/2/195 170/2/196
f 161/2/197 171/2/198 170/2/199 158/2/200
f 164/2/201 162/2/202 174/2/203 173/2/204
f 163/2/205 164/2/201 173/2/204 172/2/206
f 161/2/197 163/2/205 172/2/206 171/2/198
f 157/2/207 169/2/208 174/2/203 162/2/202
f 169/2/185 177/2/209 176/2/210 159/2/186
f 157/2/207 175/2/211 177/2/212 169/2/208
f 190/2/213 195/2/214 186/2/215 180/2/216
f 192/2/217 187/2/218 189/2/219 193/2/220
f 193/2/220 189/2/219 188/2/221 194/2/222
f 194/2/222 188/2/221 186/2/215 195/2/214
f 192/2/217 191/2/223 181/2/224 187/2/218
f 182/2/225 179/2/226 191/2/227 192/2/228
f 185/2/229 194/2/230 195/2/231 183/2/232
f 184/2/233 193/2/234 194/2/230 185/2/229
f 182/2/225 192/2/228 193/2/234 184/2/233
f 178/2/235 183/2/232 195/2/231 190/2/236
f 190/2/213 180/2/216 197/2/237 198/2/238
f 178/2/235 190/2/236 198/2/239 196/2/240
f 160/2/195 181/2/224 191/2/223 170/2/196
f 161/2/197 182/2/225 184/2/233 163/2/205
f 168/2/191 189/2/219 187/2/218 166/2/192
f 163/2/205 184/2/233 185/2/229 164/2/201
f 167/2/194 188/2/221 189/2/219 168/2/191
f 164/2/201 185/2/229 183/2/232 162/2/202
f 165/2/187 186/2/215 188/2/221 167/2/194
f 158/2/200 179/2/226 182/2/225 161/2/197
f 166/2/192 187/2/218 181/2/224 160/2/195
f 162/2/202 183/2/232 178/2/235 157/2/207
f 159/2/186 180/2/216 186/2/215 165/2/187
f 170/2/199 191/2/227 179/2/226 158/2/200
f 175/2/211 196/2/240 198/2/239 177/2/212
f 177/2/209 198/2/238 197/2/237 176/2/210
f 176/2/210 197/2/237 180/2/216 159/2/186
f 157/2/207 178/2/235 196/2/240 175/2/211
f 211/2/241 201/2/242 207/2/243 216/2/244
f 213/2/245 214/2/246 210/2/247 208/2/248
f 214/2/246 215/2/249 209/2/250 210/2/247
f 215/2/249 216/2/244 207/2/243 209/2/250
f 213/2/245 208/2/248 202/2/251 212/2/252
f 203/2/253 213/2/254 212/2/255 200/2/256
f 206/2/257 204/2/258 216/2/259 215/2/260
f 205/2/261 206/2/257 215/2/260 214/2/262
f 203/2/253 205/2/261 214/2/262 213/2/254
f 199/2/263 211/2/264 216/2/259 204/2/258
f 211/2/241 219/2/265 218/2/266 201/2/242
f 199/2/263 217/2/267 219/2/268 211/2/264
f 232/2/269 237/2/270 228/2/271 222/2/272
f 234/2/273 229/2/274 231/2/275 235/2/276
f 235/2/276 231/2/275 230/2/277 236/2/278
f 236/2/278 230/2/277 228/2/271 237/2/270
f 234/2/273 233/2/279 223/2/280 229/2/274
f 224/2/281 221/2/282 233/2/283 234/2/284
f 227/2/285 236/2/286 237/2/287 225/2/288
f 226/2/289 235/2/290 236/2/286 227/2/285
f 224/2/281 234/2/284 235/2/290 226/2/289
f 220/2/291 225/2/288 237/2/287 232/2/292
f 232/2/269 222/2/272 239/2/293 240/2/294
f 220/2/291 232/2/292 240/2/295 238/2/296
f 202/2/251 223/2/280 233/2/279 212/2/252
f 203/2/253 224/2/281 226/2/289 205/2/261
f 210/2/247 231/2/275 229/2/274 208/2/248
f 205/2/261 226/2/289 227/2/285 206/2/257
f 209/2/250 230/2/277 231/2/275 210/2/247
f 206/2/257 227/2/285 225/2/288 204/2/258
f 207/2/243 228/2/271 230/2/277 209/2/250
f 200/2/256 221/2/282 224/2/281 203/2/253
f 208/2/248 229/2/274 223/2/280 202/2/251
f 204/2/258 225/2/288 220/2/291 199/2/263
f 201/2/242 222/2/272 228/2/271 207/2/243
f 212/2/255 233/2/283 221/2/282 200/2/256
f 217/2/267 238/2/296 240/2/295 219/2/268
f 219/2/265 240/2/294 239/2/293 218/2/266
f 218/2/266 239/2/293 222/2/272 201/2/242
f 199/2/263 220/2/291 238/2/296 217/2/267
f 253/2/297 258/2/298 249/2/299 243/2/300
f 255/2/301 250/2/302 252/2/303 256/2/304
f 256/2/304 252/2/303 251/2/305 257/2/306
f 257/2/306 251/2/305 249/2/299 258/2/298
f 255/2/301 254/2/307 244/2/308 250/2/302
f 245/2/309 242/2/310 254/2/311 255/2/312
f 248/2/313 257/2/314 258/2/315 246/2/316
f 247/2/317 256/2/318 257/2/314 248/2/313
f 245/2/309 255/2/312 256/2/318 247/2/317
f 241/2/319 246/2/316 258/2/315 253/2/320
f 253/2/297 243/2/300 260/2/321 261/2/322
f 241/2/319 253/2/320 261/2/323 259/2/324
f 274/2/325 264/2/326 270/2/327 279/2/328
f 276/2/329 277/2/330 273/2/331 271/2/332
f 277/2/330 278/2/333 272/2/334 273/2/331
f 278/2/333 279/2/328 270/2/327 272/2/334
f 276/2/329 271/2/332 265/2/335 275/2/336
f 266/2/337 276/2/338 275/2/339 263/2/340
f 269/2/341 267/2/342 279/2/343 278/2/344
f 268/2/345 269/2/341 278/2/344 277/2/346
f 266/2/337 268/2/345 277/2/346 276/2/338
f 262/2/347 274/2/348 279/2/343 267/2/342
f 274/2/325 282/2/349 281/2/350 264/2/326
f 262/2/347 280/2/351 282/2/352 274/2/348
f 244/2/308 254/2/307 275/2/336 265/2/335
f 245/2/309 247/2/317 268/2/345 266/2/337
f 252/2/303 250/2/302 271/2/332 273/2/331
f 247/2/317 248/2/313 269/2/341 268/2/345
f 251/2/305 252/2/303 273/2/331 272/2/334
f 248/2/313 246/2/316 267/2/342 269/2/341
f 249/2/299 251/2/305 272/2/334 270/2/327
f 242/2/310 245/2/309 266/2/337 263/2/340
f 250/2/302 244/2/308 265/2/335 271/2/332
f 246/2/316 241/2/319 262/2/347 267/2/342
f 243/2/300 249/2/299 270/2/327 264/2/326
f 254/2/311 242/2/310 263/2/340 275/2/339
f 259/2/324 261/2/323 282/2/352 280/2/351
f 261/2/322 260/2/321 281/2/350 282/2/349
f 260/2/321 243/2/300 264/2/326 281/2/350
f 241/2/319 259/2/324 280/2/351 262/2/347
f 295/2/353 300/2/354 291/2/355 285/2/356
f 297/2/357 292/2/358 294/2/359 298/2/360
f 298/2/360 294/2/359 293/2/361 299/2/362
f 299/2/362 293/2/361 291/2/355 300/2/354
f 297/2/357 296/2/363 286/2/364 292/2/358
f 287/2/365 284/2/366 296/2/367 297/2/368
f 290/2/369 299/2/370 300/2/371 288/2/372
f 289/2/373 298/2/374 299/2/370 290/2/369
f 287/2/365 297/2/368 298/2/374 289/2/373
f 283/2/375 288/2/372 300/2/371 295/2/376
f 295/2/353 285/2/356 302/2/377 303/2/378
f 283/2/375 295/2/376 303/2/379 301/2/380
f 316/2/381 306/2/382 312/2/383 321/2/384
f 318/2/385 319/2/386 315/2/387 313/2/388
f 319/2/386 320/2/389 314/2/390 315/2/387
f 320/2/389 321/2/384 312/2/383 314/2/390
f 318/2/385 313/2/388 307/2/391 317/2/392
f 308/2/393 318/2/394 317/2/395 305/2/396
f 311/2/397 309/2/398 321/2/399 320/2/400
f 310/2/401 311/2/397 320/2/400 319/2/402
f 308/2/393 310/2/401 319/2/402 318/2/394
f 304/2/403 316/2/404 321/2/399 309/2/398
f 316/2/381 324/2/405 323/2/406 306/2/382
f 304/2/403 322/2/407 324/2/408 316/2/404
f 286/2/364 296/2/363 317/2/392 307/2/391
f 287/2/365 289/2/373 310/2/401 308/2/393
f 294/2/359 292/2/358 313/2/388 315/2/387
f 289/2/373 290/2/369 311/2/397 310/2/401
f 293/2/361 294/2/359 315/2/387 314/2/390
f 290/2/369 288/2/372 309/2/398 311/2/397
f 291/2/355 293/2/361 314/2/390 312/2/383
f 284/2/366 287/2/365 308/2/393 305/2/396
f 292/2/358 286/2/364 307/2/391 313/2/388
f 288/2/372 283/2/375 304/2/403 309/2/398
f 285/2/356 291/2/355 312/2/383 306/2/382
f 296/2/367 284/2/366 305/2/396 317/2/395
f 301/2/380 303/2/379 324/2/408 322/2/407
f 303/2/378 302/2/377 323/2/406 324/2/405
f 302/2/377 285/2/356 306/2/382 323/2/406
f 283/2/375 301/2/380 322/2/407 304/2/403
f 337/2/409 342/2/410 333/2/411 327/2/412
f 339/2/413 334/2/414 336/2/415 340/2/416
f 340/2/416 336/2/415 335/2/417 341/2/418
f 341/2/418 335/2/417 333/2/411 342/2/410
f 339/2/413 338/2/419 328/2/420 334/2/414
f 329/2/421 326/2/422 338/2/423 339/2/424
f 332/2/425 341/2/426 342/2/427 330/2/428
f 331/2/429 340/2/430 341/2/426 332/2/425
f 329/2/421 339/2/424 340/2/430 331/2/429
f 325/2/431 330/2/428 342/2/427 337/2/432
f 337/2/409 327/2/412 344/2/433 345/2/434
f 325/2/431 337/2/432 345/2/435 343/2/436
f 358/2/437 348/2/438 354/2/439 363/2/440
f 360/2/441 361/2/442 357/2/443 355/2/444
f 361/2/442 362/2/445 356/2/446 357/2/443
f 362/2/445 363/2/440 354/2/439 356/2/446
f 360/2/441 355/2/444 349/2/447 359/2/448
f 350/2/449 360/2/450 359/2/451 347/2/452
f 353/2/453 351/2/454 363/2/455 362/2/456
f 352/2/457 353/2/453 362/2/456 361/2/458
f 350/2/449 352/2/457 361/2/458 360/2/450
f 346/2/459 358/2/460 363/2/455 351/2/454
f 358/2/437 366/2/461 365/2/462 348/2/438
f 346/2/459 364/2/463 366/2/464 358/2/460
f 328/2/420 338/2/419 359/2/448 349/2/447
f 329/2/421 331/2/429 352/2/457 350/2/449
f 336/2/415 334/2/414 355/2/444 357/2/443
f 331/2/429 332/2/425 353/2/453 352/2/457
f 335/2/417 336/2/415 357/2/443 356/2/446
f 332/2/425 330/2/428 351/2/454 353/2/453
f 333/2/411 335/2/417 356/2/446 354/2/439
f 326/2/422 329/2/421 350/2/449 347/2/452
f 334/2/414 328/2/420 349/2/447 355/2/444
f 330/2/428 325/2/431 346/2/459 351/2/454
f 327/2/412 333/2/411 354/2/439 348/2/438
f 338/2/423 326/2/422 347/2/452 359/2/451
f 343/2/436 345/2/435 366/2/464 364/2/463
f 345/2/434 344/2/433 365/2/462 366/2/461
f 344/2/433 327/2/412 348/2/438 365/2/462
f 325/2/431 343/2/436 364/2/463 346/2/459
f 379/2/465 384/2/466 375/2/467 369/2/468
f 381/2/469 376/2/470 378/2/471 382/2/472
f 382/2/472 378/2/471 377/2/473 383/2/474
f 383/2/474 377/2/473 375/2/467 384/2/466
f 381/2/469 380/2/475 370/2/476 376/2/470
f 371/2/477 368/2/478 380/2/479 381/2/480
f 374/2/481 383/2/482 384/2/483 372/2/484
f 373/2/485 382/2/486 383/2/482 374/2/481
f 371/2/477 381/2/480 382/2/486 373/2/485
f 367/2/487 372/2/484 384/2/483 379/2/488
f 379/2/465 369/2/468 386/2/489 387/2/490
f 367/2/487 379/2/488 387/2/491 385/2/492
f 400/2/493 390/2/494 396/2/495 405/2/496
f 402/2/497 403/2/498 399/2/499 397/2/500
f 403/2/498 404/2/501 398/2/502 399/2/499
f 404/2/501 405/2/496 396/2/495 398/2/502
f 402/2/497 397/2/500 391/2/503 401/2/504
f 392/2/505 402/2/506 401/2/507 389/2/508
f 395/2/509 393/2/510 405/2/511 404/2/512
f 394/2/513 395/2/509 404/2/512 403/2/514
f 392/2/505 394/2/513 403/2/514 402/2/506
f 388/2/515 400/2/516 405/2/511 393/2/510
f 400/2/493 408/2/517 407/2/518 390/2/494
f 388/2/515 406/2/519 408/2/520 400/2/516
f 370/2/476 380/2/475 401/2/504 391/2/503
f 371/2/477 373/2/485 394/2/513 392/2/505
f 378/2/471 376/2/470 397/2/500 399/2/499
f 373/2/485 374/2/481 395/2/509 394/2/513
f 377/2/473 378/2/471 399/2/499 398/2/502
f 374/2/481 372/2/484 393/2/510 395/2/509
f 375/2/467 377/2/473 398/2/502 396/2/495
f 368/2/478 371/2/477 392/2/505 389/2/508
f 376/2/470 370/2/476 391/2/503 397/2/500
f 372/2/484 367/2/487 388/2/515 393/2/510
f 369/2/468 375/2/467 396/2/495 390/2/494
f 380/2/479 368/2/478 389/2/508 401/2/507
f 385/2/492 387/2/491 408/2/520 406/2/519
f 387/2/490 386/2/489 407/2/518 408/2/517
f 386/2/489 369/2/468 390/2/494 407/2/518
f 367/2/487 385/2/492 406/2/519 388/2/515
f 421/2/521 426/2/522 417/2/523 411/2/524
f 423/2/525 418/2/526 420/2/527 424/2/528
f 424/2/528 420/2/527 419/2/529 425/2/530
f 425/2/530 419/2/529 417/2/523 426/2/522
f 423/2/525 422/2/531 412/2/532 418/2/526
f 413/2/533 410/2/534 422/2/535 423/2/536
f 416/2/537 425/2/538 426/2/539 414/2/540
f 415/2/541 424/2/542 425/2/538 416/2/537
f 413/2/533 423/2/536 424/2/542 415/2/541
f 409/2/543 414/2/540 426/2/539 421/2/544
f 421/2/521 411/2/524 428/2/545 429/2/546
f 409/2/543 421/2/544 429/2/547 427/2/548
f 442/2/549 432/2/550 438/2/551 447/2/552
f 444/2/553 445/2/554 441/2/555 439/2/556
f 445/2/554 446/2/557 440/2/558 441/2/555
f 446/2/557 447/2/552 438/2/551 440/2/558
f 444/2/553 439/2/556 433/2/559 443/2/560
f 434/2/561 444/2/562 443/2/563 431/2/564
f 437/2/565 435/2/566 447/2/567 446/2/568
f 436/2/569 437/2/565 446/2/568 445/2/570
f 434/2/561 436/2/569 445/2/570 444/2/562
f 430/2/571 442/2/572 447/2/567 435/2/566
f 442/2/549 450/2/573 449/2/574 432/2/550
f 430/2/571 448/2/575 450/2/576 442/2/572
f 412/2/532 422/2/531 443/2/560 433/2/559
f 413/2/533 415/2/541 436/2/569 434/2/561
f 420/2/527 418/2/526 439/2/556 441/2/555
f 415/2/541 416/2/537 437/2/565 436/2/569
f 419/2/529 420/2/527 441/2/555 440/2/558
f 416/2/537 414/2/540 435/2/566 437/2/565
f 417/2/523 419/2/529 440/2/558 438/2/551
f 410/2/534 413/2/533 434/2/561 431/2/564
f 418/2/526 412/2/532 433/2/559 439/2/556
f 414/2/540 409/2/543 430/2/571 435/2/566
f 411/2/524 417/2/523 438/2/551 432/2/550
f 422/2/535 410/2/534 431/2/564 443/2/563
f 427/2/548 429/2/547 450/2/576 448/2/575
f 429/2/546 428/2/545 449/2/574 450/2/573
f 428/2/545 411/2/524 432/2/550 449/2/574
f 409/2/543 427/2/548 448/2/575 430/2/571
f 463/2/577 468/2/578 459/2/579 453/2/580
f 465/2/581 460/2/582 462/2/583 466/2/584
f 466/2/584 462/2/583 461/2/585 467/2/586
f 467/2/586 461/2/585 459/2/579 468/2/578
f 465/2/581 464/2/587 454/2/588 460/2/582
f 455/2/589 452/2/590 464/2/591 465/2/592
f 458/2/593 467/2/594 468/2/595 456/2/596
f 457/2/597 466/2/598 467/2/594 458/2/593
f 455/2/589 465/2/592 466/2/598 457/2/597
f 451/2/599 456/2/596 468/2/595 463/2/600
f 463/2/577 453/2/580 470/2/601 471/2/602
f 451/2/599 463/2/600 471/2/603 469/2/604
f 484/2/605 474/2/606 480/2/607 489/2/608
f 486/2/609 487/2/610 483/2/611 481/2/612
f 487/2/610 488/2/613 482/2/614 483/2/611
f 488/2/613 489/2/608 480/2/607 482/2/614
f 486/2/609 481/2/612 475/2/615 485/2/616
f 476/2/617 486/2/618 485/2/619 473/2/620
f 479/2/621 477/2/622 489/2/623 488/2/624
f 478/2/625 479/2/621 488/2/624 487/2/626
f 476/2/617 478/2/625 487/2/626 486/2/618
f 472/2/627 484/2/628 489/2/623 477/2/622
f 484/2/605 492/2/629 491/2/630 474/2/606
f 472/2/627 490/2/631 492/2/632 484/2/628
f 454/2/588 464/2/587 485/2/616 475/2/615
f 455/2/589 457/2/597 478/2/625 476/2/617
f 462/2/583 460/2/582 481/2/612 483/2/611
f 457/2/597 458/2/593 479/2/621 478/2/625
f 461/2/585 462/2/583 483/2/611 482/2/614
f 458/2/593 456/2/596 477/2/622 479/2/621
f 459/2/579 461/2/585 482/2/614 480/2/607
f 452/2/590 455/2/589 476/2/617 473/2/620
f 460/2/582 454/2/588 475/2/615 481/2/612
f 456/2/596 451/2/599 472/2/627 477/2/622
f 453/2/580 459/2/579 480/2/607 474/2/606
f 464/2/591 452/2/590 473/2/620 485/2/619
f 469/2/604 471/2/603 492/2/632 490/2/631
f 471/2/602 470/2/601 491/2/630 492/2/629
f 470/2/601 453/2/580 474/2/606 491/2/630
f 451/2/599 469/2/604 490/2/631 472/2/627
f 505/2/633 510/2/634 501/2/635 495/2/636
f 507/2/637 502/2/638 504/2/639 508/2/640
f 508/2/640 504/2/639 503/2/641 509/2/642
f 509/2/642 503/2/641 501/2/635 510/2/634
f 507/2/637 506/2/643 496/2/644 502/2/638
f 497/2/645 494/2/646 506/2/647 507/2/648
f 500/2/649 509/2/650 510/2/651 498/2/652
f 499/2/653 508/2/654 509/2/650 500/2/649
f 497/2/645 507/2/648 508/2/654 499/2/653
f 493/2/655 498/2/652 510/2/651 505/2/656
f 505/2/633 495/2/636 512/2/657 513/2/658
f 493/2/655 505/2/656 513/2/659 511/2/660
f 526/2/661 516/2/662 522/2/663 531/2/664
f 528/2/665 529/2/666 525/2/667 523/2/668
f 529/2/666 530/2/669 524/2/670 525/2/667
f 530/2/669 531/2/664 522/2/663 524/2/670
f 528/2/665 523/2/668 517/2/671 527/2/672
f 518/2/673 528/2/674 527/2/675 515/2/676
f 521/2/677 519/2/678 531/2/679 530/2/680
f 520/2/681 521/2/677 530/2/680 529/2/682
f 518/2/673 520/2/681 529/2/682 528/2/674
f 514/2/683 526/2/684 531/2/679 519/2/678
f 526/2/661 534/2/685 533/2/686 516/2/662
f 514/2/683 532/2/687 534/2/688 526/2/684
f 496/2/644 506/2/643 527/2/672 517/2/671
f 497/2/645 499/2/653 520/2/681 518/2/673
f 504/2/639 502/2/638 523/2/668 525/2/667
f 499/2/653 500/2/649 521/2/677 520/2/681
f 503/2/641 504/2/639 525/2/667 524/2/670
f 500/2/649 498/2/652 519/2/678 521/2/677
f 501/2/635 503/2/641 524/2/670 522/2/663
f 494/2/646 497/2/645 518/2/673 515/2/676
f 502/2/638 496/2/644 517/2/671 523/2/668
f 498/2/652 493/2/655 514/2/683 519/2/678
f 495/2/636 501/2/635 522/2/663 516/2/662
f 506/2/647 494/2/646 515/2/676 527/2/675
f 511/2/660 513/2/659 534/2/688 532/2/687
f 513/2/658 512/2/657 533/2/686 534/2/685
f 512/2/657 495/2/636 516/2/662 533/2/686
f 493/2/655 511/2/660 532/2/687 514/2/683
f 547/2/689 552/2/690 543/2/691 537/2/692
f 549/2/693 544/2/694 546/2/695 550/2/696
f 550/2/696 546/2/695 545/2/697 551/2/698
f 551/2/698 545/2/697 543/2/691 552/2/690
f 549/2/693 548/2/699 538/2/700 544/2/694
f 539/2/701 536/2/702 548/2/703 549/2/704
f 542/2/705 551/2/706 552/2/707 540/2/708
f 541/2/709 550/2/710 551/2/706 542/2/705
f 539/2/701 549/2/704 550/2/710 541/2/709
f 535/2/711 540/2/708 552/2/707 547/2/712
f 547/2/689 537/2/692 554/2/713 555/2/714
f 535/2/711 547/2/712 555/2/715 553/2/716
f 568/2/717 558/2/718 564/2/719 573/2/720
f 570/2/721 571/2/722 567/2/723 565/2/724
f 571/2/722 572/2/725 566/2/726 567/2/723
f 572/2/725 573/2/720 564/2/719 566/2/726
f 570/2/721 565/2/724 559/2/727 569/2/728
f 560/2/729 570/2/730 569/2/731 557/2/732
f 563/2/733 561/2/734 573/2/735 572/2/736
f 562/2/737 563/2/733 572/2/736 571/2/738
f 560/2/729 562/2/737 571/2/738 570/2/730
f 556/2/739 568/2/740 573/2/735 561/2/734
f 568/2/717 576/2/741 575/2/742 558/2/718
f 556/2/739 574/2/743 576/2/744 568/2/740
f 538/2/700 548/2/699 569/2/728 559/2/727
f 539/2/701 541/2/709 562/2/737 560/2/729
f 546/2/695 544/2/694 565/2/724 567/2/723
f 541/2/709 542/2/705 563/2/733 562/2/737
f 545/2/697 546/2/695 567/2/723 566/2/726
f 542/2/705 540/2/708 561/2/734 563/2/733
f 543/2/691 545/2/697 566/2/726 564/2/719
f 536/2/702 539/2/701 560/2/729 557/2/732
f 544/2/694 538/2/700 559/2/727 565/2/724
f 540/2/708 535/2/711 556/2/739 561/2/734
f 537/2/692 543/2/691 564/2/719 558/2/718
f 548/2/703 536/2/702 557/2/732 569/2/731
f 553/2/716 555/2/715 576/2/744 574/2/743
f 555/2/714 554/2/713 575/2/742 576/2/741
f 554/2/713 537/2/692 558/2/718 575/2/742
f 535/2/711 553/2/716 574/2/743 556/2/739
