# Blender 4.1.0
# www.blender.org
mtllib palm_s.mtl
o palm_s
v 0.184607 1.937675 -0.777625
v 1.090260 1.049302 -0.638396
v 0.202456 1.933416 -0.848395
v 1.093502 1.050120 -0.652403
v 1.007481 1.228747 -0.531565
v 0.425363 1.843819 -0.637136
v 0.850578 1.460821 -0.498349
v 0.637853 1.686298 -0.536890
v 0.474439 1.856208 -0.849139
v 1.059517 1.241882 -0.756357
v 0.713324 1.705349 -0.862917
v 0.927132 1.480145 -0.829057
v 0.195098 1.933268 -0.816075
v 1.091889 1.049720 -0.645397
v 1.028472 1.189747 -0.649033
v 0.886273 1.436432 -0.668080
v 0.672333 1.661100 -0.704476
v 0.453764 1.811416 -0.742897
v 0.066334 1.901246 -0.826941
v 0.066542 1.906634 -0.856257
v 0.062857 1.919161 -0.839421
v 0.171679 1.870733 -0.774369
v 1.026876 1.021204 -0.641206
v 0.189614 1.882227 -0.852050
v 1.035881 1.023972 -0.680878
v 0.946764 1.195899 -0.538583
v 0.389766 1.784577 -0.630978
v 0.796807 1.417997 -0.507816
v 0.594086 1.632564 -0.540328
v 0.447006 1.799330 -0.877899
v 1.002700 1.210184 -0.780478
v 0.673912 1.652732 -0.885116
v 0.875798 1.437921 -0.848975
v 0.182772 1.875295 -0.814476
v 1.030298 1.022105 -0.661480
v 0.968077 1.159425 -0.664771
v 0.848104 1.402723 -0.678391
v 0.645513 1.615064 -0.712900
v 0.412154 1.745526 -0.757123
v 0.074992 1.865294 -0.832250
v 0.074700 1.870570 -0.861599
v 0.078326 1.852601 -0.849267
v 0.103295 1.919640 -0.982670
v 0.267040 1.060285 -1.858687
v 0.055694 1.918686 -0.985373
v 0.253141 1.058618 -1.859878
v 0.349309 1.253652 -1.796481
v 0.222717 1.849984 -1.229457
v 0.362589 1.488291 -1.653283
v 0.316243 1.706899 -1.446091
v 0.012355 1.824761 -1.247491
v 0.126258 1.226908 -1.815602
v -0.007259 1.668110 -1.473823
v 0.034443 1.448945 -1.681413
v 0.077745 1.921787 -0.982056
v 0.260090 1.059460 -1.859291
v 0.241377 1.195868 -1.799764
v 0.202547 1.433812 -1.673510
v 0.158543 1.652046 -1.465432
v 0.127759 1.816364 -1.239686
v 0.078458 1.885110 -0.857528
v 0.054149 1.885365 -0.854324
v 0.066301 1.885245 -0.855934
v 0.121736 1.863112 -0.965845
v 0.277666 1.035341 -1.796661
v 0.043481 1.860551 -0.972517
v 0.238249 1.031059 -1.799870
v 0.356381 1.223341 -1.736368
v 0.243426 1.795511 -1.195017
v 0.368092 1.447717 -1.599378
v 0.327988 1.656448 -1.402512
v -0.001649 1.766443 -1.216104
v 0.116342 1.194709 -1.756889
v -0.014135 1.615446 -1.431852
v 0.029574 1.407116 -1.628414
v 0.081319 1.860399 -0.971038
v 0.257768 1.032706 -1.797154
v 0.239681 1.166523 -1.738786
v 0.201537 1.402710 -1.624893
v 0.159894 1.608967 -1.427839
v 0.125765 1.737556 -1.198465
v 0.078368 1.854959 -0.863475
v 0.054105 1.855135 -0.859859
v 0.066238 1.855048 -0.861644
v -0.019959 1.923665 -0.674266
v -0.123689 1.002018 0.329246
v 0.038602 1.932081 -0.666177
v -0.108393 1.002693 0.331856
v -0.240395 1.195630 0.242064
v -0.150955 1.842245 -0.406891
v -0.281421 1.442647 0.069220
v -0.248763 1.679707 -0.167945
v 0.080560 1.852459 -0.367375
v 0.005085 1.206461 0.283965
v 0.107270 1.695415 -0.107175
v 0.079724 1.458581 0.130863
v 0.007600 1.922505 -0.666467
v -0.116043 1.002365 0.330560
v -0.113375 1.151692 0.258465
v -0.101660 1.413179 0.096616
v -0.071403 1.649381 -0.141704
v -0.020963 1.807504 -0.378878
v 0.034250 1.889688 -0.806083
v 0.062618 1.894356 -0.807616
v 0.045882 1.910380 -0.811466
v -0.018361 1.862204 -0.689090
v -0.125115 0.970110 0.261564
v 0.066599 1.873443 -0.674840
v -0.081794 0.972501 0.268754
v -0.237216 1.158579 0.177118
v -0.160913 1.777626 -0.443310
v -0.275366 1.394963 0.011857
v -0.248790 1.620629 -0.213889
v 0.108745 1.789875 -0.397206
v 0.026941 1.170395 0.222138
v 0.127732 1.637264 -0.149609
v 0.097192 1.411388 0.075467
v 0.025591 1.866572 -0.679724
v -0.103058 0.970748 0.263981
v -0.100739 1.117193 0.193264
v -0.088844 1.376259 0.057016
v -0.060153 1.599489 -0.168655
v -0.019861 1.732831 -0.424853
v 0.039233 1.855072 -0.797200
v 0.067603 1.859620 -0.799214
v 0.056162 1.838845 -0.793716
v -0.122438 1.932689 -0.889158
v -1.019855 1.019367 -0.980764
v -0.126594 1.937016 -0.833855
v -1.021331 1.019057 -0.966374
v -0.955614 1.209762 -1.083575
v -0.378290 1.838780 -1.004168
v -0.809556 1.450163 -1.118419
v -0.598607 1.680741 -1.089384
v -0.400628 1.834085 -0.786361
v -0.979299 1.204785 -0.852630
v -0.632959 1.673521 -0.754433
v -0.844401 1.442840 -0.778659
v -0.124535 1.934870 -0.861506
v -1.020602 1.019221 -0.973570
v -0.973798 1.178096 -0.952499
v -0.827456 1.403302 -0.949277
v -0.615547 1.633267 -0.922587
v -0.388077 1.809473 -0.889469
v 0.002248 1.897559 -0.858058
v 0.006077 1.901268 -0.824444
v 0.004151 1.899424 -0.841249
v -0.108825 1.864796 -0.897280
v -0.955610 0.993273 -0.988008
v -0.117145 1.870042 -0.816947
v -0.959624 0.992851 -0.947238
v -0.893368 1.178511 -1.086666
v -0.342054 1.781156 -1.019243
v -0.753660 1.408497 -1.118973
v -0.553158 1.628229 -1.095518
v -0.368161 1.776011 -0.765528
v -0.918800 1.173308 -0.838145
v -0.589499 1.620614 -0.741289
v -0.789623 1.400932 -0.768473
v -0.114911 1.866065 -0.855680
v -0.956472 0.992585 -0.967359
v -0.899716 1.134694 -0.959054
v -0.782742 1.379022 -0.944184
v -0.582057 1.596374 -0.918898
v -0.347045 1.732963 -0.890628
v -0.005722 1.855854 -0.853955
v -0.001318 1.859455 -0.820383
v -0.003489 1.857656 -0.837170
v -0.024635 1.999307 -0.731068
v -0.445499 1.824006 0.567747
v 0.047373 1.996848 -0.699024
v -0.430843 1.824770 0.572832
v -0.510102 1.941793 0.366106
v -0.212565 2.090210 -0.492205
v -0.479486 2.047761 0.082541
v -0.370632 2.102616 -0.231550
v 0.009267 2.101773 -0.415248
v -0.274890 1.954052 0.447704
v -0.029491 2.120397 -0.113203
v -0.133447 2.065797 0.202587
v 0.013946 1.996665 -0.711701
v -0.438172 1.824402 0.570291
v -0.397246 1.904704 0.431080
v -0.309489 2.025141 0.161767
v -0.202981 2.078836 -0.153314
v -0.111071 2.065154 -0.427067
v 0.028018 1.886217 -0.802371
v 0.060049 1.886836 -0.799682
v 0.045521 1.897711 -0.813779
v -0.042434 1.933838 -0.702487
v -0.444074 1.759355 0.530076
v 0.040450 1.944047 -0.678536
v -0.402446 1.761793 0.544049
v -0.505554 1.874127 0.334458
v -0.229881 2.017490 -0.488599
v -0.475196 1.975522 0.063458
v -0.375963 2.028131 -0.236505
v 0.028556 2.031289 -0.399093
v -0.252406 1.887411 0.422121
v -0.015187 2.046960 -0.111351
v -0.118225 1.994130 0.187320
v -0.000098 1.939081 -0.687694
v -0.422827 1.759412 0.536500
v -0.382977 1.838182 0.399899
v -0.303431 1.970496 0.150930
v -0.202621 2.020982 -0.147182
v -0.108025 1.980008 -0.420671
v 0.024663 1.859901 -0.772043
v 0.056742 1.860103 -0.769716
v 0.039371 1.848634 -0.758116
v 0.118323 1.984170 -0.774988
v 1.392843 1.900098 -0.493199
v 0.125604 1.989595 -0.824546
v 1.396257 1.900866 -0.507623
v 1.200625 2.002129 -0.414117
v 0.349476 2.090077 -0.617918
v 0.922441 2.086637 -0.417733
v 0.610941 2.119339 -0.492292
v 0.401163 2.101696 -0.836236
v 1.255430 2.014449 -0.645603
v 0.690427 2.137208 -0.828029
v 1.003067 2.104763 -0.758290
v 0.118746 1.987746 -0.801846
v 1.394551 1.900495 -0.500410
v 1.253925 1.968516 -0.527130
v 0.991628 2.072130 -0.583151
v 0.679474 2.103709 -0.655373
v 0.390045 2.079213 -0.716305
v 0.046748 1.872064 -0.817528
v 0.046350 1.872232 -0.843431
v 0.046550 1.872159 -0.830481
v 0.143049 1.926146 -0.758128
v 1.360696 1.836278 -0.490274
v 0.157462 1.935832 -0.839313
v 1.369936 1.838688 -0.531202
v 1.174080 1.935722 -0.414696
v 0.358730 2.021215 -0.600968
v 0.908113 2.016584 -0.419197
v 0.611053 2.048106 -0.485913
v 0.418785 2.035056 -0.855300
v 1.232910 1.949058 -0.663820
v 0.695108 2.067027 -0.840973
v 0.991309 2.035285 -0.770515
v 0.152839 1.931266 -0.799837
v 1.364809 1.836336 -0.511085
v 1.226851 1.903062 -0.537009
v 0.975415 2.013825 -0.590708
v 0.680088 2.043401 -0.659073
v 0.413198 1.988459 -0.724160
v 0.072575 1.852394 -0.816995
v 0.071904 1.852208 -0.842903
v 0.072221 1.852286 -0.829951
v -0.098097 1.996002 -0.794737
v -1.273991 1.274626 -0.214281
v -0.068139 2.003069 -0.737650
v -1.266978 1.274992 -0.198942
v -1.219508 1.464218 -0.388465
v -0.439276 1.974910 -0.748886
v -1.031847 1.683340 -0.549637
v -0.746537 1.870769 -0.681447
v -0.333141 1.980457 -0.516724
v -1.106971 1.470100 -0.142299
v -0.583320 1.879300 -0.324420
v -0.866286 1.691993 -0.187485
v -0.083131 1.999561 -0.766186
v -1.270491 1.274822 -0.206608
v -1.168944 1.413706 -0.259937
v -0.952620 1.645229 -0.360868
v -0.667946 1.831618 -0.495463
v -0.402539 1.939175 -0.618126
v 0.036151 1.928964 -0.822795
v 0.050998 1.939653 -0.803064
v 0.059136 1.925467 -0.814734
v -0.108830 1.915502 -0.798179
v -1.223652 1.223893 -0.253004
v -0.067805 1.925368 -0.713779
v -1.203495 1.225385 -0.209725
v -1.170084 1.408457 -0.420951
v -0.429430 1.898210 -0.773935
v -0.989965 1.618110 -0.574096
v -0.721077 1.796834 -0.703642
v -0.305790 1.905061 -0.503509
v -1.048887 1.414939 -0.156111
v -0.548472 1.805881 -0.326064
v -0.819192 1.627029 -0.200485
v -0.089706 1.919588 -0.753207
v -1.212447 1.223727 -0.231657
v -1.113025 1.359947 -0.284233
v -0.922764 1.597578 -0.376810
v -0.653283 1.773613 -0.504186
v -0.373273 1.845526 -0.634152
v 0.009694 1.855194 -0.802981
v 0.024097 1.867470 -0.777117
v 0.030771 1.853600 -0.790474
v -0.035838 1.992589 -0.896261
v -1.326447 1.824007 -1.312356
v -0.050788 1.999179 -0.838827
v -1.331585 1.824771 -1.297719
v -1.124572 1.941793 -1.376225
v -0.267349 2.090211 -1.075567
v -0.841121 2.047761 -1.344577
v -0.527428 2.102616 -1.234582
v -0.345112 2.101773 -0.854017
v -1.207026 1.954053 -1.141311
v -0.647014 2.120397 -0.893874
v -0.962424 2.065797 -0.998978
v -0.048892 1.993798 -0.870769
v -1.329018 1.824402 -1.305039
v -1.189956 1.904705 -1.263606
v -0.919216 2.024353 -1.179393
v -0.604524 2.078047 -1.071740
v -0.337774 2.067023 -0.959841
v 0.040222 1.884875 -0.832374
v 0.037710 1.885429 -0.803699
v 0.053267 1.897696 -0.816315
v -0.057687 1.933838 -0.904672
v -1.288781 1.759355 -1.310794
v -0.081940 1.944047 -0.821876
v -1.302906 1.761793 -1.269217
v -1.092941 1.874127 -1.371562
v -0.270892 2.017491 -1.092896
v -0.822053 1.975523 -1.340218
v -0.522453 2.028131 -1.239894
v -0.361337 2.031289 -0.834787
v -1.181525 1.887412 -1.118735
v -0.648919 2.046960 -0.879576
v -0.947213 1.994130 -0.983700
v -0.072635 1.939081 -0.862391
v -1.295282 1.759413 -1.289570
v -1.158828 1.838183 -1.249224
v -0.910150 1.970496 -1.168773
v -0.612406 2.020982 -1.066879
v -0.341520 1.979705 -0.967091
v 0.013075 1.861308 -0.835477
v 0.010886 1.861489 -0.806758
v -0.002340 1.848650 -0.822663
v 0.096473 2.008588 -0.667668
v 0.784260 1.242494 0.415567
v 0.157715 2.007445 -0.710032
v 0.798553 1.242171 0.406612
v 0.614791 1.441618 0.385851
v 0.183502 1.981772 -0.336435
v 0.442432 1.671535 0.222638
v 0.284744 1.869737 -0.041475
v 0.399832 1.976894 -0.471979
v 0.844169 1.436446 0.242131
v 0.617424 1.862235 -0.249920
v 0.779887 1.663925 0.011201
v 0.128892 2.004954 -0.683272
v 0.791411 1.242345 0.411096
v 0.732773 1.385290 0.318508
v 0.623822 1.640288 0.135443
v 0.463405 1.837586 -0.127683
v 0.279919 1.949846 -0.396944
v 0.044763 1.930313 -0.793581
v 0.068234 1.932134 -0.817787
v 0.060216 1.941512 -0.807638
v 0.088514 1.929901 -0.658056
v 0.736670 1.194582 0.370324
v 0.167257 1.936002 -0.709688
v 0.776974 1.194135 0.344692
v 0.573228 1.388350 0.340659
v 0.153344 1.906623 -0.343530
v 0.409296 1.608284 0.183798
v 0.255525 1.797433 -0.064401
v 0.405347 1.901329 -0.501423
v 0.820000 1.382940 0.185914
v 0.607356 1.789525 -0.284837
v 0.757431 1.600425 -0.034305
v 0.130766 1.931942 -0.682864
v 0.756338 1.193479 0.356422
v 0.698579 1.333694 0.265821
v 0.594779 1.578589 0.091205
v 0.442937 1.764949 -0.157886
v 0.280273 1.848642 -0.418957
v 0.058325 1.892127 -0.781380
v 0.081435 1.893701 -0.805969
v 0.069860 1.892908 -0.793698
v 0.018818 1.994460 -0.957758
v -0.648087 1.269638 -2.082474
v -0.035255 1.998743 -0.922210
v -0.662659 1.269273 -2.073982
v -0.476990 1.465432 -2.041925
v -0.061565 1.979308 -1.291707
v -0.306815 1.688290 -1.867047
v -0.154919 1.876883 -1.592702
v -0.282119 1.973789 -1.163178
v -0.710848 1.459581 -1.905643
v -0.494095 1.868397 -1.395044
v -0.650860 1.679683 -1.666551
v -0.001676 1.986294 -0.944923
v -0.655377 1.269468 -2.078235
v -0.597786 1.408962 -1.979901
v -0.491274 1.657248 -1.786469
v -0.336632 1.844925 -1.513049
v -0.175295 1.921706 -1.232904
v 0.063776 1.915065 -0.832540
v 0.037241 1.916698 -0.806769
v 0.056101 1.931418 -0.814005
v 0.022500 1.917260 -0.968851
v -0.602598 1.219826 -2.037122
v -0.057748 1.923061 -0.919553
v -0.643694 1.219249 -2.012784
v -0.437595 1.410353 -1.996963
v -0.032655 1.903569 -1.285776
v -0.275774 1.623529 -1.828973
v -0.127411 1.803566 -1.570903
v -0.289574 1.897530 -1.136043
v -0.689187 1.404210 -1.850215
v -0.486112 1.794618 -1.361874
v -0.630707 1.614641 -1.622158
v -0.020484 1.919221 -0.945327
v -0.622707 1.218622 -2.023878
v -0.565970 1.355453 -1.927634
v -0.464475 1.593947 -1.743086
v -0.318104 1.771200 -1.484263
v -0.164037 1.843043 -1.215796
v 0.048776 1.873792 -0.847542
v 0.022620 1.875137 -0.821346
v 0.030207 1.858833 -0.839856
v 0.126614 2.000203 -0.890208
v 0.530991 1.824007 -2.195703
v 0.068960 2.006794 -0.904287
v 0.516277 1.824771 -2.200619
v 0.597901 1.941793 -1.994815
v 0.310221 2.090210 -1.133150
v 0.570537 2.047761 -1.710918
v 0.465291 2.102616 -1.395600
v 0.087522 2.101773 -1.207559
v 0.361769 1.954053 -2.073712
v 0.122816 2.120397 -1.510028
v 0.223145 2.065797 -1.826989
v 0.097787 2.003526 -0.897252
v 0.523635 1.824402 -2.198162
v 0.469062 1.927549 -2.062133
v 0.404092 2.020626 -1.797091
v 0.301203 2.074321 -1.480809
v 0.196532 2.072337 -1.188057
v 0.075181 1.887970 -0.818032
v 0.038749 1.888673 -0.820670
v 0.056963 1.888338 -0.819354
v 0.142511 1.933838 -0.920932
v 0.529998 1.759355 -2.158017
v 0.059359 1.944047 -0.943931
v 0.488213 1.761793 -2.171512
v 0.593716 1.874127 -1.963117
v 0.327495 2.017491 -1.136954
v 0.566466 1.975523 -1.691787
v 0.470678 2.028131 -1.390706
v 0.068050 2.031289 -1.223492
v 0.339580 1.887412 -2.047873
v 0.108491 2.046960 -1.511717
v 0.208099 1.994130 -1.811548
v 0.100009 1.939081 -0.935239
v 0.508678 1.759413 -2.164197
v 0.468006 1.841765 -2.027720
v 0.393710 1.970496 -1.777285
v 0.296324 2.020982 -1.478037
v 0.201121 1.980539 -1.203516
v 0.078599 1.858065 -0.852539
v 0.042116 1.858293 -0.854765
v 0.060352 1.858159 -0.853624
v 0.197618 1.997389 -0.836066
v 1.361796 1.269638 -1.431974
v 0.165395 2.001674 -0.892187
v 1.354199 1.269273 -1.447032
v 1.311000 1.465432 -1.263635
v 0.537090 1.979307 -0.894220
v 1.126175 1.688291 -1.104319
v 0.843167 1.876883 -0.969248
v 0.422098 1.973789 -1.122126
v 1.189072 1.459581 -1.505287
v 0.666328 1.868397 -1.319729
v 0.946798 1.679683 -1.459831
v 0.181519 1.999557 -0.864136
v 1.358004 1.269468 -1.439507
v 1.256376 1.408962 -1.387953
v 1.058526 1.637550 -1.289038
v 0.776276 1.825227 -1.151169
v 0.480294 1.943781 -1.005193
v 0.071661 1.917322 -0.794422
v 0.044790 1.919141 -0.825657
v 0.058231 1.918248 -0.810047
v 0.209750 1.917260 -0.829783
v 1.313783 1.219826 -1.389304
v 0.165383 1.923061 -0.912859
v 1.291968 1.219249 -1.431794
v 1.263743 1.410353 -1.227024
v 0.529425 1.903569 -0.865721
v 1.086298 1.623529 -1.075631
v 0.819749 1.803566 -0.943105
v 0.395462 1.897530 -1.131204
v 1.132439 1.404210 -1.487010
v 0.632738 1.794618 -1.313762
v 0.901270 1.614641 -1.442393
v 0.188861 1.919220 -0.874108
v 1.301775 1.218622 -1.410175
v 1.202284 1.355453 -1.359347
v 1.011950 1.593947 -1.269169
v 0.744769 1.771200 -1.138677
v 0.467047 1.845049 -1.000531
v 0.089349 1.871349 -0.810092
v 0.061980 1.872847 -0.840934
v 0.075634 1.872090 -0.825492
v 0.000000 -0.000000 -0.291419
v 0.206065 0.000000 -0.206065
v 0.291420 0.000000 0.000000
v 0.206065 0.000000 0.206065
v 0.000000 0.000000 0.291420
v -0.206065 -0.000000 0.206065
v -0.291419 0.000000 0.000000
v -0.206065 0.000000 -0.206065
v 0.043924 1.598421 -0.902938
v 0.014212 0.681139 -0.488609
v 0.036930 1.287678 -0.846024
v 0.026055 0.948498 -0.672563
v 0.109191 1.602355 -0.876190
v 0.132856 0.970664 -0.633993
v 0.120977 1.299118 -0.813078
v 0.200634 0.772892 -0.325653
v 0.136226 1.611817 -0.811612
v 0.177100 1.024332 -0.541622
v 0.155792 1.326791 -0.733710
v 0.145941 0.838454 -0.215230
v 0.109192 1.621264 -0.747031
v 0.132818 1.078241 -0.451242
v 0.120968 1.354611 -0.654816
v 0.043924 1.625162 -0.720276
v 0.026141 1.100560 -0.414050
v 0.036952 1.366136 -0.622193
v -0.021348 1.621228 -0.747023
v -0.080586 1.078260 -0.451434
v -0.047079 1.354607 -0.654854
v -0.172227 0.772949 -0.325993
v -0.048383 1.611766 -0.811604
v -0.124998 1.024349 -0.541775
v -0.081936 1.326778 -0.733738
v -0.117664 0.707882 -0.440274
v -0.021346 1.602319 -0.876187
v -0.080775 0.970648 -0.633930
v -0.047125 1.299094 -0.813058
v 0.000000 0.157927 -0.272746
v 0.004186 0.412597 -0.317301
v 0.193682 0.165309 -0.192860
v 0.145967 0.708441 -0.443026
v 0.168416 0.432055 -0.252242
v 0.273908 0.183132 0.000000
v 0.236439 0.478871 -0.094841
v 0.193682 0.200954 0.192861
v 0.168434 0.525345 0.063474
v 0.000000 0.208336 0.272746
v 0.014140 0.864644 -0.162070
v 0.004144 0.544571 0.129168
v -0.193682 0.200954 0.192861
v -0.117670 0.837864 -0.210782
v -0.160122 0.525311 0.063564
v -0.273908 0.183132 0.000000
v -0.228064 0.478842 -0.094769
v -0.193682 0.165309 -0.192860
v -0.160030 0.432068 -0.252269
v 0.047903 1.843177 -0.885078
v 0.049135 1.906033 -0.841865
v 0.048536 1.878934 -0.868244
v 0.068808 1.906033 -0.833716
v 0.098540 1.843172 -0.864104
v 0.087060 1.878932 -0.852287
v 0.076957 1.906033 -0.814043
v 0.119515 1.843173 -0.813467
v 0.103018 1.878932 -0.813763
v 0.068808 1.906033 -0.794370
v 0.098540 1.843178 -0.762831
v 0.087060 1.878934 -0.775239
v 0.049135 1.906033 -0.786221
v 0.047904 1.843185 -0.741857
v 0.048536 1.878936 -0.759282
v 0.029462 1.906033 -0.794370
v -0.002732 1.843191 -0.762832
v 0.010013 1.878938 -0.775239
v 0.021313 1.906033 -0.814043
v -0.023706 1.843190 -0.813468
v -0.005944 1.878938 -0.813763
v 0.029462 1.906033 -0.833716
v -0.002733 1.843185 -0.864104
v 0.010012 1.878936 -0.852287
vn 0.0928 0.9947 0.0435
vn 0.4082 0.8356 0.3677
vn 0.3683 0.8433 -0.3913
vn 0.1104 0.8230 -0.5572
vn 0.8077 0.4311 0.4023
vn 0.9126 0.1963 -0.3586
vn 0.7744 0.4730 -0.4201
vn 0.7188 0.5864 0.3735
vn 0.5819 0.6945 -0.4231
vn 0.5804 0.7275 0.3660
vn 0.8728 -0.3739 0.3138
vn 0.9187 -0.3833 -0.0949
vn 0.6585 0.1206 0.7429
vn 0.8033 -0.4140 0.4282
vn 0.9292 -0.3662 0.0501
vn 0.8892 0.4554 0.0447
vn 0.3166 0.6274 0.7114
vn 0.6626 0.7489 0.0098
vn 0.5214 0.8505 -0.0695
vn 0.1214 0.7905 0.6003
vn 0.4984 0.4024 0.7679
vn 0.7942 0.6056 0.0499
vn -0.1745 0.8011 0.5726
vn 0.1118 0.9925 0.0497
vn -0.7141 0.3408 -0.6115
vn -0.5447 0.7947 -0.2680
vn -0.6719 0.7204 0.1720
vn -0.8606 0.2609 0.4373
vn -0.0843 -0.8960 -0.4360
vn -0.0230 -0.4036 -0.9147
vn -0.1863 -0.3113 -0.9318
vn -0.4079 -0.8293 -0.3819
vn -0.8308 -0.4194 -0.3658
vn -0.7597 -0.5794 -0.2952
vn -0.2274 -0.3745 -0.8989
vn -0.1717 -0.4417 -0.8806
vn -0.5857 -0.7514 -0.3040
vn -0.2019 -0.3321 -0.9214
vn -0.1031 -0.7891 -0.6056
vn -0.3302 -0.9059 -0.2652
vn -0.5208 -0.5429 0.6588
vn -0.8944 -0.4390 -0.0851
vn -0.3800 -0.9247 -0.0204
vn -0.3279 -0.8598 0.3914
vn -0.5777 -0.4284 0.6948
vn -0.5942 -0.3840 0.7067
vn -0.5096 -0.8587 0.0540
vn -0.6398 -0.7654 -0.0693
vn -0.5892 -0.4662 0.6599
vn -0.7969 -0.5889 -0.1348
vn -0.4809 -0.5198 0.7061
vn -0.2024 -0.9708 0.1285
vn -0.1763 -0.8959 -0.4078
vn -0.5569 -0.4681 -0.6862
vn -0.7076 -0.5764 0.4089
vn -0.4011 -0.9092 0.1118
vn -0.0176 0.9986 -0.0498
vn 0.0864 0.8744 -0.4775
vn -0.5920 0.7402 -0.3187
vn -0.5570 0.8300 -0.0288
vn 0.1943 0.4535 -0.8698
vn -0.5173 0.0858 -0.8515
vn -0.6113 0.3538 -0.7079
vn 0.1316 0.6010 -0.7884
vn -0.6316 0.5743 -0.5208
vn 0.1019 0.7514 -0.6519
vn 0.2507 -0.3502 -0.9025
vn -0.1525 -0.4308 -0.8895
vn 0.6209 0.2113 -0.7549
vn 0.3788 -0.3674 -0.8494
vn -0.0155 -0.3898 -0.9208
vn -0.1456 0.4163 -0.8975
vn 0.5580 0.7177 -0.4167
vn -0.1674 0.7187 -0.6749
vn -0.2050 0.8412 -0.5003
vn 0.4596 0.8647 -0.2025
vn 0.6222 0.5011 -0.6015
vn -0.1333 0.5694 -0.8112
vn 0.4283 0.8992 0.0889
vn -0.0541 0.9984 -0.0161
vn -0.5469 0.4700 0.6928
vn 0.0177 0.5760 0.8173
vn 0.1435 0.4698 0.8711
vn 0.5013 0.5059 0.7020
vn -0.1155 -0.9721 0.2044
vn -0.8392 -0.5072 0.1964
vn -0.8459 -0.4216 0.3266
vn -0.1675 -0.8656 0.4720
vn -0.1691 -0.4415 0.8812
vn -0.0822 -0.5898 0.8033
vn -0.7799 -0.5124 0.3594
vn -0.7580 -0.5777 0.3028
vn -0.0832 -0.7672 0.6360
vn -0.8122 -0.4756 0.3377
vn -0.4388 -0.8757 0.2013
vn -0.0553 -0.9236 0.3793
vn 0.8087 -0.4014 0.4301
vn 0.1168 -0.4104 0.9044
vn 0.1935 -0.8985 0.3939
vn 0.5765 -0.7667 0.2825
vn 0.8309 -0.2805 0.4806
vn 0.8388 -0.2232 0.4967
vn 0.2663 -0.8182 0.5095
vn 0.1516 -0.7394 0.6560
vn 0.8059 -0.3228 0.4964
vn 0.0810 -0.5704 0.8174
vn 0.8231 -0.3826 0.4196
vn 0.1812 -0.9607 0.2103
vn 0.0772 -0.8316 0.5500
vn -0.5515 -0.5857 0.5940
vn 0.5553 -0.6004 0.5755
vn 0.1298 -0.7205 0.6812
vn 0.1650 -0.9796 -0.1150
vn -0.4374 -0.8972 -0.0602
vn -0.3872 -0.8644 -0.3208
vn 0.3624 -0.8370 -0.4100
vn 0.3472 -0.4572 -0.8188
vn 0.3202 -0.6101 -0.7247
vn -0.4725 -0.4820 -0.7378
vn -0.4140 -0.2099 -0.8857
vn 0.3209 -0.7469 -0.5824
vn -0.4670 -0.7007 -0.5394
vn -0.1406 0.3639 -0.9207
vn 0.2698 0.3479 -0.8979
vn 0.7005 -0.1511 -0.6974
vn -0.0165 -0.4769 -0.8788
vn 0.0033 0.3439 -0.9390
vn 0.3888 0.3873 -0.8360
vn 0.6818 -0.6458 -0.3435
vn 0.5832 -0.8021 -0.1286
vn -0.0974 -0.8703 -0.4828
vn -0.0408 -0.7626 -0.6456
vn 0.7288 -0.4301 -0.5328
vn -0.0125 -0.6247 -0.7808
vn 0.6430 -0.7391 0.2006
vn 0.1403 -0.9879 -0.0655
vn -0.1331 -0.8525 0.5056
vn -0.5030 -0.4007 0.7658
vn 0.5224 -0.1934 0.8305
vn 0.3728 -0.6509 0.6613
vn -0.4380 0.8943 0.0910
vn -0.3498 0.8432 0.4083
vn -0.9305 0.2818 0.2339
vn -0.9549 0.2908 0.0591
vn -0.3102 0.4451 0.8400
vn -0.8614 0.4621 0.2109
vn -0.8776 0.3967 0.2691
vn -0.2410 0.6021 0.7612
vn -0.9028 0.3537 0.2446
vn -0.2583 0.7701 0.5832
vn -0.2298 0.9180 0.3231
vn -0.5846 0.8026 0.1185
vn 0.6970 0.5421 0.4694
vn 0.4247 0.8595 0.2846
vn 0.0178 0.9334 0.3584
vn -0.0260 0.4609 0.8871
vn 0.7340 0.4282 0.5271
vn -0.0191 0.7813 0.6239
vn 0.0966 0.8693 0.4847
vn 0.7439 0.3901 0.5427
vn 0.7007 0.4668 0.5395
vn -0.0785 0.6093 0.7890
vn 0.7284 0.5314 0.4325
vn 0.1736 0.9672 0.1854
vn -0.6697 0.3877 0.6334
vn -0.4246 0.8950 0.1371
vn 0.1840 0.9252 0.3320
vn 0.4521 0.5673 0.6883
vn 0.0754 -0.9828 0.1683
vn 0.0413 -0.8921 -0.4499
vn 0.3494 -0.7966 -0.4933
vn 0.4896 -0.8382 0.2404
vn 0.9040 -0.3969 0.1588
vn 0.7729 -0.5975 0.2135
vn 0.7190 -0.4199 -0.5538
vn 0.8475 -0.1305 -0.5145
vn 0.6477 -0.7233 0.2396
vn 0.5447 -0.6404 -0.5415
vn 0.8644 0.4381 -0.2467
vn 0.8873 0.4454 0.1193
vn 0.7237 -0.1428 0.6752
vn 0.9168 -0.3989 0.0202
vn 0.9093 0.4089 0.0771
vn 0.7990 0.4280 0.4224
vn 0.4242 -0.6626 0.6173
vn 0.2162 -0.8097 0.5455
vn 0.5266 -0.8375 -0.1458
vn 0.6862 -0.7158 -0.1295
vn 0.5905 -0.4465 0.6722
vn 0.8027 -0.5924 -0.0692
vn -0.1003 -0.8480 0.5204
vn 0.0577 -0.9981 -0.0228
vn -0.8146 -0.5666 0.1238
vn -0.7000 -0.5109 -0.4990
vn -0.7290 -0.4359 0.5277
vn -0.8787 -0.4607 0.1250
vn -0.1875 0.9573 -0.2200
vn -0.4740 0.8394 -0.2659
vn -0.3118 0.3409 -0.8869
vn -0.1563 0.4407 -0.8840
vn -0.8863 0.4109 -0.2137
vn -0.2965 0.5001 -0.8136
vn -0.3490 0.4318 -0.8317
vn -0.8050 0.5741 -0.1494
vn -0.3249 0.3903 -0.8615
vn -0.6389 0.7500 -0.1712
vn -0.3885 0.9107 -0.1400
vn -0.2070 0.8282 -0.5208
vn -0.4514 0.4780 0.7535
vn -0.3069 0.8196 0.4838
vn -0.4167 0.9055 0.0797
vn -0.9126 0.4069 0.0412
vn -0.4972 0.3567 0.7909
vn -0.6632 0.7454 0.0675
vn -0.5198 0.8357 0.1770
vn -0.5104 0.3176 0.7991
vn -0.5133 0.3983 0.7602
vn -0.8211 0.5707 0.0053
vn -0.4074 0.4978 0.7656
vn -0.1946 0.9774 0.0828
vn -0.5554 0.5549 -0.6194
vn -0.5335 0.8457 -0.0153
vn -0.6728 0.7383 0.0465
vn -0.5475 0.6862 0.4790
vn 0.1629 0.8559 -0.4907
vn -0.2097 0.9559 -0.2058
vn 0.5344 0.8388 -0.1040
vn 0.7103 0.6498 -0.2707
vn -0.3584 0.8705 0.3373
vn 0.3255 0.6439 0.6924
vn 0.4543 0.7763 0.4369
vn -0.2908 0.9390 0.1837
vn 0.5182 0.8406 0.1577
vn -0.2435 0.9699 -0.0059
vn -0.4483 0.2529 0.8574
vn -0.0554 0.2185 0.9743
vn -0.7456 0.5796 0.3288
vn -0.5633 0.1952 0.8028
vn -0.1939 0.2573 0.9467
vn -0.0106 0.8906 0.4547
vn -0.5823 0.7810 -0.2258
vn 0.1022 0.9883 0.1135
vn 0.2113 0.9765 -0.0431
vn -0.4253 0.7826 -0.4547
vn -0.6984 0.7148 0.0369
vn 0.0231 0.9559 0.2928
vn -0.3747 0.6142 -0.6945
vn 0.1550 0.8661 -0.4753
vn 0.7199 -0.2257 -0.6564
vn 0.4697 0.2818 -0.8366
vn 0.0343 0.2058 -0.9780
vn -0.3085 -0.2373 -0.9212
vn 0.2400 -0.8236 0.5138
vn 0.8069 -0.4568 0.3745
vn 0.8551 -0.4808 0.1940
vn 0.2248 -0.9526 0.2052
vn 0.3270 -0.8699 -0.3692
vn 0.2190 -0.9470 -0.2349
vn 0.8125 -0.5511 0.1903
vn 0.7763 -0.5698 0.2695
vn 0.1783 -0.9840 0.0037
vn 0.8416 -0.5052 0.1912
vn 0.4294 -0.7715 0.4696
vn 0.0893 -0.9530 0.2895
vn -0.7200 -0.6525 -0.2363
vn 0.0539 -0.8859 -0.4607
vn -0.1498 -0.9650 0.2153
vn -0.5409 -0.8283 0.1458
vn -0.7266 -0.5893 -0.3531
vn -0.7276 -0.5619 -0.3935
vn -0.1988 -0.9782 0.0600
vn -0.0494 -0.9960 -0.0750
vn -0.6999 -0.6309 -0.3349
vn 0.0633 -0.9553 -0.2889
vn -0.7641 -0.6044 -0.2257
vn -0.3174 -0.8783 0.3575
vn 0.2192 -0.8737 0.4343
vn 0.6090 -0.7907 -0.0622
vn -0.4702 -0.8214 -0.3229
vn -0.2737 -0.9475 0.1654
vn -0.6246 0.7809 -0.0067
vn -0.2339 0.9608 0.1488
vn -0.2021 0.8139 -0.5447
vn -0.4801 0.6871 -0.5453
vn 0.3272 0.8953 0.3024
vn 0.6213 0.6691 -0.4078
vn 0.3451 0.7829 -0.5176
vn 0.1744 0.9573 0.2307
vn 0.0616 0.8263 -0.5598
vn -0.0242 0.9824 0.1852
vn 0.8801 0.3111 0.3586
vn 0.9600 0.2767 -0.0435
vn 0.3646 0.6020 0.7104
vn 0.8407 0.2524 0.4791
vn 0.9437 0.3163 0.0966
vn 0.4028 0.9147 -0.0317
vn -0.2171 0.7633 0.6085
vn 0.0386 0.9961 -0.0794
vn -0.1689 0.9760 -0.1378
vn -0.4650 0.7406 0.4851
vn 0.0581 0.7176 0.6941
vn 0.2360 0.9713 -0.0294
vn -0.7014 0.5772 0.4183
vn -0.6462 0.7617 -0.0471
vn -0.7776 -0.0581 -0.6261
vn -0.9907 -0.1091 -0.0807
vn -0.9714 -0.2347 0.0370
vn -0.9018 -0.1269 0.4131
vn 0.5041 -0.8515 -0.1444
vn 0.2659 -0.4368 -0.8593
vn 0.1131 -0.4580 -0.8817
vn 0.2394 -0.9436 -0.2285
vn -0.3459 -0.8959 -0.2787
vn -0.1973 -0.9630 -0.1836
vn 0.1431 -0.5532 -0.8207
vn 0.2265 -0.5665 -0.7923
vn 0.0447 -0.9853 -0.1647
vn 0.1377 -0.5086 -0.8499
vn 0.4713 -0.7498 -0.4644
vn 0.3367 -0.9356 -0.1061
vn -0.1249 -0.6524 0.7475
vn -0.4092 -0.9124 0.0023
vn 0.2870 -0.9478 0.1392
vn 0.2479 -0.8085 0.5337
vn -0.2447 -0.5972 0.7638
vn -0.2954 -0.5656 0.7699
vn 0.1414 -0.9700 0.1975
vn -0.0095 -0.9978 0.0660
vn -0.2260 -0.6371 0.7369
vn -0.2352 -0.9717 -0.0232
vn -0.1309 -0.6327 0.7632
vn 0.4657 -0.8723 0.1494
vn 0.1370 -0.9906 0.0048
vn -0.0027 -0.7819 -0.6234
vn -0.0781 -0.8753 0.4771
vn -0.0388 -0.9984 0.0413
vn -0.0003 0.9523 -0.3051
vn -0.3400 0.9338 -0.1113
vn 0.1533 0.8743 0.4606
vn 0.3776 0.8881 0.2620
vn -0.7448 0.6568 0.1174
vn -0.4384 0.3888 0.8103
vn -0.2266 0.6158 0.7546
vn -0.6222 0.7799 0.0680
vn -0.0219 0.7771 0.6290
vn -0.4801 0.8772 -0.0112
vn -0.9494 -0.1111 0.2938
vn -0.7460 -0.1463 0.6496
vn -0.9109 0.3526 -0.2144
vn -0.9739 -0.1567 0.1640
vn -0.8352 -0.1138 0.5381
vn -0.5880 0.6679 0.4563
vn -0.5043 0.7478 -0.4318
vn -0.3256 0.8873 0.3267
vn -0.1614 0.9499 0.2678
vn -0.2540 0.8352 -0.4878
vn -0.7304 0.5868 -0.3495
vn -0.4767 0.7883 0.3889
vn 0.0014 0.7735 -0.6338
vn 0.1638 0.9823 -0.0912
vn 0.7164 0.6574 0.2336
vn 0.8774 0.1714 0.4481
vn 0.4513 0.0241 -0.8921
vn 0.2740 0.3313 -0.9028
vn 0.0203 -0.9493 0.3137
vn 0.4687 -0.4212 0.7764
vn 0.6261 -0.4018 0.6682
vn 0.3279 -0.9348 0.1362
vn 0.7441 -0.6473 -0.1653
vn 0.6069 -0.7769 -0.1674
vn 0.6078 -0.5011 0.6160
vn 0.5372 -0.5500 0.6394
vn 0.4348 -0.8996 -0.0414
vn 0.6116 -0.4551 0.6471
vn 0.2333 -0.8420 0.4864
vn 0.1765 -0.9804 0.0881
vn -0.1291 -0.5935 -0.7944
vn 0.6223 -0.6563 -0.4267
vn 0.0654 -0.9885 -0.1364
vn -0.2006 -0.8748 -0.4410
vn -0.0782 -0.4938 -0.8661
vn -0.0622 -0.4575 -0.8870
vn 0.1365 -0.9498 -0.2814
vn 0.3326 -0.9053 -0.2643
vn -0.0577 -0.5367 -0.8418
vn 0.5384 -0.7806 -0.3174
vn -0.1860 -0.5825 -0.7913
vn -0.1804 -0.9832 0.0258
vn 0.5357 -0.4873 0.6896
vn 0.3617 -0.5060 0.7831
vn -0.2020 -0.8076 -0.5541
vn 0.1239 -0.7768 -0.6174
vn 0.4773 0.8786 0.0149
vn 0.2048 0.9478 -0.2445
vn 0.1255 0.8562 0.5011
vn 0.3430 0.7297 0.5915
vn -0.3360 0.8707 -0.3591
vn -0.6938 0.6436 0.3232
vn -0.4389 0.7760 0.4531
vn -0.1827 0.9393 -0.2903
vn -0.1581 0.8412 0.5171
vn 0.0071 0.9695 -0.2451
vn -0.8557 0.2529 -0.4514
vn -0.9741 0.2185 -0.0589
vn -0.3262 0.5812 -0.7455
vn -0.8008 0.1952 -0.5663
vn -0.9460 0.2573 -0.1973
vn -0.4546 0.8907 -0.0101
vn 0.2253 0.7805 -0.5831
vn -0.1156 0.9882 0.1007
vn 0.0621 0.9781 0.1988
vn 0.4624 0.7767 -0.4277
vn -0.0348 0.7169 -0.6963
vn -0.2939 0.9554 0.0281
vn 0.7076 0.5418 -0.4536
vn 0.5164 0.8550 0.0472
vn 0.7260 -0.1537 0.6703
vn 0.8437 0.3947 0.3637
vn 0.9721 0.1835 -0.1459
vn 0.8929 -0.2739 -0.3574
vn -0.5108 -0.8183 0.2637
vn -0.3225 -0.3510 0.8791
vn -0.1708 -0.4417 0.8808
vn -0.2068 -0.9508 0.2309
vn 0.3680 -0.8699 0.3283
vn 0.2341 -0.9470 0.2199
vn -0.1932 -0.5511 0.8118
vn -0.2724 -0.5698 0.7753
vn -0.0052 -0.9837 0.1799
vn -0.1952 -0.5041 0.8413
vn -0.4711 -0.7715 0.4277
vn -0.2899 -0.9530 0.0882
vn 0.2390 -0.6525 -0.7192
vn 0.4605 -0.8859 0.0555
vn -0.2147 -0.9650 -0.1505
vn -0.1439 -0.8283 -0.5414
vn 0.3559 -0.5895 -0.7251
vn 0.3914 -0.5665 -0.7252
vn -0.0602 -0.9784 -0.1976
vn 0.0747 -0.9960 -0.0492
vn 0.3374 -0.6309 -0.6986
vn 0.2887 -0.9553 0.0644
vn 0.2219 -0.6200 -0.7525
vn -0.3385 -0.8805 -0.3319
vn -0.4709 -0.8440 0.2567
vn 0.1524 -0.7349 0.6608
vn 0.3478 -0.8189 -0.4566
vn -0.1947 -0.9292 -0.3140
vn -0.1322 0.9899 -0.0521
vn 0.0171 0.9581 0.2861
vn 0.5033 0.8317 -0.2344
vn 0.3256 0.8084 -0.4903
vn 0.2832 0.6284 0.7245
vn 0.8947 0.3157 0.3159
vn 0.8334 0.5433 0.1011
vn 0.2847 0.7579 0.5870
vn 0.6845 0.7234 -0.0906
vn 0.1758 0.8865 0.4281
vn 0.4086 -0.1402 0.9019
vn 0.7325 -0.1907 0.6535
vn -0.0950 0.3277 0.9400
vn 0.2808 -0.1794 0.9428
vn 0.6354 -0.1538 0.7567
vn 0.5463 0.6256 0.5569
vn -0.3579 0.7475 0.5595
vn 0.3402 0.8822 0.3256
vn 0.3027 0.9461 0.1154
vn -0.4170 0.8518 0.3169
vn -0.2557 0.5671 0.7830
vn 0.4273 0.7548 0.4976
vn -0.5870 0.8077 0.0562
vn -0.0294 0.9862 -0.1630
vn -0.2395 0.1381 -0.9610
vn -0.5307 0.6246 -0.5730
vn -0.5694 0.4946 -0.6566
vn -0.8946 0.1892 -0.4047
vn 0.1828 -0.9792 -0.0884
vn 0.6365 -0.5220 -0.5678
vn 0.5561 -0.4409 -0.7046
vn 0.0410 -0.9363 -0.3487
vn -0.2950 -0.6268 -0.7212
vn -0.2861 -0.7581 -0.5860
vn 0.5041 -0.5232 -0.6872
vn 0.5339 -0.5743 -0.6206
vn -0.1461 -0.8896 -0.4327
vn 0.5365 -0.4790 -0.6948
vn 0.4064 -0.8625 -0.3016
vn 0.0121 -0.9809 -0.1943
vn -0.8012 -0.5535 0.2272
vn -0.5384 -0.6241 -0.5663
vn -0.1961 -0.9790 -0.0549
vn -0.4571 -0.8537 0.2496
vn -0.8735 -0.4496 0.1867
vn -0.8957 -0.4095 0.1731
vn -0.3456 -0.9324 -0.1062
vn -0.3529 -0.8853 -0.3028
vn -0.8545 -0.4933 0.1630
vn -0.4259 -0.7551 -0.4984
vn -0.7919 -0.5566 0.2511
vn -0.0645 -0.9931 0.0980
vn -0.2695 -0.9472 -0.1737
vn 0.1513 -0.7316 -0.6647
vn -0.6146 -0.7876 -0.0449
vn -0.3079 -0.8458 -0.4357
vn 0.2149 0.9764 0.0211
vn 0.1089 0.9346 -0.3385
vn -0.4453 0.8705 0.2096
vn -0.2832 0.8644 0.4155
vn -0.2517 0.6521 -0.7151
vn -0.8800 0.3370 -0.3347
vn -0.8224 0.5577 -0.1118
vn -0.2558 0.7777 -0.5742
vn -0.6618 0.7446 0.0869
vn -0.1151 0.9020 -0.4160
vn -0.3817 -0.1095 -0.9178
vn -0.7140 -0.1622 -0.6811
vn 0.1290 0.3520 -0.9271
vn -0.2532 -0.1494 -0.9558
vn -0.6132 -0.1239 -0.7802
vn -0.5200 0.6484 -0.5560
vn 0.3773 0.7686 -0.5166
vn -0.3370 0.8969 -0.2864
vn -0.3794 0.9239 -0.0492
vn 0.4008 0.8799 -0.2553
vn 0.2879 0.5847 -0.7585
vn -0.4012 0.7742 -0.4895
vn 0.6076 0.7917 -0.0635
vn 0.0793 0.9824 0.1690
vn 0.1341 0.1582 0.9782
vn 0.4371 0.6240 0.6478
vn 0.7256 0.4531 0.5179
vn 0.9365 0.0816 0.3411
vn -0.3239 -0.9397 0.1095
vn -0.7166 -0.4279 0.5508
vn -0.5888 -0.4305 0.6840
vn -0.0715 -0.9428 0.3257
vn 0.2636 -0.6505 0.7123
vn 0.2572 -0.7780 0.5732
vn -0.5325 -0.5346 0.6562
vn -0.5609 -0.5835 0.5873
vn 0.1173 -0.9034 0.4125
vn -0.5662 -0.4894 0.6632
vn -0.4273 -0.8645 0.2645
vn -0.0314 -0.9856 0.1663
vn 0.8005 -0.5584 -0.2174
vn 0.5118 -0.6470 0.5652
vn 0.1811 -0.9829 0.0336
vn 0.4532 -0.8530 -0.2589
vn 0.8729 -0.4560 -0.1732
vn 0.8934 -0.4201 -0.1590
vn 0.3352 -0.9380 0.0884
vn 0.3327 -0.8984 0.2866
vn 0.8525 -0.5007 -0.1500
vn 0.3998 -0.7745 0.4902
vn 0.7989 -0.5359 -0.2731
vn 0.1623 -0.9659 -0.2019
vn -0.2089 -0.9652 0.1576
vn -0.1744 -0.6272 0.7591
vn 0.7222 -0.6896 0.0538
vn 0.2960 -0.9551 -0.0079
vn 0.0421 0.8190 0.5723
vn 0.2069 0.9608 0.1845
vn -0.5273 0.8438 0.1003
vn -0.5536 0.7284 0.4036
vn 0.2629 0.8701 -0.4169
vn -0.3664 0.6277 -0.6868
vn -0.4677 0.7761 -0.4231
vn 0.2648 0.9467 -0.1834
vn -0.5174 0.8417 -0.1541
vn 0.2504 0.9681 -0.0059
vn 0.3374 0.1975 -0.9204
vn -0.0241 0.1902 -0.9814
vn 0.7683 0.5573 -0.3149
vn 0.6143 0.1558 -0.7736
vn 0.2952 0.2399 -0.9248
vn 0.1298 0.8800 -0.4569
vn 0.5864 0.7812 0.2143
vn -0.1011 0.9872 -0.1236
vn -0.1625 0.9844 0.0682
vn 0.4587 0.7686 0.4458
vn 0.6996 0.7139 -0.0307
vn -0.0044 0.9619 -0.2734
vn 0.3720 0.6033 0.7055
vn -0.1493 0.8206 0.5516
vn -0.6825 -0.0292 0.7303
vn -0.1042 -0.0580 0.9929
vn -0.1000 -0.1809 0.9784
vn 0.3226 -0.1092 0.9402
vn -0.1162 -0.8680 -0.4828
vn -0.8284 -0.4404 -0.3462
vn -0.8730 -0.4580 -0.1677
vn -0.2287 -0.9521 -0.2029
vn -0.3112 -0.8700 0.3826
vn -0.2114 -0.9483 0.2366
vn -0.8134 -0.5526 -0.1815
vn -0.7769 -0.5740 -0.2587
vn -0.1786 -0.9839 -0.0014
vn -0.8438 -0.5050 -0.1817
vn -0.4304 -0.7776 -0.4584
vn -0.0809 -0.9558 -0.2828
vn 0.7184 -0.6570 0.2286
vn -0.0682 -0.8838 0.4629
vn 0.1272 -0.9698 -0.2082
vn 0.5288 -0.8356 -0.1489
vn 0.7299 -0.5900 0.3452
vn 0.7301 -0.5675 0.3807
vn 0.1939 -0.9789 -0.0652
vn 0.0489 -0.9960 0.0742
vn 0.7028 -0.6326 0.3255
vn -0.0641 -0.9561 0.2860
vn 0.7409 -0.6455 0.1857
vn 0.1802 -0.8891 -0.4208
vn 0.0055 -0.9945 -0.1043
vn -0.6269 -0.7775 -0.0495
vn 0.4624 -0.8793 0.1145
vn 0.0258 -0.9964 0.0810
vn -0.0856 0.9701 0.2270
vn 0.3069 0.9502 0.0545
vn -0.1857 0.8474 -0.4974
vn -0.4288 0.8566 -0.2871
vn 0.7290 0.6585 -0.1872
vn 0.3955 0.3515 -0.8486
vn 0.1780 0.5795 -0.7953
vn 0.6054 0.7801 -0.1581
vn -0.0236 0.7481 -0.6632
vn 0.4587 0.8863 -0.0639
vn 0.9391 -0.1095 -0.3256
vn 0.7229 -0.1622 -0.6716
vn 0.9144 0.3671 0.1709
vn 0.9693 -0.1494 -0.1951
vn 0.8157 -0.1239 -0.5650
vn 0.5685 0.6539 -0.4993
vn 0.5040 0.7734 0.3845
vn 0.3048 0.8779 -0.3693
vn 0.1219 0.9439 -0.3069
vn 0.2628 0.8582 0.4409
vn 0.7334 0.6070 0.3062
vn 0.4703 0.7733 -0.4252
vn -0.0096 0.8073 0.5900
vn -0.2172 0.9740 0.0638
vn -0.9592 0.2825 0.0116
vn -0.7275 0.3239 0.6048
vn -0.7525 0.2035 0.6264
vn -0.4063 0.2321 0.8837
vn -0.0313 -0.9767 -0.2125
vn -0.4908 -0.4900 -0.7204
vn -0.6449 -0.4381 -0.6263
vn -0.3175 -0.9444 -0.0855
vn -0.7269 -0.6505 0.2201
vn -0.5877 -0.7780 0.2222
vn -0.6229 -0.5346 -0.5711
vn -0.5524 -0.5835 -0.5953
vn -0.4186 -0.9032 0.0947
vn -0.6286 -0.4900 -0.6039
vn -0.2383 -0.8646 -0.4425
vn -0.1641 -0.9856 -0.0414
vn 0.1688 -0.5584 0.8122
vn -0.5950 -0.6470 0.4767
vn -0.0445 -0.9829 0.1788
vn 0.2311 -0.8530 0.4680
vn 0.1189 -0.4566 0.8817
vn 0.1029 -0.4202 0.9016
vn -0.1104 -0.9397 0.3237
vn -0.3080 -0.8983 0.3133
vn 0.0983 -0.5007 0.8600
vn -0.5134 -0.7745 0.3695
vn 0.2148 -0.5656 0.7962
vn 0.1366 -0.9893 0.0510
vn -0.2220 -0.9621 0.1583
vn -0.6392 -0.7070 -0.3025
vn -0.0039 -0.7988 0.6016
vn -0.3285 -0.8962 0.2981
vn 0.7001 0.1073 -0.7060
vn 0.7246 0.0134 -0.6891
vn 0.9933 0.1131 0.0233
vn 0.9953 0.0964 -0.0035
vn 0.7049 0.0909 0.7035
vn 0.6860 0.2036 0.6985
vn -0.0012 0.2410 0.9705
vn -0.0000 0.0901 0.9959
vn -0.6870 0.2107 0.6954
vn -0.7049 0.0909 0.7035
vn -0.9919 0.1256 0.0208
vn -0.9953 0.0964 -0.0035
vn -0.7251 0.0246 -0.6882
vn -0.7001 0.1073 -0.7060
vn -0.6876 -0.0032 -0.7261
vn -0.6800 0.2572 -0.6867
vn 0.0008 0.2437 -0.9699
vn 0.0010 -0.0563 -0.9984
vn -0.0019 -0.0277 -0.9996
vn -0.0000 0.1136 -0.9935
vn -0.9934 0.1033 -0.0488
vn -0.9632 0.2688 -0.0045
vn -0.7205 0.2020 0.6634
vn -0.6815 0.2704 0.6800
vn 0.0010 0.2303 0.9731
vn 0.0009 0.2618 0.9651
vn 0.7231 0.1711 0.6693
vn 0.6860 0.2493 0.6836
vn 0.9971 0.0637 -0.0418
vn 0.9709 0.2394 -0.0031
vn 0.3316 0.8837 -0.3303
vn 0.0024 0.8854 -0.4648
vn -0.3235 0.8879 -0.3270
vn -0.4565 0.8897 -0.0011
vn -0.3220 0.8898 0.3232
vn 0.0024 0.8882 0.4595
vn 0.3301 0.8857 0.3265
vn 0.4679 0.8838 -0.0011
vn 0.0008 -0.3215 -0.9469
vn -0.6894 -0.1956 -0.6975
vn -0.0011 -0.5118 -0.8591
vn -0.6979 -0.3243 -0.6385
vn -0.0045 -0.5508 -0.8346
vn -0.7083 -0.3371 -0.6202
vn -0.9931 0.0921 -0.0723
vn -0.9916 0.1045 -0.0767
vn -0.9891 0.1324 -0.0647
vn -0.7162 0.3850 0.5821
vn -0.6968 0.5212 0.4927
vn -0.6777 0.5528 0.4850
vn 0.0012 0.4954 0.8687
vn 0.0040 0.6760 0.7369
vn 0.0042 0.7018 0.7124
vn 0.7213 0.3472 0.5993
vn 0.7050 0.4813 0.5209
vn 0.6871 0.5200 0.5075
vn 0.9977 0.0423 -0.0530
vn 0.9979 0.0479 -0.0431
vn 0.9963 0.0798 -0.0321
vn 0.6908 -0.0287 -0.7225
vn 0.6916 -0.2273 -0.6856
vn 0.6984 -0.3624 -0.6172
vn 0.7048 -0.3798 -0.5992
vn 0.6849 0.2368 -0.6891
vn -0.0037 -0.3646 -0.9312
vn -0.7327 -0.1824 -0.6556
vn -0.9863 0.1648 -0.0099
vn -0.6701 0.4404 0.5975
vn 0.0012 0.5358 0.8444
vn 0.6731 0.4218 0.6075
vn 0.9916 0.1294 0.0047
vn 0.7321 -0.2168 -0.6458
vn 0.0014 0.5513 -0.8343
vn 0.5931 0.5452 -0.5924
vn 0.8380 0.5456 -0.0007
vn 0.5905 0.5523 0.5884
vn 0.0014 0.5611 0.8277
vn -0.5821 0.5670 0.5828
vn -0.8240 0.5666 -0.0007
vn -0.5847 0.5602 -0.5868
vt 0.549609 0.341797
vt 0.053336 0.373091
s 1
usemtl BASE_MATERIAL
f 13/1/1 18/1/2 9/1/3 3/1/4
f 15/1/5 10/1/6 12/1/7 16/1/8
f 16/1/8 12/1/7 11/1/9 17/1/10
f 17/1/10 11/1/9 9/1/3 18/1/2
f 15/1/5 14/1/11 4/1/12 10/1/6
f 5/1/13 2/1/14 14/1/15 15/1/16
f 8/1/17 17/1/18 18/1/19 6/1/20
f 7/1/21 16/1/22 17/1/18 8/1/17
f 5/1/13 15/1/16 16/1/22 7/1/21
f 1/1/23 6/1/20 18/1/19 13/1/24
f 13/1/1 3/1/4 20/1/25 21/1/26
f 1/1/23 13/1/24 21/1/27 19/1/28
f 34/1/29 24/1/30 30/1/31 39/1/32
f 36/1/33 37/1/34 33/1/35 31/1/36
f 37/1/34 38/1/37 32/1/38 33/1/35
f 38/1/37 39/1/32 30/1/31 32/1/38
f 36/1/33 31/1/36 25/1/39 35/1/40
f 26/1/41 36/1/42 35/1/43 23/1/44
f 29/1/45 27/1/46 39/1/47 38/1/48
f 28/1/49 29/1/45 38/1/48 37/1/50
f 26/1/41 28/1/49 37/1/50 36/1/42
f 22/1/51 34/1/52 39/1/47 27/1/46
f 34/1/29 42/1/53 41/1/54 24/1/30
f 22/1/51 40/1/55 42/1/56 34/1/52
f 4/1/12 14/1/11 35/1/40 25/1/39
f 5/1/13 7/1/21 28/1/49 26/1/41
f 12/1/7 10/1/6 31/1/36 33/1/35
f 7/1/21 8/1/17 29/1/45 28/1/49
f 11/1/9 12/1/7 33/1/35 32/1/38
f 8/1/17 6/1/20 27/1/46 29/1/45
f 9/1/3 11/1/9 32/1/38 30/1/31
f 2/1/14 5/1/13 26/1/41 23/1/44
f 10/1/6 4/1/12 25/1/39 31/1/36
f 6/1/20 1/1/23 22/1/51 27/1/46
f 3/1/4 9/1/3 30/1/31 24/1/30
f 14/1/15 2/1/14 23/1/44 35/1/43
f 19/1/28 21/1/27 42/1/56 40/1/55
f 21/1/26 20/1/25 41/1/54 42/1/53
f 20/1/25 3/1/4 24/1/30 41/1/54
f 1/1/23 19/1/28 40/1/55 22/1/51
f 55/1/57 60/1/58 51/1/59 45/1/60
f 57/1/61 52/1/62 54/1/63 58/1/64
f 58/1/64 54/1/63 53/1/65 59/1/66
f 59/1/66 53/1/65 51/1/59 60/1/58
f 57/1/61 56/1/67 46/1/68 52/1/62
f 47/1/69 44/1/70 56/1/71 57/1/72
f 50/1/73 59/1/74 60/1/75 48/1/76
f 49/1/77 58/1/78 59/1/74 50/1/73
f 47/1/69 57/1/72 58/1/78 49/1/77
f 43/1/79 48/1/76 60/1/75 55/1/80
f 55/1/57 45/1/60 62/1/81 63/1/82
f 43/1/79 55/1/80 63/1/83 61/1/84
f 76/1/85 66/1/86 72/1/87 81/1/88
f 78/1/89 79/1/90 75/1/91 73/1/92
f 79/1/90 80/1/93 74/1/94 75/1/91
f 80/1/93 81/1/88 72/1/87 74/1/94
f 78/1/89 73/1/92 67/1/95 77/1/96
f 68/1/97 78/1/98 77/1/99 65/1/100
f 71/1/101 69/1/102 81/1/103 80/1/104
f 70/1/105 71/1/101 80/1/104 79/1/106
f 68/1/97 70/1/105 79/1/106 78/1/98
f 64/1/107 76/1/108 81/1/103 69/1/102
f 76/1/85 84/1/109 83/1/110 66/1/86
f 64/1/107 82/1/111 84/1/112 76/1/108
f 46/1/68 56/1/67 77/1/96 67/1/95
f 47/1/69 49/1/77 70/1/105 68/1/97
f 54/1/63 52/1/62 73/1/92 75/1/91
f 49/1/77 50/1/73 71/1/101 70/1/105
f 53/1/65 54/1/63 75/1/91 74/1/94
f 50/1/73 48/1/76 69/1/102 71/1/101
f 51/1/59 53/1/65 74/1/94 72/1/87
f 44/1/70 47/1/69 68/1/97 65/1/100
f 52/1/62 46/1/68 67/1/95 73/1/92
f 48/1/76 43/1/79 64/1/107 69/1/102
f 45/1/60 51/1/59 72/1/87 66/1/86
f 56/1/71 44/1/70 65/1/100 77/1/99
f 61/1/84 63/1/83 84/1/112 82/1/111
f 63/1/82 62/1/81 83/1/110 84/1/109
f 62/1/81 45/1/60 66/1/86 83/1/110
f 43/1/79 61/1/84 82/1/111 64/1/107
f 97/1/113 87/1/114 93/1/115 102/1/116
f 99/1/117 100/1/118 96/1/119 94/1/120
f 100/1/118 101/1/121 95/1/122 96/1/119
f 101/1/121 102/1/116 93/1/115 95/1/122
f 99/1/117 94/1/120 88/1/123 98/1/124
f 89/1/125 99/1/126 98/1/127 86/1/128
f 92/1/129 90/1/130 102/1/131 101/1/132
f 91/1/133 92/1/129 101/1/132 100/1/134
f 89/1/125 91/1/133 100/1/134 99/1/126
f 85/1/135 97/1/136 102/1/131 90/1/130
f 97/1/113 105/1/137 104/1/138 87/1/114
f 85/1/135 103/1/139 105/1/140 97/1/136
f 118/1/141 123/1/142 114/1/143 108/1/144
f 120/1/145 115/1/146 117/1/147 121/1/148
f 121/1/148 117/1/147 116/1/149 122/1/150
f 122/1/150 116/1/149 114/1/143 123/1/142
f 120/1/145 119/1/151 109/1/152 115/1/146
f 110/1/153 107/1/154 119/1/155 120/1/156
f 113/1/157 122/1/158 123/1/159 111/1/160
f 112/1/161 121/1/162 122/1/158 113/1/157
f 110/1/153 120/1/156 121/1/162 112/1/161
f 106/1/163 111/1/160 123/1/159 118/1/164
f 118/1/141 108/1/144 125/1/165 126/1/166
f 106/1/163 118/1/164 126/1/167 124/1/168
f 88/1/123 109/1/152 119/1/151 98/1/124
f 89/1/125 110/1/153 112/1/161 91/1/133
f 96/1/119 117/1/147 115/1/146 94/1/120
f 91/1/133 112/1/161 113/1/157 92/1/129
f 95/1/122 116/1/149 117/1/147 96/1/119
f 92/1/129 113/1/157 111/1/160 90/1/130
f 93/1/115 114/1/143 116/1/149 95/1/122
f 86/1/128 107/1/154 110/1/153 89/1/125
f 94/1/120 115/1/146 109/1/152 88/1/123
f 90/1/130 111/1/160 106/1/163 85/1/135
f 87/1/114 108/1/144 114/1/143 93/1/115
f 98/1/127 119/1/155 107/1/154 86/1/128
f 103/1/139 124/1/168 126/1/167 105/1/140
f 105/1/137 126/1/166 125/1/165 104/1/138
f 104/1/138 125/1/165 108/1/144 87/1/114
f 85/1/135 106/1/163 124/1/168 103/1/139
f 139/1/169 129/1/170 135/1/171 144/1/172
f 141/1/173 142/1/174 138/1/175 136/1/176
f 142/1/174 143/1/177 137/1/178 138/1/175
f 143/1/177 144/1/172 135/1/171 137/1/178
f 141/1/173 136/1/176 130/1/179 140/1/180
f 131/1/181 141/1/182 140/1/183 128/1/184
f 134/1/185 132/1/186 144/1/187 143/1/188
f 133/1/189 134/1/185 143/1/188 142/1/190
f 131/1/181 133/1/189 142/1/190 141/1/182
f 127/1/191 139/1/192 144/1/187 132/1/186
f 139/1/169 147/1/193 146/1/194 129/1/170
f 127/1/191 145/1/195 147/1/196 139/1/192
f 160/1/197 165/1/198 156/1/199 150/1/200
f 162/1/201 157/1/202 159/1/203 163/1/204
f 163/1/204 159/1/203 158/1/205 164/1/206
f 164/1/206 158/1/205 156/1/199 165/1/198
f 162/1/201 161/1/207 151/1/208 157/1/202
f 152/1/209 149/1/210 161/1/211 162/1/212
f 155/1/213 164/1/214 165/1/215 153/1/216
f 154/1/217 163/1/218 164/1/214 155/1/213
f 152/1/209 162/1/212 163/1/218 154/1/217
f 148/1/219 153/1/216 165/1/215 160/1/220
f 160/1/197 150/1/200 167/1/221 168/1/222
f 148/1/219 160/1/220 168/1/223 166/1/224
f 130/1/179 151/1/208 161/1/207 140/1/180
f 131/1/181 152/1/209 154/1/217 133/1/189
f 138/1/175 159/1/203 157/1/202 136/1/176
f 133/1/189 154/1/217 155/1/213 134/1/185
f 137/1/178 158/1/205 159/1/203 138/1/175
f 134/1/185 155/1/213 153/1/216 132/1/186
f 135/1/171 156/1/199 158/1/205 137/1/178
f 128/1/184 149/1/210 152/1/209 131/1/181
f 136/1/176 157/1/202 151/1/208 130/1/179
f 132/1/186 153/1/216 148/1/219 127/1/191
f 129/1/170 150/1/200 156/1/199 135/1/171
f 140/1/183 161/1/211 149/1/210 128/1/184
f 145/1/195 166/1/224 168/1/223 147/1/196
f 147/1/193 168/1/222 167/1/221 146/1/194
f 146/1/194 167/1/221 150/1/200 129/1/170
f 127/1/191 148/1/219 166/1/224 145/1/195
f 181/1/225 186/1/226 177/1/227 171/1/228
f 183/1/229 178/1/230 180/1/231 184/1/232
f 184/1/232 180/1/231 179/1/233 185/1/234
f 185/1/234 179/1/233 177/1/227 186/1/226
f 183/1/229 182/1/235 172/1/236 178/1/230
f 173/1/237 170/1/238 182/1/239 183/1/240
f 176/1/241 185/1/242 186/1/243 174/1/244
f 175/1/245 184/1/246 185/1/242 176/1/241
f 173/1/237 183/1/240 184/1/246 175/1/245
f 169/1/247 174/1/244 186/1/243 181/1/248
f 181/1/225 171/1/228 188/1/249 189/1/250
f 169/1/247 181/1/248 189/1/251 187/1/252
f 202/1/253 192/1/254 198/1/255 207/1/256
f 204/1/257 205/1/258 201/1/259 199/1/260
f 205/1/258 206/1/261 200/1/262 201/1/259
f 206/1/261 207/1/256 198/1/255 200/1/262
f 204/1/257 199/1/260 193/1/263 203/1/264
f 194/1/265 204/1/266 203/1/267 191/1/268
f 197/1/269 195/1/270 207/1/271 206/1/272
f 196/1/273 197/1/269 206/1/272 205/1/274
f 194/1/265 196/1/273 205/1/274 204/1/266
f 190/1/275 202/1/276 207/1/271 195/1/270
f 202/1/253 210/1/277 209/1/278 192/1/254
f 190/1/275 208/1/279 210/1/280 202/1/276
f 172/1/236 182/1/235 203/1/264 193/1/263
f 173/1/237 175/1/245 196/1/273 194/1/265
f 180/1/231 178/1/230 199/1/260 201/1/259
f 175/1/245 176/1/241 197/1/269 196/1/273
f 179/1/233 180/1/231 201/1/259 200/1/262
f 176/1/241 174/1/244 195/1/270 197/1/269
f 177/1/227 179/1/233 200/1/262 198/1/255
f 170/1/238 173/1/237 194/1/265 191/1/268
f 178/1/230 172/1/236 193/1/263 199/1/260
f 174/1/244 169/1/247 190/1/275 195/1/270
f 171/1/228 177/1/227 198/1/255 192/1/254
f 182/1/239 170/1/238 191/1/268 203/1/267
f 187/1/252 189/1/251 210/1/280 208/1/279
f 189/1/250 188/1/249 209/1/278 210/1/277
f 188/1/249 171/1/228 192/1/254 209/1/278
f 169/1/247 187/1/252 208/1/279 190/1/275
f 223/1/281 228/1/282 219/1/283 213/1/284
f 225/1/285 220/1/286 222/1/287 226/1/288
f 226/1/288 222/1/287 221/1/289 227/1/290
f 227/1/290 221/1/289 219/1/283 228/1/282
f 225/1/285 224/1/291 214/1/292 220/1/286
f 215/1/293 212/1/294 224/1/295 225/1/296
f 218/1/297 227/1/298 228/1/299 216/1/300
f 217/1/301 226/1/302 227/1/298 218/1/297
f 215/1/293 225/1/296 226/1/302 217/1/301
f 211/1/303 216/1/300 228/1/299 223/1/304
f 223/1/281 213/1/284 230/1/305 231/1/306
f 211/1/303 223/1/304 231/1/307 229/1/308
f 244/1/309 234/1/310 240/1/311 249/1/312
f 246/1/313 247/1/314 243/1/315 241/1/316
f 247/1/314 248/1/317 242/1/318 243/1/315
f 248/1/317 249/1/312 240/1/311 242/1/318
f 246/1/313 241/1/316 235/1/319 245/1/320
f 236/1/321 246/1/322 245/1/323 233/1/324
f 239/1/325 237/1/326 249/1/327 248/1/328
f 238/1/329 239/1/325 248/1/328 247/1/330
f 236/1/321 238/1/329 247/1/330 246/1/322
f 232/1/331 244/1/332 249/1/327 237/1/326
f 244/1/309 252/1/333 251/1/334 234/1/310
f 232/1/331 250/1/335 252/1/336 244/1/332
f 214/1/292 224/1/291 245/1/320 235/1/319
f 215/1/293 217/1/301 238/1/329 236/1/321
f 222/1/287 220/1/286 241/1/316 243/1/315
f 217/1/301 218/1/297 239/1/325 238/1/329
f 221/1/289 222/1/287 243/1/315 242/1/318
f 218/1/297 216/1/300 237/1/326 239/1/325
f 219/1/283 221/1/289 242/1/318 240/1/311
f 212/1/294 215/1/293 236/1/321 233/1/324
f 220/1/286 214/1/292 235/1/319 241/1/316
f 216/1/300 211/1/303 232/1/331 237/1/326
f 213/1/284 219/1/283 240/1/311 234/1/310
f 224/1/295 212/1/294 233/1/324 245/1/323
f 229/1/308 231/1/307 252/1/336 250/1/335
f 231/1/306 230/1/305 251/1/334 252/1/333
f 230/1/305 213/1/284 234/1/310 251/1/334
f 211/1/303 229/1/308 250/1/335 232/1/331
f 265/1/337 270/1/338 261/1/339 255/1/340
f 267/1/341 262/1/342 264/1/343 268/1/344
f 268/1/344 264/1/343 263/1/345 269/1/346
f 269/1/346 263/1/345 261/1/339 270/1/338
f 267/1/341 266/1/347 256/1/348 262/1/342
f 257/1/349 254/1/350 266/1/351 267/1/352
f 260/1/353 269/1/354 270/1/355 258/1/356
f 259/1/357 268/1/358 269/1/354 260/1/353
f 257/1/349 267/1/352 268/1/358 259/1/357
f 253/1/359 258/1/356 270/1/355 265/1/360
f 265/1/337 255/1/340 272/1/361 273/1/362
f 253/1/359 265/1/360 273/1/363 271/1/364
f 286/1/365 276/1/366 282/1/367 291/1/368
f 288/1/369 289/1/370 285/1/371 283/1/372
f 289/1/370 290/1/373 284/1/374 285/1/371
f 290/1/373 291/1/368 282/1/367 284/1/374
f 288/1/369 283/1/372 277/1/375 287/1/376
f 278/1/377 288/1/378 287/1/379 275/1/380
f 281/1/381 279/1/382 291/1/383 290/1/384
f 280/1/385 281/1/381 290/1/384 289/1/386
f 278/1/377 280/1/385 289/1/386 288/1/378
f 274/1/387 286/1/388 291/1/383 279/1/382
f 286/1/365 294/1/389 293/1/390 276/1/366
f 274/1/387 292/1/391 294/1/392 286/1/388
f 256/1/348 266/1/347 287/1/376 277/1/375
f 257/1/349 259/1/357 280/1/385 278/1/377
f 264/1/343 262/1/342 283/1/372 285/1/371
f 259/1/357 260/1/353 281/1/381 280/1/385
f 263/1/345 264/1/343 285/1/371 284/1/374
f 260/1/353 258/1/356 279/1/382 281/1/381
f 261/1/339 263/1/345 284/1/374 282/1/367
f 254/1/350 257/1/349 278/1/377 275/1/380
f 262/1/342 256/1/348 277/1/375 283/1/372
f 258/1/356 253/1/359 274/1/387 279/1/382
f 255/1/340 261/1/339 282/1/367 276/1/366
f 266/1/351 254/1/350 275/1/380 287/1/379
f 271/1/364 273/1/363 294/1/392 292/1/391
f 273/1/362 272/1/361 293/1/390 294/1/389
f 272/1/361 255/1/340 276/1/366 293/1/390
f 253/1/359 271/1/364 292/1/391 274/1/387
f 307/1/393 312/1/394 303/1/395 297/1/396
f 309/1/397 304/1/398 306/1/399 310/1/400
f 310/1/400 306/1/399 305/1/401 311/1/402
f 311/1/402 305/1/401 303/1/395 312/1/394
f 309/1/397 308/1/403 298/1/404 304/1/398
f 299/1/405 296/1/406 308/1/407 309/1/408
f 302/1/409 311/1/410 312/1/411 300/1/412
f 301/1/413 310/1/414 311/1/410 302/1/409
f 299/1/405 309/1/408 310/1/414 301/1/413
f 295/1/415 300/1/412 312/1/411 307/1/416
f 307/1/393 297/1/396 314/1/417 315/1/418
f 295/1/415 307/1/416 315/1/419 313/1/420
f 328/1/421 318/1/422 324/1/423 333/1/424
f 330/1/425 331/1/426 327/1/427 325/1/428
f 331/1/426 332/1/429 326/1/430 327/1/427
f 332/1/429 333/1/424 324/1/423 326/1/430
f 330/1/425 325/1/428 319/1/431 329/1/432
f 320/1/433 330/1/434 329/1/435 317/1/436
f 323/1/437 321/1/438 333/1/439 332/1/440
f 322/1/441 323/1/437 332/1/440 331/1/442
f 320/1/433 322/1/441 331/1/442 330/1/434
f 316/1/443 328/1/444 333/1/439 321/1/438
f 328/1/421 336/1/445 335/1/446 318/1/422
f 316/1/443 334/1/447 336/1/448 328/1/444
f 298/1/404 308/1/403 329/1/432 319/1/431
f 299/1/405 301/1/413 322/1/441 320/1/433
f 306/1/399 304/1/398 325/1/428 327/1/427
f 301/1/413 302/1/409 323/1/437 322/1/441
f 305/1/401 306/1/399 327/1/427 326/1/430
f 302/1/409 300/1/412 321/1/438 323/1/437
f 303/1/395 305/1/401 326/1/430 324/1/423
f 296/1/406 299/1/405 320/1/433 317/1/436
f 304/1/398 298/1/404 319/1/431 325/1/428
f 300/1/412 295/1/415 316/1/443 321/1/438
f 297/1/396 303/1/395 324/1/423 318/1/422
f 308/1/407 296/1/406 317/1/436 329/1/435
f 313/1/420 315/1/419 336/1/448 334/1/447
f 315/1/418 314/1/417 335/1/446 336/1/445
f 314/1/417 297/1/396 318/1/422 335/1/446
f 295/1/415 313/1/420 334/1/447 316/1/443
f 349/1/449 354/1/450 345/1/451 339/1/452
f 351/1/453 346/1/454 348/1/455 352/1/456
f 352/1/456 348/1/455 347/1/457 353/1/458
f 353/1/458 347/1/457 345/1/451 354/1/450
f 351/1/453 350/1/459 340/1/460 346/1/454
f 341/1/461 338/1/462 350/1/463 351/1/464
f 344/1/465 353/1/466 354/1/467 342/1/468
f 343/1/469 352/1/470 353/1/466 344/1/465
f 341/1/461 351/1/464 352/1/470 343/1/469
f 337/1/471 342/1/468 354/1/467 349/1/472
f 349/1/449 339/1/452 356/1/473 357/1/474
f 337/1/471 349/1/472 357/1/475 355/1/476
f 370/1/477 360/1/478 366/1/479 375/1/480
f 372/1/481 373/1/482 369/1/483 367/1/484
f 373/1/482 374/1/485 368/1/486 369/1/483
f 374/1/485 375/1/480 366/1/479 368/1/486
f 372/1/481 367/1/484 361/1/487 371/1/488
f 362/1/489 372/1/490 371/1/491 359/1/492
f 365/1/493 363/1/494 375/1/495 374/1/496
f 364/1/497 365/1/493 374/1/496 373/1/498
f 362/1/489 364/1/497 373/1/498 372/1/490
f 358/1/499 370/1/500 375/1/495 363/1/494
f 370/1/477 378/1/501 377/1/502 360/1/478
f 358/1/499 376/1/503 378/1/504 370/1/500
f 340/1/460 350/1/459 371/1/488 361/1/487
f 341/1/461 343/1/469 364/1/497 362/1/489
f 348/1/455 346/1/454 367/1/484 369/1/483
f 343/1/469 344/1/465 365/1/493 364/1/497
f 347/1/457 348/1/455 369/1/483 368/1/486
f 344/1/465 342/1/468 363/1/494 365/1/493
f 345/1/451 347/1/457 368/1/486 366/1/479
f 338/1/462 341/1/461 362/1/489 359/1/492
f 346/1/454 340/1/460 361/1/487 367/1/484
f 342/1/468 337/1/471 358/1/499 363/1/494
f 339/1/452 345/1/451 366/1/479 360/1/478
f 350/1/463 338/1/462 359/1/492 371/1/491
f 355/1/476 357/1/475 378/1/504 376/1/503
f 357/1/474 356/1/473 377/1/502 378/1/501
f 356/1/473 339/1/452 360/1/478 377/1/502
f 337/1/471 355/1/476 376/1/503 358/1/499
f 391/1/505 396/1/506 387/1/507 381/1/508
f 393/1/509 388/1/510 390/1/511 394/1/512
f 394/1/512 390/1/511 389/1/513 395/1/514
f 395/1/514 389/1/513 387/1/507 396/1/506
f 393/1/509 392/1/515 382/1/516 388/1/510
f 383/1/517 380/1/518 392/1/519 393/1/520
f 386/1/521 395/1/522 396/1/523 384/1/524
f 385/1/525 394/1/526 395/1/522 386/1/521
f 383/1/517 393/1/520 394/1/526 385/1/525
f 379/1/527 384/1/524 396/1/523 391/1/528
f 391/1/505 381/1/508 398/1/529 399/1/530
f 379/1/527 391/1/528 399/1/531 397/1/532
f 412/1/533 402/1/534 408/1/535 417/1/536
f 414/1/537 415/1/538 411/1/539 409/1/540
f 415/1/538 416/1/541 410/1/542 411/1/539
f 416/1/541 417/1/536 408/1/535 410/1/542
f 414/1/537 409/1/540 403/1/543 413/1/544
f 404/1/545 414/1/546 413/1/547 401/1/548
f 407/1/549 405/1/550 417/1/551 416/1/552
f 406/1/553 407/1/549 416/1/552 415/1/554
f 404/1/545 406/1/553 415/1/554 414/1/546
f 400/1/555 412/1/556 417/1/551 405/1/550
f 412/1/533 420/1/557 419/1/558 402/1/534
f 400/1/555 418/1/559 420/1/560 412/1/556
f 382/1/516 392/1/515 413/1/544 403/1/543
f 383/1/517 385/1/525 406/1/553 404/1/545
f 390/1/511 388/1/510 409/1/540 411/1/539
f 385/1/525 386/1/521 407/1/549 406/1/553
f 389/1/513 390/1/511 411/1/539 410/1/542
f 386/1/521 384/1/524 405/1/550 407/1/549
f 387/1/507 389/1/513 410/1/542 408/1/535
f 380/1/518 383/1/517 404/1/545 401/1/548
f 388/1/510 382/1/516 403/1/543 409/1/540
f 384/1/524 379/1/527 400/1/555 405/1/550
f 381/1/508 387/1/507 408/1/535 402/1/534
f 392/1/519 380/1/518 401/1/548 413/1/547
f 397/1/532 399/1/531 420/1/560 418/1/559
f 399/1/530 398/1/529 419/1/558 420/1/557
f 398/1/529 381/1/508 402/1/534 419/1/558
f 379/1/527 397/1/532 418/1/559 400/1/555
f 433/1/561 438/1/562 429/1/563 423/1/564
f 435/1/565 430/1/566 432/1/567 436/1/568
f 436/1/568 432/1/567 431/1/569 437/1/570
f 437/1/570 431/1/569 429/1/563 438/1/562
f 435/1/565 434/1/571 424/1/572 430/1/566
f 425/1/573 422/1/574 434/1/575 435/1/576
f 428/1/577 437/1/578 438/1/579 426/1/580
f 427/1/581 436/1/582 437/1/578 428/1/577
f 425/1/573 435/1/576 436/1/582 427/1/581
f 421/1/583 426/1/580 438/1/579 433/1/584
f 433/1/561 423/1/564 440/1/585 441/1/586
f 421/1/583 433/1/584 441/1/587 439/1/588
f 454/1/589 444/1/590 450/1/591 459/1/592
f 456/1/593 457/1/594 453/1/595 451/1/596
f 457/1/594 458/1/597 452/1/598 453/1/595
f 458/1/597 459/1/592 450/1/591 452/1/598
f 456/1/593 451/1/596 445/1/599 455/1/600
f 446/1/601 456/1/602 455/1/603 443/1/604
f 449/1/605 447/1/606 459/1/607 458/1/608
f 448/1/609 449/1/605 458/1/608 457/1/610
f 446/1/601 448/1/609 457/1/610 456/1/602
f 442/1/611 454/1/612 459/1/607 447/1/606
f 454/1/589 462/1/613 461/1/614 444/1/590
f 442/1/611 460/1/615 462/1/616 454/1/612
f 424/1/572 434/1/571 455/1/600 445/1/599
f 425/1/573 427/1/581 448/1/609 446/1/601
f 432/1/567 430/1/566 451/1/596 453/1/595
f 427/1/581 428/1/577 449/1/605 448/1/609
f 431/1/569 432/1/567 453/1/595 452/1/598
f 428/1/577 426/1/580 447/1/606 449/1/605
f 429/1/563 431/1/569 452/1/598 450/1/591
f 422/1/574 425/1/573 446/1/601 443/1/604
f 430/1/566 424/1/572 445/1/599 451/1/596
f 426/1/580 421/1/583 442/1/611 447/1/606
f 423/1/564 429/1/563 450/1/591 444/1/590
f 434/1/575 422/1/574 443/1/604 455/1/603
f 439/1/588 441/1/587 462/1/616 460/1/615
f 441/1/586 440/1/585 461/1/614 462/1/613
f 440/1/585 423/1/564 444/1/590 461/1/614
f 421/1/583 439/1/588 460/1/615 442/1/611
f 475/1/617 480/1/618 471/1/619 465/1/620
f 477/1/621 472/1/622 474/1/623 478/1/624
f 478/1/624 474/1/623 473/1/625 479/1/626
f 479/1/626 473/1/625 471/1/619 480/1/618
f 477/1/621 476/1/627 466/1/628 472/1/622
f 467/1/629 464/1/630 476/1/631 477/1/632
f 470/1/633 479/1/634 480/1/635 468/1/636
f 469/1/637 478/1/638 479/1/634 470/1/633
f 467/1/629 477/1/632 478/1/638 469/1/637
f 463/1/639 468/1/636 480/1/635 475/1/640
f 475/1/617 465/1/620 482/1/641 483/1/642
f 463/1/639 475/1/640 483/1/643 481/1/644
f 496/1/645 486/1/646 492/1/647 501/1/648
f 498/1/649 499/1/650 495/1/651 493/1/652
f 499/1/650 500/1/653 494/1/654 495/1/651
f 500/1/653 501/1/648 492/1/647 494/1/654
f 498/1/649 493/1/652 487/1/655 497/1/656
f 488/1/657 498/1/658 497/1/659 485/1/660
f 491/1/661 489/1/662 501/1/663 500/1/664
f 490/1/665 491/1/661 500/1/664 499/1/666
f 488/1/657 490/1/665 499/1/666 498/1/658
f 484/1/667 496/1/668 501/1/663 489/1/662
f 496/1/645 504/1/669 503/1/670 486/1/646
f 484/1/667 502/1/671 504/1/672 496/1/668
f 466/1/628 476/1/627 497/1/656 487/1/655
f 467/1/629 469/1/637 490/1/665 488/1/657
f 474/1/623 472/1/622 493/1/652 495/1/651
f 469/1/637 470/1/633 491/1/661 490/1/665
f 473/1/625 474/1/623 495/1/651 494/1/654
f 470/1/633 468/1/636 489/1/662 491/1/661
f 471/1/619 473/1/625 494/1/654 492/1/647
f 464/1/630 467/1/629 488/1/657 485/1/660
f 472/1/622 466/1/628 487/1/655 493/1/652
f 468/1/636 463/1/639 484/1/667 489/1/662
f 465/1/620 471/1/619 492/1/647 486/1/646
f 476/1/631 464/1/630 485/1/660 497/1/659
f 481/1/644 483/1/643 504/1/672 502/1/671
f 483/1/642 482/1/641 503/1/670 504/1/669
f 482/1/641 465/1/620 486/1/646 503/1/670
f 463/1/639 481/1/644 502/1/671 484/1/667
f 506/2/673 544/2/674 547/2/675 507/2/676
f 508/2/677 549/2/678 551/2/679 509/2/680
f 509/2/680 551/2/679 554/2/681 510/2/682
f 510/2/682 554/2/681 557/2/683 511/2/684
f 511/2/684 557/2/683 559/2/685 512/2/686
f 539/2/687 583/2/688 561/2/689 513/2/690
f 512/2/686 559/2/685 542/2/691 505/2/692
f 507/2/676 547/2/675 549/2/678 508/2/677
f 535/2/693 580/2/694 583/2/688 539/2/687
f 531/2/695 577/2/696 580/2/694 535/2/693
f 528/2/697 574/2/698 577/2/696 531/2/695
f 525/2/699 571/2/700 574/2/698 528/2/697
f 521/2/701 568/2/702 571/2/700 525/2/699
f 564/2/703 562/2/704 582/2/705 579/2/706 576/2/707 573/2/708 570/2/709 567/2/710
f 539/2/687 513/2/690 515/2/711 541/2/712
f 541/2/712 515/2/711 516/2/713 540/2/714
f 540/2/714 516/2/713 514/2/715 538/2/716
f 535/2/693 539/2/687 541/2/712 537/2/717
f 537/2/717 541/2/712 540/2/714 536/2/718
f 536/2/718 540/2/714 538/2/716 534/2/719
f 531/2/695 535/2/693 537/2/717 533/2/720
f 533/2/720 537/2/717 536/2/718 532/2/721
f 532/2/721 536/2/718 534/2/719 555/2/722
f 528/2/697 531/2/695 533/2/720 530/2/723
f 530/2/723 533/2/720 532/2/721 529/2/724
f 529/2/724 532/2/721 555/2/722 552/2/725
f 525/2/699 528/2/697 530/2/723 527/2/726
f 527/2/726 530/2/723 529/2/724 526/2/727
f 526/2/727 529/2/724 552/2/725 524/2/728
f 521/2/701 525/2/699 527/2/726 523/2/729
f 523/2/729 527/2/726 526/2/727 522/2/730
f 522/2/730 526/2/727 524/2/728 520/2/731
f 517/2/732 521/2/701 523/2/729 519/2/733
f 519/2/733 523/2/729 522/2/730 518/2/734
f 518/2/734 522/2/730 520/2/731 545/2/735
f 513/2/690 517/2/732 519/2/733 515/2/711
f 515/2/711 519/2/733 518/2/734 516/2/713
f 516/2/713 518/2/734 545/2/735 514/2/715
f 517/2/732 565/2/736 568/2/702 521/2/701
f 538/2/716 514/2/715 543/2/737 560/2/738
f 560/2/738 543/2/737 542/2/691 559/2/685
f 534/2/719 538/2/716 560/2/738 558/2/739
f 558/2/739 560/2/738 559/2/685 557/2/683
f 555/2/722 534/2/719 558/2/739 556/2/740
f 556/2/740 558/2/739 557/2/683 554/2/681
f 552/2/725 555/2/722 556/2/740 553/2/741
f 553/2/741 556/2/740 554/2/681 551/2/679
f 524/2/728 552/2/725 553/2/741 550/2/742
f 550/2/742 553/2/741 551/2/679 549/2/678
f 520/2/731 524/2/728 550/2/742 548/2/743
f 548/2/743 550/2/742 549/2/678 547/2/675
f 545/2/735 520/2/731 548/2/743 546/2/744
f 546/2/744 548/2/743 547/2/675 544/2/674
f 514/2/715 545/2/735 546/2/744 543/2/737
f 543/2/737 546/2/744 544/2/674 542/2/691
f 505/2/692 542/2/691 544/2/674 506/2/673
f 565/2/736 561/2/689 563/2/745 566/2/746
f 566/2/746 563/2/745 562/2/704 564/2/703
f 568/2/702 565/2/736 566/2/746 569/2/747
f 569/2/747 566/2/746 564/2/703 567/2/710
f 571/2/700 568/2/702 569/2/747 572/2/748
f 572/2/748 569/2/747 567/2/710 570/2/709
f 574/2/698 571/2/700 572/2/748 575/2/749
f 575/2/749 572/2/748 570/2/709 573/2/708
f 577/2/696 574/2/698 575/2/749 578/2/750
f 578/2/750 575/2/749 573/2/708 576/2/707
f 580/2/694 577/2/696 578/2/750 581/2/751
f 581/2/751 578/2/750 576/2/707 579/2/706
f 583/2/688 580/2/694 581/2/751 584/2/752
f 584/2/752 581/2/751 579/2/706 582/2/705
f 561/2/689 583/2/688 584/2/752 563/2/745
f 563/2/745 584/2/752 582/2/705 562/2/704
f 513/2/690 561/2/689 565/2/736 517/2/732
