# Blender 4.1.0
# www.blender.org
mtllib palm_m.mtl
o palm_m
v 0.000000 0.000000 -0.250607
v 0.177205 0.000000 -0.177206
v 0.250606 0.000000 -0.000000
v 0.177205 0.000000 0.177205
v 0.000000 0.000000 0.250606
v -0.177205 0.000000 0.177205
v -0.250606 0.000000 -0.000000
v -0.177205 0.000000 -0.177206
v -0.012098 2.736014 -0.247441
v -0.011910 0.745237 -0.330508
v -0.017847 2.105173 -0.328173
v -0.017778 1.376498 -0.358577
v 0.142782 0.745295 -0.266438
v 0.082605 2.736420 -0.208139
v 0.117835 1.376582 -0.302397
v 0.095808 2.105383 -0.281058
v 0.206836 0.745663 -0.111800
v 0.121814 2.737009 -0.113355
v 0.173994 1.376844 -0.166801
v 0.142874 2.105727 -0.167370
v 0.142736 0.746284 0.042769
v 0.082593 2.737264 -0.018646
v 0.117810 1.377189 -0.031249
v 0.095796 2.105938 -0.053728
v -0.011931 0.746538 0.106784
v -0.012078 2.737288 0.020571
v -0.017786 1.377319 0.024892
v -0.017839 2.105984 -0.006664
v -0.166592 0.746123 0.042799
v -0.106751 2.737231 -0.018650
v -0.153379 1.377104 -0.031235
v -0.131475 2.105900 -0.053726
v -0.230674 0.745522 -0.111779
v -0.145986 2.736870 -0.113375
v -0.209556 1.376755 -0.166793
v -0.178558 2.105639 -0.167377
v -0.166604 0.745261 -0.266434
v -0.106795 2.736262 -0.208167
v -0.153391 1.376543 -0.302399
v -0.131499 2.105300 -0.281072
v -0.001390 3.321353 -0.116347
v 0.000000 3.397344 -0.016287
v -0.000407 3.375087 -0.079991
v 0.009694 3.397344 -0.012271
v 0.070046 3.321310 -0.086769
v 0.051693 3.375074 -0.058414
v 0.013709 3.397344 -0.002578
v 0.099639 3.321245 -0.015344
v 0.073274 3.375055 -0.006317
v 0.009694 3.397344 0.007116
v 0.070049 3.321213 0.056092
v 0.051694 3.375046 0.045783
v 0.000000 3.397344 0.011132
v -0.001393 3.321208 0.085683
v -0.000408 3.375044 0.067364
v -0.009694 3.397344 0.007116
v -0.072834 3.321218 0.056092
v -0.052510 3.375047 0.045783
v -0.013709 3.397344 -0.002578
v -0.102422 3.321261 -0.015341
v -0.074090 3.375060 -0.006316
v -0.009694 3.397344 -0.012271
v -0.072827 3.321327 -0.086764
v -0.052507 3.375079 -0.058412
v 0.109741 3.436827 0.116471
v 0.969623 2.343919 0.845379
v 0.174007 3.431587 0.053764
v 0.982038 2.344926 0.832782
v 0.814074 2.564679 0.904100
v 0.271725 3.321362 0.418729
v 0.628194 2.850184 0.837932
v 0.429978 3.127575 0.660601
v 0.459637 3.336602 0.228050
v 1.013320 2.580838 0.701920
v 0.718955 3.151011 0.367367
v 0.921320 2.873958 0.540489
v 0.145490 3.431405 0.082912
v 0.975838 2.344433 0.839088
v 0.911690 2.516700 0.794457
v 0.774867 2.820180 0.682959
v 0.573997 3.096575 0.507094
v 0.369577 3.281498 0.326128
v 0.017486 3.392011 -0.011360
v 0.036574 3.398639 -0.041962
v 0.021874 3.414050 -0.026683
v 0.094092 3.354473 0.111564
v 0.904979 2.309352 0.801636
v 0.162896 3.368612 0.041667
v 0.939955 2.312757 0.765839
v 0.754935 2.524268 0.857661
v 0.230441 3.248480 0.402272
v 0.577913 2.797501 0.793396
v 0.386305 3.061468 0.628825
v 0.449388 3.266629 0.180240
v 0.969278 2.541842 0.640060
v 0.691924 3.086279 0.318725
v 0.880321 2.822012 0.486564
v 0.131538 3.360084 0.076655
v 0.921617 2.310460 0.782582
v 0.858502 2.479396 0.739082
v 0.741487 2.778710 0.647581
v 0.551300 3.039939 0.480999
v 0.335109 3.200438 0.284431
v 0.029980 3.347781 -0.011353
v 0.048565 3.354272 -0.042311
v 0.044429 3.332166 -0.027049
v 0.156474 3.414639 -0.150838
v 0.892009 2.357430 -0.963870
v 0.108308 3.413465 -0.184312
v 0.878204 2.355381 -0.974064
v 0.938222 2.595317 -0.845697
v 0.440526 3.328946 -0.332705
v 0.859972 2.883979 -0.687018
v 0.678020 3.152918 -0.499627
v 0.231588 3.297916 -0.487015
v 0.716679 2.562416 -1.009314
v 0.356706 3.105198 -0.736929
v 0.534045 2.835575 -0.927728
v 0.129292 3.417281 -0.166641
v 0.885112 2.356416 -0.968976
v 0.827177 2.524230 -0.918612
v 0.705202 2.816957 -0.811239
v 0.525134 3.085436 -0.621411
v 0.347554 3.287586 -0.404551
v 0.049885 3.372159 -0.035625
v 0.022337 3.372473 -0.047913
v 0.036114 3.372325 -0.041778
v 0.164978 3.345097 -0.121330
v 0.863226 2.326744 -0.892001
v 0.087229 3.341947 -0.178694
v 0.823966 2.321476 -0.920736
v 0.906944 2.558028 -0.778122
v 0.440069 3.261932 -0.283268
v 0.831045 2.834063 -0.626962
v 0.662284 3.090851 -0.446379
v 0.196703 3.226171 -0.463122
v 0.668491 2.522803 -0.954142
v 0.322482 3.040410 -0.697352
v 0.494828 2.784115 -0.875296
v 0.125947 3.341758 -0.152789
v 0.842682 2.323502 -0.905325
v 0.786150 2.488129 -0.855774
v 0.672849 2.778694 -0.760919
v 0.502354 3.032438 -0.581128
v 0.318931 3.190633 -0.362617
v 0.053618 3.335067 -0.041918
v 0.025853 3.335283 -0.053743
v 0.039722 3.335176 -0.047806
v -0.171257 3.419591 0.093163
v -0.925936 2.285749 1.078489
v -0.115068 3.429944 0.139337
v -0.911580 2.286579 1.091072
v -0.992177 2.523937 0.911968
v -0.480695 3.319425 0.289163
v -0.923934 2.827826 0.704349
v -0.737040 3.119466 0.476722
v -0.263407 3.331991 0.479612
v -0.761782 2.537261 1.113904
v -0.402887 3.138791 0.769601
v -0.584983 2.847428 1.001432
v -0.147383 3.418164 0.119078
v -0.918766 2.286176 1.084789
v -0.869563 2.469882 1.010921
v -0.753105 2.791573 0.848777
v -0.567984 3.082157 0.618394
v -0.362441 3.276685 0.402205
v -0.029577 3.377791 -0.010144
v 0.001151 3.383533 0.006508
v -0.013917 3.403247 -0.008301
v -0.160040 3.343980 0.078649
v -0.883866 2.246494 1.006613
v -0.080139 3.357806 0.148275
v -0.843076 2.249435 1.042036
v -0.947039 2.478356 0.845923
v -0.467693 3.239929 0.244572
v -0.880664 2.769163 0.648106
v -0.707495 3.046786 0.428537
v -0.214657 3.254998 0.466478
v -0.699072 2.492892 1.063152
v -0.354120 3.067250 0.738284
v -0.531012 2.789370 0.954599
v -0.119988 3.349353 0.116759
v -0.862298 2.247280 1.023345
v -0.814348 2.427441 0.950697
v -0.714179 2.746153 0.815509
v -0.538841 3.020778 0.597380
v -0.331693 3.184820 0.354713
v -0.030070 3.335205 0.002376
v 0.000970 3.340800 0.018525
v -0.014565 3.315242 0.016926
v -0.140378 3.430693 -0.198095
v -1.022279 2.307092 -0.871775
v -0.180332 3.436017 -0.142791
v -1.033088 2.306711 -0.857637
v -0.888751 2.541323 -0.938213
v -0.334589 3.315162 -0.483357
v -0.713194 2.837072 -0.880732
v -0.510721 3.120737 -0.714510
v -0.498204 3.309387 -0.269383
v -1.062235 2.535199 -0.711332
v -0.762333 3.111856 -0.385454
v -0.968418 2.828064 -0.546951
v -0.160376 3.433375 -0.170455
v -1.027692 2.306912 -0.864713
v -0.992185 2.502367 -0.812495
v -0.840832 2.779422 -0.714921
v -0.635843 3.062334 -0.550542
v -0.418678 3.279108 -0.369405
v -0.029674 3.387474 -0.085235
v -0.047296 3.392038 -0.047528
v -0.038497 3.389770 -0.066386
v -0.120878 3.347168 -0.197848
v -0.950261 2.274991 -0.838017
v -0.181308 3.353622 -0.118982
v -0.980711 2.274471 -0.797856
v -0.821502 2.502876 -0.901388
v -0.286896 3.244272 -0.475838
v -0.654236 2.785814 -0.845333
v -0.459124 3.056135 -0.691686
v -0.477574 3.237942 -0.226644
v -1.008130 2.496476 -0.657206
v -0.725230 3.046768 -0.343699
v -0.917545 2.776506 -0.501013
v -0.154035 3.348729 -0.158153
v -0.964456 2.274143 -0.816923
v -0.910297 2.448971 -0.771683
v -0.797231 2.749551 -0.680801
v -0.603106 3.016947 -0.525117
v -0.374913 3.184983 -0.344210
v -0.040671 3.336168 -0.086062
v -0.057663 3.340597 -0.048031
v -0.049133 3.338385 -0.067027
v -0.139598 3.512649 0.030601
v -1.416841 3.296988 1.121400
v -0.084729 3.509623 0.110545
v -1.404748 3.297928 1.136164
v -1.354782 3.441893 0.868413
v -0.490374 3.624481 0.160064
v -1.140162 3.572258 0.590827
v -0.823869 3.639743 0.331595
v -0.307337 3.638705 0.383532
v -1.160704 3.456975 1.105361
v -0.542388 3.661617 0.675252
v -0.854640 3.594447 0.939418
v -0.111615 3.509398 0.075738
v -1.410797 3.297474 1.128783
v -1.278283 3.396265 1.009175
v -1.012931 3.544431 0.783310
v -0.698459 3.610488 0.521530
v -0.425894 3.593656 0.293684
v -0.038500 3.373522 -0.010263
v -0.006649 3.374283 0.013173
v -0.012807 3.387662 -0.010959
v -0.176654 3.432106 0.049109
v -1.391100 3.217451 1.082821
v -0.105175 3.444665 0.127569
v -1.356450 3.220450 1.124266
v -1.329643 3.358647 0.838161
v -0.510849 3.535018 0.152698
v -1.123382 3.483388 0.573581
v -0.826268 3.548109 0.322968
v -0.297513 3.551993 0.412884
v -1.120665 3.374991 1.093011
v -0.528583 3.571273 0.686401
v -0.828854 3.506279 0.933209
v -0.141791 3.438556 0.091868
v -1.372958 3.217522 1.103232
v -1.243254 3.314427 0.985669
v -0.999604 3.477204 0.775847
v -0.702029 3.539314 0.528191
v -0.426817 3.488906 0.302350
v -0.061538 3.341146 0.019373
v -0.029404 3.341394 0.042461
v -0.055082 3.327286 0.043442
v 0.038552 3.494026 0.076571
v 1.198872 3.375182 1.191320
v 0.078084 3.500701 0.029301
v 1.217215 3.376529 1.172891
v 0.940971 3.516120 1.151556
v 0.179795 3.624317 0.390031
v 0.651646 3.620086 0.968706
v 0.373057 3.660316 0.690036
v 0.374508 3.638612 0.194413
v 1.147429 3.531277 0.944138
v 0.672494 3.682299 0.389207
v 0.955382 3.642384 0.663558
v 0.056282 3.498426 0.048686
v 1.208044 3.375871 1.182107
v 1.069594 3.474769 1.067379
v 0.830657 3.602238 0.839813
v 0.549877 3.641088 0.563172
v 0.285656 3.610951 0.312994
v -0.009107 3.356110 -0.014099
v 0.007149 3.356316 -0.041512
v -0.000977 3.356227 -0.027806
v 0.053622 3.422644 0.110164
v 1.157811 3.312085 1.174743
v 0.120989 3.434559 0.034324
v 1.193842 3.315049 1.137781
v 0.913513 3.434423 1.133862
v 0.178586 3.539601 0.413758
v 0.637567 3.533903 0.957949
v 0.369067 3.572682 0.696795
v 0.405254 3.556628 0.185769
v 1.135544 3.450831 0.910544
v 0.685734 3.595959 0.378649
v 0.950923 3.556909 0.643173
v 0.090732 3.428942 0.072736
v 1.175518 3.312156 1.155573
v 1.047568 3.394244 1.039594
v 0.818524 3.530509 0.821455
v 0.552903 3.566895 0.559688
v 0.314986 3.499304 0.319661
v 0.017627 3.331911 0.003085
v 0.033600 3.331682 -0.024510
v 0.025595 3.331778 -0.010727
v -0.175635 3.508583 -0.083436
v -1.782078 2.621120 -0.231761
v -0.180971 3.517276 -0.004303
v -1.784599 2.621571 -0.211166
v -1.612841 2.854363 -0.379310
v -0.562843 3.482635 -0.254971
v -1.312353 3.123935 -0.427494
v -0.928389 3.354517 -0.382041
v -0.601005 3.489459 0.056746
v -1.653304 2.861599 -0.048790
v -0.987076 3.365011 0.097329
v -1.371882 3.134581 0.058757
v -0.178321 3.512961 -0.043869
v -1.783347 2.621361 -0.221465
v -1.642558 2.792222 -0.212013
v -1.350794 3.077049 -0.178590
v -0.965705 3.306352 -0.136466
v -0.608493 3.438672 -0.094234
v -0.016828 3.426110 -0.026442
v -0.013961 3.439260 0.003802
v 0.002083 3.421808 -0.003196
v -0.184672 3.409549 -0.093953
v -1.704377 2.558707 -0.239958
v -0.195986 3.421686 0.020939
v -1.711101 2.560542 -0.181610
v -1.540114 2.785764 -0.381556
v -0.536398 3.388276 -0.274895
v -1.252701 3.043686 -0.426179
v -0.887411 3.263558 -0.388923
v -0.580837 3.396704 0.088206
v -1.583518 2.793738 -0.025883
v -0.949483 3.274690 0.118036
v -1.314140 3.054659 0.075441
v -0.193569 3.414576 -0.034494
v -1.706369 2.558503 -0.210366
v -1.568293 2.726085 -0.201492
v -1.309232 3.018428 -0.176086
v -0.944717 3.234992 -0.136173
v -0.567495 3.323462 -0.092198
v -0.057318 3.335356 -0.022698
v -0.058865 3.350457 0.013689
v -0.043271 3.333395 0.003981
v -0.045014 3.504384 -0.149801
v -1.130279 3.296988 -1.416763
v -0.097656 3.512490 -0.099210
v -1.145087 3.297928 -1.404724
v -0.877520 3.441893 -1.353784
v -0.172320 3.624481 -0.486804
v -0.600716 3.572259 -1.138156
v -0.342637 3.639743 -0.820921
v -0.396452 3.638705 -0.304581
v -1.115172 3.456975 -1.160570
v -0.687316 3.661618 -0.540692
v -0.950344 3.594448 -0.853903
v -0.075107 3.505872 -0.131477
v -1.137684 3.297474 -1.410746
v -1.018559 3.396266 -1.277798
v -0.788917 3.543461 -1.015242
v -0.528282 3.609518 -0.699820
v -0.320643 3.595955 -0.410806
v -0.006393 3.371870 -0.033863
v -0.027484 3.372551 -0.005417
v -0.003053 3.387644 -0.008631
v -0.062507 3.432107 -0.172683
v -1.091794 3.217452 -1.390881
v -0.141227 3.444666 -0.101489
v -1.133365 3.220450 -1.356383
v -0.847359 3.358648 -1.328535
v -0.164880 3.535019 -0.507252
v -0.583532 3.483388 -1.121312
v -0.334002 3.548109 -0.823288
v -0.425840 3.551994 -0.294864
v -1.102968 3.374991 -1.120486
v -0.698515 3.571273 -0.526928
v -0.944229 3.506280 -0.828095
v -0.105393 3.438557 -0.137976
v -1.112272 3.217522 -1.372814
v -0.995181 3.314427 -1.242683
v -0.786247 3.477205 -0.998271
v -0.539675 3.539314 -0.699797
v -0.319904 3.488534 -0.420817
v -0.032858 3.342878 -0.054591
v -0.053638 3.343100 -0.025890
v -0.057266 3.327305 -0.051078
v -0.053435 3.524067 0.175023
v -0.029592 2.581590 1.753407
v 0.038040 3.522660 0.170027
v -0.008843 2.581193 1.753219
v -0.188138 2.826560 1.613171
v -0.175396 3.491076 0.578310
v -0.263787 3.109412 1.331114
v -0.259108 3.353247 0.952716
v 0.138652 3.485075 0.575448
v 0.144853 2.820197 1.610136
v 0.223846 3.344017 0.948314
v 0.226101 3.100050 1.326649
v -0.009402 3.519596 0.179531
v -0.019217 2.581407 1.753323
v -0.021098 2.757264 1.618507
v -0.017492 3.070971 1.356453
v -0.016309 3.313693 0.977332
v -0.035364 3.451800 0.576932
v -0.026603 3.427770 0.009730
v 0.013586 3.430009 -0.000540
v -0.001354 3.441546 0.004939
v -0.067966 3.427263 0.179978
v -0.050364 2.522647 1.675342
v 0.047823 3.434769 0.176530
v 0.008390 2.522097 1.674411
v -0.202624 2.761028 1.539038
v -0.202448 3.398625 0.551459
v -0.273527 3.031598 1.269065
v -0.274986 3.264296 0.909873
v 0.163387 3.392113 0.548128
v 0.155698 2.754373 1.535640
v 0.235766 3.254567 0.905227
v 0.231848 3.021930 1.264486
v -0.007700 3.429773 0.181164
v -0.020797 2.521291 1.673426
v -0.023035 2.693788 1.541261
v -0.019465 2.995066 1.291379
v -0.018327 3.224333 0.932492
v -0.020823 3.327294 0.554080
v -0.020237 3.380792 0.031251
v 0.019819 3.382729 0.020347
v -0.000215 3.381752 0.025762
v 0.051872 3.506686 -0.179095
v 0.076622 2.614984 -1.787528
v -0.027700 3.511954 -0.176631
v 0.055879 2.614535 -1.788003
v 0.229903 2.855857 -1.634886
v 0.182550 3.488044 -0.580952
v 0.295753 3.130026 -1.342005
v 0.278416 3.362039 -0.956607
v -0.131413 3.481256 -0.588163
v -0.102998 2.848659 -1.642532
v -0.204406 3.351599 -0.967696
v -0.194001 3.119436 -1.353253
v 0.022125 3.496639 -0.178830
v 0.066251 2.614775 -1.787775
v 0.063335 2.786386 -1.647612
v 0.050499 3.091835 -1.376257
v 0.036637 3.322722 -0.990061
v 0.025464 3.417181 -0.592505
v 0.018408 3.409011 -0.018877
v -0.026000 3.411020 -0.008938
v -0.001569 3.429129 -0.004385
v 0.062873 3.411712 -0.188355
v 0.095123 2.553703 -1.710700
v -0.052992 3.418848 -0.188324
v 0.036371 2.552994 -1.711636
v 0.242264 2.788097 -1.562389
v 0.209041 3.394868 -0.556125
v 0.303789 3.050353 -1.282107
v 0.293225 3.271841 -0.916048
v -0.156695 3.387439 -0.564513
v -0.115965 2.780540 -1.570478
v -0.217387 3.260833 -0.927783
v -0.201447 3.039419 -1.293739
v 0.002666 3.414124 -0.191360
v 0.065514 2.552222 -1.709758
v 0.063049 2.720557 -1.572335
v 0.050671 3.013961 -1.313523
v 0.037532 3.232023 -0.947955
v 0.026254 3.320407 -0.567324
v 0.012338 3.358236 -0.044261
v -0.031946 3.359891 -0.033632
v -0.012077 3.339832 -0.048155
v 0.121407 3.513751 -0.038890
v 1.385937 3.286520 -1.134135
v 0.070024 3.521859 -0.090761
v 1.373675 3.287459 -1.148759
v 1.326510 3.441893 -0.893623
v 0.470278 3.624481 -0.175412
v 1.115085 3.572259 -0.613595
v 0.801784 3.639743 -0.350755
v 0.284691 3.638705 -0.396768
v 1.129729 3.456975 -1.128330
v 0.516382 3.661618 -0.691163
v 0.825586 3.594448 -0.958890
v 0.095719 3.517838 -0.064830
v 1.379809 3.287005 -1.141448
v 1.235035 3.413901 -1.033960
v 0.996049 3.538876 -0.811075
v 0.684599 3.604933 -0.545708
v 0.386425 3.602492 -0.306155
v 0.021027 3.375678 0.003674
v -0.015471 3.376543 -0.022542
v 0.002778 3.376131 -0.009438
v 0.157850 3.432107 -0.060869
v 1.360367 3.217452 -1.108433
v 0.085476 3.444666 -0.138505
v 1.325245 3.220450 -1.149478
v 1.301718 3.358647 -0.863084
v 0.490835 3.535019 -0.168282
v 1.098503 3.483388 -0.596159
v 0.804282 3.548109 -0.342156
v 0.274531 3.551994 -0.426005
v 1.089833 3.374991 -1.115523
v 0.502451 3.571273 -0.702153
v 0.799873 3.506280 -0.952387
v 0.122499 3.438557 -0.103226
v 1.341993 3.217522 -1.128635
v 1.211506 3.318835 -1.011731
v 0.972416 3.477205 -0.796992
v 0.677699 3.539314 -0.545941
v 0.401188 3.489559 -0.319408
v 0.046820 3.338887 -0.030303
v 0.010005 3.339169 -0.056119
v 0.028390 3.339004 -0.043186
v 0.160999 3.510289 0.063576
v 1.765105 2.614984 0.188160
v 0.163339 3.515560 -0.016003
v 1.766833 2.614535 0.167483
v 1.603496 2.855857 0.331954
v 0.554338 3.488044 0.221113
v 1.307176 3.130025 0.380017
v 0.923527 3.362039 0.339464
v 0.580474 3.481256 -0.091843
v 1.631209 2.848659 0.000121
v 0.963719 3.351599 -0.141810
v 1.347946 3.119435 -0.108166
v 0.162188 3.512956 0.023784
v 1.765978 2.614775 0.177822
v 1.626246 2.786386 0.166457
v 1.355150 3.067603 0.142812
v 0.970494 3.298490 0.105680
v 0.566221 3.444338 0.068210
v 0.002139 3.411788 0.026162
v -0.005928 3.414025 -0.023882
v -0.001884 3.412927 0.001136
v 0.169674 3.411712 0.077972
v 1.687302 2.553704 0.201992
v 0.176632 3.418848 -0.037683
v 1.691780 2.552994 0.143404
v 1.530386 2.788097 0.339920
v 0.527958 3.394868 0.246058
v 1.246903 3.050353 0.384426
v 0.882147 3.271841 0.351800
v 0.558392 3.387439 -0.118505
v 1.560069 2.780540 -0.017169
v 0.924661 3.260833 -0.157175
v 1.288990 3.039419 -0.119188
v 0.176305 3.414124 0.018056
v 1.688148 2.552222 0.172381
v 1.551123 2.720557 0.161631
v 1.293530 3.013961 0.133664
v 0.929420 3.232023 0.098497
v 0.549332 3.322875 0.064571
v 0.030771 3.355230 0.021118
v 0.021928 3.357073 -0.028833
v 0.026303 3.356142 -0.003855
vn -0.7217 -0.0722 -0.6885
vn -0.7033 -0.0503 -0.7091
vn -0.0007 -0.0750 -0.9972
vn 0.0040 -0.1065 -0.9943
vn 0.9973 0.0638 0.0353
vn 0.9985 0.0534 -0.0084
vn 0.7050 0.1341 0.6964
vn 0.6828 0.1600 0.7128
vn -0.0011 0.1602 0.9871
vn 0.0035 0.1892 0.9819
vn -0.7075 0.1161 0.6971
vn -0.6812 0.1392 0.7188
vn -0.9996 0.0282 -0.0080
vn -0.9988 0.0321 0.0358
vn -0.6965 0.1462 -0.7025
vn -0.6669 0.3528 -0.6563
vn 0.0014 0.3807 -0.9247
vn -0.0007 0.1710 -0.9853
vn 0.7029 -0.0330 -0.7105
vn 0.7264 -0.0485 -0.6856
vn -0.9978 0.0651 -0.0086
vn -0.9650 0.2620 0.0094
vn -0.7126 -0.0290 0.7010
vn -0.6950 0.1572 0.7016
vn -0.0013 -0.0776 0.9970
vn 0.0004 0.1029 0.9947
vn 0.7111 -0.0491 0.7014
vn 0.6984 0.1347 0.7029
vn 0.9992 0.0381 -0.0091
vn 0.9728 0.2316 0.0085
vn -0.0000 1.0000 -0.0000
vn -0.0010 0.0835 -0.9965
vn -0.7008 0.0751 -0.7094
vn -0.0011 -0.0014 -1.0000
vn -0.7024 0.0078 -0.7117
vn -0.9988 0.0478 -0.0101
vn -0.9993 0.0370 -0.0107
vn -0.7128 0.0164 0.7012
vn -0.7114 0.0701 0.6993
vn -0.0011 0.0001 1.0000
vn -0.0012 0.0870 0.9962
vn 0.7117 0.0098 0.7024
vn 0.7099 0.0770 0.7001
vn 0.9992 0.0389 -0.0102
vn 0.9989 0.0464 -0.0107
vn 0.6973 0.1283 -0.7052
vn 0.7000 0.0691 -0.7108
vn 0.7012 0.0142 -0.7128
vn 0.6732 0.3325 -0.6605
vn 0.0022 0.7561 -0.6545
vn 0.4897 0.7368 -0.4661
vn 0.0008 0.9440 -0.3299
vn 0.2422 0.9416 -0.2340
vn 0.7182 0.6955 0.0226
vn 0.3509 0.9364 0.0078
vn 0.5236 0.6550 0.5448
vn 0.2539 0.9313 0.2613
vn 0.0026 0.6416 0.7670
vn 0.0009 0.9296 0.3686
vn -0.5153 0.6644 0.5413
vn -0.2508 0.9325 0.2599
vn -0.7058 0.7080 0.0223
vn -0.3466 0.9380 0.0077
vn -0.4810 0.7450 -0.4623
vn -0.2393 0.9426 -0.2328
vn 0.0563 0.9947 0.0856
vn 0.1555 0.8356 0.5269
vn 0.5186 0.8433 -0.1408
vn 0.3856 0.8230 -0.4171
vn 0.4778 0.4311 0.7654
vn 0.9654 0.1963 0.1719
vn 0.8798 0.4730 0.0471
vn 0.4171 0.5864 0.6944
vn 0.7173 0.6945 -0.0561
vn 0.3031 0.7275 0.6156
vn 0.5797 -0.3739 0.7240
vn 0.8326 -0.3833 0.3998
vn 0.1725 0.1206 0.9776
vn 0.4605 -0.4140 0.7852
vn 0.7656 -0.3662 0.5289
vn 0.7344 0.4554 0.5033
vn -0.1024 0.6274 0.7719
vn 0.5595 0.7489 0.3551
vn 0.4807 0.8505 0.2136
vn -0.2106 0.7905 0.5751
vn 0.0230 0.4024 0.9152
vn 0.6507 0.6056 0.4581
vn -0.4483 0.8010 0.3967
vn 0.0693 0.9925 0.1008
vn -0.2886 0.3408 -0.8947
vn -0.3240 0.7947 -0.5134
vn -0.6626 0.7204 -0.2050
vn -0.9622 0.2609 -0.0776
vn 0.1563 -0.8960 -0.4157
vn 0.4590 -0.4036 -0.7915
vn 0.3287 -0.3113 -0.8916
vn -0.1478 -0.8293 -0.5388
vn -0.5166 -0.4194 -0.7465
vn -0.4930 -0.5794 -0.6491
vn 0.2766 -0.3745 -0.8850
vn 0.3144 -0.4417 -0.8403
vn -0.3401 -0.7514 -0.5655
vn 0.3100 -0.3321 -0.8908
vn 0.2289 -0.7891 -0.5700
vn -0.1426 -0.9059 -0.3988
vn -0.7885 -0.5429 0.2889
vn -0.7177 -0.4390 -0.5405
vn -0.3132 -0.9247 -0.2162
vn -0.4843 -0.8598 0.1620
vn -0.8559 -0.4284 0.2899
vn -0.8761 -0.3840 0.2914
vn -0.4626 -0.8587 -0.2206
vn -0.5090 -0.7654 -0.3938
vn -0.8474 -0.4662 0.2541
vn -0.6086 -0.5889 -0.5318
vn -0.7792 -0.5198 0.3501
vn -0.2397 -0.9708 0.0036
vn 0.0631 -0.8959 -0.4398
vn -0.1155 -0.4681 -0.8761
vn -0.8169 -0.5764 -0.0218
vn -0.4003 -0.9092 -0.1146
vn 0.0110 0.9986 -0.0516
vn 0.3235 0.8744 -0.3617
vn -0.3377 0.7402 -0.5814
vn -0.4596 0.8300 -0.3159
vn 0.6207 0.4535 -0.6396
vn 0.0046 0.0858 -0.9963
vn -0.1506 0.3538 -0.9231
vn 0.5246 0.6010 -0.6030
vn -0.2658 0.5743 -0.7743
vn 0.4280 0.7514 -0.5022
vn 0.6858 -0.3502 -0.6380
vn 0.3354 -0.4308 -0.8378
vn 0.9241 0.2113 -0.3185
vn 0.7673 -0.3674 -0.5257
vn 0.4686 -0.3898 -0.7928
vn 0.3455 0.4163 -0.8410
vn 0.6935 0.7177 -0.0632
vn 0.2105 0.7187 -0.6627
vn 0.0870 0.8412 -0.5336
vn 0.4976 0.8647 0.0679
vn 0.8449 0.5011 -0.1870
vn 0.3108 0.5694 -0.7611
vn 0.3185 0.8992 0.2999
vn -0.0377 0.9984 -0.0420
vn -0.8285 0.4700 0.3043
vn -0.4125 0.5760 0.7057
vn -0.3334 0.4698 0.8174
vn 0.0599 0.5059 0.8605
vn -0.2054 -0.9721 0.1137
vn -0.8179 -0.5072 -0.2716
vn -0.8918 -0.4216 -0.1643
vn -0.3897 -0.8656 0.3146
vn -0.6052 -0.4415 0.6625
vn -0.4904 -0.5898 0.6416
vn -0.8527 -0.5124 -0.1017
vn -0.8044 -0.5777 -0.1385
vn -0.4037 -0.7672 0.4985
vn -0.8689 -0.4756 -0.1372
vn -0.4793 -0.8757 -0.0580
vn -0.2456 -0.9236 0.2943
vn 0.4641 -0.4014 0.7896
vn -0.3736 -0.4104 0.8318
vn -0.0412 -0.8985 0.4370
vn 0.3435 -0.7667 0.5424
vn 0.4566 -0.2805 0.8443
vn 0.4549 -0.2232 0.8621
vn -0.0396 -0.8182 0.5735
vn -0.2140 -0.7394 0.6384
vn 0.4271 -0.3228 0.8446
vn -0.3586 -0.5704 0.7390
vn 0.4819 -0.3826 0.7883
vn 0.0444 -0.9607 0.2741
vn -0.2220 -0.8316 0.5091
vn -0.7808 -0.5857 0.2176
vn 0.1721 -0.6004 0.7810
vn -0.2458 -0.7205 0.6485
vn 0.2008 -0.9796 -0.0117
vn -0.3413 -0.8972 -0.2802
vn -0.1621 -0.8644 -0.4760
vn 0.5234 -0.8370 -0.1598
vn 0.7243 -0.4572 -0.5161
vn 0.6520 -0.6101 -0.4501
vn -0.0167 -0.4820 -0.8760
vn 0.1106 -0.2099 -0.9714
vn 0.5782 -0.7469 -0.3284
vn -0.1158 -0.7007 -0.7040
vn 0.3619 0.3640 -0.8582
vn 0.6997 0.3478 -0.6240
vn 0.9619 -0.1511 -0.2278
vn 0.4458 -0.4769 -0.7576
vn 0.4941 0.3439 -0.7985
vn 0.7687 0.3873 -0.5090
vn 0.7608 -0.6458 0.0640
vn 0.5643 -0.8021 0.1955
vn 0.1696 -0.8703 -0.4624
vn 0.3030 -0.7626 -0.5715
vn 0.8998 -0.4301 -0.0727
vn 0.3978 -0.6247 -0.6720
vn 0.4430 -0.7391 0.5074
vn 0.1538 -0.9879 0.0176
vn -0.3779 -0.8525 0.3612
vn -0.8293 -0.4007 0.3895
vn 0.0107 -0.1934 0.9811
vn -0.0283 -0.6509 0.7587
vn -0.4209 0.8943 -0.1516
vn -0.5117 0.8432 0.1649
vn -0.9154 0.2818 -0.2875
vn -0.8447 0.2908 -0.4493
vn -0.7038 0.4451 0.5536
vn -0.8444 0.4621 -0.2710
vn -0.8887 0.3967 -0.2299
vn -0.6036 0.6021 0.5227
vn -0.8973 0.3537 -0.2639
vn -0.5253 0.7701 0.3619
vn -0.3649 0.9180 0.1551
vn -0.5602 0.8026 -0.2049
vn 0.3484 0.5421 0.7647
vn 0.2130 0.8595 0.4647
vn -0.1724 0.9334 0.3147
vn -0.4863 0.4609 0.7424
vn 0.3497 0.4282 0.8333
vn -0.3427 0.7813 0.5217
vn -0.1712 0.8693 0.4636
vn 0.3500 0.3901 0.8517
vn 0.3149 0.4668 0.8264
vn -0.4797 0.6093 0.6313
vn 0.3944 0.5314 0.7497
vn 0.0509 0.9672 0.2488
vn -0.9021 0.3877 0.1894
vn -0.4335 0.8950 -0.1053
vn -0.0169 0.9252 0.3792
vn 0.0252 0.5673 0.8231
vn -0.0238 -0.9828 0.1829
vn 0.2706 -0.8921 -0.3618
vn 0.5559 -0.7966 -0.2376
vn 0.2914 -0.8382 0.4610
vn 0.6873 -0.3969 0.6083
vn 0.5470 -0.5975 0.5863
vn 0.9025 -0.4199 -0.0958
vn 0.9914 -0.1305 0.0050
vn 0.4266 -0.7233 0.5430
vn 0.7475 -0.6404 -0.1765
vn 0.8657 0.4381 0.2421
vn 0.6938 0.4454 0.5660
vn 0.2635 -0.1428 0.9540
vn 0.7707 -0.3989 0.4968
vn 0.7346 0.4089 0.5415
vn 0.4600 0.4280 0.7780
vn 0.0385 -0.6626 0.7480
vn -0.1012 -0.8097 0.5780
vn 0.5250 -0.8375 0.1513
vn 0.6525 -0.7158 0.2487
vn 0.1516 -0.4465 0.8818
vn 0.7203 -0.5924 0.3610
vn -0.3578 -0.8480 0.3910
vn 0.0612 -0.9981 0.0108
vn -0.7590 -0.5666 -0.3207
vn -0.3355 -0.5109 -0.7915
vn -0.8974 -0.4359 0.0683
vn -0.8142 -0.4607 -0.3532
vn -0.0447 0.9573 -0.2856
vn -0.2648 0.8394 -0.4746
vn 0.1983 0.3409 -0.9190
vn 0.3293 0.4407 -0.8351
vn -0.6435 0.4109 -0.6458
vn 0.1730 0.5001 -0.8485
vn 0.1377 0.4318 -0.8914
vn -0.6079 0.5741 -0.5485
vn 0.1739 0.3903 -0.9041
vn -0.4549 0.7500 -0.4802
vn -0.2579 0.9107 -0.3226
vn 0.0961 0.8282 -0.5521
vn -0.7789 0.4780 0.4059
vn -0.5147 0.8196 0.2517
vn -0.3968 0.9055 -0.1501
vn -0.7993 0.4069 -0.4423
vn -0.8375 0.3567 0.4139
vn -0.6005 0.7454 -0.2895
vn -0.5356 0.8357 -0.1211
vn -0.8531 0.3176 0.4140
vn -0.8352 0.3983 0.3793
vn -0.7025 0.5707 -0.4251
vn -0.7477 0.4978 0.4394
vn -0.2092 0.9774 -0.0312
vn -0.1492 0.5549 -0.8184
vn -0.4466 0.8457 -0.2922
vn -0.5977 0.7383 -0.3124
vn -0.7172 0.6862 0.1217
vn 0.3956 0.8559 -0.3330
vn -0.0710 0.9559 -0.2851
vn 0.5099 0.8388 0.1909
vn 0.7469 0.6498 0.1409
vn -0.4819 0.8705 0.0999
vn -0.0849 0.6439 0.7604
vn 0.1586 0.7763 0.6100
vn -0.3439 0.9390 0.0044
vn 0.3591 0.8406 0.4056
vn -0.2044 0.9699 -0.1324
vn -0.8306 0.2529 0.4961
vn -0.5569 0.2185 0.8013
vn -0.8074 0.5796 -0.1099
vn -0.9001 0.1952 0.3895
vn -0.6605 0.2573 0.7053
vn -0.2470 0.8906 0.3819
vn -0.3781 0.7810 -0.4971
vn 0.0277 0.9883 0.1502
vn 0.2026 0.9765 0.0738
vn -0.1245 0.7826 -0.6100
vn -0.6145 0.7148 -0.3340
vn -0.1335 0.9559 0.2616
vn 0.0441 0.6142 -0.7879
vn 0.3807 0.8661 -0.3240
vn 0.9569 -0.2257 -0.1827
vn 0.8380 0.2818 -0.4672
vn 0.5409 0.2058 -0.8155
vn 0.2190 -0.2373 -0.9464
vn -0.0643 -0.8236 0.5634
vn 0.4917 -0.4568 0.7413
vn 0.6272 -0.4808 0.6127
vn 0.0842 -0.9526 0.2925
vn 0.4718 -0.8699 -0.1435
vn 0.3096 -0.9470 -0.0856
vn 0.5928 -0.5511 0.5872
vn 0.5206 -0.5698 0.6359
vn 0.1500 -0.9840 0.0965
vn 0.6172 -0.5052 0.6032
vn 0.1202 -0.7715 0.6248
vn -0.0754 -0.9530 0.2935
vn -0.4899 -0.6525 -0.5781
vn 0.2870 -0.8859 -0.3645
vn -0.2402 -0.9650 0.1051
vn -0.5373 -0.8283 -0.1587
vn -0.4345 -0.5893 -0.6811
vn -0.4142 -0.5619 -0.7160
vn -0.2008 -0.9782 -0.0529
vn -0.0029 -0.9960 -0.0897
vn -0.4212 -0.6309 -0.6516
vn 0.2051 -0.9553 -0.2131
vn -0.5330 -0.6044 -0.5921
vn -0.4575 -0.8783 0.1386
vn -0.0404 -0.8737 0.4848
vn 0.5516 -0.7907 0.2656
vn -0.2317 -0.8214 -0.5212
vn -0.3198 -0.9475 -0.0022
vn -0.5288 0.7809 -0.3325
vn -0.2772 0.9608 0.0044
vn 0.1127 0.8139 -0.5699
vn -0.1239 0.6871 -0.7159
vn 0.1587 0.8817 0.4443
vn 0.7479 0.6632 -0.0299
vn 0.5649 0.7829 -0.2605
vn 0.0279 0.9573 0.2878
vn 0.3454 0.8263 -0.4448
vn -0.1175 0.9824 0.1452
vn 0.6049 0.1994 0.7709
vn 0.8803 0.1997 0.4304
vn -0.0544 0.6006 0.7977
vn 0.4860 0.1769 0.8558
vn 0.7620 0.2497 0.5975
vn 0.3750 0.9015 0.2159
vn -0.5034 0.7633 0.4049
vn 0.0744 0.9961 -0.0474
vn -0.0719 0.9760 -0.2058
vn -0.6501 0.7406 0.1701
vn -0.3136 0.7176 0.6219
vn 0.2165 0.9713 0.0984
vn -0.8166 0.5772 -0.0105
vn -0.5261 0.7617 -0.3782
vn -0.3351 -0.0581 -0.9404
vn -0.8021 -0.1091 -0.5872
vn -0.8472 -0.2347 -0.4767
vn -0.9847 -0.1269 -0.1198
vn 0.5052 -0.8515 0.1407
vn 0.6762 -0.4368 -0.5932
vn 0.5577 -0.4580 -0.6922
vn 0.3236 -0.9436 -0.0695
vn -0.1489 -0.8959 -0.4185
vn -0.0721 -0.9630 -0.2597
vn 0.5514 -0.5532 -0.6245
vn 0.5876 -0.5767 -0.5676
vn 0.1243 -0.9853 -0.1169
vn 0.5621 -0.5086 -0.6523
vn 0.6039 -0.7787 -0.1699
vn 0.2791 -0.9600 0.0230
vn -0.4973 -0.6522 0.5721
vn -0.3499 -0.9124 -0.2121
vn 0.1535 -0.9584 0.2405
vn -0.1066 -0.8141 0.5708
vn -0.6082 -0.5972 0.5229
vn -0.6545 -0.5656 0.5016
vn 0.0171 -0.9700 0.2423
vn -0.0426 -0.9978 0.0513
vn -0.5782 -0.6371 0.5097
vn -0.1883 -0.9717 -0.1429
vn -0.5109 -0.6327 0.5819
vn 0.3187 -0.8723 0.3709
vn 0.1143 -0.9906 0.0758
vn 0.3238 -0.7819 -0.5327
vn -0.3162 -0.8753 0.3658
vn -0.0547 -0.9984 0.0149
vn 0.1594 0.9523 -0.2602
vn -0.2315 0.9338 -0.2728
vn -0.1103 0.8743 0.4727
vn 0.1847 0.8881 0.4208
vn -0.6962 0.6568 -0.2897
vn -0.7976 0.3888 0.4612
vn -0.5879 0.6158 0.5245
vn -0.5659 0.7799 -0.2676
vn -0.3478 0.7771 0.5245
vn -0.4032 0.8772 -0.2607
vn -0.9628 -0.1111 -0.2463
vn -0.9757 -0.1463 0.1633
vn -0.6641 0.3526 -0.6593
vn -0.9158 -0.1567 -0.3698
vn -0.9933 -0.1138 0.0216
vn -0.7398 0.6679 0.0812
vn -0.2039 0.7478 -0.6318
vn -0.4484 0.8873 0.1080
vn -0.2777 0.9499 0.1437
vn 0.0388 0.8352 -0.5486
vn -0.4396 0.5868 -0.6800
vn -0.6097 0.7883 0.0820
vn 0.3328 0.7735 -0.5394
vn 0.1873 0.9823 0.0080
vn 0.4883 0.6574 0.5739
vn 0.5133 0.1714 0.8409
vn 0.8513 0.0241 -0.5241
vn 0.7059 0.3313 -0.6261
vn -0.1468 -0.9493 0.2779
vn -0.0068 -0.4212 0.9069
vn 0.1840 -0.4018 0.8971
vn 0.2082 -0.9348 0.2876
vn 0.7206 -0.6473 0.2484
vn 0.6048 -0.7769 0.1749
vn 0.1957 -0.5011 0.8430
vn 0.1232 -0.5500 0.8260
vn 0.3922 -0.8996 0.1922
vn 0.1826 -0.4551 0.8715
vn -0.0557 -0.8420 0.5366
vn 0.1043 -0.9804 0.1674
vn 0.3056 -0.5935 -0.7446
vn 0.7535 -0.6563 -0.0381
vn 0.1271 -0.9885 -0.0820
vn 0.0598 -0.8748 -0.4808
vn 0.3865 -0.4938 -0.7790
vn 0.4111 -0.4575 -0.7885
vn 0.2636 -0.9498 -0.1684
vn 0.4217 -0.9053 -0.0512
vn 0.3913 -0.5367 -0.7476
vn 0.6249 -0.7806 0.0112
vn 0.2555 -0.5825 -0.7716
vn -0.1673 -0.9832 -0.0724
vn 0.0958 -0.4873 0.8680
vn -0.1015 -0.5060 0.8566
vn 0.1178 -0.8076 -0.5779
vn 0.4286 -0.7768 -0.4614
vn 0.3989 0.8786 0.2625
vn 0.3025 0.9478 -0.1012
vn -0.1552 0.8562 0.4927
vn -0.0172 0.7297 0.6836
vn -0.0984 0.8707 -0.4818
vn -0.7603 0.6436 -0.0876
vn -0.6111 0.7760 0.1565
vn -0.0038 0.9393 -0.3430
vn -0.4053 0.8412 0.3580
vn 0.1343 0.9695 -0.2051
vn -0.4931 0.2529 -0.8324
vn -0.7993 0.2185 -0.5599
vn 0.1121 0.5812 -0.8060
vn -0.3862 0.1952 -0.9015
vn -0.7029 0.2573 -0.6631
vn -0.3821 0.8907 -0.2464
vn 0.4971 0.7805 -0.3790
vn -0.1513 0.9882 0.0253
vn -0.0511 0.9781 0.2019
vn 0.6178 0.7767 -0.1226
vn 0.3347 0.7169 -0.6116
vn -0.2652 0.9554 -0.1298
vn 0.8403 0.5418 -0.0163
vn 0.4154 0.8550 0.3104
vn 0.2680 -0.1537 0.9511
vn 0.5287 0.3948 0.7514
vn 0.9048 0.1835 0.3843
vn 0.9479 -0.2740 0.1625
vn -0.5733 -0.8183 -0.0426
vn -0.7348 -0.3510 0.5804
vn -0.6064 -0.4417 0.6612
vn -0.2970 -0.9508 0.0885
vn 0.1418 -0.8699 0.4723
vn 0.0845 -0.9470 0.3099
vn -0.5894 -0.5511 0.5907
vn -0.6378 -0.5698 0.5182
vn -0.0986 -0.9837 0.1506
vn -0.6065 -0.5041 0.6148
vn -0.6252 -0.7715 0.1180
vn -0.2932 -0.9530 -0.0765
vn 0.5799 -0.6525 -0.4878
vn 0.3634 -0.8859 0.2883
vn -0.1042 -0.9650 -0.2406
vn 0.1607 -0.8283 -0.5367
vn 0.6827 -0.5895 -0.4318
vn 0.7130 -0.5665 -0.4132
vn 0.0521 -0.9784 -0.1999
vn 0.0894 -0.9960 -0.0028
vn 0.6531 -0.6309 -0.4188
vn 0.2123 -0.9553 0.2059
vn 0.5828 -0.6200 -0.5252
vn -0.1148 -0.8805 -0.4600
vn -0.5356 -0.8440 -0.0276
vn -0.2159 -0.7349 0.6429
vn 0.5353 -0.8189 -0.2071
vn -0.0017 -0.9292 -0.3695
vn -0.0854 0.9899 -0.1136
vn -0.1351 0.9581 0.2527
vn 0.5516 0.8317 0.0636
vn 0.5340 0.8084 -0.2475
vn -0.1377 0.6284 0.7656
vn 0.5972 0.3157 0.7373
vn 0.6574 0.5433 0.5222
vn -0.0645 0.7579 0.6492
vn 0.6307 0.7234 0.2809
vn -0.0742 0.8865 0.4568
vn -0.1237 -0.1402 0.9824
vn 0.2824 -0.1907 0.9402
vn -0.5727 0.3277 0.7514
vn -0.2540 -0.1794 0.9504
vn 0.1456 -0.1538 0.9773
vn 0.1742 0.6256 0.7605
vn -0.5978 0.7475 0.2896
vn 0.1196 0.8822 0.4555
vn 0.1976 0.9461 0.2567
vn -0.5212 0.8518 0.0519
vn -0.6276 0.5671 0.5335
vn 0.1038 0.7548 0.6477
vn -0.5296 0.8077 -0.2592
vn 0.0603 0.9862 -0.1543
vn 0.2987 0.1381 -0.9443
vn -0.1524 0.6246 -0.7659
vn -0.1417 0.4946 -0.8575
vn -0.5507 0.1892 -0.8130
vn 0.2021 -0.9792 0.0203
vn 0.8395 -0.5220 -0.1508
vn 0.8425 -0.4409 -0.3095
vn 0.2174 -0.9363 -0.2757
vn 0.1260 -0.6268 -0.7690
vn 0.0628 -0.7581 -0.6491
vn 0.7891 -0.5232 -0.3219
vn 0.7797 -0.5743 -0.2495
vn 0.1019 -0.8896 -0.4452
vn 0.8207 -0.4790 -0.3115
vn 0.5042 -0.8625 -0.0444
vn 0.1120 -0.9809 -0.1593
vn -0.8017 -0.5535 -0.2256
vn -0.1625 -0.6241 -0.7643
vn -0.1384 -0.9790 -0.1494
vn -0.5201 -0.8537 -0.0264
vn -0.8421 -0.4496 -0.2979
vn -0.8539 -0.4095 -0.3211
vn -0.2389 -0.9324 -0.2713
vn -0.1423 -0.8853 -0.4427
vn -0.8135 -0.4933 -0.3081
vn -0.1022 -0.7551 -0.6476
vn -0.8063 -0.5566 -0.2003
vn -0.1063 -0.9931 0.0498
vn -0.1388 -0.9472 -0.2891
vn 0.4767 -0.7316 -0.4873
vn -0.5003 -0.7876 -0.3598
vn -0.0344 -0.8458 -0.5324
vn 0.1721 0.9764 0.1304
vn 0.2699 0.9346 -0.2315
vn -0.4892 0.8705 -0.0544
vn -0.4587 0.8644 0.2059
vn 0.1597 0.6521 -0.7411
vn -0.5748 0.3370 -0.7457
vn -0.6424 0.5577 -0.5256
vn 0.0824 0.7777 -0.6232
vn -0.6095 0.7446 -0.2722
vn 0.1196 0.9020 -0.4147
vn 0.1549 -0.1095 -0.9818
vn -0.2521 -0.1622 -0.9540
vn 0.5950 0.3520 -0.7225
vn 0.2843 -0.1494 -0.9470
vn -0.1144 -0.1239 -0.9857
vn -0.1522 0.6484 -0.7459
vn 0.5919 0.7686 -0.2429
vn -0.1374 0.8969 -0.4204
vn -0.2976 0.9239 -0.2405
vn 0.4752 0.8799 -0.0078
vn 0.6422 0.5847 -0.4957
vn -0.0858 0.7742 -0.6270
vn 0.5511 0.7917 0.2638
vn -0.0208 0.9824 0.1855
vn -0.3975 0.1582 0.9039
vn 0.0336 0.6240 0.7807
vn 0.3474 0.4531 0.8210
vn 0.6196 0.0816 0.7807
vn -0.3333 -0.9397 -0.0761
vn -0.8989 -0.4279 0.0944
vn -0.8597 -0.4305 0.2748
vn -0.2314 -0.9428 0.2401
vn -0.1481 -0.6505 0.7449
vn -0.0807 -0.7780 0.6231
vn -0.7971 -0.5346 0.2806
vn -0.7853 -0.5835 0.2070
vn -0.1159 -0.9034 0.4129
vn -0.8295 -0.4894 0.2690
vn -0.5025 -0.8646 0.0019
vn -0.1138 -0.9856 0.1253
vn 0.7960 -0.5584 0.2335
vn 0.1404 -0.6470 0.7494
vn 0.1368 -0.9829 0.1234
vn 0.5217 -0.8530 0.0165
vn 0.8345 -0.4560 0.3091
vn 0.8446 -0.4201 0.3320
vn 0.2394 -0.9380 0.2507
vn 0.1336 -0.8984 0.4183
vn 0.8050 -0.5007 0.3182
vn 0.0842 -0.7745 0.6269
vn 0.8237 -0.5359 0.1853
vn 0.2440 -0.9659 -0.0872
vn -0.2605 -0.9652 0.0250
vn -0.5458 -0.6272 0.5556
vn 0.5873 -0.6896 0.4237
vn 0.2564 -0.9551 0.1482
vn -0.2635 0.8190 0.5098
vn 0.0798 0.9608 0.2655
vn -0.5018 0.8438 -0.1904
vn -0.6830 0.7284 0.0543
vn 0.4790 0.8608 -0.1717
vn 0.0860 0.6379 -0.7653
vn -0.1710 0.7777 -0.6049
vn 0.3360 0.9418 -0.0114
vn -0.3604 0.8417 -0.4020
vn 0.2165 0.9681 0.1260
vn 0.7968 0.2463 -0.5518
vn 0.5578 0.1972 -0.8062
vn 0.8175 0.5647 0.1137
vn 0.9277 0.1571 -0.3388
vn 0.7071 0.2144 -0.6738
vn 0.3186 0.8735 -0.3680
vn 0.3876 0.7812 0.4894
vn -0.0215 0.9872 -0.1582
vn -0.1741 0.9844 -0.0269
vn 0.1577 0.7686 0.6199
vn 0.6133 0.7164 0.3328
vn 0.1331 0.9582 -0.2532
vn -0.0521 0.6033 0.7958
vn -0.4158 0.8206 0.3920
vn -0.9637 -0.0292 0.2653
vn -0.6083 -0.0580 0.7916
vn -0.5972 -0.1808 0.7815
vn -0.2170 -0.1092 0.9700
vn 0.1535 -0.8680 -0.4723
vn -0.5248 -0.4404 -0.7284
vn -0.6562 -0.4580 -0.5997
vn -0.0888 -0.9521 -0.2926
vn -0.4653 -0.8700 0.1632
vn -0.3040 -0.9483 0.0910
vn -0.5983 -0.5526 -0.5802
vn -0.5145 -0.5663 -0.6438
vn -0.1514 -0.9839 -0.0946
vn -0.6240 -0.5050 -0.5963
vn -0.1338 -0.7559 -0.6409
vn 0.1255 -0.9403 -0.3163
vn 0.4827 -0.6608 0.5748
vn -0.3003 -0.8838 0.3588
vn 0.1951 -0.9771 -0.0850
vn 0.5232 -0.8423 0.1298
vn 0.4414 -0.5900 0.6760
vn 0.4230 -0.5675 0.7064
vn 0.1993 -0.9789 0.0459
vn 0.0029 -0.9960 0.0888
vn 0.4286 -0.6326 0.6451
vn -0.2043 -0.9561 0.2102
vn 0.5342 -0.6455 0.5459
vn 0.3738 -0.8891 -0.2643
vn 0.0593 -0.9945 -0.0861
vn -0.5083 -0.7775 -0.3702
vn 0.3341 -0.8793 0.3395
vn -0.0204 -0.9964 0.0825
vn -0.1917 0.9701 0.1486
vn 0.2330 0.9502 0.2070
vn 0.1020 0.8474 -0.5210
vn -0.2152 0.8566 -0.4690
vn 0.7192 0.6585 0.2218
vn 0.7810 0.3515 -0.5162
vn 0.5678 0.5795 -0.5846
vn 0.5986 0.7801 0.1820
vn 0.3269 0.7481 -0.5775
vn 0.4243 0.8863 0.1855
vn 0.9707 -0.1095 0.2138
vn 0.9675 -0.1622 -0.1941
vn 0.6898 0.3671 0.6240
vn 0.9282 -0.1494 0.3409
vn 0.9908 -0.1239 -0.0547
vn 0.7457 0.6539 -0.1280
vn 0.2283 0.7734 0.5913
vn 0.4530 0.8779 -0.1553
vn 0.2644 0.9439 -0.1977
vn -0.0067 0.8582 0.5132
vn 0.4648 0.6070 0.6447
vn 0.6233 0.7733 -0.1163
vn -0.3169 0.8073 0.4978
vn -0.2185 0.9740 -0.0593
vn -0.8235 0.2825 -0.4920
vn -0.9364 0.3239 0.1348
vn -0.9690 0.2035 0.1401
vn -0.8087 0.2321 0.5405
vn 0.0845 -0.9767 -0.1975
vn -0.0413 -0.4900 -0.8707
vn -0.2219 -0.4381 -0.8711
vn -0.2258 -0.9444 -0.2390
vn -0.7346 -0.6505 -0.1927
vn -0.6171 -0.7780 -0.1181
vn -0.2320 -0.5346 -0.8126
vn -0.1593 -0.5835 -0.7963
vn -0.4063 -0.9032 -0.1383
vn -0.2197 -0.4900 -0.8436
vn 0.0285 -0.8646 -0.5017
vn -0.1183 -0.9856 -0.1211
vn -0.2811 -0.5584 0.7804
vn -0.7565 -0.6470 0.0950
vn -0.1314 -0.9829 0.1291
vn -0.0479 -0.8530 0.5198
vn -0.3600 -0.4566 0.8136
vn -0.3840 -0.4202 0.8222
vn -0.2634 -0.9397 0.2181
vn -0.4264 -0.8983 0.1058
vn -0.3662 -0.5007 0.7843
vn -0.6308 -0.7745 0.0462
vn -0.2336 -0.5656 0.7909
vn 0.0897 -0.9893 0.1149
vn -0.2720 -0.9621 0.0187
vn -0.3865 -0.7070 -0.5922
vn -0.3181 -0.7988 0.5106
vn -0.4359 -0.8962 0.0822
vt 0.044742 0.376531
vt 0.555078 0.328906
s 1
usemtl BASE_MATERIAL
f 8/1/1 37/1/2 10/1/3 1/1/4
f 3/1/5 17/1/6 21/1/7 4/1/8
f 4/1/8 21/1/7 25/1/9 5/1/10
f 5/1/10 25/1/9 29/1/11 6/1/12
f 6/1/12 29/1/11 33/1/13 7/1/14
f 7/1/14 33/1/13 37/1/2 8/1/1
f 38/1/15 63/1/16 41/1/17 9/1/18
f 1/1/4 10/1/3 13/1/19 2/1/20
f 2/1/20 13/1/19 17/1/6 3/1/5
f 34/1/21 60/1/22 63/1/16 38/1/15
f 30/1/23 57/1/24 60/1/22 34/1/21
f 26/1/25 54/1/26 57/1/24 30/1/23
f 22/1/27 51/1/28 54/1/26 26/1/25
f 18/1/29 48/1/30 51/1/28 22/1/27
f 44/1/31 42/1/31 62/1/31 59/1/31 56/1/31 53/1/31 50/1/31 47/1/31
f 38/1/15 9/1/18 11/1/32 40/1/33
f 40/1/33 11/1/32 12/1/34 39/1/35
f 39/1/35 12/1/34 10/1/3 37/1/2
f 34/1/21 38/1/15 40/1/33 36/1/36
f 36/1/36 40/1/33 39/1/35 35/1/37
f 35/1/37 39/1/35 37/1/2 33/1/13
f 30/1/23 34/1/21 36/1/36 32/1/38
f 32/1/38 36/1/36 35/1/37 31/1/39
f 31/1/39 35/1/37 33/1/13 29/1/11
f 26/1/25 30/1/23 32/1/38 28/1/40
f 28/1/40 32/1/38 31/1/39 27/1/41
f 27/1/41 31/1/39 29/1/11 25/1/9
f 22/1/27 26/1/25 28/1/40 24/1/42
f 24/1/42 28/1/40 27/1/41 23/1/43
f 23/1/43 27/1/41 25/1/9 21/1/7
f 18/1/29 22/1/27 24/1/42 20/1/44
f 20/1/44 24/1/42 23/1/43 19/1/45
f 19/1/45 23/1/43 21/1/7 17/1/6
f 14/1/46 18/1/29 20/1/44 16/1/47
f 16/1/47 20/1/44 19/1/45 15/1/48
f 15/1/48 19/1/45 17/1/6 13/1/19
f 9/1/18 14/1/46 16/1/47 11/1/32
f 11/1/32 16/1/47 15/1/48 12/1/34
f 12/1/34 15/1/48 13/1/19 10/1/3
f 14/1/46 45/1/49 48/1/30 18/1/29
f 45/1/49 41/1/17 43/1/50 46/1/51
f 46/1/51 43/1/50 42/1/52 44/1/53
f 48/1/30 45/1/49 46/1/51 49/1/54
f 49/1/54 46/1/51 44/1/53 47/1/55
f 51/1/28 48/1/30 49/1/54 52/1/56
f 52/1/56 49/1/54 47/1/55 50/1/57
f 54/1/26 51/1/28 52/1/56 55/1/58
f 55/1/58 52/1/56 50/1/57 53/1/59
f 57/1/24 54/1/26 55/1/58 58/1/60
f 58/1/60 55/1/58 53/1/59 56/1/61
f 60/1/22 57/1/24 58/1/60 61/1/62
f 61/1/62 58/1/60 56/1/61 59/1/63
f 63/1/16 60/1/22 61/1/62 64/1/64
f 64/1/64 61/1/62 59/1/63 62/1/65
f 41/1/17 63/1/16 64/1/64 43/1/50
f 43/1/50 64/1/64 62/1/65 42/1/52
f 9/1/18 41/1/17 45/1/49 14/1/46
f 77/2/66 82/2/67 73/2/68 67/2/69
f 79/2/70 74/2/71 76/2/72 80/2/73
f 80/2/73 76/2/72 75/2/74 81/2/75
f 81/2/75 75/2/74 73/2/68 82/2/67
f 79/2/70 78/2/76 68/2/77 74/2/71
f 69/2/78 66/2/79 78/2/80 79/2/81
f 72/2/82 81/2/83 82/2/84 70/2/85
f 71/2/86 80/2/87 81/2/83 72/2/82
f 69/2/78 79/2/81 80/2/87 71/2/86
f 65/2/88 70/2/85 82/2/84 77/2/89
f 77/2/66 67/2/69 84/2/90 85/2/91
f 65/2/88 77/2/89 85/2/92 83/2/93
f 98/2/94 88/2/95 94/2/96 103/2/97
f 100/2/98 101/2/99 97/2/100 95/2/101
f 101/2/99 102/2/102 96/2/103 97/2/100
f 102/2/102 103/2/97 94/2/96 96/2/103
f 100/2/98 95/2/101 89/2/104 99/2/105
f 90/2/106 100/2/107 99/2/108 87/2/109
f 93/2/110 91/2/111 103/2/112 102/2/113
f 92/2/114 93/2/110 102/2/113 101/2/115
f 90/2/106 92/2/114 101/2/115 100/2/107
f 86/2/116 98/2/117 103/2/112 91/2/111
f 98/2/94 106/2/118 105/2/119 88/2/95
f 86/2/116 104/2/120 106/2/121 98/2/117
f 68/2/77 78/2/76 99/2/105 89/2/104
f 69/2/78 71/2/86 92/2/114 90/2/106
f 76/2/72 74/2/71 95/2/101 97/2/100
f 71/2/86 72/2/82 93/2/110 92/2/114
f 75/2/74 76/2/72 97/2/100 96/2/103
f 72/2/82 70/2/85 91/2/111 93/2/110
f 73/2/68 75/2/74 96/2/103 94/2/96
f 66/2/79 69/2/78 90/2/106 87/2/109
f 74/2/71 68/2/77 89/2/104 95/2/101
f 70/2/85 65/2/88 86/2/116 91/2/111
f 67/2/69 73/2/68 94/2/96 88/2/95
f 78/2/80 66/2/79 87/2/109 99/2/108
f 83/2/93 85/2/92 106/2/121 104/2/120
f 85/2/91 84/2/90 105/2/119 106/2/118
f 84/2/90 67/2/69 88/2/95 105/2/119
f 65/2/88 83/2/93 104/2/120 86/2/116
f 119/2/122 124/2/123 115/2/124 109/2/125
f 121/2/126 116/2/127 118/2/128 122/2/129
f 122/2/129 118/2/128 117/2/130 123/2/131
f 123/2/131 117/2/130 115/2/124 124/2/123
f 121/2/126 120/2/132 110/2/133 116/2/127
f 111/2/134 108/2/135 120/2/136 121/2/137
f 114/2/138 123/2/139 124/2/140 112/2/141
f 113/2/142 122/2/143 123/2/139 114/2/138
f 111/2/134 121/2/137 122/2/143 113/2/142
f 107/2/144 112/2/141 124/2/140 119/2/145
f 119/2/122 109/2/125 126/2/146 127/2/147
f 107/2/144 119/2/145 127/2/148 125/2/149
f 140/2/150 130/2/151 136/2/152 145/2/153
f 142/2/154 143/2/155 139/2/156 137/2/157
f 143/2/155 144/2/158 138/2/159 139/2/156
f 144/2/158 145/2/153 136/2/152 138/2/159
f 142/2/154 137/2/157 131/2/160 141/2/161
f 132/2/162 142/2/163 141/2/164 129/2/165
f 135/2/166 133/2/167 145/2/168 144/2/169
f 134/2/170 135/2/166 144/2/169 143/2/171
f 132/2/162 134/2/170 143/2/171 142/2/163
f 128/2/172 140/2/173 145/2/168 133/2/167
f 140/2/150 148/2/174 147/2/175 130/2/151
f 128/2/172 146/2/176 148/2/177 140/2/173
f 110/2/133 120/2/132 141/2/161 131/2/160
f 111/2/134 113/2/142 134/2/170 132/2/162
f 118/2/128 116/2/127 137/2/157 139/2/156
f 113/2/142 114/2/138 135/2/166 134/2/170
f 117/2/130 118/2/128 139/2/156 138/2/159
f 114/2/138 112/2/141 133/2/167 135/2/166
f 115/2/124 117/2/130 138/2/159 136/2/152
f 108/2/135 111/2/134 132/2/162 129/2/165
f 116/2/127 110/2/133 131/2/160 137/2/157
f 112/2/141 107/2/144 128/2/172 133/2/167
f 109/2/125 115/2/124 136/2/152 130/2/151
f 120/2/136 108/2/135 129/2/165 141/2/164
f 125/2/149 127/2/148 148/2/177 146/2/176
f 127/2/147 126/2/146 147/2/175 148/2/174
f 126/2/146 109/2/125 130/2/151 147/2/175
f 107/2/144 125/2/149 146/2/176 128/2/172
f 161/2/178 151/2/179 157/2/180 166/2/181
f 163/2/182 164/2/183 160/2/184 158/2/185
f 164/2/183 165/2/186 159/2/187 160/2/184
f 165/2/186 166/2/181 157/2/180 159/2/187
f 163/2/182 158/2/185 152/2/188 162/2/189
f 153/2/190 163/2/191 162/2/192 150/2/193
f 156/2/194 154/2/195 166/2/196 165/2/197
f 155/2/198 156/2/194 165/2/197 164/2/199
f 153/2/190 155/2/198 164/2/199 163/2/191
f 149/2/200 161/2/201 166/2/196 154/2/195
f 161/2/178 169/2/202 168/2/203 151/2/179
f 149/2/200 167/2/204 169/2/205 161/2/201
f 182/2/206 187/2/207 178/2/208 172/2/209
f 184/2/210 179/2/211 181/2/212 185/2/213
f 185/2/213 181/2/212 180/2/214 186/2/215
f 186/2/215 180/2/214 178/2/208 187/2/207
f 184/2/210 183/2/216 173/2/217 179/2/211
f 174/2/218 171/2/219 183/2/220 184/2/221
f 177/2/222 186/2/223 187/2/224 175/2/225
f 176/2/226 185/2/227 186/2/223 177/2/222
f 174/2/218 184/2/221 185/2/227 176/2/226
f 170/2/228 175/2/225 187/2/224 182/2/229
f 182/2/206 172/2/209 189/2/230 190/2/231
f 170/2/228 182/2/229 190/2/232 188/2/233
f 152/2/188 173/2/217 183/2/216 162/2/189
f 153/2/190 174/2/218 176/2/226 155/2/198
f 160/2/184 181/2/212 179/2/211 158/2/185
f 155/2/198 176/2/226 177/2/222 156/2/194
f 159/2/187 180/2/214 181/2/212 160/2/184
f 156/2/194 177/2/222 175/2/225 154/2/195
f 157/2/180 178/2/208 180/2/214 159/2/187
f 150/2/193 171/2/219 174/2/218 153/2/190
f 158/2/185 179/2/211 173/2/217 152/2/188
f 154/2/195 175/2/225 170/2/228 149/2/200
f 151/2/179 172/2/209 178/2/208 157/2/180
f 162/2/192 183/2/220 171/2/219 150/2/193
f 167/2/204 188/2/233 190/2/232 169/2/205
f 169/2/202 190/2/231 189/2/230 168/2/203
f 168/2/203 189/2/230 172/2/209 151/2/179
f 149/2/200 170/2/228 188/2/233 167/2/204
f 203/2/234 193/2/235 199/2/236 208/2/237
f 205/2/238 206/2/239 202/2/240 200/2/241
f 206/2/239 207/2/242 201/2/243 202/2/240
f 207/2/242 208/2/237 199/2/236 201/2/243
f 205/2/238 200/2/241 194/2/244 204/2/245
f 195/2/246 205/2/247 204/2/248 192/2/249
f 198/2/250 196/2/251 208/2/252 207/2/253
f 197/2/254 198/2/250 207/2/253 206/2/255
f 195/2/246 197/2/254 206/2/255 205/2/247
f 191/2/256 203/2/257 208/2/252 196/2/251
f 203/2/234 211/2/258 210/2/259 193/2/235
f 191/2/256 209/2/260 211/2/261 203/2/257
f 224/2/262 229/2/263 220/2/264 214/2/265
f 226/2/266 221/2/267 223/2/268 227/2/269
f 227/2/269 223/2/268 222/2/270 228/2/271
f 228/2/271 222/2/270 220/2/264 229/2/263
f 226/2/266 225/2/272 215/2/273 221/2/267
f 216/2/274 213/2/275 225/2/276 226/2/277
f 219/2/278 228/2/279 229/2/280 217/2/281
f 218/2/282 227/2/283 228/2/279 219/2/278
f 216/2/274 226/2/277 227/2/283 218/2/282
f 212/2/284 217/2/281 229/2/280 224/2/285
f 224/2/262 214/2/265 231/2/286 232/2/287
f 212/2/284 224/2/285 232/2/288 230/2/289
f 194/2/244 215/2/273 225/2/272 204/2/245
f 195/2/246 216/2/274 218/2/282 197/2/254
f 202/2/240 223/2/268 221/2/267 200/2/241
f 197/2/254 218/2/282 219/2/278 198/2/250
f 201/2/243 222/2/270 223/2/268 202/2/240
f 198/2/250 219/2/278 217/2/281 196/2/251
f 199/2/236 220/2/264 222/2/270 201/2/243
f 192/2/249 213/2/275 216/2/274 195/2/246
f 200/2/241 221/2/267 215/2/273 194/2/244
f 196/2/251 217/2/281 212/2/284 191/2/256
f 193/2/235 214/2/265 220/2/264 199/2/236
f 204/2/248 225/2/276 213/2/275 192/2/249
f 209/2/260 230/2/289 232/2/288 211/2/261
f 211/2/258 232/2/287 231/2/286 210/2/259
f 210/2/259 231/2/286 214/2/265 193/2/235
f 191/2/256 212/2/284 230/2/289 209/2/260
f 245/2/290 250/2/291 241/2/292 235/2/293
f 247/2/294 242/2/295 244/2/296 248/2/297
f 248/2/297 244/2/296 243/2/298 249/2/299
f 249/2/299 243/2/298 241/2/292 250/2/291
f 247/2/294 246/2/300 236/2/301 242/2/295
f 237/2/302 234/2/303 246/2/304 247/2/305
f 240/2/306 249/2/307 250/2/308 238/2/309
f 239/2/310 248/2/311 249/2/307 240/2/306
f 237/2/302 247/2/305 248/2/311 239/2/310
f 233/2/312 238/2/309 250/2/308 245/2/313
f 245/2/290 235/2/293 252/2/314 253/2/315
f 233/2/312 245/2/313 253/2/316 251/2/317
f 266/2/318 256/2/319 262/2/320 271/2/321
f 268/2/322 269/2/323 265/2/324 263/2/325
f 269/2/323 270/2/326 264/2/327 265/2/324
f 270/2/326 271/2/321 262/2/320 264/2/327
f 268/2/322 263/2/325 257/2/328 267/2/329
f 258/2/330 268/2/331 267/2/332 255/2/333
f 261/2/334 259/2/335 271/2/336 270/2/337
f 260/2/338 261/2/334 270/2/337 269/2/339
f 258/2/330 260/2/338 269/2/339 268/2/331
f 254/2/340 266/2/341 271/2/336 259/2/335
f 266/2/318 274/2/342 273/2/343 256/2/319
f 254/2/340 272/2/344 274/2/345 266/2/341
f 236/2/301 246/2/300 267/2/329 257/2/328
f 237/2/302 239/2/310 260/2/338 258/2/330
f 244/2/296 242/2/295 263/2/325 265/2/324
f 239/2/310 240/2/306 261/2/334 260/2/338
f 243/2/298 244/2/296 265/2/324 264/2/327
f 240/2/306 238/2/309 259/2/335 261/2/334
f 241/2/292 243/2/298 264/2/327 262/2/320
f 234/2/303 237/2/302 258/2/330 255/2/333
f 242/2/295 236/2/301 257/2/328 263/2/325
f 238/2/309 233/2/312 254/2/340 259/2/335
f 235/2/293 241/2/292 262/2/320 256/2/319
f 246/2/304 234/2/303 255/2/333 267/2/332
f 251/2/317 253/2/316 274/2/345 272/2/344
f 253/2/315 252/2/314 273/2/343 274/2/342
f 252/2/314 235/2/293 256/2/319 273/2/343
f 233/2/312 251/2/317 272/2/344 254/2/340
f 287/2/346 292/2/347 283/2/348 277/2/349
f 289/2/350 284/2/351 286/2/352 290/2/353
f 290/2/353 286/2/352 285/2/354 291/2/355
f 291/2/355 285/2/354 283/2/348 292/2/347
f 289/2/350 288/2/356 278/2/357 284/2/351
f 279/2/358 276/2/359 288/2/360 289/2/361
f 282/2/362 291/2/363 292/2/364 280/2/365
f 281/2/366 290/2/367 291/2/363 282/2/362
f 279/2/358 289/2/361 290/2/367 281/2/366
f 275/2/368 280/2/365 292/2/364 287/2/369
f 287/2/346 277/2/349 294/2/370 295/2/371
f 275/2/368 287/2/369 295/2/372 293/2/373
f 308/2/374 298/2/375 304/2/376 313/2/377
f 310/2/378 311/2/379 307/2/380 305/2/381
f 311/2/379 312/2/382 306/2/383 307/2/380
f 312/2/382 313/2/377 304/2/376 306/2/383
f 310/2/378 305/2/381 299/2/384 309/2/385
f 300/2/386 310/2/387 309/2/388 297/2/389
f 303/2/390 301/2/391 313/2/392 312/2/393
f 302/2/394 303/2/390 312/2/393 311/2/395
f 300/2/386 302/2/394 311/2/395 310/2/387
f 296/2/396 308/2/397 313/2/392 301/2/391
f 308/2/374 316/2/398 315/2/399 298/2/375
f 296/2/396 314/2/400 316/2/401 308/2/397
f 278/2/357 288/2/356 309/2/385 299/2/384
f 279/2/358 281/2/366 302/2/394 300/2/386
f 286/2/352 284/2/351 305/2/381 307/2/380
f 281/2/366 282/2/362 303/2/390 302/2/394
f 285/2/354 286/2/352 307/2/380 306/2/383
f 282/2/362 280/2/365 301/2/391 303/2/390
f 283/2/348 285/2/354 306/2/383 304/2/376
f 276/2/359 279/2/358 300/2/386 297/2/389
f 284/2/351 278/2/357 299/2/384 305/2/381
f 280/2/365 275/2/368 296/2/396 301/2/391
f 277/2/349 283/2/348 304/2/376 298/2/375
f 288/2/360 276/2/359 297/2/389 309/2/388
f 293/2/373 295/2/372 316/2/401 314/2/400
f 295/2/371 294/2/370 315/2/399 316/2/398
f 294/2/370 277/2/349 298/2/375 315/2/399
f 275/2/368 293/2/373 314/2/400 296/2/396
f 329/2/402 334/2/403 325/2/404 319/2/405
f 331/2/406 326/2/407 328/2/408 332/2/409
f 332/2/409 328/2/408 327/2/410 333/2/411
f 333/2/411 327/2/410 325/2/404 334/2/403
f 331/2/406 330/2/412 320/2/413 326/2/407
f 321/2/414 318/2/415 330/2/416 331/2/417
f 324/2/418 333/2/419 334/2/420 322/2/421
f 323/2/422 332/2/423 333/2/419 324/2/418
f 321/2/414 331/2/417 332/2/423 323/2/422
f 317/2/424 322/2/421 334/2/420 329/2/425
f 329/2/402 319/2/405 336/2/426 337/2/427
f 317/2/424 329/2/425 337/2/428 335/2/429
f 350/2/430 340/2/431 346/2/432 355/2/433
f 352/2/434 353/2/435 349/2/436 347/2/437
f 353/2/435 354/2/438 348/2/439 349/2/436
f 354/2/438 355/2/433 346/2/432 348/2/439
f 352/2/434 347/2/437 341/2/440 351/2/441
f 342/2/442 352/2/443 351/2/444 339/2/445
f 345/2/446 343/2/447 355/2/448 354/2/449
f 344/2/450 345/2/446 354/2/449 353/2/451
f 342/2/442 344/2/450 353/2/451 352/2/443
f 338/2/452 350/2/453 355/2/448 343/2/447
f 350/2/430 358/2/454 357/2/455 340/2/431
f 338/2/452 356/2/456 358/2/457 350/2/453
f 320/2/413 330/2/412 351/2/441 341/2/440
f 321/2/414 323/2/422 344/2/450 342/2/442
f 328/2/408 326/2/407 347/2/437 349/2/436
f 323/2/422 324/2/418 345/2/446 344/2/450
f 327/2/410 328/2/408 349/2/436 348/2/439
f 324/2/418 322/2/421 343/2/447 345/2/446
f 325/2/404 327/2/410 348/2/439 346/2/432
f 318/2/415 321/2/414 342/2/442 339/2/445
f 326/2/407 320/2/413 341/2/440 347/2/437
f 322/2/421 317/2/424 338/2/452 343/2/447
f 319/2/405 325/2/404 346/2/432 340/2/431
f 330/2/416 318/2/415 339/2/445 351/2/444
f 335/2/429 337/2/428 358/2/457 356/2/456
f 337/2/427 336/2/426 357/2/455 358/2/454
f 336/2/426 319/2/405 340/2/431 357/2/455
f 317/2/424 335/2/429 356/2/456 338/2/452
f 371/2/458 376/2/459 367/2/460 361/2/461
f 373/2/462 368/2/463 370/2/464 374/2/465
f 374/2/465 370/2/464 369/2/466 375/2/467
f 375/2/467 369/2/466 367/2/460 376/2/459
f 373/2/462 372/2/468 362/2/469 368/2/463
f 363/2/470 360/2/471 372/2/472 373/2/473
f 366/2/474 375/2/475 376/2/476 364/2/477
f 365/2/478 374/2/479 375/2/475 366/2/474
f 363/2/470 373/2/473 374/2/479 365/2/478
f 359/2/480 364/2/477 376/2/476 371/2/481
f 371/2/458 361/2/461 378/2/482 379/2/483
f 359/2/480 371/2/481 379/2/484 377/2/485
f 392/2/486 382/2/487 388/2/488 397/2/489
f 394/2/490 395/2/491 391/2/492 389/2/493
f 395/2/491 396/2/494 390/2/495 391/2/492
f 396/2/494 397/2/489 388/2/488 390/2/495
f 394/2/490 389/2/493 383/2/496 393/2/497
f 384/2/498 394/2/499 393/2/500 381/2/501
f 387/2/502 385/2/503 397/2/504 396/2/505
f 386/2/506 387/2/502 396/2/505 395/2/507
f 384/2/498 386/2/506 395/2/507 394/2/499
f 380/2/508 392/2/509 397/2/504 385/2/503
f 392/2/486 400/2/510 399/2/511 382/2/487
f 380/2/508 398/2/512 400/2/513 392/2/509
f 362/2/469 372/2/468 393/2/497 383/2/496
f 363/2/470 365/2/478 386/2/506 384/2/498
f 370/2/464 368/2/463 389/2/493 391/2/492
f 365/2/478 366/2/474 387/2/502 386/2/506
f 369/2/466 370/2/464 391/2/492 390/2/495
f 366/2/474 364/2/477 385/2/503 387/2/502
f 367/2/460 369/2/466 390/2/495 388/2/488
f 360/2/471 363/2/470 384/2/498 381/2/501
f 368/2/463 362/2/469 383/2/496 389/2/493
f 364/2/477 359/2/480 380/2/508 385/2/503
f 361/2/461 367/2/460 388/2/488 382/2/487
f 372/2/472 360/2/471 381/2/501 393/2/500
f 377/2/485 379/2/484 400/2/513 398/2/512
f 379/2/483 378/2/482 399/2/511 400/2/510
f 378/2/482 361/2/461 382/2/487 399/2/511
f 359/2/480 377/2/485 398/2/512 380/2/508
f 413/2/514 418/2/515 409/2/516 403/2/517
f 415/2/518 410/2/519 412/2/520 416/2/521
f 416/2/521 412/2/520 411/2/522 417/2/523
f 417/2/523 411/2/522 409/2/516 418/2/515
f 415/2/518 414/2/524 404/2/525 410/2/519
f 405/2/526 402/2/527 414/2/528 415/2/529
f 408/2/530 417/2/531 418/2/532 406/2/533
f 407/2/534 416/2/535 417/2/531 408/2/530
f 405/2/526 415/2/529 416/2/535 407/2/534
f 401/2/536 406/2/533 418/2/532 413/2/537
f 413/2/514 403/2/517 420/2/538 421/2/539
f 401/2/536 413/2/537 421/2/540 419/2/541
f 434/2/542 424/2/543 430/2/544 439/2/545
f 436/2/546 437/2/547 433/2/548 431/2/549
f 437/2/547 438/2/550 432/2/551 433/2/548
f 438/2/550 439/2/545 430/2/544 432/2/551
f 436/2/546 431/2/549 425/2/552 435/2/553
f 426/2/554 436/2/555 435/2/556 423/2/557
f 429/2/558 427/2/559 439/2/560 438/2/561
f 428/2/562 429/2/558 438/2/561 437/2/563
f 426/2/554 428/2/562 437/2/563 436/2/555
f 422/2/564 434/2/565 439/2/560 427/2/559
f 434/2/542 442/2/566 441/2/567 424/2/543
f 422/2/564 440/2/568 442/2/569 434/2/565
f 404/2/525 414/2/524 435/2/553 425/2/552
f 405/2/526 407/2/534 428/2/562 426/2/554
f 412/2/520 410/2/519 431/2/549 433/2/548
f 407/2/534 408/2/530 429/2/558 428/2/562
f 411/2/522 412/2/520 433/2/548 432/2/551
f 408/2/530 406/2/533 427/2/559 429/2/558
f 409/2/516 411/2/522 432/2/551 430/2/544
f 402/2/527 405/2/526 426/2/554 423/2/557
f 410/2/519 404/2/525 425/2/552 431/2/549
f 406/2/533 401/2/536 422/2/564 427/2/559
f 403/2/517 409/2/516 430/2/544 424/2/543
f 414/2/528 402/2/527 423/2/557 435/2/556
f 419/2/541 421/2/540 442/2/569 440/2/568
f 421/2/539 420/2/538 441/2/567 442/2/566
f 420/2/538 403/2/517 424/2/543 441/2/567
f 401/2/536 419/2/541 440/2/568 422/2/564
f 455/2/570 460/2/571 451/2/572 445/2/573
f 457/2/574 452/2/575 454/2/576 458/2/577
f 458/2/577 454/2/576 453/2/578 459/2/579
f 459/2/579 453/2/578 451/2/572 460/2/571
f 457/2/574 456/2/580 446/2/581 452/2/575
f 447/2/582 444/2/583 456/2/584 457/2/585
f 450/2/586 459/2/587 460/2/588 448/2/589
f 449/2/590 458/2/591 459/2/587 450/2/586
f 447/2/582 457/2/585 458/2/591 449/2/590
f 443/2/592 448/2/589 460/2/588 455/2/593
f 455/2/570 445/2/573 462/2/594 463/2/595
f 443/2/592 455/2/593 463/2/596 461/2/597
f 476/2/598 466/2/599 472/2/600 481/2/601
f 478/2/602 479/2/603 475/2/604 473/2/605
f 479/2/603 480/2/606 474/2/607 475/2/604
f 480/2/606 481/2/601 472/2/600 474/2/607
f 478/2/602 473/2/605 467/2/608 477/2/609
f 468/2/610 478/2/611 477/2/612 465/2/613
f 471/2/614 469/2/615 481/2/616 480/2/617
f 470/2/618 471/2/614 480/2/617 479/2/619
f 468/2/610 470/2/618 479/2/619 478/2/611
f 464/2/620 476/2/621 481/2/616 469/2/615
f 476/2/598 484/2/622 483/2/623 466/2/599
f 464/2/620 482/2/624 484/2/625 476/2/621
f 446/2/581 456/2/580 477/2/609 467/2/608
f 447/2/582 449/2/590 470/2/618 468/2/610
f 454/2/576 452/2/575 473/2/605 475/2/604
f 449/2/590 450/2/586 471/2/614 470/2/618
f 453/2/578 454/2/576 475/2/604 474/2/607
f 450/2/586 448/2/589 469/2/615 471/2/614
f 451/2/572 453/2/578 474/2/607 472/2/600
f 444/2/583 447/2/582 468/2/610 465/2/613
f 452/2/575 446/2/581 467/2/608 473/2/605
f 448/2/589 443/2/592 464/2/620 469/2/615
f 445/2/573 451/2/572 472/2/600 466/2/599
f 456/2/584 444/2/583 465/2/613 477/2/612
f 461/2/597 463/2/596 484/2/625 482/2/624
f 463/2/595 462/2/594 483/2/623 484/2/622
f 462/2/594 445/2/573 466/2/599 483/2/623
f 443/2/592 461/2/597 482/2/624 464/2/620
f 497/2/626 502/2/627 493/2/628 487/2/629
f 499/2/630 494/2/631 496/2/632 500/2/633
f 500/2/633 496/2/632 495/2/634 501/2/635
f 501/2/635 495/2/634 493/2/628 502/2/627
f 499/2/630 498/2/636 488/2/637 494/2/631
f 489/2/638 486/2/639 498/2/640 499/2/641
f 492/2/642 501/2/643 502/2/644 490/2/645
f 491/2/646 500/2/647 501/2/643 492/2/642
f 489/2/638 499/2/641 500/2/647 491/2/646
f 485/2/648 490/2/645 502/2/644 497/2/649
f 497/2/626 487/2/629 504/2/650 505/2/651
f 485/2/648 497/2/649 505/2/652 503/2/653
f 518/2/654 508/2/655 514/2/656 523/2/657
f 520/2/658 521/2/659 517/2/660 515/2/661
f 521/2/659 522/2/662 516/2/663 517/2/660
f 522/2/662 523/2/657 514/2/656 516/2/663
f 520/2/658 515/2/661 509/2/664 519/2/665
f 510/2/666 520/2/667 519/2/668 507/2/669
f 513/2/670 511/2/671 523/2/672 522/2/673
f 512/2/674 513/2/670 522/2/673 521/2/675
f 510/2/666 512/2/674 521/2/675 520/2/667
f 506/2/676 518/2/677 523/2/672 511/2/671
f 518/2/654 526/2/678 525/2/679 508/2/655
f 506/2/676 524/2/680 526/2/681 518/2/677
f 488/2/637 498/2/636 519/2/665 509/2/664
f 489/2/638 491/2/646 512/2/674 510/2/666
f 496/2/632 494/2/631 515/2/661 517/2/660
f 491/2/646 492/2/642 513/2/670 512/2/674
f 495/2/634 496/2/632 517/2/660 516/2/663
f 492/2/642 490/2/645 511/2/671 513/2/670
f 493/2/628 495/2/634 516/2/663 514/2/656
f 486/2/639 489/2/638 510/2/666 507/2/669
f 494/2/631 488/2/637 509/2/664 515/2/661
f 490/2/645 485/2/648 506/2/676 511/2/671
f 487/2/629 493/2/628 514/2/656 508/2/655
f 498/2/640 486/2/639 507/2/669 519/2/668
f 503/2/653 505/2/652 526/2/681 524/2/680
f 505/2/651 504/2/650 525/2/679 526/2/678
f 504/2/650 487/2/629 508/2/655 525/2/679
f 485/2/648 503/2/653 524/2/680 506/2/676
f 539/2/682 544/2/683 535/2/684 529/2/685
f 541/2/686 536/2/687 538/2/688 542/2/689
f 542/2/689 538/2/688 537/2/690 543/2/691
f 543/2/691 537/2/690 535/2/684 544/2/683
f 541/2/686 540/2/692 530/2/693 536/2/687
f 531/2/694 528/2/695 540/2/696 541/2/697
f 534/2/698 543/2/699 544/2/700 532/2/701
f 533/2/702 542/2/703 543/2/699 534/2/698
f 531/2/694 541/2/697 542/2/703 533/2/702
f 527/2/704 532/2/701 544/2/700 539/2/705
f 539/2/682 529/2/685 546/2/706 547/2/707
f 527/2/704 539/2/705 547/2/708 545/2/709
f 560/2/710 550/2/711 556/2/712 565/2/713
f 562/2/714 563/2/715 559/2/716 557/2/717
f 563/2/715 564/2/718 558/2/719 559/2/716
f 564/2/718 565/2/713 556/2/712 558/2/719
f 562/2/714 557/2/717 551/2/720 561/2/721
f 552/2/722 562/2/723 561/2/724 549/2/725
f 555/2/726 553/2/727 565/2/728 564/2/729
f 554/2/730 555/2/726 564/2/729 563/2/731
f 552/2/722 554/2/730 563/2/731 562/2/723
f 548/2/732 560/2/733 565/2/728 553/2/727
f 560/2/710 568/2/734 567/2/735 550/2/711
f 548/2/732 566/2/736 568/2/737 560/2/733
f 530/2/693 540/2/692 561/2/721 551/2/720
f 531/2/694 533/2/702 554/2/730 552/2/722
f 538/2/688 536/2/687 557/2/717 559/2/716
f 533/2/702 534/2/698 555/2/726 554/2/730
f 537/2/690 538/2/688 559/2/716 558/2/719
f 534/2/698 532/2/701 553/2/727 555/2/726
f 535/2/684 537/2/690 558/2/719 556/2/712
f 528/2/695 531/2/694 552/2/722 549/2/725
f 536/2/687 530/2/693 551/2/720 557/2/717
f 532/2/701 527/2/704 548/2/732 553/2/727
f 529/2/685 535/2/684 556/2/712 550/2/711
f 540/2/696 528/2/695 549/2/725 561/2/724
f 545/2/709 547/2/708 568/2/737 566/2/736
f 547/2/707 546/2/706 567/2/735 568/2/734
f 546/2/706 529/2/685 550/2/711 567/2/735
f 527/2/704 545/2/709 566/2/736 548/2/732
