# Blender 4.1.0
# www.blender.org
mtllib platform_l.mtl
o platform_l
v -0.840677 0.063811 0.836617
v -0.840677 0.063811 -0.836617
v 0.840677 0.063811 0.836617
v 0.840677 0.063811 -0.836617
v -0.865720 0.042737 0.714787
v -0.854548 0.052138 0.794706
v -0.865720 0.150561 -0.862781
v -0.854548 0.096146 -0.851109
v -0.722407 0.042737 -0.862781
v -0.800356 0.052138 -0.851109
v 0.865720 0.150561 -0.862781
v 0.854548 0.096146 -0.851109
v 0.865720 0.042737 -0.714787
v 0.854548 0.052138 -0.794706
v 0.865720 0.150561 0.862781
v 0.854548 0.096146 0.851109
v 0.722407 0.042737 0.862781
v 0.800355 0.052138 0.851109
v -0.866929 2.156773 0.864234
v 0.800355 0.052138 -0.851109
v 0.722407 0.042737 -0.862781
v -0.800356 0.052138 0.851109
v -0.722407 0.042737 0.862781
v -0.854548 0.052138 -0.794706
v -0.865720 0.042737 -0.714787
v 0.854548 0.052138 0.794706
v 0.865720 0.042737 0.714787
v -0.866929 2.156773 -0.864234
v 0.866929 2.156773 -0.864234
v 0.866929 2.156773 0.864234
v -0.854548 0.096146 0.851109
v -0.865720 0.150561 0.862781
v 0.725345 0.000000 0.717856
v 0.810190 0.014525 0.715938
v 0.723509 0.014525 0.804980
v 0.804386 0.027488 0.798917
v -0.919572 2.156773 -0.715605
v -0.901711 2.156773 -0.804405
v 0.723016 2.156773 -0.919235
v 0.809458 2.156773 -0.900574
v 0.919572 2.156773 0.715605
v 0.901711 2.156773 0.804405
v -0.723016 2.156773 0.919235
v -0.809458 2.156773 0.900574
v 0.809458 2.156773 0.900574
v 0.723015 2.156773 0.919235
v -0.809458 2.156773 -0.900574
v -0.723015 2.156773 -0.919235
v -0.810190 0.014525 0.715938
v -0.725345 0.000000 0.717856
v -0.804386 0.027488 0.798917
v -0.723509 0.014525 0.804980
v -0.804386 0.027488 -0.798917
v -0.723509 0.014525 -0.804980
v -0.810190 0.014525 -0.715938
v -0.725345 0.000000 -0.717856
v 0.901711 2.156773 -0.804405
v 0.919571 2.156773 -0.715605
v -0.901711 2.156773 0.804405
v -0.919572 2.156773 0.715605
v 0.723509 0.014525 -0.804980
v 0.804386 0.027488 -0.798917
v 0.725345 0.000000 -0.717856
v 0.810190 0.014525 -0.715938
v -0.883840 0.092753 0.798917
v -0.899244 0.149634 0.804980
v -0.899244 0.087870 0.715938
v -0.916505 0.148089 0.717856
v 0.883840 0.092753 -0.798917
v 0.899244 0.149634 -0.804980
v 0.899244 0.087870 -0.715938
v 0.916505 0.148089 -0.717856
v -0.804386 0.092753 -0.881713
v -0.810190 0.149634 -0.897807
v -0.723509 0.087870 -0.897807
v -0.725345 0.148089 -0.915840
v 0.804386 0.092753 0.881713
v 0.810190 0.149634 0.897807
v 0.723509 0.087870 0.897807
v 0.725345 0.148089 0.915840
v -0.723509 0.087870 0.897807
v -0.725345 0.148089 0.915841
v -0.804386 0.092753 0.881713
v -0.810190 0.149634 0.897807
v 0.899244 0.087870 0.715938
v 0.916505 0.148089 0.717856
v 0.883840 0.092753 0.798917
v 0.899244 0.149634 0.804980
v 0.723509 0.087870 -0.897807
v 0.725345 0.148089 -0.915840
v 0.804386 0.092753 -0.881713
v 0.810190 0.149634 -0.897807
v -0.899244 0.087870 -0.715938
v -0.916505 0.148089 -0.717856
v -0.883840 0.092753 -0.798917
v -0.899244 0.149634 -0.804980
v -0.902659 3.904838 0.898299
v -0.902659 3.904838 -0.898299
v 0.902659 3.904838 0.898299
v 0.902659 3.904838 -0.898299
v -0.843982 3.325061 0.841359
v -0.843982 3.325061 -0.841359
v 0.843982 3.325061 -0.841359
v 0.843982 3.325061 0.841359
v -0.915001 3.406902 0.912156
v -0.915001 3.406902 -0.912156
v 0.915001 3.406902 -0.912156
v 0.915001 3.406902 0.912156
v -0.861493 3.215872 -0.858814
v 0.861493 3.215872 -0.858814
v 0.861493 3.215872 0.858814
v -0.861493 3.215872 0.858814
v -0.929548 3.927287 -0.767487
v -0.917553 3.917272 -0.853298
v 0.775669 3.927287 -0.926393
v 0.859364 3.917272 -0.913859
v 0.929548 3.927287 0.767487
v 0.917553 3.917272 0.853298
v -0.775669 3.927287 0.926392
v -0.859364 3.917272 0.913859
v -0.853284 3.251633 0.850632
v -0.840881 3.289980 0.838267
v -0.896927 3.372395 -0.894139
v -0.875965 3.349988 -0.873242
v 0.896927 3.372395 -0.894138
v 0.875965 3.349988 -0.873242
v 0.896927 3.372395 0.894139
v 0.875965 3.349988 0.873242
v -0.703878 3.325061 0.894903
v -0.788032 3.325061 0.876737
v 0.895231 3.325061 0.696663
v 0.877843 3.325061 0.783113
v 0.703878 3.325061 -0.894903
v 0.788033 3.325061 -0.876737
v -0.895231 3.325061 -0.696663
v -0.877843 3.325061 -0.783113
v -0.875965 3.349988 0.873242
v -0.896927 3.372395 0.894139
v -0.763107 3.406902 0.970206
v -0.854343 3.406902 0.950511
v 0.970562 3.406902 0.755285
v 0.951711 3.406902 0.849010
v 0.763107 3.406902 -0.970206
v 0.854343 3.406902 -0.950511
v -0.970562 3.406902 -0.755285
v -0.951711 3.406902 -0.849010
v -0.840881 3.289980 -0.838267
v -0.853284 3.251633 -0.850632
v 0.840881 3.289980 -0.838267
v 0.853284 3.251633 -0.850632
v 0.840881 3.289980 0.838267
v 0.853284 3.251633 0.850632
v -0.913805 3.215872 -0.711117
v -0.896056 3.215872 -0.799361
v 0.718481 3.215872 -0.913470
v 0.804382 3.215872 -0.894926
v 0.913805 3.215872 0.711117
v 0.896056 3.215872 0.799361
v -0.718481 3.215872 0.913470
v -0.804382 3.215872 0.894926
v -0.859364 3.917272 -0.913859
v -0.775669 3.927287 -0.926393
v 0.859364 3.917272 0.913859
v 0.775669 3.927287 0.926393
v 0.788032 3.325061 0.876737
v 0.703878 3.325061 0.894903
v -0.788032 3.325061 -0.876737
v -0.703878 3.325061 -0.894903
v 0.854343 3.406902 0.950511
v 0.763107 3.406902 0.970206
v -0.854343 3.406902 -0.950511
v -0.763107 3.406902 -0.970206
v -0.804382 3.215872 -0.894926
v -0.718481 3.215872 -0.913470
v 0.804382 3.215872 0.894926
v 0.718481 3.215872 0.913470
v 0.917553 3.870572 0.913859
v 0.929548 3.813862 0.926392
v 0.917552 3.870572 -0.913859
v 0.929548 3.813862 -0.926393
v -0.917552 3.917272 0.853298
v -0.929548 3.927287 0.767487
v 0.917553 3.917272 -0.853298
v 0.929548 3.927287 -0.767487
v 0.877843 3.325061 -0.783113
v 0.895231 3.325061 -0.696663
v -0.877843 3.325061 0.783113
v -0.895231 3.325061 0.696663
v 0.951711 3.406902 -0.849010
v 0.970562 3.406902 -0.755285
v -0.951711 3.406902 0.849010
v -0.970562 3.406902 0.755285
v -0.896056 3.215872 0.799361
v -0.913805 3.215872 0.711117
v 0.896056 3.215872 -0.799361
v 0.913805 3.215872 -0.711117
v -0.917553 3.870572 -0.913859
v -0.929548 3.813862 -0.926392
v -0.926624 3.456327 0.923744
v -0.929548 3.813862 0.926393
v -0.917552 3.870572 0.913859
v -0.926624 3.456327 -0.923744
v 0.926624 3.456327 -0.923744
v 0.926624 3.456327 0.923744
v -0.984077 3.816495 -0.770782
v -0.965544 3.879388 -0.768723
v -0.965544 3.814849 -0.864330
v -0.949004 3.874186 -0.857820
v 0.778823 3.816495 -0.983364
v 0.776852 3.879388 -0.964001
v 0.869923 3.814849 -0.964001
v 0.863692 3.874186 -0.946720
v -0.778823 3.972813 0.770782
v -0.869923 3.957340 0.768723
v -0.776852 3.957340 0.864330
v -0.863692 3.943531 0.857820
v -0.711636 3.251633 0.904767
v -0.701291 3.289980 0.891615
v -0.796718 3.251633 0.886399
v -0.785137 3.289980 0.873515
v 0.905098 3.251633 0.704341
v 0.891942 3.289980 0.694103
v 0.887519 3.251633 0.791744
v 0.874618 3.289980 0.780236
v 0.711636 3.251633 -0.904767
v 0.701292 3.289980 -0.891615
v 0.796718 3.251633 -0.886399
v 0.785137 3.289980 -0.873515
v -0.905098 3.251633 -0.704341
v -0.891942 3.289980 -0.694103
v -0.887519 3.251633 -0.791744
v -0.874618 3.289980 -0.780236
v -0.730551 3.349988 0.928816
v -0.748033 3.372395 0.951042
v -0.817895 3.349988 0.909960
v -0.837467 3.372395 0.931736
v 0.929156 3.349988 0.723063
v 0.951391 3.372395 0.740366
v 0.911109 3.349988 0.812789
v 0.932912 3.372395 0.832239
v 0.730551 3.349988 -0.928816
v 0.748033 3.372395 -0.951042
v 0.817895 3.349988 -0.909960
v 0.837467 3.372395 -0.931736
v -0.929156 3.349988 -0.723063
v -0.951391 3.372395 -0.740366
v -0.911109 3.349988 -0.812789
v -0.932912 3.372395 -0.832239
v -0.817895 3.349988 -0.909960
v -0.837467 3.372395 -0.931736
v -0.730551 3.349988 -0.928816
v -0.748033 3.372395 -0.951042
v 0.817895 3.349988 0.909960
v 0.837467 3.372395 0.931736
v 0.730551 3.349988 0.928816
v 0.748034 3.372395 0.951042
v -0.796718 3.251633 -0.886399
v -0.785137 3.289980 -0.873515
v -0.711636 3.251633 -0.904767
v -0.701291 3.289980 -0.891615
v 0.796718 3.251633 0.886399
v 0.785137 3.289980 0.873515
v 0.711636 3.251633 0.904767
v 0.701292 3.289980 0.891615
v 0.869923 3.957340 0.768723
v 0.778823 3.972813 0.770782
v 0.863692 3.943531 0.857820
v 0.776852 3.957340 0.864330
v 0.984077 3.816495 0.770782
v 0.965544 3.879388 0.768723
v 0.965544 3.814849 0.864330
v 0.949004 3.874186 0.857820
v -0.778823 3.816495 0.983364
v -0.776852 3.879388 0.964001
v -0.869923 3.814849 0.964001
v -0.863692 3.874186 0.946720
v 0.869923 3.814849 0.964001
v 0.863692 3.874186 0.946720
v 0.778823 3.816495 0.983364
v 0.776852 3.879388 0.964001
v 0.863692 3.943531 -0.857820
v 0.776852 3.957340 -0.864330
v 0.869923 3.957340 -0.768723
v 0.778823 3.972813 -0.770782
v -0.911109 3.349988 0.812789
v -0.932912 3.372395 0.832239
v -0.929156 3.349988 0.723063
v -0.951391 3.372395 0.740366
v 0.911109 3.349988 -0.812789
v 0.932912 3.372395 -0.832239
v 0.929156 3.349988 -0.723063
v 0.951391 3.372395 -0.740366
v -0.887519 3.251633 0.791744
v -0.874617 3.289980 0.780236
v -0.905098 3.251633 0.704341
v -0.891942 3.289980 0.694103
v 0.887519 3.251633 -0.791745
v 0.874618 3.289980 -0.780236
v 0.905098 3.251633 -0.704342
v 0.891942 3.289980 -0.694103
v -0.776852 3.957340 -0.864330
v -0.863693 3.943531 -0.857820
v -0.778823 3.972813 -0.770782
v -0.869923 3.957340 -0.768723
v -0.869923 3.814849 -0.964001
v -0.863692 3.874186 -0.946720
v -0.778823 3.816495 -0.983364
v -0.776852 3.879388 -0.964001
v 0.965544 3.814849 -0.864330
v 0.949004 3.874186 -0.857820
v 0.984077 3.816495 -0.770782
v 0.965544 3.879388 -0.768723
v -0.865196 3.456327 -0.962585
v -0.772801 3.456327 -0.982532
v 0.963801 3.456327 -0.859795
v 0.982891 3.456327 -0.764880
v -0.963801 3.456327 0.859795
v -0.982891 3.456327 0.764880
v -0.965544 3.814849 0.864330
v -0.949005 3.874186 0.857820
v -0.984077 3.816495 0.770782
v -0.965544 3.879388 0.768723
v 0.865196 3.456327 0.962585
v 0.772801 3.456327 0.982532
v -0.772801 3.456327 0.982532
v -0.865196 3.456327 0.962585
v 0.982891 3.456327 0.764880
v 0.963801 3.456327 0.859795
v 0.772801 3.456327 -0.982532
v 0.865196 3.456327 -0.962585
v -0.982891 3.456327 -0.764880
v -0.963801 3.456327 -0.859795
vn -0.5436 -0.6575 0.5217
vn -0.5436 -0.6575 -0.5217
vn 0.5436 -0.6575 0.5217
vn 0.5436 -0.6575 -0.5217
vn -0.6439 -0.7601 0.0873
vn -0.6179 -0.7311 0.2894
vn -0.7125 -0.1405 -0.6875
vn -0.6561 -0.4116 -0.6326
vn -0.0912 -0.7713 -0.6299
vn -0.3034 -0.7387 -0.6019
vn 0.7125 -0.1405 -0.6875
vn 0.6561 -0.4116 -0.6326
vn 0.6439 -0.7601 -0.0873
vn 0.6179 -0.7311 -0.2894
vn 0.7125 -0.1405 0.6875
vn 0.6561 -0.4116 0.6326
vn 0.0912 -0.7713 0.6299
vn 0.3034 -0.7387 0.6019
vn -0.7201 0.0031 0.6938
vn 0.3034 -0.7387 -0.6019
vn 0.0912 -0.7713 -0.6299
vn -0.3034 -0.7387 0.6019
vn -0.0912 -0.7713 0.6299
vn -0.6179 -0.7311 -0.2894
vn -0.6439 -0.7601 -0.0873
vn 0.6179 -0.7311 0.2894
vn 0.6439 -0.7601 0.0873
vn -0.7201 0.0031 -0.6938
vn 0.7201 0.0031 -0.6938
vn 0.7201 0.0031 0.6938
vn -0.6561 -0.4116 0.6326
vn -0.7125 -0.1405 0.6875
vn 0.0852 -0.9929 0.0831
vn 0.3150 -0.9454 0.0834
vn 0.0859 -0.9483 0.3054
vn 0.3020 -0.9076 0.2918
vn -0.9951 0.0022 -0.0988
vn -0.9351 0.0028 -0.3543
vn 0.1058 0.0022 -0.9944
vn 0.3781 0.0028 -0.9257
vn 0.9951 0.0022 0.0988
vn 0.9351 0.0028 0.3543
vn -0.1058 0.0022 0.9944
vn -0.3781 0.0028 0.9257
vn 0.3781 0.0028 0.9257
vn 0.1058 0.0022 0.9944
vn -0.3781 0.0028 -0.9257
vn -0.1058 0.0022 -0.9944
vn -0.3150 -0.9454 0.0834
vn -0.0852 -0.9929 0.0831
vn -0.3020 -0.9076 0.2918
vn -0.0860 -0.9483 0.3054
vn -0.3020 -0.9076 -0.2918
vn -0.0860 -0.9483 -0.3054
vn -0.3150 -0.9454 -0.0834
vn -0.0852 -0.9929 -0.0831
vn 0.9351 0.0028 -0.3543
vn 0.9951 0.0022 -0.0988
vn -0.9351 0.0028 0.3543
vn -0.9951 0.0022 0.0988
vn 0.0859 -0.9483 -0.3054
vn 0.3020 -0.9076 -0.2918
vn 0.0852 -0.9929 -0.0831
vn 0.3150 -0.9454 -0.0834
vn -0.8467 -0.4237 0.3219
vn -0.9257 -0.1393 0.3518
vn -0.8924 -0.4415 0.0935
vn -0.9852 -0.1401 0.0983
vn 0.8467 -0.4237 -0.3219
vn 0.9257 -0.1393 -0.3518
vn 0.8924 -0.4415 -0.0935
vn 0.9852 -0.1401 -0.0983
vn -0.3414 -0.4340 -0.8337
vn -0.3744 -0.1434 -0.9161
vn -0.0991 -0.4554 -0.8847
vn -0.1050 -0.1457 -0.9837
vn 0.3414 -0.4340 0.8337
vn 0.3744 -0.1434 0.9161
vn 0.0991 -0.4554 0.8847
vn 0.1050 -0.1457 0.9837
vn -0.0991 -0.4554 0.8847
vn -0.1050 -0.1457 0.9837
vn -0.3414 -0.4340 0.8337
vn -0.3744 -0.1434 0.9161
vn 0.8924 -0.4415 0.0935
vn 0.9852 -0.1401 0.0983
vn 0.8467 -0.4237 0.3219
vn 0.9257 -0.1393 0.3518
vn 0.0991 -0.4554 -0.8847
vn 0.1050 -0.1457 -0.9837
vn 0.3414 -0.4340 -0.8337
vn 0.3744 -0.1434 -0.9161
vn -0.8924 -0.4415 -0.0935
vn -0.9852 -0.1401 -0.0983
vn -0.8467 -0.4236 -0.3219
vn -0.9257 -0.1393 -0.3518
vn -0.5412 0.6614 0.5193
vn -0.5412 0.6614 -0.5193
vn 0.5412 0.6614 0.5193
vn 0.5412 0.6614 -0.5193
vn -0.5792 -0.5951 0.5571
vn -0.5792 -0.5951 -0.5571
vn 0.5792 -0.5951 -0.5571
vn 0.5792 -0.5951 0.5571
vn -0.6427 -0.4511 0.6193
vn -0.6427 -0.4511 -0.6193
vn 0.6427 -0.4511 -0.6193
vn 0.6427 -0.4511 0.6193
vn -0.7111 0.1561 -0.6856
vn 0.7111 0.1561 -0.6856
vn 0.7111 0.1561 0.6856
vn -0.7111 0.1561 0.6856
vn -0.6406 0.7629 -0.0869
vn -0.6149 0.7341 -0.2881
vn 0.0907 0.7741 -0.6266
vn 0.3020 0.7417 -0.5989
vn 0.6406 0.7629 0.0869
vn 0.6149 0.7341 0.2881
vn -0.0907 0.7741 0.6266
vn -0.3020 0.7417 0.5989
vn -0.6720 0.3595 0.6474
vn -0.7116 0.1581 0.6846
vn -0.5198 -0.6924 -0.5004
vn -0.3982 -0.8335 -0.3830
vn 0.5198 -0.6924 -0.5004
vn 0.3982 -0.8335 -0.3830
vn 0.5198 -0.6924 0.5004
vn 0.3982 -0.8335 0.3830
vn -0.0815 -0.5194 0.8506
vn -0.3035 -0.5655 0.7669
vn 0.8522 -0.5176 0.0763
vn 0.7771 -0.5612 0.2849
vn 0.0815 -0.5194 -0.8506
vn 0.3035 -0.5655 -0.7669
vn -0.8522 -0.5176 -0.0763
vn -0.7771 -0.5612 -0.2849
vn -0.3982 -0.8335 0.3830
vn -0.5198 -0.6924 0.5004
vn -0.1006 -0.3886 0.9159
vn -0.3433 -0.4307 0.8346
vn 0.9172 -0.3872 0.0941
vn 0.8444 -0.4278 0.3224
vn 0.1006 -0.3886 -0.9159
vn 0.3433 -0.4307 -0.8346
vn -0.9172 -0.3872 -0.0941
vn -0.8444 -0.4278 -0.3224
vn -0.7116 0.1581 -0.6846
vn -0.6720 0.3595 -0.6474
vn 0.7116 0.1581 -0.6846
vn 0.6720 0.3595 -0.6474
vn 0.7116 0.1581 0.6846
vn 0.6720 0.3595 0.6474
vn -0.9862 0.1299 -0.1028
vn -0.9231 0.1464 -0.3555
vn 0.1101 0.1305 -0.9853
vn 0.3791 0.1476 -0.9135
vn 0.9862 0.1299 0.1028
vn 0.9231 0.1464 0.3555
vn -0.1101 0.1305 0.9853
vn -0.3791 0.1476 0.9135
vn -0.3020 0.7417 -0.5989
vn -0.0907 0.7741 -0.6266
vn 0.3020 0.7417 0.5989
vn 0.0907 0.7741 0.6266
vn 0.3035 -0.5655 0.7669
vn 0.0815 -0.5194 0.8506
vn -0.3035 -0.5655 -0.7669
vn -0.0815 -0.5194 -0.8506
vn 0.3433 -0.4307 0.8346
vn 0.1006 -0.3886 0.9159
vn -0.3433 -0.4307 -0.8346
vn -0.1006 -0.3886 -0.9159
vn -0.3791 0.1476 -0.9135
vn -0.1101 0.1305 -0.9853
vn 0.3791 0.1476 0.9135
vn 0.1101 0.1305 0.9853
vn 0.6540 0.4179 0.6305
vn 0.7127 0.1384 0.6877
vn 0.6540 0.4179 -0.6305
vn 0.7127 0.1384 -0.6877
vn -0.6149 0.7341 0.2881
vn -0.6406 0.7629 0.0869
vn 0.6149 0.7341 -0.2881
vn 0.6406 0.7629 -0.0869
vn 0.7771 -0.5612 -0.2849
vn 0.8522 -0.5176 -0.0763
vn -0.7771 -0.5612 0.2849
vn -0.8522 -0.5176 0.0763
vn 0.8444 -0.4278 -0.3224
vn 0.9172 -0.3872 -0.0941
vn -0.8444 -0.4278 0.3224
vn -0.9172 -0.3872 0.0941
vn -0.9231 0.1464 0.3555
vn -0.9862 0.1299 0.1028
vn 0.9231 0.1464 -0.3555
vn 0.9862 0.1299 -0.1028
vn -0.6540 0.4179 -0.6305
vn -0.7127 0.1384 -0.6877
vn -0.7104 -0.1613 0.6850
vn -0.7127 0.1384 0.6877
vn -0.6540 0.4179 0.6305
vn -0.7104 -0.1613 -0.6850
vn 0.7104 -0.1613 -0.6850
vn 0.7104 -0.1613 0.6850
vn -0.9851 0.1406 -0.0988
vn -0.8895 0.4473 -0.0932
vn -0.9256 0.1382 -0.3524
vn -0.8440 0.4297 -0.3210
vn 0.1055 0.1467 -0.9835
vn 0.0988 0.4614 -0.8817
vn 0.3751 0.1425 -0.9160
vn 0.3405 0.4402 -0.8308
vn -0.0846 0.9930 0.0824
vn -0.3129 0.9462 0.0829
vn -0.0854 0.9490 0.3034
vn -0.3001 0.9088 0.2900
vn -0.1022 0.3002 0.9484
vn -0.0958 0.1269 0.9873
vn -0.3566 0.3390 0.8706
vn -0.3649 0.1459 0.9196
vn 0.9495 0.2989 0.0955
vn 0.9879 0.1263 0.0895
vn 0.8804 0.3361 0.3345
vn 0.9288 0.1443 0.3414
vn 0.1022 0.3002 -0.9484
vn 0.0958 0.1269 -0.9873
vn 0.3566 0.3390 -0.8706
vn 0.3649 0.1459 -0.9196
vn -0.9495 0.2989 -0.0955
vn -0.9879 0.1263 -0.0895
vn -0.8804 0.3361 -0.3345
vn -0.9288 0.1443 -0.3414
vn -0.0633 -0.7773 0.6259
vn -0.0817 -0.6242 0.7770
vn -0.2141 -0.8158 0.5373
vn -0.2779 -0.6706 0.6878
vn 0.6278 -0.7761 0.0594
vn 0.7787 -0.6227 0.0766
vn 0.5458 -0.8133 0.2017
vn 0.6971 -0.6676 0.2614
vn 0.0633 -0.7773 -0.6259
vn 0.0817 -0.6242 -0.7770
vn 0.2141 -0.8158 -0.5373
vn 0.2779 -0.6706 -0.6878
vn -0.6278 -0.7761 -0.0594
vn -0.7787 -0.6227 -0.0766
vn -0.5458 -0.8133 -0.2017
vn -0.6971 -0.6676 -0.2614
vn -0.2141 -0.8158 -0.5373
vn -0.2779 -0.6706 -0.6878
vn -0.0633 -0.7773 -0.6259
vn -0.0817 -0.6242 -0.7770
vn 0.2141 -0.8158 0.5373
vn 0.2779 -0.6706 0.6878
vn 0.0633 -0.7773 0.6259
vn 0.0817 -0.6242 0.7770
vn -0.3566 0.3390 -0.8706
vn -0.3649 0.1459 -0.9196
vn -0.1022 0.3002 -0.9484
vn -0.0958 0.1269 -0.9873
vn 0.3566 0.3390 0.8706
vn 0.3649 0.1459 0.9196
vn 0.1022 0.3002 0.9484
vn 0.0958 0.1269 0.9873
vn 0.3129 0.9462 0.0829
vn 0.0846 0.9930 0.0824
vn 0.3001 0.9088 0.2900
vn 0.0854 0.9490 0.3034
vn 0.9851 0.1406 0.0988
vn 0.8895 0.4473 0.0932
vn 0.9256 0.1382 0.3524
vn 0.8440 0.4297 0.3210
vn -0.1055 0.1467 0.9835
vn -0.0988 0.4614 0.8817
vn -0.3751 0.1425 0.9160
vn -0.3405 0.4402 0.8308
vn 0.3751 0.1425 0.9160
vn 0.3405 0.4402 0.8308
vn 0.1055 0.1467 0.9835
vn 0.0988 0.4614 0.8817
vn 0.3001 0.9088 -0.2900
vn 0.0854 0.9490 -0.3034
vn 0.3129 0.9462 -0.0829
vn 0.0846 0.9930 -0.0824
vn -0.5458 -0.8133 0.2017
vn -0.6971 -0.6676 0.2614
vn -0.6278 -0.7761 0.0594
vn -0.7787 -0.6227 0.0766
vn 0.5458 -0.8133 -0.2017
vn 0.6971 -0.6676 -0.2614
vn 0.6278 -0.7761 -0.0594
vn 0.7787 -0.6227 -0.0766
vn -0.8804 0.3361 0.3345
vn -0.9288 0.1443 0.3414
vn -0.9495 0.2989 0.0955
vn -0.9879 0.1263 0.0895
vn 0.8804 0.3361 -0.3345
vn 0.9288 0.1443 -0.3414
vn 0.9495 0.2989 -0.0955
vn 0.9879 0.1263 -0.0895
vn -0.0854 0.9490 -0.3034
vn -0.3001 0.9088 -0.2900
vn -0.0846 0.9930 -0.0824
vn -0.3129 0.9462 -0.0829
vn -0.3751 0.1425 -0.9160
vn -0.3405 0.4402 -0.8308
vn -0.1055 0.1467 -0.9835
vn -0.0988 0.4614 -0.8817
vn 0.9256 0.1382 -0.3524
vn 0.8440 0.4297 -0.3210
vn 0.9851 0.1406 -0.0988
vn 0.8895 0.4473 -0.0932
vn -0.3780 -0.1517 -0.9133
vn -0.1093 -0.1327 -0.9851
vn 0.9228 -0.1507 -0.3545
vn 0.9859 -0.1325 -0.1021
vn -0.9228 -0.1507 0.3545
vn -0.9859 -0.1325 0.1021
vn -0.9256 0.1382 0.3524
vn -0.8440 0.4297 0.3210
vn -0.9851 0.1406 0.0988
vn -0.8895 0.4473 0.0932
vn 0.3780 -0.1517 0.9133
vn 0.1093 -0.1327 0.9851
vn -0.1093 -0.1327 0.9851
vn -0.3780 -0.1517 0.9133
vn 0.9859 -0.1325 0.1021
vn 0.9228 -0.1507 0.3545
vn 0.1093 -0.1327 -0.9851
vn 0.3780 -0.1517 -0.9133
vn -0.9859 -0.1325 -0.1021
vn -0.9228 -0.1507 -0.3545
vt 0.075907 0.117188
vt 0.254369 0.016413
s 1
usemtl BASE_MATERIAL
f 64/1/64 34/1/34 33/1/33 63/1/63
f 33/1/33 34/1/34 36/1/36 35/1/35
f 34/1/34 27/1/27 26/1/26 36/1/36
f 36/1/36 26/1/26 3/1/3 18/1/18
f 35/1/35 36/1/36 18/1/18 17/1/17
f 50/1/50 33/1/33 35/1/35 52/1/52
f 49/1/49 50/1/50 52/1/52 51/1/51
f 52/1/52 35/1/35 17/1/17 23/1/23
f 51/1/51 52/1/52 23/1/23 22/1/22
f 6/1/6 51/1/51 22/1/22 1/1/1
f 5/1/5 49/1/49 51/1/51 6/1/6
f 53/1/53 54/1/54 56/1/56 55/1/55
f 2/1/2 10/1/10 53/1/53 24/1/24
f 10/1/10 9/1/9 54/1/54 53/1/53
f 24/1/24 53/1/53 55/1/55 25/1/25
f 56/1/56 50/1/50 49/1/49 55/1/55
f 49/1/49 5/1/5 25/1/25 55/1/55
f 54/1/54 61/1/61 63/1/63 56/1/56
f 9/1/9 21/1/21 61/1/61 54/1/54
f 61/1/61 62/1/62 64/1/64 63/1/63
f 33/1/33 50/1/50 56/1/56 63/1/63
f 21/1/21 20/1/20 62/1/62 61/1/61
f 20/1/20 4/1/4 14/1/14 62/1/62
f 62/1/62 14/1/14 13/1/13 64/1/64
f 13/1/13 27/1/27 34/1/34 64/1/64
f 66/1/66 59/1/59 60/1/60 68/1/68
f 65/1/65 66/1/66 68/1/68 67/1/67
f 32/1/32 19/1/19 59/1/59 66/1/66
f 1/1/1 31/1/31 65/1/65 6/1/6
f 31/1/31 32/1/32 66/1/66 65/1/65
f 41/1/41 86/1/86 72/1/72 58/1/58
f 6/1/6 65/1/65 67/1/67 5/1/5
f 70/1/70 57/1/57 58/1/58 72/1/72
f 69/1/69 70/1/70 72/1/72 71/1/71
f 11/1/11 29/1/29 57/1/57 70/1/70
f 4/1/4 12/1/12 69/1/69 14/1/14
f 12/1/12 11/1/11 70/1/70 69/1/69
f 72/1/72 86/1/86 85/1/85 71/1/71
f 14/1/14 69/1/69 71/1/71 13/1/13
f 74/1/74 47/1/47 48/1/48 76/1/76
f 73/1/73 74/1/74 76/1/76 75/1/75
f 7/1/7 28/1/28 47/1/47 74/1/74
f 2/1/2 8/1/8 73/1/73 10/1/10
f 8/1/8 7/1/7 74/1/74 73/1/73
f 10/1/10 73/1/73 75/1/75 9/1/9
f 78/1/78 45/1/45 46/1/46 80/1/80
f 77/1/77 78/1/78 80/1/80 79/1/79
f 39/1/39 90/1/90 76/1/76 48/1/48
f 15/1/15 30/1/30 45/1/45 78/1/78
f 3/1/3 16/1/16 77/1/77 18/1/18
f 16/1/16 15/1/15 78/1/78 77/1/77
f 43/1/43 82/1/82 80/1/80 46/1/46
f 80/1/80 82/1/82 81/1/81 79/1/79
f 18/1/18 77/1/77 79/1/79 17/1/17
f 79/1/79 81/1/81 23/1/23 17/1/17
f 82/1/82 43/1/43 44/1/44 84/1/84
f 81/1/81 82/1/82 84/1/84 83/1/83
f 44/1/44 19/1/19 32/1/32 84/1/84
f 83/1/83 84/1/84 32/1/32 31/1/31
f 22/1/22 83/1/83 31/1/31 1/1/1
f 23/1/23 81/1/81 83/1/83 22/1/22
f 76/1/76 90/1/90 89/1/89 75/1/75
f 85/1/85 27/1/27 13/1/13 71/1/71
f 86/1/86 41/1/41 42/1/42 88/1/88
f 85/1/85 86/1/86 88/1/88 87/1/87
f 42/1/42 30/1/30 15/1/15 88/1/88
f 87/1/87 88/1/88 15/1/15 16/1/16
f 26/1/26 87/1/87 16/1/16 3/1/3
f 27/1/27 85/1/85 87/1/87 26/1/26
f 68/1/68 94/1/94 93/1/93 67/1/67
f 75/1/75 89/1/89 21/1/21 9/1/9
f 90/1/90 39/1/39 40/1/40 92/1/92
f 89/1/89 90/1/90 92/1/92 91/1/91
f 40/1/40 29/1/29 11/1/11 92/1/92
f 91/1/91 92/1/92 11/1/11 12/1/12
f 20/1/20 91/1/91 12/1/12 4/1/4
f 21/1/21 89/1/89 91/1/91 20/1/20
f 93/1/93 25/1/25 5/1/5 67/1/67
f 94/1/94 37/1/37 38/1/38 96/1/96
f 93/1/93 94/1/94 96/1/96 95/1/95
f 38/1/38 28/1/28 7/1/7 96/1/96
f 37/1/37 94/1/94 68/1/68 60/1/60
f 95/1/95 96/1/96 7/1/7 8/1/8
f 24/1/24 95/1/95 8/1/8 2/1/2
f 25/1/25 93/1/93 95/1/95 24/1/24
f 205/2/205 206/2/206 208/2/208 207/2/207
f 206/2/206 113/2/113 114/2/114 208/2/208
f 208/2/208 114/2/114 98/2/98 197/2/197
f 207/2/207 208/2/208 197/2/197 198/2/198
f 209/2/209 210/2/210 212/2/212 211/2/211
f 210/2/210 115/2/115 116/2/116 212/2/212
f 212/2/212 116/2/116 100/2/100 179/2/179
f 211/2/211 212/2/212 179/2/179 180/2/180
f 304/2/304 214/2/214 213/2/213 303/2/303
f 213/2/213 214/2/214 216/2/216 215/2/215
f 214/2/214 182/2/182 181/2/181 216/2/216
f 216/2/216 181/2/181 97/2/97 120/2/120
f 215/2/215 216/2/216 120/2/120 119/2/119
f 217/1/217 218/1/218 220/1/220 219/1/219
f 219/1/219 220/1/220 122/1/122 121/1/121
f 218/1/218 129/1/129 130/1/130 220/1/220
f 220/1/220 130/1/130 101/1/101 122/1/122
f 160/1/160 219/1/219 121/1/121 112/1/112
f 159/1/159 217/1/217 219/1/219 160/1/160
f 221/1/221 222/1/222 224/1/224 223/1/223
f 223/1/223 224/1/224 151/1/151 152/1/152
f 222/1/222 131/1/131 132/1/132 224/1/224
f 224/1/224 132/1/132 104/1/104 151/1/151
f 158/1/158 223/1/223 152/1/152 111/1/111
f 157/1/157 221/1/221 223/1/223 158/1/158
f 225/1/225 226/1/226 228/1/228 227/1/227
f 227/1/227 228/1/228 149/1/149 150/1/150
f 226/1/226 133/1/133 134/1/134 228/1/228
f 228/1/228 134/1/134 103/1/103 149/1/149
f 156/1/156 227/1/227 150/1/150 110/1/110
f 155/1/155 225/1/225 227/1/227 156/1/156
f 229/1/229 230/1/230 232/1/232 231/1/231
f 231/1/231 232/1/232 147/1/147 148/1/148
f 230/1/230 135/1/135 136/1/136 232/1/232
f 232/1/232 136/1/136 102/1/102 147/1/147
f 257/1/257 258/1/258 260/1/260 259/1/259
f 154/1/154 231/1/231 148/1/148 109/1/109
f 153/1/153 229/1/229 231/1/231 154/1/154
f 129/2/129 233/2/233 235/2/235 130/2/130
f 233/2/233 234/2/234 236/2/236 235/2/235
f 130/2/130 235/2/235 137/2/137 101/2/101
f 234/2/234 139/2/139 140/2/140 236/2/236
f 236/2/236 140/2/140 105/2/105 138/2/138
f 235/2/235 236/2/236 138/2/138 137/2/137
f 131/2/131 237/2/237 239/2/239 132/2/132
f 237/2/237 238/2/238 240/2/240 239/2/239
f 132/2/132 239/2/239 128/2/128 104/2/104
f 238/2/238 141/2/141 142/2/142 240/2/240
f 240/2/240 142/2/142 108/2/108 127/2/127
f 239/2/239 240/2/240 127/2/127 128/2/128
f 133/2/133 241/2/241 243/2/243 134/2/134
f 241/2/241 242/2/242 244/2/244 243/2/243
f 134/2/134 243/2/243 126/2/126 103/2/103
f 242/2/242 143/2/143 144/2/144 244/2/244
f 244/2/244 144/2/144 107/2/107 125/2/125
f 243/2/243 244/2/244 125/2/125 126/2/126
f 135/2/135 245/2/245 247/2/247 136/2/136
f 245/2/245 246/2/246 248/2/248 247/2/247
f 136/2/136 247/2/247 124/2/124 102/2/102
f 246/2/246 145/2/145 146/2/146 248/2/248
f 248/2/248 146/2/146 106/2/106 123/2/123
f 247/2/247 248/2/248 123/2/123 124/2/124
f 167/2/167 249/2/249 251/2/251 168/2/168
f 282/2/282 301/2/301 303/2/303 284/2/284
f 252/2/252 242/2/242 241/2/241 251/2/251
f 256/2/256 234/2/234 233/2/233 255/2/255
f 249/2/249 250/2/250 252/2/252 251/2/251
f 124/2/124 249/2/249 167/2/167 102/2/102
f 172/2/172 143/2/143 242/2/242 252/2/252
f 124/2/124 123/2/123 250/2/250 249/2/249
f 123/2/123 106/2/106 171/2/171 250/2/250
f 250/2/250 171/2/171 172/2/172 252/2/252
f 251/2/251 241/2/241 133/2/133 168/2/168
f 165/2/165 253/2/253 255/2/255 166/2/166
f 260/1/260 226/1/226 225/1/225 259/1/259
f 253/2/253 254/2/254 256/2/256 255/2/255
f 128/2/128 253/2/253 165/2/165 104/2/104
f 170/2/170 139/2/139 234/2/234 256/2/256
f 128/2/128 127/2/127 254/2/254 253/2/253
f 127/2/127 108/2/108 169/2/169 254/2/254
f 254/2/254 169/2/169 170/2/170 256/2/256
f 233/2/233 129/2/129 166/2/166 255/2/255
f 187/2/187 285/2/285 287/2/287 188/2/188
f 168/1/168 133/1/133 226/1/226 260/1/260
f 147/1/147 258/1/258 257/1/257 148/1/148
f 109/1/109 148/1/148 257/1/257 173/1/173
f 147/1/147 102/1/102 167/1/167 258/1/258
f 258/1/258 167/1/167 168/1/168 260/1/260
f 225/1/225 155/1/155 174/1/174 259/1/259
f 218/1/218 217/1/217 263/1/263 264/1/264
f 173/1/173 257/1/257 259/1/259 174/1/174
f 261/1/261 262/1/262 264/1/264 263/1/263
f 166/1/166 129/1/129 218/1/218 264/1/264
f 151/1/151 262/1/262 261/1/261 152/1/152
f 111/1/111 152/1/152 261/1/261 175/1/175
f 151/1/151 104/1/104 165/1/165 262/1/262
f 262/1/262 165/1/165 166/1/166 264/1/264
f 217/1/217 159/1/159 176/1/176 263/1/263
f 266/2/266 213/2/213 215/2/215 268/2/268
f 175/1/175 261/1/261 263/1/263 176/1/176
f 293/1/293 294/1/294 296/1/296 295/1/295
f 265/2/265 266/2/266 268/2/268 267/2/267
f 268/2/268 215/2/215 119/2/119 164/2/164
f 267/2/267 268/2/268 164/2/164 163/2/163
f 118/2/118 267/2/267 163/2/163 99/2/99
f 117/2/117 265/2/265 267/2/267 118/2/118
f 269/2/269 270/2/270 272/2/272 271/2/271
f 270/2/270 117/2/117 118/2/118 272/2/272
f 272/2/272 118/2/118 99/2/99 177/2/177
f 271/2/271 272/2/272 177/2/177 178/2/178
f 273/2/273 274/2/274 276/2/276 275/2/275
f 280/2/280 274/2/274 273/2/273 279/2/279
f 274/2/274 119/2/119 120/2/120 276/2/276
f 276/2/276 120/2/120 97/2/97 201/2/201
f 275/2/275 276/2/276 201/2/201 200/2/200
f 277/2/277 278/2/278 280/2/280 279/2/279
f 119/2/119 274/2/274 280/2/280 164/2/164
f 178/2/178 177/2/177 278/2/278 277/2/277
f 177/2/177 99/2/99 163/2/163 278/2/278
f 278/2/278 163/2/163 164/2/164 280/2/280
f 281/2/281 282/2/282 284/2/284 283/2/283
f 100/2/100 116/2/116 281/2/281 183/2/183
f 116/2/116 115/2/115 282/2/282 281/2/281
f 183/2/183 281/2/281 283/2/283 184/2/184
f 284/2/284 266/2/266 265/2/265 283/2/283
f 265/2/265 117/2/117 184/2/184 283/2/283
f 285/2/285 286/2/286 288/2/288 287/2/287
f 101/2/101 137/2/137 285/2/285 187/2/187
f 137/2/137 138/2/138 286/2/286 285/2/285
f 138/2/138 105/2/105 191/2/191 286/2/286
f 286/2/286 191/2/191 192/2/192 288/2/288
f 245/2/245 135/2/135 188/2/188 287/2/287
f 288/2/288 246/2/246 245/2/245 287/2/287
f 192/2/192 145/2/145 246/2/246 288/2/288
f 185/2/185 289/2/289 291/2/291 186/2/186
f 289/2/289 290/2/290 292/2/292 291/2/291
f 126/2/126 289/2/289 185/2/185 103/2/103
f 126/2/126 125/2/125 290/2/290 289/2/289
f 125/2/125 107/2/107 189/2/189 290/2/290
f 290/2/290 189/2/189 190/2/190 292/2/292
f 237/2/237 131/2/131 186/2/186 291/2/291
f 292/2/292 238/2/238 237/2/237 291/2/291
f 190/2/190 141/2/141 238/2/238 292/2/292
f 121/1/121 122/1/122 294/1/294 293/1/293
f 112/1/112 121/1/121 293/1/293 193/1/193
f 122/1/122 101/1/101 187/1/187 294/1/294
f 294/1/294 187/1/187 188/1/188 296/1/296
f 193/1/193 293/1/293 295/1/295 194/1/194
f 296/1/296 230/1/230 229/1/229 295/1/295
f 188/1/188 135/1/135 230/1/230 296/1/296
f 297/1/297 298/1/298 300/1/300 299/1/299
f 229/1/229 153/1/153 194/1/194 295/1/295
f 149/1/149 298/1/298 297/1/297 150/1/150
f 110/1/110 150/1/150 297/1/297 195/1/195
f 149/1/149 103/1/103 185/1/185 298/1/298
f 298/1/298 185/1/185 186/1/186 300/1/300
f 195/1/195 297/1/297 299/1/299 196/1/196
f 300/1/300 222/1/222 221/1/221 299/1/299
f 186/1/186 131/1/131 222/1/222 300/1/300
f 221/1/221 157/1/157 196/1/196 299/1/299
f 115/2/115 162/2/162 301/2/301 282/2/282
f 301/2/301 302/2/302 304/2/304 303/2/303
f 213/2/213 266/2/266 284/2/284 303/2/303
f 162/2/162 161/2/161 302/2/302 301/2/301
f 161/2/161 98/2/98 114/2/114 302/2/302
f 302/2/302 114/2/114 113/2/113 304/2/304
f 113/2/113 182/2/182 214/2/214 304/2/304
f 308/2/308 210/2/210 209/2/209 307/2/307
f 305/2/305 306/2/306 308/2/308 307/2/307
f 162/2/162 115/2/115 210/2/210 308/2/308
f 198/2/198 197/2/197 306/2/306 305/2/305
f 197/2/197 98/2/98 161/2/161 306/2/306
f 306/2/306 161/2/161 162/2/162 308/2/308
f 309/2/309 310/2/310 312/2/312 311/2/311
f 180/2/180 179/2/179 310/2/310 309/2/309
f 179/2/179 100/2/100 183/2/183 310/2/310
f 310/2/310 183/2/183 184/2/184 312/2/312
f 312/2/312 270/2/270 269/2/269 311/2/311
f 184/2/184 117/2/117 270/2/270 312/2/312
f 313/2/313 305/2/305 307/2/307 314/2/314
f 106/2/106 202/2/202 313/2/313 171/2/171
f 198/2/198 305/2/305 313/2/313 202/2/202
f 171/2/171 313/2/313 314/2/314 172/2/172
f 315/2/315 309/2/309 311/2/311 316/2/316
f 107/2/107 203/2/203 315/2/315 189/2/189
f 180/2/180 309/2/309 315/2/315 203/2/203
f 189/2/189 315/2/315 316/2/316 190/2/190
f 105/2/105 199/2/199 317/2/317 191/2/191
f 317/2/317 319/2/319 321/2/321 318/2/318
f 191/2/191 317/2/317 318/2/318 192/2/192
f 311/2/311 269/2/269 327/2/327 316/2/316
f 319/2/319 320/2/320 322/2/322 321/2/321
f 199/2/199 200/2/200 319/2/319 317/2/317
f 200/2/200 201/2/201 320/2/320 319/2/319
f 201/2/201 97/2/97 181/2/181 320/2/320
f 320/2/320 181/2/181 182/2/182 322/2/322
f 323/2/323 277/2/277 279/2/279 324/2/324
f 108/2/108 204/2/204 323/2/323 169/2/169
f 178/2/178 277/2/277 323/2/323 204/2/204
f 279/2/279 273/2/273 325/2/325 324/2/324
f 169/2/169 323/2/323 324/2/324 170/2/170
f 324/2/324 325/2/325 139/2/139 170/2/170
f 325/2/325 273/2/273 275/2/275 326/2/326
f 326/2/326 275/2/275 200/2/200 199/2/199
f 140/2/140 326/2/326 199/2/199 105/2/105
f 139/2/139 325/2/325 326/2/326 140/2/140
f 314/2/314 307/2/307 209/2/209 329/2/329
f 327/2/327 141/2/141 190/2/190 316/2/316
f 327/2/327 269/2/269 271/2/271 328/2/328
f 328/2/328 271/2/271 178/2/178 204/2/204
f 142/2/142 328/2/328 204/2/204 108/2/108
f 141/2/141 327/2/327 328/2/328 142/2/142
f 172/2/172 314/2/314 329/2/329 143/2/143
f 329/2/329 209/2/209 211/2/211 330/2/330
f 330/2/330 211/2/211 180/2/180 203/2/203
f 144/2/144 330/2/330 203/2/203 107/2/107
f 143/2/143 329/2/329 330/2/330 144/2/144
f 331/2/331 145/2/145 192/2/192 318/2/318
f 331/2/331 205/2/205 207/2/207 332/2/332
f 332/2/332 207/2/207 198/2/198 202/2/202
f 205/2/205 331/2/331 318/2/318 321/2/321
f 146/2/146 332/2/332 202/2/202 106/2/106
f 145/2/145 331/2/331 332/2/332 146/2/146
f 322/2/322 206/2/206 205/2/205 321/2/321
f 182/2/182 113/2/113 206/2/206 322/2/322
f 60/1/60 59/1/59 193/1/193 194/1/194
f 59/1/59 19/1/19 112/1/112 193/1/193
f 19/1/19 44/1/44 160/1/160 112/1/112
f 44/1/44 43/1/43 159/1/159 160/1/160
f 43/1/43 46/1/46 176/1/176 159/1/159
f 46/1/46 45/1/45 175/1/175 176/1/176
f 45/1/45 30/1/30 111/1/111 175/1/175
f 30/1/30 42/1/42 158/1/158 111/1/111
f 42/1/42 41/1/41 157/1/157 158/1/158
f 41/1/41 58/1/58 196/1/196 157/1/157
f 58/1/58 57/1/57 195/1/195 196/1/196
f 57/1/57 29/1/29 110/1/110 195/1/195
f 29/1/29 40/1/40 156/1/156 110/1/110
f 40/1/40 39/1/39 155/1/155 156/1/156
f 39/1/39 48/1/48 174/1/174 155/1/155
f 48/1/48 47/1/47 173/1/173 174/1/174
f 47/1/47 28/1/28 109/1/109 173/1/173
f 28/1/28 38/1/38 154/1/154 109/1/109
f 38/1/38 37/1/37 153/1/153 154/1/154
f 37/1/37 60/1/60 194/1/194 153/1/153
