# Blender 4.1.0
# www.blender.org
mtllib platform_m.mtl
o platform_m
v -0.840677 0.063811 0.836617
v -0.902659 2.896719 0.898299
v -0.840677 0.063811 -0.836617
v -0.902659 2.896719 -0.898299
v 0.840677 0.063811 0.836617
v 0.902659 2.896719 0.898299
v 0.840677 0.063811 -0.836617
v 0.902659 2.896719 -0.898299
v -0.843982 2.316942 0.841359
v -0.843982 2.316942 -0.841359
v 0.843982 2.316942 -0.841359
v 0.843982 2.316942 0.841359
v -0.915001 2.398784 0.912156
v -0.915001 2.398784 -0.912156
v 0.915000 2.398784 -0.912156
v 0.915000 2.398784 0.912156
v -0.861493 2.207753 -0.858814
v 0.861492 2.207753 -0.858814
v 0.861492 2.207753 0.858814
v -0.861493 2.207753 0.858814
v -0.865720 0.042737 0.714787
v -0.854548 0.052138 0.794706
v -0.929548 2.919168 -0.767487
v -0.917553 2.909153 -0.853298
v -0.865720 0.150561 -0.862781
v -0.854548 0.096145 -0.851109
v -0.722407 0.042737 -0.862781
v -0.800356 0.052138 -0.851109
v 0.775669 2.919168 -0.926392
v 0.859364 2.909153 -0.913860
v 0.865720 0.150561 -0.862781
v 0.854548 0.096145 -0.851109
v 0.865720 0.042737 -0.714787
v 0.854548 0.052138 -0.794706
v 0.929548 2.919168 0.767487
v 0.917552 2.909153 0.853298
v 0.865720 0.150561 0.862781
v 0.854548 0.096145 0.851109
v 0.722407 0.042737 0.862781
v 0.800355 0.052138 0.851109
v -0.775669 2.919168 0.926392
v -0.859364 2.909153 0.913859
v -0.853284 2.243514 0.850632
v -0.840881 2.281861 0.838267
v -0.896927 2.364276 -0.894139
v -0.875965 2.341869 -0.873242
v 0.896927 2.364276 -0.894139
v 0.875965 2.341869 -0.873242
v 0.896927 2.364276 0.894139
v 0.875965 2.341869 0.873242
v -0.703878 2.316942 0.894903
v -0.788033 2.316942 0.876736
v 0.895231 2.316942 0.696663
v 0.877843 2.316942 0.783113
v 0.703878 2.316942 -0.894903
v 0.788032 2.316942 -0.876736
v -0.895231 2.316942 -0.696663
v -0.877843 2.316942 -0.783113
v -0.875965 2.341869 0.873242
v -0.896927 2.364276 0.894139
v -0.763107 2.398784 0.970206
v -0.854343 2.398784 0.950511
v 0.970562 2.398784 0.755285
v 0.951711 2.398784 0.849010
v 0.763107 2.398784 -0.970206
v 0.854343 2.398784 -0.950511
v -0.970562 2.398784 -0.755285
v -0.951711 2.398784 -0.849010
v -0.840881 2.281861 -0.838267
v -0.853284 2.243514 -0.850632
v 0.840881 2.281861 -0.838267
v 0.853284 2.243514 -0.850632
v 0.840881 2.281861 0.838267
v 0.853284 2.243514 0.850632
v -0.866929 2.156773 0.864234
v -0.913805 2.207753 -0.711117
v -0.896056 2.207753 -0.799361
v 0.718481 2.207753 -0.913470
v 0.804382 2.207753 -0.894926
v 0.913805 2.207753 0.711117
v 0.896056 2.207753 0.799361
v -0.718481 2.207753 0.913470
v -0.804382 2.207753 0.894926
v 0.800355 0.052138 -0.851109
v 0.722407 0.042737 -0.862781
v -0.859364 2.909153 -0.913859
v -0.775669 2.919168 -0.926392
v -0.800356 0.052138 0.851109
v -0.722407 0.042737 0.862781
v 0.859364 2.909153 0.913859
v 0.775669 2.919168 0.926392
v 0.788032 2.316942 0.876736
v 0.703878 2.316942 0.894903
v -0.788033 2.316942 -0.876736
v -0.703878 2.316942 -0.894903
v 0.854343 2.398784 0.950511
v 0.763107 2.398784 0.970206
v -0.854343 2.398784 -0.950511
v -0.763107 2.398784 -0.970206
v -0.804382 2.207753 -0.894926
v -0.718481 2.207753 -0.913470
v 0.804382 2.207753 0.894926
v 0.718481 2.207753 0.913470
v 0.917552 2.862453 0.913859
v 0.929548 2.805743 0.926392
v 0.917552 2.862453 -0.913859
v 0.929548 2.805743 -0.926392
v -0.854548 0.052138 -0.794706
v -0.865720 0.042737 -0.714787
v -0.917553 2.909153 0.853298
v -0.929548 2.919168 0.767487
v 0.854548 0.052138 0.794706
v 0.865720 0.042737 0.714787
v 0.917552 2.909153 -0.853298
v 0.929548 2.919168 -0.767487
v 0.877843 2.316942 -0.783113
v 0.895231 2.316942 -0.696663
v -0.877843 2.316942 0.783113
v -0.895231 2.316942 0.696663
v 0.951711 2.398784 -0.849010
v 0.970562 2.398784 -0.755285
v -0.951711 2.398784 0.849010
v -0.970562 2.398784 0.755285
v -0.896056 2.207753 0.799361
v -0.913805 2.207753 0.711117
v 0.896056 2.207753 -0.799361
v 0.913805 2.207753 -0.711117
v -0.917553 2.862453 -0.913859
v -0.929548 2.805743 -0.926392
v -0.926624 2.448209 0.923744
v -0.866929 2.156773 -0.864234
v 0.866929 2.156773 -0.864234
v 0.866929 2.156773 0.864234
v -0.854548 0.096145 0.851109
v -0.865720 0.150561 0.862781
v -0.929548 2.805743 0.926392
v -0.917553 2.862453 0.913859
v -0.926624 2.448209 -0.923744
v 0.926624 2.448209 -0.923744
v 0.926624 2.448209 0.923744
v -0.984077 2.808377 -0.770783
v -0.965544 2.871269 -0.768723
v -0.965544 2.806731 -0.864330
v -0.949004 2.866067 -0.857820
v 0.778823 2.808377 -0.983364
v 0.776852 2.871269 -0.964000
v 0.869923 2.806731 -0.964001
v 0.863692 2.866067 -0.946720
v 0.725345 0.000000 0.717856
v 0.810189 0.014525 0.715938
v 0.723509 0.014525 0.804980
v 0.804386 0.027488 0.798917
v -0.778823 2.964694 0.770782
v -0.869923 2.949221 0.768723
v -0.776852 2.949221 0.864330
v -0.863693 2.935412 0.857820
v -0.711636 2.243514 0.904767
v -0.701292 2.281861 0.891615
v -0.796718 2.243514 0.886399
v -0.785137 2.281861 0.873515
v 0.905098 2.243514 0.704341
v 0.891942 2.281861 0.694103
v 0.887518 2.243514 0.791744
v 0.874618 2.281861 0.780236
v 0.711636 2.243514 -0.904767
v 0.701291 2.281861 -0.891615
v 0.796718 2.243514 -0.886399
v 0.785137 2.281861 -0.873515
v -0.905098 2.243514 -0.704341
v -0.891942 2.281861 -0.694103
v -0.887519 2.243514 -0.791744
v -0.874618 2.281861 -0.780236
v -0.730551 2.341869 0.928816
v -0.748034 2.364276 0.951042
v -0.817895 2.341869 0.909960
v -0.837467 2.364276 0.931736
v 0.929156 2.341869 0.723063
v 0.951391 2.364276 0.740366
v 0.911109 2.341869 0.812789
v 0.932912 2.364276 0.832239
v 0.730551 2.341869 -0.928816
v 0.748033 2.364276 -0.951042
v 0.817895 2.341869 -0.909960
v 0.837467 2.364276 -0.931736
v -0.929156 2.341869 -0.723063
v -0.951391 2.364276 -0.740366
v -0.911109 2.341869 -0.812789
v -0.932912 2.364276 -0.832239
v -0.919572 2.156773 -0.715605
v -0.901711 2.156773 -0.804405
v 0.723015 2.156773 -0.919235
v 0.809458 2.156773 -0.900574
v 0.919572 2.156773 0.715605
v 0.901711 2.156773 0.804405
v -0.723016 2.156773 0.919235
v -0.809458 2.156773 0.900574
v 0.809458 2.156773 0.900574
v 0.723015 2.156773 0.919235
v -0.809458 2.156773 -0.900574
v -0.723016 2.156773 -0.919235
v -0.817895 2.341869 -0.909960
v -0.837467 2.364276 -0.931736
v -0.730551 2.341869 -0.928816
v -0.748034 2.364276 -0.951042
v 0.817895 2.341869 0.909960
v 0.837467 2.364276 0.931736
v 0.730551 2.341869 0.928816
v 0.748033 2.364276 0.951042
v -0.796718 2.243514 -0.886400
v -0.785137 2.281861 -0.873515
v -0.711636 2.243514 -0.904767
v -0.701292 2.281861 -0.891615
v 0.796718 2.243514 0.886400
v 0.785137 2.281861 0.873515
v 0.711636 2.243514 0.904767
v 0.701291 2.281861 0.891615
v 0.869923 2.949221 0.768723
v 0.778823 2.964694 0.770782
v 0.863692 2.935412 0.857820
v 0.776852 2.949221 0.864330
v -0.810190 0.014525 0.715938
v -0.725345 0.000000 0.717856
v -0.804386 0.027488 0.798917
v -0.723509 0.014525 0.804980
v 0.984077 2.808377 0.770782
v 0.965544 2.871269 0.768723
v 0.965544 2.806731 0.864330
v 0.949004 2.866067 0.857820
v -0.778823 2.808377 0.983364
v -0.776852 2.871269 0.964000
v -0.869923 2.806731 0.964001
v -0.863693 2.866067 0.946720
v 0.869923 2.806731 0.964001
v 0.863692 2.866067 0.946720
v 0.778823 2.808377 0.983364
v 0.776852 2.871269 0.964001
v -0.804387 0.027488 -0.798917
v -0.723509 0.014525 -0.804980
v -0.810190 0.014525 -0.715938
v -0.725345 0.000000 -0.717856
v 0.863692 2.935412 -0.857820
v 0.776852 2.949221 -0.864330
v 0.869923 2.949221 -0.768723
v 0.778823 2.964694 -0.770782
v 0.901711 2.156773 -0.804405
v 0.919571 2.156773 -0.715605
v -0.901711 2.156773 0.804405
v -0.919572 2.156773 0.715605
v -0.911109 2.341869 0.812789
v -0.932912 2.364276 0.832239
v -0.929156 2.341869 0.723063
v -0.951391 2.364276 0.740366
v 0.911109 2.341869 -0.812789
v 0.932912 2.364276 -0.832239
v 0.929156 2.341869 -0.723063
v 0.951391 2.364276 -0.740366
v -0.887519 2.243514 0.791744
v -0.874618 2.281861 0.780236
v -0.905098 2.243514 0.704341
v -0.891942 2.281861 0.694103
v 0.887518 2.243514 -0.791745
v 0.874617 2.281861 -0.780236
v 0.905098 2.243514 -0.704342
v 0.891942 2.281861 -0.694103
v -0.776852 2.949221 -0.864330
v -0.863693 2.935412 -0.857820
v -0.778823 2.964694 -0.770782
v -0.869923 2.949221 -0.768723
v 0.723509 0.014525 -0.804980
v 0.804386 0.027488 -0.798917
v 0.725345 0.000000 -0.717856
v 0.810189 0.014525 -0.715938
v -0.869923 2.806731 -0.964001
v -0.863693 2.866067 -0.946720
v -0.778823 2.808377 -0.983364
v -0.776852 2.871269 -0.964001
v 0.965544 2.806731 -0.864330
v 0.949004 2.866067 -0.857820
v 0.984077 2.808377 -0.770782
v 0.965544 2.871269 -0.768723
v -0.883840 0.092753 0.798917
v -0.899244 0.149634 0.804980
v -0.899244 0.087870 0.715938
v -0.916505 0.148089 0.717856
v 0.883840 0.092753 -0.798917
v 0.899244 0.149634 -0.804980
v 0.899244 0.087870 -0.715938
v 0.916505 0.148089 -0.717856
v -0.804387 0.092753 -0.881713
v -0.810190 0.149634 -0.897807
v -0.723509 0.087870 -0.897807
v -0.725345 0.148089 -0.915840
v 0.804386 0.092753 0.881713
v 0.810189 0.149634 0.897807
v 0.723509 0.087870 0.897807
v 0.725345 0.148089 0.915840
v -0.723509 0.087870 0.897807
v -0.725345 0.148089 0.915841
v -0.804386 0.092753 0.881713
v -0.810190 0.149634 0.897807
v 0.899244 0.087870 0.715938
v 0.916505 0.148089 0.717856
v 0.883840 0.092753 0.798917
v 0.899244 0.149634 0.804980
v 0.723509 0.087870 -0.897807
v 0.725345 0.148089 -0.915840
v 0.804386 0.092753 -0.881713
v 0.810189 0.149634 -0.897807
v -0.899244 0.087870 -0.715938
v -0.916505 0.148089 -0.717856
v -0.883840 0.092753 -0.798917
v -0.899244 0.149634 -0.804980
v -0.865196 2.448209 -0.962585
v -0.772801 2.448209 -0.982531
v 0.963801 2.448209 -0.859795
v 0.982891 2.448209 -0.764880
v -0.963801 2.448209 0.859795
v -0.982891 2.448209 0.764880
v -0.965544 2.806731 0.864330
v -0.949005 2.866067 0.857820
v -0.984077 2.808377 0.770782
v -0.965544 2.871269 0.768723
v 0.865196 2.448209 0.962585
v 0.772801 2.448209 0.982531
v -0.772801 2.448209 0.982531
v -0.865196 2.448209 0.962585
v 0.982891 2.448209 0.764880
v 0.963801 2.448209 0.859795
v 0.772801 2.448209 -0.982531
v 0.865196 2.448209 -0.962585
v -0.982891 2.448209 -0.764880
v -0.963801 2.448209 -0.859795
vn -0.5436 -0.6575 0.5217
vn -0.5412 0.6614 0.5193
vn -0.5436 -0.6575 -0.5217
vn -0.5412 0.6614 -0.5193
vn 0.5436 -0.6575 0.5217
vn 0.5412 0.6614 0.5193
vn 0.5436 -0.6575 -0.5217
vn 0.5412 0.6614 -0.5193
vn -0.5792 -0.5951 0.5571
vn -0.5792 -0.5951 -0.5571
vn 0.5792 -0.5951 -0.5571
vn 0.5792 -0.5951 0.5571
vn -0.6427 -0.4511 0.6193
vn -0.6427 -0.4511 -0.6193
vn 0.6427 -0.4511 -0.6193
vn 0.6427 -0.4511 0.6193
vn -0.7013 0.2266 -0.6759
vn 0.7013 0.2266 -0.6759
vn 0.7013 0.2266 0.6759
vn -0.7013 0.2266 0.6759
vn -0.6439 -0.7601 0.0873
vn -0.6179 -0.7311 0.2894
vn -0.6406 0.7629 -0.0869
vn -0.6149 0.7341 -0.2881
vn -0.7125 -0.1405 -0.6875
vn -0.6561 -0.4116 -0.6326
vn -0.0912 -0.7713 -0.6299
vn -0.3034 -0.7387 -0.6019
vn 0.0907 0.7741 -0.6266
vn 0.3020 0.7417 -0.5989
vn 0.7125 -0.1405 -0.6875
vn 0.6561 -0.4116 -0.6326
vn 0.6439 -0.7601 -0.0873
vn 0.6179 -0.7311 -0.2894
vn 0.6406 0.7629 0.0869
vn 0.6149 0.7341 0.2881
vn 0.7125 -0.1405 0.6875
vn 0.6561 -0.4116 0.6326
vn 0.0912 -0.7713 0.6299
vn 0.3034 -0.7387 0.6019
vn -0.0907 0.7741 0.6266
vn -0.3020 0.7417 0.5989
vn -0.6720 0.3595 0.6474
vn -0.7116 0.1581 0.6846
vn -0.5198 -0.6924 -0.5004
vn -0.3982 -0.8335 -0.3830
vn 0.5198 -0.6924 -0.5004
vn 0.3982 -0.8335 -0.3830
vn 0.5198 -0.6924 0.5004
vn 0.3982 -0.8335 0.3830
vn -0.0815 -0.5194 0.8506
vn -0.3035 -0.5655 0.7669
vn 0.8522 -0.5176 0.0763
vn 0.7771 -0.5612 0.2849
vn 0.0815 -0.5194 -0.8506
vn 0.3035 -0.5655 -0.7669
vn -0.8522 -0.5176 -0.0763
vn -0.7771 -0.5612 -0.2849
vn -0.3982 -0.8335 0.3830
vn -0.5198 -0.6924 0.5004
vn -0.1006 -0.3886 0.9159
vn -0.3433 -0.4307 0.8346
vn 0.9172 -0.3872 0.0941
vn 0.8444 -0.4278 0.3224
vn 0.1006 -0.3886 -0.9159
vn 0.3433 -0.4307 -0.8346
vn -0.9172 -0.3872 -0.0941
vn -0.8444 -0.4278 -0.3224
vn -0.7116 0.1581 -0.6846
vn -0.6720 0.3595 -0.6474
vn 0.7116 0.1581 -0.6846
vn 0.6720 0.3595 -0.6474
vn 0.7116 0.1581 0.6846
vn 0.6720 0.3595 0.6474
vn -0.7181 0.0734 0.6921
vn -0.9774 0.1867 -0.0996
vn -0.9131 0.2113 -0.3488
vn 0.1066 0.1875 -0.9765
vn 0.3719 0.2131 -0.9035
vn 0.9774 0.1867 0.0996
vn 0.9131 0.2113 0.3488
vn -0.1066 0.1875 0.9765
vn -0.3719 0.2131 0.9035
vn 0.3034 -0.7387 -0.6019
vn 0.0912 -0.7713 -0.6299
vn -0.3020 0.7417 -0.5989
vn -0.0907 0.7741 -0.6266
vn -0.3034 -0.7387 0.6019
vn -0.0912 -0.7713 0.6299
vn 0.3020 0.7417 0.5989
vn 0.0907 0.7741 0.6266
vn 0.3035 -0.5655 0.7669
vn 0.0815 -0.5194 0.8506
vn -0.3035 -0.5655 -0.7669
vn -0.0815 -0.5194 -0.8506
vn 0.3433 -0.4307 0.8346
vn 0.1006 -0.3886 0.9159
vn -0.3433 -0.4307 -0.8346
vn -0.1006 -0.3886 -0.9159
vn -0.3719 0.2131 -0.9035
vn -0.1066 0.1875 -0.9765
vn 0.3719 0.2131 0.9035
vn 0.1066 0.1875 0.9765
vn 0.6540 0.4179 0.6305
vn 0.7127 0.1384 0.6877
vn 0.6540 0.4179 -0.6305
vn 0.7127 0.1384 -0.6877
vn -0.6179 -0.7311 -0.2894
vn -0.6439 -0.7601 -0.0873
vn -0.6149 0.7341 0.2881
vn -0.6406 0.7629 0.0869
vn 0.6179 -0.7311 0.2894
vn 0.6439 -0.7601 0.0873
vn 0.6149 0.7341 -0.2881
vn 0.6406 0.7629 -0.0869
vn 0.7771 -0.5612 -0.2849
vn 0.8522 -0.5176 -0.0763
vn -0.7771 -0.5612 0.2849
vn -0.8522 -0.5176 0.0763
vn 0.8444 -0.4278 -0.3224
vn 0.9172 -0.3872 -0.0941
vn -0.8444 -0.4278 0.3224
vn -0.9172 -0.3872 0.0941
vn -0.9131 0.2113 0.3488
vn -0.9774 0.1867 0.0996
vn 0.9131 0.2113 -0.3488
vn 0.9774 0.1867 -0.0996
vn -0.6540 0.4179 -0.6305
vn -0.7127 0.1384 -0.6877
vn -0.7104 -0.1613 0.6850
vn -0.7181 0.0734 -0.6921
vn 0.7181 0.0734 -0.6921
vn 0.7181 0.0734 0.6921
vn -0.6561 -0.4116 0.6326
vn -0.7125 -0.1405 0.6875
vn -0.7127 0.1384 0.6877
vn -0.6540 0.4179 0.6305
vn -0.7104 -0.1613 -0.6850
vn 0.7104 -0.1613 -0.6850
vn 0.7104 -0.1613 0.6850
vn -0.9851 0.1406 -0.0988
vn -0.8895 0.4473 -0.0932
vn -0.9256 0.1382 -0.3524
vn -0.8440 0.4297 -0.3210
vn 0.1055 0.1467 -0.9835
vn 0.0988 0.4614 -0.8817
vn 0.3750 0.1425 -0.9160
vn 0.3405 0.4402 -0.8308
vn 0.0852 -0.9929 0.0831
vn 0.3150 -0.9454 0.0834
vn 0.0859 -0.9483 0.3054
vn 0.3020 -0.9076 0.2918
vn -0.0846 0.9930 0.0824
vn -0.3129 0.9462 0.0829
vn -0.0854 0.9490 0.3034
vn -0.3001 0.9088 0.2900
vn -0.1022 0.3002 0.9484
vn -0.0959 0.1269 0.9873
vn -0.3566 0.3390 0.8706
vn -0.3649 0.1459 0.9196
vn 0.9495 0.2989 0.0955
vn 0.9879 0.1263 0.0895
vn 0.8804 0.3361 0.3345
vn 0.9288 0.1443 0.3414
vn 0.1022 0.3001 -0.9484
vn 0.0959 0.1269 -0.9873
vn 0.3566 0.3390 -0.8706
vn 0.3649 0.1459 -0.9196
vn -0.9495 0.2989 -0.0955
vn -0.9879 0.1263 -0.0895
vn -0.8804 0.3361 -0.3345
vn -0.9288 0.1443 -0.3414
vn -0.0633 -0.7773 0.6259
vn -0.0817 -0.6242 0.7770
vn -0.2141 -0.8158 0.5373
vn -0.2779 -0.6706 0.6878
vn 0.6278 -0.7761 0.0594
vn 0.7787 -0.6227 0.0766
vn 0.5458 -0.8133 0.2017
vn 0.6971 -0.6676 0.2614
vn 0.0633 -0.7773 -0.6259
vn 0.0817 -0.6242 -0.7770
vn 0.2141 -0.8158 -0.5373
vn 0.2779 -0.6706 -0.6878
vn -0.6278 -0.7761 -0.0594
vn -0.7787 -0.6227 -0.0766
vn -0.5458 -0.8133 -0.2017
vn -0.6971 -0.6676 -0.2614
vn -0.9931 0.0596 -0.1008
vn -0.9321 0.0680 -0.3558
vn 0.1080 0.0598 -0.9924
vn 0.3796 0.0686 -0.9226
vn 0.9931 0.0596 0.1008
vn 0.9321 0.0680 0.3558
vn -0.1080 0.0598 0.9924
vn -0.3796 0.0686 0.9226
vn 0.3796 0.0686 0.9226
vn 0.1080 0.0598 0.9924
vn -0.3796 0.0686 -0.9226
vn -0.1080 0.0598 -0.9924
vn -0.2141 -0.8158 -0.5373
vn -0.2779 -0.6706 -0.6878
vn -0.0633 -0.7773 -0.6259
vn -0.0817 -0.6242 -0.7770
vn 0.2141 -0.8158 0.5373
vn 0.2779 -0.6706 0.6878
vn 0.0633 -0.7773 0.6259
vn 0.0817 -0.6242 0.7770
vn -0.3566 0.3390 -0.8706
vn -0.3649 0.1459 -0.9196
vn -0.1022 0.3001 -0.9484
vn -0.0959 0.1269 -0.9873
vn 0.3566 0.3390 0.8706
vn 0.3649 0.1459 0.9196
vn 0.1022 0.3002 0.9484
vn 0.0959 0.1269 0.9873
vn 0.3129 0.9462 0.0829
vn 0.0846 0.9930 0.0824
vn 0.3001 0.9088 0.2900
vn 0.0854 0.9490 0.3034
vn -0.3150 -0.9454 0.0834
vn -0.0852 -0.9929 0.0831
vn -0.3020 -0.9076 0.2918
vn -0.0860 -0.9483 0.3054
vn 0.9851 0.1406 0.0988
vn 0.8895 0.4473 0.0932
vn 0.9256 0.1382 0.3524
vn 0.8440 0.4297 0.3210
vn -0.1055 0.1467 0.9835
vn -0.0988 0.4614 0.8817
vn -0.3751 0.1425 0.9160
vn -0.3405 0.4402 0.8308
vn 0.3751 0.1425 0.9160
vn 0.3405 0.4402 0.8308
vn 0.1055 0.1467 0.9835
vn 0.0988 0.4614 0.8817
vn -0.3020 -0.9076 -0.2918
vn -0.0859 -0.9483 -0.3054
vn -0.3150 -0.9454 -0.0834
vn -0.0852 -0.9929 -0.0831
vn 0.3001 0.9088 -0.2900
vn 0.0854 0.9490 -0.3034
vn 0.3129 0.9462 -0.0829
vn 0.0846 0.9930 -0.0824
vn 0.9321 0.0680 -0.3558
vn 0.9931 0.0596 -0.1008
vn -0.9321 0.0680 0.3558
vn -0.9931 0.0596 0.1008
vn -0.5458 -0.8133 0.2017
vn -0.6971 -0.6676 0.2614
vn -0.6278 -0.7761 0.0594
vn -0.7787 -0.6227 0.0766
vn 0.5458 -0.8133 -0.2017
vn 0.6971 -0.6676 -0.2614
vn 0.6278 -0.7761 -0.0594
vn 0.7787 -0.6227 -0.0766
vn -0.8804 0.3361 0.3345
vn -0.9288 0.1443 0.3414
vn -0.9495 0.2989 0.0955
vn -0.9879 0.1263 0.0895
vn 0.8804 0.3361 -0.3345
vn 0.9288 0.1443 -0.3414
vn 0.9495 0.2989 -0.0955
vn 0.9879 0.1263 -0.0895
vn -0.0854 0.9490 -0.3034
vn -0.3001 0.9088 -0.2900
vn -0.0846 0.9930 -0.0824
vn -0.3129 0.9462 -0.0829
vn 0.0859 -0.9483 -0.3054
vn 0.3020 -0.9076 -0.2918
vn 0.0852 -0.9929 -0.0831
vn 0.3150 -0.9454 -0.0834
vn -0.3751 0.1425 -0.9160
vn -0.3405 0.4402 -0.8308
vn -0.1055 0.1467 -0.9835
vn -0.0988 0.4614 -0.8817
vn 0.9256 0.1382 -0.3524
vn 0.8440 0.4297 -0.3210
vn 0.9851 0.1406 -0.0988
vn 0.8895 0.4473 -0.0932
vn -0.8467 -0.4237 0.3219
vn -0.9257 -0.1393 0.3518
vn -0.8924 -0.4415 0.0935
vn -0.9852 -0.1401 0.0983
vn 0.8467 -0.4237 -0.3219
vn 0.9257 -0.1393 -0.3518
vn 0.8924 -0.4415 -0.0935
vn 0.9852 -0.1401 -0.0983
vn -0.3414 -0.4340 -0.8337
vn -0.3744 -0.1434 -0.9161
vn -0.0991 -0.4554 -0.8847
vn -0.1050 -0.1457 -0.9837
vn 0.3414 -0.4340 0.8337
vn 0.3744 -0.1434 0.9161
vn 0.0991 -0.4554 0.8847
vn 0.1050 -0.1457 0.9837
vn -0.0991 -0.4554 0.8847
vn -0.1050 -0.1457 0.9837
vn -0.3414 -0.4340 0.8337
vn -0.3744 -0.1434 0.9161
vn 0.8924 -0.4415 0.0935
vn 0.9852 -0.1401 0.0983
vn 0.8467 -0.4237 0.3219
vn 0.9257 -0.1393 0.3518
vn 0.0991 -0.4554 -0.8847
vn 0.1050 -0.1457 -0.9837
vn 0.3414 -0.4340 -0.8337
vn 0.3744 -0.1434 -0.9161
vn -0.8924 -0.4415 -0.0935
vn -0.9852 -0.1401 -0.0983
vn -0.8467 -0.4237 -0.3219
vn -0.9257 -0.1393 -0.3518
vn -0.3780 -0.1517 -0.9133
vn -0.1093 -0.1327 -0.9851
vn 0.9228 -0.1507 -0.3545
vn 0.9859 -0.1325 -0.1021
vn -0.9228 -0.1507 0.3545
vn -0.9859 -0.1325 0.1021
vn -0.9256 0.1382 0.3524
vn -0.8440 0.4297 0.3210
vn -0.9851 0.1406 0.0988
vn -0.8895 0.4473 0.0932
vn 0.3780 -0.1517 0.9133
vn 0.1093 -0.1327 0.9851
vn -0.1093 -0.1327 0.9851
vn -0.3780 -0.1517 0.9133
vn 0.9859 -0.1325 0.1021
vn 0.9228 -0.1507 0.3545
vn 0.1093 -0.1327 -0.9851
vn 0.3780 -0.1517 -0.9133
vn -0.9859 -0.1325 -0.1021
vn -0.9228 -0.1507 -0.3545
vt 0.254369 0.016413
vt 0.035282 0.117188
s 1
usemtl BASE_MATERIAL
f 141/1/141 142/1/142 144/1/144 143/1/143
f 272/2/272 150/2/150 149/2/149 271/2/271
f 142/1/142 23/1/23 24/1/24 144/1/144
f 144/1/144 24/1/24 4/1/4 128/1/128
f 143/1/143 144/1/144 128/1/128 129/1/129
f 145/1/145 146/1/146 148/1/148 147/1/147
f 146/1/146 29/1/29 30/1/30 148/1/148
f 148/1/148 30/1/30 8/1/8 106/1/106
f 147/1/147 148/1/148 106/1/106 107/1/107
f 149/2/149 150/2/150 152/2/152 151/2/151
f 268/1/268 154/1/154 153/1/153 267/1/267
f 150/2/150 113/2/113 112/2/112 152/2/152
f 152/2/152 112/2/112 5/2/5 40/2/40
f 151/2/151 152/2/152 40/2/40 39/2/39
f 153/1/153 154/1/154 156/1/156 155/1/155
f 154/1/154 111/1/111 110/1/110 156/1/156
f 156/1/156 110/1/110 2/1/2 42/1/42
f 155/1/155 156/1/156 42/1/42 41/1/41
f 157/2/157 158/2/158 160/2/160 159/2/159
f 159/2/159 160/2/160 44/2/44 43/2/43
f 158/2/158 51/2/51 52/2/52 160/2/160
f 160/2/160 52/2/52 9/2/9 44/2/44
f 83/2/83 159/2/159 43/2/43 20/2/20
f 82/2/82 157/2/157 159/2/159 83/2/83
f 161/2/161 162/2/162 164/2/164 163/2/163
f 163/2/163 164/2/164 73/2/73 74/2/74
f 162/2/162 53/2/53 54/2/54 164/2/164
f 164/2/164 54/2/54 12/2/12 73/2/73
f 81/2/81 163/2/163 74/2/74 19/2/19
f 80/2/80 161/2/161 163/2/163 81/2/81
f 165/2/165 166/2/166 168/2/168 167/2/167
f 167/2/167 168/2/168 71/2/71 72/2/72
f 166/2/166 55/2/55 56/2/56 168/2/168
f 168/2/168 56/2/56 11/2/11 71/2/71
f 79/2/79 167/2/167 72/2/72 18/2/18
f 78/2/78 165/2/165 167/2/167 79/2/79
f 169/2/169 170/2/170 172/2/172 171/2/171
f 171/2/171 172/2/172 69/2/69 70/2/70
f 170/2/170 57/2/57 58/2/58 172/2/172
f 172/2/172 58/2/58 10/2/10 69/2/69
f 209/2/209 210/2/210 212/2/212 211/2/211
f 77/2/77 171/2/171 70/2/70 17/2/17
f 76/2/76 169/2/169 171/2/171 77/2/77
f 51/1/51 173/1/173 175/1/175 52/1/52
f 173/1/173 174/1/174 176/1/176 175/1/175
f 52/1/52 175/1/175 59/1/59 9/1/9
f 174/1/174 61/1/61 62/1/62 176/1/176
f 176/1/176 62/1/62 13/1/13 60/1/60
f 175/1/175 176/1/176 60/1/60 59/1/59
f 53/1/53 177/1/177 179/1/179 54/1/54
f 177/1/177 178/1/178 180/1/180 179/1/179
f 54/1/54 179/1/179 50/1/50 12/1/12
f 178/1/178 63/1/63 64/1/64 180/1/180
f 180/1/180 64/1/64 16/1/16 49/1/49
f 179/1/179 180/1/180 49/1/49 50/1/50
f 55/1/55 181/1/181 183/1/183 56/1/56
f 181/1/181 182/1/182 184/1/184 183/1/183
f 56/1/56 183/1/183 48/1/48 11/1/11
f 182/1/182 65/1/65 66/1/66 184/1/184
f 184/1/184 66/1/66 15/1/15 47/1/47
f 183/1/183 184/1/184 47/1/47 48/1/48
f 57/1/57 185/1/185 187/1/187 58/1/58
f 185/1/185 186/1/186 188/1/188 187/1/187
f 58/1/58 187/1/187 46/1/46 10/1/10
f 186/1/186 67/1/67 68/1/68 188/1/188
f 188/1/188 68/1/68 14/1/14 45/1/45
f 187/1/187 188/1/188 45/1/45 46/1/46
f 94/1/94 201/1/201 203/1/203 95/1/95
f 189/2/189 76/2/76 77/2/77 190/2/190
f 190/2/190 77/2/77 17/2/17 131/2/131
f 191/2/191 78/2/78 79/2/79 192/2/192
f 192/2/192 79/2/79 18/2/18 132/2/132
f 242/1/242 265/1/265 267/1/267 244/1/244
f 193/2/193 80/2/80 81/2/81 194/2/194
f 194/2/194 81/2/81 19/2/19 133/2/133
f 103/2/103 82/2/82 195/2/195 198/2/198
f 195/2/195 82/2/82 83/2/83 196/2/196
f 196/2/196 83/2/83 20/2/20 75/2/75
f 133/2/133 19/2/19 102/2/102 197/2/197
f 197/2/197 102/2/102 103/2/103 198/2/198
f 101/2/101 78/2/78 191/2/191 200/2/200
f 131/2/131 17/2/17 100/2/100 199/2/199
f 199/2/199 100/2/100 101/2/101 200/2/200
f 204/1/204 182/1/182 181/1/181 203/1/203
f 208/1/208 174/1/174 173/1/173 207/1/207
f 201/1/201 202/1/202 204/1/204 203/1/203
f 46/1/46 201/1/201 94/1/94 10/1/10
f 99/1/99 65/1/65 182/1/182 204/1/204
f 46/1/46 45/1/45 202/1/202 201/1/201
f 45/1/45 14/1/14 98/1/98 202/1/202
f 202/1/202 98/1/98 99/1/99 204/1/204
f 203/1/203 181/1/181 55/1/55 95/1/95
f 92/1/92 205/1/205 207/1/207 93/1/93
f 212/2/212 166/2/166 165/2/165 211/2/211
f 205/1/205 206/1/206 208/1/208 207/1/207
f 50/1/50 205/1/205 92/1/92 12/1/12
f 97/1/97 61/1/61 174/1/174 208/1/208
f 50/1/50 49/1/49 206/1/206 205/1/205
f 49/1/49 16/1/16 96/1/96 206/1/206
f 206/1/206 96/1/96 97/1/97 208/1/208
f 173/1/173 51/1/51 93/1/93 207/1/207
f 118/1/118 249/1/249 251/1/251 119/1/119
f 95/2/95 55/2/55 166/2/166 212/2/212
f 69/2/69 210/2/210 209/2/209 70/2/70
f 17/2/17 70/2/70 209/2/209 100/2/100
f 69/2/69 10/2/10 94/2/94 210/2/210
f 210/2/210 94/2/94 95/2/95 212/2/212
f 165/2/165 78/2/78 101/2/101 211/2/211
f 158/2/158 157/2/157 215/2/215 216/2/216
f 100/2/100 209/2/209 211/2/211 101/2/101
f 213/2/213 214/2/214 216/2/216 215/2/215
f 93/2/93 51/2/51 158/2/158 216/2/216
f 73/2/73 214/2/214 213/2/213 74/2/74
f 19/2/19 74/2/74 213/2/213 102/2/102
f 73/2/73 12/2/12 92/2/92 214/2/214
f 214/2/214 92/2/92 93/2/93 216/2/216
f 157/2/157 82/2/82 103/2/103 215/2/215
f 218/1/218 153/1/153 155/1/155 220/1/220
f 102/2/102 213/2/213 215/2/215 103/2/103
f 257/2/257 258/2/258 260/2/260 259/2/259
f 217/1/217 218/1/218 220/1/220 219/1/219
f 220/1/220 155/1/155 41/1/41 91/1/91
f 222/2/222 149/2/149 151/2/151 224/2/224
f 219/1/219 220/1/220 91/1/91 90/1/90
f 36/1/36 219/1/219 90/1/90 6/1/6
f 35/1/35 217/1/217 219/1/219 36/1/36
f 221/2/221 222/2/222 224/2/224 223/2/223
f 224/2/224 151/2/151 39/2/39 89/2/89
f 223/2/223 224/2/224 89/2/89 88/2/88
f 22/2/22 223/2/223 88/2/88 1/2/1
f 21/2/21 221/2/221 223/2/223 22/2/22
f 225/1/225 226/1/226 228/1/228 227/1/227
f 226/1/226 35/1/35 36/1/36 228/1/228
f 228/1/228 36/1/36 6/1/6 104/1/104
f 227/1/227 228/1/228 104/1/104 105/1/105
f 229/1/229 230/1/230 232/1/232 231/1/231
f 236/1/236 230/1/230 229/1/229 235/1/235
f 230/1/230 41/1/41 42/1/42 232/1/232
f 232/1/232 42/1/42 2/1/2 137/1/137
f 231/1/231 232/1/232 137/1/137 136/1/136
f 233/1/233 234/1/234 236/1/236 235/1/235
f 41/1/41 230/1/230 236/1/236 91/1/91
f 105/1/105 104/1/104 234/1/234 233/1/233
f 104/1/104 6/1/6 90/1/90 234/1/234
f 234/1/234 90/1/90 91/1/91 236/1/236
f 237/2/237 238/2/238 240/2/240 239/2/239
f 3/2/3 28/2/28 237/2/237 108/2/108
f 28/2/28 27/2/27 238/2/238 237/2/237
f 108/2/108 237/2/237 239/2/239 109/2/109
f 240/2/240 222/2/222 221/2/221 239/2/239
f 221/2/221 21/2/21 109/2/109 239/2/239
f 241/1/241 242/1/242 244/1/244 243/1/243
f 8/1/8 30/1/30 241/1/241 114/1/114
f 30/1/30 29/1/29 242/1/242 241/1/241
f 114/1/114 241/1/241 243/1/243 115/1/115
f 244/1/244 218/1/218 217/1/217 243/1/243
f 217/1/217 35/1/35 115/1/115 243/1/243
f 132/2/132 18/2/18 126/2/126 245/2/245
f 245/2/245 126/2/126 127/2/127 246/2/246
f 127/2/127 80/2/80 193/2/193 246/2/246
f 75/2/75 20/2/20 124/2/124 247/2/247
f 247/2/247 124/2/124 125/2/125 248/2/248
f 125/2/125 76/2/76 189/2/189 248/2/248
f 249/1/249 250/1/250 252/1/252 251/1/251
f 9/1/9 59/1/59 249/1/249 118/1/118
f 59/1/59 60/1/60 250/1/250 249/1/249
f 60/1/60 13/1/13 122/1/122 250/1/250
f 250/1/250 122/1/122 123/1/123 252/1/252
f 185/1/185 57/1/57 119/1/119 251/1/251
f 252/1/252 186/1/186 185/1/185 251/1/251
f 123/1/123 67/1/67 186/1/186 252/1/252
f 116/1/116 253/1/253 255/1/255 117/1/117
f 253/1/253 254/1/254 256/1/256 255/1/255
f 48/1/48 253/1/253 116/1/116 11/1/11
f 48/1/48 47/1/47 254/1/254 253/1/253
f 47/1/47 15/1/15 120/1/120 254/1/254
f 254/1/254 120/1/120 121/1/121 256/1/256
f 177/1/177 53/1/53 117/1/117 255/1/255
f 256/1/256 178/1/178 177/1/177 255/1/255
f 121/1/121 63/1/63 178/1/178 256/1/256
f 43/2/43 44/2/44 258/2/258 257/2/257
f 20/2/20 43/2/43 257/2/257 124/2/124
f 44/2/44 9/2/9 118/2/118 258/2/258
f 258/2/258 118/2/118 119/2/119 260/2/260
f 124/2/124 257/2/257 259/2/259 125/2/125
f 260/2/260 170/2/170 169/2/169 259/2/259
f 119/2/119 57/2/57 170/2/170 260/2/260
f 261/2/261 262/2/262 264/2/264 263/2/263
f 169/2/169 76/2/76 125/2/125 259/2/259
f 71/2/71 262/2/262 261/2/261 72/2/72
f 18/2/18 72/2/72 261/2/261 126/2/126
f 71/2/71 11/2/11 116/2/116 262/2/262
f 262/2/262 116/2/116 117/2/117 264/2/264
f 126/2/126 261/2/261 263/2/263 127/2/127
f 264/2/264 162/2/162 161/2/161 263/2/263
f 117/2/117 53/2/53 162/2/162 264/2/264
f 161/2/161 80/2/80 127/2/127 263/2/263
f 29/1/29 87/1/87 265/1/265 242/1/242
f 265/1/265 266/1/266 268/1/268 267/1/267
f 153/1/153 218/1/218 244/1/244 267/1/267
f 87/1/87 86/1/86 266/1/266 265/1/265
f 86/1/86 4/1/4 24/1/24 266/1/266
f 266/1/266 24/1/24 23/1/23 268/1/268
f 238/2/238 269/2/269 271/2/271 240/2/240
f 23/1/23 111/1/111 154/1/154 268/1/268
f 27/2/27 85/2/85 269/2/269 238/2/238
f 269/2/269 270/2/270 272/2/272 271/2/271
f 149/2/149 222/2/222 240/2/240 271/2/271
f 85/2/85 84/2/84 270/2/270 269/2/269
f 84/2/84 7/2/7 34/2/34 270/2/270
f 270/2/270 34/2/34 33/2/33 272/2/272
f 276/1/276 146/1/146 145/1/145 275/1/275
f 33/2/33 113/2/113 150/2/150 272/2/272
f 273/1/273 274/1/274 276/1/276 275/1/275
f 87/1/87 29/1/29 146/1/146 276/1/276
f 129/1/129 128/1/128 274/1/274 273/1/273
f 128/1/128 4/1/4 86/1/86 274/1/274
f 274/1/274 86/1/86 87/1/87 276/1/276
f 277/1/277 278/1/278 280/1/280 279/1/279
f 107/1/107 106/1/106 278/1/278 277/1/277
f 106/1/106 8/1/8 114/1/114 278/1/278
f 278/1/278 114/1/114 115/1/115 280/1/280
f 280/1/280 226/1/226 225/1/225 279/1/279
f 115/1/115 35/1/35 226/1/226 280/1/280
f 282/2/282 247/2/247 248/2/248 284/2/284
f 281/2/281 282/2/282 284/2/284 283/2/283
f 135/2/135 75/2/75 247/2/247 282/2/282
f 1/2/1 134/2/134 281/2/281 22/2/22
f 134/2/134 135/2/135 282/2/282 281/2/281
f 193/2/193 302/2/302 288/2/288 246/2/246
f 22/2/22 281/2/281 283/2/283 21/2/21
f 286/2/286 245/2/245 246/2/246 288/2/288
f 285/2/285 286/2/286 288/2/288 287/2/287
f 31/2/31 132/2/132 245/2/245 286/2/286
f 7/2/7 32/2/32 285/2/285 34/2/34
f 32/2/32 31/2/31 286/2/286 285/2/285
f 288/2/288 302/2/302 301/2/301 287/2/287
f 34/2/34 285/2/285 287/2/287 33/2/33
f 290/2/290 199/2/199 200/2/200 292/2/292
f 289/2/289 290/2/290 292/2/292 291/2/291
f 25/2/25 131/2/131 199/2/199 290/2/290
f 3/2/3 26/2/26 289/2/289 28/2/28
f 26/2/26 25/2/25 290/2/290 289/2/289
f 28/2/28 289/2/289 291/2/291 27/2/27
f 294/2/294 197/2/197 198/2/198 296/2/296
f 293/2/293 294/2/294 296/2/296 295/2/295
f 191/2/191 306/2/306 292/2/292 200/2/200
f 37/2/37 133/2/133 197/2/197 294/2/294
f 5/2/5 38/2/38 293/2/293 40/2/40
f 38/2/38 37/2/37 294/2/294 293/2/293
f 195/2/195 298/2/298 296/2/296 198/2/198
f 296/2/296 298/2/298 297/2/297 295/2/295
f 40/2/40 293/2/293 295/2/295 39/2/39
f 295/2/295 297/2/297 89/2/89 39/2/39
f 298/2/298 195/2/195 196/2/196 300/2/300
f 297/2/297 298/2/298 300/2/300 299/2/299
f 196/2/196 75/2/75 135/2/135 300/2/300
f 299/2/299 300/2/300 135/2/135 134/2/134
f 88/2/88 299/2/299 134/2/134 1/2/1
f 89/2/89 297/2/297 299/2/299 88/2/88
f 292/2/292 306/2/306 305/2/305 291/2/291
f 301/2/301 113/2/113 33/2/33 287/2/287
f 302/2/302 193/2/193 194/2/194 304/2/304
f 301/2/301 302/2/302 304/2/304 303/2/303
f 194/2/194 133/2/133 37/2/37 304/2/304
f 303/2/303 304/2/304 37/2/37 38/2/38
f 112/2/112 303/2/303 38/2/38 5/2/5
f 113/2/113 301/2/301 303/2/303 112/2/112
f 284/2/284 310/2/310 309/2/309 283/2/283
f 291/2/291 305/2/305 85/2/85 27/2/27
f 306/2/306 191/2/191 192/2/192 308/2/308
f 305/2/305 306/2/306 308/2/308 307/2/307
f 192/2/192 132/2/132 31/2/31 308/2/308
f 307/2/307 308/2/308 31/2/31 32/2/32
f 84/2/84 307/2/307 32/2/32 7/2/7
f 85/2/85 305/2/305 307/2/307 84/2/84
f 309/2/309 109/2/109 21/2/21 283/2/283
f 310/2/310 189/2/189 190/2/190 312/2/312
f 309/2/309 310/2/310 312/2/312 311/2/311
f 190/2/190 131/2/131 25/2/25 312/2/312
f 189/2/189 310/2/310 284/2/284 248/2/248
f 311/2/311 312/2/312 25/2/25 26/2/26
f 108/2/108 311/2/311 26/2/26 3/2/3
f 109/2/109 309/2/309 311/2/311 108/2/108
f 313/1/313 273/1/273 275/1/275 314/1/314
f 14/1/14 138/1/138 313/1/313 98/1/98
f 129/1/129 273/1/273 313/1/313 138/1/138
f 98/1/98 313/1/313 314/1/314 99/1/99
f 315/1/315 277/1/277 279/1/279 316/1/316
f 15/1/15 139/1/139 315/1/315 120/1/120
f 107/1/107 277/1/277 315/1/315 139/1/139
f 120/1/120 315/1/315 316/1/316 121/1/121
f 13/1/13 130/1/130 317/1/317 122/1/122
f 317/1/317 319/1/319 321/1/321 318/1/318
f 122/1/122 317/1/317 318/1/318 123/1/123
f 279/1/279 225/1/225 327/1/327 316/1/316
f 319/1/319 320/1/320 322/1/322 321/1/321
f 130/1/130 136/1/136 319/1/319 317/1/317
f 136/1/136 137/1/137 320/1/320 319/1/319
f 137/1/137 2/1/2 110/1/110 320/1/320
f 320/1/320 110/1/110 111/1/111 322/1/322
f 323/1/323 233/1/233 235/1/235 324/1/324
f 16/1/16 140/1/140 323/1/323 96/1/96
f 105/1/105 233/1/233 323/1/323 140/1/140
f 235/1/235 229/1/229 325/1/325 324/1/324
f 96/1/96 323/1/323 324/1/324 97/1/97
f 324/1/324 325/1/325 61/1/61 97/1/97
f 325/1/325 229/1/229 231/1/231 326/1/326
f 326/1/326 231/1/231 136/1/136 130/1/130
f 62/1/62 326/1/326 130/1/130 13/1/13
f 61/1/61 325/1/325 326/1/326 62/1/62
f 314/1/314 275/1/275 145/1/145 329/1/329
f 327/1/327 63/1/63 121/1/121 316/1/316
f 327/1/327 225/1/225 227/1/227 328/1/328
f 328/1/328 227/1/227 105/1/105 140/1/140
f 64/1/64 328/1/328 140/1/140 16/1/16
f 63/1/63 327/1/327 328/1/328 64/1/64
f 99/1/99 314/1/314 329/1/329 65/1/65
f 329/1/329 145/1/145 147/1/147 330/1/330
f 330/1/330 147/1/147 107/1/107 139/1/139
f 66/1/66 330/1/330 139/1/139 15/1/15
f 65/1/65 329/1/329 330/1/330 66/1/66
f 331/1/331 67/1/67 123/1/123 318/1/318
f 331/1/331 141/1/141 143/1/143 332/1/332
f 332/1/332 143/1/143 129/1/129 138/1/138
f 141/1/141 331/1/331 318/1/318 321/1/321
f 68/1/68 332/1/332 138/1/138 14/1/14
f 67/1/67 331/1/331 332/1/332 68/1/68
f 322/1/322 142/1/142 141/1/141 321/1/321
f 111/1/111 23/1/23 142/1/142 322/1/322
