# Blender 4.1.0
# www.blender.org
mtllib pot_s.mtl
o pot_s
v 0.000000 0.000000 -0.191390
v 0.112496 0.000000 -0.154838
v 0.182023 0.000000 -0.059143
v 0.182023 0.000000 0.059143
v 0.112496 0.000000 0.154838
v 0.000000 0.000000 0.191391
v -0.112496 0.000000 0.154838
v -0.182023 0.000000 0.059143
v -0.182023 0.000000 -0.059143
v -0.112496 0.000000 -0.154838
v 0.059607 0.754006 -0.082042
v 0.000000 0.754006 -0.101409
v 0.096446 0.754006 -0.031337
v 0.096446 0.754006 0.031337
v 0.059607 0.754006 0.082042
v 0.000000 0.754006 0.101409
v -0.059608 0.754006 0.082042
v -0.096446 0.754006 0.031337
v -0.096446 0.754006 -0.031337
v -0.059608 0.754006 -0.082042
v 0.004184 0.479566 -0.253422
v 0.000000 0.086814 -0.259253
v 0.000000 0.179474 -0.293583
v 0.152385 0.086814 -0.209740
v 0.152118 0.479566 -0.205356
v 0.172564 0.179474 -0.237514
v 0.246564 0.086814 -0.080113
v 0.243546 0.479566 -0.079516
v 0.279214 0.179474 -0.090722
v 0.246564 0.086814 0.080113
v 0.243546 0.479566 0.076030
v 0.279214 0.179474 0.090722
v 0.152385 0.086814 0.209740
v 0.152118 0.479566 0.201870
v 0.172564 0.179474 0.237513
v 0.000000 0.086814 0.259253
v 0.004184 0.479566 0.249937
v 0.000000 0.179474 0.293582
v -0.152385 0.086814 0.209740
v -0.143749 0.479566 0.201870
v -0.172564 0.179474 0.237513
v -0.246564 0.086814 0.080113
v -0.235177 0.479566 0.076030
v -0.279214 0.179474 0.090722
v -0.246564 0.086814 -0.080113
v -0.235177 0.479566 -0.079516
v -0.279214 0.179474 -0.090722
v -0.152385 0.086814 -0.209740
v -0.143749 0.479566 -0.205356
v -0.172564 0.179474 -0.237514
v 0.000000 0.547698 -0.211484
v 0.000000 0.613821 -0.160388
v 0.124308 0.547698 -0.171094
v 0.094274 0.613821 -0.129756
v 0.201134 0.547698 -0.065352
v 0.152538 0.613821 -0.049562
v 0.201134 0.547698 0.065352
v 0.152538 0.613821 0.049563
v 0.124308 0.547698 0.171095
v 0.094274 0.613821 0.129757
v 0.000000 0.547698 0.211485
v 0.000000 0.613821 0.160389
v -0.124308 0.547698 0.171095
v -0.094275 0.613821 0.129757
v -0.201135 0.547698 0.065352
v -0.152539 0.613821 0.049563
v -0.201135 0.547698 -0.065352
v -0.152539 0.613821 -0.049562
v -0.124308 0.547698 -0.171094
v -0.094275 0.613821 -0.129756
v 0.119450 0.758923 -0.164408
v 0.000000 0.758923 -0.203220
v 0.193274 0.758923 -0.062799
v 0.193274 0.758923 0.062798
v 0.119450 0.758923 0.164408
v 0.000000 0.758923 0.203219
v -0.119450 0.758923 0.164408
v -0.193274 0.758923 0.062798
v -0.193274 0.758923 -0.062799
v -0.119450 0.758923 -0.164408
v 0.058997 0.637267 -0.081203
v 0.000000 0.637267 -0.100373
v 0.095460 0.637267 -0.031017
v 0.095460 0.637267 0.031017
v 0.058997 0.637267 0.081203
v 0.000000 0.637267 0.100373
v -0.058998 0.637267 0.081203
v -0.095460 0.637267 0.031017
v -0.095460 0.637267 -0.031017
v -0.058998 0.637267 -0.081203
v -0.188488 0.336464 -0.259225
v -0.156602 0.480438 -0.223017
v 0.004169 0.479642 -0.275317
v -0.000117 0.336083 -0.320563
v -0.182346 0.184100 -0.250982
v 0.000002 0.184100 -0.310231
v -0.304798 0.336783 -0.098951
v -0.255901 0.481114 -0.086236
v -0.295044 0.184100 -0.095867
v -0.304749 0.336924 0.099029
v -0.255870 0.481416 0.082755
v -0.295044 0.184100 0.095865
v -0.188407 0.336839 0.259210
v -0.156557 0.481234 0.219481
v -0.182346 0.184100 0.250979
v -0.000114 0.336557 0.320493
v 0.004168 0.480634 0.271764
v 0.000002 0.184100 0.310228
v 0.188314 0.336178 0.259402
v 0.164967 0.479840 0.219583
v 0.182350 0.184100 0.250979
v 0.304878 0.335846 0.099148
v 0.264387 0.479154 0.082812
v 0.295048 0.184100 0.095865
v 0.304927 0.335694 -0.099066
v 0.264402 0.478844 -0.086292
v 0.295048 0.184100 -0.095867
v 0.188392 0.335786 -0.259414
v 0.164997 0.479031 -0.223096
v 0.182350 0.184100 -0.250982
v -0.185417 0.260282 -0.255103
v -0.000058 0.260091 -0.315397
v -0.299921 0.260442 -0.097409
v -0.299896 0.260512 0.097447
v -0.185377 0.260470 0.255095
v -0.000056 0.260329 0.315360
v 0.185332 0.260139 0.255191
v 0.299963 0.259973 0.097507
v 0.299987 0.259897 -0.097467
v 0.185371 0.259943 -0.255198
vn -0.4631 -0.6159 -0.6374
vn -0.5173 -0.4750 -0.7119
vn -0.0000 -0.4750 -0.8800
vn -0.0000 -0.6159 -0.7879
vn 0.7493 -0.6159 -0.2435
vn 0.8369 -0.4750 -0.2719
vn 0.8369 -0.4750 0.2719
vn 0.7493 -0.6159 0.2435
vn 0.5173 -0.4750 0.7119
vn 0.4631 -0.6159 0.6374
vn -0.0000 -0.4750 0.8800
vn -0.0000 -0.6159 0.7879
vn -0.5173 -0.4750 0.7119
vn -0.4631 -0.6159 0.6374
vn -0.8369 -0.4750 0.2719
vn -0.7493 -0.6159 0.2435
vn -0.8369 -0.4750 -0.2719
vn -0.7493 -0.6159 -0.2435
vn -0.0000 0.2030 0.9792
vn 0.5755 0.2030 0.7922
vn 0.5637 -0.2831 0.7759
vn -0.0000 -0.2831 0.9591
vn 0.5173 -0.4750 -0.7119
vn 0.4631 -0.6159 -0.6374
vn -0.0000 -1.0000 -0.0000
vn -0.0000 0.2030 -0.9792
vn -0.5755 0.2030 -0.7922
vn -0.5637 -0.2831 -0.7759
vn -0.0000 -0.2831 -0.9591
vn -0.9313 0.2030 -0.3026
vn -0.9121 -0.2831 -0.2964
vn -0.9313 0.2030 0.3026
vn -0.9121 -0.2831 0.2964
vn -0.5755 0.2030 0.7922
vn -0.5637 -0.2831 0.7759
vn 0.9313 0.2030 0.3026
vn 0.9121 -0.2831 0.2964
vn 0.7949 0.5487 -0.2590
vn 0.7770 0.5769 -0.2519
vn 0.7790 0.5718 0.2573
vn 0.8024 0.5395 0.2552
vn 0.5878 0.0089 0.8090
vn 0.9510 0.0089 0.3090
vn 0.4969 0.5432 -0.6768
vn 0.4788 0.5738 -0.6644
vn 0.9313 0.2030 -0.3026
vn 0.9121 -0.2831 -0.2964
vn -0.8351 0.4750 -0.2775
vn -0.8033 0.5375 -0.2565
vn -0.4960 0.5497 -0.6722
vn -0.5027 0.4986 -0.7062
vn -0.8428 0.4639 0.2731
vn -0.8051 0.5320 0.2622
vn -0.5148 0.4706 0.7166
vn -0.4992 0.5354 0.6813
vn 0.0080 0.4919 0.8706
vn -0.0059 0.5462 0.8376
vn 0.5092 0.5182 0.6871
vn 0.4820 0.5601 0.6738
vn -0.0057 0.5635 -0.8261
vn 0.0076 0.5245 -0.8514
vn 0.2546 -0.9635 -0.0827
vn 0.1574 -0.9635 -0.2166
vn 0.0651 0.9978 0.0158
vn 0.0289 0.9992 0.0267
vn -0.5512 -0.3474 -0.7586
vn -0.0000 -0.3474 -0.9377
vn 0.0753 0.9968 -0.0251
vn 0.0455 0.9974 -0.0557
vn -0.8918 -0.3474 -0.2898
vn 0.0072 0.9989 -0.0468
vn -0.0019 0.9999 -0.0156
vn -0.8918 -0.3474 0.2898
vn 0.0155 0.9999 -0.0004
vn -0.0000 -0.9635 -0.2677
vn -0.5512 -0.3474 0.7586
vn 0.0259 0.9996 -0.0091
vn 0.0073 1.0000 0.0055
vn -0.0000 -0.3474 0.9377
vn 0.0150 0.9998 -0.0136
vn 0.0149 0.9998 -0.0136
vn 0.5512 -0.3474 0.7586
vn -0.1574 -0.9635 -0.2166
vn -0.2547 -0.9635 -0.0827
vn -0.2547 -0.9635 0.0827
vn 0.8918 -0.3474 0.2898
vn -0.1574 -0.9635 0.2166
vn 0.8918 -0.3474 -0.2898
vn -0.0000 -0.9635 0.2678
vn 0.1574 -0.9635 0.2166
vn 0.5512 -0.3474 -0.7586
vn 0.2546 -0.9635 0.0827
vn 0.5755 0.2030 -0.7922
vn 0.5637 -0.2831 -0.7759
vn -0.0000 0.9988 0.0482
vn -0.0284 0.9988 0.0390
vn -0.0459 0.9988 0.0149
vn -0.0459 0.9988 -0.0149
vn -0.0284 0.9988 -0.0390
vn -0.0000 0.9988 -0.0482
vn 0.0284 0.9988 -0.0390
vn 0.0459 0.9988 -0.0149
vn 0.0459 0.9988 0.0149
vn 0.0284 0.9988 0.0390
vn -0.0000 1.0000 -0.0000
vn 0.5878 0.0089 -0.8090
vn -0.0000 0.0089 -1.0000
vn -0.9510 0.0089 -0.3090
vn -0.9510 0.0089 0.3090
vn -0.0000 0.0089 1.0000
vn 0.9510 0.0089 -0.3090
vn -0.5878 0.0089 -0.8090
vn -0.5878 0.0089 0.8090
vn -0.5530 0.3164 -0.7708
vn 0.0054 0.3004 -0.9538
vn -0.0026 0.1144 -0.9934
vn -0.5855 0.1225 -0.8013
vn -0.8966 0.3299 -0.2953
vn -0.9436 0.1294 -0.3047
vn -0.5867 -0.0673 -0.8070
vn -0.0003 -0.0678 -0.9977
vn -0.0000 -0.0678 -0.9977
vn -0.5865 -0.0673 -0.8072
vn -0.8959 0.3360 0.2906
vn -0.9426 0.1324 0.3065
vn -0.9490 -0.0670 -0.3081
vn -0.9489 -0.0670 -0.3083
vn -0.5519 0.3324 0.7648
vn -0.5839 0.1306 0.8013
vn -0.9489 -0.0668 0.3084
vn -0.9489 -0.0668 0.3083
vn 0.0054 0.3203 0.9473
vn -0.0026 0.1245 0.9922
vn -0.5866 -0.0669 0.8071
vn -0.5865 -0.0669 0.8072
vn 0.5645 0.3044 0.7673
vn 0.5816 0.1164 0.8051
vn -0.0003 -0.0672 0.9977
vn -0.0000 -0.0672 0.9977
vn 0.9112 0.2906 0.2920
vn 0.9448 0.1094 0.3089
vn 0.5861 -0.0677 0.8074
vn 0.5864 -0.0677 0.8072
vn 0.9117 0.2843 -0.2967
vn 0.9458 0.1061 -0.3071
vn 0.9488 -0.0680 0.3085
vn 0.9488 -0.0680 0.3083
vn 0.5654 0.2881 -0.7729
vn 0.5831 0.1081 -0.8052
vn 0.9489 -0.0682 -0.3083
vn 0.9488 -0.0682 -0.3083
vn 0.5863 -0.0681 -0.8073
vn 0.5864 -0.0681 -0.8071
vt 0.142578 0.985078
vt 0.142578 0.985078
vt 0.551741 0.975561
vt 0.231085 0.434033
vt 0.231085 0.434033
vt 0.147122 0.031250
vt 0.231066 0.433882
s 1
usemtl BASE_MATERIAL
f 10/1/1 48/1/2 22/1/3 1/1/4
f 3/1/5 27/1/6 30/1/7 4/1/8
f 4/1/8 30/1/7 33/1/9 5/1/10
f 5/1/10 33/1/9 36/1/11 6/1/12
f 6/1/12 36/1/11 39/1/13 7/1/14
f 7/1/14 39/1/13 42/1/15 8/1/16
f 8/1/16 42/1/15 45/1/17 9/1/18
f 9/1/18 45/1/17 48/1/2 10/1/1
f 62/1/19 60/1/20 75/1/21 76/1/22
f 1/1/4 22/1/3 24/1/23 2/1/24
f 1/1/25 2/1/25 3/1/25 4/1/25 5/1/25 6/1/25 7/1/25 8/1/25 9/1/25 10/1/25
f 2/1/24 24/1/23 27/1/6 3/1/5
f 52/1/26 70/1/27 80/1/28 72/1/29
f 70/1/27 68/1/30 79/1/31 80/1/28
f 68/1/30 66/1/32 78/1/33 79/1/31
f 66/1/32 64/1/34 77/1/35 78/1/33
f 64/1/34 62/1/19 76/1/22 77/1/35
f 60/1/20 58/1/36 74/1/37 75/1/21
f 28/1/38 55/1/39 57/1/40 31/1/41
f 20/2/42 19/2/43 89/2/43 90/2/42
f 25/1/44 53/1/45 55/1/39 28/1/38
f 58/1/36 56/1/46 73/1/47 74/1/37
f 46/1/48 67/1/49 69/2/50 49/2/51
f 43/1/52 65/1/53 67/1/49 46/1/48
f 40/1/54 63/1/55 65/1/53 43/1/52
f 37/1/56 61/1/57 63/1/55 40/1/54
f 34/1/58 59/1/59 61/1/57 37/1/56
f 31/1/41 57/1/40 59/1/59 34/1/58
f 49/1/51 69/1/50 51/1/60 21/1/61
f 29/3/62 26/3/63 120/3/63 117/3/62
f 46/4/64 49/4/65 92/4/65 98/4/64
f 50/1/66 23/1/67 22/1/3 48/1/2
f 43/4/68 46/4/64 98/4/64 101/4/68
f 40/4/69 43/4/68 101/4/68 104/4/69
f 47/1/70 50/1/66 48/1/2 45/1/17
f 37/4/71 40/4/69 104/4/69 107/4/71
f 34/4/72 37/4/71 107/4/71 110/4/72
f 44/1/73 47/1/70 45/1/17 42/1/15
f 31/4/74 34/4/72 110/4/72 113/4/74
f 26/3/63 23/3/75 96/3/75 120/3/63
f 41/1/76 44/1/73 42/1/15 39/1/13
f 28/4/77 31/4/74 113/4/74 116/4/77
f 49/4/65 21/5/78 93/5/78 92/4/65
f 38/1/79 41/1/76 39/1/13 36/1/11
f 25/4/80 28/4/77 116/4/77 119/4/81
f 21/5/78 25/4/80 119/4/81 93/5/78
f 35/1/82 38/1/79 36/1/11 33/1/9
f 50/3/83 47/3/84 99/3/84 95/3/83
f 47/3/84 44/3/85 102/3/85 99/3/84
f 32/1/86 35/1/82 33/1/9 30/1/7
f 23/3/75 50/3/83 95/3/83 96/3/75
f 44/3/85 41/3/87 105/3/87 102/3/85
f 29/1/88 32/1/86 30/1/7 27/1/6
f 41/3/87 38/3/89 108/3/89 105/3/87
f 38/3/89 35/3/90 111/3/90 108/3/89
f 26/1/91 29/1/88 27/1/6 24/1/23
f 35/3/90 32/3/92 114/3/92 111/3/90
f 32/3/92 29/3/62 117/3/62 114/3/92
f 23/1/67 26/1/91 24/1/23 22/1/3
f 21/1/61 51/1/60 53/1/45 25/1/44
f 53/1/45 51/1/60 52/1/26 54/1/93
f 56/1/46 54/1/93 71/1/94 73/1/47
f 55/1/39 53/1/45 54/1/93 56/1/46
f 57/1/40 55/1/39 56/1/46 58/1/36
f 59/1/59 57/1/40 58/1/36 60/1/20
f 61/1/57 59/1/59 60/1/20 62/1/19
f 63/1/55 61/1/57 62/1/19 64/1/34
f 65/1/53 63/1/55 64/1/34 66/1/32
f 67/1/49 65/1/53 66/1/32 68/1/30
f 69/2/50 67/1/49 68/1/30 70/1/27
f 51/1/60 69/1/50 70/1/27 52/1/26
f 12/1/95 11/1/96 71/1/96 72/1/95
f 11/1/96 13/1/97 73/1/97 71/1/96
f 13/1/97 14/1/98 74/1/98 73/1/97
f 14/1/98 15/1/99 75/1/99 74/1/98
f 15/1/99 16/1/100 76/1/100 75/1/99
f 16/1/100 17/2/101 77/1/101 76/1/100
f 17/2/101 18/1/102 78/1/102 77/1/101
f 18/1/102 19/2/103 79/1/103 78/1/102
f 19/2/103 20/2/104 80/1/104 79/1/103
f 20/2/104 12/1/95 72/1/95 80/1/104
f 81/6/105 82/6/105 90/6/105 89/6/105 88/6/105 87/6/105 86/6/105 85/6/105 84/6/105 83/6/105
f 17/2/106 16/1/107 86/1/107 87/2/106
f 14/1/108 13/1/109 83/1/109 84/1/108
f 12/1/110 20/2/42 90/2/42 82/1/110
f 18/1/111 17/2/106 87/2/106 88/1/111
f 15/1/112 14/1/108 84/1/108 85/1/112
f 11/1/113 12/1/110 82/1/110 81/1/113
f 19/2/43 18/1/111 88/1/111 89/2/43
f 16/1/107 15/1/112 85/1/112 86/1/107
f 13/1/109 11/1/113 81/1/113 83/1/109
f 92/4/114 93/5/115 94/4/116 91/4/117
f 98/4/118 92/4/114 91/4/117 97/4/119
f 121/3/120 122/3/121 96/3/122 95/3/123
f 101/4/124 98/4/118 97/4/119 100/4/125
f 123/3/126 121/3/120 95/3/123 99/3/127
f 104/4/128 101/4/124 100/4/125 103/4/129
f 124/3/130 123/3/126 99/3/127 102/3/131
f 107/4/132 104/4/128 103/4/129 106/4/133
f 125/3/134 124/3/130 102/3/131 105/3/135
f 110/4/136 107/4/132 106/4/133 109/4/137
f 126/3/138 125/3/134 105/3/135 108/3/139
f 113/4/140 110/4/136 109/4/137 112/4/141
f 127/3/142 126/3/138 108/3/139 111/3/143
f 116/4/144 113/4/140 112/4/141 115/4/145
f 128/3/146 127/3/142 111/3/143 114/3/147
f 119/4/148 116/4/144 115/4/145 118/4/149
f 129/3/150 128/3/146 114/3/147 117/3/151
f 93/5/115 119/4/148 118/4/149 94/4/116
f 130/3/152 129/3/150 117/3/151 120/3/153
f 52/1/26 72/1/29 71/1/94 54/1/93
f 122/3/121 130/3/152 120/3/153 96/3/122
f 94/4/116 118/4/149 130/7/152 122/7/121
f 118/3/149 115/3/145 129/3/150 130/3/152
f 115/4/145 112/4/141 128/7/146 129/7/150
f 112/3/141 109/3/137 127/3/142 128/3/146
f 109/4/137 106/4/133 126/7/138 127/7/142
f 106/3/133 103/3/129 125/3/134 126/3/138
f 103/4/129 100/4/125 124/7/130 125/7/134
f 100/3/125 97/3/119 123/3/126 124/3/130
f 97/4/119 91/4/117 121/7/120 123/7/126
f 91/3/117 94/3/116 122/3/121 121/3/120
