# Blender 4.1.0
# www.blender.org
mtllib pot_l.mtl
o pot_l
v 0.000000 0.000000 -0.191391
v 0.112496 0.000000 -0.154839
v 0.182023 0.000000 -0.059143
v 0.182023 0.000000 0.059143
v 0.112496 0.000000 0.154838
v 0.000000 0.000000 0.191390
v -0.112496 0.000000 0.154838
v -0.182023 0.000000 0.059143
v -0.182023 0.000000 -0.059143
v -0.112496 0.000000 -0.154839
v 0.034471 1.302484 -0.047446
v 0.000000 1.302484 -0.058646
v 0.055776 1.302484 -0.018123
v 0.055776 1.302484 0.018122
v 0.034471 1.302484 0.047445
v 0.000000 1.302484 0.058645
v -0.034472 1.302484 0.047445
v -0.055776 1.302484 0.018122
v -0.055776 1.302484 -0.018123
v -0.034472 1.302484 -0.047446
v 0.004177 0.523838 -0.279512
v 0.000000 0.103067 -0.259253
v 0.000000 0.213265 -0.293583
v 0.152385 0.103067 -0.209740
v 0.167448 0.523838 -0.226462
v 0.172564 0.213265 -0.237514
v 0.246564 0.103067 -0.080114
v 0.268354 0.523838 -0.087576
v 0.279214 0.213265 -0.090723
v 0.246564 0.103067 0.080113
v 0.268354 0.523838 0.084096
v 0.279214 0.213265 0.090721
v 0.152385 0.103067 0.209739
v 0.167448 0.523838 0.222982
v 0.172564 0.213265 0.237513
v 0.000000 0.103067 0.259252
v 0.004177 0.523838 0.276032
v 0.000000 0.213265 0.293582
v -0.152385 0.103067 0.209739
v -0.159093 0.523838 0.222982
v -0.172564 0.213265 0.237513
v -0.246564 0.103067 0.080113
v -0.259999 0.523838 0.084096
v -0.279214 0.213265 0.090721
v -0.246564 0.103067 -0.080114
v -0.259999 0.523838 -0.087576
v -0.279214 0.213265 -0.090723
v -0.152385 0.103067 -0.209740
v -0.159093 0.523838 -0.226462
v -0.172564 0.213265 -0.237514
v 0.000000 1.167644 -0.109417
v 0.064314 1.167644 -0.088521
v 0.104062 1.167644 -0.033812
v 0.104062 1.167644 0.033812
v 0.064314 1.167644 0.088520
v 0.000000 1.167644 0.109417
v -0.064314 1.167644 0.088520
v -0.104062 1.167644 0.033812
v -0.104062 1.167644 -0.033812
v -0.064314 1.167644 -0.088521
v 0.087696 1.302012 -0.120704
v 0.000000 1.302012 -0.149199
v 0.141895 1.302012 -0.046105
v 0.141895 1.302012 0.046104
v 0.087696 1.302012 0.120703
v 0.000000 1.302012 0.149197
v -0.087696 1.302012 0.120703
v -0.141895 1.302012 0.046104
v -0.141895 1.302012 -0.046105
v -0.087696 1.302012 -0.120704
v 0.036030 1.024945 -0.049592
v 0.000000 1.024945 -0.061299
v 0.058298 1.024945 -0.018943
v 0.058298 1.024945 0.018941
v 0.036030 1.024945 0.049591
v 0.000000 1.024945 0.061297
v -0.036030 1.024945 0.049591
v -0.058298 1.024945 0.018941
v -0.058298 1.024945 -0.018943
v -0.036030 1.024945 -0.049592
v -0.173278 0.524983 -0.245954
v 0.004161 0.523938 -0.303676
v -0.182346 0.218766 -0.250983
v 0.000002 0.218766 -0.310231
v -0.282872 0.525870 -0.094993
v -0.295043 0.218766 -0.095868
v -0.282837 0.526266 0.091518
v -0.295044 0.218766 0.095864
v -0.173228 0.526028 0.242419
v -0.182346 0.218766 0.250979
v 0.004159 0.525240 0.300122
v 0.000002 0.218766 0.310227
v 0.181629 0.524198 0.242532
v 0.182350 0.218766 0.250979
v 0.291357 0.523297 0.091582
v 0.295048 0.218766 0.095864
v 0.291373 0.522890 -0.095054
v 0.295048 0.218766 -0.095868
v 0.181663 0.523136 -0.246042
v 0.182350 0.218766 -0.250983
v -0.187746 0.377423 -0.258307
v -0.000059 0.377192 -0.319359
v -0.303688 0.377615 -0.098633
v -0.303663 0.377701 0.098670
v -0.187705 0.377650 0.258298
v -0.000058 0.377479 0.319321
v 0.187659 0.377250 0.258396
v 0.303730 0.377049 0.098731
v 0.303755 0.376957 -0.098691
v 0.187698 0.377012 -0.258404
v 0.064542 1.010964 -0.088834
v 0.088581 0.870100 -0.121921
v 0.000000 0.870100 -0.150702
v 0.000000 1.010964 -0.109806
v 0.104431 1.010964 -0.033932
v 0.143327 0.870100 -0.046569
v 0.104431 1.010964 0.033932
v 0.143327 0.870100 0.046570
v 0.064542 1.010964 0.088835
v 0.088581 0.870100 0.121922
v 0.000000 1.010964 0.109806
v 0.000000 0.870100 0.150703
v -0.064543 1.010964 0.088835
v -0.088581 0.870100 0.121922
v -0.104432 1.010964 0.033932
v -0.143327 0.870100 0.046570
v -0.104432 1.010964 -0.033932
v -0.143327 0.870100 -0.046569
v -0.064543 1.010964 -0.088834
v -0.088581 0.870100 -0.121921
v -0.151435 0.598822 -0.212184
v 0.002092 0.598822 -0.262068
v 0.155620 0.598822 -0.212184
v 0.250504 0.598822 -0.081586
v 0.250504 0.598822 0.079842
v 0.155620 0.598822 0.210440
v 0.002092 0.598822 0.260324
v -0.151435 0.598822 0.210440
v -0.246321 0.598822 0.079842
v -0.246321 0.598822 -0.081586
v -0.123602 0.740103 -0.171606
v 0.000827 0.740103 -0.212036
v 0.125256 0.740103 -0.171606
v 0.202156 0.740103 -0.065761
v 0.202156 0.740103 0.065071
v 0.125256 0.740103 0.170916
v 0.000827 0.740103 0.211346
v -0.123602 0.740103 0.170916
v -0.200502 0.740103 0.065071
v -0.200502 0.740103 -0.065761
v -0.180512 0.451203 -0.252131
v -0.293280 0.451743 -0.096813
v -0.293250 0.451984 0.095094
v -0.180467 0.451839 0.250359
v 0.002050 0.451360 0.309721
v 0.184644 0.450724 0.250464
v 0.297544 0.450173 0.095156
v 0.297564 0.449923 -0.096873
v 0.184680 0.450074 -0.252223
v 0.002051 0.450565 -0.311517
vn -0.4909 -0.5499 -0.6757
vn -0.5341 -0.4176 -0.7351
vn -0.0000 -0.4176 -0.9086
vn -0.0000 -0.5499 -0.8352
vn 0.7943 -0.5499 -0.2581
vn 0.8642 -0.4176 -0.2808
vn 0.8642 -0.4176 0.2808
vn 0.7943 -0.5499 0.2581
vn 0.5341 -0.4176 0.7351
vn 0.4909 -0.5499 0.6757
vn -0.0000 -0.4176 0.9086
vn -0.0000 -0.5499 0.8352
vn -0.5341 -0.4176 0.7351
vn -0.4909 -0.5499 0.6757
vn -0.8642 -0.4176 0.2808
vn -0.7943 -0.5499 0.2581
vn -0.8642 -0.4176 -0.2808
vn -0.7943 -0.5499 -0.2581
vn -0.0000 -0.1464 0.9892
vn 0.5815 -0.1464 0.8003
vn 0.5636 -0.2839 0.7757
vn -0.0000 -0.2839 0.9589
vn 0.5341 -0.4176 -0.7351
vn 0.4909 -0.5499 -0.6757
vn -0.0000 -1.0000 -0.0000
vn -0.0000 -0.1464 -0.9892
vn -0.5815 -0.1464 -0.8003
vn -0.5636 -0.2839 -0.7757
vn -0.0000 -0.2839 -0.9589
vn -0.9408 -0.1464 -0.3057
vn -0.9119 -0.2839 -0.2963
vn -0.9408 -0.1464 0.3057
vn -0.9119 -0.2839 0.2963
vn -0.5815 -0.1464 0.8003
vn -0.5636 -0.2839 0.7757
vn 0.9408 -0.1464 0.3057
vn 0.9119 -0.2839 0.2963
vn 0.8871 0.3602 0.2887
vn 0.5481 0.3587 0.7556
vn 0.5442 0.3763 0.7499
vn 0.8797 0.3798 0.2862
vn 0.5878 -0.0096 0.8090
vn 0.9510 -0.0096 0.3090
vn 0.8870 0.3609 -0.2881
vn 0.8792 0.3814 -0.2856
vn 0.9408 -0.1464 -0.3057
vn 0.9119 -0.2839 -0.2963
vn -0.5495 0.3574 -0.7552
vn -0.0006 0.3591 -0.9333
vn -0.0005 0.3773 -0.9261
vn -0.5458 0.3732 -0.7503
vn -0.8889 0.3558 -0.2884
vn -0.8838 0.3697 -0.2868
vn -0.8890 0.3552 0.2889
vn -0.8843 0.3681 0.2874
vn -0.5497 0.3556 0.7559
vn -0.5465 0.3690 0.7517
vn -0.0006 0.3569 0.9341
vn -0.0005 0.3722 0.9282
vn 0.2984 -0.9495 -0.0970
vn 0.1844 -0.9495 -0.2538
vn 0.0773 0.9968 0.0188
vn 0.0343 0.9989 0.0318
vn -0.5612 -0.2974 -0.7724
vn -0.0000 -0.2974 -0.9547
vn 0.0895 0.9955 -0.0298
vn 0.0895 0.9955 -0.0299
vn 0.0540 0.9963 -0.0662
vn -0.9080 -0.2974 -0.2950
vn 0.0086 0.9984 -0.0556
vn -0.0022 0.9998 -0.0186
vn -0.9080 -0.2974 0.2950
vn 0.0185 0.9998 -0.0004
vn -0.0000 -0.9495 -0.3138
vn -0.5612 -0.2974 0.7724
vn 0.0309 0.9995 -0.0108
vn 0.0087 0.9999 0.0065
vn 0.0087 0.9999 0.0066
vn -0.0000 -0.2974 0.9547
vn 0.0178 0.9997 -0.0161
vn 0.5612 -0.2974 0.7724
vn -0.1845 -0.9495 -0.2539
vn -0.2985 -0.9495 -0.0970
vn -0.1844 -0.9495 -0.2539
vn -0.2985 -0.9495 0.0970
vn 0.9080 -0.2974 0.2950
vn -0.1845 -0.9495 0.2539
vn 0.9080 -0.2974 -0.2950
vn -0.0000 -0.9495 0.3138
vn 0.1844 -0.9495 0.2539
vn 0.5612 -0.2974 -0.7724
vn 0.2984 -0.9495 0.0970
vn 0.5480 0.3605 -0.7548
vn 0.5434 0.3804 -0.7484
vn 0.5815 0.1461 -0.8003
vn -0.0000 0.1461 -0.9893
vn 0.5815 -0.1464 -0.8003
vn 0.5636 -0.2839 -0.7757
vn 0.9409 0.1461 -0.3057
vn 0.9409 0.1461 0.3057
vn 0.5815 0.1461 0.8003
vn -0.0000 0.1461 0.9893
vn -0.5815 0.1461 0.8003
vn -0.9409 0.1461 0.3057
vn -0.9409 0.1461 -0.3057
vn -0.5815 0.1461 -0.8003
vn -0.0000 1.0000 -0.0052
vn 0.0031 1.0000 -0.0042
vn 0.0050 1.0000 -0.0016
vn 0.0050 1.0000 0.0016
vn 0.0031 1.0000 0.0042
vn -0.0000 1.0000 0.0052
vn -0.0031 1.0000 0.0042
vn -0.0050 1.0000 0.0016
vn -0.0050 1.0000 -0.0016
vn -0.0031 1.0000 -0.0042
vn -0.0000 1.0000 -0.0000
vn 0.5878 -0.0096 -0.8090
vn -0.0000 -0.0096 -1.0000
vn -0.9510 -0.0096 -0.3090
vn -0.9510 -0.0096 0.3090
vn -0.0000 -0.0096 1.0000
vn 0.9510 -0.0096 -0.3090
vn -0.5878 -0.0096 -0.8090
vn -0.5878 -0.0096 0.8090
vn -0.5829 0.1244 -0.8030
vn -0.5899 0.0332 -0.8068
vn -0.9509 0.0408 -0.3069
vn -0.9416 0.1398 -0.3063
vn -0.0029 0.0241 -0.9997
vn -0.0001 -0.0575 -0.9983
vn -0.5869 -0.0573 -0.8076
vn -0.9501 0.0442 0.3089
vn -0.9408 0.1467 0.3056
vn -0.9495 -0.0571 -0.3084
vn -0.5885 0.0422 0.8074
vn -0.5816 0.1425 0.8009
vn -0.9495 -0.0570 0.3085
vn -0.0028 0.0354 0.9994
vn 0.0004 0.1289 0.9917
vn -0.5869 -0.0571 0.8077
vn 0.5851 0.0264 0.8105
vn 0.5844 0.1107 0.8038
vn -0.0001 -0.0572 0.9984
vn 0.9503 0.0185 0.3109
vn 0.9468 0.0951 0.3074
vn 0.5867 -0.0574 0.8077
vn 0.9510 0.0149 -0.3087
vn 0.9474 0.0879 -0.3078
vn 0.9495 -0.0576 0.3086
vn 0.5864 0.0171 -0.8099
vn 0.5854 0.0922 -0.8055
vn 0.9495 -0.0577 -0.3085
vn 0.0003 0.1062 -0.9943
vn 0.5868 -0.0576 -0.8077
vn 0.0049 0.2267 -0.9740
vn -0.0023 0.2776 -0.9607
vn 0.5622 0.2862 -0.7759
vn 0.5729 0.2396 -0.7838
vn -0.5705 0.2095 -0.7941
vn -0.5685 0.2664 -0.7784
vn 0.9250 0.2370 0.2970
vn 0.9113 0.2845 0.2978
vn 0.5632 0.2749 0.7792
vn 0.5772 0.2225 0.7857
vn -0.0023 0.2636 0.9646
vn 0.0049 0.2052 0.9787
vn -0.5694 0.2550 0.7815
vn -0.5746 0.1918 0.7957
vn -0.9202 0.2524 0.2992
vn -0.9343 0.1876 0.3031
vn -0.9197 0.2567 -0.2972
vn -0.9318 0.1945 -0.3065
vn 0.9106 0.2888 -0.2957
vn 0.9223 0.2435 -0.3001
vn 0.0049 0.1061 -0.9943
vn -0.5791 0.1243 -0.8058
vn 0.5875 0.0922 -0.8039
vn 0.9472 0.0879 -0.3082
vn 0.9478 0.0950 0.3043
vn 0.5883 0.1106 0.8010
vn 0.0049 0.1287 0.9917
vn -0.5796 0.1425 0.8024
vn -0.9409 0.1467 0.3053
vn -0.9407 0.1397 -0.3092
vt 0.162109 0.983906
vt 0.162109 0.983906
vt 0.153356 0.963710
vt 0.555928 0.986699
vt 0.351781 0.971151
vt 0.339773 0.976990
vt 0.173438 0.026563
s 1
usemtl BASE_MATERIAL
f 10/1/1 48/2/2 22/1/3 1/1/4
f 3/1/5 27/1/6 30/1/7 4/1/8
f 4/1/8 30/1/7 33/1/9 5/1/10
f 5/1/10 33/1/9 36/1/11 6/1/12
f 6/1/12 36/1/11 39/1/13 7/1/14
f 7/1/14 39/1/13 42/1/15 8/1/16
f 8/1/16 42/1/15 45/2/17 9/1/18
f 9/1/18 45/2/17 48/2/2 10/1/1
f 56/1/19 55/1/20 65/1/21 66/1/22
f 1/1/4 22/1/3 24/1/23 2/1/24
f 1/3/25 2/3/25 3/3/25 4/3/25 5/3/25 6/3/25 7/3/25 8/3/25 9/3/25 10/3/25
f 2/1/24 24/1/23 27/1/6 3/1/5
f 51/1/26 60/1/27 70/1/28 62/1/29
f 60/1/27 59/2/30 69/1/31 70/1/28
f 59/2/30 58/1/32 68/1/33 69/1/31
f 58/1/32 57/1/34 67/1/35 68/1/33
f 57/1/34 56/1/19 66/1/22 67/1/35
f 55/1/20 54/1/36 64/1/37 65/1/21
f 118/1/38 120/1/39 146/1/40 145/1/41
f 20/1/42 19/1/43 79/1/43 80/1/42
f 116/1/44 118/1/38 145/1/41 144/1/45
f 54/1/36 53/1/46 63/1/47 64/1/37
f 130/1/48 113/1/49 142/1/50 141/1/51
f 128/1/52 130/1/48 141/1/51 150/1/53
f 126/1/54 128/1/52 150/1/53 149/1/55
f 124/1/56 126/1/54 149/1/55 148/1/57
f 122/1/58 124/1/56 148/1/57 147/1/59
f 120/1/39 122/1/58 147/1/59 146/1/40
f 29/4/60 26/4/61 100/4/61 98/4/60
f 46/5/62 49/5/63 81/5/63 85/5/62
f 50/1/64 23/1/65 22/1/3 48/2/2
f 43/6/66 46/6/62 85/6/62 87/6/67
f 40/6/68 43/6/66 87/6/67 89/6/68
f 47/1/69 50/1/64 48/2/2 45/2/17
f 37/6/70 40/6/68 89/6/68 91/6/70
f 34/6/71 37/6/70 91/6/70 93/6/71
f 44/1/72 47/1/69 45/2/17 42/1/15
f 31/6/73 34/6/71 93/6/71 95/6/73
f 26/4/61 23/4/74 84/4/74 100/4/61
f 41/1/75 44/1/72 42/1/15 39/1/13
f 28/6/76 31/6/73 95/6/73 97/6/76
f 49/6/63 21/6/77 82/6/78 81/6/63
f 38/1/79 41/1/75 39/1/13 36/1/11
f 25/6/80 28/6/76 97/6/76 99/6/80
f 21/6/77 25/6/80 99/6/80 82/6/78
f 35/1/81 38/1/79 36/1/11 33/1/9
f 50/4/82 47/4/83 86/4/83 83/4/84
f 47/4/83 44/4/85 88/4/85 86/4/83
f 32/1/86 35/1/81 33/1/9 30/1/7
f 23/4/74 50/4/82 83/4/84 84/4/74
f 44/4/85 41/4/87 90/4/87 88/4/85
f 29/1/88 32/1/86 30/1/7 27/1/6
f 41/4/87 38/4/89 92/4/89 90/4/87
f 38/4/89 35/4/90 94/4/90 92/4/89
f 26/1/91 29/1/88 27/1/6 24/1/23
f 35/4/90 32/4/92 96/4/92 94/4/90
f 32/4/92 29/4/60 98/4/60 96/4/92
f 23/1/65 26/1/91 24/1/23 22/1/3
f 112/1/93 116/1/44 144/1/45 143/1/94
f 111/1/95 114/1/96 51/1/26 52/1/97
f 53/1/46 52/1/97 61/1/98 63/1/47
f 115/1/99 111/1/95 52/1/97 53/1/46
f 117/1/100 115/1/99 53/1/46 54/1/36
f 119/1/101 117/1/100 54/1/36 55/1/20
f 121/1/102 119/1/101 55/1/20 56/1/19
f 123/1/103 121/1/102 56/1/19 57/1/34
f 125/1/104 123/1/103 57/1/34 58/1/32
f 127/1/105 125/1/104 58/1/32 59/2/30
f 129/1/106 127/1/105 59/2/30 60/1/27
f 114/1/96 129/1/106 60/1/27 51/1/26
f 12/1/107 11/1/108 61/1/108 62/1/107
f 11/1/108 13/1/109 63/1/109 61/1/108
f 13/1/109 14/1/110 64/1/110 63/1/109
f 14/1/110 15/1/111 65/1/111 64/1/110
f 15/1/111 16/1/112 66/1/112 65/1/111
f 16/1/112 17/1/113 67/1/113 66/1/112
f 17/1/113 18/1/114 68/1/114 67/1/113
f 18/1/114 19/1/115 69/1/115 68/1/114
f 19/1/115 20/1/116 70/1/116 69/1/115
f 20/1/116 12/1/107 62/1/107 70/1/116
f 71/7/117 72/7/117 80/7/117 79/7/117 78/7/117 77/7/117 76/7/117 75/7/117 74/7/117 73/7/117
f 17/1/118 16/1/119 76/1/119 77/1/118
f 14/1/120 13/1/121 73/1/121 74/1/120
f 12/1/122 20/1/42 80/1/42 72/1/122
f 18/1/123 17/1/118 77/1/118 78/1/123
f 15/1/124 14/1/120 74/1/120 75/1/124
f 11/1/125 12/1/122 72/1/122 71/1/125
f 19/1/43 18/1/123 78/1/123 79/1/43
f 16/1/119 15/1/124 75/1/124 76/1/119
f 13/1/121 11/1/125 71/1/125 73/1/121
f 151/6/126 101/6/127 103/6/128 152/6/129
f 101/4/127 102/4/130 84/4/131 83/4/132
f 152/4/129 103/4/128 104/4/133 153/4/134
f 103/4/128 101/4/127 83/4/132 86/4/135
f 153/6/134 104/6/133 105/6/136 154/6/137
f 104/4/133 103/4/128 86/4/135 88/4/138
f 154/4/137 105/4/136 106/4/139 155/4/140
f 105/4/136 104/4/133 88/4/138 90/4/141
f 155/6/140 106/6/139 107/6/142 156/6/143
f 106/4/139 105/4/136 90/4/141 92/4/144
f 156/4/143 107/4/142 108/4/145 157/4/146
f 107/4/142 106/4/139 92/4/144 94/4/147
f 157/6/146 108/6/145 109/6/148 158/6/149
f 108/4/145 107/4/142 94/4/147 96/4/150
f 158/4/149 109/4/148 110/4/151 159/4/152
f 109/4/148 108/4/145 96/4/150 98/4/153
f 159/6/152 110/6/151 102/6/130 160/6/154
f 110/4/151 109/4/148 98/4/153 100/4/155
f 102/4/130 110/4/151 100/4/155 84/4/131
f 51/1/26 62/1/29 61/1/98 52/1/97
f 113/1/49 112/1/93 143/1/94 142/1/50
f 113/1/49 130/1/48 129/1/106 114/1/96
f 130/1/48 128/1/52 127/1/105 129/1/106
f 128/1/52 126/1/54 125/1/104 127/1/105
f 126/1/54 124/1/56 123/1/103 125/1/104
f 124/1/56 122/1/58 121/1/102 123/1/103
f 122/1/58 120/1/39 119/1/101 121/1/102
f 120/1/39 118/1/38 117/1/100 119/1/101
f 118/1/38 116/1/44 115/1/99 117/1/100
f 116/1/44 112/1/93 111/1/95 115/1/99
f 21/1/156 132/1/157 133/1/158 25/1/159
f 49/1/160 131/2/161 132/1/157 21/1/156
f 31/1/162 135/1/163 136/1/164 34/1/165
f 34/1/165 136/1/164 137/1/166 37/1/167
f 37/1/167 137/1/166 138/1/168 40/1/169
f 40/1/169 138/1/168 139/1/170 43/1/171
f 43/1/171 139/1/170 140/1/172 46/1/173
f 46/1/173 140/1/172 131/2/161 49/1/160
f 25/1/159 133/1/158 134/1/174 28/1/175
f 28/1/175 134/1/174 135/1/163 31/1/162
f 132/1/157 142/1/50 143/1/94 133/1/158
f 131/2/161 141/1/51 142/1/50 132/1/157
f 135/1/163 145/1/41 146/1/40 136/1/164
f 136/1/164 146/1/40 147/1/59 137/1/166
f 137/1/166 147/1/59 148/1/57 138/1/168
f 138/1/168 148/1/57 149/1/55 139/1/170
f 139/1/170 149/1/55 150/1/53 140/1/172
f 140/1/172 150/1/53 141/1/51 131/2/161
f 133/1/158 143/1/94 144/1/45 134/1/174
f 134/1/174 144/1/45 145/1/41 135/1/163
f 112/1/93 113/1/49 114/1/96 111/1/95
f 160/4/154 102/4/130 101/4/127 151/4/126
f 82/6/176 160/6/154 151/6/126 81/6/177
f 99/6/178 159/6/152 160/6/154 82/6/176
f 97/6/179 158/6/149 159/6/152 99/6/178
f 95/6/180 157/6/146 158/6/149 97/6/179
f 93/6/181 156/6/143 157/6/146 95/6/180
f 91/6/182 155/6/140 156/6/143 93/6/181
f 89/6/183 154/6/137 155/6/140 91/6/182
f 87/6/184 153/6/134 154/6/137 89/6/183
f 85/6/185 152/6/129 153/6/134 87/6/184
f 81/6/177 151/6/126 152/6/129 85/6/185
