# Blender 4.1.0
# www.blender.org
mtllib rocks_2.mtl
o rocks_2
v 0.570810 0.077088 0.040163
v 0.621799 0.088475 0.472210
v 0.204080 0.057172 0.078615
v 0.587750 0.051728 0.020029
v 0.645083 0.064238 0.495119
v 0.242805 0.067926 0.483213
v 0.490391 0.079565 0.018595
v 0.583895 0.000000 0.026155
v 0.640511 0.088132 0.384136
v 0.640135 0.000000 0.493916
v 0.317658 0.094427 0.495703
v 0.244041 0.000000 0.483080
v 0.608278 0.081103 0.117186
v 0.274837 0.082624 0.051544
v 0.543694 0.092357 0.502466
v 0.270777 0.054610 0.009779
v 0.548101 0.066773 0.552017
v 0.653534 0.053691 0.115171
v 0.196250 0.065934 0.393993
v 0.175292 0.060114 0.175022
v 0.321805 0.068675 0.539038
v 0.687285 0.060718 0.382607
v 0.484282 0.051502 -0.025705
v 0.205794 0.000000 0.083485
v 0.277855 0.089776 0.145283
v 0.302660 0.096613 0.402586
v 0.541523 0.094079 0.397160
v 0.510451 0.086650 0.116114
v 0.483702 0.000000 -0.017479
v 0.680451 0.000000 0.385098
v 0.320570 0.000000 0.536404
v 0.178333 0.000000 0.177055
v 0.199330 0.000000 0.396431
v 0.646985 0.000000 0.118483
v 0.546192 0.000000 0.548574
v 0.270550 0.000000 0.017588
v -0.410286 0.104850 0.201239
v -0.634707 0.092777 -0.252592
v 0.083241 0.096363 -0.012466
v -0.070005 0.082634 -0.512043
v -0.421973 0.070537 0.229481
v -0.670733 0.057381 -0.265753
v -0.050329 0.046180 -0.552769
v 0.110830 0.061374 -0.001232
v -0.628456 0.099418 -0.133978
v -0.665284 0.000000 -0.259453
v -0.197843 0.086856 -0.498770
v -0.054359 0.000000 -0.541758
v 0.096109 0.096738 -0.109451
v 0.105526 0.000000 0.000910
v -0.301960 0.107109 0.184845
v -0.546436 0.093150 -0.337473
v -0.002718 0.101963 0.055269
v -0.488652 0.106808 0.144238
v 0.005657 0.088199 -0.419388
v -0.544930 0.069369 0.169210
v 0.069752 0.048702 -0.446115
v -0.570428 0.053117 -0.396973
v 0.010097 0.064809 0.101269
v -0.278259 0.069768 0.226131
v 0.151872 0.057369 -0.133089
v -0.221846 0.046758 -0.560545
v -0.687274 0.062103 -0.105106
v -0.420689 0.000000 0.228769
v -0.362363 0.111471 0.098690
v -0.023606 0.105637 -0.048273
v -0.136281 0.096854 -0.370262
v -0.504542 0.103374 -0.204336
v -0.680452 0.000000 -0.104151
v -0.220057 0.000000 -0.548573
v 0.144225 0.000000 -0.126463
v -0.281449 0.000000 0.224897
v 0.007441 0.000000 0.099802
v -0.567652 0.000000 -0.385748
v 0.061304 0.000000 -0.438217
v -0.538826 0.000000 0.169870
vn 0.2719 0.8992 -0.3427
vn 0.3022 0.9287 0.2149
vn -0.5533 0.7673 -0.3240
vn 0.4639 0.6756 -0.5730
vn 0.5418 0.7213 0.4315
vn -0.4845 0.7897 0.3763
vn 0.0641 0.9268 -0.3699
vn 0.6338 -0.1423 -0.7603
vn 0.3299 0.9439 0.0161
vn 0.7575 -0.0747 0.6486
vn -0.1679 0.9427 0.2883
vn -0.7513 -0.0192 0.6596
vn 0.3243 0.9330 -0.1559
vn -0.2155 0.9255 -0.3114
vn 0.0907 0.9541 0.2855
vn -0.3040 0.6954 -0.6511
vn 0.1622 0.7428 0.6496
vn 0.6597 0.7062 -0.2570
vn -0.5686 0.8112 0.1369
vn -0.5894 0.8047 -0.0711
vn -0.2058 0.7428 0.6371
vn 0.6915 0.7206 0.0506
vn 0.0838 0.6890 -0.7199
vn -0.8653 -0.0734 -0.4959
vn -0.1548 0.9866 -0.0521
vn -0.1477 0.9886 0.0280
vn 0.0343 0.9994 -0.0067
vn 0.0319 0.9980 -0.0553
vn 0.1242 -0.1508 -0.9807
vn 0.9866 -0.1053 0.1247
vn -0.3324 -0.0310 0.9426
vn -0.9945 -0.0510 -0.0917
vn -0.9567 -0.0330 0.2890
vn 0.9280 -0.1297 -0.3494
vn 0.2308 -0.0523 0.9716
vn -0.4727 -0.1221 -0.8727
vn -0.0914 0.8894 0.4480
vn -0.3791 0.9080 -0.1783
vn 0.4140 0.8808 0.2297
vn 0.1427 0.9142 -0.3794
vn -0.1627 0.6948 0.7006
vn -0.6655 0.6882 -0.2890
vn 0.2760 0.6731 -0.6861
vn 0.6466 0.6758 0.3538
vn -0.3400 0.9400 0.0269
vn -0.9261 -0.1348 -0.3525
vn -0.0544 0.9370 -0.3450
vn 0.3670 -0.2490 -0.8963
vn 0.3803 0.9248 0.0001
vn 0.8504 -0.0625 0.5225
vn 0.0880 0.9170 0.3889
vn -0.2166 0.9333 -0.2865
vn 0.2499 0.9143 0.3189
vn -0.2469 0.9335 0.2600
vn 0.2758 0.9400 -0.2007
vn -0.5069 0.7224 0.4704
vn 0.6068 0.6951 -0.3855
vn -0.4262 0.6945 -0.5797
vn 0.4063 0.7002 0.5870
vn 0.1719 0.7057 0.6874
vn 0.7144 0.6992 -0.0293
vn -0.1416 0.6894 -0.7104
vn -0.6850 0.7187 0.1196
vn -0.2127 -0.0195 0.9769
vn -0.0054 0.9999 0.0141
vn 0.0426 0.9991 -0.0061
vn 0.0170 0.9981 -0.0585
vn -0.0285 0.9987 -0.0412
vn -0.9759 -0.0982 0.1947
vn -0.1940 -0.2388 -0.9515
vn 0.9903 -0.1321 0.0432
vn 0.2103 -0.0251 0.9773
vn 0.5620 -0.0390 0.8262
vn -0.6274 -0.1922 -0.7546
vn 0.8389 -0.2122 -0.5011
vn -0.6890 -0.0540 0.7228
vt 0.053640 0.621034
s 1
usemtl BASE_MATERIAL
f 17/1/17 21/1/21 31/1/31 35/1/35
f 57/1/57 61/1/61 71/1/71 75/1/75
f 22/1/22 9/1/9 2/1/2 5/1/5
f 19/1/19 20/1/20 32/1/32 33/1/33
f 2/1/2 15/1/15 17/1/17 5/1/5
f 21/1/21 11/1/11 6/1/6
f 3/1/3 14/1/14 16/1/16
f 25/1/25 14/1/14 3/1/3 20/1/20
f 1/1/1 13/1/13 18/1/18 4/1/4
f 26/1/26 25/1/25 20/1/20 19/1/19
f 6/1/6 11/1/11 26/1/26 19/1/19
f 25/1/25 26/1/26 27/1/27 28/1/28
f 28/1/28 7/1/7 14/1/14 25/1/25
f 13/1/13 9/1/9 22/1/22 18/1/18
f 2/1/2 9/1/9 27/1/27 15/1/15
f 13/1/13 1/1/1 7/1/7 28/1/28
f 9/1/9 13/1/13 28/1/28 27/1/27
f 15/1/15 11/1/11 21/1/21 17/1/17
f 14/1/14 7/1/7 23/1/23 16/1/16
f 19/1/19 6/1/6 21/1/21 17/1/17 5/1/5 22/1/22 18/1/18 4/1/4 23/1/23 16/1/16 3/1/3 20/1/20
f 23/1/23 4/1/4 8/1/8 29/1/29
f 22/1/22 5/1/5 10/1/10 30/1/30
f 16/1/16 23/1/23 29/1/29 36/1/36
f 21/1/21 6/1/6 12/1/12 31/1/31
f 18/1/18 22/1/22 30/1/30 34/1/34
f 20/1/20 3/1/3 24/1/24 32/1/32
f 6/1/6 19/1/19 33/1/33 12/1/12
f 4/1/4 18/1/18 34/1/34 8/1/8
f 5/1/5 17/1/17 35/1/35 10/1/10
f 24/1/24 3/1/3 16/1/16 36/1/36
f 15/1/15 27/1/27 26/1/26 11/1/11
f 63/1/63 45/1/45 38/1/38 42/1/42
f 59/1/59 60/1/60 72/1/72 73/1/73
f 62/1/62 47/1/47 40/1/40 43/1/43
f 56/1/56 54/1/54 45/1/45 63/1/63
f 61/1/61 49/1/49 39/1/39 44/1/44
f 58/1/58 52/1/52 47/1/47 62/1/62
f 60/1/60 51/1/51 37/1/37 41/1/41
f 39/1/39 53/1/53 59/1/59 44/1/44
f 66/1/66 65/1/65 51/1/51 53/1/53
f 67/1/67 68/1/68 65/1/65 66/1/66
f 65/1/65 54/1/54 37/1/37 51/1/51
f 47/1/47 52/1/52 68/1/68 67/1/67
f 68/1/68 45/1/45 54/1/54 65/1/65
f 49/1/49 66/1/66 53/1/53 39/1/39
f 38/1/38 52/1/52 58/1/58 42/1/42
f 40/1/40 55/1/55 57/1/57 43/1/43
f 40/1/40 47/1/47 67/1/67 55/1/55
f 59/1/59 53/1/53 51/1/51 60/1/60
f 52/1/52 38/1/38 45/1/45 68/1/68
f 41/1/41 37/1/37 54/1/54 56/1/56
f 59/1/59 44/1/44 61/1/61 57/1/57 43/1/43 62/1/62 58/1/58 42/1/42 63/1/63 56/1/56 41/1/41 60/1/60
f 63/1/63 42/1/42 46/1/46 69/1/69
f 55/1/55 67/1/67 66/1/66 49/1/49
f 62/1/62 43/1/43 48/1/48 70/1/70
f 56/1/56 63/1/63 69/1/69 76/1/76
f 61/1/61 44/1/44 50/1/50 71/1/71
f 58/1/58 62/1/62 70/1/70 74/1/74
f 60/1/60 41/1/41 64/1/64 72/1/72
f 44/1/44 59/1/59 73/1/73 50/1/50
f 42/1/42 58/1/58 74/1/74 46/1/46
f 43/1/43 57/1/57 75/1/75 48/1/48
f 64/1/64 41/1/41 56/1/56 76/1/76
f 23/1/23 7/1/7 1/1/1 4/1/4
f 57/1/57 55/1/55 49/1/49 61/1/61
