# Blender 4.1.0
# www.blender.org
mtllib rocks_1.mtl
o rocks_1
v -0.355885 0.108631 0.367720
v -0.403184 0.092515 -0.306496
v 0.361933 0.097301 0.353764
v 0.425715 0.078974 -0.340900
v -0.384625 0.084081 0.396683
v -0.441014 0.066518 -0.341000
v 0.470647 0.051566 -0.381233
v 0.390318 0.071849 0.381615
v -0.455547 0.101379 -0.156828
v -0.437475 0.000000 -0.330458
v 0.261097 0.084609 -0.389261
v 0.460092 0.000000 -0.369677
v 0.426955 0.097802 0.240494
v 0.382682 0.000000 0.381573
v -0.213785 0.111647 0.402344
v -0.251163 0.093012 -0.366621
v 0.221452 0.104777 0.393883
v -0.423802 0.111245 0.257620
v 0.472233 0.086403 -0.188133
v -0.505961 0.082522 0.259958
v 0.564937 0.054933 -0.188677
v -0.250655 0.060827 -0.452263
v 0.213979 0.076434 0.457190
v -0.205426 0.083054 0.465343
v 0.507802 0.066503 0.239544
v 0.262743 0.052337 -0.477720
v -0.542819 0.072823 -0.150961
v -0.382678 0.000000 0.396454
v -0.244748 0.117469 0.265333
v 0.248102 0.109681 0.255415
v 0.272038 0.097956 -0.199354
v -0.266859 0.106660 -0.180960
v -0.534877 0.000000 -0.146326
v 0.258886 0.000000 -0.462027
v 0.495001 0.000000 0.243855
v -0.208739 0.000000 0.462202
v 0.211441 0.000000 0.454033
v -0.252913 0.000000 -0.436993
v 0.550501 0.000000 -0.183201
v -0.498757 0.000000 0.263865
vn -0.1709 0.9508 0.2586
vn -0.1838 0.9589 -0.2161
vn 0.2115 0.9442 0.2526
vn 0.1863 0.9610 -0.2046
vn -0.3702 0.7685 0.5219
vn -0.4561 0.7523 -0.4754
vn 0.4741 0.7320 -0.4892
vn 0.4193 0.7503 0.5111
vn -0.2083 0.9747 -0.0812
vn -0.7225 -0.1546 -0.6739
vn 0.0613 0.9708 -0.2318
vn 0.6714 -0.2930 -0.6807
vn 0.2418 0.9658 0.0939
vn 0.5868 -0.0711 0.8066
vn -0.0448 0.9633 0.2646
vn -0.0586 0.9694 -0.2385
vn 0.0859 0.9610 0.2628
vn -0.2126 0.9725 0.0948
vn 0.2216 0.9730 -0.0651
vn -0.5849 0.7807 0.2200
vn 0.6495 0.7506 -0.1216
vn -0.1587 0.7520 -0.6398
vn 0.1421 0.7705 0.6214
vn -0.0910 0.7757 0.6245
vn 0.6135 0.7581 0.2212
vn 0.1309 0.7461 -0.6528
vn -0.6151 0.7755 -0.1420
vn -0.5672 -0.0218 0.8233
vn -0.0103 0.9999 0.0109
vn 0.0417 0.9991 0.0106
vn 0.0379 0.9981 -0.0476
vn -0.0108 0.9987 -0.0490
vn -0.9757 -0.1115 -0.1888
vn 0.1787 -0.2800 -0.9432
vn 0.8957 -0.1519 0.4179
vn -0.1769 -0.0282 0.9838
vn 0.2060 -0.0442 0.9776
vn -0.2950 -0.2228 -0.9292
vn 0.9584 -0.2477 -0.1417
vn -0.9106 -0.0607 0.4088
vt 0.053640 0.621034
s 1
usemtl BASE_MATERIAL
f 27/1/27 9/1/9 2/1/2 6/1/6
f 23/1/23 24/1/24 36/1/36 37/1/37
f 26/1/26 11/1/11 4/1/4 7/1/7
f 9/1/9 27/1/27 20/1/20 18/1/18
f 25/1/25 13/1/13 3/1/3 8/1/8
f 22/1/22 16/1/16 11/1/11 26/1/26
f 24/1/24 15/1/15 1/1/1 5/1/5
f 3/1/3 17/1/17 23/1/23 8/1/8
f 30/1/30 29/1/29 15/1/15 17/1/17
f 31/1/31 32/1/32 29/1/29 30/1/30
f 29/1/29 18/1/18 1/1/1 15/1/15
f 11/1/11 16/1/16 32/1/32 31/1/31
f 32/1/32 9/1/9 18/1/18 29/1/29
f 13/1/13 30/1/30 17/1/17 3/1/3
f 2/1/2 16/1/16 22/1/22 6/1/6
f 4/1/4 19/1/19 21/1/21 7/1/7
f 4/1/4 11/1/11 31/1/31 19/1/19
f 23/1/23 17/1/17 15/1/15 24/1/24
f 16/1/16 2/1/2 9/1/9 32/1/32
f 5/1/5 1/1/1 18/1/18 20/1/20
f 21/1/21 25/1/25 35/1/35 39/1/39
f 23/1/23 8/1/8 25/1/25 21/1/21 7/1/7 26/1/26 22/1/22 6/1/6 27/1/27 20/1/20 5/1/5 24/1/24
f 27/1/27 6/1/6 10/1/10 33/1/33
f 19/1/19 31/1/31 30/1/30 13/1/13
f 26/1/26 7/1/7 12/1/12 34/1/34
f 20/1/20 27/1/27 33/1/33 40/1/40
f 25/1/25 8/1/8 14/1/14 35/1/35
f 22/1/22 26/1/26 34/1/34 38/1/38
f 24/1/24 5/1/5 28/1/28 36/1/36
f 8/1/8 23/1/23 37/1/37 14/1/14
f 6/1/6 22/1/22 38/1/38 10/1/10
f 7/1/7 21/1/21 39/1/39 12/1/12
f 28/1/28 5/1/5 20/1/20 40/1/40
f 21/1/21 19/1/19 13/1/13 25/1/25
