# Blender 4.1.0
# www.blender.org
mtllib rocks_3.mtl
o rocks_3
v 0.638206 0.353850 0.140808
v 0.701802 0.241780 0.137182
v 0.623307 0.354316 0.172009
v 0.643557 0.322463 0.196520
v 0.663886 0.242252 0.221119
v 0.590992 0.353825 0.181076
v 0.584159 0.321892 0.212063
v 0.577392 0.241760 0.243296
v 0.567593 0.354090 0.165522
v 0.541668 0.322226 0.183823
v 0.515807 0.241998 0.202251
v 0.560778 0.354348 0.138248
v 0.529285 0.322549 0.134295
v 0.497952 0.242229 0.130455
v 0.574131 0.354461 0.113497
v 0.553533 0.322691 0.089340
v 0.533101 0.242331 0.065376
v 0.600679 0.354370 0.104214
v 0.601748 0.322577 0.072485
v 0.602910 0.242247 0.040937
v 0.626537 0.354122 0.115246
v 0.648706 0.322266 0.092525
v 0.670987 0.242023 0.069895
v 0.598519 0.366781 0.142000
v 0.669890 0.321924 0.138945
v 0.688795 -0.004359 0.053570
v 0.680014 -0.004359 0.240528
v 0.474828 -0.004359 0.128437
v 0.573091 -0.004359 0.267899
v 0.604631 -0.004359 0.017725
v 0.496945 -0.004359 0.217201
v 0.518284 -0.004359 0.047937
v 0.726844 -0.004359 0.136761
v 0.510361 0.228360 0.400473
v 0.578787 0.119305 0.393984
v 0.485871 0.221801 0.423988
v 0.498804 0.184866 0.446215
v 0.514995 0.100869 0.457811
v 0.452494 0.219669 0.421131
v 0.437810 0.181532 0.440010
v 0.426305 0.096449 0.448435
v 0.435697 0.223848 0.398996
v 0.407315 0.188974 0.399788
v 0.382162 0.107023 0.389980
v 0.438414 0.230502 0.371819
v 0.412251 0.200917 0.350397
v 0.389423 0.124102 0.318361
v 0.459249 0.236154 0.353794
v 0.450094 0.211121 0.317646
v 0.444257 0.138773 0.270943
v 0.487317 0.237848 0.354357
v 0.501065 0.214246 0.318684
v 0.518062 0.143385 0.272429
v 0.507940 0.234699 0.373205
v 0.538504 0.208661 0.352945
v 0.572355 0.135532 0.322065
v 0.471803 0.241209 0.390886
v 0.542882 0.197299 0.402496
v 0.538469 -0.004359 0.458818
v 0.429023 -0.004359 0.446623
v 0.546246 -0.004359 0.216072
v 0.375409 -0.004359 0.371479
v 0.619197 -0.004359 0.372448
v 0.612506 -0.004359 0.279263
v 0.385953 -0.004359 0.278252
v 0.454912 -0.004359 0.215635
v -0.498297 0.121631 -0.481794
v -0.444764 0.187191 -0.560911
v -0.464180 0.103195 -0.565338
v -0.386121 0.183858 -0.578796
v -0.378773 0.098775 -0.591019
v -0.342435 0.191300 -0.553511
v -0.315447 0.109348 -0.554203
v -0.327871 0.203242 -0.506060
v -0.294424 0.126428 -0.485357
v -0.350090 0.213447 -0.461214
v -0.326632 0.141099 -0.420410
v -0.397490 0.216571 -0.442444
v -0.395259 0.145711 -0.393215
v -0.445271 0.210987 -0.459547
v -0.464532 0.137858 -0.417971
v -0.398452 0.243535 -0.520346
v -0.468486 0.199625 -0.503540
v -0.475635 0.004693 -0.569021
v -0.369997 -0.003135 -0.600136
v -0.388854 -0.004184 -0.342184
v -0.291479 -0.002742 -0.551598
v -0.516643 -0.004693 -0.458139
v -0.474408 -0.004684 -0.374805
v -0.265120 -0.002871 -0.461555
v -0.304469 -0.003452 -0.377129
v -0.547578 0.537125 0.663107
v -0.547578 0.537125 -0.225882
v 0.240797 0.537125 0.663107
v 0.240797 0.537125 -0.225882
v -0.641437 0.587432 0.404819
v -0.641437 0.587432 0.032404
v 0.334656 0.587432 0.032404
v 0.334656 0.587432 0.404819
v -0.578129 0.367108 0.679760
v -0.605349 0.578814 -0.128620
v -0.578129 -0.003686 -0.242537
v 0.088739 0.578814 -0.267879
v 0.298568 0.578814 0.565844
v 0.271348 -0.003686 0.679760
v -0.395520 0.578814 0.705103
v -0.605349 0.578814 0.565844
v 0.298568 0.578814 -0.128620
v 0.127236 0.675468 0.026773
v 0.127235 0.675468 0.410452
v 0.420063 -0.003686 0.402191
v -0.726845 -0.003686 0.402191
v -0.726845 -0.003686 0.035032
v -0.395520 0.578814 -0.267879
v 0.088739 0.578814 0.705103
v -0.434017 0.675468 0.026773
v -0.434017 0.675468 0.410452
v -0.578129 -0.003686 0.679760
v -0.578129 0.367108 -0.242537
v 0.271348 0.367108 -0.242537
v 0.271348 0.367108 0.679760
v 0.420063 0.373630 0.035032
v 0.419018 0.354526 0.390404
v -0.726845 0.373630 0.402191
v -0.726845 0.373630 0.035032
v -0.681867 0.371999 -0.123856
v 0.085934 0.371999 -0.315887
v 0.375086 0.370388 0.561077
v -0.392715 0.371999 0.753111
v -0.415664 0.663357 0.583981
v -0.415664 0.663357 -0.146757
v 0.375086 0.371999 -0.123856
v -0.681867 0.371999 0.561079
v 0.108883 0.663357 -0.146757
v 0.108883 0.663357 0.583981
v 0.085934 0.371999 0.753111
v -0.392715 0.371999 -0.315887
v -0.392715 -0.003686 -0.315887
v 0.085934 -0.003686 0.753111
v -0.681867 -0.003686 0.561079
v -0.392715 -0.003686 0.753111
v 0.375086 -0.003686 0.561079
v -0.681867 -0.003686 -0.123856
v -0.103210 0.298933 -0.654119
v 0.530557 0.290214 0.060528
v 0.530557 0.298933 -0.654119
v 0.606009 0.309366 -0.147104
v -0.132786 -0.003686 -0.670216
v 0.560132 -0.003686 -0.670216
v 0.560132 -0.003686 0.076624
v 0.684475 -0.003686 -0.149519
v -0.149652 0.307579 -0.575932
v 0.408319 0.307579 -0.687881
v 0.576998 0.307579 -0.017660
v 0.576998 0.307579 -0.575932
v 0.615063 0.309366 -0.296795
v 0.439266 0.327624 -0.142578
v 0.019028 0.307579 -0.687881
v 0.020979 -0.003686 -0.731882
v 0.413216 -0.003686 0.135546
v -0.267290 -0.003686 -0.306341
v 0.695340 -0.003686 -0.296795
v 0.647202 -0.003686 -0.571930
v 0.647202 -0.003686 -0.021660
v 0.406367 -0.003686 -0.731882
v -0.219855 -0.003686 -0.571930
v -0.127769 0.258779 -0.667507
v 0.555116 0.258779 -0.667507
v 0.555116 0.249223 0.073917
v 0.674666 0.260131 -0.149218
v -0.211163 0.259793 -0.572102
v 0.406063 0.259793 -0.726473
v 0.638510 0.259793 -0.021490
v 0.002834 0.325112 -0.590511
v 0.638510 0.259793 -0.572102
v 0.685306 0.260131 -0.296795
v 0.444472 0.327624 -0.296795
v 0.424512 0.325112 -0.590511
v 0.421990 0.321775 0.014925
v 0.021283 0.259793 -0.726475
v 0.419791 0.258820 0.127451
v 0.419899 0.305934 0.091091
v 0.367322 0.328283 -0.132736
v 0.271348 0.329565 -0.242537
v 0.110064 0.329058 -0.306341
v -0.016481 0.327624 -0.315887
v -0.186562 0.309366 -0.315887
v -0.256583 0.260131 -0.315887
vn -0.0875 0.8232 0.5610
vn 0.3642 0.8248 0.4325
vn 0.0004 1.0000 0.0001
vn 0.5684 0.8227 0.0074
vn -0.0000 -1.0000 -0.0000
vn 0.5946 0.5279 -0.6064
vn 0.6794 0.2280 -0.6974
vn 0.0322 0.2253 -0.9737
vn 0.0299 0.5274 -0.8491
vn -0.6927 0.5277 0.4916
vn -0.7959 0.2278 0.5609
vn -0.1644 0.2297 0.9593
vn -0.1405 0.5257 0.8390
vn -0.4545 0.8275 0.3296
vn 0.5481 0.5237 0.6522
vn -0.5572 0.8278 -0.0647
vn -0.8432 0.5273 -0.1042
vn -0.3642 0.8279 -0.4265
vn -0.5515 0.5272 -0.6464
vn -0.9667 0.2252 -0.1217
vn -0.6324 0.2242 -0.7414
vn 0.0235 0.8279 -0.5604
vn 0.3970 0.8276 -0.3967
vn 0.8509 0.5253 0.0002
vn 0.9733 0.2297 -0.0039
vn 0.6259 0.2294 0.7454
vn 0.0337 0.0939 -0.9950
vn -0.6461 0.0924 -0.7576
vn 0.9949 0.1012 -0.0029
vn 0.6952 0.0974 -0.7122
vn -0.8129 0.0971 0.5742
vn -0.1669 0.1010 0.9808
vn 0.6398 0.1018 0.7618
vn -0.9879 0.0936 -0.1238
vn -0.3249 0.6722 0.6653
vn 0.1426 0.6972 0.7025
vn -0.0660 0.9728 0.2222
vn 0.4771 0.7908 0.3835
vn 0.7270 0.6456 -0.2337
vn 0.8332 0.4308 -0.3467
vn 0.3280 0.4798 -0.8138
vn 0.2776 0.7091 -0.6482
vn -0.8508 0.4092 0.3297
vn -0.9504 0.1240 0.2852
vn -0.5010 0.0527 0.8638
vn -0.4481 0.3192 0.8350
vn -0.5925 0.7350 0.3297
vn 0.2618 0.3510 0.8990
vn -0.5570 0.8279 -0.0655
vn -0.7926 0.5487 -0.2659
vn -0.2544 0.9091 -0.3300
vn -0.3367 0.6700 -0.6616
vn -0.8793 0.2732 -0.3902
vn -0.3623 0.4178 -0.8331
vn 0.1549 0.9347 -0.3200
vn 0.4511 0.8914 -0.0431
vn 0.7648 0.4992 0.4072
vn 0.8799 0.2886 0.3773
vn 0.3089 0.1191 0.9436
vn 0.3517 0.3952 -0.8486
vn -0.3085 0.3243 -0.8942
vn 0.9237 0.2524 0.2883
vn 0.8354 0.3682 -0.4080
vn -0.9746 0.0199 0.2229
vn -0.4976 -0.0319 0.8668
vn 0.3857 0.0750 0.9196
vn -0.8560 0.1743 -0.4866
vn 0.0816 0.4050 -0.9107
vn -0.0263 0.9725 -0.2314
vn 0.6124 0.4908 -0.6198
vn -0.5554 0.4366 -0.7078
vn -0.5471 0.7123 0.4398
vn -0.6463 0.3802 0.6616
vn 0.0035 0.4457 0.8952
vn -0.0081 0.7710 0.6368
vn 0.7551 0.1938 -0.6263
vn 0.1137 0.1186 -0.9864
vn 0.7798 0.6204 -0.0835
vn 0.5294 0.7339 0.4256
vn 0.9498 0.3116 0.0270
vn 0.6471 0.4159 0.6390
vn -0.8130 0.5736 -0.0999
vn -0.9684 0.2492 0.0117
vn -0.6655 0.1324 -0.7346
vn 0.0166 0.3251 0.9455
vn 0.6469 0.3109 0.6963
vn -0.9813 0.1664 0.0968
vn -0.6294 0.2669 0.7298
vn 0.7927 0.1519 -0.5904
vn 0.1520 0.0932 -0.9840
vn -0.6852 0.0871 -0.7231
vn 0.9670 0.2380 0.0908
vn -0.1725 -0.0079 -0.9850
vn -0.1738 0.1022 -0.9795
vn 0.0163 -0.0084 -0.9998
vn 0.0299 -0.0154 -0.9994
vn -0.9749 0.1815 -0.1293
vn -0.7248 0.6819 -0.0985
vn -0.6708 0.6283 -0.3939
vn -0.8796 0.1507 -0.4513
vn -0.5155 0.4265 -0.7432
vn -0.5811 0.1055 -0.8069
vn 0.1677 0.0566 -0.9842
vn 0.1777 0.5451 -0.8193
vn 0.5155 0.4265 -0.7432
vn 0.5811 0.1055 -0.8069
vn -0.8790 -0.0000 -0.4769
vn -0.5766 -0.0000 -0.8170
vn -0.9905 -0.0000 -0.1375
vn 0.9793 0.1642 0.1184
vn 0.7321 0.6744 0.0958
vn 0.6773 0.6252 0.3877
vn 0.8847 0.1515 0.4409
vn 0.5159 0.4263 0.7430
vn 0.5815 0.1057 0.8067
vn 0.2736 -0.0596 -0.9600
vn 0.0095 -0.0219 -0.9997
vn -0.1777 0.5451 -0.8193
vn 0.8820 0.0029 0.4713
vn 0.5766 -0.0000 0.8170
vn -0.1780 0.1044 0.9785
vn -0.1777 0.5451 0.8193
vn -0.5155 0.4265 0.7432
vn -0.5811 0.1055 0.8069
vn -0.1872 -0.0000 0.9823
vn -0.5766 -0.0000 0.8170
vn 0.1986 0.9180 0.3432
vn -0.1986 0.9180 0.3432
vn 0.1777 0.5451 0.8193
vn -0.2084 0.9768 0.0499
vn -0.7248 0.6819 0.0985
vn -0.6708 0.6283 0.3939
vn 0.1986 0.9180 -0.3432
vn -0.1986 0.9180 -0.3432
vn -0.2084 0.9768 -0.0499
vn 0.2084 0.9768 -0.0499
vn 0.2084 0.9768 0.0499
vn 0.7280 0.6789 -0.0957
vn 0.9753 0.1909 -0.1115
vn 0.6708 0.6283 -0.3939
vn 0.8813 0.1616 -0.4441
vn 0.9916 -0.0017 0.1292
vn -0.9749 0.1815 0.1293
vn 0.1872 -0.0000 0.9823
vn 0.1780 0.1044 0.9785
vn -0.8796 0.1507 0.4513
vn 1.0000 0.0043 0.0081
vn 0.9859 0.0312 -0.1642
vn -0.8790 -0.0000 0.4769
vn -0.9905 -0.0000 0.1375
vn 0.3609 0.2724 0.8919
vn 0.3706 0.0183 0.9286
vn 0.5772 0.0213 0.8163
vn 0.5580 0.2971 0.7748
vn -0.9840 0.0330 -0.1751
vn -0.8869 0.4357 -0.1538
vn -0.8331 0.4054 -0.3762
vn -0.9016 0.0290 -0.4316
vn -0.4048 0.8859 -0.2264
vn -0.3330 0.7932 -0.5099
vn -0.5593 0.3196 -0.7649
vn -0.1881 0.0197 -0.9820
vn -0.1688 0.3126 -0.9348
vn 0.1688 0.3126 -0.9348
vn 0.1881 0.0197 -0.9820
vn 0.1134 0.8324 -0.5425
vn 0.3330 0.7932 -0.5100
vn 0.5593 0.3196 -0.7649
vn -0.5772 0.0210 -0.8163
vn 0.0590 0.9982 -0.0071
vn 0.0008 0.9999 -0.0123
vn 0.0068 0.9999 -0.0134
vn 0.8776 0.4555 0.1495
vn 0.3710 0.9262 0.0666
vn 0.3937 0.8796 0.2671
vn 0.8087 0.4070 0.4247
vn 0.3561 0.7580 0.5465
vn 0.5772 0.0210 -0.8163
vn 0.0618 0.9928 -0.1024
vn -0.0616 0.9928 -0.1027
vn -0.0566 0.9983 -0.0156
vn -0.1134 0.8324 -0.5425
vn 0.4051 0.8861 -0.2252
vn 0.3735 0.9274 -0.0190
vn 0.8883 0.4573 -0.0421
vn 0.8339 0.4061 -0.3738
vn 0.9840 0.0356 0.1748
vn 0.8777 0.0291 0.4783
vn 0.9981 0.0365 -0.0488
vn 0.9027 0.0300 -0.4291
vn -0.3846 0.9208 -0.0641
vn 0.0606 0.9979 0.0215
vn 0.1263 0.9802 0.1528
vn 0.0123 0.9998 0.0156
vn 0.2701 0.7656 0.5839
vn 0.5770 -0.0000 -0.8167
vn 0.8547 0.0155 -0.5189
vn 1.0000 -0.0046 -0.0034
vn -0.0000 -0.0000 -1.0000
vn 0.9999 -0.0092 -0.0098
vt 0.550376 0.100265
vt 0.059971 0.621034
s 1
usemtl BASE_MATERIAL
f 6/1/1 3/1/2 24/1/3
f 3/1/2 1/1/4 24/1/3
f 29/1/5 31/1/5 28/1/5 32/1/5 30/1/5 26/1/5 33/1/5 27/1/5
f 22/1/6 23/1/7 20/1/8 19/1/9
f 10/1/10 11/1/11 8/1/12 7/1/13
f 9/1/14 10/1/10 7/1/13 6/1/1
f 6/1/1 7/1/13 4/1/15 3/1/2
f 12/1/16 13/1/17 10/1/10 9/1/14
f 9/1/14 6/1/1 24/1/3
f 15/1/18 16/1/19 13/1/17 12/1/16
f 13/1/17 14/1/20 11/1/11 10/1/10
f 12/1/16 9/1/14 24/1/3
f 16/1/19 17/1/21 14/1/20 13/1/17
f 18/1/22 19/1/9 16/1/19 15/1/18
f 19/1/9 20/1/8 17/1/21 16/1/19
f 24/1/3 15/1/18 12/1/16
f 21/1/23 22/1/6 19/1/9 18/1/22
f 25/1/24 2/1/25 23/1/7 22/1/6
f 24/1/3 18/1/22 15/1/18
f 25/1/24 22/1/6 21/1/23 1/1/4
f 24/1/3 21/1/23 18/1/22
f 7/1/13 8/1/12 5/1/26 4/1/15
f 24/1/3 1/1/4 21/1/23
f 3/1/2 4/1/15 25/1/24 1/1/4
f 20/1/8 30/1/27 32/1/28 17/1/21
f 2/1/25 33/1/29 26/1/30 23/1/7
f 11/1/11 31/1/31 29/1/32 8/1/12
f 23/1/7 26/1/30 30/1/27 20/1/8
f 5/1/26 27/1/33 33/1/29 2/1/25
f 17/1/21 32/1/28 28/1/34 14/1/20
f 14/1/20 28/1/34 31/1/31 11/1/11
f 4/1/15 5/1/26 2/1/25 25/1/24
f 39/1/35 36/1/36 57/1/37
f 36/1/36 34/1/38 57/1/37
f 55/1/39 56/1/40 53/1/41 52/1/42
f 43/1/43 44/1/44 41/1/45 40/1/46
f 42/1/47 43/1/43 40/1/46 39/1/35
f 39/1/35 40/1/46 37/1/48 36/1/36
f 45/1/49 46/1/50 43/1/43 42/1/47
f 42/1/47 39/1/35 57/1/37
f 48/1/51 49/1/52 46/1/50 45/1/49
f 46/1/50 47/1/53 44/1/44 43/1/43
f 45/1/49 42/1/47 57/1/37
f 49/1/52 50/1/54 47/1/53 46/1/50
f 51/1/55 52/1/42 49/1/52 48/1/51
f 52/1/42 53/1/41 50/1/54 49/1/52
f 57/1/37 48/1/51 45/1/49
f 54/1/56 55/1/39 52/1/42 51/1/55
f 58/1/57 35/1/58 56/1/40 55/1/39
f 57/1/37 51/1/55 48/1/51
f 58/1/57 55/1/39 54/1/56 34/1/38
f 57/1/37 54/1/56 51/1/55
f 40/1/46 41/1/45 38/1/59 37/1/48
f 57/1/37 34/1/38 54/1/56
f 36/1/36 37/1/48 58/1/57 34/1/38
f 53/1/41 61/1/60 66/1/61 50/1/54
f 56/1/40 35/1/58 63/1/62 64/1/63
f 41/1/45 44/1/44 62/1/64 60/1/65
f 53/1/41 56/1/40 64/1/63 61/1/60
f 35/1/58 38/1/59 59/1/66 63/1/62
f 47/1/53 50/1/54 66/1/61 65/1/67
f 44/1/44 47/1/53 65/1/67 62/1/64
f 37/1/48 38/1/59 35/1/58 58/1/57
f 41/1/45 60/1/65 59/1/66 38/1/59
f 70/1/68 82/1/69 72/1/70
f 70/1/68 68/1/71 82/1/69
f 80/1/72 81/1/73 79/1/74 78/1/75
f 72/1/70 73/1/76 71/1/77 70/1/68
f 72/1/70 82/1/69 74/1/78
f 82/1/69 76/1/79 74/1/78
f 82/1/69 78/1/75 76/1/79
f 74/1/78 75/1/80 73/1/76 72/1/70
f 76/1/79 77/1/81 75/1/80 74/1/78
f 82/1/69 80/1/72 78/1/75
f 78/1/75 79/1/74 77/1/81 76/1/79
f 82/1/69 83/1/82 80/1/72
f 83/1/82 67/1/83 81/1/73 80/1/72
f 70/1/68 71/1/77 69/1/84 68/1/71
f 79/1/74 86/1/85 91/1/86 77/1/81
f 81/1/73 67/1/83 88/1/87 89/1/88
f 71/1/77 73/1/76 87/1/89 85/1/90
f 79/1/74 81/1/73 89/1/88 86/1/85
f 67/1/83 69/1/84 84/1/91 88/1/87
f 75/1/80 77/1/81 91/1/86 90/1/92
f 73/1/76 75/1/80 90/1/92 87/1/89
f 68/1/71 69/1/84 67/1/83 83/1/82
f 71/1/77 85/1/90 84/1/91 69/1/84
f 138/2/93 137/2/94 188/2/95 161/2/96
f 125/2/97 97/2/98 101/2/99 126/2/100
f 126/2/100 101/2/99 93/2/101 119/2/102
f 127/2/103 103/2/104 95/2/105 120/2/106
f 143/2/107 126/2/100 119/2/102 102/2/108
f 113/2/109 125/2/97 126/2/100 143/2/107
f 123/2/110 99/2/111 104/2/112 128/2/113
f 128/2/113 104/2/112 94/2/114 121/2/115
f 127/2/103 185/2/116 186/2/117
f 137/2/94 114/2/118 103/2/104 127/2/103
f 142/2/119 128/2/113 121/2/115 105/2/120
f 129/2/121 106/2/122 92/2/123 100/2/124
f 141/2/125 129/2/121 100/2/124 118/2/126
f 135/2/127 130/2/128 106/2/122 115/2/129
f 117/2/130 96/2/131 107/2/132 130/2/128
f 130/2/128 107/2/132 92/2/123 106/2/122
f 134/2/133 131/2/134 116/2/135 109/2/136
f 114/2/118 93/2/101 101/2/99 131/2/134
f 131/2/134 101/2/99 97/2/98 116/2/135
f 110/2/137 117/2/130 130/2/128 135/2/127
f 103/2/104 114/2/118 131/2/134 134/2/133
f 110/2/137 109/2/136 116/2/135 117/2/130
f 98/2/138 99/2/111 123/2/110 122/2/139
f 120/2/106 95/2/105 108/2/140 132/2/141
f 132/2/141 108/2/140 98/2/138 122/2/139
f 111/2/142 123/2/110 128/2/113 142/2/119
f 96/2/131 97/2/98 125/2/97 124/2/143
f 129/2/121 141/2/125 139/2/144 136/2/145
f 100/2/124 92/2/123 107/2/132 133/2/146
f 133/2/146 107/2/132 96/2/131 124/2/143
f 122/2/139 182/2/147 179/2/148
f 140/2/149 133/2/146 124/2/143 112/2/150
f 109/2/136 110/2/137 99/2/111 98/2/138
f 95/2/105 103/2/104 134/2/133 108/2/140
f 108/2/140 134/2/133 109/2/136 98/2/138
f 99/2/111 110/2/137 135/2/127 104/2/112
f 104/2/112 135/2/127 115/2/129 94/2/114
f 118/2/126 100/2/124 133/2/146 140/2/149
f 121/2/115 94/2/114 115/2/129 136/2/145
f 113/2/109 112/2/150 124/2/143 125/2/97
f 119/2/102 93/2/101 114/2/118 137/2/94
f 136/2/145 115/2/129 106/2/122 129/2/121
f 96/2/131 117/2/130 116/2/135 97/2/98
f 105/2/120 121/2/115 136/2/145 139/2/144
f 181/2/151 160/2/152 150/2/153 169/2/154
f 161/2/155 188/2/156 171/2/157 166/2/158
f 171/2/157 152/2/159 144/2/160 167/2/161
f 122/2/139 123/2/110 182/2/147
f 159/2/162 180/2/163 172/2/164 165/2/165
f 172/2/164 153/2/166 146/2/167 168/2/168
f 166/2/158 171/2/157 167/2/161 148/2/169
f 177/2/170 185/2/171 184/2/172
f 170/2/173 147/2/174 154/2/175 173/2/176
f 173/2/176 154/2/175 145/2/177 169/2/154
f 165/2/165 172/2/164 168/2/168 149/2/178
f 178/2/179 174/2/180 186/2/181 185/2/171 177/2/170
f 158/2/182 144/2/160 152/2/159 174/2/180
f 180/2/163 158/2/182 153/2/166 172/2/164
f 155/2/183 156/2/184 176/2/185 175/2/186
f 151/2/187 170/2/173 173/2/176 164/2/188
f 168/2/168 146/2/167 155/2/183 175/2/186
f 175/2/186 176/2/185 162/2/189 163/2/190
f 164/2/188 173/2/176 169/2/154 150/2/153
f 149/2/178 168/2/168 175/2/186 163/2/190
f 176/2/185 156/2/184 147/2/174 170/2/173
f 188/2/156 187/2/191 152/2/159 171/2/157
f 152/2/159 187/2/191 186/2/181 174/2/180
f 155/2/183 178/2/179 177/2/170 156/2/184
f 156/2/184 177/2/170 157/2/192 147/2/174
f 146/2/167 153/2/166 178/2/179 155/2/183
f 147/2/174 157/2/192 179/2/193 154/2/175
f 179/2/193 157/2/192 183/2/194
f 154/2/175 179/2/193 182/2/195 145/2/177
f 169/2/154 145/2/177 182/2/195 181/2/151
f 167/2/161 144/2/160 158/2/182 180/2/163
f 102/2/108 119/2/102 137/2/94 138/2/93
f 162/2/189 176/2/185 170/2/173 151/2/187
f 184/2/196 185/2/116 127/2/103 120/2/106
f 122/2/139 179/2/148 183/2/197 132/2/141
f 183/2/197 184/2/196 120/2/106 132/2/141
f 123/2/110 181/2/198 182/2/147
f 137/2/94 127/2/103 186/2/117 187/2/199
f 111/2/142 160/2/200 181/2/198 123/2/110
f 188/2/95 137/2/94 187/2/199
f 148/2/169 167/2/161 180/2/163 159/2/162
f 157/2/192 177/2/170 184/2/172 183/2/194
f 153/2/166 158/2/182 174/2/180 178/2/179
f 68/1/71 83/1/82 82/1/69
f 8/1/12 29/1/32 27/1/33 5/1/26
