# Blender 4.1.0
# www.blender.org
mtllib steps.mtl
o steps
v -0.680335 0.411215 0.457139
v -0.680335 0.411215 0.112824
v 0.680335 0.411215 0.457139
v 0.680335 0.411215 0.112824
v -0.695533 0.000000 0.466311
v -0.695533 0.000000 0.103653
v 0.695533 0.000000 0.103653
v 0.695533 0.000000 0.466311
v -0.692929 0.371299 0.464740
v -0.692929 0.418571 0.145263
v 0.610125 0.418571 0.105224
v 0.692929 0.418571 0.424701
v -0.610125 0.418571 0.464740
v -0.610125 0.418571 0.105224
v 0.610125 0.418571 0.464740
v -0.692929 0.418571 0.424701
v 0.692929 0.418571 0.145263
v -0.692929 0.371299 0.105224
v 0.692929 0.371299 0.105224
v 0.692929 0.371299 0.464740
v -0.722128 0.000000 0.425890
v 0.722128 0.000000 0.144073
v -0.612094 0.000000 0.087602
v 0.612094 0.000000 0.482362
v -0.612094 0.000000 0.482362
v 0.722128 0.000000 0.425890
v 0.612094 0.000000 0.087602
v -0.722128 0.000000 0.144073
v -0.718470 0.372162 0.144371
v 0.611602 0.372162 0.089810
v 0.718470 0.372162 0.425592
v -0.611602 0.372162 0.480154
v -0.611602 0.433488 0.425592
v 0.611602 0.433488 0.425592
v 0.611602 0.372162 0.480154
v -0.611602 0.372162 0.089810
v 0.611602 0.433488 0.144371
v -0.611602 0.433488 0.144371
v 0.718470 0.372162 0.144371
v -0.718470 0.372162 0.425592
v -0.624907 0.244717 -0.116723
v -0.605766 0.244717 -0.460505
v 0.566549 0.244717 -0.050389
v 0.585690 0.244717 -0.394171
v -0.638723 0.000000 -0.108306
v -0.618564 0.000000 -0.470404
v 0.599506 0.000000 -0.402588
v 0.579347 0.000000 -0.040490
v -0.636356 0.204800 -0.109748
v -0.618597 0.252072 -0.428731
v 0.524632 0.252072 -0.405183
v 0.579380 0.252072 -0.082163
v -0.563849 0.252072 -0.105711
v -0.543864 0.252072 -0.464671
v 0.504647 0.252072 -0.046223
v -0.634130 0.252073 -0.149725
v 0.594913 0.252073 -0.361169
v -0.616371 0.204800 -0.468708
v 0.597139 0.204800 -0.401146
v 0.577154 0.204800 -0.042186
v -0.659764 0.000000 -0.149961
v 0.620548 0.000000 -0.360933
v -0.544610 0.000000 -0.482362
v 0.505393 0.000000 -0.028532
v -0.566554 0.000000 -0.088213
v 0.604882 0.000000 -0.079553
v 0.527337 0.000000 -0.422682
v -0.644099 0.000000 -0.431341
v -0.640912 0.205663 -0.430866
v 0.526783 0.205663 -0.420501
v 0.601695 0.205663 -0.080028
v -0.566000 0.205663 -0.090393
v -0.562967 0.266989 -0.144870
v 0.508118 0.266989 -0.085238
v 0.505084 0.205663 -0.030761
v -0.544301 0.205663 -0.480133
v 0.523750 0.266989 -0.366024
v -0.547335 0.266989 -0.425656
v 0.617328 0.205663 -0.360814
v -0.656545 0.205663 -0.150080
vn -0.9371 0.2312 -0.2615
vn -0.5887 0.7796 -0.2134
vn -0.4105 0.6244 -0.6645
vn -0.5633 0.1840 -0.8055
vn -0.5887 0.7796 0.2134
vn -0.9371 0.2312 0.2615
vn 0.0880 0.1526 -0.9844
vn 0.0842 0.6890 -0.7199
vn 0.4105 0.6244 -0.6645
vn 0.5633 0.1840 -0.8055
vn 0.9371 0.2312 0.2615
vn 0.5887 0.7796 0.2134
vn 0.4105 0.6244 0.6645
vn 0.5633 0.1840 0.8055
vn -0.0880 0.1526 0.9844
vn -0.0842 0.6890 0.7199
vn -0.4105 0.6244 0.6645
vn -0.5633 0.1840 0.8055
vn -0.0856 0.9815 0.1713
vn -0.0856 0.9815 -0.1713
vn 0.0856 0.9815 0.1713
vn 0.0856 0.9815 -0.1713
vn 0.0842 0.6890 0.7199
vn 0.0880 0.1526 0.9844
vn -0.0842 0.6890 -0.7199
vn -0.0880 0.1526 -0.9844
vn 0.5887 0.7796 -0.2134
vn 0.9371 0.2312 -0.2615
vn 0.9583 0.0095 0.2856
vn 0.9583 0.0095 -0.2856
vn -0.5568 0.0077 0.8306
vn -0.9583 0.0095 0.2856
vn -0.9583 0.0095 -0.2856
vn 0.5568 0.0077 -0.8306
vn 0.0943 0.0059 -0.9955
vn -0.0943 0.0059 -0.9955
vn -0.5568 0.0077 -0.8306
vn -0.0943 0.0059 0.9955
vn 0.0943 0.0059 0.9955
vn 0.5568 0.0077 0.8306
vn -0.9333 0.2122 -0.2898
vn -0.6040 0.7614 -0.2357
vn -0.4114 0.6122 -0.6753
vn -0.5487 0.1774 -0.8170
vn -0.6264 0.7614 0.1672
vn -0.9597 0.2122 0.1844
vn 0.1542 0.1548 -0.9758
vn 0.1355 0.6883 -0.7127
vn 0.4838 0.6122 -0.6254
vn 0.6360 0.1774 -0.7510
vn 0.9333 0.2122 0.2898
vn 0.6040 0.7614 0.2358
vn 0.4114 0.6122 0.6753
vn 0.5487 0.1774 0.8170
vn -0.1542 0.1548 0.9758
vn -0.1355 0.6883 0.7127
vn -0.4838 0.6122 0.6254
vn -0.6360 0.1774 0.7510
vn -0.1064 0.9805 0.1654
vn -0.0874 0.9805 -0.1761
vn 0.0874 0.9805 0.1761
vn 0.1064 0.9805 -0.1654
vn 0.0555 0.6883 0.7233
vn 0.0449 0.1548 0.9869
vn -0.0555 0.6883 -0.7233
vn -0.0449 0.1548 -0.9869
vn 0.6264 0.7614 -0.1672
vn 0.9597 0.2122 -0.1844
vn 0.9504 0.0153 0.3108
vn 0.9790 0.0153 -0.2034
vn -0.6354 0.0133 0.7721
vn -0.9790 0.0152 0.2033
vn -0.9504 0.0152 -0.3108
vn 0.6354 0.0133 -0.7721
vn 0.1622 0.0106 -0.9867
vn -0.0517 0.0106 -0.9986
vn -0.5457 0.0133 -0.8379
vn -0.1622 0.0106 0.9867
vn 0.0517 0.0106 0.9986
vn 0.5457 0.0133 0.8379
vt 0.170604 0.192441
s 1
usemtl BASE_MATERIAL
f 29/1/1 10/1/2 2/1/3 18/1/4
f 16/1/5 10/1/2 29/1/1 40/1/6
f 30/1/7 11/1/8 4/1/9 19/1/10
f 31/1/11 12/1/12 3/1/13 20/1/14
f 32/1/15 13/1/16 1/1/17 9/1/18
f 33/1/19 16/1/5 1/1/17 13/1/16
f 38/1/20 33/1/19 34/1/21 37/1/22
f 12/1/12 34/1/21 15/1/23 3/1/13
f 15/1/23 13/1/16 32/1/15 35/1/24
f 20/1/14 3/1/13 15/1/23 35/1/24
f 14/1/25 11/1/8 30/1/7 36/1/26
f 18/1/4 2/1/3 14/1/25 36/1/26
f 14/1/25 38/1/20 37/1/22 11/1/8
f 4/1/9 11/1/8 37/1/22 17/1/27
f 14/1/25 2/1/3 10/1/2 38/1/20
f 17/1/27 12/1/12 31/1/11 39/1/28
f 19/1/10 4/1/9 17/1/27 39/1/28
f 9/1/18 1/1/17 16/1/5 40/1/6
f 31/1/11 26/1/29 22/1/30 39/1/28
f 37/1/22 34/1/21 12/1/12 17/1/27
f 5/1/31 9/1/18 40/1/6 21/1/32
f 29/1/1 28/1/33 21/1/32 40/1/6
f 19/1/10 39/1/28 22/1/30 7/1/34
f 30/1/7 27/1/35 23/1/36 36/1/26
f 18/1/4 36/1/26 23/1/36 6/1/37
f 32/1/15 25/1/38 24/1/39 35/1/24
f 20/1/14 35/1/24 24/1/39 8/1/40
f 32/1/15 9/1/18 5/1/31 25/1/38
f 31/1/11 20/1/14 8/1/40 26/1/29
f 30/1/7 19/1/10 7/1/34 27/1/35
f 29/1/1 18/1/4 6/1/37 28/1/33
f 33/1/19 13/1/16 15/1/23 34/1/21
f 16/1/5 33/1/19 38/1/20 10/1/2
f 69/1/41 50/1/42 42/1/43 58/1/44
f 56/1/45 50/1/42 69/1/41 80/1/46
f 70/1/47 51/1/48 44/1/49 59/1/50
f 71/1/51 52/1/52 43/1/53 60/1/54
f 72/1/55 53/1/56 41/1/57 49/1/58
f 73/1/59 56/1/45 41/1/57 53/1/56
f 78/1/60 73/1/59 74/1/61 77/1/62
f 52/1/52 74/1/61 55/1/63 43/1/53
f 55/1/63 53/1/56 72/1/55 75/1/64
f 60/1/54 43/1/53 55/1/63 75/1/64
f 54/1/65 51/1/48 70/1/47 76/1/66
f 58/1/44 42/1/43 54/1/65 76/1/66
f 54/1/65 78/1/60 77/1/62 51/1/48
f 44/1/49 51/1/48 77/1/62 57/1/67
f 54/1/65 42/1/43 50/1/42 78/1/60
f 57/1/67 52/1/52 71/1/51 79/1/68
f 59/1/50 44/1/49 57/1/67 79/1/68
f 49/1/58 41/1/57 56/1/45 80/1/46
f 71/1/51 66/1/69 62/1/70 79/1/68
f 77/1/62 74/1/61 52/1/52 57/1/67
f 45/1/71 49/1/58 80/1/46 61/1/72
f 69/1/41 68/1/73 61/1/72 80/1/46
f 59/1/50 79/1/68 62/1/70 47/1/74
f 70/1/47 67/1/75 63/1/76 76/1/66
f 58/1/44 76/1/66 63/1/76 46/1/77
f 72/1/55 65/1/78 64/1/79 75/1/64
f 60/1/54 75/1/64 64/1/79 48/1/80
f 72/1/55 49/1/58 45/1/71 65/1/78
f 71/1/51 60/1/54 48/1/80 66/1/69
f 70/1/47 59/1/50 47/1/74 67/1/75
f 69/1/41 58/1/44 46/1/77 68/1/73
f 73/1/59 53/1/56 55/1/63 74/1/61
f 56/1/45 73/1/59 78/1/60 50/1/42
